$MeshFormat
4.1 0 8
$EndMeshFormat
$PhysicalNames
5
1 1 "Left"
1 2 "Right"
1 3 "Bottom"
1 4 "Top"
2 5 "Fluid"
$EndPhysicalNames
$Entities
0 4 1 0
1 0 0 0 40 0 0 1 3 0 
2 40 0 0 40 10 0 1 2 0 
3 0 10 0 40 10 0 1 4 0 
4 0 0 0 0 10 0 1 1 0 
1 0 0 0 40 10 0 1 5 0 
$EndEntities
$Nodes
5 575 1 575
1 1 0 41
1
2
3
4
5
6
7
8
9
10
11
12
13
14
15
16
17
18
19
20
21
22
23
24
25
26
27
28
29
30
31
32
33
34
35
36
37
38
39
40
41
20.99999999997117 0 0
0.9999999999991025 0 0
2.999999999997481 0 0
4.999999999994949 0 0
6.999999999990224 0 0
8.999999999984389 0 0
10.99999999997856 0 0
12.99999999997272 0 0
14.99999999996696 0 0
16.99999999996535 0 0
18.99999999996812 0 0
37.99999999999698 0 0
22.99999999997421 0 0
24.99999999997726 0 0
26.9999999999803 0 0
28.99999999998334 0 0
30.99999999998639 0 0
32.99999999998942 0 0
34.99999999999245 0 0
36.99999999999547 0 0
38.99999999999849 0 0
17.9999999999666 0 0
40 0 0
1.999999999998205 0 0
3.999999999996757 0 0
5.999999999993141 0 0
7.999999999987307 0 0
9.999999999981473 0 0
11.99999999997564 0 0
13.9999999999698 0 0
15.99999999996411 0 0
0 0 0
19.99999999996964 0 0
21.99999999997269 0 0
23.99999999997573 0 0
25.99999999997878 0 0
27.99999999998182 0 0
29.99999999998487 0 0
31.99999999998791 0 0
33.99999999999093 0 0
35.99999999999396 0 0
1 2 0 10
42
43
44
45
46
47
48
49
50
51
40 10 0
40 1.999999999996827 0
40 3.999999999991027 0
40 5.999999999993932 0
40 7.999999999996978 0
40 0.9999999999984135 0
40 2.999999999993927 0
40 4.99999999999248 0
40 6.999999999995455 0
40 8.99999999999849 0
1 3 0 40
52
53
54
55
56
57
58
59
60
61
62
63
64
65
66
67
68
69
70
71
72
73
74
75
76
77
78
79
80
81
82
83
84
85
86
87
88
89
90
91
18.99999999999996 10 0
36.99999999999999 10 0
34.99999999999999 10 0
32.99999999999999 10 0
30.99999999999998 10 0
28.99999999999998 10 0
26.99999999999998 10 0
24.99999999999996 10 0
22.99999999999996 10 0
20.99999999999996 10 0
39 10 0
16.99999999999995 10 0
14.99999999999995 10 0
12.99999999999994 10 0
10.99999999999994 10 0
8.999999999999932 10 0
6.99999999999994 10 0
4.999999999999957 10 0
2.999999999999975 10 0
0.999999999999993 10 0
19.99999999999996 10 0
37.99999999999999 10 0
35.99999999999999 10 0
33.99999999999999 10 0
31.99999999999998 10 0
29.99999999999998 10 0
27.99999999999998 10 0
25.99999999999997 10 0
23.99999999999996 10 0
21.99999999999996 10 0
0 10 0
17.99999999999995 10 0
15.99999999999995 10 0
13.99999999999995 10 0
11.99999999999994 10 0
9.999999999999936 10 0
7.999999999999929 10 0
5.99999999999995 10 0
3.999999999999964 10 0
1.999999999999986 10 0
1 4 0 9
92
93
94
95
96
97
98
99
100
0 7.999999999999996 0
0 5.999999999999991 0
0 3.999999999999988 0
0 1.999999999999982 0
0 8.999999999999998 0
0 6.999999999999993 0
0 4.999999999999989 0
0 2.999999999999985 0
0 0.999999999999991 0
2 1 0 475
101
102
103
104
105
106
107
108
109
110
111
112
113
114
115
116
117
118
119
120
121
122
123
124
125
126
127
128
129
130
131
132
133
134
135
136
137
138
139
140
141
142
143
144
145
146
147
148
149
150
151
152
153
154
155
156
157
158
159
160
161
162
163
164
165
166
167
168
169
170
171
172
173
174
175
176
177
178
179
180
181
182
183
184
185
186
187
188
189
190
191
192
193
194
195
196
197
198
199
200
201
202
203
204
205
206
207
208
209
210
211
212
213
214
215
216
217
218
219
220
221
222
223
224
225
226
227
228
229
230
231
232
233
234
235
236
237
238
239
240
241
242
243
244
245
246
247
248
249
250
251
252
253
254
255
256
257
258
259
260
261
262
263
264
265
266
267
268
269
270
271
272
273
274
275
276
277
278
279
280
281
282
283
284
285
286
287
288
289
290
291
292
293
294
295
296
297
298
299
300
301
302
303
304
305
306
307
308
309
310
311
312
313
314
315
316
317
318
319
320
321
322
323
324
325
326
327
328
329
330
331
332
333
334
335
336
337
338
339
340
341
342
343
344
345
346
347
348
349
350
351
352
353
354
355
356
357
358
359
360
361
362
363
364
365
366
367
368
369
370
371
372
373
374
375
376
377
378
379
380
381
382
383
384
385
386
387
388
389
390
391
392
393
394
395
396
397
398
399
400
401
402
403
404
405
406
407
408
409
410
411
412
413
414
415
416
417
418
419
420
421
422
423
424
425
426
427
428
429
430
431
432
433
434
435
436
437
438
439
440
441
442
443
444
445
446
447
448
449
450
451
452
453
454
455
456
457
458
459
460
461
462
463
464
465
466
467
468
469
470
471
472
473
474
475
476
477
478
479
480
481
482
483
484
485
486
487
488
489
490
491
492
493
494
495
496
497
498
499
500
501
502
503
504
505
506
507
508
509
510
511
512
513
514
515
516
517
518
519
520
521
522
523
524
525
526
527
528
529
530
531
532
533
534
535
536
537
538
539
540
541
542
543
544
545
546
547
548
549
550
551
552
553
554
555
556
557
558
559
560
561
562
563
564
565
566
567
568
569
570
571
572
573
574
575
6.92375369051265 4.780818499659887 0
13.01415585069813 4.805907567776135 0
33.10875366804025 5.185050584280587 0
27.02249768754406 4.975133515522837 0
21.25276871494838 4.941245872356513 0
17.02189179689304 5.790907384534306 0
36.44862411418951 3.592022007523495 0
3.551375885803723 3.592022007521539 0
9.999999999981007 3.399999999994254 0
30.25038611125911 6.704102143168321 0
23.75500767972444 6.690705787503178 0
9.767137565175403 6.798698549621498 0
24.16666666666677 3.299999999999741 0
30.05486493013912 3.37985184306796 0
3.211604852792737 6.865059252466049 0
36.78839514720821 6.865059252466612 0
15.66804763976546 3.25396682526692 0
18.60702179216694 3.190249925098083 0
14.55286655127485 7.267253128162169 0
19.42462053502617 7.185198400696925 0
5.834686385938459 7.167113046140067 0
34.0787180263717 7.017759645574408 0
6.987281002481456 2.354595258588856 0
12.9768332146831 1.746762941052092 0
26.99999999999998 7.600000000000942 0
27.01098430925394 2.346444128355594 0
33.08130157365006 1.807202293918523 0
21.1671389266967 2.433427785345292 0
11.89055918964851 7.546464019344005 0
21.89664740826032 7.63338127777789 0
32.0158468287226 7.794182841607091 0
7.904892342548058 7.84563249484508 0
1.899699225488655 5.106084529274161 0
38.10030077450942 5.106084529272463 0
4.876310981498895 5.383145772660641 0
35.12368901848983 5.383145772656445 0
35.0815286624126 1.926910828027215 0
4.918471337573323 1.926910828023669 0
37.87797619047635 2.122023809524003 0
2.12202380952148 2.122023809521371 0
16.99378097544967 8.614940531088635 0
19.0465026468155 5.309154753412555 0
15.08612670458062 5.31629733338526 0
17.13164530156409 1.90773346933382 0
29.00070958965406 1.790252473265713 0
23.16580778093368 4.904445713709597 0
29.12010719247425 4.955276202415628 0
11.22098731213124 5.371013628108497 0
11.07310370664134 1.765196721487248 0
9.009970388574326 1.810677656553893 0
28.90999037667288 8.220015405177808 0
25.01442580715689 8.210788299751918 0
22.870850592043 1.686496543642213 0
9.03285250691293 5.002887879071924 0
24.93082856267231 4.99305287728266 0
31.07333333333319 5.000000000000019 0
30.98896179915911 1.749938239349706 0
25.13527708841147 1.758967714419537 0
5.45143857957401 3.607498473290918 0
34.10679862305348 3.569442385375384 0
17.11657148910689 4.131211574524416 0
1.84149147727382 8.158508522726178 0
38.15850852272763 8.158508522727404 0
14.97635367575421 1.683516273680942 0
4.624531741439304 8.501049899653749 0
35.35502485107941 8.482350562881296 0
10.54313904675931 8.538195413090023 0
23.33321617902831 8.506975073006597 0
28.46059627359006 6.490905453257108 0
12.05165413410049 3.464813476402777 0
19.60898755567084 1.677580714459667 0
8.390771517692475 3.469795858773763 0
25.54455194741953 6.493936096012307 0
28.44183274181309 3.489391632525546 0
13.96219520326367 3.378544069594021 0
32.0690023212292 3.448580890998697 0
25.65325086290971 3.474719647116074 0
30.50749630119938 8.435109618916163 0
22.12490693545414 3.486664182217604 0
13.45410079578044 8.477100775432957 0
1.464894264667039 6.668773594547382 0
38.53510573533342 6.668773594546503 0
20.21550085177089 3.578868171736631 0
20.49648399353164 8.487175721291692 0
33.36140359296952 8.621760403381911 0
15.16619598055542 8.570299072446664 0
7.963333333322964 6.232506018154705 0
18.81974299052632 8.558302442176666 0
1.486818124467178 3.542152688675047 0
38.51318187553141 3.542152688675724 0
32.0717385681351 6.266175975013661 0
13.20313273401896 6.46400607536817 0
20.76178503710582 6.509655793473687 0
6.586982203621478 8.632821551485724 0
9.122769719263797 8.74586598869071 0
36.521175497432 1.430773123856835 0
3.478824502559363 1.430773123852032 0
22.16640332419453 6.135886888964173 0
36.61312270486258 5.279727573574018 0
3.386877295132093 5.27972757357505 0
16.13740574131736 7.103699574933299 0
17.90732411433801 7.093700514473731 0
20.99999999997116 1.016982348340391 0
3.099506531930549 8.782165099106699 0
36.86038570420305 8.701183667615062 0
38.88461143741175 1.115388562585487 0
1.115388562584664 1.11538856258545 0
7.493640501234381 1.177297629294428 0
6.493640501237298 1.177297629294428 0
13.48841660732645 0.873381470526046 0
12.48841660732937 0.873381470526046 0
26.49999999999998 8.800000000000471 0
27.49999999999998 8.800000000000471 0
27.50549215461788 1.173222064177797 0
26.50549215461636 1.173222064177797 0
33.54065078682049 0.9036011469592615 0
32.54065078681899 0.9036011469592615 0
10.82884837741196 7.172581284482751 0
10.49406243865332 6.084856088864997 0
11.55577325088987 6.458738823726251 0
12.2120600230751 5.917509851738334 0
12.54684596183374 7.005235047356088 0
35.43355658678996 6.94140944902051 0
34.60120352243077 6.200452709115426 0
35.95604208284902 6.124102512561528 0
4.523145619365598 7.016086149303058 0
4.043957917145816 6.124102512563345 0
5.355498683718677 6.275129409400354 0
6.379220038225554 5.973965772899977 0
5.900032336005772 5.081982136160264 0
33.59373584720598 6.101405114927497 0
34.11622134326504 5.284098178468517 0
17.56582265076535 0.95386673466691 0
18.80449377781872 0.8387903572298335 0
18.37031642861746 1.792657091896743 0
5.952876170027389 2.140753043306263 0
5.459235668783232 0.9634554140118345 0
34.54076433120177 0.9634554140136075 0
34.08141511803133 1.867056560972869 0
33.0752282972534 6.641967810294035 0
32.59024611808768 5.725613279647124 0
7.443543511917808 5.506662258907296 0
6.899009859630711 6.699809532147386 0
36.07170999914381 7.673704907673954 0
34.71687143872556 7.750055104227852 0
5.229609063688882 7.834081472896909 0
3.918068297116021 7.683054576059899 0
12.11757158141468 5.088460597942316 0
13.10864429235854 5.634956821572152 0
14.488176837862 0.841758136840471 0
13.97659344521865 1.715139607366517 0
34.6775124255397 9.241175281440647 0
33.68070179648475 9.310880201690956 0
34.35821422202447 8.552055483131603 0
28.50035479481794 0.8951262366328565 0
28.005846949454 2.068348300810654 0
8.504985194280817 0.9053388282769465 0
7.998625695527891 2.082636457571374 0
12.02496846066222 1.75597983126967 0
11.53655185330849 0.882598360743624 0
27.95499518833643 7.910007702589375 0
28.45499518833643 9.110007702588904 0
25.50721290357843 9.105394149875959 0
26.00721290357843 7.905394149876431 0
0.92074573863691 9.07925426136309 0
1.920745738636903 9.07925426136309 0
0.92074573863691 8.079254261363086 0
38.07925426136381 9.079254261363701 0
39.07925426136381 9.079254261363701 0
39.07925426136381 8.079254261362191 0
17.86933354686552 2.548991697215952 0
19.10800467391889 2.433915319778875 0
27.016740998399 3.660788821939216 0
27.72640852553351 2.91791788044057 0
27.73216521467857 4.232262574024192 0
26.33787427522689 4.224926581319456 0
26.33211758608183 2.910581887735834 0
6.955517346497054 3.567706879124371 0
6.18759613504333 4.194158486475402 0
6.219359791027733 2.981046865939887 0
26.07313069883271 2.052705921387566 0
25.56763854419513 0.8794838572097685 0
32.03513168640458 1.778570266634115 0
31.49448089957351 0.874969119674853 0
7.689026260086965 2.91219555868131 0
7.657262604102563 4.125307179216825 0
27.01124884377202 6.28756675776189 0
26.27227597370975 7.046968048006624 0
26.2835248174818 5.734534805767572 0
27.74154698056706 5.733019484389972 0
27.73029813679502 7.045452726629025 0
33.60777614554686 4.377246484827985 0
32.58887799463473 4.316815737639642 0
33.08790047214134 3.50901163818704 0
33.59405009835177 2.688322339646954 0
32.57515194743963 2.62789159245861 0
5.312265870719627 9.250524949826875 0
5.605756972530391 8.566935725569737 0
6.293491101810714 9.316410775742863 0
33.04728242754715 7.405971243590749 0
32.04379269842885 7.030179408310376 0
11.94527959482422 8.773232009672002 0
11.27156952337963 9.269097706545011 0
11.21684911820391 8.042329716217013 0
29.50035479481947 0.8951262366328565 0
30.49448089957199 0.874969119674853 0
29.99483569440659 1.77009535630771 0
33.72006080967061 7.81976002447816 0
21.68883782520126 4.213955027287058 0
20.73413478335964 4.260057022046572 0
21.17020389361252 3.532766176977117 0
4.312265870719634 9.250524949826875 0
35.6775124255397 9.241175281440647 0
6.869789364243259 7.506372770492574 0
7.934112837935511 7.039069256499893 0
14.46927443950894 2.531030171637481 0
13.46951420897339 2.562653505323056 0
10.53655185331141 0.882598360743624 0
10.04153704760783 1.78793718902057 0
9.5049851942779 0.9053388282769465 0
21.94832370413014 8.816690638888945 0
22.61493179364432 8.070178175392243 0
22.66660808951413 9.253487536503298 0
12.67232999271447 8.011782397388481 0
12.72705039789019 9.238550387716479 0
39.05015038725471 5.553042264633198 0
39.05015038725471 4.553042264631745 0
0.9498496127443276 4.553042264637075 0
0.9498496127443276 5.553042264637076 0
15.37708717217304 4.28513207932609 0
16.39230956443618 3.692589199895668 0
16.10134909684376 4.723754453954838 0
16.05400925073683 5.553602358959783 0
17.06923164299997 4.961059479529361 0
21.64602293107542 2.960045983781448 0
20.6913198892338 3.006147978540961 0
4.45923566878504 0.9634554140118345 0
35.54076433120328 0.9634554140136075 0
10.15513830596736 7.668446981355761 0
16.39984647066478 2.58085014730037 0
17.12410839533549 3.019472521929118 0
17.86179664063691 3.66073074981125 0
21.2482419967658 9.243587860645846 0
21.19656570089598 8.060278499534791 0
19.23556159092083 6.24717657705474 0
19.90414384196066 5.909405273443121 0
20.09320278606599 6.847427097085307 0
23.43542529600936 0.8432482718211065 0
24.5676385441936 0.8794838572097685 0
24.00306384022723 1.722732129030875 0
29.52778725989659 2.585052158166836 0
30.52191336464912 2.564895041208833 0
15.32220065775983 2.468741549473931 0
14.81512142151457 3.31625544743047 0
6.210834294779968 7.899967298812896 0
22.82582754399238 7.162043532640534 0
23.54411192937637 7.598840430254887 0
16.49689048772481 9.307470265544318 0
17.49689048772481 9.307470265544318 0
10.53655185331117 2.582598360740751 0
9.504985194277666 2.605338828274073 0
22.03152536622743 6.884634083371031 0
22.96070550195948 6.413296338233675 0
19.80449377782024 0.8387903572298335 0
32.00792341436129 8.897091420803545 0
31.25374815059968 9.217554809458083 0
31.26167156496099 8.114646230261627 0
20.14963568088194 5.125200312884534 0
21.0072768760271 5.7254508329151 0
14.81949662792773 6.291775230773714 0
13.87799964264691 6.865629601765169 0
14.14462971929979 5.890151704376715 0
23.51875862935488 2.493248271820977 0
24.65097187753912 2.529483857209639 0
12.53290499239931 4.135360522089456 0
13.00692466868208 3.421678772998399 0
13.4881755269809 4.092225818685078 0
8.836014953861731 7.32216552223329 0
9.4449536422196 7.772282269156104 0
8.513831030905926 8.295749241767895 0
18.66597232468209 7.139449457585329 0
18.47691338057675 6.201427633943143 0
31.13311646999086 7.249142492387707 0
31.16106233969711 6.485139059090992 0
16.5658226507641 0.95386673466691 0
14.05014127763937 5.061102450580698 0
29.45499518833643 9.110007702588904 0
24.50721290357843 9.105394149875959 0
10.27156952337962 9.269097706545011 0
35.78615656633967 4.48758389008997 0
34.61524382077165 4.476294079015915 0
35.2777113686215 3.58073219644944 0
4.213843433651309 4.48758389009109 0
4.501407232688866 3.599760240406229 0
5.163874780536452 4.49532212297578 0
22.20928824794103 4.922845793033055 0
22.64535735819391 4.195554947963601 0
12.5142436743918 2.605788208727434 0
35.76507638830105 2.759466417775355 0
34.59416364273304 2.748176606701299 0
4.234923611688523 2.759466417772604 0
5.184954958573666 2.767204650657294 0
30.37894120622925 7.569605881042243 0
37.27446244434947 4.349053268397979 0
37.48090299486046 3.567087348099609 0
38.30674132502041 4.324118608974094 0
2.725537555646189 4.349053268397849 0
1.693258674977917 4.324118608974604 0
2.519097005135451 3.567087348098293 0
3.515100194181543 2.511397565686786 0
4.198647920066343 1.678841975937851 0
35.8013520799223 1.678841975942025 0
36.48489980581076 2.511397565690165 0
23.46040773032906 5.797575750606388 0
24.048318171803 4.948749295496128 0
24.34291812119837 5.841879332392919 0
29.68524665186668 5.829689172791975 0
30.09672026290372 4.977638101207823 0
30.66185972229615 5.85205107158417 0
23.66623722380022 4.102222856854669 0
24.54874761466954 4.1465264386412 0
29.58748606130668 4.167564022741794 0
30.56409913173616 4.189925921533989 0
10.61049365605612 4.385506814051375 0
10.12691990952208 5.18695075359021 0
9.516426253446969 4.201443939533089 0
9.399995036044167 5.900793214346711 0
2.836699847662602 2.857022908521455 0
2.800424156040421 1.776398466686701 0
37.16330015233294 2.857022908523749 0
37.19957584395418 1.776398466690419 0
32.68862521084606 8.207971622494501 0
32.68070179648475 9.310880201690956 0
35.86840586167621 5.331436673115231 0
36.7007589260354 6.072393413020315 0
3.299241073962415 6.072393413020549 0
4.131594138315494 5.331436673117846 0
16.05399948865915 1.795624871507381 0
15.48817683785916 0.841758136840471 0
18.03419722185427 5.55003106897343 0
18.08153706796119 4.720183163968485 0
18.82676221949122 4.249702339255319 0
38.93898809523817 2.061011904760415 0
39.25659093776571 2.771076344336276 0
38.19557903300388 2.832088249099864 0
1.06101190476074 2.061011904760676 0
1.804420966994329 2.832088249098209 0
0.743409062233589 2.771076344337514 0
22.43542529600784 0.8432482718211065 0
23.66660808951413 9.253487536503298 0
15.58309799027769 9.285149536223333 0
16.07998847800254 8.592619801767651 0
15.61176622294899 6.20999845415928 0
15.3451361462961 7.185476351547734 0
30.25374815059968 9.217554809458083 0
17.46460795561553 6.442303949504019 0
17.90676198298799 8.586621486632652 0
18.40987149526313 9.279151221088334 0
7.952446171273993 8.92281624742254 0
7.293491101810703 9.316410775742863 0
7.245937273084768 8.239227023165402 0
8.865235449249184 6.515602283888102 0
28.07130244000916 4.965204858969233 0
28.78096996714367 4.222333917470587 0
37.93898809523667 1.061011904762001 0
37.26058774871449 0.7153865619284175 0
2.061011904759843 1.061011904760685 0
2.739412251278784 0.715386561926016 0
20.2482419967658 9.243587860645846 0
39.25659093776571 3.771076344333376 0
0.743409062233589 3.771076344337517 0
13.7270503978902 9.238550387716479 0
16.5796487691052 6.447303479733803 0
9.832954383011554 8.642030700890366 0
0.7324471323335195 6.334386797273686 0
0.7324471323335195 7.334386797273689 0
39.26755286766671 7.33438679727174 0
39.26755286766671 6.334386797270218 0
8.561384859631863 9.372932994345355 0
15.65180086093639 7.836999323689982 0
16.56559335838352 7.859320053010967 0
7.978303098712789 4.891853189365905 0
8.711812012302701 4.236341868922843 0
25.97666312510819 4.984093196402749 0
25.23769025504592 5.743494486647483 0
2.555652039140696 5.985571890870105 0
2.338249558729888 6.766916423506716 0
1.682296745077847 5.887429061910771 0
37.44434796085882 5.985571890869537 0
38.31770325492142 5.887429061909483 0
37.66175044127081 6.766916423506558 0
3.469126590467908 4.435874790548294 0
2.643288260310374 5.192906051424606 0
37.35671173968601 5.192906051423241 0
36.53087340952605 4.435874790548756 0
19.41126132196892 3.384559048417357 0
19.6310017492932 4.444011462574593 0
21.93542529600708 1.351739445991302 0
21.49999999997193 0.5084911741701955 0
22.01899475936985 2.059962164493752 0
21.08356946333393 1.725205066842841 0
36.26058774871298 0.7153865619284175 0
3.73941225127806 0.715386561926016 0
11.63632072311587 4.417913552255637 0
28.79035173303215 5.723090827836367 0
24.1738209930926 8.358881686379258 0
14.52416095392215 4.347420701489641 0
31.57253595073415 5.63308798750684 0
17.45055254489384 7.854320522781183 0
18.36353355243217 7.826001478325199 0
1.65319287097043 7.41364105863678 0
38.34680712903052 7.413641058636953 0
2.526548165033279 7.511783887596113 0
3.155555692361643 7.823612175786375 0
2.470499004602185 8.470336810916439 0
37.47345183496792 7.511783887597008 0
37.50944711346534 8.429846095171232 0
36.82439042570563 7.783121460040837 0
24.38471674344066 7.450747043627548 0
11.56237892037091 2.615005098945013 0
11.02582706704075 3.432406738198515 0
28.68529332513147 7.355460429217458 0
29.580188243966 7.462058774173064 0
29.35549119242459 6.597503798212715 0
3.862019136684927 8.641607499380225 0
36.10770527764123 8.591767115248178 0
29.70874333893613 8.327562512046985 0
38.38129381394405 1.618706186054745 0
39.44230571870587 1.557694281291157 0
38.44230571870436 0.5576942812927435 0
1.618706186053072 1.61870618605341 0
1.557694281291435 0.557694281292725 0
0.557694281292332 1.557694281292716 0
32.09104350068672 5.092525292140303 0
31.57116782728119 4.224290445499358 0
25.29203971279101 4.233886262199367 0
29.24834883597611 3.434621737796753 0
28.72127116573358 2.63982205289563 0
8.498092920117948 5.617696948613315 0
19.91224420372087 2.628224443098149 0
20.38806324118377 2.05550424990248 0
8.700370953133401 2.640236757663828 0
9.195385758836741 3.434897929384008 0
25.27948887728821 7.352362197882113 0
24.64977981357199 6.592320941757743 0
31.52898206019415 2.599259565174202 0
31.06193362568416 3.414216367033328 0
25.39426397566059 2.616843680767805 0
24.90995876478824 3.387359823557907 0
22.6661055525641 5.520166301336885 0
23.14578680106045 3.393332091108673 0
22.49787876374857 2.586580362929908 0
19.40987149526314 9.279151221088334 0
9.561384859631866 9.372932994345355 0
21.70958601957145 5.538566380660343 0
14.58309799027769 9.285149536223333 0
19.9605522642789 7.836187060994309 0
20.62913451531873 7.49841575738269 0
21.32921622268307 7.071518535625788 0
13.3286167648997 7.470553425400563 0
14.00348367352764 7.872176951797563 0
14.85953126591513 7.918776100304417 0
39.44230571870587 0.5576942812927435 0
0.557694281292332 0.557694281292725 0
17.02236492782768 7.098700044703515 0
2.549753265965268 9.391082549553349 0
3.549753265965256 9.391082549553349 0
36.43019285210152 9.350591833807531 0
37.43019285210152 9.350591833807531 0
20.4999999999704 0.5084911741701955 0
19.12218176277624 7.871750421436795 0
14.31014838816793 8.523699923939811 0
19.65811349202898 8.52273908173418 0
21.46409418065018 6.32277134121893 0
20.304493777821 1.347281531400029 0
$EndNodes
$Elements
5 1148 1 1148
1 1 1 40
1 32 2 
2 2 24 
3 24 3 
4 3 25 
5 25 4 
6 4 26 
7 26 5 
8 5 27 
9 27 6 
10 6 28 
11 28 7 
12 7 29 
13 29 8 
14 8 30 
15 30 9 
16 9 31 
17 31 10 
18 10 22 
19 22 11 
20 11 33 
21 33 1 
22 1 34 
23 34 13 
24 13 35 
25 35 14 
26 14 36 
27 36 15 
28 15 37 
29 37 16 
30 16 38 
31 38 17 
32 17 39 
33 39 18 
34 18 40 
35 40 19 
36 19 41 
37 41 20 
38 20 12 
39 12 21 
40 21 23 
1 2 1 10
41 23 47 
42 47 43 
43 43 48 
44 48 44 
45 44 49 
46 49 45 
47 45 50 
48 50 46 
49 46 51 
50 51 42 
1 3 1 40
51 42 62 
52 62 73 
53 73 53 
54 53 74 
55 74 54 
56 54 75 
57 75 55 
58 55 76 
59 76 56 
60 56 77 
61 77 57 
62 57 78 
63 78 58 
64 58 79 
65 79 59 
66 59 80 
67 80 60 
68 60 81 
69 81 61 
70 61 72 
71 72 52 
72 52 83 
73 83 63 
74 63 84 
75 84 64 
76 64 85 
77 85 65 
78 65 86 
79 86 66 
80 66 87 
81 87 67 
82 67 88 
83 88 68 
84 68 89 
85 89 69 
86 69 90 
87 90 70 
88 70 91 
89 91 71 
90 71 82 
1 4 1 10
91 82 96 
92 96 92 
93 92 97 
94 97 93 
95 93 98 
96 98 94 
97 94 99 
98 99 95 
99 95 100 
100 100 32 
2 1 2 1048
101 26 5 209 
102 5 208 209 
103 5 27 208 
104 209 208 123 
105 29 8 211 
106 8 210 211 
107 8 30 210 
108 211 210 124 
109 78 58 213 
110 58 212 213 
111 58 79 212 
112 213 212 125 
113 36 15 215 
114 15 214 215 
115 15 37 214 
116 215 214 126 
117 39 18 217 
118 18 216 217 
119 18 40 216 
120 217 216 127 
121 129 218 220 
122 218 219 220 
123 218 112 219 
124 220 219 148 
125 129 220 222 
126 220 221 222 
127 220 148 221 
128 222 221 192 
129 116 223 225 
130 223 224 225 
131 223 122 224 
132 225 224 136 
133 121 226 228 
134 226 227 228 
135 226 115 227 
136 228 227 135 
137 101 229 230 
138 229 228 230 
139 229 121 228 
140 230 228 135 
141 122 231 224 
142 231 232 224 
143 231 103 232 
144 224 232 136 
145 144 233 235 
146 233 234 235 
147 233 22 234 
148 235 234 171 
149 26 209 237 
150 209 236 237 
151 209 123 236 
152 237 236 138 
153 127 216 239 
154 216 238 239 
155 216 40 238 
156 239 238 137 
157 103 231 241 
158 231 240 241 
159 231 122 240 
160 241 240 191 
161 121 229 243 
162 229 242 243 
163 229 101 242 
164 243 242 187 
165 122 223 245 
166 223 244 245 
167 223 116 244 
168 245 244 166 
169 115 226 247 
170 226 246 247 
171 226 121 246 
172 247 246 165 
173 148 248 221 
174 248 249 221 
175 248 102 249 
176 221 249 192 
177 124 210 251 
178 210 250 251 
179 210 30 250 
180 251 250 164 
181 166 252 254 
182 252 253 254 
183 252 75 253 
184 254 253 185 
185 126 214 256 
186 214 255 256 
187 214 37 255 
188 256 255 145 
189 123 208 258 
190 208 257 258 
191 208 27 257 
192 258 257 150 
193 29 211 260 
194 211 259 260 
195 211 124 259 
196 260 259 149 
197 78 213 262 
198 213 261 262 
199 213 125 261 
200 262 261 151 
201 125 212 264 
202 212 263 264 
203 212 79 263 
204 264 263 152 
205 91 71 266 
206 71 265 266 
207 71 82 265 
208 266 265 162 
209 82 96 265 
210 96 267 265 
211 96 92 267 
212 265 267 162 
213 42 62 269 
214 62 268 269 
215 62 73 268 
216 269 268 163 
217 46 51 270 
218 51 269 270 
219 51 42 269 
220 270 269 163 
221 118 271 272 
222 271 235 272 
223 271 144 235 
224 272 235 171 
225 104 273 275 
226 273 274 275 
227 273 126 274 
228 275 274 174 
229 126 273 277 
230 273 276 277 
231 273 104 276 
232 277 276 177 
233 123 278 280 
234 278 279 280 
235 278 101 279 
236 280 279 159 
237 36 215 282 
238 215 281 282 
239 215 126 281 
240 282 281 158 
241 39 217 284 
242 217 283 284 
243 217 127 283 
244 284 283 157 
245 101 278 286 
246 278 285 286 
247 278 123 285 
248 286 285 172 
249 104 287 289 
250 287 288 289 
251 287 125 288 
252 289 288 173 
253 125 287 291 
254 287 290 291 
255 287 104 290 
256 291 290 169 
257 160 292 294 
258 292 293 294 
259 292 103 293 
260 294 293 176 
261 127 295 296 
262 295 294 296 
263 295 160 294 
264 296 294 176 
265 89 297 299 
266 297 298 299 
267 297 165 298 
268 299 298 194 
269 122 300 240 
270 300 301 240 
271 300 131 301 
272 240 301 191 
273 129 302 304 
274 302 303 304 
275 302 86 303 
276 304 303 167 
277 145 305 307 
278 305 306 307 
279 305 38 306 
280 307 306 157 
281 122 245 308 
282 245 254 308 
283 245 166 254 
284 308 254 185 
285 179 309 311 
286 309 310 311 
287 309 105 310 
288 311 310 183 
289 89 69 297 
290 69 312 297 
291 69 90 312 
292 297 312 165 
293 74 54 313 
294 54 252 313 
295 54 75 252 
296 313 252 166 
297 132 314 315 
298 314 243 315 
299 314 121 243 
300 315 243 187 
301 124 251 317 
302 251 316 317 
303 251 164 316 
304 317 316 175 
305 28 318 320 
306 318 319 320 
307 318 149 319 
308 320 319 150 
309 81 321 323 
310 321 322 323 
311 321 130 322 
312 323 322 168 
313 86 302 325 
314 302 324 325 
315 302 129 324 
316 325 324 180 
317 44 49 327 
318 49 326 327 
319 49 45 326 
320 327 326 134 
321 93 98 329 
322 98 328 329 
323 98 94 328 
324 329 328 133 
325 143 330 332 
326 330 331 332 
327 330 117 331 
328 332 331 161 
329 106 333 334 
330 333 332 334 
331 333 143 332 
332 334 332 161 
333 128 335 336 
334 335 311 336 
335 335 179 311 
336 336 311 183 
337 25 4 337 
338 4 237 337 
339 4 26 237 
340 337 237 138 
341 40 19 238 
342 19 338 238 
343 19 41 338 
344 238 338 137 
345 112 218 339 
346 218 304 339 
347 218 129 304 
348 339 304 167 
349 117 340 331 
350 340 341 331 
351 340 144 341 
352 331 341 161 
353 144 271 341 
354 271 342 341 
355 271 118 342 
356 341 342 161 
357 130 321 344 
358 321 343 344 
359 321 81 343 
360 344 343 184 
361 120 345 347 
362 345 346 347 
363 345 142 346 
364 347 346 193 
365 153 348 350 
366 348 349 350 
367 348 35 349 
368 350 349 158 
369 114 351 352 
370 351 307 352 
371 351 145 307 
372 352 307 157 
373 164 353 316 
374 353 354 316 
375 353 117 354 
376 316 354 175 
377 165 246 298 
378 246 355 298 
379 246 121 355 
380 298 355 194 
381 130 356 322 
382 356 357 322 
383 356 111 357 
384 322 357 168 
385 83 63 359 
386 63 358 359 
387 63 84 358 
388 359 358 141 
389 149 360 319 
390 360 361 319 
391 360 109 361 
392 319 361 150 
393 111 356 363 
394 356 362 363 
395 356 130 362 
396 363 362 198 
397 22 11 234 
398 11 364 234 
399 11 33 364 
400 234 364 171 
401 131 365 367 
402 365 366 367 
403 365 76 366 
404 367 366 178 
405 142 368 346 
406 368 369 346 
407 368 105 369 
408 346 369 193 
409 143 370 372 
410 370 371 372 
411 370 119 371 
412 372 371 192 
413 113 373 374 
414 373 350 374 
415 373 153 350 
416 374 350 158 
417 102 375 377 
418 375 376 377 
419 375 170 376 
420 377 376 175 
421 132 378 380 
422 378 379 380 
423 378 112 379 
424 380 379 195 
425 142 345 382 
426 345 381 382 
427 345 120 381 
428 382 381 202 
429 37 16 255 
430 16 305 255 
431 16 38 305 
432 255 305 145 
433 131 383 301 
434 383 384 301 
435 383 110 384 
436 301 384 191 
437 31 10 385 
438 10 233 385 
439 10 22 233 
440 385 233 144 
441 102 386 249 
442 386 372 249 
443 386 143 372 
444 249 372 192 
445 27 6 257 
446 6 320 257 
447 6 28 320 
448 257 320 150 
449 28 7 318 
450 7 260 318 
451 7 29 260 
452 318 260 149 
453 77 57 387 
454 57 262 387 
455 57 78 262 
456 387 262 151 
457 79 59 263 
458 59 388 263 
459 59 80 388 
460 263 388 152 
461 86 66 303 
462 66 389 303 
463 66 87 389 
464 303 389 167 
465 107 390 392 
466 390 391 392 
467 390 136 391 
468 392 391 160 
469 135 393 395 
470 393 394 395 
471 393 108 394 
472 395 394 159 
473 146 396 397 
474 396 309 397 
475 396 105 309 
476 397 309 179 
477 38 17 306 
478 17 284 306 
479 17 39 284 
480 306 284 157 
481 35 14 349 
482 14 282 349 
483 14 36 282 
484 349 282 158 
485 170 398 376 
486 398 317 376 
487 398 124 317 
488 376 317 175 
489 137 399 400 
490 399 392 400 
491 399 107 392 
492 400 392 160 
493 108 401 394 
494 401 402 394 
495 401 138 402 
496 394 402 159 
497 110 383 403 
498 383 367 403 
499 383 131 367 
500 403 367 178 
501 134 404 406 
502 404 405 406 
503 404 107 405 
504 406 405 190 
505 108 407 409 
506 407 408 409 
507 407 133 408 
508 409 408 189 
509 138 401 411 
510 401 410 411 
511 401 108 410 
512 411 410 197 
513 107 399 413 
514 399 412 413 
515 399 137 412 
516 413 412 196 
517 111 414 416 
518 414 415 416 
519 414 146 415 
520 416 415 155 
521 110 417 419 
522 417 418 419 
523 417 147 418 
524 419 418 156 
525 146 420 415 
526 420 421 415 
527 420 113 421 
528 415 421 155 
529 147 422 418 
530 422 423 418 
531 422 114 423 
532 418 423 156 
533 109 424 426 
534 424 425 426 
535 424 148 425 
536 426 425 154 
537 148 219 425 
538 219 427 425 
539 219 112 427 
540 425 427 154 
541 108 428 410 
542 428 429 410 
543 428 140 429 
544 410 429 197 
545 139 430 431 
546 430 413 431 
547 430 107 413 
548 431 413 196 
549 101 230 279 
550 230 395 279 
551 230 135 395 
552 279 395 159 
553 136 232 391 
554 232 292 391 
555 232 103 292 
556 391 292 160 
557 76 365 433 
558 365 432 433 
559 365 131 432 
560 433 432 185 
561 116 225 435 
562 225 434 435 
563 225 136 434 
564 435 434 199 
565 135 227 437 
566 227 436 437 
567 227 115 436 
568 437 436 200 
569 31 385 439 
570 385 438 439 
571 385 144 438 
572 439 438 164 
573 142 440 441 
574 440 334 441 
575 440 106 334 
576 441 334 161 
577 118 442 342 
578 442 441 342 
579 442 142 441 
580 342 441 161 
581 139 443 445 
582 443 444 445 
583 443 43 444 
584 445 444 190 
585 95 446 448 
586 446 447 448 
587 446 140 447 
588 448 447 189 
589 34 13 449 
590 13 348 449 
591 13 35 348 
592 449 348 153 
593 107 430 405 
594 430 445 405 
595 430 139 445 
596 405 445 190 
597 140 428 447 
598 428 409 447 
599 428 108 409 
600 447 409 189 
601 80 60 450 
602 60 323 450 
603 60 81 323 
604 450 323 168 
605 131 300 432 
606 300 308 432 
607 300 122 308 
608 432 308 185 
609 138 236 402 
610 236 280 402 
611 236 123 280 
612 402 280 159 
613 127 239 295 
614 239 400 295 
615 239 137 400 
616 295 400 160 
617 141 358 452 
618 358 451 452 
619 358 84 451 
620 452 451 186 
621 119 370 454 
622 370 453 454 
623 370 143 453 
624 454 453 201 
625 144 340 438 
626 340 353 438 
627 340 117 353 
628 438 353 164 
629 76 56 366 
630 56 455 366 
631 56 77 455 
632 366 455 178 
633 106 440 456 
634 440 382 456 
635 440 142 382 
636 456 382 202 
637 83 359 458 
638 359 457 458 
639 359 141 457 
640 458 457 188 
641 132 459 461 
642 459 460 461 
643 459 88 460 
644 461 460 194 
645 112 378 462 
646 378 315 462 
647 378 132 315 
648 462 315 187 
649 147 463 464 
650 463 275 464 
651 463 104 275 
652 464 275 174 
653 12 465 466 
654 465 431 466 
655 465 139 431 
656 466 431 196 
657 140 467 429 
658 467 468 429 
659 467 24 468 
660 429 468 197 
661 81 61 343 
662 61 469 343 
663 61 72 469 
664 343 469 184 
665 43 48 444 
666 48 470 444 
667 48 44 470 
668 444 470 190 
669 94 99 471 
670 99 448 471 
671 99 95 448 
672 471 448 189 
673 85 65 472 
674 65 325 472 
675 65 86 325 
676 472 325 180 
677 143 333 453 
678 333 473 453 
679 333 106 473 
680 453 473 201 
681 112 339 379 
682 339 474 379 
683 339 167 474 
684 379 474 195 
685 92 97 476 
686 97 475 476 
687 97 93 475 
688 476 475 181 
689 45 50 478 
690 50 477 478 
691 50 46 477 
692 478 477 182 
693 121 314 355 
694 314 461 355 
695 314 132 461 
696 355 461 194 
697 44 327 470 
698 327 406 470 
699 327 134 406 
700 470 406 190 
701 133 328 408 
702 328 471 408 
703 328 94 471 
704 408 471 189 
705 88 459 479 
706 459 380 479 
707 459 132 380 
708 479 380 195 
709 141 452 481 
710 452 480 481 
711 452 186 480 
712 481 480 201 
713 154 482 483 
714 482 286 483 
715 482 101 286 
716 483 286 172 
717 155 484 485 
718 484 289 485 
719 484 104 289 
720 485 289 173 
721 133 486 488 
722 486 487 488 
723 486 115 487 
724 488 487 181 
725 116 489 491 
726 489 490 491 
727 489 134 490 
728 491 490 182 
729 133 407 493 
730 407 492 493 
731 407 108 492 
732 493 492 200 
733 107 404 495 
734 404 494 495 
735 404 134 494 
736 495 494 199 
737 142 442 497 
738 442 496 497 
739 442 118 496 
740 497 496 183 
741 105 368 310 
742 368 497 310 
743 368 142 497 
744 310 497 183 
745 34 449 499 
746 449 498 499 
747 449 153 498 
748 499 498 203 
749 153 500 498 
750 500 501 498 
751 500 128 501 
752 498 501 203 
753 93 329 475 
754 329 488 475 
755 329 133 488 
756 475 488 181 
757 134 326 490 
758 326 478 490 
759 326 45 478 
760 490 478 182 
761 41 20 502 
762 20 466 502 
763 20 12 466 
764 502 466 196 
765 24 3 468 
766 3 503 468 
767 3 25 503 
768 468 503 197 
769 115 486 436 
770 486 493 436 
771 486 133 493 
772 436 493 200 
773 134 489 494 
774 489 435 494 
775 489 116 435 
776 494 435 199 
777 102 248 375 
778 248 504 375 
779 248 148 504 
780 375 504 170 
781 104 463 290 
782 463 505 290 
783 463 147 505 
784 290 505 169 
785 152 388 506 
786 388 450 506 
787 388 80 450 
788 506 450 168 
789 108 393 492 
790 393 437 492 
791 393 135 437 
792 492 437 200 
793 136 390 434 
794 390 495 434 
795 390 107 495 
796 434 495 199 
797 117 330 354 
798 330 507 354 
799 330 143 507 
800 354 507 175 
801 143 386 507 
802 386 377 507 
803 386 102 377 
804 507 377 175 
805 110 419 384 
806 419 508 384 
807 419 156 508 
808 384 508 191 
809 188 457 510 
810 457 509 510 
811 457 141 509 
812 510 509 202 
813 162 267 511 
814 267 476 511 
815 267 92 476 
816 511 476 181 
817 46 270 477 
818 270 512 477 
819 270 163 512 
820 477 512 182 
821 162 513 515 
822 513 514 515 
823 513 115 514 
824 515 514 204 
825 116 516 518 
826 516 517 518 
827 516 163 517 
828 518 517 205 
829 111 519 357 
830 519 506 357 
831 519 152 506 
832 357 506 168 
833 30 9 250 
834 9 439 250 
835 9 31 439 
836 250 439 164 
837 149 259 520 
838 259 398 520 
839 259 124 398 
840 520 398 170 
841 109 360 521 
842 360 520 521 
843 360 149 520 
844 521 520 170 
845 151 261 522 
846 261 291 522 
847 261 125 291 
848 522 291 169 
849 110 523 524 
850 523 522 524 
851 523 151 522 
852 524 522 169 
853 115 247 514 
854 247 525 514 
855 247 165 525 
856 514 525 204 
857 166 244 526 
858 244 518 526 
859 244 116 518 
860 526 518 205 
861 88 68 460 
862 68 299 460 
863 68 89 299 
864 460 299 194 
865 151 523 527 
866 523 403 527 
867 523 110 403 
868 527 403 178 
869 43 443 529 
870 443 528 529 
871 443 139 528 
872 529 528 206 
873 139 465 528 
874 465 530 528 
875 465 12 530 
876 528 530 206 
877 24 467 532 
878 467 531 532 
879 467 140 531 
880 532 531 207 
881 140 446 531 
882 446 533 531 
883 446 95 533 
884 531 533 207 
885 77 387 455 
886 387 527 455 
887 387 151 527 
888 455 527 178 
889 137 338 412 
890 338 502 412 
891 338 41 502 
892 412 502 196 
893 25 337 503 
894 337 411 503 
895 337 138 411 
896 503 411 197 
897 75 55 253 
898 55 433 253 
899 55 76 433 
900 253 433 185 
901 103 534 293 
902 534 535 293 
903 534 156 535 
904 293 535 176 
905 104 484 276 
906 484 536 276 
907 484 155 536 
908 276 536 177 
909 145 351 538 
910 351 537 538 
911 351 114 537 
912 538 537 174 
913 114 422 537 
914 422 464 537 
915 422 147 464 
916 537 464 174 
917 154 427 539 
918 427 462 539 
919 427 112 462 
920 539 462 187 
921 147 417 505 
922 417 524 505 
923 417 110 524 
924 505 524 169 
925 148 424 504 
926 424 521 504 
927 424 109 521 
928 504 521 170 
929 118 272 496 
930 272 540 496 
931 272 171 540 
932 496 540 183 
933 171 541 540 
934 541 336 540 
935 541 128 336 
936 540 336 183 
937 123 258 285 
938 258 542 285 
939 258 150 542 
940 285 542 172 
941 150 361 542 
942 361 543 542 
943 361 109 543 
944 542 543 172 
945 125 264 288 
946 264 544 288 
947 264 152 544 
948 288 544 173 
949 152 519 544 
950 519 545 544 
951 519 111 545 
952 544 545 173 
953 114 352 547 
954 352 546 547 
955 352 157 546 
956 547 546 176 
957 157 283 546 
958 283 296 546 
959 283 127 296 
960 546 296 176 
961 113 374 549 
962 374 548 549 
963 374 158 548 
964 549 548 177 
965 158 281 548 
966 281 277 548 
967 281 126 277 
968 548 277 177 
969 146 414 550 
970 414 363 550 
971 414 111 363 
972 550 363 198 
973 126 256 274 
974 256 538 274 
975 256 145 538 
976 274 538 174 
977 153 373 552 
978 373 551 552 
979 373 113 551 
980 552 551 179 
981 128 500 335 
982 500 552 335 
983 500 153 552 
984 335 552 179 
985 113 420 551 
986 420 397 551 
987 420 146 397 
988 551 397 179 
989 109 426 543 
990 426 483 543 
991 426 154 483 
992 543 483 172 
993 111 416 545 
994 416 485 545 
995 416 155 485 
996 545 485 173 
997 72 52 553 
998 52 458 553 
999 52 83 458 
1000 553 458 188 
1001 87 67 554 
1002 67 479 554 
1003 67 88 479 
1004 554 479 195 
1005 105 396 555 
1006 396 550 555 
1007 396 146 550 
1008 555 550 198 
1009 84 64 451 
1010 64 556 451 
1011 64 85 556 
1012 451 556 186 
1013 156 423 535 
1014 423 547 535 
1015 423 114 547 
1016 535 547 176 
1017 155 421 536 
1018 421 549 536 
1019 421 113 549 
1020 536 549 177 
1021 184 557 558 
1022 557 347 558 
1023 557 120 347 
1024 558 347 193 
1025 130 344 559 
1026 344 558 559 
1027 344 184 558 
1028 559 558 193 
1029 180 324 560 
1030 324 222 560 
1031 324 129 222 
1032 560 222 192 
1033 119 561 371 
1034 561 560 371 
1035 561 180 560 
1036 371 560 192 
1037 186 562 480 
1038 562 454 480 
1039 562 119 454 
1040 480 454 201 
1041 12 21 530 
1042 21 563 530 
1043 21 23 563 
1044 530 563 206 
1045 23 47 563 
1046 47 529 563 
1047 47 43 529 
1048 563 529 206 
1049 95 100 533 
1050 100 564 533 
1051 100 32 564 
1052 533 564 207 
1053 32 2 564 
1054 2 532 564 
1055 2 24 532 
1056 564 532 207 
1057 201 473 565 
1058 473 456 565 
1059 473 106 456 
1060 565 456 202 
1061 141 481 509 
1062 481 565 509 
1063 481 201 565 
1064 509 565 202 
1065 90 70 567 
1066 70 566 567 
1067 70 91 566 
1068 567 566 204 
1069 73 53 569 
1070 53 568 569 
1071 53 74 568 
1072 569 568 205 
1073 33 1 570 
1074 1 499 570 
1075 1 34 499 
1076 570 499 203 
1077 120 571 381 
1078 571 510 381 
1079 571 188 510 
1080 381 510 202 
1081 101 482 242 
1082 482 539 242 
1083 482 154 539 
1084 242 539 187 
1085 115 513 487 
1086 513 511 487 
1087 513 162 511 
1088 487 511 181 
1089 163 516 512 
1090 516 491 512 
1091 516 116 491 
1092 512 491 182 
1093 156 534 508 
1094 534 241 508 
1095 534 103 241 
1096 508 241 191 
1097 91 266 566 
1098 266 515 566 
1099 266 162 515 
1100 566 515 204 
1101 163 268 517 
1102 268 569 517 
1103 268 73 569 
1104 517 569 205 
1105 167 389 474 
1106 389 554 474 
1107 389 87 554 
1108 474 554 195 
1109 180 561 572 
1110 561 562 572 
1111 561 119 562 
1112 572 562 186 
1113 85 472 556 
1114 472 572 556 
1115 472 180 572 
1116 556 572 186 
1117 184 469 573 
1118 469 553 573 
1119 469 72 553 
1120 573 553 188 
1121 193 369 574 
1122 369 555 574 
1123 369 105 555 
1124 574 555 198 
1125 165 312 525 
1126 312 567 525 
1127 312 90 567 
1128 525 567 204 
1129 74 313 568 
1130 313 526 568 
1131 313 166 526 
1132 568 526 205 
1133 120 557 571 
1134 557 573 571 
1135 557 184 573 
1136 571 573 188 
1137 128 541 501 
1138 541 575 501 
1139 541 171 575 
1140 501 575 203 
1141 171 364 575 
1142 364 570 575 
1143 364 33 570 
1144 575 570 203 
1145 130 559 362 
1146 559 574 362 
1147 559 193 574 
1148 362 574 198 
$EndElements
