$MeshFormat
2.2 0 8
$EndMeshFormat
$PhysicalNames
6
1 1 "Left"
1 2 "Right"
1 3 "Bottom"
1 4 "Top"
1 6 "Airfoil"
2 5 "Fluid"
$EndPhysicalNames
$Nodes
850
1 0 0 0
2 40 0 0
3 40 10 0
4 0 10 0
5 16 5 0
6 8.075529599999999 4.867384 0
7 8.075529599999999 5.132616 0
8 0.999999999999276 0 0
9 1.999999999998205 0 0
10 2.999999999997454 0 0
11 3.999999999996757 0 0
12 4.999999999995886 0 0
13 5.999999999993141 0 0
14 6.999999999990224 0 0
15 7.999999999987307 0 0
16 8.999999999984389 0 0
17 9.999999999981473 0 0
18 10.99999999997856 0 0
19 11.99999999997564 0 0
20 12.99999999997272 0 0
21 13.9999999999698 0 0
22 14.99999999996689 0 0
23 15.99999999996411 0 0
24 16.99999999996507 0 0
25 17.9999999999666 0 0
26 18.99999999996812 0 0
27 19.99999999996964 0 0
28 20.99999999997116 0 0
29 21.99999999997269 0 0
30 22.99999999997421 0 0
31 23.99999999997573 0 0
32 24.99999999997726 0 0
33 25.99999999997878 0 0
34 26.9999999999803 0 0
35 27.99999999998182 0 0
36 28.99999999998334 0 0
37 29.99999999998487 0 0
38 30.99999999998639 0 0
39 31.99999999998791 0 0
40 32.99999999998942 0 0
41 33.99999999999093 0 0
42 34.99999999999245 0 0
43 35.99999999999396 0 0
44 36.99999999999547 0 0
45 37.99999999999698 0 0
46 38.99999999999849 0 0
47 40 0.9999999999991893 0
48 40 1.999999999996827 0
49 40 2.99999999999391 0
50 40 3.999999999991027 0
51 40 4.999999999992411 0
52 40 5.999999999993932 0
53 40 6.999999999995455 0
54 40 7.999999999996978 0
55 40 8.99999999999849 0
56 39 10 0
57 37.99999999999999 10 0
58 36.99999999999999 10 0
59 35.99999999999999 10 0
60 34.99999999999999 10 0
61 33.99999999999999 10 0
62 32.99999999999999 10 0
63 31.99999999999998 10 0
64 30.99999999999998 10 0
65 29.99999999999998 10 0
66 28.99999999999998 10 0
67 27.99999999999998 10 0
68 26.99999999999997 10 0
69 25.99999999999997 10 0
70 24.99999999999997 10 0
71 23.99999999999996 10 0
72 22.99999999999996 10 0
73 21.99999999999996 10 0
74 20.99999999999996 10 0
75 19.99999999999996 10 0
76 18.99999999999996 10 0
77 17.99999999999995 10 0
78 16.99999999999995 10 0
79 15.99999999999995 10 0
80 14.99999999999995 10 0
81 13.99999999999995 10 0
82 12.99999999999994 10 0
83 11.99999999999994 10 0
84 10.99999999999994 10 0
85 9.999999999999936 10 0
86 8.999999999999936 10 0
87 7.999999999999929 10 0
88 6.999999999999936 10 0
89 5.99999999999995 10 0
90 4.999999999999957 10 0
91 3.999999999999964 10 0
92 2.999999999999972 10 0
93 1.999999999999986 10 0
94 0.9999999999999858 10 0
95 0 8.999999999999998 0
96 0 7.999999999999996 0
97 0 6.999999999999994 0
98 0 5.999999999999991 0
99 0 4.999999999999989 0
100 0 3.999999999999988 0
101 0 2.999999999999985 0
102 0 1.999999999999982 0
103 0 0.9999999999999911 0
104 15.60502146861758 4.93657970832844 0
105 15.20829544924088 4.885210952627296 0
106 14.81115685319767 4.837107777986537 0
107 14.41370477955735 4.791667293458815 0
108 14.01596279886531 4.74883844918359 0
109 13.61794631287188 4.708641019081703 0
110 13.21966340690728 4.671176220663382 0
111 12.82111332320387 4.636672066359954 0
112 12.42229334475827 4.60544324206118 0
113 12.02319879888096 4.577952559400174 0
114 11.62383137075762 4.554770662117336 0
115 11.22420227400156 4.536672071567136 0
116 10.82434635854686 4.524623172942355 0
117 10.42433931299081 4.519877399747116 0
118 10.02432952630261 4.524107844944999 0
119 9.624604529333482 4.539600346088402 0
120 9.225735859108495 4.569812435717593 0
121 8.828993786413205 4.62057491579209 0
122 8.438068176472871 4.704472773220385 0
123 8 4.999999998935561 0
124 8.438068179485828 5.295527227633528 0
125 8.828993792765743 5.379425085240825 0
126 9.225735869307067 5.43018756528585 0
127 9.624604542468994 5.460399654640003 0
128 10.02432954160087 5.475892155415215 0
129 10.42433933135794 5.480122600226156 0
130 10.8243463795416 5.475376826604285 0
131 11.22420228872487 5.463327927871371 0
132 11.62383139050895 5.445229336854537 0
133 12.02319881693908 5.42204743944751 0
134 12.42229336097906 5.394556756740426 0
135 12.82111333693478 5.363327932505307 0
136 13.21966341948346 5.328823778198762 0
137 13.61794632440516 5.29135897979248 0
138 14.01596280717473 5.251161549948667 0
139 14.41370478615069 5.208332705809283 0
140 14.8111568581283 5.16289222143309 0
141 15.20829545152871 5.114789047087497 0
142 15.60502156212188 5.063420278219338 0
143 5.16863864211702 6.675433312382999 0
144 5.227543374727579 3.501250066830525 0
145 21 4.999999999999999 0
146 7.395330780947033 7.214914962295478 0
147 34.51427421235928 5.133333699280009 0
148 28.44142502528379 5.008431955678819 0
149 7.283398954762187 2.706935922130506 0
150 6.712233067641941 5.839806399295957 0
151 6.67259624908746 4.152027736170271 0
152 16.18165008364745 7.465658186191876 0
153 14.03727242791216 7.305168799751799 0
154 11.94417168061699 7.512256274753037 0
155 9.837443588755413 7.630876547101694 0
156 16.18739871142606 2.520400229174181 0
157 14.03727241467883 2.694831229175251 0
158 11.94417166098197 2.487743716789928 0
159 9.687702572098623 2.356512738962778 0
160 24.64784644520664 5.946037783198596 0
161 18.5 3.940928129126962 0
162 2.814863127608448 5.013112438822841 0
163 17.96517042670245 6.09628497940758 0
164 31.44529338967536 6.599820773946363 0
165 31.52123859223639 3.162121020774233 0
166 7.36276241448997 5.450746225378729 0
167 23.51881601846655 3.11584831087326 0
168 2.691524385544119 7.464987739385606 0
169 36.91666666666671 3.083333333333567 0
170 36.91666666666667 6.916666666666815 0
171 5.187666775274407 5.047688351607956 0
172 26.36512220332386 3.004820908934136 0
173 2.818256844891053 2.324572864741241 0
174 15.27084883537032 3.427515744437279 0
175 15.25650841850033 6.563755451221446 0
176 20.17430071432765 7.381229388441044 0
177 20.58474522533712 2.500000000002394 0
178 27.12775621774425 7.334322491510036 0
179 7.787067837539233 3.713009056048558 0
180 8.862768883641081 6.691231612246658 0
181 8.897937628136845 3.412888524574842 0
182 10.59845597268156 6.831358457777734 0
183 10.59621005473497 3.135889961102148 0
184 7.366549805348122 4.589631584419775 0
185 33.82374461318798 7.634404029803359 0
186 22.66019372399188 7.476312600184744 0
187 33.91779594322416 2.533220405677907 0
188 29.00462982208337 2.550969881216132 0
189 13.1633266343122 6.616581304814532 0
190 13.16332661989239 3.383418709375884 0
191 7.983699244471974 5.878344775968853 0
192 16.96683040970195 3.857836576621123 0
193 18.12196239762526 1.986708664588061 0
194 5.928688841095711 8.263450316962778 0
195 18.15453994018813 8.064661797875141 0
196 16.46759000660773 6.32383257259184 0
197 29.43966575545547 7.712252411448568 0
198 4.380341414097335 8.128646442165769 0
199 11.9080569280319 3.510987152865909 0
200 11.90805694691084 6.489012847091176 0
201 37.83163061561503 5.000784325816573 0
202 7.371272910676675 6.115963822707224 0
203 6.195877440820625 6.784521591168876 0
204 5.939399662806474 1.727819981224826 0
205 6.656917795866595 5.000000001414293 0
206 15.95127419041416 4.04179819247081 0
207 4.15219322154418 5.745130984337348 0
208 14.14680720326965 6.298652769457837 0
209 14.14680719230403 3.70134722974008 0
210 8.454827434690024 7.863375038615843 0
211 26.48554525388996 4.855818757238558 0
212 9.789974096203839 3.641895343386909 0
213 17.30468941947112 5.019397437518034 0
214 9.789340231387584 6.374459518255366 0
215 23.04639940529245 4.982578204194081 0
216 8.366621471852566 1.54116941268519 0
217 25.30595990632258 8.046302719053958 0
218 32.48488989962991 5.019490644566173 0
219 30.5034246801183 4.946881583587956 0
220 7.394045608138141 8.56691513878903 0
221 4.457358167049963 2.000640293141856 0
222 15.04603139579347 1.631943356284338 0
223 15.04461923493506 8.360729414873825 0
224 7.6966103820121 5.244773957940469 0
225 13.01681519510211 1.54880501598893 0
226 13.01681519301584 8.451195000129879 0
227 4.10053374546797 4.271308886935077 0
228 19.22969374432108 5.426770930383648 0
229 1.786737973013833 3.731553105238562 0
230 1.593763884052809 6.184833645695432 0
231 24.87130007270768 1.848229067690423 0
232 22.08971867897772 1.729024036130552 0
233 10.96532966006922 8.477595658110976 0
234 10.9556589767596 1.43976950902637 0
235 35.60274569838903 8.27532602797168 0
236 5.754577101051312 5.846750181726232 0
237 35.58631070042104 1.700334451556572 0
238 38.15218814594538 1.65455247686513 0
239 38.37246884777164 8.340982899721849 0
240 32.28056449656268 8.233897852361201 0
241 32.33350609183233 1.670261521508663 0
242 30.59044609186504 1.672894860023036 0
243 8.019265367299539 6.704179821972016 0
244 24.77574669052694 4.379564091482727 0
245 21.90543454335003 3.599544030850772 0
246 36.18130630630631 4.638023893458938 0
247 35.28733775550238 6.518838534415853 0
248 27.77721151830106 1.496677334223017 0
249 15.50183635422336 5.84082526753101 0
250 6.269364766662326 3.089847542828963 0
251 17.27429856143783 7.032153691430442 0
252 1.618363007211321 1.404192164021162 0
253 1.679717305040025 8.597348476758707 0
254 7.694127435615174 4.718095408059121 0
255 8.045806679080391 4.333824934926147 0
256 19.99941219887561 3.88171223917979 0
257 21.37610114981274 8.449211856535248 0
258 38.45979022008068 3.500097682354691 0
259 38.45625498987756 6.516218900425122 0
260 4.056740524639523 6.969219206971149 0
261 21.43503735392026 6.51651497643785 0
262 35.22298028788919 3.421624352892859 0
263 7.32072251752144 4.985353923194706 0
264 14.70361884875222 5.839880931243121 0
265 14.69450227261389 4.157453301785752 0
266 19.52287587963978 1.42998381622725 0
267 11.09818669727741 6.138340239861222 0
268 11.09825660872347 3.862002225792731 0
269 16.89331520778983 1.387744691134987 0
270 7.159304291718206 1.511172765901311 0
271 27.85681015179041 3.541598573590376 0
272 8.403914685723652 2.570764332680838 0
273 16.8363105249389 8.588543651956044 0
274 29.64928285801483 6.202689153890539 0
275 30.66286458532802 8.544098340064705 0
276 12.62708321828362 6.05798588425082 0
277 12.6270832021393 3.942014119761673 0
278 13.48105004610202 5.971810908673882 0
279 13.48105003320145 4.028189097666393 0
280 19.20545312382203 2.790785619291838 0
281 8.569265508502703 6.0432438536562 0
282 23.84134718139692 8.436994069064582 0
283 28.11268070305699 8.381631800617644 0
284 9.305016197545454 8.780486582817437 0
285 5.930231455387738 4.557072196419777 0
286 17.29403599756803 2.744047202410524 0
287 19.37881342418674 8.651057232153297 0
288 2.889149559682068 6.205449119317081 0
289 18.88755255989616 7.018795013330504 0
290 9.539330476848395 1.146042271846957 0
291 16.68945193399952 4.461507427161358 0
292 33.02616763398187 6.352017686614403 0
293 12.91171517985198 2.434671452507588 0
294 12.91171519306917 7.565328559816511 0
295 15.02325700905431 2.49275024207807 0
296 15.02325701710428 7.507249770982499 0
297 29.45918816851233 3.924290468210273 0
298 33.54081183148927 3.924290468214457 0
299 26.60412668763185 8.63161947122488 0
300 6.178846439166549 5.405997990206658 0
301 2.889149558483547 3.794550836832594 0
302 27.46151998770381 5.96240151156931 0
303 26.25750308099711 1.387496657964924 0
304 23.67664599233523 1.395336992480646 0
305 11.98344195693194 8.584266931400229 0
306 11.98183017019823 1.401960595497991 0
307 26.06897552827811 6.535626193698455 0
308 3.209612069452356 8.771905390764919 0
309 4.031070891819059 2.953865249467894 0
310 16.65171017563578 5.442806633622912 0
311 10.27218479798198 6.124548422892747 0
312 10.39680689235378 3.871606463375896 0
313 4.799388186628762 5.888699563826397 0
314 3.121340874213019 1.382654637319441 0
315 6.726856939657092 6.489938724564642 0
316 36.8937588750273 8.629982390821223 0
317 1.682102315462599 4.997378269996273 0
318 10.98337723517607 7.668335668081182 0
319 11.01118944637193 2.390101203601201 0
320 15.48483137151242 4.232523368432767 0
321 8.639081868657479 4.058636075136015 0
322 8.002528631318876 5.532552385842136 0
323 36.98263991446467 1.324931187235925 0
324 18.46218264521935 5.041795671996388 0
325 23.23109734948375 6.331973346986028 0
326 7.104212800749941 3.378444228808065 0
327 9.375103343550229 6.099339148393903 0
328 5.515157003064688 7.636062210551714 0
329 33.51709678346712 8.750091159275199 0
330 14.04478231934741 8.479000809825944 0
331 14.04043807845571 1.504497975556559 0
332 34.53908566321404 1.370837174611064 0
333 6.172725274107476 6.259360008749363 0
334 28.39806976778918 6.89528365868637 0
335 21.10150888945898 1.30134812598347 0
336 15.91554732004132 3.35835190158697 0
337 29.41635601323823 1.266185501432043 0
338 25.32422148295085 3.144429379498682 0
339 6.900510688661461 5.320146600702371 0
340 6.526681624995108 7.768162153858885 0
341 7.6678464797864 5.590226362842369 0
342 20.31838745621468 6.178785194236088 0
343 9.395635429657235 3.962090651184687 0
344 12.49671932205425 6.949313968856983 0
345 12.4967193062453 3.050686038278896 0
346 22.43851763046186 8.774557713632124 0
347 9.400510100249376 3.074483096208358 0
348 32.7222364729336 2.955837181490923 0
349 30.28341227566174 3.058469651476006 0
350 7.069930619700138 5.837556746314346 0
351 1.193044066406366 7.218920223094437 0
352 1.181252564610297 2.790158270561362 0
353 24.19907688851931 7.297975770908764 0
354 5.010644182388241 8.802615188383959 0
355 15.89330456315264 6.682809550237783 0
356 8.153993303197861 9.009374900074949 0
357 11.24406269657291 6.691504299445893 0
358 11.24384663057693 3.304406172679572 0
359 36.98917230819224 5.814500689409543 0
360 5.141248585969676 4.107791271290286 0
361 14.55369190403807 6.905022627709623 0
362 14.55369190765321 3.094977387352923 0
363 17.72373044249907 4.167145149918363 0
364 4.274824987503107 4.986504944023169 0
365 8.266013228435774 3.264848320831025 0
366 33.98338163130599 6.046573159439551 0
367 7.740655377605655 5.000000000632072 0
368 11.84018488891905 4.088156246717858 0
369 11.84018490757093 5.911843752643167 0
370 29.67820063339892 8.874151203813755 0
371 15.88801823416524 5.649134696071561 0
372 4.88838926715924 1.162285171817703 0
373 30.37020224493424 6.979826988184263 0
374 16.01202631874652 1.58013602946181 0
375 9.48935662346706 7.010510795900299 0
376 6.049547075500902 3.764749540949022 0
377 18.50768838395544 2.914808497557534 0
378 17.1581554192115 5.981285315192265 0
379 15.99217836294349 8.509579832928322 0
380 6.570246307997526 2.378067073279321 0
381 4.891596341848333 7.515900078078445 0
382 31.4999999999998 5.468822176413642 0
383 34.66416774769315 8.893815086626869 0
384 38.93538495423376 4.517907710960094 0
385 18.57074910244718 0.9817278377048031 0
386 5.218639373735817 2.310566737662417 0
387 8.300103210743089 5.677019074914075 0
388 7.436616647265387 4.088273661077285 0
389 13.9018611247034 5.908553095001279 0
390 13.90186111517114 4.091446907952029 0
391 8.504198577690913 7.150459467491398 0
392 13.7393607345313 6.822745476497607 0
393 13.73936071064867 3.177254546950957 0
394 21.98641103457317 5.537688023424583 0
395 6.479403412527145 9.117929292696752 0
396 33.48260699208329 1.027719679046803 0
397 31.48856681720905 1.007457166060653 0
398 26.01680424399028 3.882531710709104 0
399 20.37299856005448 8.988026608996613 0
400 8.963191752171719 2.047692821214384 0
401 7.810254596574712 2.095401039256771 0
402 10.04362075831378 3.074518609030511 0
403 15.0611421910975 5.563330132092443 0
404 27.6896545487769 4.426720389997238 0
405 24.18444991974681 5.095577773167213 0
406 37.16550170860513 4.152287032159858 0
407 15.87458434488454 4.511113061254068 0
408 13.05705048386702 5.769551970910427 0
409 13.05705047041282 4.230448030161045 0
410 39.01466781139166 7.438007316392069 0
411 39.00171879979141 2.59610174436225 0
412 16.66106294111218 3.151118268823252 0
413 31.55493064155933 4.403647755373569 0
414 18.41300860528056 9.038811356525775 0
415 6.994304527108064 4.750298987247597 0
416 22.84077056223838 3.852952069856162 0
417 6.411400256097754 0.886633113070544 0
418 9.06520631333667 7.535865957154212 0
419 10.0056234897333 8.510524392150748 0
420 9.807757747772889 5.899265627485549 0
421 25.39697584718857 5.216003871186327 0
422 16.9477723527549 7.782736959276847 0
423 18.82036024377244 6.138910177328444 0
424 35.49751682456336 5.484968436609389 0
425 7.725939629464585 7.842863987452207 0
426 24.61677063731436 8.980552963367641 0
427 10.49391295235923 7.353589678701206 0
428 38.98229108741622 1.077909825867975 0
429 38.94519739650021 8.9451973965003 0
430 5.187405457658254 8.083472433335242 0
431 38.89676746129575 5.637014103427085 0
432 4.057155462592397 8.981565703901524 0
433 20.85405157959829 3.44304773718052 0
434 30.53032869241901 4.005829080728285 0
435 17.69894464596968 3.463002546547266 0
436 7.880647691994265 5.162914161520445 0
437 5.753507183810269 6.608684052425047 0
438 14.54921369980782 0.7874874487107523 0
439 14.55141713977004 9.207486167755246 0
440 7.699478159673571 4.386777576052685 0
441 21.60968047777799 2.582749014748721 0
442 31.24885060103345 7.771882603564415 0
443 9.788449243124791 4.158015585590095 0
444 26.1115769156066 7.409448206141695 0
445 33.51203648880995 5.312092577836066 0
446 8.179257292078638 6.257308579370797 0
447 22.51746038162791 2.828801307563997 0
448 7.206346575474214 6.72402708282517 0
449 19.11089632232059 4.448023980526241 0
450 16.60694516398206 6.941693562116424 0
451 7.794567295044967 6.243132100206286 0
452 31.46818721229372 8.998573925245374 0
453 31.47499269655629 2.062172091428694 0
454 30.49220656883171 5.894825716617261 0
455 32.97859567609667 7.382862989448008 0
456 0.8460313785147284 5.546730143244319 0
457 0.9039368921022296 4.364243669772892 0
458 28.56877287687821 0.8259972821215881 0
459 7.754517006008419 0.8725884102137059 0
460 24.58569791739932 0.8820129491063857 0
461 13.5251681725276 0.7656938170369108 0
462 13.52625944882013 9.230718253674091 0
463 4.038082717286554 1.053969594581889 0
464 34.91316364932444 7.443495321046759 0
465 35.93160527463417 7.211752660131872 0
466 21.15264962431975 7.463061831627359 0
467 10.14199108012078 1.689792689191679 0
468 6.934884594707434 6.135741495263908 0
469 3.538606740232689 5.240763144157384 0
470 32.62962796384659 3.87716529065505 0
471 15.49969735887742 9.231852606479841 0
472 28.00917454301853 2.52739420041536 0
473 15.55546569932978 0.7883162308453737 0
474 7.377582282786962 5.733996608048733 0
475 13.62713919265927 7.803273506202953 0
476 13.62641514170207 2.193976311723997 0
477 12.50624301904184 9.25002890487437 0
478 12.50592122865478 0.7479043848842206 0
479 22.46798328113062 6.548453219934441 0
480 4.544786188638663 6.403955252988391 0
481 11.38294546051895 5.836156954865199 0
482 11.38295709746861 4.163900122310851 0
483 10.34606316571135 0.7963937924179478 0
484 12.28624766339562 4.231358435268044 0
485 12.28624768093595 5.768641565930758 0
486 25.05732908457709 6.981554584807127 0
487 2.499887726089675 9.203616583526014 0
488 22.07864482391352 4.545967962969162 0
489 9.020029204374747 4.242894837374999 0
490 29.44617180033568 5.073301527461768 0
491 14.66895006117274 3.618144989986766 0
492 2.450939640178632 0.8251494648259776 0
493 14.66571904370346 6.387768272370952 0
494 18.07270912635661 6.895446820951636 0
495 20.07125031263531 4.767538955548128 0
496 34.49168333111718 4.097192313226415 0
497 10.39266388882454 2.504996701435108 0
498 10.07551164188574 6.877040914652243 0
499 37.84443655083854 7.270563449161628 0
500 37.87555871317652 2.757357542546459 0
501 2.278841228585979 5.615274339729685 0
502 24.05110709237984 2.403767074287574 0
503 10.40296414036401 9.239086970385614 0
504 11.44826158409667 9.25049319375599 0
505 22.53408502404212 0.7483921949620778 0
506 11.41902383446601 0.7578434957870863 0
507 7.624360257057962 3.236813884015682 0
508 16.47737411222771 4.962782733380572 0
509 7.939043480841944 4.624448501688113 0
510 36.0270143706631 2.667484281256043 0
511 16.83351686481915 2.112856430626683 0
512 6.763412301562401 7.165818434838137 0
513 12.30417851215083 7.934657949856303 0
514 12.33863163188315 2.035958066113791 0
515 2.339981232720212 4.391219961447209 0
516 23.8374289314685 4.104596499846222 0
517 34.80665847695037 2.383139751182765 0
518 15.93459376873779 6.091460850570281 0
519 35.37542510468018 0.7593368299159784 0
520 37.54054476985805 9.106591159985898 0
521 3.52425853205493 7.64646765279744 0
522 37.75158721950943 0.8794753434804338 0
523 27.40484569723523 9.123943549248485 0
524 7.877219778532517 4.842255812652025 0
525 8.844304999565169 2.941349067698119 0
526 2.265799168937511 6.783393731232151 0
527 2.028768886422664 2.917368812347994 0
528 5.704490560124159 5.144479090184447 0
529 25.71972763949246 9.03007122962542 0
530 28.50814546073585 6.001225072046894 0
531 17.49610053642205 0.9773234617584415 0
532 36.15064297438062 3.715642053033292 0
533 32.55191362488359 9.020482378449209 0
534 36.05855210738696 9.068159597041177 0
535 15.48148468350799 2.861499174375711 0
536 25.62839250572524 0.7408049298172147 0
537 26.95664885772939 3.775806994562969 0
538 8.995975815086199 5.791801359272204 0
539 7.205861488916757 5.248125104967015 0
540 25.70362375829831 2.221583992902434 0
541 3.687512763642477 6.333484272308889 0
542 20.25328496330889 0.8390922779570876 0
543 11.59895000533019 7.916210339837935 0
544 11.4827303423497 2.025976579722796 0
545 16.36767959818017 3.638287937255142 0
546 8.750544504287902 0.7982159485020052 0
547 5.890190257347503 2.496253292125114 0
548 17.35103225106243 9.207832594541395 0
549 18.91588407924386 7.915465741517797 0
550 9.307449116744557 6.552210797368227 0
551 14.43511974149941 7.863491606394336 0
552 14.43480883268893 2.134248335700408 0
553 4.563983156864593 3.724997352983584 0
554 37.94734658671656 5.916814353949117 0
555 15.59021016198366 2.168201816652188 0
556 3.64210053702146 2.395174193945951 0
557 27.02940071006109 0.985779422716371 0
558 8.195598971229156 3.929212948170324 0
559 7.456795219178955 5.238710517744817 0
560 15.46589236315421 7.134167676298851 0
561 15.5184207956335 5.42256204970995 0
562 36.13566648252126 6.217685795360079 0
563 12.38479941622144 3.562020237320912 0
564 12.38479943569371 6.437979770625271 0
565 19.21764853522372 3.505990537684788 0
566 30.33256148704462 0.7470002500254573 0
567 0.7265678657947807 6.390096802406834 0
568 0.7695359105368782 3.549347123430966 0
569 1.947726719462247 7.710197020223904 0
570 15.64106179002263 7.836201233472782 0
571 15.0563559461832 4.44485727949422 0
572 10.6549099697985 5.880329324458492 0
573 32.4609359802204 0.7410876733232237 0
574 15.11050500084833 6.072378845013908 0
575 10.67278793872076 4.119211053988765 0
576 35.30168146504515 4.48672278199171 0
577 14.27167431720827 4.399643737083797 0
578 11.78728699540504 6.995145648644334 0
579 11.48197441644956 6.25808929396624 0
580 11.78728697346411 3.004854344689926 0
581 11.47750053630339 3.726173909969929 0
582 3.385941654263561 4.505642409995247 0
583 14.27297669191084 5.59997543854642 0
584 0.8911415448190262 0.8911415448191039 0
585 0.8911415363219239 9.108858463678075 0
586 15.53018041267231 3.804783065244563 0
587 6.653668119121193 8.344331750177007 0
588 9.306353516544872 3.588551099218037 0
589 6.184216188263976 4.947662839540037 0
590 6.529740030985629 4.565373759345306 0
591 33.15840890154879 2.162692085609167 0
592 5.300777421492088 6.195276899110875 0
593 13.31082754179528 2.844689401483579 0
594 13.32925558408972 7.177068602656732 0
595 17.74285342548512 5.451118524772584 0
596 26.92399893694356 2.081014877723521 0
597 3.259823484935593 3.063894824304993 0
598 6.542827217818686 3.629256861883712 0
599 2.35630248484367 1.638070854052304 0
600 6.602056196997137 5.506527152397956 0
601 6.336826977910519 5.83777296922381 0
602 18.94316362626783 2.012181395431321 0
603 9.238631573151345 8.135657189574545 0
604 17.2298204528162 4.527116134776355 0
605 28.59336151767382 4.149545272216525 0
606 23.12872932599922 2.149082072953311 0
607 16.49281796036956 0.7889200688667688 0
608 7.884584879152383 7.233707129432259 0
609 10.49583892924626 7.975735811306672 0
610 28.76129953921357 1.781414424155337 0
611 36.55347418326391 7.814955418914924 0
612 37.11958012327565 2.222226461920233 0
613 28.60749909090459 9.167255223285727 0
614 19.66150707734755 6.483323654960088 0
615 19.78136255947549 2.235620769855108 0
616 19.96101483271903 3.05960383701108 0
617 10.2231737929613 4.196115442036128 0
618 10.23670427770243 5.772031626095631 0
619 29.77052379109232 2.198814009887585 0
620 27.29135267318762 8.159599209602163 0
621 7.405488464772603 9.338843866312144 0
622 23.38179753102806 9.170715157853008 0
623 2.750290331632453 8.243086360515324 0
624 16.44653641630369 9.256301447650934 0
625 11.03691815917227 5.758706254732115 0
626 11.04051005549225 4.241281729320368 0
627 28.62676662856261 7.686688455611373 0
628 7.003940577680009 4.346508300132156 0
629 15.44694023363335 4.599795170201983 0
630 21.55847086227286 9.292488401165595 0
631 7.638993642553396 5.912332733954694 0
632 32.2032923624003 6.045486623111028 0
633 30.49999999999994 9.300682646840691 0
634 21.28655486211677 4.171403507427532 0
635 15.08761417571356 3.924211003754094 0
636 20.55563525194559 8.077303801214256 0
637 23.53915999224026 7.735945783261215 0
638 5.250074462700386 5.58218363627336 0
639 4.742600082424582 5.324237525743393 0
640 24.39845929963906 3.390903060281835 0
641 4.76518090279984 4.584889181334065 0
642 8.555163525701811 3.675646774595993 0
643 39.29015577062639 3.516301019663844 0
644 39.28598381183481 6.513034331460436 0
645 13.4990095614601 5.624557896891869 0
646 13.49900954954461 4.375442104944614 0
647 12.64348588881551 5.673545319165218 0
648 12.64348587339742 4.326454682316992 0
649 8.171860690449002 5.377265767208902 0
650 20.98085036025594 5.826149701520755 0
651 13.67440043212585 6.359076635399729 0
652 13.67440041923113 3.640923371593783 0
653 16.28753333490394 4.603958507517542 0
654 6.807068354623792 2.993912421314638 0
655 8.406232110675662 4.348582276385641 0
656 28.69446557981496 3.280201394012445 0
657 9.52133833381289 1.750676711034675 0
658 3.419889457033823 5.817260907524321 0
659 27.22235093856115 2.986127111045272 0
660 0.8183804587033841 8.058681623708308 0
661 0.8183804531364949 1.941318349906892 0
662 30.27275688951782 7.853425840400929 0
663 34.2409811732811 3.252809164432863 0
664 22.08279729174492 7.900612733851146 0
665 36.3281745157166 0.763406299194924 0
666 37.9966331508373 4.162735494641515 0
667 3.185830822416771 6.900500287002052 0
668 34.43872358706179 8.130203612251883 0
669 9.405835463637075 5.736198671015502 0
670 8.455398186659899 6.609691073113836 0
671 7.541983967610493 4.885828943086439 0
672 26.60873808585488 5.744913693254666 0
673 4.827925664127186 2.889165581642203 0
674 20.39707191443333 1.722354471560784 0
675 10.24589378526916 3.526733662177969 0
676 5.591131646488327 9.290977304394763 0
677 17.00124723646672 6.550219627663404 0
678 7.995285083871067 5.305804678546567 0
679 8.680838939357361 8.586757428553186 0
680 19.48437856583514 0.6391896130815102 0
681 29.16535545258203 6.912994289978002 0
682 21.74506251848453 0.7557528714152199 0
683 32.13858652406785 7.130137315157744 0
684 10.65380071140207 1.985419805505845 0
685 6.07418264903157 7.436601658778381 0
686 8.180936009414173 4.575742497244057 0
687 7.870214134061062 2.737012094056607 0
688 7.139414011570246 2.138011327221829 0
689 17.41613168143826 1.956314331012855 0
690 26.84052888277383 6.609626063216568 0
691 13.12841280740813 6.177799847228624 0
692 13.12841279767384 3.822200160812043 0
693 10.94660196876517 7.17298753216638 0
694 10.94504268412678 2.840025775687956 0
695 20.66105148750835 6.799497978172111 0
696 7.076513010704742 7.817167737901789 0
697 5.448751478941297 0.8623166351785392 0
698 14.66174158488731 4.519249048012535 0
699 14.66391375911211 5.481485354202915 0
700 9.160052209760675 2.55064192158124 0
701 37.68283009187328 3.531162217007219 0
702 6.576705370804892 6.112523919419536 0
703 8.969033528845497 3.823451327014095 0
704 8.927660142364111 6.29791964067517 0
705 22.84608680625996 5.82288276994317 0
706 5.741124013904521 3.317026695560485 0
707 37.40462374197321 8.0338234488101 0
708 39.23851847153733 8.211374499496262 0
709 39.23851847154052 1.788625500498931 0
710 16.38166785481442 4.121328444043035 0
711 36.40874392490821 1.73567653623274 0
712 24.4904987477518 8.061736865071984 0
713 7.579894161293378 5.387360953698934 0
714 19.49999999999995 9.397848915785449 0
715 18.41178162764973 5.649468643452451 0
716 17.49924703109448 6.472132996986052 0
717 36.92355348400972 4.90200594982714 0
718 8.656072720889798 5.65774927935745 0
719 17.67974830031608 7.598334749946149 0
720 16.20765363469295 5.36200782361632 0
721 3.660465845890026 3.719321190473859 0
722 8.986094324596733 1.440348764531489 0
723 3.479371333228331 9.422840990074143 0
724 17.15521849858796 3.304001148600541 0
725 1.803554040185917 2.169280219271826 0
726 17.44690496053917 8.306320335444902 0
727 20.0918578521245 5.496696536599677 0
728 17.78910209837701 4.800476320686289 0
729 11.4132009870361 7.320149556825884 0
730 11.41038364461623 2.678722663614403 0
731 33.64053888601654 6.857696876476853 0
732 3.367015141687721 0.6308702376550871 0
733 26.51190649856099 9.392968476620815 0
734 12.18485555148387 6.13894398197844 0
735 12.18485553206732 3.861056020742948 0
736 7.131103473570268 5.542429970769967 0
737 15.84621098066429 5.303872877257857 0
738 23.48763782128575 0.628293723850339 0
739 34.41455259055405 6.728756326030037 0
740 33.04563325697808 8.140331333813496 0
741 8.081928982969595 8.373857298697043 0
742 29.44244392743295 3.002549080960488 0
743 33.46595716901643 3.157387695402778 0
744 12.43509768452348 2.545978960382466 0
745 12.43285559398497 7.452108823521709 0
746 28.89271812344865 8.386382730604273 0
747 10.28921506944449 6.514030445642003 0
748 27.67985582915262 6.70524261294471 0
749 34.81318680340303 5.900414873647668 0
750 35.36786805571861 9.281597094082237 0
751 25.5773247944948 4.469365309098625 0
752 1.597835903614039 9.364963835727993 0
753 1.597835920710591 0.6350361812498838 0
754 8.800095481112969 9.314476649894395 0
755 9.535432747395312 9.477393983789813 0
756 33.83606371605514 4.604800214424076 0
757 15.53934962109249 6.250245992914886 0
758 10.70896698506318 3.636641589852847 0
759 10.70596305626539 6.362902908796099 0
760 14.55358278185555 2.62138665010432 0
761 14.56064513898277 7.366494153443442 0
762 17.12639927670415 5.422475800223236 0
763 14.34224287014931 4.015914936586698 0
764 24.06394770815572 6.553403917786041 0
765 5.49604328627747 7.044490009880398 0
766 27.65969852020325 5.300545792316361 0
767 14.34224287629571 5.984085060268753 0
768 7.082851147527027 0.8693319450902964 0
769 19.82123479672174 8.035164837624979 0
770 27.87274696991554 7.527128038162049 0
771 24.7871318045316 2.590914980177531 0
772 16.90862968436771 4.922568978993483 0
773 20.61199410239662 4.26272992047029 0
774 21.94239789353236 7.127926405867637 0
775 6.568813283429879 1.698380156696966 0
776 26.36934593522813 0.649096835542347 0
777 10.08885956198257 3.878873299313399 0
778 26.06165999039469 8.181546270686571 0
779 34.48530253713488 0.6078822978454126 0
780 14.15159693005332 3.289042243400203 0
781 14.1514006936087 6.711316920284611 0
782 21.13865396937971 2.028081839339392 0
783 16.39067105857469 8.029911876527562 0
784 32.17187889945371 2.458777264472989 0
785 5.281257466816923 1.697348424821117 0
786 25.5349750906902 6.058660931482896 0
787 7.406125488614187 3.643901374332452 0
788 13.86155130193085 5.535121392036143 0
789 13.86129081873224 4.464802443649146 0
790 32.84571012108415 5.630661147630145 0
791 7.812250459038117 5.375256796442667 0
792 18.37179751578689 7.491887593283444 0
793 12.7688977425144 3.582321266085888 0
794 12.76889776201559 6.417678739055422 0
795 7.551353492785728 5.070933468519701 0
796 15.00111286101477 3.061800939675422 0
797 2.592250846119939 3.180495041692478 0
798 4.735125919091444 6.998388669313029 0
799 16.38260830546467 5.813450001365022 0
800 3.640645368570592 8.331190154986556 0
801 29.9490638956548 4.502429476411529 0
802 7.57641967669419 6.63318614505855 0
803 18.28530329274563 4.467381471352486 0
804 29.49999999998414 0.5354639726370135 0
805 6.23775664034271 4.151474103261609 0
806 34.03510407294175 9.336145559262167 0
807 7.832913658957549 4.090219635254999 0
808 5.419495916575013 4.584051141834748 0
809 5.678135294629733 3.997630716592349 0
810 9.047334905161279 7.072663105996314 0
811 36.70195891459466 9.340934291417522 0
812 33.17687031142191 4.538943390460323 0
813 23.6302568309135 5.751713202414739 0
814 7.771370309621999 1.471648558646568 0
815 16.72292692075784 2.624279895593705 0
816 4.253883422912589 7.498909786543973 0
817 17.84481596094266 2.551011739448692 0
818 30.74431968674125 2.401520715732594 0
819 22.99063555847732 8.249189676307804 0
820 36.34544308111858 5.411436952933017 0
821 4.620813655196733 9.437870255771191 0
822 33.8964776722154 1.816077870373186 0
823 27.67507702104049 0.661690807812195 0
824 8.385995626580662 2.063756901459295 0
825 38.39184014697683 9.400231819219542 0
826 3.656510834478047 1.763573420894684 0
827 26.63929449691301 7.94330712983307 0
828 38.39630174669268 0.5957701887175348 0
829 25.29194149742076 3.842396995670737 0
830 7.027719830202611 3.87306869373399 0
831 25.40930346702553 1.416025519496277 0
832 14.98868320449771 6.917747183168063 0
833 23.28613025538864 7.021623908637308 0
834 37.59753401873286 6.549941026817864 0
835 19.49209584550739 7.366795727174882 0
836 9.410131535670192 4.30494480566018 0
837 39.44790405769006 0.5520959423088763 0
838 39.44790405769118 9.447904057690497 0
839 5.381084536768522 2.902852474764148 0
840 5.795232237747113 6.227693898414012 0
841 22.49999999999998 9.49836573282793 0
842 22.94221947454039 1.388300389740816 0
843 9.509908028182556 0.4874810714560669 0
844 7.101221084435863 6.416051338955093 0
845 8.685704411370672 4.371809414933164 0
846 6.883166809314189 5.609293373896119 0
847 2.952443724155093 5.5802168355594 0
848 8.248670669759129 5.971140719572974 0
849 7.015663403614863 5.060784923505196 0
850 4.659550123259865 0.6004044160298998 0
$EndNodes
$Elements
1700
1 1 2 3 1 1 8
2 1 2 3 1 8 9
3 1 2 3 1 9 10
4 1 2 3 1 10 11
5 1 2 3 1 11 12
6 1 2 3 1 12 13
7 1 2 3 1 13 14
8 1 2 3 1 14 15
9 1 2 3 1 15 16
10 1 2 3 1 16 17
11 1 2 3 1 17 18
12 1 2 3 1 18 19
13 1 2 3 1 19 20
14 1 2 3 1 20 21
15 1 2 3 1 21 22
16 1 2 3 1 22 23
17 1 2 3 1 23 24
18 1 2 3 1 24 25
19 1 2 3 1 25 26
20 1 2 3 1 26 27
21 1 2 3 1 27 28
22 1 2 3 1 28 29
23 1 2 3 1 29 30
24 1 2 3 1 30 31
25 1 2 3 1 31 32
26 1 2 3 1 32 33
27 1 2 3 1 33 34
28 1 2 3 1 34 35
29 1 2 3 1 35 36
30 1 2 3 1 36 37
31 1 2 3 1 37 38
32 1 2 3 1 38 39
33 1 2 3 1 39 40
34 1 2 3 1 40 41
35 1 2 3 1 41 42
36 1 2 3 1 42 43
37 1 2 3 1 43 44
38 1 2 3 1 44 45
39 1 2 3 1 45 46
40 1 2 3 1 46 2
41 1 2 2 2 2 47
42 1 2 2 2 47 48
43 1 2 2 2 48 49
44 1 2 2 2 49 50
45 1 2 2 2 50 51
46 1 2 2 2 51 52
47 1 2 2 2 52 53
48 1 2 2 2 53 54
49 1 2 2 2 54 55
50 1 2 2 2 55 3
51 1 2 4 3 3 56
52 1 2 4 3 56 57
53 1 2 4 3 57 58
54 1 2 4 3 58 59
55 1 2 4 3 59 60
56 1 2 4 3 60 61
57 1 2 4 3 61 62
58 1 2 4 3 62 63
59 1 2 4 3 63 64
60 1 2 4 3 64 65
61 1 2 4 3 65 66
62 1 2 4 3 66 67
63 1 2 4 3 67 68
64 1 2 4 3 68 69
65 1 2 4 3 69 70
66 1 2 4 3 70 71
67 1 2 4 3 71 72
68 1 2 4 3 72 73
69 1 2 4 3 73 74
70 1 2 4 3 74 75
71 1 2 4 3 75 76
72 1 2 4 3 76 77
73 1 2 4 3 77 78
74 1 2 4 3 78 79
75 1 2 4 3 79 80
76 1 2 4 3 80 81
77 1 2 4 3 81 82
78 1 2 4 3 82 83
79 1 2 4 3 83 84
80 1 2 4 3 84 85
81 1 2 4 3 85 86
82 1 2 4 3 86 87
83 1 2 4 3 87 88
84 1 2 4 3 88 89
85 1 2 4 3 89 90
86 1 2 4 3 90 91
87 1 2 4 3 91 92
88 1 2 4 3 92 93
89 1 2 4 3 93 94
90 1 2 4 3 94 4
91 1 2 1 4 4 95
92 1 2 1 4 95 96
93 1 2 1 4 96 97
94 1 2 1 4 97 98
95 1 2 1 4 98 99
96 1 2 1 4 99 100
97 1 2 1 4 100 101
98 1 2 1 4 101 102
99 1 2 1 4 102 103
100 1 2 1 4 103 1
101 1 2 6 1001 5 104
102 1 2 6 1001 104 105
103 1 2 6 1001 105 106
104 1 2 6 1001 106 107
105 1 2 6 1001 107 108
106 1 2 6 1001 108 109
107 1 2 6 1001 109 110
108 1 2 6 1001 110 111
109 1 2 6 1001 111 112
110 1 2 6 1001 112 113
111 1 2 6 1001 113 114
112 1 2 6 1001 114 115
113 1 2 6 1001 115 116
114 1 2 6 1001 116 117
115 1 2 6 1001 117 118
116 1 2 6 1001 118 119
117 1 2 6 1001 119 120
118 1 2 6 1001 120 121
119 1 2 6 1001 121 122
120 1 2 6 1001 122 6
121 1 2 6 1002 6 123
122 1 2 6 1002 123 7
123 1 2 6 1003 7 124
124 1 2 6 1003 124 125
125 1 2 6 1003 125 126
126 1 2 6 1003 126 127
127 1 2 6 1003 127 128
128 1 2 6 1003 128 129
129 1 2 6 1003 129 130
130 1 2 6 1003 130 131
131 1 2 6 1003 131 132
132 1 2 6 1003 132 133
133 1 2 6 1003 133 134
134 1 2 6 1003 134 135
135 1 2 6 1003 135 136
136 1 2 6 1003 136 137
137 1 2 6 1003 137 138
138 1 2 6 1003 138 139
139 1 2 6 1003 139 140
140 1 2 6 1003 140 141
141 1 2 6 1003 141 142
142 1 2 6 1003 142 5
143 2 2 5 3001 344 189 594
144 2 2 5 3001 190 345 593
145 2 2 5 3001 297 490 605
146 2 2 5 3001 201 431 554
147 2 2 5 3001 275 370 662
148 2 2 5 3001 311 214 420
149 2 2 5 3001 332 237 517
150 2 2 5 3001 556 173 826
151 2 2 5 3001 228 324 449
152 2 2 5 3001 231 304 460
153 2 2 5 3001 173 314 826
154 2 2 5 3001 161 377 565
155 2 2 5 3001 531 193 689
156 2 2 5 3001 304 231 502
157 2 2 5 3001 323 44 522
158 2 2 5 3001 336 206 586
159 2 2 5 3001 672 211 766
160 2 2 5 3001 405 215 516
161 2 2 5 3001 317 162 501
162 2 2 5 3001 351 230 526
163 2 2 5 3001 162 317 515
164 2 2 5 3001 275 442 452
165 2 2 5 3001 442 240 452
166 2 2 5 3001 454 274 490
167 2 2 5 3001 355 152 560
168 2 2 5 3001 311 420 618
169 2 2 5 3001 179 365 558
170 2 2 5 3001 300 205 600
171 2 2 5 3001 528 285 589
172 2 2 5 3001 153 475 594
173 2 2 5 3001 476 157 593
174 2 2 5 3001 184 388 440
175 2 2 5 3001 211 404 766
176 2 2 5 3001 396 41 779
177 2 2 5 3001 490 297 801
178 2 2 5 3001 456 99 457
179 2 2 5 3001 426 71 622
180 2 2 5 3001 385 193 531
181 2 2 5 3001 422 152 450
182 2 2 5 3001 490 148 605
183 2 2 5 3001 316 235 611
184 2 2 5 3001 623 521 800
185 2 2 5 3001 219 454 490
186 2 2 5 3001 352 101 661
187 2 2 5 3001 97 351 660
188 2 2 5 3001 237 332 519
189 2 2 5 3001 501 288 526
190 2 2 5 3001 163 423 494
191 2 2 5 3001 156 336 535
192 2 2 5 3001 614 228 727
193 2 2 5 3001 314 173 599
194 2 2 5 3001 155 375 498
195 2 2 5 3001 323 238 612
196 2 2 5 3001 263 184 671
197 2 2 5 3001 174 336 586
198 2 2 5 3001 377 193 602
199 2 2 5 3001 156 374 511
200 2 2 5 3001 338 172 398
201 2 2 5 3001 315 203 333
202 2 2 5 3001 235 316 534
203 2 2 5 3001 44 323 665
204 2 2 5 3001 201 384 431
205 2 2 5 3001 62 329 806
206 2 2 5 3001 320 206 407
207 2 2 5 3001 382 219 413
208 2 2 5 3001 653 407 710
209 2 2 5 3001 168 521 623
210 2 2 5 3001 238 323 522
211 2 2 5 3001 113 114 368
212 2 2 5 3001 132 133 369
213 2 2 5 3001 284 419 755
214 2 2 5 3001 423 228 614
215 2 2 5 3001 364 469 582
216 2 2 5 3001 297 349 434
217 2 2 5 3001 344 200 564
218 2 2 5 3001 199 345 563
219 2 2 5 3001 242 337 566
220 2 2 5 3001 160 405 421
221 2 2 5 3001 405 244 421
222 2 2 5 3001 267 357 759
223 2 2 5 3001 358 268 758
224 2 2 5 3001 414 195 549
225 2 2 5 3001 395 220 621
226 2 2 5 3001 207 313 480
227 2 2 5 3001 301 229 797
228 2 2 5 3001 227 364 582
229 2 2 5 3001 370 197 662
230 2 2 5 3001 165 348 470
231 2 2 5 3001 207 480 541
232 2 2 5 3001 229 301 515
233 2 2 5 3001 280 377 602
234 2 2 5 3001 360 144 809
235 2 2 5 3001 531 269 607
236 2 2 5 3001 317 456 457
237 2 2 5 3001 40 41 396
238 2 2 5 3001 391 210 608
239 2 2 5 3001 210 425 608
240 2 2 5 3001 367 123 436
241 2 2 5 3001 449 324 803
242 2 2 5 3001 310 378 799
243 2 2 5 3001 349 297 742
244 2 2 5 3001 377 280 565
245 2 2 5 3001 313 207 639
246 2 2 5 3001 329 62 533
247 2 2 5 3001 560 152 570
248 2 2 5 3001 232 335 682
249 2 2 5 3001 144 706 809
250 2 2 5 3001 212 347 402
251 2 2 5 3001 28 335 542
252 2 2 5 3001 215 416 516
253 2 2 5 3001 332 396 779
254 2 2 5 3001 7 124 649
255 2 2 5 3001 305 233 543
256 2 2 5 3001 234 306 544
257 2 2 5 3001 101 102 661
258 2 2 5 3001 96 97 660
259 2 2 5 3001 226 305 513
260 2 2 5 3001 306 225 514
261 2 2 5 3001 143 480 592
262 2 2 5 3001 336 156 412
263 2 2 5 3001 230 317 501
264 2 2 5 3001 317 229 515
265 2 2 5 3001 223 296 570
266 2 2 5 3001 214 327 420
267 2 2 5 3001 345 190 793
268 2 2 5 3001 189 344 794
269 2 2 5 3001 206 336 545
270 2 2 5 3001 200 344 578
271 2 2 5 3001 345 199 580
272 2 2 5 3001 373 164 442
273 2 2 5 3001 347 212 588
274 2 2 5 3001 162 515 582
275 2 2 5 3001 329 185 668
276 2 2 5 3001 295 222 555
277 2 2 5 3001 347 159 402
278 2 2 5 3001 539 339 849
279 2 2 5 3001 185 329 740
280 2 2 5 3001 194 354 430
281 2 2 5 3001 354 194 676
282 2 2 5 3001 222 295 552
283 2 2 5 3001 296 223 551
284 2 2 5 3001 419 503 755
285 2 2 5 3001 184 263 415
286 2 2 5 3001 285 528 808
287 2 2 5 3001 315 333 702
288 2 2 5 3001 370 275 633
289 2 2 5 3001 293 225 476
290 2 2 5 3001 226 294 475
291 2 2 5 3001 355 175 757
292 2 2 5 3001 378 196 799
293 2 2 5 3001 427 155 498
294 2 2 5 3001 515 301 582
295 2 2 5 3001 475 153 551
296 2 2 5 3001 157 476 552
297 2 2 5 3001 317 230 456
298 2 2 5 3001 229 317 457
299 2 2 5 3001 324 228 715
300 2 2 5 3001 156 535 555
301 2 2 5 3001 423 289 494
302 2 2 5 3001 431 259 554
303 2 2 5 3001 294 226 513
304 2 2 5 3001 225 293 514
305 2 2 5 3001 371 561 737
306 2 2 5 3001 309 221 673
307 2 2 5 3001 366 292 445
308 2 2 5 3001 335 232 782
309 2 2 5 3001 251 422 450
310 2 2 5 3001 257 346 630
311 2 2 5 3001 181 347 588
312 2 2 5 3001 230 501 526
313 2 2 5 3001 183 402 497
314 2 2 5 3001 287 414 549
315 2 2 5 3001 249 371 518
316 2 2 5 3001 70 71 426
317 2 2 5 3001 421 672 786
318 2 2 5 3001 413 219 434
319 2 2 5 3001 346 257 664
320 2 2 5 3001 397 241 453
321 2 2 5 3001 242 397 453
322 2 2 5 3001 282 426 622
323 2 2 5 3001 670 281 704
324 2 2 5 3001 248 472 596
325 2 2 5 3001 309 553 721
326 2 2 5 3001 24 531 607
327 2 2 5 3001 172 338 540
328 2 2 5 3001 596 472 659
329 2 2 5 3001 195 414 726
330 2 2 5 3001 278 389 651
331 2 2 5 3001 390 279 652
332 2 2 5 3001 192 291 710
333 2 2 5 3001 363 192 435
334 2 2 5 3001 480 313 592
335 2 2 5 3001 192 363 604
336 2 2 5 3001 122 6 686
337 2 2 5 3001 392 153 594
338 2 2 5 3001 157 393 593
339 2 2 5 3001 65 66 370
340 2 2 5 3001 294 344 594
341 2 2 5 3001 345 293 593
342 2 2 5 3001 351 526 569
343 2 2 5 3001 184 254 671
344 2 2 5 3001 553 227 721
345 2 2 5 3001 181 365 525
346 2 2 5 3001 421 211 672
347 2 2 5 3001 211 398 537
348 2 2 5 3001 337 242 619
349 2 2 5 3001 414 548 726
350 2 2 5 3001 349 165 434
351 2 2 5 3001 558 365 642
352 2 2 5 3001 88 395 621
353 2 2 5 3001 399 287 769
354 2 2 5 3001 262 532 576
355 2 2 5 3001 354 198 430
356 2 2 5 3001 320 407 629
357 2 2 5 3001 335 28 682
358 2 2 5 3001 67 523 613
359 2 2 5 3001 305 226 477
360 2 2 5 3001 404 211 537
361 2 2 5 3001 225 306 478
362 2 2 5 3001 636 399 769
363 2 2 5 3001 207 364 639
364 2 2 5 3001 214 311 747
365 2 2 5 3001 222 331 438
366 2 2 5 3001 330 223 439
367 2 2 5 3001 416 245 447
368 2 2 5 3001 322 191 341
369 2 2 5 3001 236 300 601
370 2 2 5 3001 305 477 504
371 2 2 5 3001 310 508 772
372 2 2 5 3001 478 306 506
373 2 2 5 3001 330 226 475
374 2 2 5 3001 225 331 476
375 2 2 5 3001 194 328 685
376 2 2 5 3001 167 416 447
377 2 2 5 3001 308 623 800
378 2 2 5 3001 571 265 635
379 2 2 5 3001 336 174 535
380 2 2 5 3001 223 330 551
381 2 2 5 3001 331 222 552
382 2 2 5 3001 233 305 504
383 2 2 5 3001 306 234 506
384 2 2 5 3001 143 765 798
385 2 2 5 3001 50 51 384
386 2 2 5 3001 415 590 628
387 2 2 5 3001 646 390 789
388 2 2 5 3001 389 645 788
389 2 2 5 3001 446 281 670
390 2 2 5 3001 407 206 710
391 2 2 5 3001 123 367 524
392 2 2 5 3001 371 249 561
393 2 2 5 3001 437 203 765
394 2 2 5 3001 342 614 727
395 2 2 5 3001 196 355 518
396 2 2 5 3001 377 161 435
397 2 2 5 3001 193 377 817
398 2 2 5 3001 357 182 759
399 2 2 5 3001 435 286 817
400 2 2 5 3001 92 487 723
401 2 2 5 3001 237 665 711
402 2 2 5 3001 160 764 813
403 2 2 5 3001 183 358 758
404 2 2 5 3001 355 196 450
405 2 2 5 3001 226 330 462
406 2 2 5 3001 331 225 461
407 2 2 5 3001 365 179 507
408 2 2 5 3001 221 309 556
409 2 2 5 3001 439 223 471
410 2 2 5 3001 203 685 765
411 2 2 5 3001 405 160 813
412 2 2 5 3001 365 181 642
413 2 2 5 3001 159 467 497
414 2 2 5 3001 229 352 527
415 2 2 5 3001 198 354 432
416 2 2 5 3001 161 363 435
417 2 2 5 3001 492 10 732
418 2 2 5 3001 475 294 594
419 2 2 5 3001 293 476 593
420 2 2 5 3001 332 517 822
421 2 2 5 3001 384 51 431
422 2 2 5 3001 487 308 723
423 2 2 5 3001 183 497 694
424 2 2 5 3001 222 438 473
425 2 2 5 3001 339 205 849
426 2 2 5 3001 413 165 470
427 2 2 5 3001 205 300 589
428 2 2 5 3001 230 351 567
429 2 2 5 3001 352 229 568
430 2 2 5 3001 194 395 676
431 2 2 5 3001 340 194 685
432 2 2 5 3001 218 382 413
433 2 2 5 3001 373 274 454
434 2 2 5 3001 165 349 818
435 2 2 5 3001 314 492 732
436 2 2 5 3001 512 146 696
437 2 2 5 3001 320 571 635
438 2 2 5 3001 347 181 525
439 2 2 5 3001 353 486 712
440 2 2 5 3001 544 319 684
441 2 2 5 3001 176 614 695
442 2 2 5 3001 486 217 712
443 2 2 5 3001 374 269 511
444 2 2 5 3001 440 388 807
445 2 2 5 3001 164 373 454
446 2 2 5 3001 585 95 660
447 2 2 5 3001 103 584 661
448 2 2 5 3001 193 385 602
449 2 2 5 3001 373 442 662
450 2 2 5 3001 375 214 498
451 2 2 5 3001 233 318 543
452 2 2 5 3001 389 208 651
453 2 2 5 3001 209 390 652
454 2 2 5 3001 614 342 695
455 2 2 5 3001 328 381 765
456 2 2 5 3001 333 203 437
457 2 2 5 3001 302 672 766
458 2 2 5 3001 356 220 741
459 2 2 5 3001 260 521 667
460 2 2 5 3001 394 145 488
461 2 2 5 3001 291 192 604
462 2 2 5 3001 388 184 628
463 2 2 5 3001 205 339 600
464 2 2 5 3001 147 366 445
465 2 2 5 3001 1 8 584
466 2 2 5 3001 103 1 584
467 2 2 5 3001 94 4 585
468 2 2 5 3001 4 95 585
469 2 2 5 3001 74 75 399
470 2 2 5 3001 364 207 469
471 2 2 5 3001 762 310 772
472 2 2 5 3001 234 483 506
473 2 2 5 3001 5 104 407
474 2 2 5 3001 326 149 507
475 2 2 5 3001 348 165 784
476 2 2 5 3001 382 164 454
477 2 2 5 3001 402 159 497
478 2 2 5 3001 344 154 578
479 2 2 5 3001 158 345 580
480 2 2 5 3001 226 462 477
481 2 2 5 3001 461 225 478
482 2 2 5 3001 175 355 560
483 2 2 5 3001 61 62 806
484 2 2 5 3001 170 359 834
485 2 2 5 3001 697 204 785
486 2 2 5 3001 411 258 500
487 2 2 5 3001 238 411 500
488 2 2 5 3001 410 239 499
489 2 2 5 3001 259 410 499
490 2 2 5 3001 445 292 790
491 2 2 5 3001 632 292 683
492 2 2 5 3001 525 272 700
493 2 2 5 3001 333 236 601
494 2 2 5 3001 318 233 609
495 2 2 5 3001 350 150 846
496 2 2 5 3001 577 108 789
497 2 2 5 3001 138 583 788
498 2 2 5 3001 237 519 665
499 2 2 5 3001 154 513 543
500 2 2 5 3001 279 390 646
501 2 2 5 3001 389 278 645
502 2 2 5 3001 514 158 544
503 2 2 5 3001 340 512 696
504 2 2 5 3001 523 283 613
505 2 2 5 3001 330 475 551
506 2 2 5 3001 476 331 552
507 2 2 5 3001 273 548 624
508 2 2 5 3001 377 435 817
509 2 2 5 3001 357 267 579
510 2 2 5 3001 480 260 541
511 2 2 5 3001 268 358 581
512 2 2 5 3001 497 467 684
513 2 2 5 3001 282 622 819
514 2 2 5 3001 622 346 819
515 2 2 5 3001 191 322 387
516 2 2 5 3001 95 96 660
517 2 2 5 3001 102 103 661
518 2 2 5 3001 25 26 385
519 2 2 5 3001 214 375 550
520 2 2 5 3001 610 337 619
521 2 2 5 3001 477 83 504
522 2 2 5 3001 19 478 506
523 2 2 5 3001 50 384 643
524 2 2 5 3001 385 266 602
525 2 2 5 3001 765 381 798
526 2 2 5 3001 38 39 397
527 2 2 5 3001 202 350 474
528 2 2 5 3001 372 221 463
529 2 2 5 3001 300 236 528
530 2 2 5 3001 420 327 669
531 2 2 5 3001 244 405 516
532 2 2 5 3001 80 439 471
533 2 2 5 3001 433 177 441
534 2 2 5 3001 148 404 605
535 2 2 5 3001 404 271 605
536 2 2 5 3001 518 371 799
537 2 2 5 3001 188 610 619
538 2 2 5 3001 608 146 802
539 2 2 5 3001 74 399 630
540 2 2 5 3001 373 197 681
541 2 2 5 3001 274 373 681
542 2 2 5 3001 261 394 479
543 2 2 5 3001 127 128 420
544 2 2 5 3001 452 64 633
545 2 2 5 3001 44 45 522
546 2 2 5 3001 152 355 450
547 2 2 5 3001 48 49 411
548 2 2 5 3001 53 54 410
549 2 2 5 3001 254 184 440
550 2 2 5 3001 383 60 806
551 2 2 5 3001 235 383 668
552 2 2 5 3001 374 156 555
553 2 2 5 3001 113 368 484
554 2 2 5 3001 369 133 485
555 2 2 5 3001 382 218 632
556 2 2 5 3001 132 369 481
557 2 2 5 3001 368 114 482
558 2 2 5 3001 57 58 520
559 2 2 5 3001 459 15 546
560 2 2 5 3001 140 141 403
561 2 2 5 3001 328 194 430
562 2 2 5 3001 170 499 707
563 2 2 5 3001 359 201 554
564 2 2 5 3001 219 382 454
565 2 2 5 3001 351 97 567
566 2 2 5 3001 101 352 568
567 2 2 5 3001 245 433 441
568 2 2 5 3001 438 22 473
569 2 2 5 3001 146 448 802
570 2 2 5 3001 70 426 529
571 2 2 5 3001 359 170 562
572 2 2 5 3001 135 136 408
573 2 2 5 3001 110 111 409
574 2 2 5 3001 532 246 576
575 2 2 5 3001 381 328 430
576 2 2 5 3001 490 274 530
577 2 2 5 3001 148 490 530
578 2 2 5 3001 341 166 713
579 2 2 5 3001 378 310 762
580 2 2 5 3001 206 320 586
581 2 2 5 3001 76 77 414
582 2 2 5 3001 272 400 700
583 2 2 5 3001 483 18 506
584 2 2 5 3001 161 449 803
585 2 2 5 3001 51 52 431
586 2 2 5 3001 505 232 682
587 2 2 5 3001 215 394 488
588 2 2 5 3001 614 176 835
589 2 2 5 3001 14 15 459
590 2 2 5 3001 65 370 633
591 2 2 5 3001 611 170 707
592 2 2 5 3001 92 93 487
593 2 2 5 3001 9 10 492
594 2 2 5 3001 14 459 768
595 2 2 5 3001 201 359 717
596 2 2 5 3001 346 664 819
597 2 2 5 3001 292 366 731
598 2 2 5 3001 63 64 452
599 2 2 5 3001 374 222 473
600 2 2 5 3001 298 470 743
601 2 2 5 3001 470 348 743
602 2 2 5 3001 566 337 804
603 2 2 5 3001 327 214 550
604 2 2 5 3001 107 108 577
605 2 2 5 3001 221 372 785
606 2 2 5 3001 203 512 685
607 2 2 5 3001 138 139 583
608 2 2 5 3001 548 78 624
609 2 2 5 3001 210 418 603
610 2 2 5 3001 706 376 809
611 2 2 5 3001 426 217 529
612 2 2 5 3001 384 258 643
613 2 2 5 3001 165 413 434
614 2 2 5 3001 155 427 609
615 2 2 5 3001 351 569 660
616 2 2 5 3001 76 414 714
617 2 2 5 3001 503 233 504
618 2 2 5 3001 345 158 744
619 2 2 5 3001 154 344 745
620 2 2 5 3001 223 379 471
621 2 2 5 3001 428 238 828
622 2 2 5 3001 200 357 579
623 2 2 5 3001 358 199 581
624 2 2 5 3001 343 212 443
625 2 2 5 3001 375 155 418
626 2 2 5 3001 417 204 697
627 2 2 5 3001 247 424 562
628 2 2 5 3001 520 58 811
629 2 2 5 3001 380 149 654
630 2 2 5 3001 569 253 660
631 2 2 5 3001 419 155 609
632 2 2 5 3001 222 374 555
633 2 2 5 3001 239 429 825
634 2 2 5 3001 234 544 684
635 2 2 5 3001 238 522 828
636 2 2 5 3001 425 146 608
637 2 2 5 3001 364 227 641
638 2 2 5 3001 69 70 529
639 2 2 5 3001 379 273 624
640 2 2 5 3001 87 356 754
641 2 2 5 3001 365 272 525
642 2 2 5 3001 220 356 621
643 2 2 5 3001 458 36 804
644 2 2 5 3001 169 406 532
645 2 2 5 3001 406 246 532
646 2 2 5 3001 541 260 667
647 2 2 5 3001 213 604 728
648 2 2 5 3001 227 553 641
649 2 2 5 3001 169 510 612
650 2 2 5 3001 216 459 546
651 2 2 5 3001 416 215 488
652 2 2 5 3001 462 82 477
653 2 2 5 3001 20 461 478
654 2 2 5 3001 399 257 630
655 2 2 5 3001 88 89 395
656 2 2 5 3001 348 591 743
657 2 2 5 3001 519 332 779
658 2 2 5 3001 35 36 458
659 2 2 5 3001 379 223 570
660 2 2 5 3001 150 350 468
661 2 2 5 3001 528 171 808
662 2 2 5 3001 520 239 825
663 2 2 5 3001 509 6 524
664 2 2 5 3001 496 262 576
665 2 2 5 3001 300 528 589
666 2 2 5 3001 286 511 689
667 2 2 5 3001 321 642 703
668 2 2 5 3001 388 179 807
669 2 2 5 3001 383 329 668
670 2 2 5 3001 383 235 750
671 2 2 5 3001 292 455 683
672 2 2 5 3001 302 530 748
673 2 2 5 3001 228 423 715
674 2 2 5 3001 229 527 797
675 2 2 5 3001 307 444 486
676 2 2 5 3001 630 346 841
677 2 2 5 3001 224 367 436
678 2 2 5 3001 269 374 607
679 2 2 5 3001 392 189 651
680 2 2 5 3001 190 393 652
681 2 2 5 3001 60 61 806
682 2 2 5 3001 512 340 685
683 2 2 5 3001 167 502 640
684 2 2 5 3001 510 262 517
685 2 2 5 3001 237 510 517
686 2 2 5 3001 155 419 603
687 2 2 5 3001 268 575 758
688 2 2 5 3001 235 465 611
689 2 2 5 3001 612 510 711
690 2 2 5 3001 330 439 462
691 2 2 5 3001 438 331 461
692 2 2 5 3001 415 205 590
693 2 2 5 3001 391 243 670
694 2 2 5 3001 99 100 457
695 2 2 5 3001 98 99 456
696 2 2 5 3001 366 147 749
697 2 2 5 3001 297 434 801
698 2 2 5 3001 387 322 649
699 2 2 5 3001 414 287 714
700 2 2 5 3001 13 14 417
701 2 2 5 3001 27 28 542
702 2 2 5 3001 221 386 673
703 2 2 5 3001 232 441 782
704 2 2 5 3001 250 380 654
705 2 2 5 3001 572 267 759
706 2 2 5 3001 243 608 802
707 2 2 5 3001 202 474 631
708 2 2 5 3001 595 378 762
709 2 2 5 3001 275 452 633
710 2 2 5 3001 518 355 757
711 2 2 5 3001 361 153 781
712 2 2 5 3001 157 362 780
713 2 2 5 3001 496 298 663
714 2 2 5 3001 370 66 613
715 2 2 5 3001 190 652 692
716 2 2 5 3001 651 189 691
717 2 2 5 3001 286 435 724
718 2 2 5 3001 218 413 470
719 2 2 5 3001 372 697 785
720 2 2 5 3001 178 444 690
721 2 2 5 3001 444 307 690
722 2 2 5 3001 166 474 736
723 2 2 5 3001 672 307 786
724 2 2 5 3001 198 381 430
725 2 2 5 3001 191 446 451
726 2 2 5 3001 464 235 668
727 2 2 5 3001 167 447 606
728 2 2 5 3001 166 341 474
729 2 2 5 3001 441 232 447
730 2 2 5 3001 197 370 746
731 2 2 5 3001 380 250 547
732 2 2 5 3001 236 333 840
733 2 2 5 3001 245 441 447
734 2 2 5 3001 286 689 817
735 2 2 5 3001 640 502 771
736 2 2 5 3001 540 338 771
737 2 2 5 3001 535 295 555
738 2 2 5 3001 395 194 587
739 2 2 5 3001 254 440 509
740 2 2 5 3001 591 187 743
741 2 2 5 3001 665 323 711
742 2 2 5 3001 398 172 537
743 2 2 5 3001 180 391 670
744 2 2 5 3001 25 385 531
745 2 2 5 3001 238 500 612
746 2 2 5 3001 245 416 488
747 2 2 5 3001 357 200 578
748 2 2 5 3001 235 464 465
749 2 2 5 3001 464 247 465
750 2 2 5 3001 199 358 580
751 2 2 5 3001 337 458 804
752 2 2 5 3001 663 298 743
753 2 2 5 3001 329 383 806
754 2 2 5 3001 619 349 742
755 2 2 5 3001 163 378 595
756 2 2 5 3001 40 396 573
757 2 2 5 3001 415 263 849
758 2 2 5 3001 442 275 662
759 2 2 5 3001 471 379 624
760 2 2 5 3001 266 385 680
761 2 2 5 3001 182 427 498
762 2 2 5 3001 220 587 696
763 2 2 5 3001 31 32 460
764 2 2 5 3001 231 460 831
765 2 2 5 3001 553 309 673
766 2 2 5 3001 502 167 606
767 2 2 5 3001 350 202 468
768 2 2 5 3001 397 242 566
769 2 2 5 3001 38 397 566
770 2 2 5 3001 394 261 650
771 2 2 5 3001 278 651 691
772 2 2 5 3001 652 279 692
773 2 2 5 3001 386 221 785
774 2 2 5 3001 210 391 418
775 2 2 5 3001 213 762 772
776 2 2 5 3001 15 16 546
777 2 2 5 3001 258 384 666
778 2 2 5 3001 384 201 666
779 2 2 5 3001 145 394 650
780 2 2 5 3001 513 305 543
781 2 2 5 3001 419 233 503
782 2 2 5 3001 306 514 544
783 2 2 5 3001 197 373 662
784 2 2 5 3001 460 536 831
785 2 2 5 3001 412 192 545
786 2 2 5 3001 322 341 791
787 2 2 5 3001 149 380 688
788 2 2 5 3001 149 326 654
789 2 2 5 3001 444 217 486
790 2 2 5 3001 123 7 436
791 2 2 5 3001 84 503 504
792 2 2 5 3001 453 165 818
793 2 2 5 3001 296 560 570
794 2 2 5 3001 359 554 834
795 2 2 5 3001 336 412 545
796 2 2 5 3001 118 119 443
797 2 2 5 3001 488 145 634
798 2 2 5 3001 517 187 822
799 2 2 5 3001 234 467 483
800 2 2 5 3001 334 530 681
801 2 2 5 3001 530 274 681
802 2 2 5 3001 557 248 596
803 2 2 5 3001 303 557 596
804 2 2 5 3001 604 363 728
805 2 2 5 3001 281 538 704
806 2 2 5 3001 575 268 626
807 2 2 5 3001 220 395 587
808 2 2 5 3001 433 256 616
809 2 2 5 3001 493 264 574
810 2 2 5 3001 194 340 587
811 2 2 5 3001 386 204 547
812 2 2 5 3001 203 315 512
813 2 2 5 3001 591 348 784
814 2 2 5 3001 553 360 641
815 2 2 5 3001 391 180 810
816 2 2 5 3001 385 26 680
817 2 2 5 3001 374 473 607
818 2 2 5 3001 416 167 516
819 2 2 5 3001 427 182 693
820 2 2 5 3001 344 294 745
821 2 2 5 3001 293 345 744
822 2 2 5 3001 267 572 625
823 2 2 5 3001 390 577 789
824 2 2 5 3001 291 653 710
825 2 2 5 3001 583 389 788
826 2 2 5 3001 24 25 531
827 2 2 5 3001 60 383 750
828 2 2 5 3001 467 290 483
829 2 2 5 3001 144 553 673
830 2 2 5 3001 271 404 537
831 2 2 5 3001 202 802 844
832 2 2 5 3001 63 452 533
833 2 2 5 3001 67 68 523
834 2 2 5 3001 144 360 553
835 2 2 5 3001 180 670 704
836 2 2 5 3001 231 540 771
837 2 2 5 3001 196 378 677
838 2 2 5 3001 425 220 696
839 2 2 5 3001 632 218 790
840 2 2 5 3001 175 493 574
841 2 2 5 3001 243 391 608
842 2 2 5 3001 153 392 781
843 2 2 5 3001 393 157 780
844 2 2 5 3001 188 619 742
845 2 2 5 3001 530 302 766
846 2 2 5 3001 530 334 748
847 2 2 5 3001 17 18 483
848 2 2 5 3001 397 39 573
849 2 2 5 3001 437 143 592
850 2 2 5 3001 407 104 629
851 2 2 5 3001 164 382 632
852 2 2 5 3001 189 392 594
853 2 2 5 3001 393 190 593
854 2 2 5 3001 396 241 573
855 2 2 5 3001 562 424 820
856 2 2 5 3001 446 191 848
857 2 2 5 3001 529 217 778
858 2 2 5 3001 31 460 738
859 2 2 5 3001 428 47 709
860 2 2 5 3001 55 429 708
861 2 2 5 3001 241 397 573
862 2 2 5 3001 177 433 616
863 2 2 5 3001 79 80 471
864 2 2 5 3001 354 676 821
865 2 2 5 3001 486 353 764
866 2 2 5 3001 451 202 631
867 2 2 5 3001 685 328 765
868 2 2 5 3001 287 399 714
869 2 2 5 3001 160 486 764
870 2 2 5 3001 277 484 735
871 2 2 5 3001 485 276 734
872 2 2 5 3001 120 121 489
873 2 2 5 3001 62 63 533
874 2 2 5 3001 164 632 683
875 2 2 5 3001 20 21 461
876 2 2 5 3001 81 82 462
877 2 2 5 3001 456 230 567
878 2 2 5 3001 229 457 568
879 2 2 5 3001 131 132 481
880 2 2 5 3001 114 115 482
881 2 2 5 3001 166 539 559
882 2 2 5 3001 112 113 484
883 2 2 5 3001 133 134 485
884 2 2 5 3001 590 151 628
885 2 2 5 3001 400 159 700
886 2 2 5 3001 241 396 591
887 2 2 5 3001 411 49 643
888 2 2 5 3001 410 259 644
889 2 2 5 3001 53 410 644
890 2 2 5 3001 258 411 643
891 2 2 5 3001 22 23 473
892 2 2 5 3001 538 327 704
893 2 2 5 3001 411 238 709
894 2 2 5 3001 239 410 708
895 2 2 5 3001 171 639 641
896 2 2 5 3001 403 141 561
897 2 2 5 3001 127 420 669
898 2 2 5 3001 401 272 687
899 2 2 5 3001 228 449 495
900 2 2 5 3001 212 343 588
901 2 2 5 3001 369 200 579
902 2 2 5 3001 199 368 581
903 2 2 5 3001 173 527 725
904 2 2 5 3001 420 128 618
905 2 2 5 3001 575 312 758
906 2 2 5 3001 307 486 786
907 2 2 5 3001 272 365 687
908 2 2 5 3001 235 534 750
909 2 2 5 3001 399 75 714
910 2 2 5 3001 487 253 623
911 2 2 5 3001 29 30 505
912 2 2 5 3001 210 603 679
913 2 2 5 3001 642 181 703
914 2 2 5 3001 412 156 815
915 2 2 5 3001 764 353 833
916 2 2 5 3001 149 401 687
917 2 2 5 3001 86 87 754
918 2 2 5 3001 265 571 698
919 2 2 5 3001 356 87 621
920 2 2 5 3001 492 314 599
921 2 2 5 3001 460 304 738
922 2 2 5 3001 398 211 751
923 2 2 5 3001 269 531 689
924 2 2 5 3001 311 572 759
925 2 2 5 3001 204 380 547
926 2 2 5 3001 329 533 740
927 2 2 5 3001 338 398 829
928 2 2 5 3001 363 161 803
929 2 2 5 3001 326 507 787
930 2 2 5 3001 240 442 683
931 2 2 5 3001 54 55 708
932 2 2 5 3001 47 48 709
933 2 2 5 3001 408 136 645
934 2 2 5 3001 110 409 646
935 2 2 5 3001 135 408 647
936 2 2 5 3001 409 111 648
937 2 2 5 3001 455 185 740
938 2 2 5 3001 400 272 824
939 2 2 5 3001 547 250 706
940 2 2 5 3001 449 256 495
941 2 2 5 3001 66 67 613
942 2 2 5 3001 414 77 548
943 2 2 5 3001 80 81 439
944 2 2 5 3001 21 22 438
945 2 2 5 3001 713 224 791
946 2 2 5 3001 48 411 709
947 2 2 5 3001 410 54 708
948 2 2 5 3001 449 161 565
949 2 2 5 3001 154 543 729
950 2 2 5 3001 39 40 573
951 2 2 5 3001 544 158 730
952 2 2 5 3001 452 240 533
953 2 2 5 3001 246 424 576
954 2 2 5 3001 424 147 576
955 2 2 5 3001 394 215 705
956 2 2 5 3001 396 332 822
957 2 2 5 3001 439 81 462
958 2 2 5 3001 21 438 461
959 2 2 5 3001 510 169 532
960 2 2 5 3001 262 510 532
961 2 2 5 3001 599 173 725
962 2 2 5 3001 419 284 603
963 2 2 5 3001 570 152 783
964 2 2 5 3001 6 123 524
965 2 2 5 3001 315 448 512
966 2 2 5 3001 159 347 700
967 2 2 5 3001 84 85 503
968 2 2 5 3001 267 481 579
969 2 2 5 3001 241 591 784
970 2 2 5 3001 455 240 683
971 2 2 5 3001 42 43 519
972 2 2 5 3001 482 268 581
973 2 2 5 3001 196 518 799
974 2 2 5 3001 238 428 709
975 2 2 5 3001 429 239 708
976 2 2 5 3001 481 369 579
977 2 2 5 3001 368 482 581
978 2 2 5 3001 417 14 768
979 2 2 5 3001 676 90 821
980 2 2 5 3001 212 402 675
981 2 2 5 3001 460 32 536
982 2 2 5 3001 697 372 850
983 2 2 5 3001 417 270 775
984 2 2 5 3001 83 84 504
985 2 2 5 3001 18 19 506
986 2 2 5 3001 365 507 687
987 2 2 5 3001 448 315 844
988 2 2 5 3001 481 267 625
989 2 2 5 3001 491 209 780
990 2 2 5 3001 208 493 781
991 2 2 5 3001 268 482 626
992 2 2 5 3001 249 403 561
993 2 2 5 3001 526 168 569
994 2 2 5 3001 257 399 636
995 2 2 5 3001 5 407 653
996 2 2 5 3001 182 357 693
997 2 2 5 3001 358 183 694
998 2 2 5 3001 125 126 538
999 2 2 5 3001 341 191 631
1000 2 2 5 3001 145 650 727
1001 2 2 5 3001 220 425 741
1002 2 2 5 3001 172 540 596
1003 2 2 5 3001 540 303 596
1004 2 2 5 3001 244 516 640
1005 2 2 5 3001 174 491 796
1006 2 2 5 3001 165 453 784
1007 2 2 5 3001 533 240 740
1008 2 2 5 3001 204 386 785
1009 2 2 5 3001 587 340 696
1010 2 2 5 3001 82 83 477
1011 2 2 5 3001 19 20 478
1012 2 2 5 3001 247 739 749
1013 2 2 5 3001 204 417 775
1014 2 2 5 3001 32 33 536
1015 2 2 5 3001 406 201 717
1016 2 2 5 3001 202 451 802
1017 2 2 5 3001 146 425 696
1018 2 2 5 3001 124 125 718
1019 2 2 5 3001 458 337 610
1020 2 2 5 3001 375 418 810
1021 2 2 5 3001 273 379 783
1022 2 2 5 3001 272 401 824
1023 2 2 5 3001 153 361 761
1024 2 2 5 3001 362 157 760
1025 2 2 5 3001 342 650 695
1026 2 2 5 3001 12 697 850
1027 2 2 5 3001 121 122 845
1028 2 2 5 3001 255 558 655
1029 2 2 5 3001 77 78 548
1030 2 2 5 3001 639 364 641
1031 2 2 5 3001 423 163 715
1032 2 2 5 3001 520 316 707
1033 2 2 5 3001 239 520 707
1034 2 2 5 3001 211 421 751
1035 2 2 5 3001 253 569 623
1036 2 2 5 3001 387 124 718
1037 2 2 5 3001 664 186 819
1038 2 2 5 3001 479 394 705
1039 2 2 5 3001 316 520 811
1040 2 2 5 3001 495 145 727
1041 2 2 5 3001 601 150 702
1042 2 2 5 3001 141 142 561
1043 2 2 5 3001 326 598 654
1044 2 2 5 3001 545 192 710
1045 2 2 5 3001 474 350 736
1046 2 2 5 3001 521 168 667
1047 2 2 5 3001 465 247 562
1048 2 2 5 3001 170 465 562
1049 2 2 5 3001 159 400 657
1050 2 2 5 3001 650 261 695
1051 2 2 5 3001 349 619 818
1052 2 2 5 3001 403 249 574
1053 2 2 5 3001 253 585 660
1054 2 2 5 3001 584 252 661
1055 2 2 5 3001 251 494 719
1056 2 2 5 3001 140 403 699
1057 2 2 5 3001 254 509 524
1058 2 2 5 3001 543 318 729
1059 2 2 5 3001 28 29 682
1060 2 2 5 3001 43 44 665
1061 2 2 5 3001 418 391 810
1062 2 2 5 3001 319 544 730
1063 2 2 5 3001 446 243 451
1064 2 2 5 3001 201 406 666
1065 2 2 5 3001 376 250 598
1066 2 2 5 3001 259 431 644
1067 2 2 5 3001 431 52 644
1068 2 2 5 3001 276 485 647
1069 2 2 5 3001 484 277 648
1070 2 2 5 3001 184 415 628
1071 2 2 5 3001 497 319 694
1072 2 2 5 3001 118 443 617
1073 2 2 5 3001 764 325 813
1074 2 2 5 3001 318 427 693
1075 2 2 5 3001 402 183 675
1076 2 2 5 3001 404 148 766
1077 2 2 5 3001 191 451 631
1078 2 2 5 3001 434 219 801
1079 2 2 5 3001 98 456 567
1080 2 2 5 3001 457 100 568
1081 2 2 5 3001 244 640 829
1082 2 2 5 3001 215 405 813
1083 2 2 5 3001 426 282 712
1084 2 2 5 3001 105 106 571
1085 2 2 5 3001 333 437 840
1086 2 2 5 3001 548 273 726
1087 2 2 5 3001 217 426 712
1088 2 2 5 3001 491 362 796
1089 2 2 5 3001 248 458 610
1090 2 2 5 3001 233 419 609
1091 2 2 5 3001 406 169 701
1092 2 2 5 3001 270 417 768
1093 2 2 5 3001 129 130 572
1094 2 2 5 3001 443 119 836
1095 2 2 5 3001 97 98 567
1096 2 2 5 3001 100 101 568
1097 2 2 5 3001 147 424 749
1098 2 2 5 3001 246 406 717
1099 2 2 5 3001 37 38 566
1100 2 2 5 3001 582 301 721
1101 2 2 5 3001 505 30 738
1102 2 2 5 3001 739 366 749
1103 2 2 5 3001 486 160 786
1104 2 2 5 3001 346 622 841
1105 2 2 5 3001 367 224 795
1106 2 2 5 3001 185 455 731
1107 2 2 5 3001 455 292 731
1108 2 2 5 3001 116 117 575
1109 2 2 5 3001 435 192 724
1110 2 2 5 3001 491 265 763
1111 2 2 5 3001 180 550 810
1112 2 2 5 3001 505 738 842
1113 2 2 5 3001 447 232 606
1114 2 2 5 3001 547 706 839
1115 2 2 5 3001 401 149 688
1116 2 2 5 3001 152 422 783
1117 2 2 5 3001 289 423 614
1118 2 2 5 3001 264 493 767
1119 2 2 5 3001 179 388 787
1120 2 2 5 3001 433 245 634
1121 2 2 5 3001 89 90 676
1122 2 2 5 3001 418 155 603
1123 2 2 5 3001 565 280 616
1124 2 2 5 3001 472 248 610
1125 2 2 5 3001 493 175 832
1126 2 2 5 3001 489 321 703
1127 2 2 5 3001 367 254 524
1128 2 2 5 3001 124 387 649
1129 2 2 5 3001 437 592 840
1130 2 2 5 3001 563 277 735
1131 2 2 5 3001 276 564 734
1132 2 2 5 3001 427 318 609
1133 2 2 5 3001 508 5 653
1134 2 2 5 3001 256 433 773
1135 2 2 5 3001 256 449 565
1136 2 2 5 3001 192 412 724
1137 2 2 5 3001 341 713 791
1138 2 2 5 3001 23 24 607
1139 2 2 5 3001 147 496 576
1140 2 2 5 3001 265 491 635
1141 2 2 5 3001 120 489 836
1142 2 2 5 3001 271 472 656
1143 2 2 5 3001 472 188 656
1144 2 2 5 3001 604 213 772
1145 2 2 5 3001 12 13 697
1146 2 2 5 3001 42 519 779
1147 2 2 5 3001 148 530 766
1148 2 2 5 3001 236 592 638
1149 2 2 5 3001 483 290 843
1150 2 2 5 3001 539 263 559
1151 2 2 5 3001 344 564 794
1152 2 2 5 3001 563 345 793
1153 2 2 5 3001 131 481 625
1154 2 2 5 3001 482 115 626
1155 2 2 5 3001 106 107 698
1156 2 2 5 3001 256 565 616
1157 2 2 5 3001 139 140 699
1158 2 2 5 3001 465 170 611
1159 2 2 5 3001 556 309 597
1160 2 2 5 3001 353 637 833
1161 2 2 5 3001 78 79 624
1162 2 2 5 3001 409 277 692
1163 2 2 5 3001 276 408 691
1164 2 2 5 3001 176 466 636
1165 2 2 5 3001 448 146 512
1166 2 2 5 3001 467 159 657
1167 2 2 5 3001 459 216 814
1168 2 2 5 3001 282 637 712
1169 2 2 5 3001 362 491 780
1170 2 2 5 3001 493 361 781
1171 2 2 5 3001 368 199 735
1172 2 2 5 3001 200 369 734
1173 2 2 5 3001 458 248 823
1174 2 2 5 3001 637 353 712
1175 2 2 5 3001 188 472 610
1176 2 2 5 3001 558 321 655
1177 2 2 5 3001 160 421 786
1178 2 2 5 3001 283 523 620
1179 2 2 5 3001 523 299 620
1180 2 2 5 3001 424 246 820
1181 2 2 5 3001 112 484 648
1182 2 2 5 3001 485 134 647
1183 2 2 5 3001 379 570 783
1184 2 2 5 3001 390 209 763
1185 2 2 5 3001 247 464 739
1186 2 2 5 3001 252 492 599
1187 2 2 5 3001 208 389 767
1188 2 2 5 3001 421 244 751
1189 2 2 5 3001 281 387 718
1190 2 2 5 3001 550 375 810
1191 2 2 5 3001 304 502 606
1192 2 2 5 3001 59 60 750
1193 2 2 5 3001 466 257 636
1194 2 2 5 3001 264 403 574
1195 2 2 5 3001 245 488 634
1196 2 2 5 3001 538 126 669
1197 2 2 5 3001 308 487 623
1198 2 2 5 3001 122 655 845
1199 2 2 5 3001 424 247 749
1200 2 2 5 3001 128 129 618
1201 2 2 5 3001 537 172 659
1202 2 2 5 3001 117 118 617
1203 2 2 5 3001 494 251 716
1204 2 2 5 3001 224 436 791
1205 2 2 5 3001 802 448 844
1206 2 2 5 3001 198 432 800
1207 2 2 5 3001 325 764 833
1208 2 2 5 3001 507 179 787
1209 2 2 5 3001 500 169 612
1210 2 2 5 3001 361 493 832
1211 2 2 5 3001 87 88 621
1212 2 2 5 3001 216 400 824
1213 2 2 5 3001 130 131 625
1214 2 2 5 3001 115 116 626
1215 2 2 5 3001 213 595 762
1216 2 2 5 3001 278 408 645
1217 2 2 5 3001 409 279 646
1218 2 2 5 3001 408 276 647
1219 2 2 5 3001 277 409 648
1220 2 2 5 3001 209 652 780
1221 2 2 5 3001 651 208 781
1222 2 2 5 3001 34 35 823
1223 2 2 5 3001 162 469 847
1224 2 2 5 3001 197 627 681
1225 2 2 5 3001 627 334 681
1226 2 2 5 3001 719 494 792
1227 2 2 5 3001 172 596 659
1228 2 2 5 3001 104 105 629
1229 2 2 5 3001 598 151 805
1230 2 2 5 3001 598 250 654
1231 2 2 5 3001 250 376 706
1232 2 2 5 3001 71 72 622
1233 2 2 5 3001 171 638 639
1234 2 2 5 3001 429 56 825
1235 2 2 5 3001 47 428 837
1236 2 2 5 3001 56 429 838
1237 2 2 5 3001 429 55 838
1238 2 2 5 3001 209 491 763
1239 2 2 5 3001 469 162 582
1240 2 2 5 3001 493 208 767
1241 2 2 5 3001 489 343 836
1242 2 2 5 3001 297 605 656
1243 2 2 5 3001 58 59 811
1244 2 2 5 3001 37 566 804
1245 2 2 5 3001 6 509 686
1246 2 2 5 3001 182 498 747
1247 2 2 5 3001 182 747 759
1248 2 2 5 3001 442 164 683
1249 2 2 5 3001 661 252 725
1250 2 2 5 3001 73 74 630
1251 2 2 5 3001 380 204 775
1252 2 2 5 3001 395 89 676
1253 2 2 5 3001 828 46 837
1254 2 2 5 3001 387 281 848
1255 2 2 5 3001 64 65 633
1256 2 2 5 3001 428 828 837
1257 2 2 5 3001 270 459 814
1258 2 2 5 3001 352 661 725
1259 2 2 5 3001 173 556 597
1260 2 2 5 3001 312 675 758
1261 2 2 5 3001 388 628 830
1262 2 2 5 3001 171 528 638
1263 2 2 5 3001 129 572 618
1264 2 2 5 3001 445 218 812
1265 2 2 5 3001 575 117 617
1266 2 2 5 3001 597 309 721
1267 2 2 5 3001 534 59 750
1268 2 2 5 3001 539 166 736
1269 2 2 5 3001 526 288 667
1270 2 2 5 3001 450 196 677
1271 2 2 5 3001 422 273 783
1272 2 2 5 3001 469 207 658
1273 2 2 5 3001 747 311 759
1274 2 2 5 3001 498 214 747
1275 2 2 5 3001 572 130 625
1276 2 2 5 3001 205 589 590
1277 2 2 5 3001 136 137 645
1278 2 2 5 3001 109 110 646
1279 2 2 5 3001 134 135 647
1280 2 2 5 3001 111 112 648
1281 2 2 5 3001 401 216 824
1282 2 2 5 3001 255 655 686
1283 2 2 5 3001 91 432 821
1284 2 2 5 3001 425 210 741
1285 2 2 5 3001 116 575 626
1286 2 2 5 3001 422 251 719
1287 2 2 5 3001 266 542 674
1288 2 2 5 3001 496 147 756
1289 2 2 5 3001 298 496 756
1290 2 2 5 3001 163 494 716
1291 2 2 5 3001 280 602 615
1292 2 2 5 3001 441 177 782
1293 2 2 5 3001 472 271 659
1294 2 2 5 3001 107 577 698
1295 2 2 5 3001 432 91 723
1296 2 2 5 3001 600 150 601
1297 2 2 5 3001 186 479 833
1298 2 2 5 3001 49 50 643
1299 2 2 5 3001 52 53 644
1300 2 2 5 3001 583 139 699
1301 2 2 5 3001 270 401 688
1302 2 2 5 3001 299 529 778
1303 2 2 5 3001 257 466 664
1304 2 2 5 3001 105 571 629
1305 2 2 5 3001 253 487 752
1306 2 2 5 3001 261 466 695
1307 2 2 5 3001 185 464 668
1308 2 2 5 3001 479 325 833
1309 2 2 5 3001 761 361 832
1310 2 2 5 3001 523 68 733
1311 2 2 5 3001 299 523 733
1312 2 2 5 3001 549 289 835
1313 2 2 5 3001 492 252 753
1314 2 2 5 3001 469 658 847
1315 2 2 5 3001 254 367 671
1316 2 2 5 3001 440 255 509
1317 2 2 5 3001 227 582 721
1318 2 2 5 3001 619 242 818
1319 2 2 5 3001 281 446 848
1320 2 2 5 3001 260 798 816
1321 2 2 5 3001 343 443 836
1322 2 2 5 3001 586 320 635
1323 2 2 5 3001 205 415 849
1324 2 2 5 3001 296 761 832
1325 2 2 5 3001 249 518 757
1326 2 2 5 3001 466 261 774
1327 2 2 5 3001 436 7 678
1328 2 2 5 3001 466 176 695
1329 2 2 5 3001 463 11 850
1330 2 2 5 3001 5 508 720
1331 2 2 5 3001 33 34 776
1332 2 2 5 3001 271 537 659
1333 2 2 5 3001 262 496 663
1334 2 2 5 3001 463 221 826
1335 2 2 5 3001 11 463 732
1336 2 2 5 3001 499 239 707
1337 2 2 5 3001 59 534 811
1338 2 2 5 3001 403 264 699
1339 2 2 5 3001 516 167 640
1340 2 2 5 3001 538 281 718
1341 2 2 5 3001 147 445 756
1342 2 2 5 3001 432 308 800
1343 2 2 5 3001 13 417 697
1344 2 2 5 3001 622 72 841
1345 2 2 5 3001 126 127 669
1346 2 2 5 3001 500 258 701
1347 2 2 5 3001 602 266 615
1348 2 2 5 3001 444 178 827
1349 2 2 5 3001 362 760 796
1350 2 2 5 3001 93 94 752
1351 2 2 5 3001 798 381 816
1352 2 2 5 3001 748 334 770
1353 2 2 5 3001 217 444 778
1354 2 2 5 3001 8 9 753
1355 2 2 5 3001 280 615 616
1356 2 2 5 3001 218 445 790
1357 2 2 5 3001 248 557 823
1358 2 2 5 3001 528 236 638
1359 2 2 5 3001 73 630 841
1360 2 2 5 3001 412 286 724
1361 2 2 5 3001 557 34 823
1362 2 2 5 3001 443 212 777
1363 2 2 5 3001 400 216 722
1364 2 2 5 3001 240 455 740
1365 2 2 5 3001 787 388 830
1366 2 2 5 3001 675 183 758
1367 2 2 5 3001 513 154 745
1368 2 2 5 3001 158 514 744
1369 2 2 5 3001 561 142 737
1370 2 2 5 3001 359 562 820
1371 2 2 5 3001 592 313 638
1372 2 2 5 3001 156 511 815
1373 2 2 5 3001 479 186 774
1374 2 2 5 3001 259 499 834
1375 2 2 5 3001 333 601 702
1376 2 2 5 3001 26 27 680
1377 2 2 5 3001 473 23 607
1378 2 2 5 3001 294 513 745
1379 2 2 5 3001 514 293 744
1380 2 2 5 3001 297 656 742
1381 2 2 5 3001 453 241 784
1382 2 2 5 3001 467 234 684
1383 2 2 5 3001 569 168 623
1384 2 2 5 3001 242 453 818
1385 2 2 5 3001 491 174 635
1386 2 2 5 3001 517 262 663
1387 2 2 5 3001 187 517 663
1388 2 2 5 3001 408 278 691
1389 2 2 5 3001 279 409 692
1390 2 2 5 3001 436 678 791
1391 2 2 5 3001 652 393 780
1392 2 2 5 3001 392 651 781
1393 2 2 5 3001 470 298 812
1394 2 2 5 3001 378 163 716
1395 2 2 5 3001 650 342 727
1396 2 2 5 3001 286 412 815
1397 2 2 5 3001 760 295 796
1398 2 2 5 3001 371 720 799
1399 2 2 5 3001 559 224 713
1400 2 2 5 3001 459 270 768
1401 2 2 5 3001 29 505 682
1402 2 2 5 3001 464 185 739
1403 2 2 5 3001 35 458 823
1404 2 2 5 3001 90 91 821
1405 2 2 5 3001 150 600 846
1406 2 2 5 3001 559 263 795
1407 2 2 5 3001 16 17 843
1408 2 2 5 3001 85 86 755
1409 2 2 5 3001 325 479 705
1410 2 2 5 3001 615 266 674
1411 2 2 5 3001 218 470 812
1412 2 2 5 3001 519 43 665
1413 2 2 5 3001 327 550 704
1414 2 2 5 3001 207 541 658
1415 2 2 5 3001 91 92 723
1416 2 2 5 3001 480 143 798
1417 2 2 5 3001 206 545 710
1418 2 2 5 3001 143 437 765
1419 2 2 5 3001 308 432 723
1420 2 2 5 3001 314 463 826
1421 2 2 5 3001 187 663 743
1422 2 2 5 3001 11 12 850
1423 2 2 5 3001 75 76 714
1424 2 2 5 3001 640 338 829
1425 2 2 5 3001 738 304 842
1426 2 2 5 3001 56 57 825
1427 2 2 5 3001 176 636 769
1428 2 2 5 3001 10 11 732
1429 2 2 5 3001 401 270 814
1430 2 2 5 3001 381 198 816
1431 2 2 5 3001 17 483 843
1432 2 2 5 3001 432 354 821
1433 2 2 5 3001 45 46 828
1434 2 2 5 3001 169 500 701
1435 2 2 5 3001 168 526 667
1436 2 2 5 3001 615 177 616
1437 2 2 5 3001 600 339 846
1438 2 2 5 3001 510 237 711
1439 2 2 5 3001 503 85 755
1440 2 2 5 3001 357 578 729
1441 2 2 5 3001 580 358 730
1442 2 2 5 3001 79 471 624
1443 2 2 5 3001 688 380 775
1444 2 2 5 3001 343 489 703
1445 2 2 5 3001 68 69 733
1446 2 2 5 3001 542 266 680
1447 2 2 5 3001 251 450 677
1448 2 2 5 3001 536 33 776
1449 2 2 5 3001 263 671 795
1450 2 2 5 3001 30 31 738
1451 2 2 5 3001 327 538 669
1452 2 2 5 3001 501 162 847
1453 2 2 5 3001 356 679 754
1454 2 2 5 3001 273 422 726
1455 2 2 5 3001 288 501 847
1456 2 2 5 3001 261 479 774
1457 2 2 5 3001 303 536 776
1458 2 2 5 3001 290 546 843
1459 2 2 5 3001 474 341 631
1460 2 2 5 3001 171 641 808
1461 2 2 5 3001 591 396 822
1462 2 2 5 3001 216 546 722
1463 2 2 5 3001 463 314 732
1464 2 2 5 3001 175 574 757
1465 2 2 5 3001 509 255 686
1466 2 2 5 3001 592 236 840
1467 2 2 5 3001 145 495 773
1468 2 2 5 3001 290 467 657
1469 2 2 5 3001 216 401 814
1470 2 2 5 3001 319 497 684
1471 2 2 5 3001 511 286 815
1472 2 2 5 3001 46 2 837
1473 2 2 5 3001 2 47 837
1474 2 2 5 3001 55 3 838
1475 2 2 5 3001 3 56 838
1476 2 2 5 3001 558 255 807
1477 2 2 5 3001 142 5 737
1478 2 2 5 3001 260 480 798
1479 2 2 5 3001 585 253 752
1480 2 2 5 3001 41 42 779
1481 2 2 5 3001 679 284 754
1482 2 2 5 3001 252 584 753
1483 2 2 5 3001 34 557 776
1484 2 2 5 3001 69 529 733
1485 2 2 5 3001 529 299 733
1486 2 2 5 3001 521 260 816
1487 2 2 5 3001 219 490 801
1488 2 2 5 3001 36 37 804
1489 2 2 5 3001 638 313 639
1490 2 2 5 3001 178 748 770
1491 2 2 5 3001 7 649 678
1492 2 2 5 3001 554 259 834
1493 2 2 5 3001 150 468 702
1494 2 2 5 3001 645 137 788
1495 2 2 5 3001 109 646 789
1496 2 2 5 3001 224 559 795
1497 2 2 5 3001 542 335 674
1498 2 2 5 3001 769 549 835
1499 2 2 5 3001 72 73 841
1500 2 2 5 3001 502 231 771
1501 2 2 5 3001 376 598 805
1502 2 2 5 3001 487 93 752
1503 2 2 5 3001 27 542 680
1504 2 2 5 3001 571 106 698
1505 2 2 5 3001 228 495 727
1506 2 2 5 3001 9 492 753
1507 2 2 5 3001 589 285 590
1508 2 2 5 3001 321 558 642
1509 2 2 5 3001 288 541 667
1510 2 2 5 3001 720 310 799
1511 2 2 5 3001 372 463 850
1512 2 2 5 3001 243 446 670
1513 2 2 5 3001 347 525 700
1514 2 2 5 3001 232 505 842
1515 2 2 5 3001 489 121 845
1516 2 2 5 3001 270 688 775
1517 2 2 5 3001 527 173 797
1518 2 2 5 3001 499 170 834
1519 2 2 5 3001 174 586 635
1520 2 2 5 3001 108 109 789
1521 2 2 5 3001 137 138 788
1522 2 2 5 3001 125 538 718
1523 2 2 5 3001 605 271 656
1524 2 2 5 3001 177 615 674
1525 2 2 5 3001 546 290 722
1526 2 2 5 3001 291 604 772
1527 2 2 5 3001 692 277 793
1528 2 2 5 3001 276 691 794
1529 2 2 5 3001 334 627 770
1530 2 2 5 3001 291 508 653
1531 2 2 5 3001 144 673 839
1532 2 2 5 3001 689 193 817
1533 2 2 5 3001 312 575 617
1534 2 2 5 3001 637 282 819
1535 2 2 5 3001 191 387 848
1536 2 2 5 3001 572 311 618
1537 2 2 5 3001 511 269 689
1538 2 2 5 3001 627 197 746
1539 2 2 5 3001 94 585 752
1540 2 2 5 3001 641 360 808
1541 2 2 5 3001 584 8 753
1542 2 2 5 3001 655 122 686
1543 2 2 5 3001 595 213 728
1544 2 2 5 3001 451 243 802
1545 2 2 5 3001 119 120 836
1546 2 2 5 3001 693 357 729
1547 2 2 5 3001 535 174 796
1548 2 2 5 3001 358 694 730
1549 2 2 5 3001 527 352 725
1550 2 2 5 3001 283 620 770
1551 2 2 5 3001 541 288 658
1552 2 2 5 3001 628 151 830
1553 2 2 5 3001 627 283 770
1554 2 2 5 3001 199 563 735
1555 2 2 5 3001 564 200 734
1556 2 2 5 3001 571 320 629
1557 2 2 5 3001 551 153 761
1558 2 2 5 3001 157 552 760
1559 2 2 5 3001 433 634 773
1560 2 2 5 3001 277 563 793
1561 2 2 5 3001 564 276 794
1562 2 2 5 3001 198 521 816
1563 2 2 5 3001 588 343 703
1564 2 2 5 3001 495 256 773
1565 2 2 5 3001 494 289 792
1566 2 2 5 3001 577 390 763
1567 2 2 5 3001 389 583 767
1568 2 2 5 3001 289 549 792
1569 2 2 5 3001 673 386 839
1570 2 2 5 3001 57 520 825
1571 2 2 5 3001 507 149 687
1572 2 2 5 3001 522 45 828
1573 2 2 5 3001 296 551 761
1574 2 2 5 3001 552 295 760
1575 2 2 5 3001 295 535 796
1576 2 2 5 3001 369 485 734
1577 2 2 5 3001 484 368 735
1578 2 2 5 3001 560 296 832
1579 2 2 5 3001 166 559 713
1580 2 2 5 3001 534 316 811
1581 2 2 5 3001 550 180 704
1582 2 2 5 3001 549 195 792
1583 2 2 5 3001 578 154 729
1584 2 2 5 3001 158 580 730
1585 2 2 5 3001 574 249 757
1586 2 2 5 3001 258 666 701
1587 2 2 5 3001 521 198 800
1588 2 2 5 3001 326 787 830
1589 2 2 5 3001 195 719 792
1590 2 2 5 3001 5 720 737
1591 2 2 5 3001 546 16 843
1592 2 2 5 3001 536 303 831
1593 2 2 5 3001 210 679 741
1594 2 2 5 3001 540 231 831
1595 2 2 5 3001 303 540 831
1596 2 2 5 3001 301 597 721
1597 2 2 5 3001 163 595 715
1598 2 2 5 3001 338 640 771
1599 2 2 5 3001 672 302 690
1600 2 2 5 3001 307 672 690
1601 2 2 5 3001 252 599 725
1602 2 2 5 3001 316 611 707
1603 2 2 5 3001 664 466 774
1604 2 2 5 3001 251 677 716
1605 2 2 5 3001 595 324 715
1606 2 2 5 3001 175 560 832
1607 2 2 5 3001 323 612 711
1608 2 2 5 3001 557 303 776
1609 2 2 5 3001 177 674 782
1610 2 2 5 3001 508 291 772
1611 2 2 5 3001 179 558 807
1612 2 2 5 3001 339 539 736
1613 2 2 5 3001 321 489 845
1614 2 2 5 3001 577 265 698
1615 2 2 5 3001 675 312 777
1616 2 2 5 3001 656 188 742
1617 2 2 5 3001 634 145 773
1618 2 2 5 3001 264 583 699
1619 2 2 5 3001 590 285 805
1620 2 2 5 3001 212 675 777
1621 2 2 5 3001 300 600 601
1622 2 2 5 3001 186 664 774
1623 2 2 5 3001 287 549 769
1624 2 2 5 3001 805 285 809
1625 2 2 5 3001 671 367 795
1626 2 2 5 3001 370 613 746
1627 2 2 5 3001 613 283 746
1628 2 2 5 3001 617 443 777
1629 2 2 5 3001 508 310 720
1630 2 2 5 3001 151 598 830
1631 2 2 5 3001 292 632 790
1632 2 2 5 3001 173 597 797
1633 2 2 5 3001 679 356 741
1634 2 2 5 3001 324 595 728
1635 2 2 5 3001 666 406 701
1636 2 2 5 3001 181 588 703
1637 2 2 5 3001 265 577 763
1638 2 2 5 3001 221 556 826
1639 2 2 5 3001 422 719 726
1640 2 2 5 3001 583 264 767
1641 2 2 5 3001 597 301 797
1642 2 2 5 3001 283 627 746
1643 2 2 5 3001 178 690 748
1644 2 2 5 3001 756 445 812
1645 2 2 5 3001 674 335 782
1646 2 2 5 3001 255 440 807
1647 2 2 5 3001 603 284 679
1648 2 2 5 3001 620 178 770
1649 2 2 5 3001 657 400 722
1650 2 2 5 3001 246 717 820
1651 2 2 5 3001 717 359 820
1652 2 2 5 3001 187 591 822
1653 2 2 5 3001 620 299 827
1654 2 2 5 3001 263 539 849
1655 2 2 5 3001 606 232 842
1656 2 2 5 3001 386 547 839
1657 2 2 5 3001 598 326 830
1658 2 2 5 3001 468 202 844
1659 2 2 5 3001 304 606 842
1660 2 2 5 3001 677 378 716
1661 2 2 5 3001 289 614 835
1662 2 2 5 3001 151 590 805
1663 2 2 5 3001 178 620 827
1664 2 2 5 3001 690 302 748
1665 2 2 5 3001 468 315 702
1666 2 2 5 3001 728 363 803
1667 2 2 5 3001 186 637 819
1668 2 2 5 3001 185 731 739
1669 2 2 5 3001 731 366 739
1670 2 2 5 3001 719 195 726
1671 2 2 5 3001 376 805 809
1672 2 2 5 3001 754 284 755
1673 2 2 5 3001 649 322 678
1674 2 2 5 3001 736 350 846
1675 2 2 5 3001 637 186 833
1676 2 2 5 3001 190 692 793
1677 2 2 5 3001 691 189 794
1678 2 2 5 3001 705 215 813
1679 2 2 5 3001 658 288 847
1680 2 2 5 3001 720 371 737
1681 2 2 5 3001 290 657 722
1682 2 2 5 3001 315 468 844
1683 2 2 5 3001 318 693 729
1684 2 2 5 3001 694 319 730
1685 2 2 5 3001 324 728 803
1686 2 2 5 3001 339 736 846
1687 2 2 5 3001 312 617 777
1688 2 2 5 3001 86 754 755
1689 2 2 5 3001 325 705 813
1690 2 2 5 3001 176 769 835
1691 2 2 5 3001 299 778 827
1692 2 2 5 3001 655 321 845
1693 2 2 5 3001 298 756 812
1694 2 2 5 3001 398 751 829
1695 2 2 5 3001 285 808 809
1696 2 2 5 3001 751 244 829
1697 2 2 5 3001 778 444 827
1698 2 2 5 3001 706 144 839
1699 2 2 5 3001 678 322 791
1700 2 2 5 3001 808 360 809
$EndElements
