$MeshFormat
2.2 0 8
$EndMeshFormat
$PhysicalNames
6
1 1 "Left"
1 2 "Right"
1 3 "Bottom"
1 4 "Top"
1 6 "Airfoil"
2 5 "Fluid"
$EndPhysicalNames
$Nodes
860
1 0 0 0
2 40 0 0
3 40 10 0
4 0 10 0
5 16 5 0
6 8.075529599999999 4.867384 0
7 8.075529599999999 5.132616 0
8 1.999999999998205 0 0
9 3.999999999996757 0 0
10 5.999999999993141 0 0
11 7.999999999987307 0 0
12 9.999999999981473 0 0
13 11.99999999997564 0 0
14 13.9999999999698 0 0
15 15.99999999996411 0 0
16 17.9999999999666 0 0
17 19.99999999996964 0 0
18 21.99999999997269 0 0
19 23.99999999997573 0 0
20 25.99999999997878 0 0
21 27.99999999998182 0 0
22 29.99999999998487 0 0
23 31.99999999998791 0 0
24 33.99999999999093 0 0
25 35.99999999999396 0 0
26 37.99999999999698 0 0
27 40 1.999999999996827 0
28 40 3.999999999991027 0
29 40 5.999999999993932 0
30 40 7.999999999996978 0
31 37.99999999999999 10 0
32 35.99999999999999 10 0
33 33.99999999999999 10 0
34 31.99999999999998 10 0
35 29.99999999999998 10 0
36 27.99999999999998 10 0
37 25.99999999999997 10 0
38 23.99999999999996 10 0
39 21.99999999999996 10 0
40 19.99999999999996 10 0
41 17.99999999999995 10 0
42 15.99999999999995 10 0
43 13.99999999999995 10 0
44 11.99999999999994 10 0
45 9.999999999999936 10 0
46 7.999999999999929 10 0
47 5.99999999999995 10 0
48 3.999999999999964 10 0
49 1.999999999999986 10 0
50 0 7.999999999999996 0
51 0 5.999999999999991 0
52 0 3.999999999999988 0
53 0 1.999999999999982 0
54 15.90131620971455 4.98376418500795 0
55 15.80259672657279 4.967746830101699 0
56 15.70384926587159 4.951902785455311 0
57 15.60502146534572 4.936579707857725 0
58 15.50592740189001 4.923078099026878 0
59 15.40673454420567 4.910315908876969 0
60 15.30752621748228 4.897674496184472 0
61 15.20829540754689 4.885210947429585 0
62 15.10904181357987 4.872930181309874 0
63 15.00976667393459 4.860824721180844 0
64 14.91047150095579 4.848884706430963 0
65 14.8111568557898 4.837107778291651 0
66 14.71182214099909 4.825501382030819 0
67 14.6124679713519 4.814062613013101 0
68 14.51309564888798 4.80278274306633 0
69 14.41370479047423 4.791667294670656 0
70 14.31429563686446 4.780716705428651 0
71 14.21486850546401 4.769930617564305 0
72 14.11542380952093 4.759307656858017 0
73 14.0159628067818 4.748838450010301 0
74 13.91648433838245 4.738536535879723 0
75 13.8169884377107 4.728404384464612 0
76 13.71747547495155 4.718441176618165 0
77 13.61794632587478 4.708641020350977 0
78 13.51840084822309 4.699008095082138 0
79 13.41883840368554 4.689552218566744 0
80 13.31925885787516 4.680278136341514 0
81 13.21966342442723 4.671176222248534 0
82 13.12005143556942 4.662257571021303 0
83 13.02042234079639 4.653531704012274 0
84 12.92077584508723 4.645007021285966 0
85 12.82111330552365 4.636672064898841 0
86 12.72143391849166 4.62854102050379 0
87 12.62173746677389 4.620622009010353 0
88 12.52202379062537 4.612922900074139 0
89 12.42229340091133 4.605443246209772 0
90 12.32254572304944 4.598198256381551 0
91 12.22278037950633 4.591200503556411 0
92 12.12299804148934 4.584449397399123 0
93 12.02319882895681 4.57795256131936 0
94 11.92338256531317 4.571723287360939 0
95 11.82354893309919 4.565778850906312 0
96 11.72369849989916 4.560123679800943 0
97 11.6238314164367 4.554770664495095 0
98 11.52394790912108 4.54973351430735 0
99 11.42404825290448 4.545027467321415 0
100 11.32413284545183 4.540668732798533 0
101 11.22420230754274 4.536672072846273 0
102 11.12425743676332 4.533051580053096 0
103 11.02429916415671 4.529822438251374 0
104 10.9243284299607 4.527005789183242 0
105 10.82434640645172 4.524623173976811 0
106 10.7243545894762 4.522695628404967 0
107 10.62435471210261 4.521245999139875 0
108 10.52434882268647 4.520299126113468 0
109 10.42433934990807 4.51987739980084 0
110 10.32432910919189 4.520022490420984 0
111 10.22432139857304 4.520747863895783 0
112 10.12432018571988 4.522096705803807 0
113 10.02433007436259 4.524107832040332 0
114 9.924356604883348 4.526819013149074 0
115 9.824405911054406 4.530269838176483 0
116 9.724485576981909 4.534508499134042 0
117 9.624604991636986 4.539600320452212 0
118 9.524775402888757 4.545604491057128 0
119 9.425009395383924 4.552589123131929 0
120 9.325323116101279 4.560628281715356 0
121 9.225735912454136 4.569812430468894 0
122 9.126272919569619 4.580260502608405 0
123 9.026965785418664 4.592091557385697 0
124 8.927855398251081 4.605469334388832 0
125 8.828993848708476 4.620574905662952 0
126 8.730455678956337 4.637661231406571 0
127 8.632340681609886 4.657026361221181 0
128 8.534800816707934 4.679101411379106 0
129 8.438068199182117 4.704472766784286 0
130 8.342525760692816 4.733997311700747 0
131 8.248877662127846 4.769042674683346 0
132 8.158605486414002 4.811979851479066 0
133 8.022823917168365 4.925620190461991 0
134 8 5.000000000044303 0
135 8.022823917188225 5.074379809569555 0
136 8.158605487029389 5.188020148858881 0
137 8.248877663638241 5.230957325946054 0
138 8.342525763058219 5.266002689098187 0
139 8.438068201906951 5.295527233987968 0
140 8.534800820393949 5.320898589516344 0
141 8.632340686311503 5.342973639770826 0
142 8.730455684252858 5.362338769571974 0
143 8.828993854724747 5.379425095315287 0
144 8.927855405000562 5.394530666579958 0
145 9.026965792794586 5.407908443549398 0
146 9.12627292819062 5.419739498355495 0
147 9.225735921684752 5.430187570439309 0
148 9.325323125897912 5.439371719129863 0
149 9.425009100036771 5.447410854657202 0
150 9.524775414077803 5.454395509670048 0
151 9.624605003516784 5.46039968020656 0
152 9.724485589279904 5.465491501439439 0
153 9.824405924042106 5.469730162321529 0
154 9.924356618614809 5.473180987273678 0
155 10.02433008870216 5.475892168297309 0
156 10.12432020089242 5.477903294450535 0
157 10.22432141443113 5.47925213626695 0
158 10.32432912575116 5.479977509650968 0
159 10.42433936714331 5.480122600174078 0
160 10.52434884048044 5.479700873763992 0
161 10.62435473051115 5.478754000638924 0
162 10.72435460854724 5.477304371272123 0
163 10.8243464260885 5.475376825599154 0
164 10.92432845022522 5.472994210289002 0
165 11.02429918504337 5.470177561116629 0
166 11.1242574571219 5.466948419248674 0
167 11.22420232748921 5.463327926393044 0
168 11.32413286500435 5.459331266383321 0
169 11.42404827208777 5.454972531807969 0
170 11.5239479278398 5.450266484779498 0
171 11.62383143479168 5.445229334549464 0
172 11.72369851774396 5.439876319214875 0
173 11.823548950412 5.434221148087932 0
174 11.92338258210152 5.42827671161541 0
175 12.02319884544126 5.42204743762874 0
176 12.122998057606 5.415550601530871 0
177 12.22278039518467 5.408799495363366 0
178 12.32254573828434 5.401801742530999 0
179 12.42229341554004 5.394556752709458 0
180 12.52202380503075 5.387077098829636 0
181 12.62173748074606 5.379377989895412 0
182 12.7214339319711 5.371458978410795 0
183 12.82111331844519 5.363327934033308 0
184 12.92077585796304 5.354992977625046 0
185 13.02042235325447 5.34646829490956 0
186 13.12005144764779 5.337742427908498 0
187 13.21966343596948 5.328823776707155 0
188 13.31925886903521 5.31972186262893 0
189 13.41883841456728 5.310447780410037 0
190 13.51840085859767 5.300991903922741 0
191 13.617946335962 5.291358978664362 0
192 13.71747548463242 5.281558822420642 0
193 13.81698844693987 5.271595614603564 0
194 13.91648434715393 5.261463463219331 0
195 14.01596281519009 5.251161549111631 0
196 14.11542381743144 5.240692342303269 0
197 14.214868513042 5.230069381620031 0
198 14.31429564387189 5.219283293805229 0
199 14.41370479706472 5.208332704597758 0
200 14.51309565505721 5.197217256238527 0
201 14.6124679770278 5.18593738633815 0
202 14.71182214634558 5.174498617349166 0
203 14.81115686065952 5.162892221135143 0
204 14.91047150550257 5.151115293025882 0
205 15.00976667811291 5.139175278313275 0
206 15.10904181727953 5.12706981823569 0
207 15.20829541067788 5.114789052180096 0
208 15.30752622013819 5.102325503479328 0
209 15.40673454636278 5.089684090846339 0
210 15.50592740372005 5.076921900736789 0
211 15.60502146685316 5.063420291925403 0
212 15.703849266728 5.048097214406553 0
213 15.80259672746422 5.0322531697546 0
214 15.90131621027062 5.016235814901174 0
215 4.192436866489835 3.772474246735854 0
216 6.49394726475605 2.734372594842772 0
217 5.748285822573674 5.7316445403421 0
218 9.032747872897932 2.263756107765704 0
219 11.18148242439624 2.081690683994545 0
220 13.54872290956864 2.381944838936607 0
221 15.96274285036299 2.361967072185335 0
222 7.038007502344905 7.331984727260935 0
223 9.477777258285371 7.787690169355704 0
224 11.65358322938112 7.815093437684558 0
225 13.99764218369748 7.577924711330813 0
226 16.34949810434353 7.281176134255764 0
227 20.08338654520588 5.282628808200423 0
228 6.602739753287694 4.530550078568282 0
229 14.80511675977655 3.252709662103359 0
230 15.79953317528319 3.792341518418197 0
231 13.71041425798682 3.482054321286715 0
232 12.4097953693817 3.149631228562358 0
233 11.2161667634438 3.377180422183029 0
234 9.9889181503067 3.345035354982492 0
235 8.855011171702365 3.518894248881521 0
236 7.710323735408402 3.753137472483526 0
237 15.14348886552881 6.592978165230203 0
238 13.97679941467753 6.524954708153364 0
239 12.67527704788849 6.722348173305671 0
240 16.18254301668814 6.148284447847638 0
241 11.62018796515367 6.602497659787582 0
242 10.37248057399843 6.757778090461398 0
243 9.21702394373531 6.536021495715287 0
244 8.036568762557211 6.442848480480524 0
245 7.123291882964331 5.879004721274961 0
246 18.48377680692193 4.160246464253087 0
247 12.93579353348199 3.865429143835721 0
248 14.34711008948682 3.959013922389228 0
249 15.04993557911421 4.128518586446476 0
250 13.24080792707304 6.125725675743215 0
251 15.41386425216131 5.797643082890887 0
252 14.7301108318956 5.92951791456034 0
253 12.31647235998226 3.970120198267614 0
254 11.66181743683068 3.928630940503196 0
255 12.62629536215535 6.039703246928319 0
256 11.99158628081513 5.994095859430059 0
257 10.994374281548 6.183587699034089 0
258 10.37183176085749 6.107335308868736 0
259 9.723069173093847 6.042704030550773 0
260 10.60057548017145 3.783628125319633 0
261 9.958850046258563 3.896938901208091 0
262 9.300609234798035 3.975138713422488 0
263 8.77770273759262 4.052462189775284 0
264 8.173579309440477 4.119665185533431 0
265 15.95181229016882 5.573620303137883 0
266 17.25178104842036 5.328342576063107 0
267 11.50309880893713 5.949108254794187 0
268 11.19289911424731 4.019491379593463 0
269 9.222394444625213 5.970039098445226 0
270 8.687385600791758 5.903409105517139 0
271 14.18849130971816 5.798577354655979 0
272 13.72379462501672 5.818957386109389 0
273 15.53478771077533 4.33793394210016 0
274 16.01597157883955 4.462566493220995 0
275 25.43505143265273 5.000000000001199 0
276 13.83520982267326 4.130340661210235 0
277 33.27942680139395 4.82307771483961 0
278 8.224103805149438 5.760592654317484 0
279 7.881272793904334 5.51388109063325 0
280 7.57247509058704 5.171880471913686 0
281 13.37612580710856 4.247851675254867 0
282 7.555472356827387 4.426685849975936 0
283 15.14185284857921 5.584154188065395 0
284 14.59951517450042 4.3459033145995 0
285 18.50752389294217 7.030390041937525 0
286 15.60449819629569 5.42211627728764 0
287 2.898190073878647 6.380922518087917 0
288 15.19238077775734 4.548391410913056 0
289 14.87396420868152 4.524060093504669 0
290 12.90308700499093 5.743492985754359 0
291 13.32037705745835 5.750682544796196 0
292 14.10299439740947 4.399700100942208 0
293 14.50757024163399 5.532805130930727 0
294 14.82334531176238 5.481965778993173 0
295 12.601493676831 4.233244189699539 0
296 12.29908870984381 5.782044898802733 0
297 9.654606091217657 4.145929475733833 0
298 11.99685297726913 4.197282083704227 0
299 10.2595587454407 4.114592653535154 0
300 10.06654891721996 5.86351985680596 0
301 12.59548553633085 5.688942232921363 0
302 10.67995077034865 5.864065377166135 0
303 13.11811654132841 4.350729441267007 0
304 12.32623323105703 4.259939245320471 0
305 9.963415028681357 4.195521404551165 0
306 10.57730490351508 4.208871181905654 0
307 10.88961201926487 4.211415466326846 0
308 11.19175079566915 5.805258777795948 0
309 29.18575590765668 5.896981295350224 0
310 7.645089512825177 4.862380792280517 0
311 11.78714466954655 5.785517011078737 0
312 9.138373426605522 4.216691912761384 0
313 15.73467433086768 4.661082186243625 0
314 11.47950318865124 4.187716802129314 0
315 36.59178477097703 3.812057196168223 0
316 9.548019708073159 5.81106354462528 0
317 22.70433891286545 3.196069756151247 0
318 13.98570239541014 5.555423706953466 0
319 8.620519466979081 4.338896868693879 0
320 16.74256383562325 4.789503554284446 0
321 9.03394339448556 5.716987119505575 0
322 8.03316655327777 4.474634679596278 0
323 14.38584375730673 4.519440578625571 0
324 16.49730864855979 5.339333595411434 0
325 23.12986174769756 7.044324109450098 0
326 15.29004548082224 5.364403260168921 0
327 16.01365229022478 5.302569371494627 0
328 16.70206744357695 3.913098287448344 0
329 13.5927953888373 4.449385853869157 0
330 8.513612537719364 5.624013069516998 0
331 10.37338285532887 5.805069385470336 0
332 36.80907706943718 6.863061550421193 0
333 13.46321076687077 5.549292784121242 0
334 13.09136015844938 5.583283809893802 0
335 5.250122809818683 7.902622088748273 0
336 15.38028673359231 4.680304481178931 0
337 27.874737513147 3.319942840131752 0
338 12.79093221371974 4.391609535015144 0
339 13.89017524458649 4.503305113582257 0
340 14.29274341529162 5.448272594515873 0
341 12.08864463318655 5.6576070576399 0
342 9.44179811838416 4.308771860515209 0
343 11.78717565655082 4.323671664498776 0
344 10.88013014125737 5.717265539610068 0
345 9.849922317494361 5.710339447967647 0
346 8.946194983457129 4.367516983260422 0
347 7.818093419846228 5.289648771460776 0
348 14.95474338685932 5.350778976114771 0
349 14.71499846477874 4.619110991019899 0
350 11.58520637387181 5.672150773975518 0
351 13.78851578815201 5.489160981868261 0
352 11.27817668257461 4.30699317675829 0
353 17.78022205845109 2.374050581895957 0
354 13.29041875177792 4.457653455567613 0
355 9.356664261420452 5.672815842375843 0
356 8.414413784484752 4.469371972694297 0
357 8.302646049065961 5.50476620517828 0
358 8.115836698459418 5.432907520231606 0
359 11.36563603133127 5.655208261493629 0
360 11.04741227455603 4.333627214065937 0
361 8.830973990376116 5.598772569923884 0
362 15.9284860750001 4.744373304412414 0
363 15.78981089845833 5.23809624627084 0
364 20.03421077952293 2.30411156720545 0
365 30.90544742119062 2.915070448627219 0
366 4.818148057168783 1.644710384210749 0
367 2.467665651886659 2.342013304379156 0
368 17.2121467136786 6.623567833730588 0
369 2.230001579409291 4.663386161221595 0
370 16.21986003981058 4.743186939455166 0
371 20.92117842582752 8.103847579069345 0
372 7.841466191512932 5.079597959210239 0
373 15.08786071166563 1.959519439864127 0
374 26.63486231549873 7.364007432496543 0
375 15.19989359765815 7.775113904713209 0
376 5.692293492220973 3.550891653687157 0
377 12.764983874816 5.587255598611327 0
378 13.05394420428315 3.097845042975327 0
379 12.48728490585054 4.407495558347131 0
380 31.70644561753439 7.398231268082683 0
381 7.849714480868458 4.704010861395825 0
382 15.48072987340549 5.272941014370773 0
383 10.15516039036228 4.323473766243707 0
384 10.37404933896187 4.323576283819625 0
385 9.765712759838813 4.326521630442522 0
386 12.41194916165483 5.612714097937484 0
387 12.10592315022633 4.369061702463943 0
388 18.83662278769228 5.685047625151897 0
389 10.57627506068248 5.682357974675961 0
390 24.91557966219594 2.787441192186016 0
391 10.17157539584071 5.682118642415183 0
392 14.19263777469164 4.556784255923698 0
393 15.09662689146009 4.69806613591708 0
394 13.39219821589033 6.835567619048356 0
395 12.85844228824328 7.888952223456163 0
396 34.26984241226026 7.378839126487994 0
397 14.56580987115798 5.364494822284346 0
398 13.2854984811819 5.530127052162053 0
399 33.9676299299548 2.487858259210862 0
400 4.117782482384 5.681178418786676 0
401 7.155340844691836 4.821765774797941 0
402 12.39486527403191 2.031161366331388 0
403 9.261305481438724 4.357901947104258 0
404 11.08020967464521 5.652168380544111 0
405 11.89169341557632 5.633186536637672 0
406 8.064550162213981 2.804816074294933 0
407 11.58961546003241 4.34841051739314 0
408 9.668166427797471 5.668379004478439 0
409 11.04395383210815 6.861161568039433 0
410 10.58280384418498 7.848029519016059 0
411 10.0034803580865 1.962423363362305 0
412 12.96372613350015 4.456608478313193 0
413 8.822256367674346 7.198889777110015 0
414 14.11069827439038 5.4272037760176 0
415 10.60014979243006 3.097775613786294 0
416 10.6519861828457 4.3656593202201 0
417 15.55941499511423 4.743359824719736 0
418 8.774431158144999 4.4341793143124 0
419 7.822610200463405 5.910398829536121 0
420 9.182782816694775 5.615509953715693 0
421 22.40213726047486 5.177139256561077 0
422 14.47974515296628 4.651073744345039 0
423 8.031006619234748 5.285535052757647 0
424 5.508089076305223 4.65629467569073 0
425 15.17630412733895 5.263460289106964 0
426 8.245594055158058 4.545153962642317 0
427 8.650653246115107 5.508427928076328 0
428 6.49308204134097 6.38636502894188 0
429 7.957783949556426 5.172355518599644 0
430 13.48210468170126 4.552293836179627 0
431 6.543797274064301 5.378993375821362 0
432 13.67216038700399 4.58958572185457 0
433 7.510609370272712 1.125547484446149 0
434 2.953164352140967 8.289349989993726 0
435 14.38124931296081 6.18760921067972 0
436 14.4806319554719 6.801278076084668 0
437 7.831347142090265 8.496290132788861 0
438 14.77849415958218 5.314231778893971 0
439 17.48987931088593 7.836640200764563 0
440 14.87807287342043 4.697453945217442 0
441 13.57179111177133 5.422097743028587 0
442 12.58336919135735 5.532019489800803 0
443 15.3018893247072 3.536709232592534 0
444 12.28311587132727 4.445675942120344 0
445 9.970212415846138 4.373137640746878 0
446 10.37411522702391 5.631019152890039 0
447 12.98201025392678 5.47132867771619 0
448 38.11723758379011 5.12847619710544 0
449 6.745250023267862 3.536660554358729 0
450 12.68240015287341 4.488432790371066 0
451 19.87407442792032 3.856791183536262 0
452 9.566322259430638 4.403471150594204 0
453 11.75075208423988 3.381684222020827 0
454 35.05453359199137 5.526607996595652 0
455 12.18049748928021 5.536529260317174 0
456 11.88007824870905 4.444194141194231 0
457 10.77699787715591 5.613672919842529 0
458 13.97791523091716 4.622494643939475 0
459 10.87781790121067 4.379762474258277 0
460 9.970601004131627 5.612533880518417 0
461 14.37590603120083 5.329948373637211 0
462 15.27321600243929 4.775690099595691 0
463 24.83724813010987 8.31801095241183 0
464 15.70953541847337 6.427282582228955 0
465 37.85376958019508 2.148284599006691 0
466 16.78682876214889 5.947584283425789 0
467 9.06109909963207 4.463543798938266 0
468 15.05760701583518 5.908244995597665 0
469 31.25290024042577 4.898879281959861 0
470 4.755172344783821 6.646404138309841 0
471 8.450881977400169 3.75527181968347 0
472 11.67929714878037 5.562387394986483 0
473 9.359144720913021 3.3166045543217 0
474 8.89626416514297 6.264600630133002 0
475 11.37813353398105 4.422405672944615 0
476 9.46547140272429 5.572706145739754 0
477 16.50253888408022 4.373087506787228 0
478 13.18400329451337 4.54928675500126 0
479 12.34051261304524 6.511529376178622 0
480 12.16546999428778 7.0230159695324 0
481 16.26445684714255 5.146507489594395 0
482 13.87935100881282 5.390402752596429 0
483 28.73440808994704 7.926378849483935 0
484 17.01363661573977 1.445841798008474 0
485 8.25214041316627 5.362350449893851 0
486 15.9728304239727 5.14288468468207 0
487 6.257829606794809 1.622355730184863 0
488 15.62157954344094 5.243349421891877 0
489 27.45907284518034 5.120988600185721 0
490 8.452974874907692 5.435783479425042 0
491 9.780633843702823 6.698593901157975 0
492 7.177079432000169 5.361591602742892 0
493 8.960220823095147 5.528571457384684 0
494 14.67251172601001 4.067293034557681 0
495 10.92345236333402 3.925243248800101 0
496 7.888301908758594 4.899517255529146 0
497 10.53062005209676 4.356827814849159 0
498 8.036888156760369 4.719456748040623 0
499 15.37170632774752 5.210395102952307 0
500 13.19536954925068 4.034881077025055 0
501 13.18035182462056 5.450494361554604 0
502 13.37996042552961 5.432249025908371 0
503 14.08755291204581 3.040931096369897 0
504 11.21838186266113 5.638874366931848 0
505 11.47768242625853 5.561613671883565 0
506 14.27692030782118 4.661588682441294 0
507 11.17667703510599 4.421298546103182 0
508 8.554187206484476 4.538231031457274 0
509 10.27086530821505 4.42494092942464 0
510 15.99766741137713 4.873912962701624 0
511 15.7787394217402 4.839949740016999 0
512 1.405638324547572 7.216022859881132 0
513 15.2496817902699 2.83631120676184 0
514 16.17296593991527 8.55418228280471 0
515 17.53835945269896 4.608735906788771 0
516 15.59588999935062 6.988149466149531 0
517 9.365981345056383 4.442714995470253 0
518 15.39792848552745 4.004432216849111 0
519 10.97733705902052 5.579616548031443 0
520 12.90291119538647 4.14602077998873 0
521 11.98018868038536 5.535693294396308 0
522 9.769654752373821 5.580551868103504 0
523 11.67969970040303 4.446727257434526 0
524 9.635662748520138 3.81604511301307 0
525 16.40910612650879 3.223826162877852 0
526 21.67458487194783 1.747358649467301 0
527 12.00285441649251 3.899204102807086 0
528 6.507968026497299 8.178424530044122 0
529 29.12475732796738 1.936098934390119 0
530 12.87987942247785 4.534004003893642 0
531 26.79841171608042 1.769111843738895 0
532 10.02577414072208 6.211751363324252 0
533 14.17771399042595 5.336004309890557 0
534 15.46709755244014 4.816348492769594 0
535 3.750108801816828 2.650489857082467 0
536 13.64414628275537 6.188380802903271 0
537 13.98036522027842 6.045967224724995 0
538 11.91873518620576 2.682861218414827 0
539 8.86357358610983 4.507697296534081 0
540 35.75234111947368 1.904322126575455 0
541 9.26711889193701 5.53871688351079 0
542 18.61714485442754 1.505423607541946 0
543 15.82015769917945 4.163747756444133 0
544 13.58210546650683 3.930869023018326 0
545 14.88148137534029 5.245945369023594 0
546 14.66097646155179 5.28251310199699 0
547 14.762024268352 4.739699505411206 0
548 14.98501176152596 4.755625846426222 0
549 14.59189982355183 4.688964767540351 0
550 11.2941985877381 8.918951675441178 0
551 8.159652861921966 5.302181932287931 0
552 15.05811206419452 5.253175749376567 0
553 13.31148818403813 1.097445283980951 0
554 8.356343191735144 4.608055085213196 0
555 12.68688639562691 5.469864260079326 0
556 12.47149123673517 5.486312055477545 0
557 38.15850852272763 8.158508522727404 0
558 12.39332209322856 4.511873353198926 0
559 12.17100614326856 4.492559423791334 0
560 9.856738024819391 4.43650804406559 0
561 14.7656446392159 8.827168993218041 0
562 10.08453218992785 4.431343067488852 0
563 14.33589391411095 4.265436010582186 0
564 14.1024831527416 4.133510164507774 0
565 14.04437304631447 3.743764900501392 0
566 10.25923803004103 5.571367199509455 0
567 10.48911398480775 5.571634393096321 0
568 17.94025530167587 5.999192616209966 0
569 13.57668152632809 4.599782905467293 0
570 13.78709631615342 4.602434116497799 0
571 13.36979655295424 4.56352932736346 0
572 16.30595755499286 5.726826714499689 0
573 8.771683516420676 5.469554101638912 0
574 15.80223886414838 5.927857044168228 0
575 10.7565061607003 4.424166747345703 0
576 10.98645418979229 4.438949963136404 0
577 13.2550382963921 3.576322297866681 0
578 13.68749797970496 5.404956932607316 0
579 10.70602092127579 1.076712479200529 0
580 16.07606506225766 6.64912943265453 0
581 7.565803803294251 5.52106758126028 0
582 12.87894120440142 5.454777401944304 0
583 14.48561109570194 5.298476751156118 0
584 12.5643806845723 4.527694417213432 0
585 14.07559262293946 4.66002621783545 0
586 9.684430779304007 4.446878291476871 0
587 23.39133441519784 1.574368397320405 0
588 15.15928296234578 4.780822886158835 0
589 12.27935578625202 5.500717172651958 0
590 11.97925377193251 4.479287166724247 0
591 7.868135488738509 4.193530796897292 0
592 11.43972137063643 3.677702214159766 0
593 15.85260585081978 5.113381301132991 0
594 10.66123815190847 5.566817946936322 0
595 23.87771489229538 4.388646423174389 0
596 13.65333136852772 5.582133580724024 0
597 10.08696015706689 5.566019564177846 0
598 12.91977977335141 6.055735985498607 0
599 9.064224431672374 1.208903025624575 0
600 8.358707318319603 5.373377660213134 0
601 1.532421202864819 5.756960765564009 0
602 12.6212540075981 3.885541575063332 0
603 13.99694150967415 5.367545895342481 0
604 13.06392264745813 4.540722585354854 0
605 9.165955241846955 4.479370881049305 0
606 11.77893431057906 5.530814837177592 0
607 15.27077551334496 5.211074641577524 0
608 11.47842150264184 4.453480387103115 0
609 10.70509354863266 6.231462673638412 0
610 9.568967203473509 5.552552332526166 0
611 8.562076846811221 5.426908163990479 0
612 15.41050196876366 5.578539743419441 0
613 14.37386950348908 4.69659885341395 0
614 8.164554482262304 4.66459928829341 0
615 32.39227172350515 1.67556550641469 0
616 10.27651502314769 3.760100181899932 0
617 9.56051379208078 2.710770712580252 0
618 13.47044031546734 5.403015847478196 0
619 13.27694660726735 5.412283215792222 0
620 14.96665863191114 5.229958583614996 0
621 13.07816652189355 5.432643184537983 0
622 9.06547118664465 8.92857808067799 0
623 14.67384626782033 4.734021562442541 0
624 14.17508860408744 4.681527486124553 0
625 18.51573519249622 8.647277113908697 0
626 14.27510551876646 5.312715590693781 0
627 9.08304643691114 5.531499339550661 0
628 13.87773191355004 4.639034958872773 0
629 13.77796574164841 5.367535020819242 0
630 5.629575276105616 2.514596730594249 0
631 11.37805926830137 5.54812652597086 0
632 8.499419049481199 4.068174398560807 0
633 11.5784753646765 5.538679113800645 0
634 13.27662817630958 4.584384779304476 0
635 11.27724595452609 4.446892272086054 0
636 10.37364999454609 4.446392057798123 0
637 21.40026652243726 6.434582976388648 0
638 12.77467174505212 5.449336834615812 0
639 9.468543282827694 4.458408281411931 0
640 12.77915180261726 4.535851882936497 0
641 12.47786097503762 4.533085895008679 0
642 12.38152706769328 5.479220364261488 0
643 12.0789114727554 5.508094013402864 0
644 7.341287047887316 3.074973438365872 0
645 12.08047598717471 4.500662050339602 0
646 11.77868688375928 4.473553538058176 0
647 15.76704275734575 5.126306370236563 0
648 10.8766279907495 5.571785208674439 0
649 9.770715161715147 4.44444605790985 0
650 15.36697221003194 4.816066695721132 0
651 9.871261595428278 5.561814772203954 0
652 10.57506615367805 5.555853037822304 0
653 11.07333222967394 4.449163204471991 0
654 10.17183989455962 4.444520466571357 0
655 8.679717355184664 4.526349093587751 0
656 8.965137770573754 4.50726379410146 0
657 10.17313692001701 5.56634946125562 0
658 9.367917356403288 5.534204289082691 0
659 15.65790031451626 4.831272613668656 0
660 35.74759555960213 8.356539791864801 0
661 15.88176116888095 4.881949404448137 0
662 32.83994909698505 8.457964228877023 0
663 8.864816926207293 5.476036325378146 0
664 8.945922680156475 5.954343000284704 0
665 24.91173784130151 6.562272633563345 0
666 15.27347395458795 4.297338947285155 0
667 13.09508238426462 5.851784200337235 0
668 29.28732228384046 4.126097492522102 0
669 21.09792454654875 3.119321880563539 0
670 12.74317271143947 3.520418656521033 0
671 26.39798531625593 3.603870560845675 0
672 14.89927623864486 5.679489832931024 0
673 14.47588775431535 5.796610732426567 0
674 8.462239188381851 4.599538308681729 0
675 1.326504048669539 3.308933931005385 0
676 18.72430827666215 2.991188491950473 0
677 13.75018670764696 4.428354869706522 0
678 9.050661685753072 3.965751664913249 0
679 22.40202694174802 8.4598890152424 0
680 19.91398136776872 6.760613028930582 0
681 8.708720623041465 5.687349718892798 0
682 15.7691947508662 1.355621751972405 0
683 11.34003753700137 6.292803853720091 0
684 11.70154077287241 6.169016339077964 0
685 10.96624108602317 5.932173119819657 0
686 15.56084133735274 4.553243417846499 0
687 3.313492997382318 1.293666134601492 0
688 3.493445934695647 4.669252123115151 0
689 14.1831790835497 5.571177057790603 0
690 14.83229359425001 4.31856229573647 0
691 13.00392336253283 6.467526822595596 0
692 14.68849704165795 5.634774657570565 0
693 17.52642808299651 3.687413527184277 0
694 9.458121956066607 6.148349741225549 0
695 4.857776527730792 3.028796456139676 0
696 13.48086133208663 5.951356616551118 0
697 9.973858330749577 7.275908093615457 0
698 32.70763936307619 3.434370496198309 0
699 15.03312031724992 4.410301709698878 0
700 13.95599636342331 6.948295685073463 0
701 8.814909946125676 4.274045554732727 0
702 10.80811358935034 3.559123169397291 0
703 14.8039255429427 6.29686670728915 0
704 21.20241374048723 4.492278246457435 0
705 9.198946229306499 5.743838003510583 0
706 8.87132291841092 2.975824741308785 0
707 15.46769599363788 5.17163647608204 0
708 7.416218532989501 6.490945315426286 0
709 12.31096674768646 6.086693785855692 0
710 38.55599372855163 6.706899764295017 0
711 15.66326127744468 5.623012825477215 0
712 1.40987694960635 1.399973564770062 0
713 11.97651705854678 5.781841212429196 0
714 12.93785931049379 4.326160785142116 0
715 15.07194602056926 4.793653954198571 0
716 15.740681090008 3.238539690847004 0
717 16.15409402086976 4.947047584559209 0
718 13.61908308609895 4.238237380349211 0
719 14.56759221209935 5.265727863602827 0
720 30.67303023800959 8.46586385417627 0
721 11.66408908722794 4.196887181659282 0
722 9.322147440873561 4.194625989751628 0
723 11.51845653551476 7.155194278526515 0
724 12.13336068601575 5.860456562831517 0
725 9.192133920790791 3.673175384377691 0
726 17.04764585681594 4.336268263579369 0
727 14.93194491428909 7.150310434959335 0
728 10.71643209347926 4.067363753616204 0
729 15.79665209313025 5.438300501959214 0
730 11.82255791487422 4.109135194634513 0
731 12.25944464773006 3.599640647242053 0
732 13.29511286223685 8.801382714882767 0
733 16.20598867583056 5.433899906441053 0
734 10.47855578646735 3.988607786415138 0
735 9.734497529677737 5.826885484111373 0
736 8.397234703576473 6.08571663610392 0
737 9.268860219379494 4.482085707161613 0
738 7.974651612711156 4.823197811085517 0
739 16.19320390648943 4.090931381698218 0
740 30.88449529452718 1.305346977886406 0
741 11.91877136074354 1.257401962701483 0
742 15.56632164324694 5.1497833799818 0
743 11.07663278206029 5.542437973926766 0
744 13.96117087798251 5.798374307553105 0
745 38.51318187553141 3.542152688675724 0
746 15.76100380505528 4.413598838045944 0
747 9.671175795288299 5.545474877350821 0
748 9.454309948829485 7.099420687390887 0
749 32.72013136106193 6.397892175219023 0
750 10.41841965448799 3.470388888295321 0
751 4.574957779896943 4.689432492687758 0
752 34.77659199776789 3.820289387524797 0
753 11.87954958781086 5.512438505582982 0
754 15.67560426267885 5.144842154118839 0
755 9.470303645725181 4.095680311763689 0
756 11.57910319772701 4.470624468146645 0
757 14.5161182927643 3.654607405425124 0
758 8.641954024751692 7.947833540496855 0
759 10.83180933223855 6.536083785358253 0
760 14.25899608974598 4.434978081701857 0
761 16.37480520894061 4.975426353348483 0
762 19.1648400626716 4.71560120625576 0
763 11.06631049079537 4.159354097108928 0
764 11.98138173136065 6.39208829895782 0
765 14.58775447572525 4.546531805595839 0
766 9.879962415641598 5.931040036552001 0
767 12.66521258869423 2.668688739044101 0
768 16.09193048082096 5.104629591386768 0
769 11.75207208076215 5.640751666348025 0
770 2.976225073369651 3.543566289631548 0
771 16.52141633182336 6.529948426382862 0
772 11.46200414079062 4.336369167176766 0
773 10.08405017537061 8.696649888898188 0
774 7.016983668928201 4.147199432861163 0
775 14.45327967404918 5.400213645958511 0
776 15.21416645749774 4.689518405809524 0
777 13.52831502999204 5.730484582460393 0
778 12.17493907219723 8.576431720257094 0
779 10.58024065188803 4.442132335952987 0
780 11.1743955500171 5.54512457870887 0
781 26.95869005287148 8.832612634318371 0
782 9.58010251080551 6.38192053679118 0
783 11.41055229712219 3.935007066816393 0
784 11.27978730595945 5.547891763785685 0
785 11.11082723544005 2.790644199926986 0
786 11.22729280613324 5.999992369466618 0
787 12.96974527786395 4.565974758571985 0
788 14.06429692515834 4.545460263900085 0
789 6.241027209390555 4.100859166640031 0
790 15.0955735064355 5.388859236678567 0
791 14.95725002798329 3.774045022995714 0
792 10.47466686645358 4.443543185524526 0
793 11.16515091635568 3.748957916825007 0
794 8.034791066200448 7.162157341935398 0
795 19.61831984914987 8.08521286421678 0
796 8.373545404111386 3.3020874241524 0
797 13.83015013831182 5.651449462843982 0
798 8.064680352171619 5.624135149482488 0
799 15.32177665984829 6.158478762900847 0
800 9.534209867679857 5.662974264091722 0
801 36.61858473538569 5.374307745574921 0
802 9.126725766487276 4.369663403527356 0
803 12.97803509434359 7.251835211799092 0
804 14.72170518358719 4.470833700091275 0
805 10.74494321016931 4.276206490612131 0
806 15.38835410281314 4.48344243986476 0
807 11.08960825909892 7.425589841396647 0
808 10.66748845940257 4.455180006212727 0
809 14.70351818889701 1.002094397859813 0
810 13.93620986501156 4.319042181989799 0
811 17.23571608865947 9.007619919495594 0
812 14.97422250770269 5.502801989608641 0
813 14.0833480814224 5.324521574533107 0
814 15.55907234586127 4.850127747608518 0
815 1.213579587370826 8.767016916423941 0
816 18.2026059100135 5.082861065787097 0
817 7.31082265852163 2.23265784445532 0
818 14.33826002293821 5.626407856810093 0
819 8.775434325420861 4.545292368300751 0
820 11.37459696318852 5.816343687505181 0
821 8.271579030395234 4.664169664506603 0
822 4.940857501188731 5.480990853163421 0
823 14.47191676170079 2.511899359229538 0
824 8.846985967037334 5.780730479569054 0
825 12.67468038105577 6.354360446201214 0
826 3.831272018353221 7.080308402214584 0
827 16.93842714681183 2.618619828430379 0
828 8.600097853211171 6.694153683226176 0
829 9.17699139908366 5.50713064911439 0
830 23.84149395056308 5.681356131081916 0
831 10.33733953272665 2.669088892910103 0
832 25.01504654191189 1.167116722282182 0
833 13.43074218264841 4.412720019669315 0
834 30.66489543384829 6.494451310985897 0
835 16.20450056123038 3.664786999803807 0
836 8.950531573971006 4.176213868370102 0
837 1.01778536618873 4.745856171558194 0
838 8.19668084570398 2.006094979374512 0
839 4.965110748528753 3.939577904988235 0
840 12.48611863119055 5.859115544465477 0
841 6.128787827124289 4.879668367412502 0
842 26.38903082723416 6.031301609732722 0
843 13.57928690966025 3.122153845092969 0
844 15.00986280501588 4.605649856946224 0
845 14.67078218122438 5.435130878444962 0
846 12.27417434443468 5.614700325799656 0
847 8.259292717208814 4.375334631887074 0
848 8.420269801903499 4.269524069845987 0
849 38.88461143741175 1.115388562585487 0
850 27.85408699950148 6.469181284265698 0
851 15.44115417574091 5.416332104892938 0
852 36.99999999999547 1.007016796902392 0
853 11.97320906675234 4.36533709321843 0
854 37.00772975598067 8.987021542119036 0
855 12.71595836380585 5.829040932363242 0
856 12.1743154608553 4.125527314831215 0
857 5.625018112588157 6.684841630944693 0
858 6.182839698518002 7.296847601187981 0
859 14.22470135117404 1.790580663974207 0
860 12.9240764993169 5.568027694783996 0
$EndNodes
$Elements
1720
1 1 2 3 1 1 8
2 1 2 3 1 8 9
3 1 2 3 1 9 10
4 1 2 3 1 10 11
5 1 2 3 1 11 12
6 1 2 3 1 12 13
7 1 2 3 1 13 14
8 1 2 3 1 14 15
9 1 2 3 1 15 16
10 1 2 3 1 16 17
11 1 2 3 1 17 18
12 1 2 3 1 18 19
13 1 2 3 1 19 20
14 1 2 3 1 20 21
15 1 2 3 1 21 22
16 1 2 3 1 22 23
17 1 2 3 1 23 24
18 1 2 3 1 24 25
19 1 2 3 1 25 26
20 1 2 3 1 26 2
21 1 2 2 2 2 27
22 1 2 2 2 27 28
23 1 2 2 2 28 29
24 1 2 2 2 29 30
25 1 2 2 2 30 3
26 1 2 4 3 3 31
27 1 2 4 3 31 32
28 1 2 4 3 32 33
29 1 2 4 3 33 34
30 1 2 4 3 34 35
31 1 2 4 3 35 36
32 1 2 4 3 36 37
33 1 2 4 3 37 38
34 1 2 4 3 38 39
35 1 2 4 3 39 40
36 1 2 4 3 40 41
37 1 2 4 3 41 42
38 1 2 4 3 42 43
39 1 2 4 3 43 44
40 1 2 4 3 44 45
41 1 2 4 3 45 46
42 1 2 4 3 46 47
43 1 2 4 3 47 48
44 1 2 4 3 48 49
45 1 2 4 3 49 4
46 1 2 1 4 4 50
47 1 2 1 4 50 51
48 1 2 1 4 51 52
49 1 2 1 4 52 53
50 1 2 1 4 53 1
51 1 2 6 1001 5 54
52 1 2 6 1001 54 55
53 1 2 6 1001 55 56
54 1 2 6 1001 56 57
55 1 2 6 1001 57 58
56 1 2 6 1001 58 59
57 1 2 6 1001 59 60
58 1 2 6 1001 60 61
59 1 2 6 1001 61 62
60 1 2 6 1001 62 63
61 1 2 6 1001 63 64
62 1 2 6 1001 64 65
63 1 2 6 1001 65 66
64 1 2 6 1001 66 67
65 1 2 6 1001 67 68
66 1 2 6 1001 68 69
67 1 2 6 1001 69 70
68 1 2 6 1001 70 71
69 1 2 6 1001 71 72
70 1 2 6 1001 72 73
71 1 2 6 1001 73 74
72 1 2 6 1001 74 75
73 1 2 6 1001 75 76
74 1 2 6 1001 76 77
75 1 2 6 1001 77 78
76 1 2 6 1001 78 79
77 1 2 6 1001 79 80
78 1 2 6 1001 80 81
79 1 2 6 1001 81 82
80 1 2 6 1001 82 83
81 1 2 6 1001 83 84
82 1 2 6 1001 84 85
83 1 2 6 1001 85 86
84 1 2 6 1001 86 87
85 1 2 6 1001 87 88
86 1 2 6 1001 88 89
87 1 2 6 1001 89 90
88 1 2 6 1001 90 91
89 1 2 6 1001 91 92
90 1 2 6 1001 92 93
91 1 2 6 1001 93 94
92 1 2 6 1001 94 95
93 1 2 6 1001 95 96
94 1 2 6 1001 96 97
95 1 2 6 1001 97 98
96 1 2 6 1001 98 99
97 1 2 6 1001 99 100
98 1 2 6 1001 100 101
99 1 2 6 1001 101 102
100 1 2 6 1001 102 103
101 1 2 6 1001 103 104
102 1 2 6 1001 104 105
103 1 2 6 1001 105 106
104 1 2 6 1001 106 107
105 1 2 6 1001 107 108
106 1 2 6 1001 108 109
107 1 2 6 1001 109 110
108 1 2 6 1001 110 111
109 1 2 6 1001 111 112
110 1 2 6 1001 112 113
111 1 2 6 1001 113 114
112 1 2 6 1001 114 115
113 1 2 6 1001 115 116
114 1 2 6 1001 116 117
115 1 2 6 1001 117 118
116 1 2 6 1001 118 119
117 1 2 6 1001 119 120
118 1 2 6 1001 120 121
119 1 2 6 1001 121 122
120 1 2 6 1001 122 123
121 1 2 6 1001 123 124
122 1 2 6 1001 124 125
123 1 2 6 1001 125 126
124 1 2 6 1001 126 127
125 1 2 6 1001 127 128
126 1 2 6 1001 128 129
127 1 2 6 1001 129 130
128 1 2 6 1001 130 131
129 1 2 6 1001 131 132
130 1 2 6 1001 132 6
131 1 2 6 1002 6 133
132 1 2 6 1002 133 134
133 1 2 6 1002 134 135
134 1 2 6 1002 135 7
135 1 2 6 1003 7 136
136 1 2 6 1003 136 137
137 1 2 6 1003 137 138
138 1 2 6 1003 138 139
139 1 2 6 1003 139 140
140 1 2 6 1003 140 141
141 1 2 6 1003 141 142
142 1 2 6 1003 142 143
143 1 2 6 1003 143 144
144 1 2 6 1003 144 145
145 1 2 6 1003 145 146
146 1 2 6 1003 146 147
147 1 2 6 1003 147 148
148 1 2 6 1003 148 149
149 1 2 6 1003 149 150
150 1 2 6 1003 150 151
151 1 2 6 1003 151 152
152 1 2 6 1003 152 153
153 1 2 6 1003 153 154
154 1 2 6 1003 154 155
155 1 2 6 1003 155 156
156 1 2 6 1003 156 157
157 1 2 6 1003 157 158
158 1 2 6 1003 158 159
159 1 2 6 1003 159 160
160 1 2 6 1003 160 161
161 1 2 6 1003 161 162
162 1 2 6 1003 162 163
163 1 2 6 1003 163 164
164 1 2 6 1003 164 165
165 1 2 6 1003 165 166
166 1 2 6 1003 166 167
167 1 2 6 1003 167 168
168 1 2 6 1003 168 169
169 1 2 6 1003 169 170
170 1 2 6 1003 170 171
171 1 2 6 1003 171 172
172 1 2 6 1003 172 173
173 1 2 6 1003 173 174
174 1 2 6 1003 174 175
175 1 2 6 1003 175 176
176 1 2 6 1003 176 177
177 1 2 6 1003 177 178
178 1 2 6 1003 178 179
179 1 2 6 1003 179 180
180 1 2 6 1003 180 181
181 1 2 6 1003 181 182
182 1 2 6 1003 182 183
183 1 2 6 1003 183 184
184 1 2 6 1003 184 185
185 1 2 6 1003 185 186
186 1 2 6 1003 186 187
187 1 2 6 1003 187 188
188 1 2 6 1003 188 189
189 1 2 6 1003 189 190
190 1 2 6 1003 190 191
191 1 2 6 1003 191 192
192 1 2 6 1003 192 193
193 1 2 6 1003 193 194
194 1 2 6 1003 194 195
195 1 2 6 1003 195 196
196 1 2 6 1003 196 197
197 1 2 6 1003 197 198
198 1 2 6 1003 198 199
199 1 2 6 1003 199 200
200 1 2 6 1003 200 201
201 1 2 6 1003 201 202
202 1 2 6 1003 202 203
203 1 2 6 1003 203 204
204 1 2 6 1003 204 205
205 1 2 6 1003 205 206
206 1 2 6 1003 206 207
207 1 2 6 1003 207 208
208 1 2 6 1003 208 209
209 1 2 6 1003 209 210
210 1 2 6 1003 210 211
211 1 2 6 1003 211 212
212 1 2 6 1003 212 213
213 1 2 6 1003 213 214
214 1 2 6 1003 214 5
215 2 2 5 3001 311 267 350
216 2 2 5 3001 347 279 581
217 2 2 5 3001 285 368 568
218 2 2 5 3001 328 525 693
219 2 2 5 3001 379 450 584
220 2 2 5 3001 251 283 612
221 2 2 5 3001 268 314 352
222 2 2 5 3001 253 295 304
223 2 2 5 3001 47 48 335
224 2 2 5 3001 316 269 355
225 2 2 5 3001 245 428 431
226 2 2 5 3001 486 363 593
227 2 2 5 3001 335 48 434
228 2 2 5 3001 242 258 609
229 2 2 5 3001 261 234 616
230 2 2 5 3001 39 40 371
231 2 2 5 3001 364 17 526
232 2 2 5 3001 263 235 678
233 2 2 5 3001 317 390 595
234 2 2 5 3001 457 389 594
235 2 2 5 3001 287 369 688
236 2 2 5 3001 304 295 379
237 2 2 5 3001 258 242 532
238 2 2 5 3001 303 281 354
239 2 2 5 3001 234 261 524
240 2 2 5 3001 400 287 688
241 2 2 5 3001 394 250 536
242 2 2 5 3001 452 385 586
243 2 2 5 3001 391 460 597
244 2 2 5 3001 376 216 449
245 2 2 5 3001 399 24 540
246 2 2 5 3001 141 142 427
247 2 2 5 3001 113 114 445
248 2 2 5 3001 332 396 454
249 2 2 5 3001 242 409 807
250 2 2 5 3001 565 503 757
251 2 2 5 3001 280 347 581
252 2 2 5 3001 297 261 305
253 2 2 5 3001 261 299 305
254 2 2 5 3001 348 438 545
255 2 2 5 3001 180 181 442
256 2 2 5 3001 7 136 423
257 2 2 5 3001 90 91 444
258 2 2 5 3001 68 69 422
259 2 2 5 3001 299 306 384
260 2 2 5 3001 202 203 438
261 2 2 5 3001 64 65 440
262 2 2 5 3001 158 159 446
263 2 2 5 3001 276 544 565
264 2 2 5 3001 33 396 660
265 2 2 5 3001 349 440 547
266 2 2 5 3001 310 280 401
267 2 2 5 3001 313 274 362
268 2 2 5 3001 390 275 595
269 2 2 5 3001 362 370 510
270 2 2 5 3001 302 258 331
271 2 2 5 3001 494 284 563
272 2 2 5 3001 297 305 385
273 2 2 5 3001 366 10 487
274 2 2 5 3001 258 300 331
275 2 2 5 3001 305 299 383
276 2 2 5 3001 302 331 389
277 2 2 5 3001 529 365 668
278 2 2 5 3001 206 207 425
279 2 2 5 3001 331 300 391
280 2 2 5 3001 379 295 450
281 2 2 5 3001 459 360 576
282 2 2 5 3001 453 233 785
283 2 2 5 3001 463 38 679
284 2 2 5 3001 282 322 381
285 2 2 5 3001 243 269 694
286 2 2 5 3001 390 317 587
287 2 2 5 3001 224 410 807
288 2 2 5 3001 442 386 556
289 2 2 5 3001 288 393 844
290 2 2 5 3001 104 105 459
291 2 2 5 3001 377 442 555
292 2 2 5 3001 387 444 559
293 2 2 5 3001 76 77 432
294 2 2 5 3001 78 79 430
295 2 2 5 3001 444 379 558
296 2 2 5 3001 293 397 845
297 2 2 5 3001 278 330 736
298 2 2 5 3001 24 399 615
299 2 2 5 3001 344 404 685
300 2 2 5 3001 275 390 671
301 2 2 5 3001 371 40 795
302 2 2 5 3001 355 269 705
303 2 2 5 3001 683 267 684
304 2 2 5 3001 47 335 528
305 2 2 5 3001 325 463 679
306 2 2 5 3001 469 749 834
307 2 2 5 3001 297 385 452
308 2 2 5 3001 396 332 660
309 2 2 5 3001 39 371 679
310 2 2 5 3001 302 389 457
311 2 2 5 3001 512 434 815
312 2 2 5 3001 264 236 471
313 2 2 5 3001 395 225 732
314 2 2 5 3001 396 33 662
315 2 2 5 3001 368 285 439
316 2 2 5 3001 469 277 749
317 2 2 5 3001 190 191 441
318 2 2 5 3001 9 10 366
319 2 2 5 3001 389 446 567
320 2 2 5 3001 270 474 736
321 2 2 5 3001 254 453 527
322 2 2 5 3001 446 391 566
323 2 2 5 3001 391 300 460
324 2 2 5 3001 21 529 531
325 2 2 5 3001 352 360 763
326 2 2 5 3001 445 383 562
327 2 2 5 3001 385 445 560
328 2 2 5 3001 279 419 581
329 2 2 5 3001 295 338 450
330 2 2 5 3001 363 286 488
331 2 2 5 3001 337 529 668
332 2 2 5 3001 3 31 557
333 2 2 5 3001 30 3 557
334 2 2 5 3001 437 222 794
335 2 2 5 3001 388 285 568
336 2 2 5 3001 17 364 542
337 2 2 5 3001 693 525 827
338 2 2 5 3001 184 185 447
339 2 2 5 3001 117 118 452
340 2 2 5 3001 433 599 838
341 2 2 5 3001 303 478 604
342 2 2 5 3001 375 514 561
343 2 2 5 3001 86 87 450
344 2 2 5 3001 265 572 574
345 2 2 5 3001 330 270 736
346 2 2 5 3001 46 47 437
347 2 2 5 3001 512 51 601
348 2 2 5 3001 564 276 565
349 2 2 5 3001 431 401 492
350 2 2 5 3001 162 163 457
351 2 2 5 3001 214 5 486
352 2 2 5 3001 154 155 460
353 2 2 5 3001 176 177 455
354 2 2 5 3001 225 436 727
355 2 2 5 3001 413 758 794
356 2 2 5 3001 338 295 520
357 2 2 5 3001 94 95 456
358 2 2 5 3001 434 49 815
359 2 2 5 3001 250 394 691
360 2 2 5 3001 226 439 514
361 2 2 5 3001 226 368 439
362 2 2 5 3001 340 414 533
363 2 2 5 3001 219 785 831
364 2 2 5 3001 342 297 452
365 2 2 5 3001 73 74 458
366 2 2 5 3001 395 480 803
367 2 2 5 3001 395 224 480
368 2 2 5 3001 466 266 568
369 2 2 5 3001 24 25 540
370 2 2 5 3001 344 302 457
371 2 2 5 3001 198 199 461
372 2 2 5 3001 434 287 826
373 2 2 5 3001 270 330 681
374 2 2 5 3001 238 394 536
375 2 2 5 3001 60 61 462
376 2 2 5 3001 283 251 468
377 2 2 5 3001 720 483 834
378 2 2 5 3001 231 503 565
379 2 2 5 3001 369 287 601
380 2 2 5 3001 359 350 820
381 2 2 5 3001 300 345 460
382 2 2 5 3001 282 236 591
383 2 2 5 3001 242 410 697
384 2 2 5 3001 122 123 467
385 2 2 5 3001 281 303 500
386 2 2 5 3001 419 279 798
387 2 2 5 3001 135 7 429
388 2 2 5 3001 376 449 789
389 2 2 5 3001 17 18 526
390 2 2 5 3001 32 33 660
391 2 2 5 3001 318 482 603
392 2 2 5 3001 50 51 512
393 2 2 5 3001 400 470 826
394 2 2 5 3001 323 284 765
395 2 2 5 3001 529 337 531
396 2 2 5 3001 149 150 476
397 2 2 5 3001 483 309 834
398 2 2 5 3001 245 431 492
399 2 2 5 3001 453 254 592
400 2 2 5 3001 171 172 472
401 2 2 5 3001 336 417 534
402 2 2 5 3001 99 100 475
403 2 2 5 3001 361 427 573
404 2 2 5 3001 375 226 514
405 2 2 5 3001 228 401 431
406 2 2 5 3001 226 375 516
407 2 2 5 3001 283 326 612
408 2 2 5 3001 291 250 667
409 2 2 5 3001 326 283 790
410 2 2 5 3001 359 308 504
411 2 2 5 3001 404 308 685
412 2 2 5 3001 216 376 630
413 2 2 5 3001 271 318 689
414 2 2 5 3001 410 242 807
415 2 2 5 3001 81 82 478
416 2 2 5 3001 132 6 498
417 2 2 5 3001 338 412 530
418 2 2 5 3001 503 229 757
419 2 2 5 3001 48 49 434
420 2 2 5 3001 235 263 471
421 2 2 5 3001 373 221 513
422 2 2 5 3001 287 400 826
423 2 2 5 3001 278 419 798
424 2 2 5 3001 243 413 828
425 2 2 5 3001 216 487 817
426 2 2 5 3001 412 303 604
427 2 2 5 3001 454 396 749
428 2 2 5 3001 277 454 749
429 2 2 5 3001 238 435 436
430 2 2 5 3001 394 225 803
431 2 2 5 3001 524 262 725
432 2 2 5 3001 348 294 438
433 2 2 5 3001 193 194 482
434 2 2 5 3001 137 138 485
435 2 2 5 3001 236 406 796
436 2 2 5 3001 428 245 708
437 2 2 5 3001 637 371 680
438 2 2 5 3001 139 140 490
439 2 2 5 3001 227 637 680
440 2 2 5 3001 349 289 440
441 2 2 5 3001 28 29 448
442 2 2 5 3001 538 453 785
443 2 2 5 3001 269 243 474
444 2 2 5 3001 471 236 796
445 2 2 5 3001 227 388 762
446 2 2 5 3001 381 322 498
447 2 2 5 3001 355 420 541
448 2 2 5 3001 284 323 563
449 2 2 5 3001 10 433 487
450 2 2 5 3001 144 145 493
451 2 2 5 3001 301 386 442
452 2 2 5 3001 271 435 537
453 2 2 5 3001 127 128 508
454 2 2 5 3001 392 323 506
455 2 2 5 3001 310 282 381
456 2 2 5 3001 256 311 713
457 2 2 5 3001 365 469 668
458 2 2 5 3001 435 271 673
459 2 2 5 3001 277 698 752
460 2 2 5 3001 387 304 444
461 2 2 5 3001 382 326 499
462 2 2 5 3001 287 434 512
463 2 2 5 3001 377 301 442
464 2 2 5 3001 418 346 539
465 2 2 5 3001 662 34 720
466 2 2 5 3001 514 42 561
467 2 2 5 3001 637 227 704
468 2 2 5 3001 419 244 708
469 2 2 5 3001 302 344 685
470 2 2 5 3001 503 220 823
471 2 2 5 3001 287 512 601
472 2 2 5 3001 304 379 444
473 2 2 5 3001 291 334 398
474 2 2 5 3001 736 474 828
475 2 2 5 3001 314 254 721
476 2 2 5 3001 241 409 683
477 2 2 5 3001 282 310 401
478 2 2 5 3001 785 415 831
479 2 2 5 3001 259 532 782
480 2 2 5 3001 37 38 463
481 2 2 5 3001 419 278 736
482 2 2 5 3001 313 511 659
483 2 2 5 3001 413 243 748
484 2 2 5 3001 436 435 703
485 2 2 5 3001 374 463 665
486 2 2 5 3001 609 302 685
487 2 2 5 3001 368 226 771
488 2 2 5 3001 317 421 704
489 2 2 5 3001 55 56 511
490 2 2 5 3001 307 360 459
491 2 2 5 3001 375 225 727
492 2 2 5 3001 692 293 845
493 2 2 5 3001 303 354 478
494 2 2 5 3001 749 380 834
495 2 2 5 3001 357 358 485
496 2 2 5 3001 515 246 816
497 2 2 5 3001 225 561 732
498 2 2 5 3001 374 483 781
499 2 2 5 3001 23 24 615
500 2 2 5 3001 333 291 398
501 2 2 5 3001 312 262 722
502 2 2 5 3001 758 437 794
503 2 2 5 3001 242 609 759
504 2 2 5 3001 341 405 521
505 2 2 5 3001 266 320 515
506 2 2 5 3001 386 301 840
507 2 2 5 3001 370 320 761
508 2 2 5 3001 318 351 482
509 2 2 5 3001 225 394 700
510 2 2 5 3001 616 234 750
511 2 2 5 3001 327 363 486
512 2 2 5 3001 428 217 431
513 2 2 5 3001 246 762 816
514 2 2 5 3001 699 288 844
515 2 2 5 3001 371 637 679
516 2 2 5 3001 676 246 693
517 2 2 5 3001 407 343 523
518 2 2 5 3001 358 279 423
519 2 2 5 3001 520 295 602
520 2 2 5 3001 248 494 563
521 2 2 5 3001 319 263 701
522 2 2 5 3001 268 352 763
523 2 2 5 3001 21 22 529
524 2 2 5 3001 362 274 370
525 2 2 5 3001 483 374 850
526 2 2 5 3001 473 234 524
527 2 2 5 3001 389 331 446
528 2 2 5 3001 257 683 759
529 2 2 5 3001 414 318 603
530 2 2 5 3001 273 518 543
531 2 2 5 3001 368 466 568
532 2 2 5 3001 305 383 445
533 2 2 5 3001 188 189 502
534 2 2 5 3001 451 246 676
535 2 2 5 3001 186 187 501
536 2 2 5 3001 637 325 679
537 2 2 5 3001 480 239 803
538 2 2 5 3001 465 315 540
539 2 2 5 3001 331 391 446
540 2 2 5 3001 385 305 445
541 2 2 5 3001 10 11 433
542 2 2 5 3001 304 387 856
543 2 2 5 3001 762 388 816
544 2 2 5 3001 301 377 855
545 2 2 5 3001 384 306 497
546 2 2 5 3001 37 463 781
547 2 2 5 3001 279 347 423
548 2 2 5 3001 236 264 591
549 2 2 5 3001 208 209 499
550 2 2 5 3001 350 267 820
551 2 2 5 3001 217 470 822
552 2 2 5 3001 259 316 735
553 2 2 5 3001 169 170 505
554 2 2 5 3001 246 451 762
555 2 2 5 3001 320 266 324
556 2 2 5 3001 101 102 507
557 2 2 5 3001 401 280 492
558 2 2 5 3001 110 111 509
559 2 2 5 3001 269 321 705
560 2 2 5 3001 372 135 429
561 2 2 5 3001 380 662 720
562 2 2 5 3001 225 375 561
563 2 2 5 3001 698 399 752
564 2 2 5 3001 321 493 627
565 2 2 5 3001 353 484 542
566 2 2 5 3001 35 36 483
567 2 2 5 3001 242 491 532
568 2 2 5 3001 481 327 768
569 2 2 5 3001 70 71 506
570 2 2 5 3001 403 342 517
571 2 2 5 3001 353 676 693
572 2 2 5 3001 422 69 613
573 2 2 5 3001 449 236 774
574 2 2 5 3001 404 344 519
575 2 2 5 3001 241 683 684
576 2 2 5 3001 335 434 826
577 2 2 5 3001 295 253 602
578 2 2 5 3001 294 692 845
579 2 2 5 3001 222 437 528
580 2 2 5 3001 281 500 544
581 2 2 5 3001 383 384 509
582 2 2 5 3001 703 468 799
583 2 2 5 3001 345 408 522
584 2 2 5 3001 411 219 831
585 2 2 5 3001 463 374 781
586 2 2 5 3001 577 247 670
587 2 2 5 3001 274 313 746
588 2 2 5 3001 687 367 712
589 2 2 5 3001 363 327 729
590 2 2 5 3001 226 580 771
591 2 2 5 3001 347 280 372
592 2 2 5 3001 438 203 545
593 2 2 5 3001 223 410 773
594 2 2 5 3001 68 422 549
595 2 2 5 3001 202 438 546
596 2 2 5 3001 64 440 548
597 2 2 5 3001 134 372 496
598 2 2 5 3001 469 365 698
599 2 2 5 3001 440 65 547
600 2 2 5 3001 333 398 502
601 2 2 5 3001 277 469 698
602 2 2 5 3001 236 282 774
603 2 2 5 3001 441 578 596
604 2 2 5 3001 442 181 555
605 2 2 5 3001 180 442 556
606 2 2 5 3001 38 39 679
607 2 2 5 3001 113 445 562
608 2 2 5 3001 358 357 798
609 2 2 5 3001 445 114 560
610 2 2 5 3001 416 306 805
611 2 2 5 3001 220 402 553
612 2 2 5 3001 90 444 558
613 2 2 5 3001 425 207 607
614 2 2 5 3001 444 91 559
615 2 2 5 3001 398 334 501
616 2 2 5 3001 225 395 803
617 2 2 5 3001 5 54 510
618 2 2 5 3001 313 686 746
619 2 2 5 3001 570 432 677
620 2 2 5 3001 141 427 611
621 2 2 5 3001 119 120 517
622 2 2 5 3001 374 665 842
623 2 2 5 3001 251 574 799
624 2 2 5 3001 267 311 684
625 2 2 5 3001 508 319 655
626 2 2 5 3001 9 366 687
627 2 2 5 3001 419 245 581
628 2 2 5 3001 417 313 659
629 2 2 5 3001 433 11 599
630 2 2 5 3001 7 423 429
631 2 2 5 3001 285 388 680
632 2 2 5 3001 314 268 783
633 2 2 5 3001 410 224 550
634 2 2 5 3001 250 291 696
635 2 2 5 3001 446 159 567
636 2 2 5 3001 421 637 704
637 2 2 5 3001 338 520 714
638 2 2 5 3001 158 446 566
639 2 2 5 3001 221 484 827
640 2 2 5 3001 261 297 524
641 2 2 5 3001 454 277 752
642 2 2 5 3001 164 165 519
643 2 2 5 3001 448 315 745
644 2 2 5 3001 388 227 680
645 2 2 5 3001 252 435 673
646 2 2 5 3001 206 425 552
647 2 2 5 3001 289 699 844
648 2 2 5 3001 427 142 573
649 2 2 5 3001 152 153 522
650 2 2 5 3001 18 19 587
651 2 2 5 3001 174 175 521
652 2 2 5 3001 334 290 860
653 2 2 5 3001 232 378 670
654 2 2 5 3001 96 97 523
655 2 2 5 3001 219 402 538
656 2 2 5 3001 350 359 505
657 2 2 5 3001 299 261 616
658 2 2 5 3001 307 495 763
659 2 2 5 3001 269 316 694
660 2 2 5 3001 553 402 741
661 2 2 5 3001 406 236 644
662 2 2 5 3001 286 382 488
663 2 2 5 3001 360 352 507
664 2 2 5 3001 602 253 731
665 2 2 5 3001 306 299 734
666 2 2 5 3001 506 323 613
667 2 2 5 3001 402 220 767
668 2 2 5 3001 549 422 765
669 2 2 5 3001 288 336 776
670 2 2 5 3001 421 325 637
671 2 2 5 3001 300 258 532
672 2 2 5 3001 293 340 775
673 2 2 5 3001 470 217 857
674 2 2 5 3001 474 243 828
675 2 2 5 3001 465 27 745
676 2 2 5 3001 526 18 587
677 2 2 5 3001 339 292 788
678 2 2 5 3001 315 465 745
679 2 2 5 3001 42 43 561
680 2 2 5 3001 330 278 357
681 2 2 5 3001 332 454 801
682 2 2 5 3001 500 303 520
683 2 2 5 3001 296 386 840
684 2 2 5 3001 470 400 822
685 2 2 5 3001 258 302 609
686 2 2 5 3001 421 317 595
687 2 2 5 3001 286 363 729
688 2 2 5 3001 76 432 570
689 2 2 5 3001 370 274 477
690 2 2 5 3001 432 77 569
691 2 2 5 3001 78 430 569
692 2 2 5 3001 443 229 513
693 2 2 5 3001 430 79 571
694 2 2 5 3001 104 459 576
695 2 2 5 3001 459 105 575
696 2 2 5 3001 669 317 704
697 2 2 5 3001 218 411 617
698 2 2 5 3001 219 411 579
699 2 2 5 3001 823 220 859
700 2 2 5 3001 296 341 846
701 2 2 5 3001 544 231 565
702 2 2 5 3001 599 218 838
703 2 2 5 3001 20 21 531
704 2 2 5 3001 479 480 764
705 2 2 5 3001 8 687 712
706 2 2 5 3001 84 85 530
707 2 2 5 3001 518 273 666
708 2 2 5 3001 470 335 826
709 2 2 5 3001 394 239 691
710 2 2 5 3001 383 299 384
711 2 2 5 3001 232 453 538
712 2 2 5 3001 343 298 853
713 2 2 5 3001 527 453 731
714 2 2 5 3001 451 227 762
715 2 2 5 3001 129 130 554
716 2 2 5 3001 683 409 759
717 2 2 5 3001 387 298 856
718 2 2 5 3001 313 362 511
719 2 2 5 3001 411 218 599
720 2 2 5 3001 377 290 855
721 2 2 5 3001 321 361 493
722 2 2 5 3001 282 401 774
723 2 2 5 3001 220 378 767
724 2 2 5 3001 327 486 768
725 2 2 5 3001 58 59 534
726 2 2 5 3001 492 280 581
727 2 2 5 3001 196 197 533
728 2 2 5 3001 578 351 596
729 2 2 5 3001 280 310 372
730 2 2 5 3001 420 321 627
731 2 2 5 3001 244 736 828
732 2 2 5 3001 406 706 796
733 2 2 5 3001 124 125 539
734 2 2 5 3001 415 233 702
735 2 2 5 3001 367 675 712
736 2 2 5 3001 190 441 618
737 2 2 5 3001 483 36 781
738 2 2 5 3001 236 449 644
739 2 2 5 3001 325 421 830
740 2 2 5 3001 252 468 703
741 2 2 5 3001 678 235 725
742 2 2 5 3001 339 570 677
743 2 2 5 3001 441 191 578
744 2 2 5 3001 319 418 655
745 2 2 5 3001 487 216 630
746 2 2 5 3001 499 326 607
747 2 2 5 3001 318 271 744
748 2 2 5 3001 27 28 745
749 2 2 5 3001 463 325 665
750 2 2 5 3001 269 474 664
751 2 2 5 3001 536 272 537
752 2 2 5 3001 572 240 574
753 2 2 5 3001 147 148 541
754 2 2 5 3001 306 728 805
755 2 2 5 3001 540 315 752
756 2 2 5 3001 399 540 752
757 2 2 5 3001 424 376 789
758 2 2 5 3001 480 241 764
759 2 2 5 3001 520 303 714
760 2 2 5 3001 237 464 516
761 2 2 5 3001 680 371 795
762 2 2 5 3001 253 304 856
763 2 2 5 3001 327 265 729
764 2 2 5 3001 353 693 827
765 2 2 5 3001 349 549 765
766 2 2 5 3001 309 489 668
767 2 2 5 3001 16 17 542
768 2 2 5 3001 489 337 668
769 2 2 5 3001 40 625 795
770 2 2 5 3001 283 468 672
771 2 2 5 3001 471 263 632
772 2 2 5 3001 237 436 703
773 2 2 5 3001 466 240 572
774 2 2 5 3001 230 716 835
775 2 2 5 3001 447 185 621
776 2 2 5 3001 320 324 761
777 2 2 5 3001 487 433 817
778 2 2 5 3001 133 496 738
779 2 2 5 3001 86 450 640
780 2 2 5 3001 29 30 710
781 2 2 5 3001 380 720 834
782 2 2 5 3001 309 483 850
783 2 2 5 3001 503 231 843
784 2 2 5 3001 256 709 764
785 2 2 5 3001 34 35 720
786 2 2 5 3001 443 230 518
787 2 2 5 3001 327 481 733
788 2 2 5 3001 426 356 554
789 2 2 5 3001 184 447 582
790 2 2 5 3001 452 118 639
791 2 2 5 3001 330 357 490
792 2 2 5 3001 708 244 794
793 2 2 5 3001 428 222 858
794 2 2 5 3001 515 320 726
795 2 2 5 3001 489 275 671
796 2 2 5 3001 450 87 584
797 2 2 5 3001 479 239 480
798 2 2 5 3001 28 448 745
799 2 2 5 3001 552 425 790
800 2 2 5 3001 410 223 697
801 2 2 5 3001 378 220 843
802 2 2 5 3001 311 350 769
803 2 2 5 3001 176 455 643
804 2 2 5 3001 414 340 689
805 2 2 5 3001 579 411 599
806 2 2 5 3001 612 286 711
807 2 2 5 3001 117 452 586
808 2 2 5 3001 390 531 671
809 2 2 5 3001 203 204 545
810 2 2 5 3001 457 163 648
811 2 2 5 3001 495 307 728
812 2 2 5 3001 63 64 548
813 2 2 5 3001 456 95 646
814 2 2 5 3001 201 202 546
815 2 2 5 3001 67 68 549
816 2 2 5 3001 65 66 547
817 2 2 5 3001 324 266 466
818 2 2 5 3001 675 53 712
819 2 2 5 3001 284 494 690
820 2 2 5 3001 315 448 801
821 2 2 5 3001 332 448 710
822 2 2 5 3001 214 486 593
823 2 2 5 3001 352 314 772
824 2 2 5 3001 464 240 580
825 2 2 5 3001 337 489 671
826 2 2 5 3001 281 544 718
827 2 2 5 3001 364 451 676
828 2 2 5 3001 181 182 555
829 2 2 5 3001 112 113 562
830 2 2 5 3001 455 177 589
831 2 2 5 3001 142 143 573
832 2 2 5 3001 221 373 682
833 2 2 5 3001 114 115 560
834 2 2 5 3001 179 180 556
835 2 2 5 3001 154 460 651
836 2 2 5 3001 89 90 558
837 2 2 5 3001 458 74 628
838 2 2 5 3001 215 535 695
839 2 2 5 3001 91 92 559
840 2 2 5 3001 205 206 552
841 2 2 5 3001 675 367 770
842 2 2 5 3001 94 456 590
843 2 2 5 3001 448 29 710
844 2 2 5 3001 448 332 801
845 2 2 5 3001 718 329 833
846 2 2 5 3001 531 337 671
847 2 2 5 3001 159 160 567
848 2 2 5 3001 474 270 664
849 2 2 5 3001 162 457 594
850 2 2 5 3001 469 309 668
851 2 2 5 3001 157 158 566
852 2 2 5 3001 356 319 508
853 2 2 5 3001 6 133 738
854 2 2 5 3001 217 424 841
855 2 2 5 3001 198 461 626
856 2 2 5 3001 73 458 585
857 2 2 5 3001 8 9 687
858 2 2 5 3001 324 466 572
859 2 2 5 3001 241 684 764
860 2 2 5 3001 13 553 741
861 2 2 5 3001 460 155 597
862 2 2 5 3001 454 315 801
863 2 2 5 3001 13 14 553
864 2 2 5 3001 346 312 802
865 2 2 5 3001 52 53 675
866 2 2 5 3001 465 540 852
867 2 2 5 3001 461 199 583
868 2 2 5 3001 243 694 782
869 2 2 5 3001 75 76 570
870 2 2 5 3001 595 275 830
871 2 2 5 3001 77 78 569
872 2 2 5 3001 79 80 571
873 2 2 5 3001 647 363 754
874 2 2 5 3001 311 256 684
875 2 2 5 3001 353 542 676
876 2 2 5 3001 462 61 588
877 2 2 5 3001 105 106 575
878 2 2 5 3001 518 249 791
879 2 2 5 3001 103 104 576
880 2 2 5 3001 44 45 550
881 2 2 5 3001 273 543 746
882 2 2 5 3001 60 462 650
883 2 2 5 3001 406 218 706
884 2 2 5 3001 254 314 783
885 2 2 5 3001 423 136 551
886 2 2 5 3001 535 215 770
887 2 2 5 3001 332 557 854
888 2 2 5 3001 417 336 686
889 2 2 5 3001 709 255 825
890 2 2 5 3001 240 464 574
891 2 2 5 3001 11 12 599
892 2 2 5 3001 484 221 682
893 2 2 5 3001 191 192 578
894 2 2 5 3001 272 536 696
895 2 2 5 3001 30 557 710
896 2 2 5 3001 348 552 790
897 2 2 5 3001 315 454 752
898 2 2 5 3001 670 602 731
899 2 2 5 3001 40 41 625
900 2 2 5 3001 33 34 662
901 2 2 5 3001 308 359 820
902 2 2 5 3001 316 355 800
903 2 2 5 3001 233 453 592
904 2 2 5 3001 486 5 768
905 2 2 5 3001 563 323 760
906 2 2 5 3001 484 16 542
907 2 2 5 3001 473 524 725
908 2 2 5 3001 622 223 773
909 2 2 5 3001 322 282 591
910 2 2 5 3001 15 16 484
911 2 2 5 3001 183 184 582
912 2 2 5 3001 53 1 712
913 2 2 5 3001 1 8 712
914 2 2 5 3001 660 332 854
915 2 2 5 3001 570 339 628
916 2 2 5 3001 373 823 859
917 2 2 5 3001 87 88 584
918 2 2 5 3001 116 117 586
919 2 2 5 3001 12 13 579
920 2 2 5 3001 262 312 678
921 2 2 5 3001 213 214 593
922 2 2 5 3001 598 290 667
923 2 2 5 3001 72 73 585
924 2 2 5 3001 177 178 589
925 2 2 5 3001 199 200 583
926 2 2 5 3001 527 298 730
927 2 2 5 3001 136 137 551
928 2 2 5 3001 61 62 588
929 2 2 5 3001 686 273 746
930 2 2 5 3001 93 94 590
931 2 2 5 3001 275 665 830
932 2 2 5 3001 317 526 587
933 2 2 5 3001 524 297 755
934 2 2 5 3001 435 252 703
935 2 2 5 3001 161 162 594
936 2 2 5 3001 291 333 777
937 2 2 5 3001 430 571 833
938 2 2 5 3001 155 156 597
939 2 2 5 3001 263 319 632
940 2 2 5 3001 323 422 613
941 2 2 5 3001 537 272 744
942 2 2 5 3001 245 419 708
943 2 2 5 3001 27 465 849
944 2 2 5 3001 369 675 770
945 2 2 5 3001 409 242 759
946 2 2 5 3001 43 44 732
947 2 2 5 3001 467 123 656
948 2 2 5 3001 122 467 605
949 2 2 5 3001 340 461 775
950 2 2 5 3001 510 370 717
951 2 2 5 3001 320 370 477
952 2 2 5 3001 451 364 669
953 2 2 5 3001 412 338 714
954 2 2 5 3001 394 238 700
955 2 2 5 3001 378 577 670
956 2 2 5 3001 121 122 605
957 2 2 5 3001 789 228 841
958 2 2 5 3001 249 518 666
959 2 2 5 3001 45 46 622
960 2 2 5 3001 171 472 633
961 2 2 5 3001 322 264 847
962 2 2 5 3001 544 500 577
963 2 2 5 3001 458 339 788
964 2 2 5 3001 472 172 606
965 2 2 5 3001 308 404 504
966 2 2 5 3001 475 100 635
967 2 2 5 3001 227 451 704
968 2 2 5 3001 531 390 832
969 2 2 5 3001 172 173 606
970 2 2 5 3001 336 462 776
971 2 2 5 3001 99 475 608
972 2 2 5 3001 149 476 658
973 2 2 5 3001 98 99 608
974 2 2 5 3001 194 195 603
975 2 2 5 3001 82 83 604
976 2 2 5 3001 81 478 634
977 2 2 5 3001 150 151 610
978 2 2 5 3001 366 535 687
979 2 2 5 3001 234 415 750
980 2 2 5 3001 222 528 858
981 2 2 5 3001 338 530 640
982 2 2 5 3001 476 150 610
983 2 2 5 3001 14 15 809
984 2 2 5 3001 484 353 827
985 2 2 5 3001 478 82 604
986 2 2 5 3001 41 42 811
987 2 2 5 3001 330 490 611
988 2 2 5 3001 447 334 860
989 2 2 5 3001 300 532 766
990 2 2 5 3001 316 259 694
991 2 2 5 3001 334 291 667
992 2 2 5 3001 193 482 629
993 2 2 5 3001 532 491 782
994 2 2 5 3001 138 139 600
995 2 2 5 3001 51 52 837
996 2 2 5 3001 309 469 834
997 2 2 5 3001 364 526 669
998 2 2 5 3001 424 789 841
999 2 2 5 3001 482 194 603
1000 2 2 5 3001 207 208 607
1001 2 2 5 3001 321 269 664
1002 2 2 5 3001 140 141 611
1003 2 2 5 3001 372 310 496
1004 2 2 5 3001 20 531 832
1005 2 2 5 3001 271 537 744
1006 2 2 5 3001 5 717 768
1007 2 2 5 3001 326 382 851
1008 2 2 5 3001 145 146 627
1009 2 2 5 3001 234 473 617
1010 2 2 5 3001 126 127 655
1011 2 2 5 3001 717 481 768
1012 2 2 5 3001 514 439 811
1013 2 2 5 3001 265 327 733
1014 2 2 5 3001 571 354 833
1015 2 2 5 3001 189 190 618
1016 2 2 5 3001 131 132 614
1017 2 2 5 3001 376 424 839
1018 2 2 5 3001 187 188 619
1019 2 2 5 3001 69 70 613
1020 2 2 5 3001 185 186 621
1021 2 2 5 3001 684 256 764
1022 2 2 5 3001 612 326 851
1023 2 2 5 3001 323 392 760
1024 2 2 5 3001 296 709 724
1025 2 2 5 3001 363 488 754
1026 2 2 5 3001 222 428 708
1027 2 2 5 3001 209 210 707
1028 2 2 5 3001 326 425 607
1029 2 2 5 3001 35 483 720
1030 2 2 5 3001 341 455 846
1031 2 2 5 3001 56 57 659
1032 2 2 5 3001 535 366 695
1033 2 2 5 3001 563 292 564
1034 2 2 5 3001 170 171 633
1035 2 2 5 3001 168 169 631
1036 2 2 5 3001 100 101 635
1037 2 2 5 3001 109 110 636
1038 2 2 5 3001 728 307 805
1039 2 2 5 3001 264 471 632
1040 2 2 5 3001 456 343 853
1041 2 2 5 3001 420 355 705
1042 2 2 5 3001 439 285 625
1043 2 2 5 3001 333 502 618
1044 2 2 5 3001 215 688 770
1045 2 2 5 3001 427 361 681
1046 2 2 5 3001 346 418 701
1047 2 2 5 3001 290 334 667
1048 2 2 5 3001 544 276 718
1049 2 2 5 3001 197 198 626
1050 2 2 5 3001 118 119 639
1051 2 2 5 3001 498 322 614
1052 2 2 5 3001 175 176 643
1053 2 2 5 3001 250 598 667
1054 2 2 5 3001 95 96 646
1055 2 2 5 3001 405 341 713
1056 2 2 5 3001 5 510 717
1057 2 2 5 3001 204 205 620
1058 2 2 5 3001 163 164 648
1059 2 2 5 3001 85 86 640
1060 2 2 5 3001 495 268 763
1061 2 2 5 3001 66 67 623
1062 2 2 5 3001 59 60 650
1063 2 2 5 3001 231 577 843
1064 2 2 5 3001 153 154 651
1065 2 2 5 3001 360 307 763
1066 2 2 5 3001 74 75 628
1067 2 2 5 3001 401 228 774
1068 2 2 5 3001 350 472 769
1069 2 2 5 3001 71 72 624
1070 2 2 5 3001 343 407 721
1071 2 2 5 3001 488 382 742
1072 2 2 5 3001 192 193 629
1073 2 2 5 3001 80 81 634
1074 2 2 5 3001 631 359 784
1075 2 2 5 3001 783 268 793
1076 2 2 5 3001 340 533 626
1077 2 2 5 3001 335 470 857
1078 2 2 5 3001 62 63 715
1079 2 2 5 3001 475 352 772
1080 2 2 5 3001 123 124 656
1081 2 2 5 3001 636 384 792
1082 2 2 5 3001 290 598 855
1083 2 2 5 3001 275 489 842
1084 2 2 5 3001 212 213 647
1085 2 2 5 3001 200 201 719
1086 2 2 5 3001 336 288 806
1087 2 2 5 3001 182 183 638
1088 2 2 5 3001 493 145 627
1089 2 2 5 3001 485 138 600
1090 2 2 5 3001 257 609 685
1091 2 2 5 3001 137 485 551
1092 2 2 5 3001 178 179 642
1093 2 2 5 3001 88 89 641
1094 2 2 5 3001 148 149 658
1095 2 2 5 3001 111 112 654
1096 2 2 5 3001 92 93 645
1097 2 2 5 3001 490 140 611
1098 2 2 5 3001 144 493 663
1099 2 2 5 3001 235 473 725
1100 2 2 5 3001 102 103 653
1101 2 2 5 3001 662 380 749
1102 2 2 5 3001 341 521 643
1103 2 2 5 3001 396 662 749
1104 2 2 5 3001 139 490 600
1105 2 2 5 3001 378 232 767
1106 2 2 5 3001 54 55 661
1107 2 2 5 3001 390 587 832
1108 2 2 5 3001 516 464 580
1109 2 2 5 3001 340 293 818
1110 2 2 5 3001 115 116 649
1111 2 2 5 3001 467 346 802
1112 2 2 5 3001 292 339 810
1113 2 2 5 3001 160 161 652
1114 2 2 5 3001 238 436 700
1115 2 2 5 3001 574 464 799
1116 2 2 5 3001 265 574 711
1117 2 2 5 3001 156 157 657
1118 2 2 5 3001 292 563 760
1119 2 2 5 3001 523 343 646
1120 2 2 5 3001 688 215 751
1121 2 2 5 3001 489 309 850
1122 2 2 5 3001 499 209 707
1123 2 2 5 3001 208 499 607
1124 2 2 5 3001 542 364 676
1125 2 2 5 3001 409 241 723
1126 2 2 5 3001 517 342 639
1127 2 2 5 3001 518 230 543
1128 2 2 5 3001 143 144 663
1129 2 2 5 3001 526 317 669
1130 2 2 5 3001 127 508 655
1131 2 2 5 3001 382 707 742
1132 2 2 5 3001 22 23 740
1133 2 2 5 3001 502 189 618
1134 2 2 5 3001 357 278 798
1135 2 2 5 3001 188 502 619
1136 2 2 5 3001 519 344 648
1137 2 2 5 3001 501 187 619
1138 2 2 5 3001 120 121 737
1139 2 2 5 3001 186 501 621
1140 2 2 5 3001 128 129 674
1141 2 2 5 3001 248 565 757
1142 2 2 5 3001 351 318 797
1143 2 2 5 3001 511 56 659
1144 2 2 5 3001 294 348 812
1145 2 2 5 3001 223 622 758
1146 2 2 5 3001 355 476 800
1147 2 2 5 3001 264 322 591
1148 2 2 5 3001 424 217 822
1149 2 2 5 3001 298 527 856
1150 2 2 5 3001 435 238 537
1151 2 2 5 3001 501 334 621
1152 2 2 5 3001 224 395 778
1153 2 2 5 3001 223 413 748
1154 2 2 5 3001 354 281 833
1155 2 2 5 3001 289 349 804
1156 2 2 5 3001 572 265 733
1157 2 2 5 3001 342 403 722
1158 2 2 5 3001 165 166 743
1159 2 2 5 3001 267 786 820
1160 2 2 5 3001 70 506 613
1161 2 2 5 3001 774 228 789
1162 2 2 5 3001 543 230 739
1163 2 2 5 3001 228 431 841
1164 2 2 5 3001 506 71 624
1165 2 2 5 3001 345 522 651
1166 2 2 5 3001 237 703 799
1167 2 2 5 3001 151 152 747
1168 2 2 5 3001 336 534 650
1169 2 2 5 3001 233 415 785
1170 2 2 5 3001 505 170 633
1171 2 2 5 3001 169 505 631
1172 2 2 5 3001 101 507 635
1173 2 2 5 3001 354 571 634
1174 2 2 5 3001 230 443 716
1175 2 2 5 3001 507 102 653
1176 2 2 5 3001 543 274 746
1177 2 2 5 3001 706 235 796
1178 2 2 5 3001 408 345 735
1179 2 2 5 3001 110 509 636
1180 2 2 5 3001 443 513 716
1181 2 2 5 3001 173 174 753
1182 2 2 5 3001 552 348 620
1183 2 2 5 3001 431 217 841
1184 2 2 5 3001 97 98 756
1185 2 2 5 3001 248 564 565
1186 2 2 5 3001 402 219 741
1187 2 2 5 3001 509 111 654
1188 2 2 5 3001 239 394 803
1189 2 2 5 3001 666 288 699
1190 2 2 5 3001 709 296 840
1191 2 2 5 3001 508 128 674
1192 2 2 5 3001 449 216 644
1193 2 2 5 3001 36 37 781
1194 2 2 5 3001 601 51 837
1195 2 2 5 3001 55 511 661
1196 2 2 5 3001 359 504 784
1197 2 2 5 3001 366 487 630
1198 2 2 5 3001 711 286 729
1199 2 2 5 3001 26 2 849
1200 2 2 5 3001 2 27 849
1201 2 2 5 3001 535 367 687
1202 2 2 5 3001 677 329 718
1203 2 2 5 3001 210 211 742
1204 2 2 5 3001 348 545 620
1205 2 2 5 3001 351 578 629
1206 2 2 5 3001 500 247 577
1207 2 2 5 3001 491 243 782
1208 2 2 5 3001 427 330 611
1209 2 2 5 3001 229 443 791
1210 2 2 5 3001 4 50 815
1211 2 2 5 3001 49 4 815
1212 2 2 5 3001 365 529 740
1213 2 2 5 3001 498 6 738
1214 2 2 5 3001 232 538 767
1215 2 2 5 3001 529 22 740
1216 2 2 5 3001 384 497 792
1217 2 2 5 3001 267 683 786
1218 2 2 5 3001 341 296 724
1219 2 2 5 3001 335 857 858
1220 2 2 5 3001 19 20 832
1221 2 2 5 3001 349 547 623
1222 2 2 5 3001 673 293 692
1223 2 2 5 3001 247 602 670
1224 2 2 5 3001 549 349 623
1225 2 2 5 3001 211 212 754
1226 2 2 5 3001 31 32 854
1227 2 2 5 3001 25 26 852
1228 2 2 5 3001 306 416 497
1229 2 2 5 3001 728 306 734
1230 2 2 5 3001 468 252 672
1231 2 2 5 3001 550 45 773
1232 2 2 5 3001 298 343 730
1233 2 2 5 3001 276 677 718
1234 2 2 5 3001 494 249 690
1235 2 2 5 3001 324 481 761
1236 2 2 5 3001 285 680 795
1237 2 2 5 3001 517 120 737
1238 2 2 5 3001 491 242 697
1239 2 2 5 3001 119 517 639
1240 2 2 5 3001 247 520 602
1241 2 2 5 3001 281 718 833
1242 2 2 5 3001 290 377 860
1243 2 2 5 3001 262 524 755
1244 2 2 5 3001 254 527 730
1245 2 2 5 3001 521 175 643
1246 2 2 5 3001 244 419 736
1247 2 2 5 3001 519 165 743
1248 2 2 5 3001 557 332 710
1249 2 2 5 3001 164 519 648
1250 2 2 5 3001 564 292 810
1251 2 2 5 3001 83 84 787
1252 2 2 5 3001 441 333 618
1253 2 2 5 3001 592 254 783
1254 2 2 5 3001 174 521 753
1255 2 2 5 3001 732 44 778
1256 2 2 5 3001 96 523 646
1257 2 2 5 3001 504 404 780
1258 2 2 5 3001 453 232 731
1259 2 2 5 3001 525 328 835
1260 2 2 5 3001 329 432 569
1261 2 2 5 3001 523 97 756
1262 2 2 5 3001 166 167 780
1263 2 2 5 3001 430 329 569
1264 2 2 5 3001 107 108 779
1265 2 2 5 3001 42 514 811
1266 2 2 5 3001 677 276 810
1267 2 2 5 3001 152 522 747
1268 2 2 5 3001 522 153 651
1269 2 2 5 3001 365 615 698
1270 2 2 5 3001 615 399 698
1271 2 2 5 3001 46 437 622
1272 2 2 5 3001 130 131 821
1273 2 2 5 3001 696 291 777
1274 2 2 5 3001 577 378 843
1275 2 2 5 3001 400 688 751
1276 2 2 5 3001 348 790 812
1277 2 2 5 3001 167 168 784
1278 2 2 5 3001 229 503 823
1279 2 2 5 3001 288 666 806
1280 2 2 5 3001 312 346 836
1281 2 2 5 3001 106 107 808
1282 2 2 5 3001 533 197 626
1283 2 2 5 3001 530 85 640
1284 2 2 5 3001 497 416 779
1285 2 2 5 3001 473 235 706
1286 2 2 5 3001 220 553 859
1287 2 2 5 3001 702 260 750
1288 2 2 5 3001 709 479 764
1289 2 2 5 3001 596 351 797
1290 2 2 5 3001 630 376 695
1291 2 2 5 3001 108 109 792
1292 2 2 5 3001 297 342 755
1293 2 2 5 3001 449 774 789
1294 2 2 5 3001 286 612 851
1295 2 2 5 3001 355 541 658
1296 2 2 5 3001 255 598 825
1297 2 2 5 3001 84 530 787
1298 2 2 5 3001 195 196 813
1299 2 2 5 3001 593 363 647
1300 2 2 5 3001 539 346 656
1301 2 2 5 3001 240 466 771
1302 2 2 5 3001 57 58 814
1303 2 2 5 3001 241 480 723
1304 2 2 5 3001 125 126 819
1305 2 2 5 3001 393 288 776
1306 2 2 5 3001 196 533 813
1307 2 2 5 3001 534 59 650
1308 2 2 5 3001 386 296 846
1309 2 2 5 3001 532 259 766
1310 2 2 5 3001 536 250 696
1311 2 2 5 3001 598 250 691
1312 2 2 5 3001 292 392 788
1313 2 2 5 3001 450 338 640
1314 2 2 5 3001 299 616 734
1315 2 2 5 3001 322 426 614
1316 2 2 5 3001 397 293 775
1317 2 2 5 3001 293 673 818
1318 2 2 5 3001 510 54 661
1319 2 2 5 3001 58 534 814
1320 2 2 5 3001 436 225 700
1321 2 2 5 3001 298 387 853
1322 2 2 5 3001 146 147 829
1323 2 2 5 3001 709 256 724
1324 2 2 5 3001 253 527 731
1325 2 2 5 3001 345 300 766
1326 2 2 5 3001 404 743 780
1327 2 2 5 3001 550 224 778
1328 2 2 5 3001 786 308 820
1329 2 2 5 3001 251 612 711
1330 2 2 5 3001 334 447 621
1331 2 2 5 3001 361 321 824
1332 2 2 5 3001 545 204 620
1333 2 2 5 3001 294 672 692
1334 2 2 5 3001 436 237 727
1335 2 2 5 3001 553 809 859
1336 2 2 5 3001 63 548 715
1337 2 2 5 3001 547 66 623
1338 2 2 5 3001 339 677 810
1339 2 2 5 3001 67 549 623
1340 2 2 5 3001 205 552 620
1341 2 2 5 3001 201 546 719
1342 2 2 5 3001 349 765 804
1343 2 2 5 3001 574 251 711
1344 2 2 5 3001 124 539 656
1345 2 2 5 3001 513 229 823
1346 2 2 5 3001 665 275 842
1347 2 2 5 3001 494 757 791
1348 2 2 5 3001 415 234 831
1349 2 2 5 3001 479 709 825
1350 2 2 5 3001 439 625 811
1351 2 2 5 3001 539 125 819
1352 2 2 5 3001 672 294 812
1353 2 2 5 3001 367 535 770
1354 2 2 5 3001 23 615 740
1355 2 2 5 3001 451 669 704
1356 2 2 5 3001 425 326 790
1357 2 2 5 3001 541 148 658
1358 2 2 5 3001 339 458 628
1359 2 2 5 3001 147 541 829
1360 2 2 5 3001 455 341 643
1361 2 2 5 3001 75 570 628
1362 2 2 5 3001 555 182 638
1363 2 2 5 3001 695 376 839
1364 2 2 5 3001 356 426 847
1365 2 2 5 3001 256 713 724
1366 2 2 5 3001 328 693 726
1367 2 2 5 3001 587 19 832
1368 2 2 5 3001 179 556 642
1369 2 2 5 3001 342 452 639
1370 2 2 5 3001 89 558 641
1371 2 2 5 3001 343 456 646
1372 2 2 5 3001 540 25 852
1373 2 2 5 3001 571 80 634
1374 2 2 5 3001 559 92 645
1375 2 2 5 3001 582 377 638
1376 2 2 5 3001 289 690 699
1377 2 2 5 3001 494 248 757
1378 2 2 5 3001 366 630 695
1379 2 2 5 3001 266 515 816
1380 2 2 5 3001 578 192 629
1381 2 2 5 3001 344 457 648
1382 2 2 5 3001 716 525 835
1383 2 2 5 3001 382 286 851
1384 2 2 5 3001 422 323 765
1385 2 2 5 3001 112 562 654
1386 2 2 5 3001 588 62 715
1387 2 2 5 3001 721 254 730
1388 2 2 5 3001 583 200 719
1389 2 2 5 3001 495 260 702
1390 2 2 5 3001 461 340 626
1391 2 2 5 3001 72 585 624
1392 2 2 5 3001 560 115 649
1393 2 2 5 3001 219 579 741
1394 2 2 5 3001 333 441 596
1395 2 2 5 3001 379 584 641
1396 2 2 5 3001 568 266 816
1397 2 2 5 3001 413 223 758
1398 2 2 5 3001 410 550 773
1399 2 2 5 3001 567 160 652
1400 2 2 5 3001 615 365 740
1401 2 2 5 3001 132 498 614
1402 2 2 5 3001 395 732 778
1403 2 2 5 3001 421 595 830
1404 2 2 5 3001 757 229 791
1405 2 2 5 3001 221 525 716
1406 2 2 5 3001 157 566 657
1407 2 2 5 3001 183 582 638
1408 2 2 5 3001 103 576 653
1409 2 2 5 3001 849 465 852
1410 2 2 5 3001 26 849 852
1411 2 2 5 3001 213 593 647
1412 2 2 5 3001 584 88 641
1413 2 2 5 3001 460 345 651
1414 2 2 5 3001 260 495 728
1415 2 2 5 3001 690 289 804
1416 2 2 5 3001 589 178 642
1417 2 2 5 3001 722 262 755
1418 2 2 5 3001 464 237 799
1419 2 2 5 3001 274 543 739
1420 2 2 5 3001 93 590 645
1421 2 2 5 3001 260 728 734
1422 2 2 5 3001 462 336 650
1423 2 2 5 3001 575 106 808
1424 2 2 5 3001 586 385 649
1425 2 2 5 3001 573 143 663
1426 2 2 5 3001 116 586 649
1427 2 2 5 3001 579 13 741
1428 2 2 5 3001 129 554 674
1429 2 2 5 3001 217 428 857
1430 2 2 5 3001 161 594 652
1431 2 2 5 3001 386 589 642
1432 2 2 5 3001 247 500 520
1433 2 2 5 3001 237 516 727
1434 2 2 5 3001 243 491 748
1435 2 2 5 3001 245 492 581
1436 2 2 5 3001 597 156 657
1437 2 2 5 3001 794 244 828
1438 2 2 5 3001 590 387 645
1439 2 2 5 3001 594 389 652
1440 2 2 5 3001 377 555 638
1441 2 2 5 3001 329 430 833
1442 2 2 5 3001 121 605 737
1443 2 2 5 3001 707 210 742
1444 2 2 5 3001 606 173 753
1445 2 2 5 3001 603 195 813
1446 2 2 5 3001 350 505 633
1447 2 2 5 3001 98 608 756
1448 2 2 5 3001 318 414 689
1449 2 2 5 3001 218 406 838
1450 2 2 5 3001 477 274 739
1451 2 2 5 3001 604 83 787
1452 2 2 5 3001 554 130 821
1453 2 2 5 3001 215 695 839
1454 2 2 5 3001 507 352 635
1455 2 2 5 3001 249 494 791
1456 2 2 5 3001 391 597 657
1457 2 2 5 3001 259 735 766
1458 2 2 5 3001 557 31 854
1459 2 2 5 3001 558 379 641
1460 2 2 5 3001 432 329 677
1461 2 2 5 3001 598 255 855
1462 2 2 5 3001 610 151 747
1463 2 2 5 3001 255 709 840
1464 2 2 5 3001 617 473 706
1465 2 2 5 3001 468 251 799
1466 2 2 5 3001 50 512 815
1467 2 2 5 3001 443 518 791
1468 2 2 5 3001 405 311 769
1469 2 2 5 3001 319 356 848
1470 2 2 5 3001 361 573 663
1471 2 2 5 3001 220 503 843
1472 2 2 5 3001 15 682 809
1473 2 2 5 3001 265 711 729
1474 2 2 5 3001 260 616 750
1475 2 2 5 3001 480 224 723
1476 2 2 5 3001 392 292 760
1477 2 2 5 3001 314 407 772
1478 2 2 5 3001 385 560 649
1479 2 2 5 3001 212 647 754
1480 2 2 5 3001 235 471 796
1481 2 2 5 3001 609 257 759
1482 2 2 5 3001 562 383 654
1483 2 2 5 3001 312 403 802
1484 2 2 5 3001 659 57 814
1485 2 2 5 3001 268 495 793
1486 2 2 5 3001 313 417 686
1487 2 2 5 3001 592 783 793
1488 2 2 5 3001 685 308 786
1489 2 2 5 3001 15 484 682
1490 2 2 5 3001 318 744 797
1491 2 2 5 3001 168 631 784
1492 2 2 5 3001 580 240 771
1493 2 2 5 3001 423 347 429
1494 2 2 5 3001 678 312 836
1495 2 2 5 3001 840 301 855
1496 2 2 5 3001 585 392 624
1497 2 2 5 3001 556 386 642
1498 2 2 5 3001 109 636 792
1499 2 2 5 3001 238 536 537
1500 2 2 5 3001 598 691 825
1501 2 2 5 3001 388 568 816
1502 2 2 5 3001 625 285 795
1503 2 2 5 3001 527 253 856
1504 2 2 5 3001 627 146 829
1505 2 2 5 3001 387 559 645
1506 2 2 5 3001 742 211 754
1507 2 2 5 3001 513 221 716
1508 2 2 5 3001 622 437 758
1509 2 2 5 3001 779 416 808
1510 2 2 5 3001 389 567 652
1511 2 2 5 3001 393 588 715
1512 2 2 5 3001 12 579 599
1513 2 2 5 3001 219 538 785
1514 2 2 5 3001 689 340 818
1515 2 2 5 3001 126 655 819
1516 2 2 5 3001 566 391 657
1517 2 2 5 3001 397 583 719
1518 2 2 5 3001 272 696 777
1519 2 2 5 3001 234 617 831
1520 2 2 5 3001 665 325 830
1521 2 2 5 3001 632 319 848
1522 2 2 5 3001 369 601 837
1523 2 2 5 3001 478 354 634
1524 2 2 5 3001 408 316 800
1525 2 2 5 3001 279 358 798
1526 2 2 5 3001 693 515 726
1527 2 2 5 3001 303 412 714
1528 2 2 5 3001 44 550 778
1529 2 2 5 3001 311 405 713
1530 2 2 5 3001 686 336 806
1531 2 2 5 3001 743 166 780
1532 2 2 5 3001 231 544 577
1533 2 2 5 3001 346 467 656
1534 2 2 5 3001 262 678 725
1535 2 2 5 3001 576 360 653
1536 2 2 5 3001 739 230 835
1537 2 2 5 3001 276 564 810
1538 2 2 5 3001 407 314 721
1539 2 2 5 3001 666 273 806
1540 2 2 5 3001 321 664 824
1541 2 2 5 3001 283 672 812
1542 2 2 5 3001 373 513 823
1543 2 2 5 3001 482 351 629
1544 2 2 5 3001 472 350 633
1545 2 2 5 3001 476 355 658
1546 2 2 5 3001 352 475 635
1547 2 2 5 3001 272 596 797
1548 2 2 5 3001 32 660 854
1549 2 2 5 3001 682 373 809
1550 2 2 5 3001 403 312 722
1551 2 2 5 3001 548 393 715
1552 2 2 5 3001 644 216 817
1553 2 2 5 3001 246 515 693
1554 2 2 5 3001 780 167 784
1555 2 2 5 3001 528 335 858
1556 2 2 5 3001 107 779 808
1557 2 2 5 3001 546 397 719
1558 2 2 5 3001 683 257 786
1559 2 2 5 3001 779 108 792
1560 2 2 5 3001 226 516 580
1561 2 2 5 3001 347 372 429
1562 2 2 5 3001 681 361 824
1563 2 2 5 3001 673 271 818
1564 2 2 5 3001 406 644 817
1565 2 2 5 3001 418 319 701
1566 2 2 5 3001 321 420 705
1567 2 2 5 3001 675 369 837
1568 2 2 5 3001 316 408 735
1569 2 2 5 3001 249 666 699
1570 2 2 5 3001 248 563 564
1571 2 2 5 3001 495 702 793
1572 2 2 5 3001 131 614 821
1573 2 2 5 3001 330 427 681
1574 2 2 5 3001 415 702 750
1575 2 2 5 3001 333 596 777
1576 2 2 5 3001 346 701 836
1577 2 2 5 3001 284 690 804
1578 2 2 5 3001 605 403 737
1579 2 2 5 3001 405 606 753
1580 2 2 5 3001 491 697 748
1581 2 2 5 3001 608 407 756
1582 2 2 5 3001 252 673 692
1583 2 2 5 3001 553 14 809
1584 2 2 5 3001 694 259 782
1585 2 2 5 3001 516 375 727
1586 2 2 5 3001 408 610 747
1587 2 2 5 3001 588 393 776
1588 2 2 5 3001 790 283 812
1589 2 2 5 3001 377 582 860
1590 2 2 5 3001 583 397 775
1591 2 2 5 3001 412 604 787
1592 2 2 5 3001 383 509 654
1593 2 2 5 3001 271 689 818
1594 2 2 5 3001 392 585 788
1595 2 2 5 3001 525 221 827
1596 2 2 5 3001 481 717 761
1597 2 2 5 3001 414 603 813
1598 2 2 5 3001 688 369 770
1599 2 2 5 3001 589 386 846
1600 2 2 5 3001 713 341 724
1601 2 2 5 3001 239 479 825
1602 2 2 5 3001 222 708 794
1603 2 2 5 3001 481 324 733
1604 2 2 5 3001 358 423 551
1605 2 2 5 3001 387 590 853
1606 2 2 5 3001 493 361 663
1607 2 2 5 3001 382 499 707
1608 2 2 5 3001 320 477 726
1609 2 2 5 3001 751 424 822
1610 2 2 5 3001 343 721 730
1611 2 2 5 3001 424 751 839
1612 2 2 5 3001 466 368 771
1613 2 2 5 3001 417 659 814
1614 2 2 5 3001 328 477 739
1615 2 2 5 3001 625 41 811
1616 2 2 5 3001 606 405 769
1617 2 2 5 3001 392 506 624
1618 2 2 5 3001 502 398 619
1619 2 2 5 3001 398 501 619
1620 2 2 5 3001 842 489 850
1621 2 2 5 3001 273 686 806
1622 2 2 5 3001 324 572 733
1623 2 2 5 3001 596 272 777
1624 2 2 5 3001 426 322 847
1625 2 2 5 3001 407 608 772
1626 2 2 5 3001 374 842 850
1627 2 2 5 3001 809 373 859
1628 2 2 5 3001 616 260 734
1629 2 2 5 3001 263 678 836
1630 2 2 5 3001 765 284 804
1631 2 2 5 3001 360 507 653
1632 2 2 5 3001 438 294 845
1633 2 2 5 3001 409 723 807
1634 2 2 5 3001 440 289 844
1635 2 2 5 3001 400 751 822
1636 2 2 5 3001 342 722 755
1637 2 2 5 3001 751 215 839
1638 2 2 5 3001 485 358 551
1639 2 2 5 3001 232 670 731
1640 2 2 5 3001 393 548 844
1641 2 2 5 3001 538 402 767
1642 2 2 5 3001 397 546 845
1643 2 2 5 3001 857 428 858
1644 2 2 5 3001 744 272 797
1645 2 2 5 3001 403 605 802
1646 2 2 5 3001 561 43 732
1647 2 2 5 3001 357 485 600
1648 2 2 5 3001 617 411 831
1649 2 2 5 3001 505 359 631
1650 2 2 5 3001 735 345 766
1651 2 2 5 3001 416 575 808
1652 2 2 5 3001 461 583 775
1653 2 2 5 3001 490 357 600
1654 2 2 5 3001 462 588 776
1655 2 2 5 3001 610 408 800
1656 2 2 5 3001 533 414 813
1657 2 2 5 3001 52 675 837
1658 2 2 5 3001 690 249 699
1659 2 2 5 3001 554 356 674
1660 2 2 5 3001 509 384 636
1661 2 2 5 3001 420 627 829
1662 2 2 5 3001 672 252 692
1663 2 2 5 3001 233 592 793
1664 2 2 5 3001 530 412 787
1665 2 2 5 3001 472 606 769
1666 2 2 5 3001 521 405 753
1667 2 2 5 3001 585 458 788
1668 2 2 5 3001 511 362 661
1669 2 2 5 3001 407 523 756
1670 2 2 5 3001 608 475 772
1671 2 2 5 3001 655 418 819
1672 2 2 5 3001 404 519 743
1673 2 2 5 3001 413 794 828
1674 2 2 5 3001 403 517 737
1675 2 2 5 3001 328 739 835
1676 2 2 5 3001 310 381 496
1677 2 2 5 3001 702 233 793
1678 2 2 5 3001 356 847 848
1679 2 2 5 3001 534 417 814
1680 2 2 5 3001 522 408 747
1681 2 2 5 3001 477 328 726
1682 2 2 5 3001 356 508 674
1683 2 2 5 3001 406 817 838
1684 2 2 5 3001 575 416 805
1685 2 2 5 3001 701 263 836
1686 2 2 5 3001 45 622 773
1687 2 2 5 3001 605 467 802
1688 2 2 5 3001 476 610 800
1689 2 2 5 3001 546 438 845
1690 2 2 5 3001 548 440 844
1691 2 2 5 3001 307 459 805
1692 2 2 5 3001 362 510 661
1693 2 2 5 3001 541 420 829
1694 2 2 5 3001 582 447 860
1695 2 2 5 3001 455 589 846
1696 2 2 5 3001 664 270 824
1697 2 2 5 3001 459 575 805
1698 2 2 5 3001 590 456 853
1699 2 2 5 3001 418 539 819
1700 2 2 5 3001 218 617 706
1701 2 2 5 3001 723 224 807
1702 2 2 5 3001 255 840 855
1703 2 2 5 3001 270 681 824
1704 2 2 5 3001 264 632 848
1705 2 2 5 3001 257 685 786
1706 2 2 5 3001 488 742 754
1707 2 2 5 3001 496 381 738
1708 2 2 5 3001 691 239 825
1709 2 2 5 3001 697 223 748
1710 2 2 5 3001 504 780 784
1711 2 2 5 3001 497 779 792
1712 2 2 5 3001 817 433 838
1713 2 2 5 3001 717 370 761
1714 2 2 5 3001 614 426 821
1715 2 2 5 3001 426 554 821
1716 2 2 5 3001 847 264 848
1717 2 2 5 3001 381 498 738
1718 2 2 5 3001 437 47 528
1719 2 2 5 3001 133 134 496
1720 2 2 5 3001 134 135 372
$EndElements
