$MeshFormat
4.1 0 8
$EndMeshFormat
$PhysicalNames
5
1 1 "Left"
1 2 "Right"
1 3 "Bottom"
1 4 "Top"
2 5 "Fluid"
$EndPhysicalNames
$Entities
0 4 1 0
1 0 0 0 40 0 0 1 3 0 
2 40 0 0 40 10 0 1 2 0 
3 0 10 0 40 10 0 1 4 0 
4 0 0 0 0 10 0 1 1 0 
1 0 0 0 40 10 0 1 5 0 
$EndEntities
$Nodes
5 419 1 419
1 1 0 21
1
2
3
4
5
6
7
8
9
10
11
12
13
14
15
16
17
18
19
20
21
0 0 0
40 0 0
1.999999999998205 0 0
3.999999999996757 0 0
5.999999999993141 0 0
7.999999999987307 0 0
9.999999999981473 0 0
11.99999999997564 0 0
13.9999999999698 0 0
15.99999999996411 0 0
17.9999999999666 0 0
19.99999999996964 0 0
21.99999999997269 0 0
23.99999999997573 0 0
25.99999999997878 0 0
27.99999999998182 0 0
29.99999999998487 0 0
31.99999999998791 0 0
33.99999999999093 0 0
35.99999999999396 0 0
37.99999999999698 0 0
1 2 0 5
22
23
24
25
26
40 10 0
40 1.999999999996827 0
40 3.999999999991027 0
40 5.999999999993932 0
40 7.999999999996978 0
1 3 0 20
27
28
29
30
31
32
33
34
35
36
37
38
39
40
41
42
43
44
45
46
0 10 0
37.99999999999999 10 0
35.99999999999999 10 0
33.99999999999999 10 0
31.99999999999998 10 0
29.99999999999998 10 0
27.99999999999998 10 0
25.99999999999997 10 0
23.99999999999996 10 0
21.99999999999996 10 0
19.99999999999996 10 0
17.99999999999995 10 0
15.99999999999995 10 0
13.99999999999995 10 0
11.99999999999994 10 0
9.999999999999936 10 0
7.999999999999929 10 0
5.99999999999995 10 0
3.999999999999964 10 0
1.999999999999986 10 0
1 4 0 4
47
48
49
50
0 7.999999999999996 0
0 5.999999999999991 0
0 3.999999999999988 0
0 1.999999999999982 0
2 1 0 369
51
52
53
54
55
56
57
58
59
60
61
62
63
64
65
66
67
68
69
70
71
72
73
74
75
76
77
78
79
80
81
82
83
84
85
86
87
88
89
90
91
92
93
94
95
96
97
98
99
100
101
102
103
104
105
106
107
108
109
110
111
112
113
114
115
116
117
118
119
120
121
122
123
124
125
126
127
128
129
130
131
132
133
134
135
136
137
138
139
140
141
142
143
144
145
146
147
148
149
150
151
152
153
154
155
156
157
158
159
160
161
162
163
164
165
166
167
168
169
170
171
172
173
174
175
176
177
178
179
180
181
182
183
184
185
186
187
188
189
190
191
192
193
194
195
196
197
198
199
200
201
202
203
204
205
206
207
208
209
210
211
212
213
214
215
216
217
218
219
220
221
222
223
224
225
226
227
228
229
230
231
232
233
234
235
236
237
238
239
240
241
242
243
244
245
246
247
248
249
250
251
252
253
254
255
256
257
258
259
260
261
262
263
264
265
266
267
268
269
270
271
272
273
274
275
276
277
278
279
280
281
282
283
284
285
286
287
288
289
290
291
292
293
294
295
296
297
298
299
300
301
302
303
304
305
306
307
308
309
310
311
312
313
314
315
316
317
318
319
320
321
322
323
324
325
326
327
328
329
330
331
332
333
334
335
336
337
338
339
340
341
342
343
344
345
346
347
348
349
350
351
352
353
354
355
356
357
358
359
360
361
362
363
364
365
366
367
368
369
370
371
372
373
374
375
376
377
378
379
380
381
382
383
384
385
386
387
388
389
390
391
392
393
394
395
396
397
398
399
400
401
402
403
404
405
406
407
408
409
410
411
412
413
414
415
416
417
418
419
6.92375369051265 4.780818499659887 0
13.01415585069813 4.805907567776135 0
33.10875366804025 5.185050584280587 0
27.02249768754406 4.975133515522837 0
21.25276871494838 4.941245872356513 0
17.02189179689304 5.790907384534306 0
36.44862411418951 3.592022007523495 0
3.551375885803723 3.592022007521539 0
9.999999999981007 3.399999999994254 0
30.25038611125911 6.704102143168321 0
23.75500767972444 6.690705787503178 0
9.767137565175403 6.798698549621498 0
24.16666666666677 3.299999999999741 0
30.05486493013912 3.37985184306796 0
3.211604852792737 6.865059252466049 0
36.78839514720821 6.865059252466612 0
15.66804763976546 3.25396682526692 0
18.60702179216694 3.190249925098083 0
14.55286655127485 7.267253128162169 0
19.42462053502617 7.185198400696925 0
5.834686385938459 7.167113046140067 0
34.0787180263717 7.017759645574408 0
6.987281002481456 2.354595258588856 0
12.9768332146831 1.746762941052092 0
26.99999999999998 7.600000000000942 0
27.01098430925394 2.346444128355594 0
33.08130157365006 1.807202293918523 0
21.1671389266967 2.433427785345292 0
11.89055918964851 7.546464019344005 0
21.89664740826032 7.63338127777789 0
32.0158468287226 7.794182841607091 0
7.904892342548058 7.84563249484508 0
1.899699225488655 5.106084529274161 0
38.10030077450942 5.106084529272463 0
4.876310981498895 5.383145772660641 0
35.12368901848983 5.383145772656445 0
35.0815286624126 1.926910828027215 0
4.918471337573323 1.926910828023669 0
37.87797619047635 2.122023809524003 0
2.12202380952148 2.122023809521371 0
16.99378097544967 8.614940531088635 0
19.0465026468155 5.309154753412555 0
15.08612670458062 5.31629733338526 0
17.13164530156409 1.90773346933382 0
29.00070958965406 1.790252473265713 0
23.16580778093368 4.904445713709597 0
29.12010719247425 4.955276202415628 0
11.22098731213124 5.371013628108497 0
11.07310370664134 1.765196721487248 0
9.009970388574326 1.810677656553893 0
28.90999037667288 8.220015405177808 0
25.01442580715689 8.210788299751918 0
22.870850592043 1.686496543642213 0
9.03285250691293 5.002887879071924 0
24.93082856267231 4.99305287728266 0
31.07333333333319 5.000000000000019 0
30.98896179915911 1.749938239349706 0
25.13527708841147 1.758967714419537 0
5.45143857957401 3.607498473290918 0
34.10679862305348 3.569442385375384 0
17.11657148910689 4.131211574524416 0
1.84149147727382 8.158508522726178 0
38.15850852272763 8.158508522727404 0
14.97635367575421 1.683516273680942 0
4.624531741439304 8.501049899653749 0
35.35502485107941 8.482350562881296 0
10.54313904675931 8.538195413090023 0
23.33321617902831 8.506975073006597 0
28.46059627359006 6.490905453257108 0
12.05165413410049 3.464813476402777 0
19.60898755567084 1.677580714459667 0
8.390771517692475 3.469795858773763 0
25.54455194741953 6.493936096012307 0
28.44183274181309 3.489391632525546 0
13.96219520326367 3.378544069594021 0
32.0690023212292 3.448580890998697 0
25.65325086290971 3.474719647116074 0
30.50749630119938 8.435109618916163 0
22.12490693545414 3.486664182217604 0
13.45410079578044 8.477100775432957 0
1.464894264667039 6.668773594547382 0
38.53510573533342 6.668773594546503 0
20.21550085177089 3.578868171736631 0
20.49648399353164 8.487175721291692 0
33.36140359296952 8.621760403381911 0
15.16619598055542 8.570299072446664 0
7.963333333322964 6.232506018154705 0
18.81974299052632 8.558302442176666 0
1.486818124467178 3.542152688675047 0
38.51318187553141 3.542152688675724 0
32.0717385681351 6.266175975013661 0
13.20313273401896 6.46400607536817 0
20.76178503710582 6.509655793473687 0
6.586982203621478 8.632821551485724 0
9.122769719263797 8.74586598869071 0
36.521175497432 1.430773123856835 0
3.478824502559363 1.430773123852032 0
22.16640332419453 6.135886888964173 0
36.61312270486258 5.279727573574018 0
3.386877295132093 5.27972757357505 0
16.13740574131736 7.103699574933299 0
17.90732411433801 7.093700514473731 0
20.99999999997116 1.016982348340391 0
3.099506531930549 8.782165099106699 0
36.86038570420305 8.701183667615062 0
38.88461143741175 1.115388562585487 0
1.115388562584664 1.11538856258545 0
6.995760334153968 0.7848650861962853 0
12.99227773820951 0.5822543136840307 0
26.99999999999998 9.200000000000314 0
27.00366143640484 0.782148042785198 0
33.02710052454297 0.6024007646395076 0
10.95956135565172 6.572058732357999 0
12.10489307859957 6.460494574273557 0
35.33026739735659 6.421988223565822 0
4.640867406743364 6.471772690422252 0
5.878250352650002 5.777025772820198 0
34.10372023763393 5.86198533417048 0
18.24687761906718 1.195104727931162 0
5.968584113349306 1.427168695537508 0
34.0542767453512 1.244704373981913 0
33.08640342084902 6.156328734956219 0
6.907257803258024 6.060145854651553 0
35.40737934155311 7.455056486974105 0
4.556940993390167 7.511074066086621 0
12.47942529894944 5.546975757084266 0
13.9843956301357 1.143426404911011 0
34.23880948134964 9.034703655421069 0
28.00389796629661 1.378898867207102 0
7.999083797014362 1.388424305047583 0
12.01664564043336 1.170653220846447 0
27.96999679222428 8.60667180172625 0
26.00480860238561 8.60359609991762 0
1.280497159091269 9.386169507575394 0
0.6138304924246066 8.719502840908724 0
38.71950284090921 9.386169507575801 0
39.38616950757588 8.719502840908127 0
18.44921821646729 2.258521369630524 0
27.49177157953703 3.603656425467992 0
26.56224428656924 3.598765763664835 0
6.454157757522705 3.580970743846553 0
26.04875379921473 1.368470614258377 0
32.0234211242657 1.18571351108941 0
7.433935403562194 3.535069872340836 0
26.52234987832119 6.356356537178695 0
27.49436465371137 6.355346322926962 0
33.09485153744097 4.067691286884889 0
33.08570083931091 2.941741856764201 0
5.737171315020244 9.044623817046492 0
32.72210114107647 7.026039487398386 0
11.47789941213592 8.694886477478009 0
29.99655712959935 1.180063570871806 0
34.26504882347355 8.040623537279204 0
21.19772550072447 4.002259408770249 0
4.874843913813073 9.50034996655125 0
35.11834161702647 9.494116854293765 0
7.234304020603161 7.081750519713284 0
13.97179403123366 2.269607761442352 0
10.02769136506571 1.191958126013714 0
22.4099545290962 8.713452116928162 0
12.44821999514296 8.674521598258986 0
39.36676692483648 5.035361509752474 0
0.6332330751628851 5.035361509758046 0
15.95691527781766 4.233825244392198 0
16.40819666352685 5.079472097481328 0
21.16918223797391 3.166320046433176 0
4.972823779187741 0.642303609341223 0
35.02717622079916 0.6423036093424049 0
10.73361193386108 7.627785994018509 0
16.63875481014548 3.097637289708385 0
17.61841286094597 3.07639832298544 0
21.46437713393064 8.706852333023194 0
19.74430273964916 6.334669649194389 0
24.0020425601434 1.148488086020583 0
30.01484543965077 2.306680851894459 0
14.86886550626111 2.772009056180627 0
5.682066776999747 8.100328165759848 0
22.99495708900436 7.610354046095888 0
16.99792699181652 9.538313510362878 0
10.02769136506556 2.325291459345132 0
22.60601947072643 6.819991318081748 0
19.20299585186902 0.5591935714865557 0
31.50778104330732 8.743097486841085 0
20.3536854662899 5.586685473080919 0
14.28070866329148 6.3491855123052 0
24.05759811570708 2.248488086020497 0
13.00933506268743 3.883088371257644 0
8.931599875662419 7.796732344385763 0
18.79281576539323 6.52935122286107 0
29.00023652987359 0.5967508244219043 0
31.44599050270561 6.921486986596359 0
17.04388176716493 0.6359111564446066 0
13.76780509643257 5.528736992176522 0
9.003323462847701 0.6035592188512976 0
11.02436790219948 0.5883989071624159 0
28.96999679222428 9.406671801725937 0
25.00480860238561 9.403596099917307 0
10.8477130155864 9.512731804363341 0
35.22637058524428 4.181536721851775 0
4.626375148958876 4.194222084491032 0
22.18116114377873 4.444118589427904 0
30.99632059971063 0.5833127464499021 0
25.04509236278866 0.586322571473179 0
12.99689418401575 2.863373495682963 0
35.21231713321853 3.029458406975365 0
4.640428600983685 3.042143769612041 0
30.92457641372703 7.644464867897192 0
37.68736892141012 4.080086408490561 0
2.312631078586519 4.080086408490248 0
3.982890575312136 2.316568653132413 0
36.01710942467803 2.316568653135848 0
23.95054800777681 5.529401459498479 0
30.14794221235552 5.553126115194655 0
24.08776767009092 4.399166196997332 0
30.08276848531552 4.445042681827869 0
10.08461327300839 4.591300502391558 0
10.00699246140652 5.724200018933973 0
3.050741399294855 2.381606313631647 0
36.94925860069929 2.381606313634778 0
5.750501083861852 4.590487581870481 0
34.11308043652785 4.712546247437472 0
32.45908347389737 8.805314414996333 0
36.17506895685354 5.842644199565691 0
3.824931043141242 5.842644199567246 0
16.03599965909414 1.197083247671587 0
17.72832197760514 5.077091237490426 0
18.25669864269645 4.210205417678352 0
38.79705268866925 2.554725499398851 0
1.202947311329553 2.5547254993988 0
22.95695019733047 0.5621655145474044 0
37.61326072673243 3.085399501907741 0
2.386739273264127 3.085399501905986 0
23.11107205967608 9.502325024335532 0
33.15198948268795 7.81123429685447 0
5.78573030654293 2.629668186634481 0
34.08987628637205 2.434518502440374 0
16.05332565200168 9.061746534511768 0
15.25879966572428 6.562416678826909 0
15.92534887236125 2.281738856093894 0
30.83583210039978 9.478369872972054 0
17.99190618601552 6.064587550806864 0
17.93784132199198 9.057747657755101 0
7.497291515389821 8.826151348776934 0
8.545121080348808 6.958945687540428 0
28.19481254061047 4.473267116821337 0
37.46638389596844 1.184265644460279 0
2.533616104026349 1.184265644457801 0
20.83216133117719 9.495725240430565 0
39.50439395851047 3.180717562887859 0
0.4956060414890593 3.180717562891672 0
13.15136693192678 9.492366925144319 0
16.08180808093034 6.070301430950956 0
9.811015443732837 8.027586650467411 0
0.4882980882223464 6.889591198182456 0
39.51170191177781 6.889591198179137 0
6.775520310702665 7.88185569749029 0
38.87116088334694 4.216079072646405 0
1.128839116651944 4.216079072649732 0
8.342554020603927 8.863832827845263 0
16.09912756577415 8.096313059489534 0
8.115792571706018 4.417834079168524 0
25.83262606587863 5.487374162939268 0
2.192066114316144 6.213305792095864 0
37.80793388568369 6.213305792095192 0
2.945984135474824 4.65927803679025 0
37.0540158645205 4.659278036789992 0
19.28967509691778 4.026090950082423 0
20.17159073784493 4.609756265835233 0
21.95695019732895 0.9011596306608679 0
21.67932983957029 1.712302225775965 0
1.121531163385231 5.924952707940512 0
38.87846883661428 5.924952707937632 0
36.84039183247431 0.476924374618945 0
3.159608167518108 0.476924374617344 0
2.832727124471162 5.750290451771754 0
37.16727287552674 5.750290451771032 0
12.09559909897662 4.54724489076247 0
28.20106705120279 5.473771723731858 0
24.11588066206172 8.905921124252838 0
3.938188054144904 4.751631784585743 0
36.0618119458473 4.751631784584653 0
14.90545651586992 3.982936076082067 0
14.02082591951414 4.500249656918473 0
31.1318193375758 5.990092706060667 0
17.90694936010467 8.088981162579678 0
1.102128580646953 7.609094039091185 0
38.89787141935368 7.609094039090295 0
2.717534287332369 7.935244291432975 0
37.2690964580463 7.90825048093636 0
24.03421655530321 7.802823053420564 0
14.99211789189604 0.5611720912269806 0
12.03386368514164 2.325591046314039 0
11.04158594690761 2.876670065961426 0
28.12352888342097 7.436973619478619 0
29.20699092050735 7.138341000534413 0
3.64521437538753 8.049424750408832 0
36.33460190083022 8.016197827654324 0
6.862327401207119 9.544273850495243 0
29.88929092971046 7.786409055754096 0
38.92086254262937 1.745804124035439 0
38.25419587596169 1.07913745736983 0
1.745804124034783 1.07913745736894 0
1.079137457368715 1.745804124035601 0
29.80582889262408 8.885041674697989 0
35.86756805327952 1.11922798396135 0
4.132431946709814 1.119227983958567 0
33.12046786432317 9.540586801127304 0
32.08369644086755 4.544543825093101 0
25.86885903770869 4.480968679973857 0
29.16580242053542 2.886498649619739 0
29.20560162147548 3.941506559336378 0
8.921107801803766 6.011364148949376 0
29.27702985910781 6.050094599613686 0
11.09088048207091 4.078609034835176 0
19.47717006653622 2.815566270431461 0
20.33054244471281 2.563292223847197 0
8.129340969582751 2.545022924638837 0
9.133580635415935 2.89349117177397 0
25.8529925848588 7.434908131921723 0
24.77132847810029 7.131810061089134 0
31.03760968350915 2.859456991138787 0
32.04642189801279 2.335240474755642 0
24.98506487266265 2.844562453845118 0
25.93317075352504 2.526710496630402 0
23.02907292828422 5.910346130058983 0
28.15117554690703 2.542029411382285 0
23.05414139805464 2.824386908619852 0
22.05429881806461 2.535529503735036 0
23.15246046101819 3.897036631975647 0
9.141208008195472 3.957561245946647 0
24.74346272993876 6.059231586932715 0
18.93991433017541 9.519434147392223 0
9.040923239754553 9.58195532956357 0
22.19499327335886 5.327192825010094 0
15.05539866018511 9.523433024148888 0
31.06573352823384 3.942810911355558 0
24.91691536408293 3.922590841466158 0
20.22762985522121 7.394009971820768 0
21.05163881296593 7.543404264181089 0
12.84926423981597 7.495856956715045 0
13.73670002702475 7.402786659654431 0
15.28548942438254 7.64708392518071 0
38.96153714580291 0.3717961875284956 0
39.62820381247058 1.038462854194105 0
0.3717961875282214 1.038462854195144 0
1.03846285419429 0.3717961875284834 0
17.02220721751614 6.662769157980446 0
17.01283694370168 7.604113540165222 0
3.033168843976833 9.594055033035566 0
36.95346190140101 9.567061222538355 0
20.99999999997116 0.3389941161134637 0
18.71722921329683 7.612400452449108 0
7.973313176916181 5.338737465628839 0
2.172663531577866 7.230780456579869 0
37.82733646842308 7.230780456580173 0
32.08460852316951 5.483742186431424 0
2.313666003068118 8.98022454061096 0
37.67296474231023 8.953230730114155 0
9.888636255341014 9.094687133926911 0
14.3910544425369 8.104884325347264 0
14.20676559211194 9.015799949293209 0
19.77207566135264 9.015159387822786 0
21.39365235874958 5.862262851598125 0
3.908012757789939 9.094404999586816 0
36.07180351842749 9.061178076832119 0
19.58028250636137 8.076892188055096 0
20.59204216077957 1.709330282715117 0
20.20299585187055 0.8981876876000193 0
21.60827858985356 6.759641320071917 0
$EndNodes
$Elements
5 836 1 836
1 1 1 20
1 1 3 
2 3 4 
3 4 5 
4 5 6 
5 6 7 
6 7 8 
7 8 9 
8 9 10 
9 10 11 
10 11 12 
11 12 13 
12 13 14 
13 14 15 
14 15 16 
15 16 17 
16 17 18 
17 18 19 
18 19 20 
19 20 21 
20 21 2 
1 2 1 5
21 2 23 
22 23 24 
23 24 25 
24 25 26 
25 26 22 
1 3 1 20
26 22 28 
27 28 29 
28 29 30 
29 30 31 
30 31 32 
31 32 33 
32 33 34 
33 34 35 
34 35 36 
35 36 37 
36 37 38 
37 38 39 
38 39 40 
39 40 41 
40 41 42 
41 42 43 
42 43 44 
43 44 45 
44 45 46 
45 46 27 
1 4 1 5
46 27 47 
47 47 48 
48 48 49 
49 49 50 
50 50 1 
2 1 2 786
51 5 6 158 
52 6 73 158 
53 73 5 158 
54 8 9 159 
55 9 74 159 
56 74 8 159 
57 33 34 160 
58 34 75 160 
59 75 33 160 
60 15 16 161 
61 16 76 161 
62 76 15 161 
63 18 19 162 
64 19 77 162 
65 77 18 162 
66 79 62 163 
67 62 98 163 
68 98 79 163 
69 79 98 164 
70 98 142 164 
71 142 79 164 
72 66 72 165 
73 72 86 165 
74 86 66 165 
75 71 65 166 
76 65 85 166 
77 85 71 166 
78 51 71 167 
79 71 85 167 
80 85 51 167 
81 72 53 168 
82 53 86 168 
83 86 72 168 
84 94 11 169 
85 11 121 169 
86 121 94 169 
87 5 73 170 
88 73 88 170 
89 88 5 170 
90 77 19 171 
91 19 87 171 
92 87 77 171 
93 53 72 172 
94 72 141 172 
95 141 53 172 
96 71 51 173 
97 51 137 173 
98 137 71 173 
99 72 66 174 
100 66 116 174 
101 116 72 174 
102 65 71 175 
103 71 115 175 
104 115 65 175 
105 98 52 176 
106 52 142 176 
107 142 98 176 
108 74 9 177 
109 9 114 177 
110 114 74 177 
111 116 30 178 
112 30 135 178 
113 135 116 178 
114 76 16 179 
115 16 95 179 
116 95 76 179 
117 73 6 180 
118 6 100 180 
119 100 73 180 
120 8 74 181 
121 74 99 181 
122 99 8 181 
123 33 75 182 
124 75 101 182 
125 101 33 182 
126 75 34 183 
127 34 102 183 
128 102 75 183 
129 46 27 184 
130 27 112 184 
131 112 46 184 
132 27 47 185 
133 47 112 185 
134 112 27 185 
135 22 28 186 
136 28 113 186 
137 113 22 186 
138 26 22 187 
139 22 113 187 
140 113 26 187 
141 68 94 188 
142 94 121 188 
143 121 68 188 
144 54 76 189 
145 76 124 189 
146 124 54 189 
147 76 54 190 
148 54 127 190 
149 127 76 190 
150 73 51 191 
151 51 109 191 
152 109 73 191 
153 15 76 192 
154 76 108 192 
155 108 15 192 
156 18 77 193 
157 77 107 193 
158 107 18 193 
159 51 73 194 
160 73 122 194 
161 122 51 194 
162 54 75 195 
163 75 123 195 
164 123 54 195 
165 75 54 196 
166 54 119 196 
167 119 75 196 
168 110 53 197 
169 53 126 197 
170 126 110 197 
171 77 110 198 
172 110 126 198 
173 126 77 198 
174 44 115 199 
175 115 144 199 
176 144 44 199 
177 72 81 200 
178 81 141 200 
179 141 72 200 
180 79 41 201 
181 41 117 201 
182 117 79 201 
183 95 17 202 
184 17 107 202 
185 107 95 202 
186 72 116 203 
187 116 135 203 
188 135 72 203 
189 129 55 204 
190 55 133 204 
191 133 129 204 
192 44 45 205 
193 45 115 205 
194 115 44 205 
195 29 30 206 
196 30 116 206 
197 116 29 206 
198 82 71 207 
199 71 137 207 
200 137 82 207 
201 74 114 208 
202 114 125 208 
203 125 74 208 
204 7 99 209 
205 99 100 209 
206 100 7 209 
207 36 80 210 
208 80 118 210 
209 118 36 210 
210 41 79 211 
211 79 130 211 
212 130 41 211 
213 24 25 212 
214 25 84 212 
215 84 24 212 
216 48 49 213 
217 49 83 213 
218 83 48 213 
219 93 67 214 
220 67 111 214 
221 111 93 214 
222 56 93 215 
223 93 111 215 
224 111 56 215 
225 78 129 216 
226 129 133 216 
227 133 78 216 
228 4 5 217 
229 5 88 217 
230 88 4 217 
231 19 20 218 
232 20 87 218 
233 87 19 218 
234 62 79 219 
235 79 117 219 
236 117 62 219 
237 67 94 220 
238 94 111 220 
239 111 67 220 
240 94 68 221 
241 68 111 221 
242 111 94 221 
243 80 36 222 
244 36 134 222 
245 134 80 222 
246 70 92 223 
247 92 143 223 
248 143 70 223 
249 103 14 224 
250 14 108 224 
251 108 103 224 
252 64 95 225 
253 95 107 225 
254 107 64 225 
255 114 67 226 
256 67 125 226 
257 125 114 226 
258 115 71 227 
259 71 144 227 
260 144 115 227 
261 80 61 228 
262 61 118 228 
263 118 80 228 
264 38 39 229 
265 39 91 229 
266 91 38 229 
267 99 59 230 
268 59 100 230 
269 100 99 230 
270 61 80 231 
271 80 148 231 
272 148 61 231 
273 11 12 232 
274 12 121 232 
275 121 11 232 
276 81 31 233 
277 31 128 233 
278 128 81 233 
279 92 55 234 
280 55 143 234 
281 143 92 234 
282 93 69 235 
283 69 142 235 
284 142 93 235 
285 63 103 236 
286 103 108 236 
287 108 63 236 
288 52 120 237 
289 120 125 237 
290 125 52 237 
291 82 62 238 
292 62 145 238 
293 145 82 238 
294 92 70 239 
295 70 152 239 
296 152 92 239 
297 16 17 240 
298 17 95 240 
299 95 16 240 
300 81 60 241 
301 60 141 241 
302 141 81 241 
303 10 11 242 
304 11 94 242 
305 94 10 242 
306 52 93 243 
307 93 142 243 
308 142 52 243 
309 6 7 244 
310 7 100 244 
311 100 6 244 
312 7 8 245 
313 8 99 245 
314 99 7 245 
315 32 33 246 
316 33 101 246 
317 101 32 246 
318 34 35 247 
319 35 102 247 
320 102 34 247 
321 41 42 248 
322 42 117 248 
323 117 41 248 
324 57 86 249 
325 86 110 249 
326 110 57 249 
327 85 58 250 
328 58 109 250 
329 109 85 250 
330 96 55 251 
331 55 129 251 
332 129 96 251 
333 17 18 252 
334 18 107 252 
335 107 17 252 
336 14 15 253 
337 15 108 253 
338 108 14 253 
339 120 74 254 
340 74 125 254 
341 125 120 254 
342 87 57 255 
343 57 110 255 
344 110 87 255 
345 58 88 256 
346 88 109 256 
347 109 58 256 
348 60 81 257 
349 81 128 257 
350 128 60 257 
351 84 57 258 
352 57 140 258 
353 140 84 258 
354 58 83 259 
355 83 139 259 
356 139 58 259 
357 88 58 260 
358 58 147 260 
359 147 88 260 
360 57 87 261 
361 87 146 261 
362 146 57 261 
363 61 96 262 
364 96 105 262 
365 105 61 262 
366 60 97 263 
367 97 106 263 
368 106 60 263 
369 96 63 264 
370 63 105 264 
371 105 96 264 
372 97 64 265 
373 64 106 265 
374 106 97 265 
375 59 98 266 
376 98 104 266 
377 104 59 266 
378 98 62 267 
379 62 104 267 
380 104 98 267 
381 58 90 268 
382 90 147 268 
383 147 58 268 
384 89 57 269 
385 57 146 269 
386 146 89 269 
387 51 85 270 
388 85 109 270 
389 109 51 270 
390 86 53 271 
391 53 110 271 
392 110 86 271 
393 31 81 272 
394 81 135 272 
395 135 31 272 
396 66 86 273 
397 86 149 273 
398 149 66 273 
399 85 65 274 
400 65 150 274 
401 150 85 274 
402 10 94 275 
403 94 114 275 
404 114 10 275 
405 92 56 276 
406 56 111 276 
407 111 92 276 
408 68 92 277 
409 92 111 277 
410 111 68 277 
411 89 23 278 
412 23 140 278 
413 140 89 278 
414 50 90 279 
415 90 139 279 
416 139 50 279 
417 13 14 280 
418 14 103 280 
419 103 13 280 
420 57 89 281 
421 89 140 281 
422 140 57 281 
423 90 58 282 
424 58 139 282 
425 139 90 282 
426 35 36 283 
427 36 118 283 
428 118 35 283 
429 81 72 284 
430 72 135 284 
431 135 81 284 
432 88 73 285 
433 73 109 285 
434 109 88 285 
435 77 87 286 
436 87 110 286 
437 110 77 286 
438 91 39 287 
439 39 136 287 
440 136 91 287 
441 69 93 288 
442 93 151 288 
443 151 69 288 
444 94 67 289 
445 67 114 289 
446 114 94 289 
447 31 32 290 
448 32 128 290 
449 128 31 290 
450 56 92 291 
451 92 152 291 
452 152 56 291 
453 38 91 292 
454 91 138 292 
455 138 38 292 
456 82 43 293 
457 43 144 293 
458 144 82 293 
459 62 82 294 
460 82 137 294 
461 137 62 294 
462 97 54 295 
463 54 124 295 
464 124 97 295 
465 21 89 296 
466 89 146 296 
467 146 21 296 
468 90 3 297 
469 3 147 297 
470 147 90 297 
471 36 37 298 
472 37 134 298 
473 134 36 298 
474 23 24 299 
475 24 140 299 
476 140 23 299 
477 49 50 300 
478 50 139 300 
479 139 49 300 
480 40 41 301 
481 41 130 301 
482 130 40 301 
483 93 56 302 
484 56 151 302 
485 151 93 302 
486 62 117 303 
487 117 145 303 
488 145 62 303 
489 47 48 304 
490 48 131 304 
491 131 47 304 
492 25 26 305 
493 26 132 305 
494 132 25 305 
495 71 82 306 
496 82 144 306 
497 144 71 306 
498 24 84 307 
499 84 140 307 
500 140 24 307 
501 83 49 308 
502 49 139 308 
503 139 83 308 
504 43 82 309 
505 82 145 309 
506 145 43 309 
507 91 136 310 
508 136 151 310 
509 151 91 310 
510 104 51 311 
511 51 122 311 
512 122 104 311 
513 105 54 312 
514 54 123 312 
515 123 105 312 
516 83 65 313 
517 65 131 313 
518 131 83 313 
519 66 84 314 
520 84 132 314 
521 132 66 314 
522 83 58 315 
523 58 150 315 
524 150 83 315 
525 57 84 316 
526 84 149 316 
527 149 57 316 
528 92 68 317 
529 68 133 317 
530 133 92 317 
531 55 92 318 
532 92 133 318 
533 133 55 318 
534 13 103 319 
535 103 153 319 
536 153 13 319 
537 103 78 320 
538 78 153 320 
539 153 103 320 
540 48 83 321 
541 83 131 321 
542 131 48 321 
543 84 25 322 
544 25 132 322 
545 132 84 322 
546 20 21 323 
547 21 146 323 
548 146 20 323 
549 3 4 324 
550 4 147 324 
551 147 3 324 
552 65 83 325 
553 83 150 325 
554 150 65 325 
555 84 66 326 
556 66 149 326 
557 149 84 326 
558 52 98 327 
559 98 120 327 
560 120 52 327 
561 54 97 328 
562 97 119 328 
563 119 54 328 
564 102 35 329 
565 35 118 329 
566 118 102 329 
567 58 85 330 
568 85 150 330 
569 150 58 330 
570 86 57 331 
571 57 149 331 
572 149 86 331 
573 67 93 332 
574 93 125 332 
575 125 67 332 
576 93 52 333 
577 52 125 333 
578 125 93 333 
579 60 106 334 
580 106 141 334 
581 141 60 334 
582 138 91 335 
583 91 152 335 
584 152 138 335 
585 112 47 336 
586 47 131 336 
587 131 112 336 
588 26 113 337 
589 113 132 337 
590 132 26 337 
591 112 65 338 
592 65 154 338 
593 154 112 338 
594 66 113 339 
595 113 155 339 
596 155 66 339 
597 61 102 340 
598 102 118 340 
599 118 61 340 
600 9 10 341 
601 10 114 341 
602 114 9 341 
603 99 74 342 
604 74 120 342 
605 120 99 342 
606 59 99 343 
607 99 120 343 
608 120 59 343 
609 101 75 344 
610 75 119 344 
611 119 101 344 
612 60 101 345 
613 101 119 345 
614 119 60 345 
615 65 115 346 
616 115 154 346 
617 154 65 346 
618 116 66 347 
619 66 155 347 
620 155 116 347 
621 43 44 348 
622 44 144 348 
623 144 43 348 
624 101 60 349 
625 60 128 349 
626 128 101 349 
627 23 89 350 
628 89 156 350 
629 156 23 350 
630 89 21 351 
631 21 156 351 
632 156 89 351 
633 3 90 352 
634 90 157 352 
635 157 3 352 
636 90 50 353 
637 50 157 353 
638 157 90 353 
639 32 101 354 
640 101 128 354 
641 128 32 354 
642 87 20 355 
643 20 146 355 
644 146 87 355 
645 4 88 356 
646 88 147 356 
647 147 4 356 
648 30 31 357 
649 31 135 357 
650 135 30 357 
651 53 106 358 
652 106 126 358 
653 126 53 358 
654 54 105 359 
655 105 127 359 
656 127 54 359 
657 95 64 360 
658 64 124 360 
659 124 95 360 
660 64 97 361 
661 97 124 361 
662 124 64 361 
663 104 62 362 
664 62 137 362 
665 137 104 362 
666 97 60 363 
667 60 119 363 
668 119 97 363 
669 98 59 364 
670 59 120 364 
671 120 98 364 
672 68 121 365 
673 121 133 365 
674 133 68 365 
675 121 78 366 
676 78 133 366 
677 133 121 366 
678 73 100 367 
679 100 122 367 
680 122 73 367 
681 100 59 368 
682 59 122 368 
683 122 100 368 
684 75 102 369 
685 102 123 369 
686 123 75 369 
687 102 61 370 
688 61 123 370 
689 123 102 370 
690 64 107 371 
691 107 126 371 
692 126 64 371 
693 107 77 372 
694 77 126 372 
695 126 107 372 
696 63 108 373 
697 108 127 373 
698 127 63 373 
699 108 76 374 
700 76 127 374 
701 127 108 374 
702 96 61 375 
703 61 148 375 
704 148 96 375 
705 76 95 376 
706 95 124 376 
707 124 76 376 
708 103 63 377 
709 63 129 377 
710 129 103 377 
711 78 103 378 
712 103 129 378 
713 129 78 378 
714 63 96 379 
715 96 129 379 
716 129 63 379 
717 59 104 380 
718 104 122 380 
719 122 59 380 
720 61 105 381 
721 105 123 381 
722 123 61 381 
723 37 38 382 
724 38 138 382 
725 138 37 382 
726 42 43 383 
727 43 145 383 
728 145 42 383 
729 55 96 384 
730 96 148 384 
731 148 55 384 
732 39 40 385 
733 40 136 385 
734 136 39 385 
735 106 64 386 
736 64 126 386 
737 126 106 386 
738 105 63 387 
739 63 127 387 
740 127 105 387 
741 134 70 388 
742 70 143 388 
743 143 134 388 
744 80 134 389 
745 134 143 389 
746 143 80 389 
747 130 79 390 
748 79 142 390 
749 142 130 390 
750 69 130 391 
751 130 142 391 
752 142 69 391 
753 136 69 392 
754 69 151 392 
755 151 136 392 
756 21 2 393 
757 2 156 393 
758 156 21 393 
759 2 23 394 
760 23 156 394 
761 156 2 394 
762 50 1 395 
763 1 157 395 
764 157 50 395 
765 1 3 396 
766 3 157 396 
767 157 1 396 
768 151 56 397 
769 56 152 397 
770 152 151 397 
771 91 151 398 
772 151 152 398 
773 152 91 398 
774 45 46 399 
775 46 154 399 
776 154 45 399 
777 28 29 400 
778 29 155 400 
779 155 28 400 
780 12 13 401 
781 13 153 401 
782 153 12 401 
783 70 138 402 
784 138 152 402 
785 152 70 402 
786 51 104 403 
787 104 137 403 
788 137 51 403 
789 65 112 404 
790 112 131 404 
791 131 65 404 
792 113 66 405 
793 66 132 405 
794 132 113 405 
795 106 53 406 
796 53 141 406 
797 141 106 406 
798 46 112 407 
799 112 154 407 
800 154 46 407 
801 113 28 408 
802 28 155 408 
803 155 113 408 
804 117 42 409 
805 42 145 409 
806 145 117 409 
807 130 69 410 
808 69 136 410 
809 136 130 410 
810 40 130 411 
811 130 136 411 
812 136 40 411 
813 134 37 412 
814 37 138 412 
815 138 134 412 
816 143 55 413 
817 55 148 413 
818 148 143 413 
819 115 45 414 
820 45 154 414 
821 154 115 414 
822 29 116 415 
823 116 155 415 
824 155 29 415 
825 70 134 416 
826 134 138 416 
827 138 70 416 
828 78 121 417 
829 121 153 417 
830 153 78 417 
831 121 12 418 
832 12 153 418 
833 153 121 418 
834 80 143 419 
835 143 148 419 
836 148 80 419 
$EndElements
