$MeshFormat
2.2 0 8
$EndMeshFormat
$PhysicalNames
5
1 1 "Left"
1 2 "Right"
1 3 "Bottom"
1 4 "Top"
2 5 "Fluid"
$EndPhysicalNames
$Nodes
571
1 0 0 0
2 40 0 0
3 40 10 0
4 0 10 0
5 0.999999999999276 0 0
6 1.999999999998205 0 0
7 2.999999999997454 0 0
8 3.999999999996757 0 0
9 4.999999999995886 0 0
10 5.999999999993141 0 0
11 6.999999999990224 0 0
12 7.999999999987307 0 0
13 8.999999999984389 0 0
14 9.999999999981473 0 0
15 10.99999999997856 0 0
16 11.99999999997564 0 0
17 12.99999999997272 0 0
18 13.9999999999698 0 0
19 14.99999999996689 0 0
20 15.99999999996411 0 0
21 16.99999999996507 0 0
22 17.9999999999666 0 0
23 18.99999999996812 0 0
24 19.99999999996964 0 0
25 20.99999999997116 0 0
26 21.99999999997269 0 0
27 22.99999999997421 0 0
28 23.99999999997573 0 0
29 24.99999999997726 0 0
30 25.99999999997878 0 0
31 26.9999999999803 0 0
32 27.99999999998182 0 0
33 28.99999999998334 0 0
34 29.99999999998487 0 0
35 30.99999999998639 0 0
36 31.99999999998791 0 0
37 32.99999999998942 0 0
38 33.99999999999093 0 0
39 34.99999999999245 0 0
40 35.99999999999396 0 0
41 36.99999999999547 0 0
42 37.99999999999698 0 0
43 38.99999999999849 0 0
44 40 0.9999999999991893 0
45 40 1.999999999996827 0
46 40 2.99999999999391 0
47 40 3.999999999991027 0
48 40 4.999999999992411 0
49 40 5.999999999993932 0
50 40 6.999999999995455 0
51 40 7.999999999996978 0
52 40 8.99999999999849 0
53 39 10 0
54 37.99999999999999 10 0
55 36.99999999999999 10 0
56 35.99999999999999 10 0
57 34.99999999999999 10 0
58 33.99999999999999 10 0
59 32.99999999999999 10 0
60 31.99999999999998 10 0
61 30.99999999999998 10 0
62 29.99999999999998 10 0
63 28.99999999999998 10 0
64 27.99999999999998 10 0
65 26.99999999999997 10 0
66 25.99999999999997 10 0
67 24.99999999999997 10 0
68 23.99999999999996 10 0
69 22.99999999999996 10 0
70 21.99999999999996 10 0
71 20.99999999999996 10 0
72 19.99999999999996 10 0
73 18.99999999999996 10 0
74 17.99999999999995 10 0
75 16.99999999999995 10 0
76 15.99999999999995 10 0
77 14.99999999999995 10 0
78 13.99999999999995 10 0
79 12.99999999999994 10 0
80 11.99999999999994 10 0
81 10.99999999999994 10 0
82 9.999999999999936 10 0
83 8.999999999999936 10 0
84 7.999999999999929 10 0
85 6.999999999999936 10 0
86 5.99999999999995 10 0
87 4.999999999999957 10 0
88 3.999999999999964 10 0
89 2.999999999999972 10 0
90 1.999999999999986 10 0
91 0.9999999999999858 10 0
92 0 8.999999999999998 0
93 0 7.999999999999996 0
94 0 6.999999999999994 0
95 0 5.999999999999991 0
96 0 4.999999999999989 0
97 0 3.999999999999988 0
98 0 2.999999999999985 0
99 0 1.999999999999982 0
100 0 0.9999999999999911 0
101 6.502703454473432 5.010509460685944 0
102 12.49999999997419 4.999999999998785 0
103 34.51427421235928 5.133333699280009 0
104 28.64220300810908 5.133461702114575 0
105 22.71350291200751 5.068245248596682 0
106 17.55528409528019 5.079210304490539 0
107 3.443665485127661 3.388912384395192 0
108 9.447623649053181 3.401799298197357 0
109 31.5 6.625000000000241 0
110 25.55259918404059 6.59887892156001 0
111 9.478761407753803 6.837878979227359 0
112 25.52123859223006 3.162121020774279 0
113 31.53463087116527 3.164892902722014 0
114 3.499999999999968 6.731839715750358 0
115 15.00941396506297 3.129706982543922 0
116 19.99058603491212 3.129706982544461 0
117 14.98886166698018 6.913814485626133 0
118 20.03946427996148 6.850611354658874 0
119 36.91666666666671 3.083333333333567 0
120 36.91666666666667 6.916666666666815 0
121 5.953411740566589 2.684970998438682 0
122 12.0625366979665 2.376089103542462 0
123 33.82374461318798 7.634404029803359 0
124 29.1026896472783 7.433142859558583 0
125 22.94022116603681 7.625938376806022 0
126 17.52364678800138 2.52297190505843 0
127 6.985127716565613 7.388279302050498 0
128 11.91779594323141 7.466779594325547 0
129 28.01760792782438 2.614253927878272 0
130 33.91779594322416 2.533220405677907 0
131 22.85142442131258 2.457194080189507 0
132 17.49999999999996 7.537625628133538 0
133 37.83163061561503 5.000784325816573 0
134 2.116422177035266 5.080741370239576 0
135 7.883924617513187 2.079124421119859 0
136 27.09481522372548 7.937026567233271 0
137 29.89512198951876 2.036148235844002 0
138 5.112451762880164 7.970077080348335 0
139 1.982904340673586 2.002934021027876 0
140 1.936019829224007 8.157306062951227 0
141 4.401577200644613 5.027782287380582 0
142 8.46214131288542 5.040683962265318 0
143 26.51650916360628 4.954715460864687 0
144 32.48488989962991 5.019490644566173 0
145 10.45629067245166 5.008145405962034 0
146 30.50198985562783 5.00069140136663 0
147 24.52229138102 5.011533727308022 0
148 14.45313720708074 5.001952941891886 0
149 19.49744325723428 4.972379505332933 0
150 13.66953600542211 1.783677029374698 0
151 21.36964882726485 8.16521396354797 0
152 21.32306162735137 1.779105971246472 0
153 13.58802136581476 8.30690139475754 0
154 35.60274569838903 8.27532602797168 0
155 35.58631070042104 1.700334451556572 0
156 38.15218814594538 1.65455247686513 0
157 38.37246884777164 8.340982899721849 0
158 4.122035561557471 1.690915661089695 0
159 10.29384017208656 1.721520808080617 0
160 32.20076394386038 8.248338335231963 0
161 24.70005348987208 8.283828104885185 0
162 8.648564379629478 8.306434292949408 0
163 26.35170536334561 1.693689403697194 0
164 32.31246807974475 1.684196608737985 0
165 10.39499570903854 8.349503290002353 0
166 24.60434643404761 1.650626789670569 0
167 36.18130630630631 4.638023893458938 0
168 19.02780675622681 1.712817937934139 0
169 15.97219324371968 1.712817937925218 0
170 15.90860957709886 8.320642878029997 0
171 19.11126251747872 8.252553823635532 0
172 30.52680781096692 8.458209207853177 0
173 21.69211990106585 3.621704553120177 0
174 13.30981357812004 6.428998930416506 0
175 13.16187479379605 3.568707310091126 0
176 21.85101621413379 6.612008970651535 0
177 35.28733775550238 6.518838534415853 0
178 27.49361274189802 6.497147327266061 0
179 5.553736433550061 6.367081571777014 0
180 29.45326111389976 3.638435353004921 0
181 7.501793761397914 3.658195886900903 0
182 15.98474472998983 4.398306855397019 0
183 1.619839450399547 3.539673959491025 0
184 3.555150979420435 8.436422861841928 0
185 16.44553187960488 6.288635688026005 0
186 38.45979022008068 3.500097682354691 0
187 38.45625498987756 6.516218900425122 0
188 18.53815463879576 6.414195961815772 0
189 18.50992506120012 3.721638778841695 0
190 35.22298028788919 3.421624352892859 0
191 1.509219742903937 6.484194429723738 0
192 20.95931295972025 5.192041775514776 0
193 33.05469433852685 6.300979441065757 0
194 10.93615619500107 3.636333893511668 0
195 30.06991021657807 6.355591521486039 0
196 24.04052542392208 6.363705505196507 0
197 5.402881153325552 3.90929492028169 0
198 11.54081183146079 6.075709531791537 0
199 23.45918816851289 3.924290468208919 0
200 7.514850602536464 6.053085630479963 0
201 33.54081183148927 3.924290468214457 0
202 27.54081183149009 3.924290468216292 0
203 6.667196036379391 1.331809352489332 0
204 28.31846401490419 8.63019166173029 0
205 28.73323253780578 1.294947317828598 0
206 6.334064349967816 8.644942295719609 0
207 36.8937588750273 8.629982390821223 0
208 36.98263991446467 1.324931187235925 0
209 9.040708066537453 1.338250045700858 0
210 12.22126321702419 1.356272797593144 0
211 22.57496915855231 1.281736408518751 0
212 22.78278479837264 8.646897055294909 0
213 12.41469950620179 8.718598847610826 0
214 31.07914813438821 1.341030795471544 0
215 33.51709678346712 8.750091159275199 0
216 16.34675669147702 3.123093198087648 0
217 34.53908566321404 1.370837174611064 0
218 25.93566284386764 8.679575901127905 0
219 17.49999999996787 0.9916279836893657 0
220 5.218658582026324 1.220960513094655 0
221 17.4999999999982 9.095831118428922 0
222 14.87950136941656 1.247199555185329 0
223 20.13281017745051 8.753167679101065 0
224 4.576532991269265 3.198524936607752 0
225 20.11466539964624 1.243544416823021 0
226 14.83032361387589 8.68839850610904 0
227 28.84673873373381 5.985693578479439 0
228 8.277763527055399 7.044162818511874 0
229 26.72223647292714 2.955837181497941 0
230 32.7222364729336 2.955837181490923 0
231 10.72147869633136 6.976767779823158 0
232 24.27858097335248 3.023339902225633 0
233 3.330299866498496 4.672052527980366 0
234 2.987280952034022 1.294100069533016 0
235 27.30793197125973 1.005656268897529 0
236 7.69391205440778 8.994622306849433 0
237 36.98917230819224 5.814500689409543 0
238 12.1258326020759 3.927709536490634 0
239 22.85284304525422 6.173898016615011 0
240 29.46190689604677 8.972652472277606 0
241 15.40581905332989 5.745027491554524 0
242 33.98813608206348 6.038066785181444 0
243 17.23964626224209 3.824685709947512 0
244 1.170650707026852 1.17065070702673 0
245 1.176064130361948 8.88173070340625 0
246 11.22408609509089 1.075228750607143 0
247 23.77482606139522 8.928026167049802 0
248 31.4999999999998 5.468822176413642 0
249 25.57483204477176 5.491892634364136 0
250 9.418139374535871 4.510860179730294 0
251 34.66416774769315 8.893815086626869 0
252 38.93538495423376 4.517907710960094 0
253 1.084660989645575 4.61801587313598 0
254 20.18591115393023 4.194000906787527 0
255 4.559676720221693 8.957531176226931 0
256 6.775932882936115 2.762218700696524 0
257 4.608840029963932 7.009633136502659 0
258 33.50784481085186 1.010317545205131 0
259 30.40464462235142 3.038727997671503 0
260 1.04408448664424 2.585459591461995 0
261 8.43621196548365 3.001332867424715 0
262 2.542368852232752 6.149142692276958 0
263 9.506484989452114 8.971757073262964 0
264 25.49267945039809 1.028095519440157 0
265 2.66843819472567 9.062482212692414 0
266 23.50253446361288 1.003979904221327 0
267 26.55050225976082 7.038738700908225 0
268 11.43062281747828 9.112247977250165 0
269 3.056535517695115 2.377109758592116 0
270 31.43305063845216 9.058203370835171 0
271 28.06214880397494 7.327764516929294 0
272 1.004470014515979 7.429163596507006 0
273 37.16550170860513 4.152287032159858 0
274 39.01466781139166 7.438007316392069 0
275 39.00171879979141 2.59610174436225 0
276 9.437939471167581 5.586531318275267 0
277 25.56984945222851 4.406379590845985 0
278 31.59181969362172 4.394484513471062 0
279 28.94826593564097 2.627643706906481 0
280 29.52238283642025 5.485156949766988 0
281 6.057490324088345 7.376669545516849 0
282 7.617205671553874 1.182436864616711 0
283 30.67609657795311 7.319858042285549 0
284 20.03249852712336 5.768924330338723 0
285 35.49751682456336 5.484968436609389 0
286 13.47613530395581 5.434319376949021 0
287 27.49872279402966 8.987572112909382 0
288 15.97335497612995 7.297774254579418 0
289 14.23458257496984 3.824043571742945 0
290 18.49513967979811 2.676606087390933 0
291 3.679545782450017 5.686447621397528 0
292 4.31562369441982 4.041729182258388 0
293 29.65530290122457 1.160059743463463 0
294 14.30516750195506 6.089400850660724 0
295 25.66629511603515 7.633059797636507 0
296 38.98229108741622 1.077909825867975 0
297 38.94519739650021 8.9451973965003 0
298 18.4497140431463 7.396501990888715 0
299 9.322239268824875 2.385021716652423 0
300 38.89676746129575 5.637014103427085 0
301 11.51118914819879 4.647041147397229 0
302 2.507619266125003 3.997269344161705 0
303 10.33641108957056 6.069446408773056 0
304 24.52004021182968 4.025850623405995 0
305 23.48860081778099 5.342829151439169 0
306 17.46109774453456 6.064148726438946 0
307 2.937263276597255 7.603230560539904 0
308 33.47345542239647 5.316253397726657 0
309 6.241845241254748 3.594705620440794 0
310 0.9687857127115379 5.64371463086582 0
311 5.440872956236141 5.320493326403571 0
312 12.98234124522232 2.580170199081781 0
313 27.4956697268339 5.332309971125372 0
314 9.518767983275998 7.934212609207258 0
315 25.48102807103408 2.065805118964685 0
316 32.86887649511547 7.390103402653677 0
317 10.91656950840288 2.61266565812609 0
318 24.08237216316794 7.387922812779209 0
319 7.506883821986478 4.71724122444981 0
320 22.05297180226089 7.431653143661484 0
321 21.92134738040938 2.646107472416349 0
322 14.08162194158879 2.710042967163618 0
323 20.89017850461607 2.692973946555564 0
324 12.94234823846835 7.33550640794675 0
325 31.51446156171587 2.228139805922761 0
326 20.94721823913679 7.337647283583911 0
327 13.91475862801021 7.164359365156582 0
328 18.53290271025138 4.757864341204343 0
329 34.91316364932444 7.443495321046759 0
330 35.93160527463417 7.211752660131872 0
331 8.368013738894716 6.125124996526699 0
332 32.63681101113107 3.876252239232946 0
333 26.61309673117882 3.89961740753091 0
334 26.53062085348523 5.985613836014747 0
335 8.462132314223751 4.055018903161399 0
336 28.34540663477758 3.508875218650294 0
337 6.715205958893263 6.454817010861007 0
338 16.42143496249751 5.283609951157202 0
339 16.51795787190368 9.114821693160126 0
340 18.46036989361983 9.108892128626801 0
341 18.48131302426805 0.8952963941665735 0
342 16.51832694194903 0.8955165208837986 0
343 30.60635558135385 3.976485182444202 0
344 34.49168333111718 4.097192313226415 0
345 13.36395646835646 0.8797758026173116 0
346 21.67716882249504 0.8738321295161529 0
347 37.84443655083854 7.270563449161628 0
348 37.87555871317652 2.757357542546459 0
349 21.64031440012872 9.120196307077345 0
350 13.29103480850891 9.293969517382319 0
351 36.0270143706631 2.667484281256043 0
352 22.69293055486722 3.336506705698883 0
353 12.31572298210058 6.662436507490064 0
354 5.628016105617313 9.033169606883531 0
355 34.80665847695037 2.383139751182765 0
356 4.432275780345813 0.8117858484807967 0
357 35.37542510468018 0.7593368299159784 0
358 19.88495484458057 2.165933752691631 0
359 15.11600198500289 2.166583920567221 0
360 31.80446885829394 7.451011417906585 0
361 37.54054476985805 9.106591159985898 0
362 15.21109785016155 7.826432849175285 0
363 2.110390545864483 0.8947190178273854 0
364 20.02862217127264 7.760543974576111 0
365 37.75158721950943 0.8794753434804338 0
366 32.53275743712628 9.032827366525972 0
367 13.43312856256011 4.517934785513225 0
368 21.80649693342723 4.661413108229386 0
369 4.595133041280494 6.015987566492353 0
370 2.394130086038346 2.997151819941108 0
371 36.15064297438062 3.715642053033292 0
372 36.05855210738696 9.068159597041177 0
373 8.549851631927014 9.237947895334107 0
374 26.45033096927453 0.7620885139652097 0
375 9.786415234612178 0.7494544128376792 0
376 25.20529666385655 9.256617377730796 0
377 19.3408885177098 9.222922726272678 0
378 37.94734658671656 5.916814353949117 0
379 15.67400431100325 0.7711068027988692 0
380 31.82413954541496 0.7921859660730954 0
381 15.65137821257566 9.224772615459832 0
382 3.793076432160713 7.59614825321824 0
383 19.32475703601578 0.7703317497847467 0
384 19.32782597880485 4.022907034453984 0
385 36.13566648252126 6.217685795360079 0
386 21.83246731294336 5.681196605952292 0
387 29.59751538148901 4.57877275572681 0
388 24.51991206960231 0.7365404426664108 0
389 35.30168146504515 4.48672278199171 0
390 10.46642070319376 9.286701668103097 0
391 16.87793400183223 8.144618033559361 0
392 17.98321340934587 8.256003787212144 0
393 30.48435306909316 9.297813010193192 0
394 17.98261155014573 1.773319036654209 0
395 17.03215668100967 1.738206511652729 0
396 5.011579204399379 2.334372906804586 0
397 2.254041176186947 7.028954703383782 0
398 33.17171215667726 2.113127363551604 0
399 7.855928269152028 7.767678540612207 0
400 27.14562689296803 2.232804051244322 0
401 11.34246446649932 7.928732401296354 0
402 23.78329772678075 2.14081429533856 0
403 15.13725212584276 4.080952570199738 0
404 36.55347418326391 7.814955418914924 0
405 37.11958012327565 2.222226461920233 0
406 19.39032467235966 6.286856413113567 0
407 29.76076440434083 7.964274546723587 0
408 0.7497169853378726 3.548629884817795 0
409 20.90593974815479 6.280167185637544 0
410 3.499999999999968 9.297183668184514 0
411 10.13666179711136 3.953088911785816 0
412 30.8633382028708 6.046911088207042 0
413 32.23697334414847 5.999876297118732 0
414 24.83962853323121 6.049195998478327 0
415 3.964894628870711 2.596222770080452 0
416 30.41063816203312 0.7868318768701409 0
417 12.55720246424037 5.825816826133012 0
418 39.29015577062639 3.516301019663844 0
419 39.28598381183481 6.513034331460436 0
420 18.19398086670628 5.557513261423454 0
421 8.435526996145825 0.7209864577985297 0
422 28.85249262794191 4.239927433307029 0
423 26.62677483077334 9.252720206037825 0
424 15.35851801901969 4.909033340693108 0
425 16.86999590315477 7.044458787734328 0
426 34.2409811732811 3.252809164432863 0
427 20.75065508631719 3.587777033833807 0
428 36.3281745157166 0.763406299194924 0
429 16.88286547856237 4.478618752486443 0
430 37.9966331508373 4.162735494641515 0
431 19.1655321265366 3.213745316422946 0
432 0.6793108169156383 6.505823740520052 0
433 2.898982480247495 5.401896934624218 0
434 34.43872358706179 8.130203612251883 0
435 17.79281188618624 6.86601965078403 0
436 24.89003077304978 7.158557166088284 0
437 17.82007852803176 3.300395067678464 0
438 10.10773667049654 2.846200583880537 0
439 23.66101281373884 8.100313801436402 0
440 6.217756481571818 5.764231617623425 0
441 3.708318458786304 0.7593603158207016 0
442 11.3389630063736 1.901855861989297 0
443 5.986838425079711 0.8327944603873996 0
444 22.6994606269407 4.212355964864202 0
445 15.80199013472699 2.682426337891327 0
446 29.7987982218267 7.132753400571548 0
447 32.29300260721694 6.753394111748998 0
448 30.6981333432152 2.257626573817125 0
449 15.69102572767051 6.509347987963181 0
450 10.54772486081173 0.6954237992910925 0
451 37.68283009187328 3.531162217007219 0
452 1.839397044086712 4.366136332220842 0
453 19.30315937165972 7.238683668152311 0
454 28.206667299063 1.78256379714756 0
455 6.806631534444875 8.210744389416661 0
456 37.40462374197321 8.0338234488101 0
457 28.25798291332622 0.7900547931886857 0
458 39.23851847153733 8.211374499496262 0
459 39.23851847154052 1.788625500498931 0
460 6.054847936973371 1.844844742637785 0
461 8.631137233058888 2.057980082091635 0
462 36.40874392490821 1.73567653623274 0
463 6.871534571611671 9.221969570693552 0
464 36.92355348400972 4.90200594982714 0
465 28.09589078072371 5.819442889318997 0
466 0.7714188788343977 1.84800179013165 0
467 28.49999999999995 9.394320303388618 0
468 24.44370731261365 9.310211835735741 0
469 1.784199121220873 5.839448280776522 0
470 1.835298881213314 9.234739054270758 0
471 4.350174270633715 8.124668748807395 0
472 18.95498458393725 5.607787628077888 0
473 28.90419142013943 8.171013673430746 0
474 33.62525128088078 6.847236035156637 0
475 23.30591449946583 6.888419434635939 0
476 11.68495479275485 3.131304392398528 0
477 5.423055437929184 3.157030382796489 0
478 32.58300334473383 0.681031365938485 0
479 34.41279706482435 6.725595123433651 0
480 12.79601827702513 4.260730080704056 0
481 11.81281577421743 5.398777576904176 0
482 26.34181451579969 7.977820449466035 0
483 33.04563325697808 8.140331333813496 0
484 11.51784370723371 6.934180089473296 0
485 7.534042830972987 6.842612304598074 0
486 23.41308436896519 2.976429090332301 0
487 33.46595716901643 3.157387695402778 0
488 27.465957169011 3.157387695405435 0
489 23.76909270363417 4.627439031073135 0
490 7.096533036145331 1.978301135475919 0
491 20.22048496136159 4.993408634890337 0
492 7.650998414270012 2.797636478568795 0
493 34.81334293236116 5.899807440450329 0
494 35.36786805571861 9.281597094082237 0
495 5.891361266683461 4.430763312302913 0
496 20.612836226071 8.085604005237697 0
497 33.83055213513893 4.605394617265588 0
498 14.3984003792093 1.725075747266497 0
499 20.76474384386068 0.8091083184038368 0
500 6.812209422180327 4.311321874468792 0
501 14.23837087083109 0.7755108217169849 0
502 27.23260294929111 4.546973423813638 0
503 14.17090796375337 9.265411950710931 0
504 27.84320772178451 8.042524566475427 0
505 22.60059334543031 6.946383588473998 0
506 0.7206376686174103 8.226121670742835 0
507 14.40983256841589 7.863592138526399 0
508 20.7669181609618 9.216118683807743 0
509 20.59552084401099 1.738133281144105 0
510 7.054666223225469 5.578467484404866 0
511 17.01068336270372 3.196172232568311 0
512 12.40350802636312 3.116796108320906 0
513 11.8729747670856 0.7064386369085742 0
514 23.13269144841814 9.295471758243176 0
515 27.30402876785651 7.252500512627575 0
516 29.12253016762743 1.850432813463383 0
517 5.899153309577011 8.141570818666366 0
518 34.48890793981611 0.6053962787251737 0
519 26.17187889944763 2.458777264476008 0
520 8.828121100536318 7.541222735527316 0
521 12.89949050389873 1.843782819286217 0
522 12.49999999999994 9.454009743561732 0
523 22.12349621053919 1.829270326879889 0
524 22.51856213151425 0.5770137600405717 0
525 32.84571012108415 5.630661147630145 0
526 22.10777348543854 8.163653002418471 0
527 0.7097898748322422 0.5704865142112147 0
528 30.33940343993472 1.492547845185382 0
529 12.44106590404313 7.951303729187403 0
530 24.16555737506835 5.633856800731971 0
531 5.090463254261918 4.546012605725429 0
532 17.81508139690898 4.323544168864297 0
533 10.8309159607503 4.36514297747214 0
534 28.10314753466126 4.384077787650916 0
535 8.303754859318252 1.464274237624884 0
536 29.67532341535273 2.835238823356727 0
537 32.18443545501959 2.454828150648301 0
538 5.333129637620625 7.180865333536214 0
539 0.6393453048684975 9.360654695131496 0
540 11.13150370317985 5.439824014165607 0
541 31.32125046545749 8.156902297114074 0
542 30.21815892788745 5.68310530037528 0
543 34.03510407294175 9.336145559262167 0
544 6.978368299496814 0.7312657894100414 0
545 7.825042999490519 5.487246848704703 0
546 36.70195891459466 9.340934291417522 0
547 33.19330405995713 4.548336273401165 0
548 15.78632799854921 3.547897962175352 0
549 16.54183742058737 3.761462451777047 0
550 1.499999999998741 0.5248764756504527 0
551 24.74431968673551 2.401520715729909 0
552 10.25568031324574 7.598479284274153 0
553 26.69948851596944 8.596453016151834 0
554 36.34544308111858 5.411436952933017 0
555 29.12930367046496 0.6490123708961493 0
556 22.43413294471048 9.408151745478657 0
557 20.93583016597039 4.375057668729334 0
558 19.29443316641922 2.556925172963191 0
559 12.57020417059589 0.5928196195133812 0
560 33.8964776722154 1.816077870373186 0
561 38.39184014697683 9.400231819219542 0
562 23.02871583718528 1.79806371364972 0
563 29.32682049118435 6.555759221698485 0
564 1.75578432759863 2.704159878676403 0
565 38.39630174669268 0.5957701887175348 0
566 2.774218069991842 8.314860424506367 0
567 16.61457115027307 2.49594802053061 0
568 37.59753401873286 6.549941026817864 0
569 28.48798353313219 6.603158398875143 0
570 39.44790405769006 0.5520959423088763 0
571 39.44790405769118 9.447904057690497 0
$EndNodes
$Elements
1140
1 1 2 3 1 1 5
2 1 2 3 1 5 6
3 1 2 3 1 6 7
4 1 2 3 1 7 8
5 1 2 3 1 8 9
6 1 2 3 1 9 10
7 1 2 3 1 10 11
8 1 2 3 1 11 12
9 1 2 3 1 12 13
10 1 2 3 1 13 14
11 1 2 3 1 14 15
12 1 2 3 1 15 16
13 1 2 3 1 16 17
14 1 2 3 1 17 18
15 1 2 3 1 18 19
16 1 2 3 1 19 20
17 1 2 3 1 20 21
18 1 2 3 1 21 22
19 1 2 3 1 22 23
20 1 2 3 1 23 24
21 1 2 3 1 24 25
22 1 2 3 1 25 26
23 1 2 3 1 26 27
24 1 2 3 1 27 28
25 1 2 3 1 28 29
26 1 2 3 1 29 30
27 1 2 3 1 30 31
28 1 2 3 1 31 32
29 1 2 3 1 32 33
30 1 2 3 1 33 34
31 1 2 3 1 34 35
32 1 2 3 1 35 36
33 1 2 3 1 36 37
34 1 2 3 1 37 38
35 1 2 3 1 38 39
36 1 2 3 1 39 40
37 1 2 3 1 40 41
38 1 2 3 1 41 42
39 1 2 3 1 42 43
40 1 2 3 1 43 2
41 1 2 2 2 2 44
42 1 2 2 2 44 45
43 1 2 2 2 45 46
44 1 2 2 2 46 47
45 1 2 2 2 47 48
46 1 2 2 2 48 49
47 1 2 2 2 49 50
48 1 2 2 2 50 51
49 1 2 2 2 51 52
50 1 2 2 2 52 3
51 1 2 4 3 3 53
52 1 2 4 3 53 54
53 1 2 4 3 54 55
54 1 2 4 3 55 56
55 1 2 4 3 56 57
56 1 2 4 3 57 58
57 1 2 4 3 58 59
58 1 2 4 3 59 60
59 1 2 4 3 60 61
60 1 2 4 3 61 62
61 1 2 4 3 62 63
62 1 2 4 3 63 64
63 1 2 4 3 64 65
64 1 2 4 3 65 66
65 1 2 4 3 66 67
66 1 2 4 3 67 68
67 1 2 4 3 68 69
68 1 2 4 3 69 70
69 1 2 4 3 70 71
70 1 2 4 3 71 72
71 1 2 4 3 72 73
72 1 2 4 3 73 74
73 1 2 4 3 74 75
74 1 2 4 3 75 76
75 1 2 4 3 76 77
76 1 2 4 3 77 78
77 1 2 4 3 78 79
78 1 2 4 3 79 80
79 1 2 4 3 80 81
80 1 2 4 3 81 82
81 1 2 4 3 82 83
82 1 2 4 3 83 84
83 1 2 4 3 84 85
84 1 2 4 3 85 86
85 1 2 4 3 86 87
86 1 2 4 3 87 88
87 1 2 4 3 88 89
88 1 2 4 3 89 90
89 1 2 4 3 90 91
90 1 2 4 3 91 4
91 1 2 1 4 4 92
92 1 2 1 4 92 93
93 1 2 1 4 93 94
94 1 2 1 4 94 95
95 1 2 1 4 95 96
96 1 2 1 4 96 97
97 1 2 1 4 97 98
98 1 2 1 4 98 99
99 1 2 1 4 99 100
100 1 2 1 4 100 1
101 2 2 5 1 133 300 378
102 2 2 5 1 234 158 269
103 2 2 5 1 217 155 355
104 2 2 5 1 214 35 380
105 2 2 5 1 208 41 365
106 2 2 5 1 209 13 375
107 2 2 5 1 21 22 219
108 2 2 5 1 218 66 376
109 2 2 5 1 74 75 221
110 2 2 5 1 140 272 397
111 2 2 5 1 258 38 518
112 2 2 5 1 86 354 463
113 2 2 5 1 7 234 363
114 2 2 5 1 354 206 463
115 2 2 5 1 207 154 404
116 2 2 5 1 256 460 490
117 2 2 5 1 256 121 460
118 2 2 5 1 155 217 357
119 2 2 5 1 257 114 369
120 2 2 5 1 114 291 369
121 2 2 5 1 213 153 350
122 2 2 5 1 210 122 442
123 2 2 5 1 31 32 235
124 2 2 5 1 84 85 236
125 2 2 5 1 208 156 405
126 2 2 5 1 212 125 439
127 2 2 5 1 13 209 421
128 2 2 5 1 154 207 372
129 2 2 5 1 41 208 428
130 2 2 5 1 209 159 299
131 2 2 5 1 133 252 300
132 2 2 5 1 35 214 416
133 2 2 5 1 59 215 543
134 2 2 5 1 319 181 335
135 2 2 5 1 220 9 443
136 2 2 5 1 248 146 278
137 2 2 5 1 249 147 277
138 2 2 5 1 250 145 276
139 2 2 5 1 313 178 334
140 2 2 5 1 272 191 397
141 2 2 5 1 236 85 463
142 2 2 5 1 156 208 365
143 2 2 5 1 215 59 366
144 2 2 5 1 199 232 304
145 2 2 5 1 198 231 303
146 2 2 5 1 224 197 292
147 2 2 5 1 235 32 457
148 2 2 5 1 279 454 516
149 2 2 5 1 281 455 517
150 2 2 5 1 141 233 292
151 2 2 5 1 233 107 292
152 2 2 5 1 233 134 302
153 2 2 5 1 281 127 455
154 2 2 5 1 279 129 454
155 2 2 5 1 218 161 295
156 2 2 5 1 197 224 477
157 2 2 5 1 111 228 331
158 2 2 5 1 112 229 333
159 2 2 5 1 113 230 332
160 2 2 5 1 122 210 521
161 2 2 5 1 66 218 423
162 2 2 5 1 214 164 325
163 2 2 5 1 37 38 258
164 2 2 5 1 125 212 526
165 2 2 5 1 192 386 409
166 2 2 5 1 231 198 484
167 2 2 5 1 232 199 486
168 2 2 5 1 153 213 529
169 2 2 5 1 213 268 401
170 2 2 5 1 271 473 504
171 2 2 5 1 213 401 529
172 2 2 5 1 159 209 375
173 2 2 5 1 139 234 269
174 2 2 5 1 217 258 518
175 2 2 5 1 271 124 473
176 2 2 5 1 121 256 309
177 2 2 5 1 164 214 380
178 2 2 5 1 253 134 310
179 2 2 5 1 310 134 469
180 2 2 5 1 215 123 434
181 2 2 5 1 123 215 483
182 2 2 5 1 316 160 360
183 2 2 5 1 180 343 387
184 2 2 5 1 227 104 280
185 2 2 5 1 180 259 343
186 2 2 5 1 338 241 424
187 2 2 5 1 142 319 335
188 2 2 5 1 300 187 378
189 2 2 5 1 80 268 522
190 2 2 5 1 194 238 301
191 2 2 5 1 196 239 305
192 2 2 5 1 242 193 308
193 2 2 5 1 161 218 376
194 2 2 5 1 105 444 489
195 2 2 5 1 178 465 569
196 2 2 5 1 185 241 338
197 2 2 5 1 27 266 524
198 2 2 5 1 465 227 569
199 2 2 5 1 143 313 334
200 2 2 5 1 316 360 447
201 2 2 5 1 62 63 240
202 2 2 5 1 153 226 503
203 2 2 5 1 107 224 292
204 2 2 5 1 277 147 304
205 2 2 5 1 276 145 303
206 2 2 5 1 263 162 314
207 2 2 5 1 165 263 314
208 2 2 5 1 166 264 315
209 2 2 5 1 264 163 315
210 2 2 5 1 239 176 386
211 2 2 5 1 105 239 386
212 2 2 5 1 305 105 489
213 2 2 5 1 96 97 253
214 2 2 5 1 113 259 448
215 2 2 5 1 233 141 291
216 2 2 5 1 27 28 266
217 2 2 5 1 80 81 268
218 2 2 5 1 114 262 291
219 2 2 5 1 9 10 443
220 2 2 5 1 231 111 303
221 2 2 5 1 232 112 304
222 2 2 5 1 325 113 448
223 2 2 5 1 107 233 302
224 2 2 5 1 190 371 389
225 2 2 5 1 6 7 363
226 2 2 5 1 121 309 477
227 2 2 5 1 255 138 354
228 2 2 5 1 219 22 341
229 2 2 5 1 21 219 342
230 2 2 5 1 64 287 467
231 2 2 5 1 498 150 501
232 2 2 5 1 496 151 508
233 2 2 5 1 148 241 294
234 2 2 5 1 241 117 294
235 2 2 5 1 108 261 299
236 2 2 5 1 391 288 425
237 2 2 5 1 9 220 356
238 2 2 5 1 47 48 252
239 2 2 5 1 262 114 397
240 2 2 5 1 221 75 339
241 2 2 5 1 74 221 340
242 2 2 5 1 158 234 441
243 2 2 5 1 278 146 343
244 2 2 5 1 253 97 408
245 2 2 5 1 110 267 295
246 2 2 5 1 170 288 391
247 2 2 5 1 140 245 506
248 2 2 5 1 155 428 462
249 2 2 5 1 499 152 509
250 2 2 5 1 222 19 379
251 2 2 5 1 220 158 356
252 2 2 5 1 238 102 301
253 2 2 5 1 234 139 363
254 2 2 5 1 223 72 377
255 2 2 5 1 217 355 560
256 2 2 5 1 252 48 300
257 2 2 5 1 306 185 338
258 2 2 5 1 106 306 338
259 2 2 5 1 182 338 424
260 2 2 5 1 268 213 522
261 2 2 5 1 174 294 327
262 2 2 5 1 246 210 442
263 2 2 5 1 96 253 310
264 2 2 5 1 24 225 383
265 2 2 5 1 239 105 305
266 2 2 5 1 77 226 381
267 2 2 5 1 271 178 569
268 2 2 5 1 276 111 331
269 2 2 5 1 277 112 333
270 2 2 5 1 278 113 332
271 2 2 5 1 266 211 524
272 2 2 5 1 222 169 359
273 2 2 5 1 142 250 276
274 2 2 5 1 143 249 277
275 2 2 5 1 144 248 278
276 2 2 5 1 98 99 260
277 2 2 5 1 35 36 380
278 2 2 5 1 158 220 396
279 2 2 5 1 223 171 364
280 2 2 5 1 272 140 506
281 2 2 5 1 244 139 466
282 2 2 5 1 368 173 444
283 2 2 5 1 111 231 552
284 2 2 5 1 112 232 551
285 2 2 5 1 64 65 287
286 2 2 5 1 247 212 439
287 2 2 5 1 134 233 433
288 2 2 5 1 168 225 358
289 2 2 5 1 198 303 540
290 2 2 5 1 114 307 397
291 2 2 5 1 87 88 255
292 2 2 5 1 196 414 436
293 2 2 5 1 170 226 362
294 2 2 5 1 284 192 409
295 2 2 5 1 148 289 403
296 2 2 5 1 102 238 480
297 2 2 5 1 188 406 453
298 2 2 5 1 66 67 376
299 2 2 5 1 169 222 379
300 2 2 5 1 226 153 507
301 2 2 5 1 171 223 377
302 2 2 5 1 294 117 327
303 2 2 5 1 194 411 438
304 2 2 5 1 150 345 501
305 2 2 5 1 391 132 392
306 2 2 5 1 221 391 392
307 2 2 5 1 19 222 501
308 2 2 5 1 89 90 265
309 2 2 5 1 151 349 508
310 2 2 5 1 104 227 465
311 2 2 5 1 72 223 508
312 2 2 5 1 280 104 387
313 2 2 5 1 238 194 476
314 2 2 5 1 225 168 383
315 2 2 5 1 224 107 415
316 2 2 5 1 103 242 308
317 2 2 5 1 298 188 453
318 2 2 5 1 289 175 322
319 2 2 5 1 115 289 322
320 2 2 5 1 226 170 381
321 2 2 5 1 269 158 415
322 2 2 5 1 257 138 471
323 2 2 5 1 178 267 334
324 2 2 5 1 181 261 335
325 2 2 5 1 225 24 499
326 2 2 5 1 13 14 375
327 2 2 5 1 226 77 503
328 2 2 5 1 245 140 470
329 2 2 5 1 230 113 537
330 2 2 5 1 354 138 517
331 2 2 5 1 228 111 520
332 2 2 5 1 229 112 519
333 2 2 5 1 118 326 364
334 2 2 5 1 58 59 543
335 2 2 5 1 235 163 374
336 2 2 5 1 31 235 374
337 2 2 5 1 139 260 466
338 2 2 5 1 346 152 499
339 2 2 5 1 120 237 568
340 2 2 5 1 109 283 412
341 2 2 5 1 283 195 412
342 2 2 5 1 350 153 503
343 2 2 5 1 110 249 334
344 2 2 5 1 108 250 335
345 2 2 5 1 115 322 359
346 2 2 5 1 234 7 441
347 2 2 5 1 236 162 373
348 2 2 5 1 84 236 373
349 2 2 5 1 337 440 510
350 2 2 5 1 394 126 395
351 2 2 5 1 219 394 395
352 2 2 5 1 323 116 358
353 2 2 5 1 287 204 467
354 2 2 5 1 275 186 348
355 2 2 5 1 156 275 348
356 2 2 5 1 274 157 347
357 2 2 5 1 187 274 347
358 2 2 5 1 239 196 475
359 2 2 5 1 308 193 525
360 2 2 5 1 200 337 510
361 2 2 5 1 148 403 424
362 2 2 5 1 396 224 415
363 2 2 5 1 155 357 428
364 2 2 5 1 12 282 544
365 2 2 5 1 386 176 409
366 2 2 5 1 382 257 471
367 2 2 5 1 11 12 544
368 2 2 5 1 158 396 415
369 2 2 5 1 173 352 444
370 2 2 5 1 47 252 418
371 2 2 5 1 82 83 263
372 2 2 5 1 29 30 264
373 2 2 5 1 183 253 408
374 2 2 5 1 222 498 501
375 2 2 5 1 401 231 484
376 2 2 5 1 140 265 470
377 2 2 5 1 223 496 508
378 2 2 5 1 60 61 270
379 2 2 5 1 402 232 486
380 2 2 5 1 62 240 393
381 2 2 5 1 261 108 335
382 2 2 5 1 240 172 393
383 2 2 5 1 267 110 334
384 2 2 5 1 41 42 365
385 2 2 5 1 45 46 275
386 2 2 5 1 50 51 274
387 2 2 5 1 251 57 543
388 2 2 5 1 154 251 434
389 2 2 5 1 93 94 272
390 2 2 5 1 116 254 384
391 2 2 5 1 139 244 363
392 2 2 5 1 248 144 413
393 2 2 5 1 145 250 411
394 2 2 5 1 146 248 412
395 2 2 5 1 147 249 414
396 2 2 5 1 54 55 361
397 2 2 5 1 163 235 400
398 2 2 5 1 120 347 456
399 2 2 5 1 237 133 378
400 2 2 5 1 162 236 399
401 2 2 5 1 199 304 489
402 2 2 5 1 240 63 467
403 2 2 5 1 204 240 467
404 2 2 5 1 255 88 410
405 2 2 5 1 237 120 385
406 2 2 5 1 174 286 294
407 2 2 5 1 371 167 389
408 2 2 5 1 387 104 422
409 2 2 5 1 225 499 509
410 2 2 5 1 95 96 310
411 2 2 5 1 100 244 466
412 2 2 5 1 364 326 496
413 2 2 5 1 48 49 300
414 2 2 5 1 175 238 512
415 2 2 5 1 269 107 370
416 2 2 5 1 149 284 472
417 2 2 5 1 283 172 407
418 2 2 5 1 404 120 456
419 2 2 5 1 312 150 322
420 2 2 5 1 175 312 322
421 2 2 5 1 292 197 531
422 2 2 5 1 129 279 336
423 2 2 5 1 133 237 464
424 2 2 5 1 244 100 527
425 2 2 5 1 193 242 474
426 2 2 5 1 256 181 309
427 2 2 5 1 286 102 367
428 2 2 5 1 425 306 435
429 2 2 5 1 291 262 433
430 2 2 5 1 318 196 436
431 2 2 5 1 200 331 485
432 2 2 5 1 202 333 488
433 2 2 5 1 201 332 487
434 2 2 5 1 212 349 526
435 2 2 5 1 331 228 485
436 2 2 5 1 333 229 488
437 2 2 5 1 332 230 487
438 2 2 5 1 249 143 334
439 2 2 5 1 238 175 480
440 2 2 5 1 250 142 335
441 2 2 5 1 34 293 555
442 2 2 5 1 259 113 343
443 2 2 5 1 359 322 498
444 2 2 5 1 128 401 484
445 2 2 5 1 252 186 418
446 2 2 5 1 176 239 505
447 2 2 5 1 111 276 303
448 2 2 5 1 112 277 304
449 2 2 5 1 127 281 337
450 2 2 5 1 323 358 509
451 2 2 5 1 131 402 486
452 2 2 5 1 317 194 438
453 2 2 5 1 246 15 513
454 2 2 5 1 320 151 326
455 2 2 5 1 176 320 326
456 2 2 5 1 296 156 565
457 2 2 5 1 139 269 370
458 2 2 5 1 185 306 425
459 2 2 5 1 33 34 555
460 2 2 5 1 210 345 521
461 2 2 5 1 321 173 323
462 2 2 5 1 152 321 323
463 2 2 5 1 91 245 470
464 2 2 5 1 286 148 294
465 2 2 5 1 177 285 385
466 2 2 5 1 361 55 546
467 2 2 5 1 284 406 472
468 2 2 5 1 312 122 521
469 2 2 5 1 247 68 514
470 2 2 5 1 157 297 561
471 2 2 5 1 156 365 565
472 2 2 5 1 443 10 544
473 2 2 5 1 172 283 541
474 2 2 5 1 10 11 544
475 2 2 5 1 117 241 449
476 2 2 5 1 320 125 526
477 2 2 5 1 246 159 450
478 2 2 5 1 247 161 468
479 2 2 5 1 119 273 371
480 2 2 5 1 273 167 371
481 2 2 5 1 119 351 405
482 2 2 5 1 131 321 523
483 2 2 5 1 230 398 487
484 2 2 5 1 357 217 518
485 2 2 5 1 60 270 366
486 2 2 5 1 240 204 473
487 2 2 5 1 324 153 529
488 2 2 5 1 324 174 327
489 2 2 5 1 153 324 327
490 2 2 5 1 361 157 561
491 2 2 5 1 344 190 389
492 2 2 5 1 327 117 507
493 2 2 5 1 343 146 387
494 2 2 5 1 131 523 562
495 2 2 5 1 113 278 343
496 2 2 5 1 251 215 434
497 2 2 5 1 251 154 494
498 2 2 5 1 184 255 410
499 2 2 5 1 196 305 530
500 2 2 5 1 241 185 449
501 2 2 5 1 454 205 516
502 2 2 5 1 353 198 417
503 2 2 5 1 299 261 461
504 2 2 5 1 245 91 539
505 2 2 5 1 295 267 482
506 2 2 5 1 107 302 370
507 2 2 5 1 117 362 507
508 2 2 5 1 346 211 523
509 2 2 5 1 57 58 543
510 2 2 5 1 260 99 466
511 2 2 5 1 455 206 517
512 2 2 5 1 417 198 481
513 2 2 5 1 172 240 407
514 2 2 5 1 215 366 483
515 2 2 5 1 351 190 355
516 2 2 5 1 155 351 355
517 2 2 5 1 154 330 404
518 2 2 5 1 283 360 541
519 2 2 5 1 241 148 424
520 2 2 5 1 405 351 462
521 2 2 5 1 242 103 493
522 2 2 5 1 270 160 366
523 2 2 5 1 302 134 452
524 2 2 5 1 263 83 373
525 2 2 5 1 264 30 374
526 2 2 5 1 159 246 442
527 2 2 5 1 401 128 529
528 2 2 5 1 344 201 426
529 2 2 5 1 161 247 439
530 2 2 5 1 142 276 331
531 2 2 5 1 144 278 332
532 2 2 5 1 143 277 333
533 2 2 5 1 117 288 362
534 2 2 5 1 288 170 362
535 2 2 5 1 162 263 373
536 2 2 5 1 163 264 374
537 2 2 5 1 309 197 477
538 2 2 5 1 329 154 434
539 2 2 5 1 194 301 533
540 2 2 5 1 148 286 367
541 2 2 5 1 495 309 500
542 2 2 5 1 87 255 354
543 2 2 5 1 289 148 367
544 2 2 5 1 279 180 336
545 2 2 5 1 398 130 487
546 2 2 5 1 428 208 462
547 2 2 5 1 228 399 485
548 2 2 5 1 229 400 488
549 2 2 5 1 356 158 441
550 2 2 5 1 281 179 337
551 2 2 5 1 283 407 446
552 2 2 5 1 156 348 405
553 2 2 5 1 154 329 330
554 2 2 5 1 329 177 330
555 2 2 5 1 141 311 369
556 2 2 5 1 311 179 369
557 2 2 5 1 426 201 487
558 2 2 5 1 215 251 543
559 2 2 5 1 197 309 495
560 2 2 5 1 265 90 470
561 2 2 5 1 460 203 490
562 2 2 5 1 272 94 432
563 2 2 5 1 210 246 513
564 2 2 5 1 258 164 478
565 2 2 5 1 213 350 522
566 2 2 5 1 179 257 369
567 2 2 5 1 227 280 563
568 2 2 5 1 280 195 563
569 2 2 5 1 186 252 430
570 2 2 5 1 252 133 430
571 2 2 5 1 85 86 463
572 2 2 5 1 212 247 514
573 2 2 5 1 349 212 556
574 2 2 5 1 314 111 552
575 2 2 5 1 315 112 551
576 2 2 5 1 32 33 457
577 2 2 5 1 237 378 568
578 2 2 5 1 149 328 384
579 2 2 5 1 328 189 384
580 2 2 5 1 145 301 540
581 2 2 5 1 191 272 432
582 2 2 5 1 211 346 524
583 2 2 5 1 291 141 369
584 2 2 5 1 355 130 560
585 2 2 5 1 146 412 542
586 2 2 5 1 231 401 552
587 2 2 5 1 366 160 483
588 2 2 5 1 232 402 551
589 2 2 5 1 270 61 393
590 2 2 5 1 172 270 393
591 2 2 5 1 414 110 436
592 2 2 5 1 15 16 513
593 2 2 5 1 20 21 342
594 2 2 5 1 22 23 341
595 2 2 5 1 264 166 388
596 2 2 5 1 29 264 388
597 2 2 5 1 224 396 477
598 2 2 5 1 473 204 504
599 2 2 5 1 254 149 384
600 2 2 5 1 75 76 339
601 2 2 5 1 73 74 340
602 2 2 5 1 399 127 485
603 2 2 5 1 400 129 488
604 2 2 5 1 304 147 489
605 2 2 5 1 345 210 559
606 2 2 5 1 263 165 390
607 2 2 5 1 82 263 390
608 2 2 5 1 92 506 539
609 2 2 5 1 411 108 438
610 2 2 5 1 68 69 514
611 2 2 5 1 145 411 533
612 2 2 5 1 99 100 466
613 2 2 5 1 114 257 382
614 2 2 5 1 147 414 530
615 2 2 5 1 57 251 494
616 2 2 5 1 203 282 490
617 2 2 5 1 282 135 490
618 2 2 5 1 457 33 555
619 2 2 5 1 15 246 450
620 2 2 5 1 398 230 537
621 2 2 5 1 413 144 525
622 2 2 5 1 349 151 526
623 2 2 5 1 345 150 521
624 2 2 5 1 267 136 482
625 2 2 5 1 283 109 360
626 2 2 5 1 68 247 468
627 2 2 5 1 266 28 388
628 2 2 5 1 260 183 408
629 2 2 5 1 98 260 408
630 2 2 5 1 265 184 410
631 2 2 5 1 89 265 410
632 2 2 5 1 268 81 390
633 2 2 5 1 109 248 413
634 2 2 5 1 248 109 412
635 2 2 5 1 249 110 414
636 2 2 5 1 250 108 411
637 2 2 5 1 301 481 540
638 2 2 5 1 173 321 352
639 2 2 5 1 321 131 352
640 2 2 5 1 254 116 427
641 2 2 5 1 385 285 554
642 2 2 5 1 192 368 386
643 2 2 5 1 368 105 386
644 2 2 5 1 90 91 470
645 2 2 5 1 437 189 532
646 2 2 5 1 174 324 353
647 2 2 5 1 324 128 353
648 2 2 5 1 296 44 459
649 2 2 5 1 52 297 458
650 2 2 5 1 261 135 461
651 2 2 5 1 396 121 477
652 2 2 5 1 175 289 367
653 2 2 5 1 307 140 397
654 2 2 5 1 367 102 480
655 2 2 5 1 129 336 488
656 2 2 5 1 152 346 523
657 2 2 5 1 260 139 564
658 2 2 5 1 506 245 539
659 2 2 5 1 166 266 388
660 2 2 5 1 164 258 398
661 2 2 5 1 275 46 418
662 2 2 5 1 274 187 419
663 2 2 5 1 50 274 419
664 2 2 5 1 186 275 418
665 2 2 5 1 191 262 397
666 2 2 5 1 8 9 356
667 2 2 5 1 275 156 459
668 2 2 5 1 157 274 458
669 2 2 5 1 116 384 431
670 2 2 5 1 134 253 452
671 2 2 5 1 19 20 379
672 2 2 5 1 17 18 345
673 2 2 5 1 165 268 390
674 2 2 5 1 253 183 452
675 2 2 5 1 104 313 534
676 2 2 5 1 23 24 383
677 2 2 5 1 25 26 346
678 2 2 5 1 399 228 520
679 2 2 5 1 444 199 489
680 2 2 5 1 400 229 519
681 2 2 5 1 72 73 377
682 2 2 5 1 184 265 566
683 2 2 5 1 243 437 532
684 2 2 5 1 76 77 381
685 2 2 5 1 107 269 415
686 2 2 5 1 154 372 494
687 2 2 5 1 127 337 485
688 2 2 5 1 70 71 349
689 2 2 5 1 78 79 350
690 2 2 5 1 161 376 468
691 2 2 5 1 204 287 504
692 2 2 5 1 287 136 504
693 2 2 5 1 302 183 370
694 2 2 5 1 206 354 517
695 2 2 5 1 257 179 538
696 2 2 5 1 132 391 425
697 2 2 5 1 266 166 402
698 2 2 5 1 159 375 450
699 2 2 5 1 259 180 536
700 2 2 5 1 149 254 491
701 2 2 5 1 268 165 401
702 2 2 5 1 318 161 439
703 2 2 5 1 317 159 442
704 2 2 5 1 146 280 387
705 2 2 5 1 295 161 436
706 2 2 5 1 299 159 438
707 2 2 5 1 51 52 458
708 2 2 5 1 44 45 459
709 2 2 5 1 316 123 483
710 2 2 5 1 86 87 354
711 2 2 5 1 124 271 569
712 2 2 5 1 311 141 531
713 2 2 5 1 45 275 459
714 2 2 5 1 274 51 458
715 2 2 5 1 171 298 453
716 2 2 5 1 313 502 534
717 2 2 5 1 167 285 389
718 2 2 5 1 285 103 389
719 2 2 5 1 258 217 560
720 2 2 5 1 351 119 371
721 2 2 5 1 190 351 371
722 2 2 5 1 138 255 471
723 2 2 5 1 255 184 471
724 2 2 5 1 39 40 357
725 2 2 5 1 156 296 459
726 2 2 5 1 297 157 458
727 2 2 5 1 138 257 538
728 2 2 5 1 211 266 562
729 2 2 5 1 181 256 492
730 2 2 5 1 137 259 536
731 2 2 5 1 307 114 382
732 2 2 5 1 184 307 382
733 2 2 5 1 160 270 541
734 2 2 5 1 59 60 366
735 2 2 5 1 37 258 478
736 2 2 5 1 159 317 438
737 2 2 5 1 293 137 516
738 2 2 5 1 205 293 516
739 2 2 5 1 183 260 564
740 2 2 5 1 134 262 469
741 2 2 5 1 262 191 469
742 2 2 5 1 20 342 379
743 2 2 5 1 136 267 515
744 2 2 5 1 161 318 436
745 2 2 5 1 261 181 492
746 2 2 5 1 113 325 537
747 2 2 5 1 259 137 448
748 2 2 5 1 262 134 433
749 2 2 5 1 73 340 377
750 2 2 5 1 135 261 492
751 2 2 5 1 118 284 409
752 2 2 5 1 111 314 520
753 2 2 5 1 112 315 519
754 2 2 5 1 267 178 515
755 2 2 5 1 341 23 383
756 2 2 5 1 177 479 493
757 2 2 5 1 219 341 394
758 2 2 5 1 341 168 394
759 2 2 5 1 169 342 395
760 2 2 5 1 342 219 395
761 2 2 5 1 270 172 541
762 2 2 5 1 339 76 381
763 2 2 5 1 273 133 464
764 2 2 5 1 290 126 394
765 2 2 5 1 168 290 394
766 2 2 5 1 265 140 566
767 2 2 5 1 164 398 537
768 2 2 5 1 178 271 515
769 2 2 5 1 164 380 478
770 2 2 5 1 312 175 512
771 2 2 5 1 339 170 391
772 2 2 5 1 221 339 391
773 2 2 5 1 340 221 392
774 2 2 5 1 171 340 392
775 2 2 5 1 132 298 392
776 2 2 5 1 298 171 392
777 2 2 5 1 139 370 564
778 2 2 5 1 361 207 456
779 2 2 5 1 157 361 456
780 2 2 5 1 83 84 373
781 2 2 5 1 30 31 374
782 2 2 5 1 207 361 546
783 2 2 5 1 162 399 520
784 2 2 5 1 495 311 531
785 2 2 5 1 163 400 519
786 2 2 5 1 330 177 385
787 2 2 5 1 120 330 385
788 2 2 5 1 284 118 406
789 2 2 5 1 336 202 488
790 2 2 5 1 289 115 403
791 2 2 5 1 92 93 506
792 2 2 5 1 93 272 506
793 2 2 5 1 286 174 417
794 2 2 5 1 340 171 377
795 2 2 5 1 40 41 428
796 2 2 5 1 133 273 430
797 2 2 5 1 342 169 379
798 2 2 5 1 187 300 419
799 2 2 5 1 300 49 419
800 2 2 5 1 170 339 381
801 2 2 5 1 168 341 383
802 2 2 5 1 337 200 485
803 2 2 5 1 214 325 448
804 2 2 5 1 320 176 505
805 2 2 5 1 81 82 390
806 2 2 5 1 445 169 567
807 2 2 5 1 28 29 388
808 2 2 5 1 279 137 536
809 2 2 5 1 115 359 445
810 2 2 5 1 360 109 447
811 2 2 5 1 18 19 501
812 2 2 5 1 24 25 499
813 2 2 5 1 105 368 444
814 2 2 5 1 71 72 508
815 2 2 5 1 77 78 503
816 2 2 5 1 169 395 567
817 2 2 5 1 281 138 538
818 2 2 5 1 273 119 451
819 2 2 5 1 282 12 421
820 2 2 5 1 364 171 453
821 2 2 5 1 103 285 493
822 2 2 5 1 167 273 464
823 2 2 5 1 346 26 524
824 2 2 5 1 479 242 493
825 2 2 5 1 326 118 409
826 2 2 5 1 123 316 474
827 2 2 5 1 316 193 474
828 2 2 5 1 350 79 522
829 2 2 5 1 318 125 475
830 2 2 5 1 196 318 475
831 2 2 5 1 102 286 417
832 2 2 5 1 317 122 476
833 2 2 5 1 194 317 476
834 2 2 5 1 401 165 552
835 2 2 5 1 402 166 551
836 2 2 5 1 116 323 427
837 2 2 5 1 180 279 536
838 2 2 5 1 290 189 437
839 2 2 5 1 126 290 437
840 2 2 5 1 328 149 472
841 2 2 5 1 132 425 435
842 2 2 5 1 195 280 542
843 2 2 5 1 280 146 542
844 2 2 5 1 137 279 516
845 2 2 5 1 179 281 538
846 2 2 5 1 293 34 416
847 2 2 5 1 287 65 423
848 2 2 5 1 103 344 389
849 2 2 5 1 282 203 544
850 2 2 5 1 138 281 517
851 2 2 5 1 61 62 393
852 2 2 5 1 7 8 441
853 2 2 5 1 288 185 425
854 2 2 5 1 39 357 518
855 2 2 5 1 298 132 435
856 2 2 5 1 188 298 435
857 2 2 5 1 135 282 535
858 2 2 5 1 195 283 446
859 2 2 5 1 310 191 432
860 2 2 5 1 95 310 432
861 2 2 5 1 330 120 404
862 2 2 5 1 189 290 431
863 2 2 5 1 233 291 433
864 2 2 5 1 284 149 491
865 2 2 5 1 192 284 491
866 2 2 5 1 285 167 554
867 2 2 5 1 177 329 479
868 2 2 5 1 306 106 420
869 2 2 5 1 188 306 420
870 2 2 5 1 185 288 449
871 2 2 5 1 56 57 494
872 2 2 5 1 179 311 440
873 2 2 5 1 110 295 436
874 2 2 5 1 285 177 493
875 2 2 5 1 313 104 465
876 2 2 5 1 288 117 449
877 2 2 5 1 115 445 548
878 2 2 5 1 12 13 421
879 2 2 5 1 176 326 409
880 2 2 5 1 108 299 438
881 2 2 5 1 348 119 405
882 2 2 5 1 182 403 548
883 2 2 5 1 173 368 557
884 2 2 5 1 309 181 500
885 2 2 5 1 182 548 549
886 2 2 5 1 152 323 509
887 2 2 5 1 136 287 553
888 2 2 5 1 333 202 502
889 2 2 5 1 183 302 452
890 2 2 5 1 322 150 498
891 2 2 5 1 406 118 453
892 2 2 5 1 34 35 416
893 2 2 5 1 290 168 558
894 2 2 5 1 326 151 496
895 2 2 5 1 143 333 502
896 2 2 5 1 181 319 500
897 2 2 5 1 297 53 561
898 2 2 5 1 44 296 570
899 2 2 5 1 53 297 571
900 2 2 5 1 297 52 571
901 2 2 5 1 97 98 408
902 2 2 5 1 141 292 531
903 2 2 5 1 140 307 566
904 2 2 5 1 306 188 435
905 2 2 5 1 101 495 500
906 2 2 5 1 55 56 546
907 2 2 5 1 293 205 555
908 2 2 5 1 209 299 461
909 2 2 5 1 337 179 440
910 2 2 5 1 218 295 482
911 2 2 5 1 88 89 410
912 2 2 5 1 189 328 532
913 2 2 5 1 106 328 420
914 2 2 5 1 65 66 423
915 2 2 5 1 565 43 570
916 2 2 5 1 137 293 528
917 2 2 5 1 296 565 570
918 2 2 5 1 174 353 417
919 2 2 5 1 14 15 450
920 2 2 5 1 308 144 547
921 2 2 5 1 372 56 494
922 2 2 5 1 106 338 429
923 2 2 5 1 67 68 468
924 2 2 5 1 323 173 427
925 2 2 5 1 301 102 481
926 2 2 5 1 311 101 440
927 2 2 5 1 336 180 422
928 2 2 5 1 106 429 532
929 2 2 5 1 344 103 497
930 2 2 5 1 201 344 497
931 2 2 5 1 360 160 541
932 2 2 5 1 192 491 557
933 2 2 5 1 125 318 439
934 2 2 5 1 301 145 533
935 2 2 5 1 122 317 442
936 2 2 5 1 36 37 478
937 2 2 5 1 199 352 486
938 2 2 5 1 352 131 486
939 2 2 5 1 147 305 489
940 2 2 5 1 46 47 418
941 2 2 5 1 49 50 419
942 2 2 5 1 193 316 447
943 2 2 5 1 303 145 540
944 2 2 5 1 202 336 534
945 2 2 5 1 123 329 434
946 2 2 5 1 305 147 530
947 2 2 5 1 175 367 480
948 2 2 5 1 358 116 558
949 2 2 5 1 214 448 528
950 2 2 5 1 490 135 492
951 2 2 5 1 256 490 492
952 2 2 5 1 17 345 559
953 2 2 5 1 429 243 532
954 2 2 5 1 100 1 527
955 2 2 5 1 1 5 527
956 2 2 5 1 70 349 556
957 2 2 5 1 338 182 429
958 2 2 5 1 102 417 481
959 2 2 5 1 191 310 469
960 2 2 5 1 198 353 484
961 2 2 5 1 353 128 484
962 2 2 5 1 190 344 426
963 2 2 5 1 178 313 465
964 2 2 5 1 347 157 456
965 2 2 5 1 56 372 546
966 2 2 5 1 94 95 432
967 2 2 5 1 491 254 557
968 2 2 5 1 307 184 566
969 2 2 5 1 103 308 497
970 2 2 5 1 319 142 545
971 2 2 5 1 4 92 539
972 2 2 5 1 91 4 539
973 2 2 5 1 362 226 507
974 2 2 5 1 348 186 451
975 2 2 5 1 144 308 525
976 2 2 5 1 101 311 495
977 2 2 5 1 160 316 483
978 2 2 5 1 511 243 549
979 2 2 5 1 237 385 554
980 2 2 5 1 187 347 568
981 2 2 5 1 313 143 502
982 2 2 5 1 122 312 512
983 2 2 5 1 427 173 557
984 2 2 5 1 331 200 545
985 2 2 5 1 150 312 521
986 2 2 5 1 121 396 460
987 2 2 5 1 396 220 460
988 2 2 5 1 314 162 520
989 2 2 5 1 315 163 519
990 2 2 5 1 319 101 500
991 2 2 5 1 165 314 552
992 2 2 5 1 166 315 551
993 2 2 5 1 125 320 505
994 2 2 5 1 101 319 510
995 2 2 5 1 420 328 472
996 2 2 5 1 355 190 426
997 2 2 5 1 130 355 426
998 2 2 5 1 375 14 450
999 2 2 5 1 332 201 547
1000 2 2 5 1 142 331 545
1001 2 2 5 1 321 152 523
1002 2 2 5 1 151 320 526
1003 2 2 5 1 329 123 479
1004 2 2 5 1 144 332 547
1005 2 2 5 1 357 40 428
1006 2 2 5 1 153 327 507
1007 2 2 5 1 384 189 431
1008 2 2 5 1 403 182 424
1009 2 2 5 1 376 67 468
1010 2 2 5 1 130 426 487
1011 2 2 5 1 128 324 529
1012 2 2 5 1 325 164 537
1013 2 2 5 1 53 54 561
1014 2 2 5 1 352 199 444
1015 2 2 5 1 42 43 565
1016 2 2 5 1 119 348 451
1017 2 2 5 1 63 64 467
1018 2 2 5 1 16 17 559
1019 2 2 5 1 351 155 462
1020 2 2 5 1 69 70 556
1021 2 2 5 1 328 106 532
1022 2 2 5 1 440 101 510
1023 2 2 5 1 370 183 564
1024 2 2 5 1 504 136 515
1025 2 2 5 1 271 504 515
1026 2 2 5 1 380 36 478
1027 2 2 5 1 8 356 441
1028 2 2 5 1 266 402 562
1029 2 2 5 1 359 169 445
1030 2 2 5 1 398 258 560
1031 2 2 5 1 407 124 446
1032 2 2 5 1 205 454 457
1033 2 2 5 1 454 235 457
1034 2 2 5 1 206 455 463
1035 2 2 5 1 455 236 463
1036 2 2 5 1 180 387 422
1037 2 2 5 1 43 2 570
1038 2 2 5 1 2 44 570
1039 2 2 5 1 52 3 571
1040 2 2 5 1 3 53 571
1041 2 2 5 1 38 39 518
1042 2 2 5 1 345 18 501
1043 2 2 5 1 79 80 522
1044 2 2 5 1 26 27 524
1045 2 2 5 1 25 346 499
1046 2 2 5 1 378 187 568
1047 2 2 5 1 216 511 549
1048 2 2 5 1 5 6 550
1049 2 2 5 1 349 71 508
1050 2 2 5 1 118 364 453
1051 2 2 5 1 78 350 503
1052 2 2 5 1 443 203 460
1053 2 2 5 1 220 443 460
1054 2 2 5 1 116 431 558
1055 2 2 5 1 347 120 568
1056 2 2 5 1 168 358 558
1057 2 2 5 1 184 382 471
1058 2 2 5 1 368 192 557
1059 2 2 5 1 222 359 498
1060 2 2 5 1 223 364 496
1061 2 2 5 1 358 225 509
1062 2 2 5 1 203 443 544
1063 2 2 5 1 6 363 550
1064 2 2 5 1 363 244 550
1065 2 2 5 1 129 400 454
1066 2 2 5 1 400 235 454
1067 2 2 5 1 127 399 455
1068 2 2 5 1 399 236 455
1069 2 2 5 1 502 202 534
1070 2 2 5 1 336 422 534
1071 2 2 5 1 523 211 562
1072 2 2 5 1 54 361 561
1073 2 2 5 1 365 42 565
1074 2 2 5 1 445 216 548
1075 2 2 5 1 563 124 569
1076 2 2 5 1 372 207 546
1077 2 2 5 1 407 240 473
1078 2 2 5 1 186 430 451
1079 2 2 5 1 197 495 531
1080 2 2 5 1 406 188 472
1081 2 2 5 1 448 137 528
1082 2 2 5 1 413 193 447
1083 2 2 5 1 446 124 563
1084 2 2 5 1 207 404 456
1085 2 2 5 1 481 198 540
1086 2 2 5 1 109 413 447
1087 2 2 5 1 208 405 462
1088 2 2 5 1 243 429 549
1089 2 2 5 1 395 126 567
1090 2 2 5 1 188 420 472
1091 2 2 5 1 124 407 473
1092 2 2 5 1 193 413 525
1093 2 2 5 1 430 273 451
1094 2 2 5 1 414 196 530
1095 2 2 5 1 411 194 533
1096 2 2 5 1 497 308 547
1097 2 2 5 1 205 457 555
1098 2 2 5 1 167 464 554
1099 2 2 5 1 464 237 554
1100 2 2 5 1 130 398 560
1101 2 2 5 1 412 195 542
1102 2 2 5 1 216 445 567
1103 2 2 5 1 293 416 528
1104 2 2 5 1 403 115 548
1105 2 2 5 1 548 216 549
1106 2 2 5 1 402 131 562
1107 2 2 5 1 416 214 528
1108 2 2 5 1 527 5 550
1109 2 2 5 1 244 527 550
1110 2 2 5 1 437 243 511
1111 2 2 5 1 126 437 511
1112 2 2 5 1 510 319 545
1113 2 2 5 1 123 474 479
1114 2 2 5 1 474 242 479
1115 2 2 5 1 421 209 535
1116 2 2 5 1 282 421 535
1117 2 2 5 1 422 104 534
1118 2 2 5 1 513 16 559
1119 2 2 5 1 514 69 556
1120 2 2 5 1 475 125 505
1121 2 2 5 1 239 475 505
1122 2 2 5 1 476 122 512
1123 2 2 5 1 238 476 512
1124 2 2 5 1 423 218 553
1125 2 2 5 1 287 423 553
1126 2 2 5 1 429 182 549
1127 2 2 5 1 227 563 569
1128 2 2 5 1 461 135 535
1129 2 2 5 1 254 427 557
1130 2 2 5 1 431 290 558
1131 2 2 5 1 126 511 567
1132 2 2 5 1 209 461 535
1133 2 2 5 1 482 136 553
1134 2 2 5 1 195 446 563
1135 2 2 5 1 218 482 553
1136 2 2 5 1 201 497 547
1137 2 2 5 1 200 510 545
1138 2 2 5 1 212 514 556
1139 2 2 5 1 210 513 559
1140 2 2 5 1 511 216 567
$EndElements
