$MeshFormat
4.1 0 8
$EndMeshFormat
$PhysicalNames
6
1 1 "Left"
1 2 "Right"
1 3 "Bottom"
1 4 "Top"
1 6 "Airfoil"
2 5 "Fluid"
$EndPhysicalNames
$Entities
0 7 1 0
1 0 0 0 40 0 0 1 3 0 
2 40 0 0 40 10 0 1 2 0 
3 0 10 0 40 10 0 1 4 0 
4 0 0 0 0 10 0 1 1 0 
1001 8.5 5 0 9 5.5 0 1 6 0 
1002 8 5 0 8.5 5.5 0 1 6 0 
1003 8 4.5 0 8.5 5 0 1 6 0 
3001 0 0 0 40 10 0 1 5 0 
$EndEntities
$Nodes
8 917 1 917
1 1 0 21
1
2
3
4
5
6
7
8
9
10
11
12
13
14
15
16
17
18
19
20
21
0 0 0
40 0 0
1.999999999998205 0 0
3.999999999996757 0 0
5.999999999993141 0 0
7.999999999987307 0 0
9.999999999981473 0 0
11.99999999997564 0 0
13.9999999999698 0 0
15.99999999996411 0 0
17.9999999999666 0 0
19.99999999996964 0 0
21.99999999997269 0 0
23.99999999997573 0 0
25.99999999997878 0 0
27.99999999998182 0 0
29.99999999998487 0 0
31.99999999998791 0 0
33.99999999999093 0 0
35.99999999999396 0 0
37.99999999999698 0 0
1 2 0 5
22
23
24
25
26
40 10 0
40 1.999999999996827 0
40 3.999999999991027 0
40 5.999999999993932 0
40 7.999999999996978 0
1 3 0 20
27
28
29
30
31
32
33
34
35
36
37
38
39
40
41
42
43
44
45
46
0 10 0
37.99999999999999 10 0
35.99999999999999 10 0
33.99999999999999 10 0
31.99999999999998 10 0
29.99999999999998 10 0
27.99999999999998 10 0
25.99999999999997 10 0
23.99999999999996 10 0
21.99999999999996 10 0
19.99999999999996 10 0
17.99999999999995 10 0
15.99999999999995 10 0
13.99999999999995 10 0
11.99999999999994 10 0
9.999999999999936 10 0
7.999999999999929 10 0
5.99999999999995 10 0
3.999999999999964 10 0
1.999999999999986 10 0
1 4 0 4
47
48
49
50
0 7.999999999999996 0
0 5.999999999999991 0
0 3.999999999999988 0
0 1.999999999999982 0
1 1001 0 9
51
52
53
54
55
56
57
58
59
9 5 0
8.5 5.5 0
8.990392640171279 5.097545161160569 0
8.961939765796487 5.191341717291047 0
8.91573480553398 5.277785117433647 0
8.853553389370235 5.353553391816312 0
8.777785114773637 5.41573480731134 0
8.691341714462293 5.461939766968195 0
8.597545159812688 5.49039264043939 0
1 1002 0 8
60
61
62
63
64
65
66
67
8 5 0
8.402454839516443 5.490392640305946 0
8.308658284690194 5.461939766617144 0
8.222214883486348 5.415734806148699 0
8.146446608793019 5.353553389979567 0
8.084265193196556 5.277785115533757 0
8.038060233309031 5.191341715131573 0
8.009607359615625 5.097545160089271 0
1 1003 0 8
68
69
70
71
72
73
74
75
8.5 4.5 0
8.009607359828721 4.902454838839431 0
8.038060234203513 4.808658282708953 0
8.08426519446602 4.722214882566353 0
8.146446610629765 4.646446608183688 0
8.222214885226363 4.58426519268866 0
8.308658285537707 4.538060233031805 0
8.402454840187312 4.50960735956061 0
2 3001 0 842
76
77
78
79
80
81
82
83
84
85
86
87
88
89
90
91
92
93
94
95
96
97
98
99
100
101
102
103
104
105
106
107
108
109
110
111
112
113
114
115
116
117
118
119
120
121
122
123
124
125
126
127
128
129
130
131
132
133
134
135
136
137
138
139
140
141
142
143
144
145
146
147
148
149
150
151
152
153
154
155
156
157
158
159
160
161
162
163
164
165
166
167
168
169
170
171
172
173
174
175
176
177
178
179
180
181
182
183
184
185
186
187
188
189
190
191
192
193
194
195
196
197
198
199
200
201
202
203
204
205
206
207
208
209
210
211
212
213
214
215
216
217
218
219
220
221
222
223
224
225
226
227
228
229
230
231
232
233
234
235
236
237
238
239
240
241
242
243
244
245
246
247
248
249
250
251
252
253
254
255
256
257
258
259
260
261
262
263
264
265
266
267
268
269
270
271
272
273
274
275
276
277
278
279
280
281
282
283
284
285
286
287
288
289
290
291
292
293
294
295
296
297
298
299
300
301
302
303
304
305
306
307
308
309
310
311
312
313
314
315
316
317
318
319
320
321
322
323
324
325
326
327
328
329
330
331
332
333
334
335
336
337
338
339
340
341
342
343
344
345
346
347
348
349
350
351
352
353
354
355
356
357
358
359
360
361
362
363
364
365
366
367
368
369
370
371
372
373
374
375
376
377
378
379
380
381
382
383
384
385
386
387
388
389
390
391
392
393
394
395
396
397
398
399
400
401
402
403
404
405
406
407
408
409
410
411
412
413
414
415
416
417
418
419
420
421
422
423
424
425
426
427
428
429
430
431
432
433
434
435
436
437
438
439
440
441
442
443
444
445
446
447
448
449
450
451
452
453
454
455
456
457
458
459
460
461
462
463
464
465
466
467
468
469
470
471
472
473
474
475
476
477
478
479
480
481
482
483
484
485
486
487
488
489
490
491
492
493
494
495
496
497
498
499
500
501
502
503
504
505
506
507
508
509
510
511
512
513
514
515
516
517
518
519
520
521
522
523
524
525
526
527
528
529
530
531
532
533
534
535
536
537
538
539
540
541
542
543
544
545
546
547
548
549
550
551
552
553
554
555
556
557
558
559
560
561
562
563
564
565
566
567
568
569
570
571
572
573
574
575
576
577
578
579
580
581
582
583
584
585
586
587
588
589
590
591
592
593
594
595
596
597
598
599
600
601
602
603
604
605
606
607
608
609
610
611
612
613
614
615
616
617
618
619
620
621
622
623
624
625
626
627
628
629
630
631
632
633
634
635
636
637
638
639
640
641
642
643
644
645
646
647
648
649
650
651
652
653
654
655
656
657
658
659
660
661
662
663
664
665
666
667
668
669
670
671
672
673
674
675
676
677
678
679
680
681
682
683
684
685
686
687
688
689
690
691
692
693
694
695
696
697
698
699
700
701
702
703
704
705
706
707
708
709
710
711
712
713
714
715
716
717
718
719
720
721
722
723
724
725
726
727
728
729
730
731
732
733
734
735
736
737
738
739
740
741
742
743
744
745
746
747
748
749
750
751
752
753
754
755
756
757
758
759
760
761
762
763
764
765
766
767
768
769
770
771
772
773
774
775
776
777
778
779
780
781
782
783
784
785
786
787
788
789
790
791
792
793
794
795
796
797
798
799
800
801
802
803
804
805
806
807
808
809
810
811
812
813
814
815
816
817
818
819
820
821
822
823
824
825
826
827
828
829
830
831
832
833
834
835
836
837
838
839
840
841
842
843
844
845
846
847
848
849
850
851
852
853
854
855
856
857
858
859
860
861
862
863
864
865
866
867
868
869
870
871
872
873
874
875
876
877
878
879
880
881
882
883
884
885
886
887
888
889
890
891
892
893
894
895
896
897
898
899
900
901
902
903
904
905
906
907
908
909
910
911
912
913
914
915
916
917
8.597545160483557 4.509607359694054 0
8.691341715309806 4.538060233382856 0
8.777785116513652 4.584265193851301 0
8.853553391206981 4.646446610020433 0
8.915734806803444 4.722214884466243 0
8.961939766690969 4.808658284868427 0
8.990392640384375 4.902454839910729 0
13.50846523245672 4.81915704541448 0
3.86130581400507 5.49257644563856 0
5.701357782783116 3.518615800391228 0
5.890867954800422 6.996067927365372 0
7.703374489093939 2.458499566574786 0
9.712883709049002 2.810826988148396 0
10.79473061760252 4.200478292962202 0
10.99188003416612 7.127917469426158 0
7.826597334352476 7.18812017245938 0
6.28540942208071 5.189296119195068 0
10.22092436133908 5.512737643250571 0
9.41075387193982 6.627199933069933 0
6.778970119058383 4.227102893036578 0
7.809060053747434 3.593197252773699 0
7.204247410065347 6.078131839812293 0
8.645805358799837 3.585621936538949 0
9.3204763650938 3.975550338273188 0
7.213920484257309 4.925091145780251 0
9.653551614849011 4.648048269192254 0
18.77075606665453 4.916778675643934 0
8.26432891177809 6.631171556514756 0
9.52217254405436 5.843078711633622 0
33.10875366804025 5.185050584280589 0
27.12068171985051 4.947963631512263 0
7.657549796880822 4.294489737366711 0
7.572957165580251 5.279427034647317 0
7.798209777661927 5.901723109017188 0
8.130987458725098 4.158634204189122 0
8.843355188594495 5.988516265724256 0
22.77462095800018 5.634326154868514 0
8.422853110940448 4.158680457509948 0
2.961820730672183 2.832389083983093 0
8.73839912846293 4.214103391876148 0
9.556103885170375 5.338817556524507 0
8.241517892969718 5.865703842486336 0
7.634149094562854 4.737346998055786 0
9.015559235645801 4.371789254833962 0
9.215841384562568 4.619101756960292 0
9.080635300617947 5.707506166391714 0
11.85931567847867 2.183263672882292 0
36.44862411418951 3.592022007523496 0
9.332844672780309 4.93223927363989 0
29.99637001806461 6.800397458810132 0
3.954288264133138 7.722015937179457 0
15.80834618112332 6.774646788709167 0
30.05486493013913 3.379851843067962 0
7.88005852120198 4.491227173848245 0
36.78839514720821 6.865059252466611 0
20.97557699625373 3.065580748943013 0
24.32219459084796 3.192704464881783 0
12.0581509427688 5.587879106626881 0
15.85850573326854 2.988646299829857 0
13.45058027014232 7.481612531809876 0
7.852544816322197 5.531352735044107 0
7.763495369772087 4.93118433763736 0
25.20830786806468 7.241661573613747 0
6.95703132972913 3.046871823550622 0
2.112000984108608 6.551334372745298 0
8.582489468160464 5.789110878695885 0
20.34974632434683 7.163796399939256 0
9.130612927103659 8.684994679838223 0
2.031447144312422 4.349016087187893 0
8.102846587483285 5.657393863000085 0
4.17092315329513 3.83172046480257 0
4.81697901593679 2.089708979907227 0
34.07871802637172 7.017759645574406 0
8.05009791980217 4.458246408044783 0
7.845851090744524 4.648485976966627 0
8.279058170547739 4.319386652103501 0
5.29180070818423 6.207457662367052 0
6.847571248303794 8.647810152538714 0
27.04214524072044 1.71221828652331 0
33.08130157365007 1.807202293918525 0
7.784629716814499 5.217005201335071 0
8.815870470303194 5.691309046072989 0
9.101480728811193 5.449307302563755 0
19.03984179709472 2.413289403705012 0
10.24688906926276 3.518014730447286 0
27.86837377974912 7.603391302421675 0
8.748365025282109 2.673963999478975 0
5.079784288756787 4.730988801436686 0
8.822255010376331 4.396359249491587 0
14.19149789402105 2.474371960131615 0
17.90141078830288 7.64233091070064 0
6.103799752561098 1.543119113722608 0
8.56756550883029 4.313995872759812 0
9.270732333260568 1.11551203088748 0
8.430748098609634 5.686953348444657 0
6.924744321331975 5.393305467736877 0
32.00072815485517 7.761957775565641 0
9.209839302308847 3.342950623738794 0
7.931739263717169 5.304981035221364 0
22.97968768449569 8.485098870715852 0
5.310732537661917 8.284440945880274 0
7.863599124226976 5.063017004896921 0
9.236516462868783 5.263212854351788 0
9.002788769967479 4.587544490931732 0
8.204027705416093 4.45872483113246 0
38.10030077450942 5.106084529272463 0
8.224181461045754 3.798221924399859 0
7.899766067502814 4.817921026300065 0
8.017667556796283 4.605989080151082 0
8.084937295826743 5.505755367475406 0
8.702176833638228 7.186477069300085 0
35.12368901848983 5.383145772656452 0
10.45749157075906 1.63018460607078 0
10.2166430638442 6.489032155526097 0
35.08152866241261 1.926910828027215 0
37.87797619047635 2.122023809524004 0
20.74777541690164 5.201746633699528 0
11.3341363812261 3.304941361323766 0
12.03934059911483 4.316087904044381 0
24.81807888441556 5.228719578901612 0
8.201452183657194 3.205517401864198 0
22.86330746868039 1.847059215987948 0
15.51529254187479 4.802861043706161 0
11.11990232550667 6.067198728080937 0
6.036485382133822 4.375552373512823 0
7.676044858367008 6.49695475939653 0
8.684429973407015 5.615394494769816 0
8.912146494421462 5.502201960420899 0
8.436701057980011 4.378340814536337 0
9.113493525906108 5.02511642000684 0
6.961053841529047 6.877118636062615 0
7.334410335862268 4.511281897005122 0
9.053909553815263 5.295613689794372 0
8.678635473765269 4.410256955640138 0
2.35807593681687 8.190316225931058 0
6.297176156132936 6.01068493174589 0
8.305866395525321 5.611934554723491 0
7.92134577227622 5.175899687904711 0
9.984391006676624 7.657210376917274 0
11.32832217070535 8.605399050972228 0
29.11417957842982 1.696021913174373 0
29.10950347618812 4.925537033915051 0
9.111491438911713 4.831869669515523 0
8.881554778048905 4.512372842202877 0
7.357955427101686 3.897285624665335 0
11.07827458402681 5.16302688944367 0
6.727284548474388 4.755454741497511 0
8.019986635571136 5.39468552865084 0
4.957222879407246 7.139887934588353 0
31.0171755767728 5.000367920865221 0
14.79736126954354 8.295883798114625 0
8.204904689402378 5.530551671592965 0
1.367779876061292 2.955569715813195 0
31.00787346395507 1.734233146001151 0
14.32136389491669 6.285842781926938 0
22.74665057057399 3.909482351861098 0
8.539635377657831 5.610774625450757 0
34.10679862305349 3.569442385375387 0
10.30811182260066 4.823587326592959 0
38.15850852272762 8.158508522727397 0
7.961168350019616 8.2463405343793 0
9.071250389711585 5.174565968520923 0
29.3368409449318 8.463995784420321 0
9.05443664314595 4.703647441706962 0
1.627023456836002 1.521531135877913 0
3.391289902757963 6.573066304119263 0
17.28648378972482 1.672702025788846 0
12.28043725481052 6.934051389237648 0
7.438922854765993 5.558021931657768 0
35.35502485107941 8.482350562881296 0
25.01974055473657 1.594622032118909 0
9.859188880655603 4.111121931494335 0
3.501541878569333 1.47197454845953 0
7.90729358426612 4.942915441534756 0
13.18908903200466 1.34709880499403 0
17.43159560277896 5.71250057448851 0
2.662897380230904 5.505601249006602 0
3.326300249644572 4.554410045048762 0
7.518584124800376 5.007720813593403 0
15.08759607482549 1.413803181790725 0
20.64645437698988 1.394745321615311 0
10.72214328175512 2.689446271774504 0
8.924792630007479 3.909090072114571 0
12.96632847657849 3.166617601503456 0
21.08813280617914 8.521737750755756 0
5.965106282883857 2.740662813175899 0
28.07431276149298 3.39359878470029 0
8.815053559862639 6.436638123990189 0
9.134394093013853 6.120587840161942 0
32.06279463926846 3.446024695584805 0
8.388528926516676 1.597594254839961 0
7.314926605945202 1.246135075929258 0
16.50142364779393 8.542572299504887 0
19.57036457693195 3.757733622631354 0
26.04856638675901 3.446407949840387 0
7.26005175671961 7.770641132139413 0
4.349572035051507 6.398180557168565 0
19.37106558846484 8.5061115118025 0
8.326787680013609 4.436052484533613 0
26.32843030550348 8.412950600983711 0
38.53510573533344 6.668773594546495 0
17.62884923617565 3.679473056455588 0
6.469508594675244 3.652338259092404 0
4.912089845388202 3.144596862552832 0
8.776314753473519 5.537316015108647 0
7.69149337792016 5.088226611659756 0
7.559846680619386 3.182034888696974 0
9.669855465274003 3.5516929224204 0
33.3603016488101 8.619411637635448 0
8.967364994390426 5.375692292405796 0
8.088940000869865 6.199849205132865 0
38.51318187553142 3.542152688675724 0
12.7752314375522 8.736861022243133 0
9.412923496161355 4.345122310150805 0
26.55104232078744 6.478015125348338 0
8.128090935574134 4.550734424040136 0
7.856677438168043 4.011857374233812 0
7.977122028742631 4.720653849738617 0
8.472614170372545 6.151831645424047 0
18.96491880254261 6.458912971715569 0
21.8953109346398 6.968755113545666 0
9.902028900893731 5.064688186376166 0
30.70921658214706 8.633298695852739 0
32.03762523136693 6.231753656444515 0
24.79302503618124 8.635017682912219 0
36.52117549743202 1.430773123856824 0
8.59120633785129 3.933143556487895 0
1.255040186556788 5.513204239299842 0
6.808847692042645 2.207057678590635 0
7.947593786131137 4.290776870744542 0
4.9698591787875 1.000959493151732 0
28.05132260360083 6.071106650802674 0
14.58142876304471 3.702901922474858 0
7.662410064677271 4.521992387666808 0
36.61312270486258 5.279727573574021 0
5.573233965285387 5.326294318517636 0
8.55702097235458 4.418113873283346 0
4.25388408468274 4.656786861435468 0
8.701365467511996 3.202013490405228 0
23.81790130037962 6.767436726155004 0
1.052983575005978 8.947016424994015 0
7.333825790147181 5.232713278683123 0
18.99999999996812 1.042542561055891 0
9.299381784304535 5.520384518293078 0
1.129683447081374 7.2003118771617 0
9.315600312973482 1.965616375885118 0
5.02253626738927 3.904304930203694 0
8.771877923469548 4.48705618242968 0
8.110191582008712 4.330206326784583 0
8.442599565957194 5.582796390354799 0
3.524619347722375 8.839354621798156 0
4.734930149327619 5.468714107760661 0
36.86038570420305 8.70118366761506 0
38.88461143741175 1.115388562585487 0
10.11083152612139 8.736901026931932 0
6.454055467802958 7.715215758797277 0
13.11499221270824 6.168353937007518 0
4.029514416071009 2.741265915518494 0
27.01404841356035 0.5707394288411033 0
33.02710052454297 0.6024007646395083 0
8.924025655992635 4.652068661806136 0
9.766400263521271 5.564877970469567 0
35.33026739735659 6.421988223565823 0
7.157496865245488 5.183703297400084 0
14.18976847820085 7.354446370617147 0
11.43893574973779 1.271149426317691 0
34.10372023763393 5.861985334170483 0
20.22062439011277 2.291205158087779 0
6.868811380278437 3.925575592264772 0
11.53354648656066 7.555789303212012 0
34.05427674535121 1.244704373981913 0
33.07503230859297 6.144854628766503 0
9.355773503002679 6.196955494955166 0
8.277632913404428 4.212233771267523 0
3.486348044537295 3.739506531278142 0
5.826614939705863 6.404736840492771 0
9.071792535067399 4.919813643144364 0
35.40737934155311 7.455056486974104 0
7.091871789531321 4.730609261427628 0
14.97569044852785 7.11879112291691 0
9.365773904084891 7.15696245976243 0
19.56209872468424 1.616859095458738 0
2.773189374876392 3.911938405406583 0
7.856304598951289 5.351112990533514 0
9.870595980820214 6.924480821837768 0
26.02062859847859 1.102280106214073 0
7.449971853281592 4.234352419679056 0
34.23844216662983 9.03392073350558 0
28.05210827304403 1.136080066565894 0
14.15606100028373 1.74509131563879 0
8.892916998038737 4.164994239608228 0
8.018021563407585 5.258035955295565 0
7.793255417603397 4.734584667107494 0
38.71950284090921 9.386169507575799 0
39.38616950757588 8.719502840908126 0
32.02972501253102 1.180478479973225 0
13.67439099241269 8.171452450722546 0
10.7919186893638 3.674478128244418 0
3.72075276667944 3.135125154768053 0
33.09278231012073 4.066839221746927 0
33.08363161199068 2.940889791626239 0
9.02127461532902 4.84766093143156 0
8.259340676903767 4.03851219536631 0
3.234551367902657 7.495132822409926 0
7.957735494614201 5.053520721662064 0
8.35714633450093 3.529787087601002 0
8.013442899877409 5.564833988506533 0
8.926812430372054 3.612554210797438 0
8.151199596035369 5.425014521201224 0
9.893019049134395 5.305414462050415 0
7.922323701499191 6.772082162790222 0
17.04711752406838 6.709826091299438 0
14.09222836893332 0.9203006622615849 0
16.85857912694313 4.731611558216753 0
27.39893469508419 8.672113967801794 0
19.86192779009346 3.078867925093126 0
12.34946823681966 1.176787492625441 0
16.33421583710633 3.823660133330536 0
28.4017382415603 8.689129028947333 0
0.5423411522786673 1.173843711959298 0
5.103577512553944 9.428146981960092 0
11.30411526691472 4.559864362150084 0
9.130635581831745 5.336044615569971 0
6.955316451354556 5.024617118338212 0
8.163314172670107 7.540312592046255 0
5.379963847463966 6.781137841440259 0
32.7056904708646 7.003823692528187 0
30.04068434745659 1.143418353058508 0
6.946888334465013 4.49794651051307 0
6.820825802575776 6.321978469206933 0
12.12799695435602 8.09210382081767 0
26.03681739407201 2.251082756160869 0
10.81916385690539 0.54339486869026 0
9.151702765803376 3.742530344708851 0
34.26468150875374 8.039840615363717 0
1.133075673457905 3.768195267667025 0
8.264367693256263 7.001922932758074 0
1.095495776956403 4.620740108829241 0
9.82865853092718 2.135542656701432 0
2.620455607894481 7.104905634265207 0
23.44645013766324 4.924176028543741 0
23.96230801527917 4.110302131881498 0
1.209007818944736 0.5071770452926377 0
4.278450628461418 9.041265189226143 0
35.11834161702647 9.494116854293765 0
22.99322922816521 9.495032956905284 0
13.85753090236523 9.010914940119251 0
11.38940253264782 3.94050251944345 0
10.39763803489565 7.091386667289843 0
9.223696012213319 2.942580537122055 0
8.694263303956889 5.698604806512897 0
2.120349250348632 3.378991628994727 0
29.06719491424851 7.622594848550709 0
10.32067710695293 4.378395850349832 0
4.263213383172476 8.281937168285962 0
9.940284106035092 4.527585842426515 0
28.63868880047152 6.824965137344827 0
8.047524752704977 5.808273604834536 0
9.272393589139504 7.842894042018528 0
7.736710566238982 5.342594990342165 0
7.448568603497808 5.356720748329404 0
8.576272582744556 4.228926574048636 0
22.0896823151586 4.915185046809714 0
21.49000099457645 4.05893657816788 0
25.13016717744785 2.744578148947026 0
39.36676692483648 5.035361509752474 0
9.986579989745879 5.948282836803429 0
8.657772282560664 5.522575634059134 0
8.08279312063069 4.658216856967041 0
23.96101600779756 1.147227082702286 0
12.11326848563981 3.595882288957201 0
22.95443582287627 0.615686405329316 0
18.09930839787482 6.604581485634906 0
10.30026952250696 3.943204984967941 0
35.02717622079917 0.6423036093424049 0
8.244966958726721 4.527016752284308 0
8.858737791495022 4.327417298733899 0
27.08118695603416 3.92932345535098 0
7.917867060489137 5.696823235687127 0
30.05897265750801 2.270035634081162 0
8.418251819913271 5.780589356542293 0
7.982477887178349 4.84301138261615 0
16.73706020574004 7.653183332971564 0
8.84782833285511 5.42383005318285 0
8.886523265034318 3.072976037874332 0
11.3051984471533 2.725883768660187 0
7.602913199441113 8.964716895639338 0
8.326044129034891 5.721530581884828 0
7.765803510612585 4.828817453997737 0
9.034628722025795 5.040887193722469 0
9.043537642367841 9.561664893279408 0
6.928165117168686 3.532165235769453 0
30.90210491835562 7.731884643409503 0
18.42415879225589 8.716147474167713 0
17.46761147869892 8.728301070068509 0
9.459219404509758 5.567426928817068 0
8.97719470838191 5.254913508173022 0
8.446385299389107 4.462649391365649 0
6.949190416101224 9.549270050846237 0
5.885218653421767 7.665241544014307 0
9.876542747861921 3.293511547005361 0
8.363927092374402 8.977111738072507 0
7.8543982122996 6.199509024515527 0
10.29750618718773 2.37681928866456 0
6.383032650820802 6.62795716505796 0
6.052767928655221 8.977417032806329 0
9.596992486281472 5.111915005513521 0
24.06841420475497 2.211461904329547 0
9.530859492210617 3.235156844769197 0
8.070615452646299 3.989571167607598 0
27.05500812965748 2.850741673687995 0
19.4944834286996 5.52581276035301 0
5.386274457289862 7.473465602611333 0
10.7681977371827 7.79684229910522 0
8.078231232816796 3.532312193012585 0
8.412746969945831 3.963348646132567 0
9.078063130058617 4.526145167575328 0
8.597986036920501 8.039270761172537 0
5.720736943200851 5.848145637543525 0
26.1632676416845 5.551566111920738 0
8.553087086588183 0.9043687619091471 0
5.96504292316664 4.963714270408509 0
7.157111960674112 4.211890138235678 0
9.716523159946128 6.319770266743217 0
7.796106558874591 4.55390184616056 0
26.77614343516781 9.470983533661238 0
7.559500682031427 6.15893656940867 0
29.03805985946551 0.565340637724791 0
31.3449078014289 6.931369630273429 0
10.51915658356332 6.022989508952534 0
12.05326017876109 2.884940878569838 0
5.628628350460581 2.124496968935244 0
8.173412403760516 4.269409061025736 0
6.514246683222197 4.452703336015637 0
7.23249765541505 5.394680226025923 0
35.22637058524428 4.181536721851779 0
8.655840783186211 4.485974849572349 0
12.53531892478012 4.907708018695247 0
7.280448703320467 6.484068411757146 0
8.338993173243987 5.521422320548861 0
31.00262448797595 0.578077715333717 0
29.11228031497726 9.487998594806774 0
35.21231713321854 3.029458406975366 0
20.02081351459703 6.274818668451451 0
15.02919869158647 0.471267727263575 0
12.67157772902061 2.232326693126593 0
37.68736892141012 4.080086408490561 0
36.01710942467805 2.316568653135845 0
30.04101635700851 5.575434137863468 0
30.06051466103335 4.435252265949411 0
5.563167878725332 4.810945164489048 0
36.9492586006993 2.381606313634775 0
34.11308043652786 4.712546247437476 0
32.45367660122175 8.793789804400364 0
6.42832136528915 4.084997841880601 0
25.52580969108923 6.316132092621232 0
9.09024411107645 0.37183734362916 0
36.17506895685354 5.842644199565695 0
14.87714413011143 3.055306727478777 0
1.49890820591559 6.421616829735613 0
8.216743625326108 5.711677420069971 0
12.83541632083501 7.717508314430219 0
15.04586656737169 2.292273813917399 0
10.47971789894222 9.114100025968053 0
25.99577566367502 4.54103038675142 0
11.46407320482777 6.709722528914914 0
7.714136749994883 4.635941787563074 0
38.79705268866925 2.554725499398852 0
23.92423757355897 9.040038851209358 0
37.61326072673243 3.085399501907741 0
7.575620720489503 3.557505922045336 0
8.837631095256514 4.581028215358204 0
33.14658261001233 7.799709686258498 0
31.56998157900074 8.798418823806125 0
16.924612919723 2.780273794024763 0
22.19517834516937 2.940707438930687 0
23.31071754336745 2.983082010910277 0
34.08987628637206 2.434518502440376 0
9.086942743582361 4.085476555073907 0
7.487898678082844 6.854064522639509 0
11.10944072356841 9.535133016990743 0
7.480460014164422 5.845958960162416 0
20.99761089196275 6.444766049061484 0
21.80590243651387 5.934942634037903 0
19.69629868682938 4.625419643991605 0
14.4483738897494 5.302620290349193 0
17.98505827433173 2.588488161983149 0
30.01414251504782 7.965897313027732 0
9.629475062841017 4.88165857640277 0
7.394159971560811 4.724573346947054 0
8.852336709540227 3.376862016894324 0
11.01298351033095 2.167631516909192 0
7.828400701404647 4.358831260653166 0
8.710340972943227 6.192328678379497 0
8.913286986505213 5.79577715939632 0
28.1014993191772 4.422366483375868 0
7.45555123454018 4.890052985809814 0
22.02260683022493 9.002278873823869 0
11.72525537530348 5.022331300038311 0
5.379601979426627 4.336948701717734 0
8.516207669989676 3.331050942936125 0
23.86353800701885 7.962517759927692 0
12.89386946264459 5.52513002968296 0
9.909407968000368 0.91523221231942 0
7.189304862054438 5.676486413068979 0
7.291611145816734 3.375397445637644 0
37.46638389596845 1.184265644460276 0
0.7949078778793872 6.237838705487178 0
6.051939847833011 5.508758456486198 0
20.15306613154798 9.009283087519419 0
14.93245375651448 9.431961266038208 0
21.02937760205969 9.507245916918585 0
39.50439395851047 3.180717562887859 0
8.009771257004987 6.442658507014717 0
8.747238375686052 5.822978730164377 0
13.44897180086807 2.329362788876367 0
18.38909015732537 5.696064073949337 0
7.97230031469828 4.948456760124729 0
8.26769068807071 6.072461564347749 0
6.204119751256222 8.215822285738755 0
5.231391714736283 2.658322885211986 0
9.40005704422555 3.623397961477461 0
10.80636709029085 5.580987753591725 0
15.21500087263827 5.954450204780755 0
7.10497553530855 0.415378358643086 0
39.51170191177781 6.889591198179136 0
8.593853101759654 6.751428916601676 0
7.989671121733624 5.154928854375185 0
10.776141807839 6.561382784344398 0
11.81949684102866 6.196376407981822 0
3.167180626188098 0.4906581828198433 0
25.06294662067418 3.955943997874594 0
10.76772291074799 3.170800787848519 0
24.60641140154185 7.548038660893656 0
8.08356614585357 5.342008011388054 0
38.87116088334695 4.216079072646405 0
10.53577025598885 5.1664506197624 0
19.12368852948825 9.502037170600834 0
6.808722629176752 5.827374079765019 0
8.912632313074456 4.582121314385014 0
6.472908786166481 0.929751396550622 0
0.455926625353764 2.985189905271055 0
37.8079338856837 6.213305792095189 0
37.0540158645205 4.659278036789993 0
9.747148151074995 9.140631902256718 0
17.09549459655184 0.5575673419296153 0
21.495112947308 2.102461762182091 0
21.83658728188098 1.08060151253442 0
9.212459658661503 5.410968225069539 0
38.87846883661428 5.924952707937631 0
36.84039183247432 0.4769243746189413 0
16.83380788259794 9.514190766501629 0
37.16727287552674 5.750290451771032 0
8.977370405546788 4.744840203680543 0
0.9982677776324312 2.159033617230363 0
6.463882069096077 3.146624298606309 0
0.4183467288522627 5.171068079766607 0
8.217730566011079 2.779326989305986 0
36.0618119458473 4.751631784584657 0
20.43123899669577 4.008353668424632 0
31.01705694206811 6.010839678706623 0
5.58679314410207 3.932824368035915 0
5.526184637018392 3.134625158706653 0
7.406750833147485 2.895802092940794 0
1.985541354523159 2.436496645224734 0
15.70237703282026 7.871034295442893 0
7.923630902831032 5.001977482143892 0
4.42036105953063 7.086694809645458 0
38.89787141935369 7.60909403909029 0
7.901151844149729 0.947909776923073 0
37.2690964580463 7.908250480936355 0
2.376188445134513 0.997835228112481 0
8.545726845823507 5.533722421963382 0
29.05239869928452 5.932347047842619 0
7.624060887383517 4.067877578755287 0
0.3765611490271246 7.066770625720562 0
8.517332214004425 6.406547108642997 0
4.429460024431207 1.52088100717283 0
4.116011770192377 2.10098314796175 0
9.681274738997702 1.570437670947793 0
10.22730535335563 3.006095996790062 0
9.400745890730631 4.733129766597479 0
24.61476268428662 6.412605959556788 0
23.80353371426512 5.87682748664171 0
8.097401701000061 4.601056704124969 0
36.33460190083022 8.016197827654322 0
8.026351593334978 4.682952604152018 0
8.748480527569818 5.471663529796061 0
38.92086254262937 1.745804124035439 0
38.25419587596169 1.07913745736983 0
9.641887997221991 4.368097503612464 0
25.00658018489703 0.5315406773729697 0
35.86756805327953 1.119227983961346 0
33.12010054960336 9.539803879211815 0
7.82060700706 4.199041327448355 0
8.184777842072195 4.531241482620419 0
7.543656498367464 4.590207094242571 0
8.990986739972291 4.671135605701646 0
6.045324220114073 3.30387229088651 0
16.25174477525902 5.763336135634613 0
13.0630296773167 0.44903293499801 0
8.91221772976488 5.335676933885252 0
32.0629079613605 4.543814400243538 0
8.245259285859639 5.469408748119602 0
7.971649443482986 4.782411052915879 0
7.963715089767473 5.224074146085883 0
29.08111909002064 2.823157513647542 0
18.74579839310344 7.535785131406236 0
9.2276182205184 5.073522849332839 0
29.07956038927341 3.899662553894434 0
8.34596693524621 4.494573359042009 0
4.7407478937341 7.715448272549362 0
9.530862913970253 4.143931526639443 0
3.497625675104175 2.348543182653706 0
8.042889223833837 5.989092052212129 0
19.56191023845143 7.376273627819109 0
3.898383400647536 6.897754266155761 0
3.305164365664645 5.857081332921475 0
14.53506217912541 4.441640003865166 0
3.174873115907442 9.613118207266053 0
7.978419561008092 4.153756149722492 0
8.279824556989135 4.477612516232626 0
31.04184434445422 2.85336989488464 0
32.05065655895787 2.329153378501494 0
20.8821514589774 0.4649151072051037 0
7.931517418706274 5.112153950963634 0
9.258949682434865 2.483469121170829 0
2.696795355359173 1.941964922773512 0
15.31840901272935 3.831469755336959 0
8.58415285908489 4.101975801957997 0
10.72703900807666 4.729030836332944 0
5.296879315761796 1.544595862260522 0
3.867389250604846 6.154607768975463 0
8.011997030828288 5.325817226468654 0
12.9250771458507 9.578953674081044 0
20.26964823966361 8.063881887499171 0
4.866198540880995 6.581842051374656 0
7.638742863045106 4.892084049762183 0
6.502443299848541 5.531095506225944 0
8.432207177167575 5.935548788868755 0
17.94373363520305 4.769584102196011 0
4.989953059592466 0.3336531643839107 0
7.938889003865885 4.887763768891418 0
9.954564112781135 4.84544126072046 0
7.621474945556147 5.456267233783064 0
30.90307219404901 9.544432898617579 0
28.07687919354774 2.267279661465991 0
24.93100834539372 9.545005894304074 0
8.388647859393645 4.441333552876853 0
13.62897879258908 6.645269750248112 0
8.083790180063632 5.417998095368604 0
8.379537446489399 4.285469308049929 0
18.44210852892922 1.70951133018325 0
9.007860931893118 5.15448428232418 0
9.375155006939822 5.178089894838728 0
19.88215145897588 0.812429294223734 0
9.427438831857645 4.537424112101117 0
8.170685622905156 5.48401394840569 0
18.09549459655318 0.9050815289482457 0
9.220059165418197 4.794403566705236 0
6.645812763962358 5.112685442809818 0
16.12469328817147 1.02883506919319 0
8.475706559250249 4.283672381602032 0
7.982607999266811 4.518487554014704 0
2.62756509484641 9.009890282576405 0
18.74635187006744 3.283498694263985 0
3.278994516224127 8.250562261636224 0
7.914525722914263 4.581900743655318 0
7.682605813697234 7.73503394632603 0
6.349726450896306 4.773434411401801 0
7.934756905203501 5.410339766305437 0
31.0449450487268 3.942081486505996 0
8.165584143810086 4.593815408304162 0
18.65665662658738 4.117995118243625 0
8.033149152470722 4.750509005004641 0
10.47451490116779 8.333170151607144 0
8.497907343444863 4.432151562606561 0
13.64827378002722 5.757784588116312 0
7.985822915906692 5.477264543723451 0
8.487064385898961 3.772329139142234 0
4.15713368578453 0.824311347203754 0
7.349234310867044 7.278626646887136 0
22.89763330650504 7.407096903472174 0
7.856786306008004 3.326916514444957 0
38.96153714580291 0.3717961875284956 0
39.62820381247058 1.038462854194105 0
22.82927773100653 6.456839331523061 0
13.68540749069331 3.896225523130931 0
7.733339460920025 4.435903099627255 0
8.280089480297574 2.243352606964574 0
26.91594880201335 7.498119009584575 0
26.0292601647852 7.377542433315265 0
9.042622616249544 4.78139179869697 0
0.3509945250019926 8.982338808331336 0
1.017661191668655 9.649005474998004 0
18.99999999996812 0.3475141870186303 0
12.94866991255369 6.861339286018347 0
13.91308504454808 3.114630494703309 0
28.09383593321315 5.314869105409996 0
36.95346190140101 9.567061222538355 0
15.76626163911247 8.946152032539837 0
7.551456732473454 4.442588007346214 0
9.249653032300317 4.230820634419318 0
8.551522044279379 4.475907077659134 0
8.717362147114278 5.538216758948885 0
16.07752853260628 2.02505050246981 0
37.82733646842309 7.230780456580168 0
1.866586789335617 7.313987491946019 0
7.963306317653744 3.801092183802457 0
8.930934280490328 6.181914076625463 0
8.611067202201134 4.445992729539179 0
32.05451815872666 5.472390720530108 0
3.283501147960182 5.184195913231308 0
8.82208212088954 5.485084260946962 0
8.607203503625845 5.572187253553321 0
12.83804476938335 4.100620850320772 0
8.71395170418154 4.478457790484224 0
7.821557784456839 2.948683952378653 0
10.14368836161116 5.133671052073232 0
8.747001585097669 4.536460536554611 0
2.009979516965433 5.856713287017247 0
8.448351468491213 5.524396343553581 0
8.911021626060707 5.410482548214335 0
8.383640266999654 5.561707861794745 0
7.156417836955238 2.570809689572014 0
1.983128237033371 5.122607191831446 0
4.792100964187785 6.02478410909876 0
8.275294361006834 6.327617469023889 0
9.214774705456575 4.445337773981687 0
8.979003117913223 5.316363699877939 0
4.315269332794732 5.786490370189262 0
8.751466032107233 4.018779006826205 0
8.810405939344035 4.527898072827952 0
11.41877595076743 5.606034908050496 0
4.785401546942932 4.430693531025283 0
7.657857624164208 5.009043920963506 0
7.80227667385194 1.767409632448002 0
6.069117253197394 3.848835477665485 0
30.01535250902628 9.032431493424353 0
9.019461527408765 5.938870090759305 0
7.674564306339054 3.834113417224282 0
8.273143123205964 5.5348086643112 0
8.975994755146894 6.750105042120069 0
3.813830049444127 4.90125778404093 0
7.275716262360596 1.97056410703156 0
8.197759152657513 4.369439270006848 0
25.70715178056156 9.015989427965311 0
9.61650690367447 3.879455064062641 0
5.69121964378058 0.8480262022914467 0
37.67296474231022 8.953230730114152 0
9.058378851929659 5.099075849896111 0
9.300729876325613 5.690323132106138 0
8.936217421780867 5.633672390961867 0
8.632819609042501 5.976486263281395 0
1.803686503940945 9.045777550308356 0
9.02903323644111 5.220507125202114 0
2.722062755699158 6.210000641957055 0
9.031420841283534 5.553005143125456 0
4.48244783512238 4.13093741881391 0
8.60218493974177 5.671759999638819 0
7.959250075711762 4.413416817545857 0
7.696559149583372 5.663699258573021 0
8.494078314538342 5.564523671935185 0
7.594344889433596 5.125124819966826 0
21.98771047510488 7.991863911672424 0
21.11106335505525 7.551429754746892 0
12.03451786941916 9.114086691071787 0
12.48452680342919 6.23009481095735 0
9.245733979228719 5.890390906062426 0
36.07180351842749 9.061178076832119 0
9.12006717493877 6.394808632407354 0
7.856851673847007 4.897340268490726 0
9.741945153300557 8.359702027895809 0
25.4432544032498 8.096543285836558 0
3.91703582920748 4.347639123762267 0
8.817498088257421 2.079058210068018 0
6.576995101551877 2.664864105105719 0
9.185943212532711 4.929741787720751 0
4.283373349338476 5.206025804944897 0
7.683026753438303 5.194886282547381 0
5.211994631853529 3.522505864382584 0
27.49024623471247 6.71750435952423 0
27.2410155480796 5.832361802554426 0
9.364000710781232 5.374138309723125 0
8.065285470724197 4.538323304078667 0
7.946880225427813 4.658376302285443 0
4.689532840922381 4.952163256877605 0
8.26995785199248 4.404721322589858 0
9.160499271244559 5.559065995749516 0
8.127405520264134 4.48923522107246 0
6.435325754710809 7.196134107408422 0
8.746429870868177 4.340239865669291 0
8.66153337035283 4.312785406758699 0
7.356263785014339 8.221597273019142 0
7.907579728996656 4.729020284335103 0
8.517624314809309 5.695612950863766 0
8.906456341357012 4.426840448842809 0
8.550394225483766 3.027164963916134 0
6.742524683516315 1.665437289414167 0
8.121439069075658 4.415725855320609 0
4.37084247158478 3.239194414291299 0
2.673548258062633 4.803009127081086 0
1.513580986301407 8.112548176028925 0
4.586194425798666 2.658523919326184 0
4.701849755357534 3.626874085853032 0
5.199988274265745 5.667488696215116 0
8.966634261220728 4.490568862656191 0
8.347515636180454 4.37792665039115 0
7.772862623973075 5.027475984731346 0
7.844796026088395 4.979038928023012 0
7.8565248711059 5.151973964712234 0
8.204539224136994 5.59996002977218 0
5.129316134456597 5.175332409238328 0
7.779907406320546 5.122749605963916 0
8.720601442219534 3.809285188380472 0
7.475122360175935 5.173287042307948 0
6.891720355350539 7.454325175666436 0
0.7275556740291172 8.049109434051903 0
9.925311138397456 3.72694319478734 0
8.035961095980673 4.359743201857969 0
7.879238250935963 5.232628641487049 0
6.853892824275454 8.044555681158469 0
8.520429179721626 4.370150186859831 0
6.2925845758292 2.163613201829714 0
8.130896190904133 5.564566967356153 0
9.091022265891999 4.636764563199662 0
8.991620524250242 1.55957422053752 0
8.60107398498338 4.380788900561099 0
8.470994347408221 5.626841454750071 0
8.757589469203715 4.431224129187135 0
7.355443466401621 5.055175079352259 0
8.39307135336405 5.627228097840981 0
8.825229237298261 4.465262758041381 0
9.127256488873408 4.718206289394259 0
8.758871732394576 5.614673185317151 0
8.834777239399392 5.576942340534178 0
9.120558802131876 5.244464170889028 0
8.993664072541026 5.442400518463484 0
9.040918425672293 5.373537761587975 0
8.062924275621649 4.259872467239416 0
9.14042012616216 5.154298414293184 0
9.034628722096828 4.975857086639189 0
$EndNodes
$Elements
8 1826 1 1826
1 1 1 20
1 1 3 
2 3 4 
3 4 5 
4 5 6 
5 6 7 
6 7 8 
7 8 9 
8 9 10 
9 10 11 
10 11 12 
11 12 13 
12 13 14 
13 14 15 
14 15 16 
15 16 17 
16 17 18 
17 18 19 
18 19 20 
19 20 21 
20 21 2 
1 2 1 5
21 2 23 
22 23 24 
23 24 25 
24 25 26 
25 26 22 
1 3 1 20
26 22 28 
27 28 29 
28 29 30 
29 30 31 
30 31 32 
31 32 33 
32 33 34 
33 34 35 
34 35 36 
35 36 37 
36 37 38 
37 38 39 
38 39 40 
39 40 41 
40 41 42 
41 42 43 
42 43 44 
43 44 45 
44 45 46 
45 46 27 
1 4 1 5
46 27 47 
47 47 48 
48 48 49 
49 49 50 
50 50 1 
1 1001 1 8
51 51 53 
52 53 54 
53 54 55 
54 55 56 
55 56 57 
56 57 58 
57 58 59 
58 59 52 
1 1002 1 8
59 52 61 
60 61 62 
61 62 63 
62 63 64 
63 64 65 
64 65 66 
65 66 67 
66 67 60 
1 1003 1 8
67 60 69 
68 69 70 
69 70 71 
70 71 72 
71 72 73 
72 73 74 
73 74 75 
74 75 68 
2 3001 2 1752
75 15 16 334 
76 16 154 334 
77 154 15 334 
78 18 19 335 
79 19 155 335 
80 155 18 335 
81 80 79 336 
82 79 179 336 
83 179 80 336 
84 93 104 337 
85 104 116 337 
86 116 93 337 
87 130 148 338 
88 148 187 338 
89 187 130 338 
90 171 100 339 
91 100 317 339 
92 317 171 339 
93 226 135 340 
94 135 230 340 
95 230 226 340 
96 8 122 341 
97 122 188 341 
98 188 8 341 
99 148 105 342 
100 105 187 342 
101 187 148 342 
102 131 159 343 
103 159 256 343 
104 256 131 343 
105 220 95 344 
106 95 278 344 
107 278 220 344 
108 215 90 345 
109 90 243 345 
110 243 215 345 
111 155 19 346 
112 19 190 346 
113 190 155 346 
114 105 148 347 
115 148 299 347 
116 299 105 347 
117 104 94 348 
118 94 264 348 
119 264 104 348 
120 110 113 349 
121 113 151 349 
122 151 110 349 
123 114 146 350 
124 146 253 350 
125 253 114 350 
126 86 152 351 
127 152 211 351 
128 211 86 351 
129 205 82 352 
130 82 218 352 
131 218 205 352 
132 148 130 353 
133 130 245 353 
134 245 148 353 
135 207 100 354 
136 100 222 354 
137 222 207 354 
138 127 226 355 
139 226 230 355 
140 230 127 355 
141 186 94 356 
142 94 214 356 
143 214 186 356 
144 256 159 357 
145 159 318 357 
146 318 256 357 
147 144 114 358 
148 114 253 358 
149 253 144 358 
150 136 156 359 
151 156 174 359 
152 174 136 359 
153 94 189 360 
154 189 214 360 
155 214 94 360 
156 15 154 361 
157 154 246 361 
158 246 15 361 
159 107 207 362 
160 207 220 362 
161 220 107 362 
162 245 30 363 
163 30 284 363 
164 284 245 363 
165 154 16 364 
166 16 216 364 
167 216 154 364 
168 165 250 365 
169 250 255 365 
170 255 165 365 
171 119 115 366 
172 115 258 366 
173 258 119 366 
174 66 65 367 
175 65 174 367 
176 174 66 367 
177 118 150 368 
178 150 183 368 
179 183 118 368 
180 22 28 369 
181 28 235 369 
182 235 22 369 
183 26 22 370 
184 22 235 370 
185 235 26 370 
186 18 155 371 
187 155 229 371 
188 229 18 371 
189 135 226 372 
190 226 288 372 
191 288 135 372 
192 89 160 373 
193 160 193 373 
194 193 89 373 
195 146 114 374 
196 114 333 374 
197 333 146 374 
198 233 105 375 
199 105 265 375 
200 265 233 375 
201 155 233 376 
202 233 265 376 
203 265 155 376 
204 82 81 377 
205 81 218 377 
206 218 82 377 
207 113 110 378 
208 110 182 378 
209 182 113 378 
210 126 210 379 
211 210 241 379 
212 241 126 379 
213 60 67 380 
214 67 177 380 
215 177 60 380 
216 98 182 381 
217 182 196 381 
218 196 98 381 
219 145 136 382 
220 136 185 382 
221 185 145 382 
222 98 173 383 
223 173 258 383 
224 258 98 383 
225 64 63 384 
226 63 185 384 
227 185 64 384 
228 93 116 385 
229 116 297 385 
230 297 93 385 
231 103 91 386 
232 91 201 386 
233 201 103 386 
234 166 127 387 
235 127 251 387 
236 251 166 387 
237 250 9 388 
238 9 255 388 
239 255 250 388 
240 251 198 389 
241 198 277 389 
242 277 251 389 
243 161 33 390 
244 33 275 390 
245 275 161 390 
246 159 131 391 
247 131 269 391 
248 269 159 391 
249 122 8 392 
250 8 250 392 
251 250 122 392 
252 198 134 393 
253 134 277 393 
254 277 198 393 
255 33 161 394 
256 161 238 394 
257 238 33 394 
258 50 1 395 
259 1 240 395 
260 240 50 395 
261 44 45 396 
262 45 176 396 
263 176 44 396 
264 89 194 397 
265 194 221 397 
266 221 89 397 
267 178 158 398 
268 158 208 398 
269 208 178 398 
270 100 171 399 
271 171 222 399 
272 222 100 399 
273 91 186 400 
274 186 236 400 
275 236 91 400 
276 152 86 401 
277 86 224 401 
278 224 152 401 
279 148 172 402 
280 172 299 402 
281 299 148 402 
282 216 17 403 
283 17 229 403 
284 229 216 403 
285 95 207 404 
286 207 222 404 
287 222 95 404 
288 97 206 405 
289 206 211 405 
290 211 97 405 
291 215 243 406 
292 243 288 406 
293 288 215 406 
294 246 154 407 
295 154 270 407 
296 270 246 407 
297 7 8 408 
298 8 188 408 
299 188 7 408 
300 173 99 409 
301 99 258 409 
302 258 173 409 
303 148 245 410 
304 245 284 410 
305 284 148 410 
306 144 49 411 
307 49 228 411 
308 228 144 411 
309 91 103 412 
310 103 186 412 
311 186 91 412 
312 49 144 413 
313 144 303 413 
314 303 49 413 
315 188 88 414 
316 88 321 414 
317 321 188 414 
318 210 140 415 
319 140 241 415 
320 241 210 415 
321 195 112 416 
322 112 231 416 
323 231 195 416 
324 132 195 417 
325 195 231 417 
326 231 132 417 
327 1 3 418 
328 3 240 418 
329 240 1 418 
330 176 45 419 
331 45 326 419 
332 326 176 419 
333 29 30 420 
334 30 245 420 
335 245 29 420 
336 35 36 421 
337 36 175 421 
338 175 35 421 
339 226 40 422 
340 40 288 422 
341 288 226 422 
342 89 193 423 
343 193 194 423 
344 194 89 423 
345 189 90 424 
346 90 214 424 
347 214 189 424 
348 162 88 425 
349 88 173 425 
350 173 162 425 
351 157 141 426 
352 141 202 426 
353 202 157 426 
354 114 144 427 
355 144 228 427 
356 228 114 427 
357 161 125 428 
358 125 238 428 
359 238 161 428 
360 89 234 429 
361 234 247 429 
362 247 89 429 
363 126 176 430 
364 176 326 430 
365 326 126 430 
366 234 101 431 
367 101 247 431 
368 247 234 431 
369 125 161 432 
370 161 307 432 
371 307 125 432 
372 117 109 433 
373 109 145 433 
374 145 117 433 
375 143 186 434 
376 186 214 434 
377 214 143 434 
378 136 108 435 
379 108 156 435 
380 156 136 435 
381 108 244 436 
382 244 317 436 
383 317 108 436 
384 113 115 437 
385 115 168 437 
386 168 113 437 
387 112 192 438 
388 192 231 438 
389 231 112 438 
390 192 131 439 
391 131 231 439 
392 231 192 439 
393 132 246 440 
394 246 270 440 
395 270 132 440 
396 24 25 441 
397 25 181 441 
398 181 24 441 
399 104 93 442 
400 93 189 442 
401 189 104 442 
402 59 58 443 
403 58 202 443 
404 202 59 443 
405 72 71 444 
406 71 184 444 
407 184 72 444 
408 197 14 445 
409 14 246 445 
410 246 197 445 
411 194 193 446 
412 193 259 446 
413 259 194 446 
414 13 14 447 
415 14 197 447 
416 197 13 447 
417 166 251 448 
418 251 295 448 
419 295 166 448 
420 160 89 449 
421 89 247 449 
422 247 160 449 
423 19 20 450 
424 20 190 450 
425 190 19 450 
426 74 73 451 
427 73 180 451 
428 180 74 451 
429 115 119 452 
430 119 164 452 
431 164 115 452 
432 262 106 453 
433 106 270 453 
434 270 262 453 
435 109 136 454 
436 136 145 454 
437 145 109 454 
438 128 216 455 
439 216 229 455 
440 229 128 455 
441 141 117 456 
442 117 170 456 
443 170 141 456 
444 70 69 457 
445 69 183 457 
446 183 70 457 
447 127 166 458 
448 166 268 458 
449 268 127 458 
450 57 56 459 
451 56 203 459 
452 203 57 459 
453 162 173 460 
454 173 314 460 
455 314 162 460 
456 122 193 461 
457 193 257 461 
458 257 122 461 
459 43 153 462 
460 153 236 462 
461 236 43 462 
462 170 117 463 
463 117 212 463 
464 212 170 463 
465 137 118 464 
466 118 183 464 
467 183 137 464 
468 53 51 465 
469 51 205 465 
470 205 53 465 
471 42 43 466 
472 43 143 466 
473 143 42 466 
474 139 220 467 
475 220 278 467 
476 278 139 467 
477 125 172 468 
478 172 298 468 
479 298 125 468 
480 38 166 469 
481 166 273 469 
482 273 38 469 
483 166 38 470 
484 38 268 470 
485 268 166 470 
486 116 104 471 
487 104 319 471 
488 319 116 471 
489 55 54 472 
490 54 208 472 
491 208 55 472 
492 68 75 473 
493 75 204 473 
494 204 68 473 
495 43 44 474 
496 44 153 474 
497 153 43 474 
498 176 86 475 
499 86 331 475 
500 331 176 475 
501 88 160 476 
502 160 283 476 
503 283 88 476 
504 143 43 477 
505 43 236 477 
506 236 143 477 
507 201 109 478 
508 109 286 478 
509 286 201 478 
510 88 188 479 
511 188 257 479 
512 257 88 479 
513 206 86 480 
514 86 211 480 
515 211 206 480 
516 153 44 481 
517 44 176 481 
518 176 153 481 
519 116 124 482 
520 124 297 482 
521 297 116 482 
522 132 197 483 
523 197 246 483 
524 246 132 483 
525 173 88 484 
526 88 283 484 
527 283 173 484 
528 182 110 485 
529 110 292 485 
530 292 182 485 
531 154 262 486 
532 262 270 486 
533 270 154 486 
534 102 192 487 
535 192 295 487 
536 295 102 487 
537 86 176 488 
538 176 224 488 
539 224 86 488 
540 214 90 489 
541 90 215 489 
542 215 214 489 
543 182 96 490 
544 96 196 490 
545 196 182 490 
546 113 182 491 
547 182 302 491 
548 302 113 491 
549 119 120 492 
550 120 179 492 
551 179 119 492 
552 186 143 493 
553 143 236 493 
554 236 186 493 
555 211 152 494 
556 152 311 494 
557 311 211 494 
558 195 106 495 
559 106 290 495 
560 290 195 495 
561 6 169 496 
562 169 266 496 
563 266 6 496 
564 200 92 497 
565 92 311 497 
566 311 200 497 
567 207 95 498 
568 95 220 498 
569 220 207 498 
570 94 104 499 
571 104 189 499 
572 189 94 499 
573 129 150 500 
574 150 309 500 
575 309 129 500 
576 33 34 501 
577 34 275 501 
578 275 33 501 
579 97 109 502 
580 109 201 502 
581 201 97 502 
582 16 17 503 
583 17 216 503 
584 216 16 503 
585 172 125 504 
586 125 299 504 
587 299 172 504 
588 189 93 505 
589 93 199 505 
590 199 189 505 
591 193 122 506 
592 122 259 506 
593 259 193 506 
594 147 167 507 
595 167 261 507 
596 261 147 507 
597 110 151 508 
598 151 324 508 
599 324 110 508 
600 200 95 509 
601 95 222 509 
602 222 200 509 
603 244 171 510 
604 171 317 510 
605 317 244 510 
606 123 187 511 
607 187 233 511 
608 233 123 511 
609 77 76 512 
610 76 209 512 
611 209 77 512 
612 83 133 513 
613 133 194 513 
614 194 83 513 
615 97 201 514 
616 201 206 514 
617 206 97 514 
618 62 61 515 
619 61 212 515 
620 212 62 515 
621 17 18 516 
622 18 229 516 
623 229 17 516 
624 32 33 517 
625 33 238 517 
626 238 32 517 
627 190 123 518 
628 123 233 518 
629 233 190 518 
630 192 142 519 
631 142 295 519 
632 295 192 519 
633 9 10 520 
634 10 255 520 
635 255 9 520 
636 122 250 521 
637 250 259 521 
638 259 122 521 
639 181 123 522 
640 123 287 522 
641 287 181 522 
642 123 190 523 
643 190 301 523 
644 301 123 523 
645 125 217 524 
646 217 225 524 
647 225 125 524 
648 217 128 525 
649 128 225 525 
650 225 217 525 
651 163 200 526 
652 200 311 526 
653 311 163 526 
654 191 123 527 
655 123 301 527 
656 301 191 527 
657 187 105 528 
658 105 233 528 
659 233 187 528 
660 31 172 529 
661 172 284 529 
662 284 31 529 
663 95 200 530 
664 200 278 530 
665 278 95 530 
666 138 195 531 
667 195 290 531 
668 290 138 531 
669 6 7 532 
670 7 169 532 
671 169 6 532 
672 130 187 533 
673 187 310 533 
674 310 130 533 
675 165 134 534 
676 134 308 534 
677 308 165 534 
678 303 140 535 
679 140 320 535 
680 320 303 535 
681 117 145 536 
682 145 212 536 
683 212 117 536 
684 243 135 537 
685 135 288 537 
686 288 243 537 
687 134 165 538 
688 165 255 538 
689 255 134 538 
690 215 42 539 
691 42 330 539 
692 330 215 539 
693 106 195 540 
694 195 270 540 
695 270 106 540 
696 90 199 541 
697 199 243 541 
698 243 90 541 
699 150 118 542 
700 118 309 542 
701 309 150 542 
702 191 23 543 
703 23 287 543 
704 287 191 543 
705 35 175 544 
706 175 300 544 
707 300 35 544 
708 123 191 545 
709 191 287 545 
710 287 123 545 
711 96 220 546 
712 220 282 546 
713 282 96 546 
714 79 78 547 
715 78 219 547 
716 219 79 547 
717 172 148 548 
718 148 284 548 
719 284 172 548 
720 172 31 549 
721 31 298 549 
722 298 172 549 
723 134 242 550 
724 242 277 550 
725 277 134 550 
726 131 197 551 
727 197 231 551 
728 231 131 551 
729 197 132 552 
730 132 231 552 
731 231 197 552 
732 155 190 553 
733 190 233 553 
734 233 155 553 
735 99 119 554 
736 119 258 554 
737 258 99 554 
738 201 91 555 
739 91 206 555 
740 206 201 555 
741 41 42 556 
742 42 215 556 
743 215 41 556 
744 109 97 557 
745 97 244 557 
746 244 109 557 
747 142 192 558 
748 192 296 558 
749 296 142 558 
750 192 112 559 
751 112 296 559 
752 296 192 559 
753 192 102 560 
754 102 269 560 
755 269 192 560 
756 83 198 561 
757 198 230 561 
758 230 83 561 
759 242 159 562 
760 159 277 562 
761 277 242 562 
762 238 125 563 
763 125 298 563 
764 298 238 563 
765 124 101 564 
766 101 297 564 
767 297 124 564 
768 118 100 565 
769 100 207 565 
770 207 118 565 
771 173 98 566 
772 98 314 566 
773 314 173 566 
774 188 122 567 
775 122 257 567 
776 257 188 567 
777 129 107 568 
778 107 305 568 
779 305 129 568 
780 111 263 569 
781 263 294 569 
782 294 111 569 
783 121 111 570 
784 111 157 570 
785 157 121 570 
786 217 106 571 
787 106 262 571 
788 262 217 571 
789 100 118 572 
790 118 254 572 
791 254 100 572 
792 175 36 573 
793 36 260 573 
794 260 175 573 
795 194 133 574 
796 133 221 574 
797 221 194 574 
798 200 163 575 
799 163 322 575 
800 322 200 575 
801 98 196 576 
802 196 314 576 
803 314 98 576 
804 300 175 577 
805 175 315 577 
806 315 300 577 
807 133 83 578 
808 83 332 578 
809 332 133 578 
810 169 7 579 
811 7 188 579 
812 188 169 579 
813 97 171 580 
814 171 244 580 
815 244 97 580 
816 220 139 581 
817 139 282 581 
818 282 220 581 
819 21 191 582 
820 191 301 582 
821 301 21 582 
822 48 303 583 
823 303 320 583 
824 320 48 583 
825 92 211 584 
826 211 311 584 
827 311 92 584 
828 260 37 585 
829 37 273 585 
830 273 260 585 
831 39 40 586 
832 40 226 586 
833 226 39 586 
834 36 37 587 
835 37 260 587 
836 260 36 587 
837 23 24 588 
838 24 287 588 
839 287 23 588 
840 103 201 589 
841 201 286 589 
842 286 103 589 
843 111 141 590 
844 141 157 590 
845 157 111 590 
846 250 165 591 
847 165 259 591 
848 259 250 591 
849 251 102 592 
850 102 295 592 
851 295 251 592 
852 69 60 593 
853 60 249 593 
854 249 69 593 
855 286 117 594 
856 117 294 594 
857 294 286 594 
858 153 176 595 
859 176 331 595 
860 331 153 595 
861 147 261 596 
862 261 279 596 
863 279 147 596 
864 99 173 597 
865 173 283 597 
866 283 99 597 
867 199 93 598 
868 93 221 598 
869 221 199 598 
870 198 127 599 
871 127 230 599 
872 230 198 599 
873 5 6 600 
874 6 267 600 
875 267 5 600 
876 25 26 601 
877 26 276 601 
878 276 25 601 
879 186 103 602 
880 103 263 602 
881 263 186 602 
882 67 66 603 
883 66 213 603 
884 213 67 603 
885 90 189 604 
886 189 199 604 
887 199 90 604 
888 199 133 605 
889 133 243 605 
890 243 199 605 
891 3 4 606 
892 4 248 606 
893 248 3 606 
894 195 132 607 
895 132 270 607 
896 270 195 607 
897 193 160 608 
898 160 257 608 
899 257 193 608 
900 138 300 609 
901 300 315 609 
902 315 138 609 
903 65 64 610 
904 64 223 610 
905 223 65 610 
906 24 181 611 
907 181 287 611 
908 287 24 611 
909 221 93 612 
910 93 234 612 
911 234 221 612 
912 37 38 613 
913 38 273 613 
914 273 37 613 
915 171 97 614 
916 97 211 614 
917 211 171 614 
918 179 79 615 
919 79 219 615 
920 219 179 615 
921 167 5 616 
922 5 267 616 
923 267 167 616 
924 49 50 617 
925 50 228 617 
926 228 49 617 
927 130 181 618 
928 181 276 618 
929 276 130 618 
930 123 181 619 
931 181 310 619 
932 310 123 619 
933 42 143 620 
934 143 330 620 
935 330 42 620 
936 10 11 621 
937 11 242 621 
938 242 10 621 
939 197 131 622 
940 131 256 622 
941 256 197 622 
942 13 197 623 
943 197 256 623 
944 256 13 623 
945 158 178 624 
946 178 319 624 
947 319 158 624 
948 181 25 625 
949 25 276 625 
950 276 181 625 
951 20 21 626 
952 21 301 626 
953 301 20 626 
954 38 39 627 
955 39 268 627 
956 268 38 627 
957 181 130 628 
958 130 310 628 
959 310 181 628 
960 81 80 629 
961 80 239 629 
962 239 81 629 
963 228 50 630 
964 50 240 630 
965 240 228 630 
966 261 139 631 
967 139 278 631 
968 278 261 631 
969 48 49 632 
970 49 303 632 
971 303 48 632 
972 87 162 633 
973 162 196 633 
974 196 87 633 
975 187 123 634 
976 123 310 634 
977 310 187 634 
978 131 192 635 
979 192 269 635 
980 269 131 635 
981 125 225 636 
982 225 299 636 
983 299 125 636 
984 85 200 637 
985 200 322 637 
986 322 85 637 
987 261 85 638 
988 85 279 638 
989 279 261 638 
990 139 87 639 
991 87 282 639 
992 282 139 639 
993 114 228 640 
994 228 240 640 
995 240 114 640 
996 226 127 641 
997 127 268 641 
998 268 226 641 
999 60 177 642 
1000 177 249 642 
1001 249 60 642 
1002 224 126 643 
1003 126 272 643 
1004 272 224 643 
1005 26 235 644 
1006 235 276 644 
1007 276 26 644 
1008 6 266 645 
1009 266 267 645 
1010 267 6 645 
1011 130 235 646 
1012 235 328 646 
1013 328 130 646 
1014 240 3 647 
1015 3 248 647 
1016 248 240 647 
1017 52 59 648 
1018 59 232 648 
1019 232 52 648 
1020 217 125 649 
1021 125 307 649 
1022 307 217 649 
1023 107 220 650 
1024 220 292 650 
1025 292 107 650 
1026 47 48 651 
1027 48 320 651 
1028 320 47 651 
1029 263 103 652 
1030 103 294 652 
1031 294 263 652 
1032 147 248 653 
1033 248 306 653 
1034 306 147 653 
1035 248 147 654 
1036 147 333 654 
1037 333 248 654 
1038 169 188 655 
1039 188 321 655 
1040 321 169 655 
1041 160 88 656 
1042 88 257 656 
1043 257 160 656 
1044 120 101 657 
1045 101 124 657 
1046 124 120 657 
1047 195 138 658 
1048 138 315 658 
1049 315 195 658 
1050 112 195 659 
1051 195 315 659 
1052 315 112 659 
1053 72 184 660 
1054 184 291 660 
1055 291 72 660 
1056 245 130 661 
1057 130 328 661 
1058 328 245 661 
1059 184 71 662 
1060 71 293 662 
1061 293 184 662 
1062 58 57 663 
1063 57 280 663 
1064 280 58 663 
1065 23 191 664 
1066 191 329 664 
1067 329 23 664 
1068 191 21 665 
1069 21 329 665 
1070 329 191 665 
1071 247 101 666 
1072 101 289 666 
1073 289 247 666 
1074 14 15 667 
1075 15 246 667 
1076 246 14 667 
1077 190 20 668 
1078 20 301 668 
1079 301 190 668 
1080 30 31 669 
1081 31 284 669 
1082 284 30 669 
1083 107 292 670 
1084 292 305 670 
1085 305 107 670 
1086 180 73 671 
1087 73 291 671 
1088 291 180 671 
1089 118 207 672 
1090 207 309 672 
1091 309 118 672 
1092 80 179 673 
1093 179 239 673 
1094 239 80 673 
1095 85 261 674 
1096 261 278 674 
1097 278 85 674 
1098 127 198 675 
1099 198 251 675 
1100 251 127 675 
1101 8 9 676 
1102 9 250 676 
1103 250 8 676 
1104 56 55 677 
1105 55 285 677 
1106 285 56 677 
1107 105 225 678 
1108 225 265 678 
1109 265 105 678 
1110 63 62 679 
1111 62 227 679 
1112 227 63 679 
1113 70 183 680 
1114 183 293 680 
1115 293 70 680 
1116 66 174 681 
1117 174 213 681 
1118 213 66 681 
1119 216 128 682 
1120 128 262 682 
1121 262 216 682 
1122 273 166 683 
1123 166 295 683 
1124 295 273 683 
1125 124 178 684 
1126 178 205 684 
1127 205 124 684 
1128 128 217 685 
1129 217 262 685 
1130 262 128 685 
1131 75 74 686 
1132 74 274 686 
1133 274 75 686 
1134 176 126 687 
1135 126 224 687 
1136 224 176 687 
1137 99 247 688 
1138 247 289 688 
1139 289 99 688 
1140 114 248 689 
1141 248 333 689 
1142 333 114 689 
1143 109 117 690 
1144 117 286 690 
1145 286 109 690 
1146 142 273 691 
1147 273 295 691 
1148 295 142 691 
1149 126 241 692 
1150 241 272 692 
1151 272 126 692 
1152 84 241 693 
1153 241 252 693 
1154 252 84 693 
1155 198 83 694 
1156 83 308 694 
1157 308 198 694 
1158 45 46 695 
1159 46 326 695 
1160 326 45 695 
1161 292 110 696 
1162 110 305 696 
1163 305 292 696 
1164 74 180 697 
1165 180 274 697 
1166 274 74 697 
1167 128 229 698 
1168 229 265 698 
1169 265 128 698 
1170 229 155 699 
1171 155 265 699 
1172 265 229 699 
1173 12 13 700 
1174 13 256 700 
1175 256 12 700 
1176 177 67 701 
1177 67 213 701 
1178 213 177 701 
1179 88 162 702 
1180 162 321 702 
1181 321 88 702 
1182 114 240 703 
1183 240 248 703 
1184 248 114 703 
1185 134 198 704 
1186 198 308 704 
1187 308 134 704 
1188 115 113 705 
1189 113 302 705 
1190 302 115 705 
1191 89 221 706 
1192 221 234 706 
1193 234 89 706 
1194 167 147 707 
1195 147 306 707 
1196 306 167 707 
1197 241 84 708 
1198 84 272 708 
1199 272 241 708 
1200 174 65 709 
1201 65 223 709 
1202 223 174 709 
1203 40 41 710 
1204 41 288 710 
1205 288 40 710 
1206 142 260 711 
1207 260 273 711 
1208 273 142 711 
1209 152 224 712 
1210 224 272 712 
1211 272 152 712 
1212 118 137 713 
1213 137 254 713 
1214 254 118 713 
1215 92 171 714 
1216 171 211 714 
1217 211 92 714 
1218 117 141 715 
1219 141 294 715 
1220 294 117 715 
1221 102 251 716 
1222 251 277 716 
1223 277 102 716 
1224 4 5 717 
1225 5 306 717 
1226 306 4 717 
1227 183 69 718 
1228 69 249 718 
1229 249 183 718 
1230 101 234 719 
1231 234 297 719 
1232 297 101 719 
1233 108 136 720 
1234 136 244 720 
1235 244 108 720 
1236 31 32 721 
1237 32 298 721 
1238 298 31 721 
1239 154 216 722 
1240 216 262 722 
1241 262 154 722 
1242 34 35 723 
1243 35 300 723 
1244 300 34 723 
1245 204 75 724 
1246 75 274 724 
1247 274 204 724 
1248 230 135 725 
1249 135 332 725 
1250 332 230 725 
1251 64 185 726 
1252 185 223 726 
1253 223 64 726 
1254 151 113 727 
1255 113 204 727 
1256 204 151 727 
1257 159 242 728 
1258 242 318 728 
1259 318 159 728 
1260 54 53 729 
1261 53 237 729 
1262 237 54 729 
1263 124 116 730 
1264 116 178 730 
1265 178 124 730 
1266 12 256 731 
1267 256 318 731 
1268 318 12 731 
1269 101 120 732 
1270 120 289 732 
1271 289 101 732 
1272 185 63 733 
1273 63 227 733 
1274 227 185 733 
1275 242 11 734 
1276 11 318 734 
1277 318 242 734 
1278 120 124 735 
1279 124 218 735 
1280 218 120 735 
1281 171 92 736 
1282 92 222 736 
1283 222 171 736 
1284 10 242 737 
1285 242 255 737 
1286 255 10 737 
1287 113 168 738 
1288 168 204 738 
1289 204 113 738 
1290 129 149 739 
1291 149 184 739 
1292 184 129 739 
1293 46 210 740 
1294 210 326 740 
1295 326 46 740 
1296 159 269 741 
1297 269 277 741 
1298 277 159 741 
1299 210 126 742 
1300 126 326 742 
1301 326 210 742 
1302 150 129 743 
1303 129 184 743 
1304 184 150 743 
1305 91 236 744 
1306 236 271 744 
1307 271 91 744 
1308 92 200 745 
1309 200 222 745 
1310 222 92 745 
1311 136 174 746 
1312 174 223 746 
1313 223 136 746 
1314 225 128 747 
1315 128 265 747 
1316 265 225 747 
1317 73 72 748 
1318 72 291 748 
1319 291 73 748 
1320 269 102 749 
1321 102 277 749 
1322 277 269 749 
1323 71 70 750 
1324 70 293 750 
1325 293 71 750 
1326 214 215 751 
1327 215 330 751 
1328 330 214 751 
1329 68 204 752 
1330 204 312 752 
1331 312 68 752 
1332 83 230 753 
1333 230 332 753 
1334 332 83 753 
1335 185 136 754 
1336 136 223 754 
1337 223 185 754 
1338 182 98 755 
1339 98 302 755 
1340 302 182 755 
1341 248 4 756 
1342 4 306 756 
1343 306 248 756 
1344 206 91 757 
1345 91 271 757 
1346 271 206 757 
1347 175 296 758 
1348 296 315 758 
1349 315 175 758 
1350 196 96 759 
1351 96 282 759 
1352 282 196 759 
1353 21 2 760 
1354 2 329 760 
1355 329 21 760 
1356 2 23 761 
1357 23 329 761 
1358 329 2 761 
1359 296 112 762 
1360 112 315 762 
1361 315 296 762 
1362 83 259 763 
1363 259 308 763 
1364 308 83 763 
1365 107 129 764 
1366 129 309 764 
1367 309 107 764 
1368 162 87 765 
1369 87 266 765 
1370 266 162 765 
1371 161 275 766 
1372 275 290 766 
1373 290 161 766 
1374 275 138 767 
1375 138 290 767 
1376 290 275 767 
1377 218 81 768 
1378 81 239 768 
1379 239 218 768 
1380 27 47 769 
1381 47 316 769 
1382 316 27 769 
1383 46 27 770 
1384 27 316 770 
1385 316 46 770 
1386 11 12 771 
1387 12 318 771 
1388 318 11 771 
1389 135 243 772 
1390 243 332 772 
1391 332 135 772 
1392 259 165 773 
1393 165 308 773 
1394 308 259 773 
1395 106 217 774 
1396 217 307 774 
1397 307 106 774 
1398 28 29 775 
1399 29 328 775 
1400 328 28 775 
1401 39 226 776 
1402 226 268 776 
1403 268 39 776 
1404 207 107 777 
1405 107 309 777 
1406 309 207 777 
1407 119 99 778 
1408 99 289 778 
1409 289 119 778 
1410 76 68 779 
1411 68 312 779 
1412 312 76 779 
1413 202 58 780 
1414 58 280 780 
1415 280 202 780 
1416 242 134 781 
1417 134 255 781 
1418 255 242 781 
1419 235 130 782 
1420 130 276 782 
1421 276 235 782 
1422 140 210 783 
1423 210 320 783 
1424 320 140 783 
1425 96 182 784 
1426 182 292 784 
1427 292 96 784 
1428 263 111 785 
1429 111 264 785 
1430 264 263 785 
1431 209 76 786 
1432 76 312 786 
1433 312 209 786 
1434 225 105 787 
1435 105 299 787 
1436 299 225 787 
1437 84 252 788 
1438 252 253 788 
1439 253 84 788 
1440 57 203 789 
1441 203 280 789 
1442 280 57 789 
1443 59 202 790 
1444 202 232 790 
1445 232 59 790 
1446 83 194 791 
1447 194 259 791 
1448 259 83 791 
1449 77 209 792 
1450 209 323 792 
1451 323 77 792 
1452 87 196 793 
1453 196 282 793 
1454 282 87 793 
1455 234 93 794 
1456 93 297 794 
1457 297 234 794 
1458 78 77 795 
1459 77 323 795 
1460 323 78 795 
1461 252 140 796 
1462 140 303 796 
1463 303 252 796 
1464 61 52 797 
1465 52 325 797 
1466 325 61 797 
1467 203 56 798 
1468 56 285 798 
1469 285 203 798 
1470 212 61 799 
1471 61 325 799 
1472 325 212 799 
1473 87 139 800 
1474 139 304 800 
1475 304 87 800 
1476 144 252 801 
1477 252 303 801 
1478 303 144 801 
1479 152 272 802 
1480 272 327 802 
1481 327 152 802 
1482 103 286 803 
1483 286 294 803 
1484 294 103 803 
1485 120 119 804 
1486 119 289 804 
1487 289 120 804 
1488 55 208 805 
1489 208 285 805 
1490 285 55 805 
1491 272 84 806 
1492 84 327 806 
1493 327 272 806 
1494 258 115 807 
1495 115 302 807 
1496 302 258 807 
1497 219 78 808 
1498 78 323 808 
1499 323 219 808 
1500 133 199 809 
1501 199 221 809 
1502 221 133 809 
1503 163 313 810 
1504 313 322 810 
1505 322 163 810 
1506 254 137 811 
1507 137 281 811 
1508 281 254 811 
1509 266 87 812 
1510 87 267 812 
1511 267 266 812 
1512 200 85 813 
1513 85 278 813 
1514 278 200 813 
1515 32 238 814 
1516 238 298 814 
1517 298 32 814 
1518 111 121 815 
1519 121 264 815 
1520 264 111 815 
1521 220 96 816 
1522 96 292 816 
1523 292 220 816 
1524 62 212 817 
1525 212 227 817 
1526 227 62 817 
1527 94 186 818 
1528 186 263 818 
1529 263 94 818 
1530 84 253 819 
1531 253 313 819 
1532 313 84 819 
1533 267 87 820 
1534 87 304 820 
1535 304 267 820 
1536 151 180 821 
1537 180 324 821 
1538 324 151 821 
1539 275 34 822 
1540 34 300 822 
1541 300 275 822 
1542 247 99 823 
1543 99 283 823 
1544 283 247 823 
1545 5 167 824 
1546 167 306 824 
1547 306 5 824 
1548 235 28 825 
1549 28 328 825 
1550 328 235 825 
1551 53 205 826 
1552 205 237 826 
1553 237 53 826 
1554 104 121 827 
1555 121 319 827 
1556 319 104 827 
1557 121 157 828 
1558 157 203 828 
1559 203 121 828 
1560 141 111 829 
1561 111 294 829 
1562 294 141 829 
1563 210 46 830 
1564 46 316 830 
1565 316 210 830 
1566 208 54 831 
1567 54 237 831 
1568 237 208 831 
1569 241 140 832 
1570 140 252 832 
1571 252 241 832 
1572 158 121 833 
1573 121 203 833 
1574 203 158 833 
1575 313 146 834 
1576 146 322 834 
1577 322 313 834 
1578 202 141 835 
1579 141 232 835 
1580 232 202 835 
1581 149 129 836 
1582 129 305 836 
1583 305 149 836 
1584 136 109 837 
1585 109 244 837 
1586 244 136 837 
1587 52 232 838 
1588 232 325 838 
1589 325 52 838 
1590 108 254 839 
1591 254 281 839 
1592 281 108 839 
1593 175 260 840 
1594 260 296 840 
1595 296 175 840 
1596 260 142 841 
1597 142 296 841 
1598 296 260 841 
1599 41 215 842 
1600 215 288 842 
1601 288 41 842 
1602 243 133 843 
1603 133 332 843 
1604 332 243 843 
1605 121 104 844 
1606 104 264 844 
1607 264 121 844 
1608 29 245 845 
1609 245 328 845 
1610 328 29 845 
1611 94 263 846 
1612 263 264 846 
1613 264 94 846 
1614 137 183 847 
1615 183 249 847 
1616 249 137 847 
1617 143 214 848 
1618 214 330 848 
1619 330 143 848 
1620 138 275 849 
1621 275 300 849 
1622 300 138 849 
1623 253 146 850 
1624 146 313 850 
1625 313 253 850 
1626 162 266 851 
1627 266 321 851 
1628 321 162 851 
1629 139 261 852 
1630 261 304 852 
1631 304 139 852 
1632 124 205 853 
1633 205 218 853 
1634 218 124 853 
1635 84 313 854 
1636 313 327 854 
1637 327 84 854 
1638 156 108 855 
1639 108 281 855 
1640 281 156 855 
1641 279 85 856 
1642 85 322 856 
1643 322 279 856 
1644 161 290 857 
1645 290 307 857 
1646 307 161 857 
1647 290 106 858 
1648 106 307 858 
1649 307 290 858 
1650 178 116 859 
1651 116 319 859 
1652 319 178 859 
1653 184 149 860 
1654 149 291 860 
1655 291 184 860 
1656 150 184 861 
1657 184 293 861 
1658 293 150 861 
1659 313 163 862 
1660 163 327 862 
1661 327 313 862 
1662 180 151 863 
1663 151 274 863 
1664 274 180 863 
1665 121 158 864 
1666 158 319 864 
1667 319 121 864 
1668 149 180 865 
1669 180 291 865 
1670 291 149 865 
1671 86 206 866 
1672 206 331 866 
1673 331 86 866 
1674 115 164 867 
1675 164 209 867 
1676 209 115 867 
1677 168 115 868 
1678 115 209 868 
1679 209 168 868 
1680 236 153 869 
1681 153 271 869 
1682 271 236 869 
1683 183 150 870 
1684 150 293 870 
1685 293 183 870 
1686 141 170 871 
1687 170 232 871 
1688 232 141 871 
1689 164 119 872 
1690 119 219 872 
1691 219 164 872 
1692 196 162 873 
1693 162 314 873 
1694 314 196 873 
1695 167 267 874 
1696 267 304 874 
1697 304 167 874 
1698 180 149 875 
1699 149 324 875 
1700 324 180 875 
1701 279 146 876 
1702 146 333 876 
1703 333 279 876 
1704 252 144 877 
1705 144 253 877 
1706 253 252 877 
1707 210 316 878 
1708 316 320 878 
1709 320 210 878 
1710 147 279 879 
1711 279 333 879 
1712 333 147 879 
1713 146 279 880 
1714 279 322 880 
1715 322 146 880 
1716 311 152 881 
1717 152 327 881 
1718 327 311 881 
1719 119 179 882 
1720 179 219 882 
1721 219 119 882 
1722 151 204 883 
1723 204 274 883 
1724 274 151 883 
1725 137 177 884 
1726 177 281 884 
1727 281 137 884 
1728 177 137 885 
1729 137 249 885 
1730 249 177 885 
1731 156 177 886 
1732 177 213 886 
1733 213 156 886 
1734 212 145 887 
1735 145 227 887 
1736 227 212 887 
1737 163 311 888 
1738 311 327 888 
1739 327 163 888 
1740 177 156 889 
1741 156 281 889 
1742 281 177 889 
1743 98 258 890 
1744 258 302 890 
1745 302 98 890 
1746 254 108 891 
1747 108 317 891 
1748 317 254 891 
1749 206 271 892 
1750 271 331 892 
1751 331 206 892 
1752 316 47 893 
1753 47 320 893 
1754 320 316 893 
1755 160 247 894 
1756 247 283 894 
1757 283 160 894 
1758 149 305 895 
1759 305 324 895 
1760 324 149 895 
1761 174 156 896 
1762 156 213 896 
1763 213 174 896 
1764 271 153 897 
1765 153 331 897 
1766 331 271 897 
1767 204 168 898 
1768 168 312 898 
1769 312 204 898 
1770 261 167 899 
1771 167 304 899 
1772 304 261 899 
1773 145 185 900 
1774 185 227 900 
1775 227 145 900 
1776 179 120 901 
1777 120 239 901 
1778 239 179 901 
1779 266 169 902 
1780 169 321 902 
1781 321 266 902 
1782 168 209 903 
1783 209 312 903 
1784 312 168 903 
1785 232 170 904 
1786 170 325 904 
1787 325 232 904 
1788 209 164 905 
1789 164 323 905 
1790 323 209 905 
1791 100 254 906 
1792 254 317 906 
1793 317 100 906 
1794 170 212 907 
1795 212 325 907 
1796 325 170 907 
1797 164 219 908 
1798 219 323 908 
1799 323 164 908 
1800 120 218 909 
1801 218 239 909 
1802 239 120 909 
1803 157 202 910 
1804 202 280 910 
1805 280 157 910 
1806 203 157 911 
1807 157 280 911 
1808 280 203 911 
1809 178 208 912 
1810 208 237 912 
1811 237 178 912 
1812 158 203 913 
1813 203 285 913 
1814 285 158 913 
1815 208 158 914 
1816 158 285 914 
1817 285 208 914 
1818 305 110 915 
1819 110 324 915 
1820 324 305 915 
1821 205 178 916 
1822 178 237 916 
1823 237 205 916 
1824 51 82 917 
1825 82 205 917 
1826 205 51 917 
$EndElements
