$MeshFormat
4.1 0 8
$EndMeshFormat
$PhysicalNames
6
1 1 "Left"
1 2 "Right"
1 3 "Bottom"
1 4 "Top"
1 6 "Airfoil"
2 5 "Fluid"
$EndPhysicalNames
$Entities
0 7 1 0
1 0 0 0 40 0 0 1 3 0 
2 40 0 0 40 10 0 1 2 0 
3 0 10 0 40 10 0 1 4 0 
4 0 0 0 0 10 0 1 1 0 
1001 8.5 5 0 9 5.5 0 1 6 0 
1002 8 5 0 8.5 5.5 0 1 6 0 
1003 8 4.5 0 8.5 5 0 1 6 0 
3001 0 0 0 40 10 0 1 5 0 
$EndEntities
$Nodes
8 623 1 623
1 1 0 21
1
2
3
4
5
6
7
8
9
10
11
12
13
14
15
16
17
18
19
20
21
0 0 0
40 0 0
1.999999999998205 0 0
3.999999999996757 0 0
5.999999999993141 0 0
7.999999999987307 0 0
9.999999999981473 0 0
11.99999999997564 0 0
13.9999999999698 0 0
15.99999999996411 0 0
17.9999999999666 0 0
19.99999999996964 0 0
21.99999999997269 0 0
23.99999999997573 0 0
25.99999999997878 0 0
27.99999999998182 0 0
29.99999999998487 0 0
31.99999999998791 0 0
33.99999999999093 0 0
35.99999999999396 0 0
37.99999999999698 0 0
1 2 0 5
22
23
24
25
26
40 10 0
40 1.999999999996827 0
40 3.999999999991027 0
40 5.999999999993932 0
40 7.999999999996978 0
1 3 0 20
27
28
29
30
31
32
33
34
35
36
37
38
39
40
41
42
43
44
45
46
0 10 0
37.99999999999999 10 0
35.99999999999999 10 0
33.99999999999999 10 0
31.99999999999998 10 0
29.99999999999998 10 0
27.99999999999998 10 0
25.99999999999997 10 0
23.99999999999996 10 0
21.99999999999996 10 0
19.99999999999996 10 0
17.99999999999995 10 0
15.99999999999995 10 0
13.99999999999995 10 0
11.99999999999994 10 0
9.999999999999936 10 0
7.999999999999929 10 0
5.99999999999995 10 0
3.999999999999964 10 0
1.999999999999986 10 0
1 4 0 4
47
48
49
50
0 7.999999999999996 0
0 5.999999999999991 0
0 3.999999999999988 0
0 1.999999999999982 0
1 1001 0 3
51
52
53
9 5 0
8.5 5.5 0
8.853553388512619 5.353553392673928 0
1 1002 0 2
54
55
8 5 0
8.146446609683098 5.353553390869645 0
1 1003 0 2
56
57
8.5 4.5 0
8.146446611487381 4.646446607326072 0
2 3001 0 566
58
59
60
61
62
63
64
65
66
67
68
69
70
71
72
73
74
75
76
77
78
79
80
81
82
83
84
85
86
87
88
89
90
91
92
93
94
95
96
97
98
99
100
101
102
103
104
105
106
107
108
109
110
111
112
113
114
115
116
117
118
119
120
121
122
123
124
125
126
127
128
129
130
131
132
133
134
135
136
137
138
139
140
141
142
143
144
145
146
147
148
149
150
151
152
153
154
155
156
157
158
159
160
161
162
163
164
165
166
167
168
169
170
171
172
173
174
175
176
177
178
179
180
181
182
183
184
185
186
187
188
189
190
191
192
193
194
195
196
197
198
199
200
201
202
203
204
205
206
207
208
209
210
211
212
213
214
215
216
217
218
219
220
221
222
223
224
225
226
227
228
229
230
231
232
233
234
235
236
237
238
239
240
241
242
243
244
245
246
247
248
249
250
251
252
253
254
255
256
257
258
259
260
261
262
263
264
265
266
267
268
269
270
271
272
273
274
275
276
277
278
279
280
281
282
283
284
285
286
287
288
289
290
291
292
293
294
295
296
297
298
299
300
301
302
303
304
305
306
307
308
309
310
311
312
313
314
315
316
317
318
319
320
321
322
323
324
325
326
327
328
329
330
331
332
333
334
335
336
337
338
339
340
341
342
343
344
345
346
347
348
349
350
351
352
353
354
355
356
357
358
359
360
361
362
363
364
365
366
367
368
369
370
371
372
373
374
375
376
377
378
379
380
381
382
383
384
385
386
387
388
389
390
391
392
393
394
395
396
397
398
399
400
401
402
403
404
405
406
407
408
409
410
411
412
413
414
415
416
417
418
419
420
421
422
423
424
425
426
427
428
429
430
431
432
433
434
435
436
437
438
439
440
441
442
443
444
445
446
447
448
449
450
451
452
453
454
455
456
457
458
459
460
461
462
463
464
465
466
467
468
469
470
471
472
473
474
475
476
477
478
479
480
481
482
483
484
485
486
487
488
489
490
491
492
493
494
495
496
497
498
499
500
501
502
503
504
505
506
507
508
509
510
511
512
513
514
515
516
517
518
519
520
521
522
523
524
525
526
527
528
529
530
531
532
533
534
535
536
537
538
539
540
541
542
543
544
545
546
547
548
549
550
551
552
553
554
555
556
557
558
559
560
561
562
563
564
565
566
567
568
569
570
571
572
573
574
575
576
577
578
579
580
581
582
583
584
585
586
587
588
589
590
591
592
593
594
595
596
597
598
599
600
601
602
603
604
605
606
607
608
609
610
611
612
613
614
615
616
617
618
619
620
621
622
623
8.853553390316902 4.646446609130355 0
4.793897434724722 6.535117947779783 0
5.418223844127556 3.723486509415669 0
12.14814683573429 3.488888101439854 0
11.54144988616495 6.259809802612543 0
9.518902255673728 7.574166827589581 0
7.39014847294207 2.309037120349519 0
7.305640107583133 7.273356342927524 0
9.511079962642956 2.657440737018633 0
17.03259849564547 4.787000322336954 0
6.502995062825225 5.87415598875473 0
33.10875366804025 5.185050584280587 0
27.35946702749347 4.634184186347184 0
22.00752162167478 5.007521621674796 0
10.61616952757338 4.127088036022474 0
10.22813739990347 5.715817954641675 0
6.75160869860883 4.275792604601321 0
36.44862411418951 3.592022007523495 0
14.19286706562283 5.146468739539287 0
9.161132939547382 6.629083349878696 0
2.804344851750962 4.626852814281083 0
7.143182246742617 5.574495706450906 0
30.25275397664717 6.704965364878277 0
9.112661963735407 3.529581373126535 0
7.819712615778183 3.341658487964963 0
14.81491058359214 2.668456148575437 0
30.05628582210356 3.379245991966556 0
36.78839514720821 6.865059252466612 0
19.5141491927336 3.10094795393672 0
19.35269197327094 7.019557761621988 0
9.865033143833191 4.432431639371788 0
24.5008918162755 3.099464910232956 0
24.38634240460027 6.854720621996877 0
2.345482505192186 7.143113984917375 0
7.853416795494103 6.459776042755056 0
16.25006760475169 7.375547063075719 0
13.4500168783296 7.435702713000822 0
3.280528473016838 2.385963430190541 0
34.0787180263717 7.017759645574408 0
6.064123635683674 7.2761434057066 0
26.87782738516058 2.381170004407554 0
27.08015682072885 8.046118626605097 0
33.08130157365006 1.807202293918523 0
11.34947817542563 1.633186772577077 0
9.553834064792547 5.529683341163357 0
21.84709551720184 2.581017899280862 0
7.487639120241914 4.55353578209528 0
21.96328345885193 7.741061901317575 0
17.34905050518527 1.970431518572249 0
11.55677806405736 8.483944414589933 0
5.161117541423747 5.203168832368282 0
13.10596787581654 1.857934666744479 0
4.60648015911398 8.31556824854737 0
5.824131986157924 1.997836126027199 0
8.883392183172349 5.907147870298206 0
32.01670887999612 7.794791254360938 0
11.72173572703196 4.835205245643263 0
8.106313626666985 4.023727801021258 0
7.146464032234102 6.266921780655445 0
38.10030077450942 5.106084529272463 0
35.12368901848983 5.383145772656445 0
35.0815286624126 1.926910828027215 0
8.844067437911622 4.111094856550414 0
9.885332920429077 3.649298166861314 0
10.8596261686503 2.965230331606958 0
37.87797619047635 2.122023809524003 0
1.748035809311093 3.101299636878464 0
10.10144583141414 6.671996265876651 0
17.86033687618997 8.048309439507227 0
8.513736991331786 2.808147746560728 0
8.594162107448867 1.485944057382381 0
6.596007706943185 5.065089774787966 0
19.02825547998862 5.062051256964156 0
7.679445867633586 5.32638609986499 0
3.252428942271032 6.158530286713571 0
24.05624050275805 5.096373270555337 0
28.96272397589036 1.787557899487405 0
6.913678159462902 8.569422570946983 0
29.23339121607179 4.922129474589738 0
8.154648912604305 5.88513743401481 0
8.63372779638595 8.470680431175653 0
13.74317898052889 3.697746999103313 0
28.88301587549622 8.231185809115555 0
10.53344356878105 4.927222792495667 0
9.322353791364058 4.753906097205539 0
6.815245381895802 3.251600588803815 0
31.08079100851124 4.983793670138793 0
2.992827066860511 8.575055389769783 0
15.26623002334952 4.198873935814645 0
8.491658244534424 7.11970470064978 0
30.98286767885924 1.749388168536421 0
12.90000599072695 5.888566700023994 0
34.10679862305348 3.569442385375384 0
3.678704119773961 7.304712253693599 0
4.259393111481863 4.234443504286263 0
38.15850852272763 8.158508522727404 0
1.802871635754195 5.863385750442455 0
9.983128172395565 1.48706753567117 0
35.35502485107941 8.482350562881296 0
7.666156869063855 5.819050047935923 0
18.88707659157977 1.746876032697003 0
23.4807365952134 8.325565382892757 0
23.48674321890983 1.67315131553054 0
9.492557440742139 6.038301097188596 0
24.97309248406009 1.43075724603421 0
25.3037721854019 8.304463080520655 0
20.43765036376418 8.342773697815618 0
14.79138088438398 8.436464293854479 0
20.44966426029151 1.485768377182917 0
9.3386822274166 4.184826331392252 0
8.501025348236304 3.667303516453435 0
28.13833571526084 6.473570962273986 0
15.79986574342064 5.809017830929441 0
17.66752792029446 6.352441071147987 0
17.99341142028483 3.497410321342234 0
1.389464608021815 8.438767654859685 0
7.24790845679239 4.984698605770681 0
20.49850365022341 4.397306121035478 0
7.499563341601995 3.952563014800112 0
28.49793908534395 3.420857511359687 0
14.56403402787262 6.681961223403957 0
32.06946639570297 3.445687182369377 0
11.09528688459415 5.479638244294573 0
22.86313877688434 6.468836703128118 0
30.51236966650892 8.43935706433852 0
20.87872076066546 6.291301294793961 0
23.12571156011315 3.559908163131358 0
25.76313122136304 4.30280693673022 0
26.01249226822949 6.244605383575621 0
5.808946619365823 6.136258106858753 0
5.965824114674851 4.720828429056452 0
8.500995948198323 6.313312111912726 0
9.782768782803201 5.107741273431232 0
2.163392158891517 1.464100821775624 0
38.53510573533342 6.668773594546503 0
15.87249151744755 1.540755548821869 0
9.195429561072912 5.623214303406693 0
7.047217838893019 1.153235403987477 0
7.844610364773536 4.713287992400629 0
10.2866024663748 8.721037377877666 0
6.498898887976713 6.578587166182325 0
33.361466424695 8.621804748334815 0
38.51318187553141 3.542152688675724 0
9.284656598090887 5.228016401313457 0
12.11524751630422 7.415069647498698 0
32.07282913873097 6.264672434666986 0
12.74596307499539 8.744430072823764 0
36.521175497432 1.430773123856835 0
1.34228881685037 4.531731259235341 0
11.30056471479895 3.727356052008895 0
19.06799560018246 8.814951361125164 0
14.65617976860539 1.248598583469671 0
1.054134032055468 7.003526821600015 0
12.89080045412396 4.550064696842894 0
36.61312270486258 5.279727573574018 0
8.487851603203726 4.075531543506276 0
16.56170981047004 8.675132507803408 0
4.384067597515388 2.855321000491907 0
5.977030944253529 5.381815711434889 0
4.054236376330465 5.351622677085796 0
8.515636143424167 5.89045263051729 0
7.915353577800073 4.356564492302697 0
10.85340433666487 7.521004056007511 0
16.38811542425079 3.110487965910565 0
4.275353369261927 1.450536896414212 0
5.896070488565126 8.540283556300238 0
36.86038570420305 8.701183667615062 0
38.88461143741175 1.115388562585487 0
7.658118405445435 4.942527805812825 0
3.173452420400343 3.487898376304098 0
12.20119762899215 2.32666984692047 0
27.02671894024293 9.348706208868366 0
26.95927579504039 0.793723334802518 0
8.745648523894991 5.586900420990712 0
33.02710052454297 0.6024007646395076 0
11.45241705993674 2.695768401874629 0
5.154833743174126 7.375609867344584 0
9.202336796484982 4.993974166172999 0
8.187266729762484 4.501003699876256 0
10.08534635057411 3.090656411828968 0
35.33026739735659 6.421988223565822 0
12.99909789735991 3.014856589095882 0
10.95711627446213 4.629838691387135 0
17.07384734086648 1.170395689131373 0
34.10372023763393 5.86198533417048 0
0.7211307196305056 1.154700273925202 0
7.83068311546018 5.499663179556852 0
34.0542767453512 1.244704373981913 0
33.08676694438098 6.15582755484066 0
25.71395014093304 3.261147283790243 0
6.019200404060427 2.990974408082228 0
26.66680854467236 3.77272037582832 0
10.11794476789627 2.369912868098921 0
1.387797386296574 0.4880336072585413 0
35.40737934155311 7.455056486974105 0
16.62416383912609 0.5135851829406229 0
9.17152980303252 4.528393012576049 0
21.45104026303335 3.995281880663712 0
20.61991612005295 3.35975732475102 0
6.676508613665265 2.519491278393511 0
12.15181535040594 1.163707146440519 0
10.62367770582752 6.215874674376956 0
26.1279763353769 8.783527235708585 0
34.23883042525814 9.034718437072037 0
25.45060389516539 2.303797386891573 0
27.94685045367758 1.389575967964986 0
25.95030662306648 1.270642416813921 0
27.98772423207502 8.75910147857355 0
10.45370953888425 3.580538844830249 0
38.71950284090921 9.386169507575801 0
39.38616950757588 8.719502840908127 0
27.57841116599933 3.478737234038142 0
32.02138975083241 1.185530154151648 0
22.32677623299659 3.716149228029005 0
8.732540276076175 4.419180488560256 0
33.09500622893223 4.066726717341782 0
21.43225325915535 1.355595425487926 0
33.08585553080217 2.940777287221094 0
21.46697794087202 8.694611866377732 0
9.012101018548373 4.314122599024341 0
10.44420211593422 1.040084769416082 0
22.44461291202812 1.418056404937134 0
9.503024948935815 3.278773425668827 0
16.57248708948893 6.512335321717715 0
22.48134001802176 8.688875761403445 0
8.166015857240907 2.20104297476421 0
7.677176139761318 1.649405527239792 0
20.60363632340898 2.389244743466833 0
5.50085021589302 8.95195060161587 0
6.747395005503677 5.504580489997868 0
11.11649272512758 0.5443955908590257 0
9.854913415833073 5.451080856412088 0
8.872993020474537 2.317177513653914 0
13.63801896564306 6.668743545476257 0
32.72275201503293 7.02574111153411 0
6.930880447267316 5.905191158620361 0
29.98186388491149 1.178982022674609 0
7.989084130450419 5.685913624273458 0
7.162385425214378 4.604675664155761 0
6.32835930821073 3.750293234273602 0
13.88801914664586 2.741379271474409 0
34.26506976738204 8.040638318930172 0
3.479581842716733 0.9715459060632786 0
13.035322625254 0.619311555581493 0
35.11834161702647 9.494116854293765 0
10.83210001808132 6.817603374832236 0
3.37033672345082 5.379001926026817 0
5.522224761120927 8.043998403518069 0
8.267031840762467 5.579563608294819 0
5.555655896591406 6.649173153448378 0
9.479744172811493 8.255294878880967 0
11.21282332313476 4.229883111224877 0
4.868826719704631 9.438522749515791 0
18.07870903224388 1.239102517089751 0
4.359693904537554 7.385132816673583 0
9.640110087586896 9.063905936351105 0
39.36676692483648 5.035361509752474 0
9.057231146585178 7.107651626039353 0
3.705991446521097 4.737639665217714 0
10.95495805688753 5.818422000516264 0
11.28112684347737 9.068327264155867 0
11.50336724637801 7.065294502039585 0
24.8183583918626 6.065233092042611 0
25.27728799745019 5.214595196953726 0
6.761147300909903 7.70630743986037 0
35.02717622079916 0.6423036093424049 0
16.83333071978686 5.649486408138127 0
2.721130719628826 0.4880336072585413 0
5.254653865171431 5.958181629002273 0
13.8856356947408 5.905665554322412 0
12.82175679512026 6.913113020174504 0
30.00062582561772 2.305397353330128 0
17.25931080041204 7.258765857910311 0
8.881429432198034 7.721517319805005 0
6.983667675931316 6.706288429921766 0
7.94196415910556 5.226646496911545 0
19.753222737975 6.124303437793368 0
6.045218885803746 4.240035847691147 0
7.617682021143994 8.104486448350054 0
11.11682206013572 5.080688760811167 0
20.13515996362583 5.250219557597865 0
8.633009442198839 5.765866833605166 0
8.173889068155686 4.293430764441319 0
8.877909265461938 9.490226810391883 0
8.364721743290238 4.199753114842512 0
31.50969284883501 8.744716106233152 0
17.13804178006036 3.798299536529917 0
10.12217853061188 4.069605947418526 0
9.463259724086049 5.029887923983409 0
3.239758000390094 1.766867049460126 0
18.07651283901663 2.404905957537162 0
6.62288754374784 7.04269563827215 0
20.81655475341128 0.4952561257276391 0
10.73074417215717 2.028494879951735 0
1.129821536007267 9.479589218286561 0
18.79821240153273 2.781744769325319 0
5.649031701681032 5.573747550220642 0
20.8125501212547 9.447591232605205 0
10.33821541339587 4.495580822629976 0
9.058635727226987 4.800117568778631 0
7.907866026684013 2.81961445162507 0
6.865174954114802 4.775193661719989 0
2.466927694405805 6.388343340691133 0
23.16224773961942 0.5577171051768467 0
13.66245361256966 8.205532359893022 0
23.16024553173778 9.441855127630918 0
31.44743066512476 6.921476351302066 0
9.593827008878415 6.958415481114976 0
28.98757465861901 0.5958526331624684 0
28.96100529183206 9.410395269705186 0
2.619881809925396 5.549589617145703 0
8.977458377585961 5.627971855459609 0
10.76220082212489 9.573679125959222 0
35.22637058524428 4.181536721851775 0
0.463154869340605 8.812922551619893 0
27.1700983369946 5.78412017739893 0
14.40075868983375 4.347696558152415 0
30.99428922627734 0.5831293895121403 0
1.048386817534855 5.46503900322593 0
6.753832765997672 1.820036216788065 0
30.92727750771741 7.646371227859245 0
35.21231713321853 3.029458406975365 0
7.880459982109731 0.879726487123286 0
16.22898131441526 4.032120741354055 0
10.18144991716257 5.250260673522858 0
37.68736892141012 4.080086408490561 0
36.01710942467803 2.316568653135848 0
30.1889787337434 5.536962836535603 0
30.12348934889553 4.428389712231696 0
24.26150292687175 8.876676154471136 0
25.10125739513394 9.434821026840218 0
6.995699470159398 5.208094695669851 0
1.303809322734203 2.188466819551357 0
36.94925860069929 2.381606313634778 0
24.99103082800487 0.4769190820114033 0
34.11308043652785 4.712546247437472 0
32.45939176823037 8.805532000898586 0
24.15327856764855 1.03463618718825 0
9.045826305903384 2.998389952235299 0
8.143675382834502 7.621247158250985 0
3.908343498923239 6.666120162728984 0
36.17506895685354 5.842644199565691 0
13.84578131979311 9.060298122226081 0
0.5826786031036977 3.033766545626145 0
0.44742960561679 4.843910419745106 0
38.79705268866925 2.554725499398851 0
37.61326072673243 3.085399501907741 0
27.07699493473973 6.921431657484901 0
7.43517364510378 6.666684722112675 0
7.318601049346857 5.886822511680758 0
33.15229777702095 7.811451882756721 0
5.208807809266956 2.858881211978259 0
11.43611257306118 3.393824828351903 0
13.32789117015791 5.195033378802059 0
34.08987628637205 2.434518502440374 0
5.366495118470997 1.149457674147137 0
10.92545347034088 3.606558139879442 0
9.94071355735325 6.142038439235641 0
30.83745655550296 9.479785688112839 0
9.585045403901221 6.446460237647982 0
8.864720702472548 0.495314685794127 0
11.50847663900882 7.806672706032049 0
28.36359910963641 4.32572372409887 0
9.696349430559621 4.088852045875118 0
14.60810652915685 3.521692361164465 0
6.096324208814859 5.797409935682791 0
37.46638389596844 1.184265644460279 0
13.60894883342523 4.464760145161832 0
20.22302103256686 7.217877584743856 0
9.362790080829129 1.876817443357395 0
39.50439395851047 3.180717562887859 0
21.09321819442719 7.458378964642385 0
7.84913531861626 9.013367667374212 0
6.971226053154261 9.523140856982328 0
4.758451123083941 0.4835122988047373 0
4.033520917775406 6.015090303859718 0
12.05439720130796 5.661193916093267 0
39.51170191177781 6.889591198179137 0
9.445559037193695 3.7879019571267 0
3.866435741991486 8.963541212772386 0
18.96235886383867 0.582292010899001 0
18.76034148321446 7.960939520751459 0
14.88539325617977 0.4161995278232236 0
38.87116088334694 4.216079072646405 0
4.946244832344388 4.387032948690071 0
10.06041516513915 4.822465235099562 0
13.92071588146391 1.035511083404717 0
37.80793388568369 6.213305792095192 0
37.0540158645205 4.659278036789992 0
8.7091414344345 3.335010878713566 0
38.87846883661428 5.924952707937632 0
36.84039183247431 0.476924374618945 0
37.16727287552674 5.750290451771032 0
2.575277693820799 3.738683609154549 0
23.70444886509949 2.777508129631618 0
28.2437313196087 5.343294874403636 0
22.81985009874161 2.604692459314253 0
25.23420228607722 7.134596362031051 0
2.99760902228682 9.525018463256595 0
26.13214042478674 7.531729030233791 0
36.0618119458473 4.751631784584653 0
22.76905294364989 7.511821329112817 0
31.13545804129646 5.984477156561351 0
23.57673925889934 7.216374236005918 0
9.525763426608634 0.9910038643511836 0
12.18556779773204 6.521148716711745 0
11.72348242585507 4.017149799697338 0
4.669750450826311 5.69663648574462 0
38.89787141935368 7.609094039090295 0
7.022139140702209 3.826652069401749 0
3.759337115249485 8.065111964003583 0
17.47401556221999 8.907813982436879 0
37.2690964580463 7.90825048093636 0
5.515055166742052 4.549161256946801 0
17.90946063197618 5.400497550149699 0
7.341702156872018 2.967432065706099 0
14.93046029479463 9.478821431284826 0
28.03383613716197 7.583625132664879 0
3.005671230608886 7.674293876126918 0
29.09136852246808 7.136574045422606 0
15.50955709533902 0.9297847107638466 0
11.45282416593035 5.524884430850126 0
29.88271317288411 7.791836079444117 0
36.33460190083022 8.016197827654324 0
16.85390327015665 9.558377502601136 0
38.92086254262937 1.745804124035439 0
38.25419587596169 1.07913745736983 0
18.29351892325179 7.140102757425733 0
18.68282512451801 6.14468336324471 0
12.92737542346238 3.912233265795354 0
15.086320944131 5.051453502094458 0
35.86756805327952 1.11922798396135 0
33.12048880823166 9.540601582778272 0
1.964889825970808 4.086627903464962 0
29.79846184733504 8.890180957818025 0
17.2435257832403 2.859443268608349 0
8.278158318448758 3.272369916993042 0
7.015739279624488 0.384411801329159 0
3.938971043132531 3.525887627027423 0
9.758176301812719 5.761267464331209 0
7.378173779758661 3.515274030522963 0
2.734005567576091 2.991720481124368 0
24.39028372840519 7.828249695136763 0
18.01808846530631 4.448820633547782 0
8.610639680371783 4.228875466685563 0
32.08633702408482 4.538177145596252 0
21.91646038640819 5.922553206532291 0
8.717929044093376 6.687366720813734 0
19.77891361728031 1.07754813662664 0
24.32024250641514 2.067791157265902 0
29.17231629444596 2.862553800937883 0
29.26253870783977 3.90741099263866 0
21.90171433213391 6.833733299746552 0
7.555345898930686 6.181915957115474 0
18.84527203100235 3.88680317741437 0
3.09220518907906 6.868785508441515 0
12.91532102499843 9.581476690941255 0
29.20816030265993 6.033555267247333 0
19.68030277431521 4.186768443978785 0
4.687228184374936 3.60441700473128 0
2.397318813739816 2.317121296281543 0
31.03620663222192 2.858107114290785 0
32.04454521607076 2.334092548274774 0
4.491582343078691 4.929745004580114 0
19.61944597907253 8.059094273520923 0
14.26847726352873 7.518042743419753 0
12.10091371301756 9.0761248291379 0
16.8907047638039 8.032996336795451 0
14.19235274267136 1.924996466263196 0
28.1128301487983 2.529861805084882 0
22.97563363377239 5.524243865119417 0
23.06315789484866 4.55460101845383 0
6.290449941681362 1.050357176671559 0
7.246270386817581 4.260630467165572 0
23.8942812930489 3.918582114639884 0
23.76857389474755 6.139976865226777 0
24.7734211801322 4.166215039172838 0
2.24259139335817 8.052312343182281 0
7.883571715870553 6.95094569544412 0
26.37836350569533 5.060532168884342 0
7.997018992086972 4.786578199908901 0
0.351378010685156 7.0011756072 0
8.282023662742283 6.630930951772521 0
18.30944415879079 8.954420266877465 0
16.03289808747187 4.931630696360347 0
15.20182750566943 7.497990860111385 0
21.12824867752122 5.232043012501411 0
8.390095018676158 5.7585300215107 0
31.06884774210592 3.936242281491575 0
19.02266520006079 9.604983787041721 0
12.50418072396096 5.091278880836717 0
2.127430558294104 9.004607681543156 0
38.96153714580291 0.3717961875284956 0
39.62820381247058 1.038462854194105 0
1.030108208720488 3.877676965371265 0
6.291290761237234 8.128616510984607 0
9.098470543021209 3.941834187023067 0
19.61696334820163 2.111197454605547 0
36.95346190140101 9.567061222538355 0
12.25356100563007 4.291386014642004 0
6.269916216009325 9.036568709082408 0
15.78436356495133 9.037198933885962 0
6.437813506742288 4.68723693614858 0
7.779188091026341 5.089637968559272 0
37.82733646842308 7.230780456580173 0
10.61895595109289 5.374226330477305 0
8.848507023639351 6.283181110696543 0
32.08745793842748 5.477838896362123 0
9.046069995534502 5.193856597995794 0
14.85225561230536 5.879149264624228 0
15.8677194332019 8.162381288244536 0
9.540419815228878 5.288480338636016 0
3.612682830310856 2.909727602328849 0
7.356845523722864 5.295193470695526 0
7.496261661146685 5.57331061808394 0
6.358677904673979 5.440353824992528 0
8.142350530227157 3.677563268479885 0
7.634185346547994 4.287554429732697 0
1.73416272433395 6.670008852319948 0
6.270280190055921 6.196333753931936 0
12.13932955178566 8.214481378304132 0
6.716119327678681 6.239888311864166 0
9.179027521153957 6.191510772455167 0
15.48975201039748 3.325939350100215 0
1.983168434785176 5.007323274652959 0
1.59636038175649 7.528469487125691 0
37.67296474231023 8.953230730114155 0
9.190459728329133 5.856221090297832 0
12.77040915654307 7.865067477774428 0
15.53798912534832 6.622175372469705 0
10.21963635290447 7.938736087158252 0
9.508689720871283 4.457054689323193 0
7.663455963486961 4.736450526769578 0
8.819251583294445 3.769326582043461 0
7.891407525720754 6.054654508235263 0
19.83521532131553 9.052575019646927 0
7.840410182023017 4.110951769374689 0
9.656718572666817 4.764693003336187 0
15.69183917509683 2.43989988776929 0
9.413940355535866 5.730399580586216 0
6.179620921957188 5.055911305093102 0
36.07180351842749 9.061178076832119 0
10.15791747458425 7.255722383157914 0
7.749201020938507 4.541129422266201 0
0.814532880025761 7.814098158819899 0
15.11452728988169 1.819270093622326 0
9.111213182558805 5.401594699131359 0
16.53655248229454 2.207225011101561 0
7.808529861349054 3.772649767928777 0
0.9523352226032209 6.288970857347487 0
7.464555327493247 4.826920731226262 0
3.412396794544389 4.116398231623815 0
7.528490909957138 5.084537503816166 0
8.610981463117218 3.951309972170042 0
4.827850984311747 2.101231340977773 0
7.96880351802033 4.572099697343132 0
3.979983146598051 2.23060710903222 0
8.365063526035671 3.922187620326989 0
8.169687218765576 6.219408529560863 0
8.633341424931613 6.036970870909407 0
7.834242923406324 4.885271932737818 0
10.89892828903234 8.241995282825037 0
8.390427001408932 6.029634058814942 0
6.123989714342071 6.663662892915892 0
5.701324200117376 5.101937657619874 0
9.344640074652116 5.460304681961169 0
$EndNodes
$Elements
8 1244 1 1244
1 1 1 20
1 1 3 
2 3 4 
3 4 5 
4 5 6 
5 6 7 
6 7 8 
7 8 9 
8 9 10 
9 10 11 
10 11 12 
11 12 13 
12 13 14 
13 14 15 
14 15 16 
15 16 17 
16 17 18 
17 18 19 
18 19 20 
19 20 21 
20 21 2 
1 2 1 5
21 2 23 
22 23 24 
23 24 25 
24 25 26 
25 26 22 
1 3 1 20
26 22 28 
27 28 29 
28 29 30 
29 30 31 
30 31 32 
31 32 33 
32 33 34 
33 34 35 
34 35 36 
35 36 37 
36 37 38 
37 38 39 
38 39 40 
39 40 41 
40 41 42 
41 42 43 
42 43 44 
43 44 45 
44 45 46 
45 46 27 
1 4 1 5
46 27 47 
47 47 48 
48 48 49 
49 49 50 
50 50 1 
1 1001 1 2
51 51 53 
52 53 52 
1 1002 1 2
53 52 55 
54 55 54 
1 1003 1 2
55 54 57 
56 57 56 
2 3001 2 1188
57 61 101 228 
58 101 109 228 
59 109 61 228 
60 33 34 229 
61 34 99 229 
62 99 33 229 
63 15 16 230 
64 16 98 230 
65 98 15 230 
66 52 53 231 
67 53 112 231 
68 112 52 231 
69 18 19 232 
70 19 100 232 
71 100 18 232 
72 101 61 233 
73 61 122 233 
74 122 101 233 
75 59 97 234 
76 97 110 234 
77 110 59 234 
78 51 142 235 
79 142 201 235 
80 201 51 235 
81 56 57 236 
82 57 219 236 
83 219 56 236 
84 121 66 237 
85 66 122 237 
86 122 121 237 
87 85 96 238 
88 96 118 238 
89 118 85 238 
90 61 109 239 
91 109 139 239 
92 139 61 239 
93 72 114 240 
94 114 141 240 
95 141 72 240 
96 11 106 241 
97 106 193 241 
98 193 11 241 
99 96 69 242 
100 69 118 242 
101 118 96 242 
102 50 1 243 
103 1 191 243 
104 191 50 243 
105 131 55 244 
106 55 157 244 
107 157 131 244 
108 100 19 245 
109 19 119 245 
110 119 100 245 
111 69 96 246 
112 96 203 246 
113 203 69 246 
114 89 98 247 
115 98 185 247 
116 185 89 247 
117 60 111 248 
118 111 143 248 
119 143 60 248 
120 98 70 249 
121 70 185 249 
122 185 98 249 
123 122 66 250 
124 66 155 250 
125 155 122 250 
126 1 3 251 
127 3 191 251 
128 191 1 251 
129 96 85 252 
130 85 156 252 
131 156 96 252 
132 10 11 253 
133 11 193 253 
134 193 10 253 
135 142 58 254 
136 58 167 254 
137 167 142 254 
138 103 71 255 
139 71 175 255 
140 175 103 255 
141 86 103 256 
142 103 175 256 
143 175 86 256 
144 111 64 257 
145 64 143 257 
146 143 111 257 
147 101 8 258 
148 8 109 258 
149 109 101 258 
150 73 62 259 
151 62 125 259 
152 125 73 259 
153 99 34 260 
154 34 163 260 
155 163 99 260 
156 156 30 261 
157 30 199 261 
158 199 156 261 
159 98 89 262 
160 89 162 262 
161 162 98 262 
162 98 16 263 
163 16 134 263 
164 134 98 263 
165 15 98 264 
166 98 162 264 
167 162 15 264 
168 33 99 265 
169 99 140 265 
170 140 33 265 
171 72 121 266 
172 121 122 266 
173 122 72 266 
174 22 28 267 
175 28 153 267 
176 153 22 267 
177 26 22 268 
178 22 153 268 
179 153 26 268 
180 70 98 269 
181 98 177 269 
182 177 70 269 
183 18 100 270 
184 100 148 270 
185 148 18 270 
186 71 103 271 
187 103 184 271 
188 184 71 271 
189 58 56 272 
190 56 120 272 
191 120 58 272 
192 150 69 273 
193 69 179 273 
194 179 150 273 
195 13 103 274 
196 103 166 274 
197 166 13 274 
198 100 150 275 
199 150 179 275 
200 179 100 275 
201 105 36 276 
202 36 164 276 
203 164 105 276 
204 58 120 277 
205 120 167 277 
206 167 58 277 
207 7 101 278 
208 101 155 278 
209 155 7 278 
210 103 13 279 
211 13 160 279 
212 160 103 279 
213 81 66 280 
214 66 121 280 
215 121 81 280 
216 93 170 281 
217 170 171 281 
218 171 93 281 
219 36 105 282 
220 105 159 282 
221 159 36 282 
222 127 64 283 
223 64 128 283 
224 128 127 283 
225 128 64 284 
226 64 195 284 
227 195 128 284 
228 103 86 285 
229 86 166 285 
230 166 103 285 
231 44 110 286 
232 110 223 286 
233 223 44 286 
234 79 68 287 
235 68 129 287 
236 129 79 287 
237 7 8 288 
238 8 101 288 
239 101 7 288 
240 73 102 289 
241 102 190 289 
242 190 73 289 
243 66 127 290 
244 127 128 290 
245 128 66 290 
246 94 149 291 
247 149 178 291 
248 178 94 291 
249 96 113 292 
250 113 203 292 
251 203 96 292 
252 68 79 293 
253 79 116 293 
254 116 68 293 
255 134 17 294 
256 17 148 294 
257 148 134 294 
258 55 137 295 
259 137 157 295 
260 157 55 295 
261 74 104 296 
262 104 174 296 
263 174 74 296 
264 74 60 297 
265 60 143 297 
266 143 74 297 
267 109 83 298 
268 83 139 298 
269 139 109 298 
270 96 156 299 
271 156 199 299 
272 199 96 299 
273 191 4 300 
274 4 222 300 
275 222 191 300 
276 8 9 301 
277 9 109 301 
278 109 8 301 
279 29 30 302 
280 30 156 302 
281 156 29 302 
282 125 62 303 
283 62 220 303 
284 220 125 303 
285 132 78 304 
286 78 217 304 
287 217 132 304 
288 110 97 305 
289 97 223 305 
290 223 110 305 
291 55 52 306 
292 52 137 306 
293 137 55 306 
294 97 59 307 
295 59 187 307 
296 187 97 307 
297 138 63 308 
298 63 197 308 
299 197 138 308 
300 114 72 309 
301 72 207 309 
302 207 114 309 
303 44 45 310 
304 45 110 310 
305 110 44 310 
306 106 11 311 
307 11 158 311 
308 158 106 311 
309 59 110 312 
310 110 151 312 
311 151 59 312 
312 42 138 313 
313 138 197 313 
314 197 42 313 
315 24 25 314 
316 25 117 314 
317 117 24 314 
318 77 63 315 
319 63 147 315 
320 147 77 315 
321 78 152 316 
322 152 217 316 
323 217 78 316 
324 62 73 317 
325 73 180 317 
326 180 62 317 
327 107 41 318 
328 41 197 318 
329 197 107 318 
330 62 202 319 
331 202 220 319 
332 220 62 319 
333 90 133 320 
334 133 186 320 
335 186 90 320 
336 133 185 321 
337 185 186 321 
338 186 133 321 
339 97 65 322 
340 65 135 322 
341 135 97 322 
342 19 20 323 
343 20 119 323 
344 119 19 323 
345 170 67 324 
346 67 171 324 
347 171 170 324 
348 3 4 325 
349 4 191 325 
350 191 3 325 
351 59 108 326 
352 108 187 326 
353 187 59 326 
354 149 76 327 
355 76 178 327 
356 178 149 327 
357 149 94 328 
358 94 202 328 
359 202 149 328 
360 84 134 329 
361 134 148 329 
362 148 84 329 
363 126 93 330 
364 93 171 330 
365 171 126 330 
366 63 138 331 
367 138 147 331 
368 147 63 331 
369 116 65 332 
370 65 198 332 
371 198 116 332 
372 54 55 333 
373 55 131 333 
374 131 54 333 
375 87 130 334 
376 130 183 334 
377 183 87 334 
378 60 74 335 
379 74 188 335 
380 188 60 335 
381 135 65 336 
382 65 138 336 
383 138 135 336 
384 141 114 337 
385 114 180 337 
386 180 141 337 
387 130 175 338 
388 175 183 338 
389 183 130 338 
390 52 112 339 
391 112 218 339 
392 218 52 339 
393 115 56 340 
394 56 219 340 
395 219 115 340 
396 42 43 341 
397 43 138 341 
398 138 42 341 
399 56 115 342 
400 115 213 342 
401 213 56 342 
402 113 31 343 
403 31 182 343 
404 182 113 343 
405 172 67 344 
406 67 221 344 
407 221 172 344 
408 72 88 345 
409 88 121 345 
410 121 72 345 
411 142 190 346 
412 190 201 346 
413 201 142 346 
414 95 191 347 
415 191 222 347 
416 222 95 347 
417 106 158 348 
418 158 172 348 
419 172 106 348 
420 65 97 349 
421 97 198 349 
422 198 65 349 
423 12 13 350 
424 13 166 350 
425 166 12 350 
426 101 122 351 
427 122 155 351 
428 155 101 351 
429 46 27 352 
430 27 173 352 
431 173 46 352 
432 158 86 353 
433 86 172 353 
434 172 158 353 
435 187 108 354 
436 108 216 354 
437 216 187 354 
438 36 37 355 
439 37 164 355 
440 164 36 355 
441 88 72 356 
442 72 141 356 
443 141 88 356 
444 51 58 357 
445 58 142 357 
446 142 51 357 
447 82 64 358 
448 64 127 358 
449 127 82 358 
450 129 74 359 
451 74 174 359 
452 174 129 359 
453 132 91 360 
454 91 154 360 
455 154 132 360 
456 13 14 361 
457 14 160 361 
458 160 13 361 
459 94 165 362 
460 165 204 362 
461 204 94 362 
462 35 36 363 
463 36 159 363 
464 159 35 363 
465 113 80 364 
466 80 203 364 
467 203 113 364 
468 63 77 365 
469 77 125 365 
470 125 63 365 
471 16 17 366 
472 17 134 366 
473 134 16 366 
474 32 33 367 
475 33 140 367 
476 140 32 367 
477 78 132 368 
478 132 154 368 
479 154 78 368 
480 112 53 369 
481 53 194 369 
482 194 112 369 
483 41 42 370 
484 42 197 370 
485 197 41 370 
486 75 118 371 
487 118 150 371 
488 150 75 371 
489 27 47 372 
490 47 173 372 
491 173 27 372 
492 70 169 373 
493 169 186 373 
494 186 70 373 
495 76 139 374 
496 139 146 374 
497 146 76 374 
498 17 18 375 
499 18 148 375 
500 148 17 375 
501 154 48 376 
502 48 206 376 
503 206 154 376 
504 64 111 377 
505 111 195 377 
506 195 64 377 
507 80 113 378 
508 113 182 378 
509 182 80 378 
510 119 75 379 
511 75 150 379 
512 150 119 379 
513 6 128 380 
514 128 195 380 
515 195 6 380 
516 67 146 381 
517 146 221 381 
518 221 67 381 
519 141 73 382 
520 73 190 382 
521 190 141 382 
522 117 75 383 
523 75 200 383 
524 200 117 383 
525 75 119 384 
526 119 205 384 
527 205 75 384 
528 80 136 385 
529 136 144 385 
530 144 80 385 
531 136 84 386 
532 84 144 386 
533 144 136 386 
534 35 159 387 
535 159 163 387 
536 163 35 387 
537 34 35 388 
538 35 163 388 
539 163 34 388 
540 79 129 389 
541 129 174 389 
542 174 79 389 
543 124 50 390 
544 50 191 390 
545 191 124 390 
546 123 75 391 
547 75 205 391 
548 205 123 391 
549 14 15 392 
550 15 162 392 
551 162 14 392 
552 118 69 393 
553 69 150 393 
554 150 118 393 
555 31 113 394 
556 113 199 394 
557 199 31 394 
558 160 14 395 
559 14 162 395 
560 162 160 395 
561 66 81 396 
562 81 127 396 
563 127 66 396 
564 138 65 397 
565 65 147 397 
566 147 138 397 
567 132 59 398 
568 59 151 398 
569 151 132 398 
570 85 118 399 
571 118 212 399 
572 212 85 399 
573 165 40 400 
574 40 204 400 
575 204 165 400 
576 49 50 401 
577 50 124 401 
578 124 49 401 
579 48 49 402 
580 49 206 402 
581 206 48 402 
582 123 23 403 
583 23 200 403 
584 200 123 403 
585 75 123 404 
586 123 200 404 
587 200 75 404 
588 169 99 405 
589 99 186 405 
590 186 169 405 
591 92 65 406 
592 65 116 406 
593 116 92 406 
594 116 79 407 
595 79 157 407 
596 157 116 407 
597 113 96 408 
598 96 199 408 
599 199 113 408 
600 111 60 409 
601 60 215 409 
602 215 111 409 
603 122 61 410 
604 61 207 410 
605 207 122 410 
606 76 149 411 
607 149 211 411 
608 211 76 411 
609 100 119 412 
610 119 150 412 
611 150 100 412 
612 5 111 413 
613 111 222 413 
614 222 5 413 
615 72 122 414 
616 122 207 414 
617 207 72 414 
618 73 125 415 
619 125 161 415 
620 161 73 415 
621 31 32 416 
622 32 182 416 
623 182 31 416 
624 125 77 417 
625 77 161 417 
626 161 125 417 
627 6 7 418 
628 7 128 418 
629 128 6 418 
630 202 107 419 
631 107 220 419 
632 220 202 419 
633 136 70 420 
634 70 177 420 
635 177 136 420 
636 121 88 421 
637 88 167 421 
638 167 121 421 
639 139 83 422 
640 83 146 422 
641 146 139 422 
642 68 187 423 
643 187 216 423 
644 216 68 423 
645 21 123 424 
646 123 205 424 
647 205 21 424 
648 139 76 425 
649 76 211 425 
650 211 139 425 
651 164 87 426 
652 87 183 426 
653 183 164 426 
654 66 128 427 
655 128 155 427 
656 155 66 427 
657 23 24 428 
658 24 200 428 
659 200 23 428 
660 105 164 429 
661 164 183 429 
662 183 105 429 
663 43 135 430 
664 135 138 430 
665 138 43 430 
666 43 44 431 
667 44 135 431 
668 135 43 431 
669 4 5 432 
670 5 222 432 
671 222 4 432 
672 59 132 433 
673 132 217 433 
674 217 59 433 
675 62 114 434 
676 114 149 434 
677 149 62 434 
678 25 26 435 
679 26 192 435 
680 192 25 435 
681 81 121 436 
682 121 167 436 
683 167 81 436 
684 110 45 437 
685 45 145 437 
686 145 110 437 
687 11 12 438 
688 12 158 438 
689 158 11 438 
690 126 87 439 
691 87 208 439 
692 208 126 439 
693 9 10 440 
694 10 209 440 
695 209 9 440 
696 24 117 441 
697 117 200 441 
698 200 24 441 
699 60 108 442 
700 108 152 442 
701 152 60 442 
702 88 141 443 
703 141 190 443 
704 190 88 443 
705 109 9 444 
706 9 209 444 
707 209 109 444 
708 85 117 445 
709 117 192 445 
710 192 85 445 
711 75 117 446 
712 117 212 446 
713 212 75 446 
714 127 81 447 
715 81 168 447 
716 168 127 447 
717 117 25 448 
718 25 192 448 
719 192 117 448 
720 20 21 449 
721 21 205 449 
722 205 20 449 
723 117 85 450 
724 85 212 450 
725 212 117 450 
726 78 124 451 
727 124 227 451 
728 227 78 451 
729 160 89 452 
730 89 184 452 
731 184 160 452 
732 70 136 453 
733 136 169 453 
734 169 70 453 
735 103 160 454 
736 160 184 454 
737 184 103 454 
738 163 90 455 
739 90 186 455 
740 186 163 455 
741 45 46 456 
742 46 145 456 
743 145 45 456 
744 99 163 457 
745 163 186 457 
746 186 99 457 
747 118 75 458 
748 75 212 458 
749 212 118 458 
750 159 105 459 
751 105 181 459 
752 181 159 459 
753 80 144 460 
754 144 203 460 
755 203 80 460 
756 90 159 461 
757 159 181 461 
758 181 90 461 
759 128 7 462 
760 7 155 462 
761 155 128 462 
762 62 149 463 
763 149 202 463 
764 202 62 463 
765 61 114 464 
766 114 207 464 
767 207 61 464 
768 108 59 465 
769 59 217 465 
770 217 108 465 
771 26 153 466 
772 153 192 466 
773 192 26 466 
774 74 143 467 
775 143 176 467 
776 176 74 467 
777 110 145 468 
778 145 151 468 
779 151 110 468 
780 126 38 469 
781 38 214 469 
782 214 126 469 
783 85 153 470 
784 153 224 470 
785 224 85 470 
786 108 60 471 
787 60 188 471 
788 188 108 471 
789 67 130 472 
790 130 171 472 
791 171 67 472 
792 64 82 473 
793 82 143 473 
794 143 64 473 
795 39 40 474 
796 40 165 474 
797 165 39 474 
798 140 99 475 
799 99 169 475 
800 169 140 475 
801 145 91 476 
802 91 151 476 
803 151 145 476 
804 80 140 477 
805 140 169 477 
806 169 80 477 
807 10 193 478 
808 193 209 478 
809 209 10 478 
810 114 62 479 
811 62 180 479 
812 180 114 479 
813 140 80 480 
814 80 182 480 
815 182 140 480 
816 156 85 481 
817 85 224 481 
818 224 156 481 
819 38 39 482 
820 39 214 482 
821 214 38 482 
822 23 123 483 
823 123 225 483 
824 225 23 483 
825 123 21 484 
826 21 225 484 
827 225 123 484 
828 87 126 485 
829 126 171 485 
830 171 87 485 
831 130 87 486 
832 87 171 486 
833 171 130 486 
834 61 139 487 
835 139 211 487 
836 211 61 487 
837 76 146 488 
838 146 170 488 
839 170 76 488 
840 119 20 489 
841 20 205 489 
842 205 119 489 
843 30 31 490 
844 31 199 490 
845 199 30 490 
846 124 78 491 
847 78 206 491 
848 206 124 491 
849 32 140 492 
850 140 182 492 
851 182 32 492 
852 106 172 493 
853 172 221 493 
854 221 106 493 
855 82 127 494 
856 127 168 494 
857 168 82 494 
858 5 6 495 
859 6 195 495 
860 195 5 495 
861 215 152 496 
862 152 227 496 
863 227 215 496 
864 102 73 497 
865 73 161 497 
866 161 102 497 
867 143 82 498 
868 82 176 498 
869 176 143 498 
870 124 95 499 
871 95 227 499 
872 227 124 499 
873 159 90 500 
874 90 163 500 
875 163 159 500 
876 130 67 501 
877 67 172 501 
878 172 130 501 
879 120 56 502 
880 56 213 502 
881 213 120 502 
882 69 144 503 
883 144 179 503 
884 179 69 503 
885 71 181 504 
886 181 183 504 
887 183 71 504 
888 77 147 505 
889 147 189 505 
890 189 77 505 
891 158 12 506 
892 12 166 506 
893 166 158 506 
894 89 160 507 
895 160 162 507 
896 162 89 507 
897 134 84 508 
898 84 177 508 
899 177 134 508 
900 84 136 509 
901 136 177 509 
902 177 84 509 
903 181 105 510 
904 105 183 510 
905 183 181 510 
906 92 116 511 
907 116 157 511 
908 157 92 511 
909 86 130 512 
910 130 172 512 
911 172 86 512 
912 91 132 513 
913 132 151 513 
914 151 91 513 
915 40 41 514 
916 41 204 514 
917 204 40 514 
918 136 80 515 
919 80 169 515 
920 169 136 515 
921 130 86 516 
922 86 175 516 
923 175 130 516 
924 60 152 517 
925 152 215 517 
926 215 60 517 
927 95 124 518 
928 124 191 518 
929 191 95 518 
930 84 148 519 
931 148 179 519 
932 179 84 519 
933 148 100 520 
934 100 179 520 
935 179 148 520 
936 152 108 521 
937 108 217 521 
938 217 152 521 
939 87 164 522 
940 164 208 522 
941 208 87 522 
942 165 94 523 
943 94 178 523 
944 178 165 523 
945 41 107 524 
946 107 204 524 
947 204 41 524 
948 93 126 525 
949 126 214 525 
950 214 93 525 
951 83 109 526 
952 109 209 526 
953 209 83 526 
954 98 134 527 
955 134 177 527 
956 177 98 527 
957 71 133 528 
958 133 181 528 
959 181 71 528 
960 133 71 529 
961 71 184 529 
962 184 133 529 
963 111 5 530 
964 5 195 530 
965 195 111 530 
966 104 74 531 
967 74 176 531 
968 176 104 531 
969 89 133 532 
970 133 184 532 
971 184 89 532 
972 133 90 533 
973 90 181 533 
974 181 133 533 
975 133 89 534 
976 89 185 534 
977 185 133 534 
978 91 145 535 
979 145 173 535 
980 173 91 535 
981 65 92 536 
982 92 147 536 
983 147 65 536 
984 185 70 537 
985 70 186 537 
986 186 185 537 
987 57 54 538 
988 54 196 538 
989 196 57 538 
990 47 48 539 
991 48 210 539 
992 210 47 539 
993 147 92 540 
994 92 189 540 
995 189 147 540 
996 38 126 541 
997 126 208 541 
998 208 38 541 
999 146 67 542 
1000 67 170 542 
1001 170 146 542 
1002 93 165 543 
1003 165 178 543 
1004 178 93 543 
1005 175 71 544 
1006 71 183 544 
1007 183 175 544 
1008 137 52 545 
1009 52 218 545 
1010 218 137 545 
1011 144 84 546 
1012 84 179 546 
1013 179 144 546 
1014 37 38 547 
1015 38 208 547 
1016 208 37 547 
1017 149 114 548 
1018 114 211 548 
1019 211 149 548 
1020 145 46 549 
1021 46 173 549 
1022 173 145 549 
1023 21 2 550 
1024 2 225 550 
1025 225 21 550 
1026 2 23 551 
1027 23 225 551 
1028 225 2 551 
1029 49 124 552 
1030 124 206 552 
1031 206 49 552 
1032 97 135 553 
1033 135 223 553 
1034 223 97 553 
1035 120 81 554 
1036 81 167 554 
1037 167 120 554 
1038 86 158 555 
1039 158 166 555 
1040 166 86 555 
1041 28 29 556 
1042 29 224 556 
1043 224 28 556 
1044 114 61 557 
1045 61 211 557 
1046 211 114 557 
1047 135 44 558 
1048 44 223 558 
1049 223 135 558 
1050 39 165 559 
1051 165 214 559 
1052 214 39 559 
1053 74 129 560 
1054 129 188 560 
1055 188 74 560 
1056 54 131 561 
1057 131 226 561 
1058 226 54 561 
1059 153 85 562 
1060 85 192 562 
1061 192 153 562 
1062 73 141 563 
1063 141 180 563 
1064 180 73 563 
1065 112 77 564 
1066 77 189 564 
1067 189 112 564 
1068 144 69 565 
1069 69 203 565 
1070 203 144 565 
1071 53 51 566 
1072 51 201 566 
1073 201 53 566 
1074 76 170 567 
1075 170 178 567 
1076 178 76 567 
1077 165 93 568 
1078 93 214 568 
1079 214 165 568 
1080 190 102 569 
1081 102 201 569 
1082 201 190 569 
1083 95 215 570 
1084 215 227 570 
1085 227 95 570 
1086 131 79 571 
1087 79 174 571 
1088 174 131 571 
1089 79 131 572 
1090 131 157 572 
1091 157 79 572 
1092 129 68 573 
1093 68 216 573 
1094 216 129 573 
1095 115 82 574 
1096 82 168 574 
1097 168 115 574 
1098 104 176 575 
1099 176 219 575 
1100 219 104 575 
1101 154 91 576 
1102 91 210 576 
1103 210 154 576 
1104 187 68 577 
1105 68 198 577 
1106 198 187 577 
1107 107 202 578 
1108 202 204 578 
1109 204 107 578 
1110 68 116 579 
1111 116 198 579 
1112 198 68 579 
1113 77 112 580 
1114 112 161 580 
1115 161 77 580 
1116 146 83 581 
1117 83 221 581 
1118 221 146 581 
1119 78 154 582 
1120 154 206 582 
1121 206 78 582 
1122 91 173 583 
1123 173 210 583 
1124 210 91 583 
1125 153 28 584 
1126 28 224 584 
1127 224 153 584 
1128 161 112 585 
1129 112 194 585 
1130 194 161 585 
1131 202 94 586 
1132 94 204 586 
1133 204 202 586 
1134 170 93 587 
1135 93 178 587 
1136 178 170 587 
1137 197 63 588 
1138 63 220 588 
1139 220 197 588 
1140 88 142 589 
1141 142 167 589 
1142 167 88 589 
1143 104 196 590 
1144 196 226 590 
1145 226 104 590 
1146 81 120 591 
1147 120 168 591 
1148 168 81 591 
1149 137 92 592 
1150 92 157 592 
1151 157 137 592 
1152 164 37 593 
1153 37 208 593 
1154 208 164 593 
1155 176 115 594 
1156 115 219 594 
1157 219 176 594 
1158 142 88 595 
1159 88 190 595 
1160 190 142 595 
1161 83 193 596 
1162 193 221 596 
1163 221 83 596 
1164 102 161 597 
1165 161 194 597 
1166 194 102 597 
1167 188 129 598 
1168 129 216 598 
1169 216 188 598 
1170 29 156 599 
1171 156 224 599 
1172 224 29 599 
1173 63 125 600 
1174 125 220 600 
1175 220 63 600 
1176 196 104 601 
1177 104 219 601 
1178 219 196 601 
1179 173 47 602 
1180 47 210 602 
1181 210 173 602 
1182 193 83 603 
1183 83 209 603 
1184 209 193 603 
1185 194 53 604 
1186 53 201 604 
1187 201 194 604 
1188 193 106 605 
1189 106 221 605 
1190 221 193 605 
1191 82 115 606 
1192 115 176 606 
1193 176 82 606 
1194 48 154 607 
1195 154 210 607 
1196 210 48 607 
1197 174 104 608 
1198 104 226 608 
1199 226 174 608 
1200 152 78 609 
1201 78 227 609 
1202 227 152 609 
1203 131 174 610 
1204 174 226 610 
1205 226 131 610 
1206 168 120 611 
1207 120 213 611 
1208 213 168 611 
1209 111 215 612 
1210 215 222 612 
1211 222 111 612 
1212 57 196 613 
1213 196 219 613 
1214 219 57 613 
1215 215 95 614 
1216 95 222 614 
1217 222 215 614 
1218 115 168 615 
1219 168 213 615 
1220 213 115 615 
1221 92 137 616 
1222 137 189 616 
1223 189 92 616 
1224 112 189 617 
1225 189 218 617 
1226 218 112 617 
1227 196 54 618 
1228 54 226 618 
1229 226 196 618 
1230 107 197 619 
1231 197 220 619 
1232 220 107 619 
1233 189 137 620 
1234 137 218 620 
1235 218 189 620 
1236 97 187 621 
1237 187 198 621 
1238 198 97 621 
1239 108 188 622 
1240 188 216 622 
1241 216 108 622 
1242 102 194 623 
1243 194 201 623 
1244 201 102 623 
$EndElements
