$MeshFormat
4.1 0 8
$EndMeshFormat
$PhysicalNames
6
1 1 "Left"
1 2 "Right"
1 3 "Bottom"
1 4 "Top"
1 6 "Airfoil"
2 5 "Fluid"
$EndPhysicalNames
$Entities
0 7 1 0
1 0 0 0 40 0 0 1 3 0 
2 40 0 0 40 10 0 1 2 0 
3 0 10 0 40 10 0 1 4 0 
4 0 0 0 0 10 0 1 1 0 
1001 8.009441199999999 4.939984674955221 0 9 5 0 1 6 0 
1002 7.999999999999998 4.983423 0 8.009441199999999 5.016577 0 1 6 0 
1003 8.009441199999999 5 0 9 5.060015325041703 0 1 6 0 
3001 0 0 0 40 10 0 1 5 0 
$EndEntities
$Nodes
8 942 1 942
1 1 0 21
1
2
3
4
5
6
7
8
9
10
11
12
13
14
15
16
17
18
19
20
21
0 0 0
40 0 0
1.999999999998205 0 0
3.999999999996757 0 0
5.999999999993141 0 0
7.999999999987307 0 0
9.999999999981473 0 0
11.99999999997564 0 0
13.9999999999698 0 0
15.99999999996411 0 0
17.9999999999666 0 0
19.99999999996964 0 0
21.99999999997269 0 0
23.99999999997573 0 0
25.99999999997878 0 0
27.99999999998182 0 0
29.99999999998487 0 0
31.99999999998791 0 0
33.99999999999093 0 0
35.99999999999396 0 0
37.99999999999698 0 0
1 2 0 5
22
23
24
25
26
40 10 0
40 1.999999999996827 0
40 3.999999999991027 0
40 5.999999999993932 0
40 7.999999999996978 0
1 3 0 20
27
28
29
30
31
32
33
34
35
36
37
38
39
40
41
42
43
44
45
46
0 10 0
37.99999999999999 10 0
35.99999999999999 10 0
33.99999999999999 10 0
31.99999999999998 10 0
29.99999999999998 10 0
27.99999999999998 10 0
25.99999999999997 10 0
23.99999999999996 10 0
21.99999999999996 10 0
19.99999999999996 10 0
17.99999999999995 10 0
15.99999999999995 10 0
13.99999999999995 10 0
11.99999999999994 10 0
9.999999999999936 10 0
7.999999999999929 10 0
5.99999999999995 10 0
3.999999999999964 10 0
1.999999999999986 10 0
1 4 0 4
47
48
49
50
0 7.999999999999996 0
0 5.999999999999991 0
0 3.999999999999988 0
0 1.999999999999982 0
1 1001 0 11
51
52
53
54
55
56
57
58
59
60
61
9 5 0
8.009441199999999 4.983423 0
8.901036932223841 4.985651369211642 0
8.801713098404507 4.9739584117889 0
8.702243288346251 4.963580127310759 0
8.602639163624421 4.954584008148219 0
8.502899846882498 4.947244069735016 0
8.403025280118708 4.94208400878833 0
8.303042405074212 4.939984674955221 0
8.203075561283486 4.942450043531839 0
8.10362421886901 4.952571865194754 0
1 1002 0 2
62
63
8.009441199999999 5.016577 0
7.999999999999998 4.999999999399149 0
1 1003 0 9
64
65
66
67
68
69
70
71
72
8.103624220794591 5.047428135118343 0
8.20307545670854 5.057549950669142 0
8.303042407188384 5.060015325041703 0
8.40302528149221 5.057915991159287 0
8.502899847845661 5.052755930203524 0
8.602639163748702 5.045415991841512 0
8.702243288171074 5.036419872706341 0
8.801713097021901 5.026041588364579 0
8.901036930371513 5.014348631019274 0
2 3001 0 870
73
74
75
76
77
78
79
80
81
82
83
84
85
86
87
88
89
90
91
92
93
94
95
96
97
98
99
100
101
102
103
104
105
106
107
108
109
110
111
112
113
114
115
116
117
118
119
120
121
122
123
124
125
126
127
128
129
130
131
132
133
134
135
136
137
138
139
140
141
142
143
144
145
146
147
148
149
150
151
152
153
154
155
156
157
158
159
160
161
162
163
164
165
166
167
168
169
170
171
172
173
174
175
176
177
178
179
180
181
182
183
184
185
186
187
188
189
190
191
192
193
194
195
196
197
198
199
200
201
202
203
204
205
206
207
208
209
210
211
212
213
214
215
216
217
218
219
220
221
222
223
224
225
226
227
228
229
230
231
232
233
234
235
236
237
238
239
240
241
242
243
244
245
246
247
248
249
250
251
252
253
254
255
256
257
258
259
260
261
262
263
264
265
266
267
268
269
270
271
272
273
274
275
276
277
278
279
280
281
282
283
284
285
286
287
288
289
290
291
292
293
294
295
296
297
298
299
300
301
302
303
304
305
306
307
308
309
310
311
312
313
314
315
316
317
318
319
320
321
322
323
324
325
326
327
328
329
330
331
332
333
334
335
336
337
338
339
340
341
342
343
344
345
346
347
348
349
350
351
352
353
354
355
356
357
358
359
360
361
362
363
364
365
366
367
368
369
370
371
372
373
374
375
376
377
378
379
380
381
382
383
384
385
386
387
388
389
390
391
392
393
394
395
396
397
398
399
400
401
402
403
404
405
406
407
408
409
410
411
412
413
414
415
416
417
418
419
420
421
422
423
424
425
426
427
428
429
430
431
432
433
434
435
436
437
438
439
440
441
442
443
444
445
446
447
448
449
450
451
452
453
454
455
456
457
458
459
460
461
462
463
464
465
466
467
468
469
470
471
472
473
474
475
476
477
478
479
480
481
482
483
484
485
486
487
488
489
490
491
492
493
494
495
496
497
498
499
500
501
502
503
504
505
506
507
508
509
510
511
512
513
514
515
516
517
518
519
520
521
522
523
524
525
526
527
528
529
530
531
532
533
534
535
536
537
538
539
540
541
542
543
544
545
546
547
548
549
550
551
552
553
554
555
556
557
558
559
560
561
562
563
564
565
566
567
568
569
570
571
572
573
574
575
576
577
578
579
580
581
582
583
584
585
586
587
588
589
590
591
592
593
594
595
596
597
598
599
600
601
602
603
604
605
606
607
608
609
610
611
612
613
614
615
616
617
618
619
620
621
622
623
624
625
626
627
628
629
630
631
632
633
634
635
636
637
638
639
640
641
642
643
644
645
646
647
648
649
650
651
652
653
654
655
656
657
658
659
660
661
662
663
664
665
666
667
668
669
670
671
672
673
674
675
676
677
678
679
680
681
682
683
684
685
686
687
688
689
690
691
692
693
694
695
696
697
698
699
700
701
702
703
704
705
706
707
708
709
710
711
712
713
714
715
716
717
718
719
720
721
722
723
724
725
726
727
728
729
730
731
732
733
734
735
736
737
738
739
740
741
742
743
744
745
746
747
748
749
750
751
752
753
754
755
756
757
758
759
760
761
762
763
764
765
766
767
768
769
770
771
772
773
774
775
776
777
778
779
780
781
782
783
784
785
786
787
788
789
790
791
792
793
794
795
796
797
798
799
800
801
802
803
804
805
806
807
808
809
810
811
812
813
814
815
816
817
818
819
820
821
822
823
824
825
826
827
828
829
830
831
832
833
834
835
836
837
838
839
840
841
842
843
844
845
846
847
848
849
850
851
852
853
854
855
856
857
858
859
860
861
862
863
864
865
866
867
868
869
870
871
872
873
874
875
876
877
878
879
880
881
882
883
884
885
886
887
888
889
890
891
892
893
894
895
896
897
898
899
900
901
902
903
904
905
906
907
908
909
910
911
912
913
914
915
916
917
918
919
920
921
922
923
924
925
926
927
928
929
930
931
932
933
934
935
936
937
938
939
940
941
942
5.020200695017885 6.708080277801964 0
4.915684707483811 3.620231946545998 0
7.146443000562856 7.224753133179506 0
9.229191348188948 6.929192094569748 0
13.39530259923298 5.857810095955986 0
6.50780333291033 5.813402484595558 0
6.703687956803554 4.127856359918916 0
8.20117520319549 2.837411146226165 0
7.653479700576105 6.033667468799544 0
7.265760634211282 5.419322806649721 0
8.598689954847663 6.120414962674388 0
7.610364593812358 5.248020650624304 0
7.626458609299291 4.776277631324796 0
8.084451969832134 4.270558634313336 0
9.183617190952342 3.851558105752696 0
7.95894513591937 5.321042944785668 0
8.354838684070172 5.489467056490021 0
11.44154322595028 4.725744155808613 0
8.588104028383345 4.403189012179593 0
7.826741591818271 5.109653966982017 0
8.796889380996909 5.461678305330849 0
10.23822665211128 5.970567440171465 0
7.956439006337198 4.639843733172071 0
8.995850483843192 4.527516155562788 0
18.7976065370874 4.928287493362236 0
33.10875366804025 5.185050584280589 0
27.13011342172461 4.949982735070982 0
10.02373812341665 4.798779566563636 0
22.80757100455727 5.663329571255409 0
7.788111890613167 4.879838885668953 0
10.82112748396079 2.301684111108778 0
8.263161346755041 4.672835531245541 0
7.648547957286188 5.625291209301217 0
7.903606610234162 5.065580363508822 0
8.037485922402066 5.182436917857235 0
2.577881261154396 5.005084821361955 0
36.44862411418951 3.592022007523496 0
7.289726569154519 4.967199665764651 0
5.091138799178397 4.923947880036392 0
11.30671950863472 7.8400885014115 0
8.813504992025068 4.711190948033576 0
9.014681057756846 5.275014054828036 0
8.604041491005766 5.298453292071383 0
30.00256342011965 6.803630941605549 0
7.401448918080054 4.016443901161702 0
6.816323792645161 2.595815238492876 0
9.562907965575615 5.083499882629802 0
9.404373565716266 5.879524562578021 0
6.574522105076188 5.265885962843122 0
2.783322219287897 7.446377419252992 0
15.76543380711996 3.280696261834426 0
30.05486493013913 3.379851843067962 0
36.78839514720821 6.865059252466611 0
8.464561463524747 4.720163761684492 0
8.9808618370052 4.783546268711565 0
7.658279228789568 4.963680002634661 0
21.11981646949205 3.068392919395798 0
7.891634278346864 4.935476097397488 0
8.030942756378524 4.844673449728436 0
8.784436727688391 5.244297700946312 0
24.33359658934322 3.198718262183917 0
16.25248390924568 7.021357877519991 0
8.615817529419894 3.799283558703298 0
13.13697963922178 3.060572190161106 0
8.415665910398353 6.905437340747771 0
2.663886362984457 2.449695535331408 0
8.247455797841024 5.285980679694725 0
7.962625251006661 5.776152922797775 0
10.33070232697016 3.37203631973973 0
9.476879832471617 2.639389913505054 0
25.24205995772069 7.248411991544953 0
20.3455018964776 7.199682356838168 0
9.450438187520211 4.708900858781705 0
6.167512344335606 6.966188886671485 0
11.81730934440966 6.467317080159116 0
13.69760665572333 7.81221392427602 0
8.65005837494928 8.478791153724812 0
34.07871802637172 7.017759645574406 0
9.810919988720951 4.113188886779381 0
7.820726648964464 5.004206149051548 0
27.04159028172102 1.712802354718591 0
33.08130157365007 1.807202293918525 0
7.236514430169539 5.934573039354311 0
4.972210589570179 8.623118746613672 0
7.814927940704651 3.516417198857897 0
19.04494738625927 2.439095017516274 0
27.88445219930695 7.610869997876073 0
7.201828250843293 4.529377983642565 0
8.67342703981957 4.826744347782347 0
7.956013576411291 5.027587166687344 0
8.462840592122026 5.195611877195197 0
32.00152751005474 7.762560559707969 0
8.705124799686427 1.375843299228163 0
8.14562838692544 5.169261740263758 0
7.59305319240392 4.461432524674055 0
3.916682277337673 5.5131182064992 0
22.99431515995364 8.498750639500184 0
18.00824088816209 7.757736138968189 0
9.246388464572417 4.352081060807787 0
6.639785687845746 6.429245104906805 0
8.137793037582522 4.842523154107424 0
38.10030077450942 5.106084529272463 0
7.94882570611834 4.978210139096197 0
5.874456966443356 5.464847021961942 0
9.899608986445978 8.114994830879631 0
35.12368901848983 5.383145772656452 0
5.272558455809111 1.323397317729293 0
10.4035035627317 6.995927907920954 0
8.355795745488567 4.809495952220333 0
35.08152866241261 1.926910828027215 0
8.866065155610256 4.855021997619136 0
37.87797619047635 2.122023809524004 0
7.784647393892125 5.256152391154185 0
8.193965490901824 6.254575601520664 0
20.79238751344419 5.251944700872606 0
24.83995193658581 5.246720218114621 0
9.261538891752 5.149312605721139 0
9.256167586604809 4.92086204429521 0
7.919610834239577 5.170217113110188 0
22.89069151886623 1.858106601266511 0
5.838977502793089 6.186791681647433 0
15.49662049771059 5.132607278796756 0
11.62276387418419 3.386878864393963 0
14.62443503278313 1.924234019008873 0
8.888356919506666 4.218696111457217 0
8.663547443714458 5.163884855951279 0
6.214211055273198 8.118814870781232 0
8.865804336950314 5.142762536893308 0
4.10430581878351 7.707683229009101 0
3.908815077431276 4.189147275658804 0
29.11408708526325 1.696119257873586 0
29.11214130489751 4.927044407572763 0
8.117741640682361 5.492570237746992 0
7.613931550541251 1.854540941296504 0
31.01864744856687 5.00115806360741 0
8.913544508043167 3.262123803148412 0
8.250832236409854 5.144693433754536 0
6.987901584455522 5.605487234522918 0
17.13516677510943 1.770269863798166 0
31.00785804842731 1.734249370117686 0
8.553235956669782 4.824975749625814 0
8.252573619236765 4.841457871212071 0
6.18285026407726 4.745553430857432 0
34.10679862305349 3.569442385375387 0
1.518229599997573 6.617767411383583 0
22.78556862533677 3.954350527570172 0
12.46395972219657 1.658953130267891 0
1.563220452258219 3.558638540636865 0
8.96700560238884 4.904561135929884 0
38.15850852272762 8.158508522727397 0
8.342944963681582 5.180493242962825 0
7.503879713419199 5.416151311916196 0
7.384254605237958 5.22420204015063 0
8.618294737229544 4.646087257370199 0
9.123894776579984 5.599538562604495 0
12.68272885088131 4.399908965330328 0
8.771390714841131 4.866099166506944 0
15.22574510728922 8.410417118128388 0
29.34648145965435 8.532647330877158 0
8.45590365853686 4.848792708410797 0
6.830785407020035 4.807369780651557 0
7.97352823529661 4.918606468262576 0
8.564860601513608 5.531737851229458 0
10.6135011286001 4.262589830645944 0
8.563492845403289 5.146910095555209 0
8.001568086049863 5.086054748494869 0
8.979609140866719 5.10609014614123 0
35.35502485107941 8.482350562881296 0
7.930170318454419 4.806747905296153 0
7.798109918522535 4.662250480383831 0
8.324756612619508 4.391107976466473 0
7.533940247216488 8.38292650098046 0
8.763548978709228 5.122681310972364 0
25.02270835539007 1.597838923922034 0
9.543132769431647 3.447659405785055 0
5.769452172029665 3.949302423286402 0
9.060970151230864 6.268709867768148 0
9.667253055995813 6.408784374601668 0
7.127853875396158 3.369154719772794 0
4.080200219384781 2.318745652143995 0
7.055491817525917 5.214911248430433 0
8.787969342557208 4.495458704162067 0
14.3001405512667 4.043796674362754 0
17.54795160219931 3.79842161370871 0
20.675909229088 1.402665576252861 0
14.77106338492422 6.774403807076728 0
8.36758935672572 5.77301370135807 0
8.709483140236692 7.617980563057442 0
10.0091088282762 1.451244010208903 0
28.0756614822298 3.394300099718782 0
10.66883183077518 5.182961607187909 0
17.38504031139782 5.769848181251918 0
21.13137976554143 8.537276006165701 0
32.06303738197952 3.44615909006126 0
8.671793919528138 6.485505195258746 0
7.840881531679949 5.475161723056247 0
7.382680670019639 5.672415511757317 0
26.05314697072792 3.450043165922627 0
16.69729398093938 8.637902226923314 0
19.59291698859221 3.794539119051196 0
3.217915346276184 8.721587657476698 0
8.845323969658715 5.804945401934774 0
7.888540646649822 5.001238824740216 0
1.447653450015568 8.552346549984426 0
7.708054247020677 5.108417059061798 0
1.538772893451826 1.50753002714021 0
26.3522836749163 8.422778145526557 0
38.53510573533344 6.668773594546495 0
7.241221027416608 6.388495716771005 0
8.100254550061688 5.306074899020379 0
8.472041766376538 4.152038677294412 0
9.170411151220678 4.700516808299956 0
7.493278079903394 4.900012966120831 0
7.77468649846306 6.721325845496157 0
7.525692358809806 5.079784535683091 0
12.47138022778257 8.657479031639415 0
33.36035991085088 8.6194555723397 0
9.108497592624744 5.078896959056783 0
4.964580234364649 5.926738046395411 0
6.44128286312354 3.350948559010701 0
38.51318187553142 3.542152688675724 0
7.677664238017964 5.404155457210429 0
8.069400704081907 4.716344363835075 0
8.101173279873533 4.521753831953129 0
7.892483758853612 4.444354424176234 0
7.821675186152357 4.110287340560984 0
26.5803856632654 6.483357145252021 0
10.98463853132094 8.972889356128547 0
18.99015762298563 6.47885892981372 0
11.05414572642172 1.041498100855801 0
2.856571895163206 1.255194242923123 0
19.54450588284448 8.476222293920724 0
5.295688100596076 7.624777202175491 0
24.8110028864142 8.64403634784367 0
32.03806591384551 6.231994514924311 0
30.74721100833777 8.665937208178548 0
21.92293745585147 6.995167946312382 0
36.52117549743202 1.430773123856824 0
8.051065889625333 4.908359587458638 0
9.086500286823718 4.9040053839578 0
2.86217541816134 6.324073836934421 0
28.05152447192802 6.074898306394808 0
3.992888742836544 6.682368699655116 0
7.98015260629672 5.001661621583258 0
1.131866262682037 5.036298154676476 0
12.53766366715665 7.326981726688408 0
36.61312270486258 5.279727573574021 0
6.922645212559549 6.034240716030119 0
8.189070505584295 3.894752607925375 0
23.84328941311038 6.808521909205299 0
5.682256138118484 2.691003560546151 0
8.429497021705696 5.330290666607268 0
18.99999999996812 1.050398919338587 0
7.997343860922619 7.521025811958452 0
12.13200853838186 5.358266724042432 0
8.327931739276341 3.429438332079897 0
2.958800674642626 3.504262365026605 0
7.4931265447897 2.710683894313958 0
8.436409413602764 4.56311736758027 0
9.88287015451257 5.391190010614613 0
7.430286632651323 4.71077550310803 0
11.11690385906 5.783464152548415 0
9.386847693818083 5.413714968131258 0
36.86038570420305 8.70118366761506 0
38.88461143741175 1.115388562585487 0
6.564178322849075 1.410792843010804 0
27.01386342722721 0.5709341182395303 0
33.02710052454297 0.6024007646395083 0
7.755705922789066 4.949241679118387 0
7.953729424231772 5.059740759563678 0
6.318927468143291 5.514711823133541 0
6.582717100829878 8.83391379058723 0
7.56156944262731 5.777124729952693 0
8.659436497263414 4.914969494413774 0
7.672540573408583 4.63332021212756 0
35.33026739735659 6.421988223565823 0
8.794393278451178 2.284214786319794 0
6.328855507849721 6.143146423716598 0
8.456255240486634 5.102094599519337 0
34.10372023763393 5.861985334170483 0
7.961663962942116 5.002486309122267 0
20.2802243616131 2.303384504388311 0
7.77314774424369 5.158074472399333 0
8.038211168948152 5.050019961204404 0
34.05427674535121 1.244704373981913 0
33.07517920275249 6.144934914926435 0
7.87095796861615 5.023675112433529 0
7.212114296228815 5.565741850976653 0
7.850358283672299 5.059813493180795 0
4.098143918209958 8.35079654436649 0
7.077663583426589 3.837818326951138 0
35.40737934155311 7.455056486974104 0
7.785174162601137 5.074092391698454 0
12.58342520359976 6.550702967601171 0
7.690949909567341 4.873265506542803 0
5.258758559563958 4.164494083289597 0
7.392703291125877 1.088444594769103 0
0.9886276833377137 7.723371320456001 0
13.21019097403765 6.999001915640139 0
15.91986726928556 1.231501294269013 0
26.02143287902996 1.103547092880208 0
7.972522769427226 5.429591635196302 0
34.2384615873101 9.033935378406998 0
28.05189245565536 1.136307204197393 0
9.124530770651655 5.761336175705764 0
8.047559409748841 5.105306600490149 0
9.502582213604526 4.391390268789625 0
8.834994691912414 6.064690077459104 0
38.71950284090921 9.386169507575799 0
39.38616950757588 8.719502840908126 0
17.21525503626853 6.849647399246699 0
32.02971987402177 1.18048388801207 0
8.863866514570091 2.91297495429321 0
7.754884302956317 5.811703866966179 0
19.91922694811451 3.10067568532109 0
1.916401756433679 7.538830460207 0
8.930072437624487 4.674084457435977 0
9.516555787131731 8.864595328201482 0
8.895930546626301 3.956512591971071 0
33.09286322435776 4.066884019905745 0
33.08371252622769 2.940934589785057 0
19.5736188717718 1.630719837702574 0
1.033997781903348 2.355389522592352 0
18.12781294084851 6.668814416677942 0
9.043531955974093 4.366097775942598 0
6.690075674147347 5.561591893987199 0
7.177980082405456 9.460975500326819 0
7.9415951768412 5.107284075037959 0
3.649271990486227 3.337385097609802 0
28.41031121965376 8.714505776251077 0
9.137550033212095 4.526704674890177 0
16.27000196900995 4.070575051446631 0
27.41224529140774 8.677882714467543 0
7.996531268765573 5.006079540327469 0
4.305545384649116 4.875404454064799 0
8.11467829439216 3.261088892387986 0
32.70610381675732 7.004104906735562 0
7.979473170805019 4.987764920226485 0
8.353954476893829 4.897188211987961 0
30.04064837789181 1.143456209330424 0
16.80987080376924 4.900292357919128 0
9.761698766552604 4.540289770708241 0
9.413641881415238 4.105609351113288 0
4.450919558396883 1.214047656624429 0
9.279427824957205 7.554055829502274 0
15.8416785383375 2.325066714880488 0
0.5060765333325243 6.872589137127856 0
8.010171259638284 4.789255239619888 0
7.307280484216379 4.735784384171748 0
6.690078077771875 6.09229610184416 0
7.103051345397574 5.413240429867691 0
26.03914853594634 2.253561481521084 0
34.26470092943401 8.039855260265133 0
8.658738738434367 4.056672782484975 0
13.69613158498317 1.194395716425588 0
7.931126643059817 5.002345376841252 0
7.84366660664999 5.178674490415463 0
35.11834161702647 9.494116854293765 0
6.651247010914736 6.873395708252599 0
10.85565577658482 3.673835004926546 0
8.856271728746201 4.938210592873227 0
6.854726107609841 0.4702642810036013 0
4.063375311948776 9.11490213469679 0
13.95465754662684 6.814809275769577 0
10.20956988113419 2.771036781451187 0
11.22593607624486 4.12507095028284 0
11.11257225540045 6.415569713542829 0
0.521073484086073 3.186212846878945 0
1.921959902898167 2.505288034369495 0
22.99810505331785 9.499583546500061 0
11.17584413859203 7.101111163163857 0
9.558030471348973 5.561476513774632 0
6.912100538222294 4.488201374737679 0
23.47769718882661 4.954800105646735 0
23.98637238375527 4.133263002622903 0
14.87481167757235 0.6414113396696243 0
29.07783235969365 7.649049423452927 0
7.102321708575634 4.224559414907728 0
7.424224933588427 5.880218673303724 0
28.64618003045154 6.829799748625477 0
7.972013964187004 5.224565658584363 0
8.904326409471802 3.637655155868135 0
14.0205184077572 3.009534294510911 0
25.1364839718204 2.748866784009526 0
4.301566668099956 3.376041624782932 0
4.638546194697828 4.244442367413732 0
39.36676692483648 5.035361509752474 0
3.645590704848248 1.191313298355706 0
22.12850904777941 4.956541599899396 0
21.56592420275767 4.091562715946192 0
7.235169018991719 5.286145365076929 0
8.728455866563689 5.334809766116181 0
35.02717622079917 0.6423036093424049 0
8.280056560492751 5.585016998531695 0
9.844101299122208 7.346704944456778 0
8.883352791649715 9.492930384574938 0
6.073745934048925 5.821680396068312 0
27.08630729156078 3.931442000237464 0
7.499499637489838 5.29612466756371 0
8.217842667858109 4.785605518855012 0
8.886810661546841 4.78325307145476 0
9.103555895535282 5.984393277426981 0
7.883319678764003 5.115150481200342 0
8.054710436164781 4.948118150884464 0
14.30778392100417 8.740877014134803 0
14.8966697970566 3.082908985068684 0
7.549932811451511 4.649495219702294 0
9.783571642957808 3.153028546343279 0
9.360204814644142 5.051224844215383 0
30.05893668794323 2.270073490353078 0
22.96356383960488 0.619368867088837 0
7.866967191320383 4.98030702372975 0
8.978488405111246 5.445410307587792 0
23.97113329141068 1.151981841729515 0
6.50938880005722 7.43658563021074 0
8.614985911239632 4.76593578492612 0
8.656143298544743 5.081906906833044 0
7.817351579990933 5.625535285051746 0
4.990736863190031 9.541039582204556 0
7.916053611098424 5.031468784978794 0
13.38966229450195 8.823230985305145 0
30.91710064617072 7.744042903164022 0
7.973749474456324 5.581294961200338 0
13.40845813140049 2.21458644647929 0
8.15077602147619 5.091413275350415 0
5.728807214947776 8.913977872464967 0
11.63595036011385 2.449172035256877 0
7.72902004159157 5.025434403582669 0
7.977265047138316 4.960079869119591 0
8.361172851922785 4.734165081716788 0
8.095579510040698 5.133042264413112 0
8.71568701433565 4.885474547200016 0
3.234295752337288 2.757567850834003 0
8.856184788114575 5.061050918759054 0
12.4482068273415 5.894464633385844 0
27.05679957822625 2.852381873453333 0
7.882344227904448 4.582149545910712 0
8.772217059371814 6.773378210192089 0
7.70102207824172 5.204196700280096 0
8.097494382025623 4.901151535586938 0
12.82131990738067 0.5529843767559637 0
5.09085281859967 0.4411324392430977 0
8.173410517807723 2.022598462250277 0
7.836409896229946 3.02150407979934 0
4.806731538132491 7.346846902995519 0
19.52671722450574 5.553030374682854 0
8.14816427257834 4.912515020944672 0
3.467792871974448 4.902450101173319 0
9.221022547775643 5.279347209560144 0
5.67556351404886 6.620353615373628 0
7.989007620820384 5.043406305060738 0
8.60976738670459 4.86876803518546 0
9.766649322305488 6.777968125697456 0
24.08233215453317 2.218221262457488 0
9.128239180711196 5.167741206535319 0
8.402936945765273 5.144673703772436 0
8.865335722147382 5.326996687035066 0
26.18348367385861 5.560020032812542 0
29.03802902840998 0.565373085957862 0
31.3473856146733 6.932728672079276 0
18.51758225700217 8.744652810962972 0
26.78409455830542 9.474259381842186 0
8.509744428456992 5.131759300984644 0
35.22637058524428 4.181536721851779 0
20.04268234430247 6.310161995841497 0
29.11549381988477 9.51088244362572 0
8.29375011627606 4.27123509602474 0
7.478636120296836 3.198751937648216 0
31.0026193494667 0.578083123372562 0
12.40790107853418 2.70213472827432 0
7.761215623260022 4.522679143078039 0
4.657467103626907 5.454601377643669 0
8.53279970474169 5.38682726996937 0
35.21231713321854 3.029458406975366 0
9.679028092170824 4.863726769325047 0
37.68736892141012 4.080086408490561 0
36.01710942467805 2.316568653135845 0
30.04445072452801 5.577277804261907 0
30.06188456120117 4.436018104749379 0
8.545364052474691 4.730408922893502 0
6.572441209300283 4.560259857142635 0
8.592591309299348 5.703232318174101 0
7.833490939308164 4.939840377372662 0
36.9492586006993 2.381606313634775 0
8.290510237160126 4.774596451559315 0
34.11308043652786 4.712546247437476 0
32.45396247363521 8.794005377349224 0
25.55413251919063 6.326163118303865 0
6.529385925391161 4.93960305811737 0
36.17506895685354 5.842644199565695 0
7.243157663972798 5.135437651448572 0
23.33661891118207 3.0037251303402 0
22.26535887123168 2.960283349410827 0
7.936690147494864 6.021465331039328 0
8.684008554136206 5.235545282989658 0
6.210609778532269 5.158762138554166 0
5.681147078428441 4.539601244726742 0
38.79705268866925 2.554725499398852 0
37.61326072673243 3.085399501907741 0
11.07575963859515 5.230723305181646 0
10.92486456170504 3.020199765080824 0
33.14686848242578 7.799925259207359 0
8.890725581969022 4.413890323727357 0
23.93510601545593 9.047595662447952 0
7.202365561548233 5.737491928544848 0
31.58291283946417 8.809499255962173 0
8.901708266551735 0.4586144330760544 0
30.03208529603726 8.000738493553753 0
34.08987628637206 2.434518502440376 0
21.02027562192442 6.482265001341052 0
21.84096532461764 5.9701474061468 0
26.00773744301278 4.548915373036077 0
4.659223224073027 6.439062341284163 0
16.81618406147623 2.949795913113768 0
8.81698695415882 4.810770704053219 0
28.10597206961731 4.423775747454175 0
9.423171246566879 4.904420928568906 0
7.597302848416507 5.356109139916977 0
16.98600625944905 7.805665414470499 0
17.04505559168004 0.5900899545993886 0
15.07524836909637 9.470139039376129 0
19.18150196094813 9.492074097973575 0
9.289079267771102 4.587166242629817 0
8.649500904755516 4.257974600310408 0
17.5685116230338 8.798546121963836 0
6.215425178324814 6.527408557741907 0
19.72763701304126 4.658257104428679 0
37.46638389596845 1.184265644460276 0
17.90935525452267 2.669262165007717 0
39.50439395851047 3.180717562887859 0
9.512556649701647 3.804135466105711 0
21.04379325518045 9.512425335388567 0
22.04189830849834 9.012008881888628 0
7.506770519286707 5.184002408819341 0
23.88286915315941 7.983769632183051 0
4.892713688329025 2.876660386412048 0
10.58621135796766 6.249986500213612 0
8.411760859169769 5.235465262255097 0
6.757608231774417 3.615986546234137 0
11.91567865033859 4.170843995177635 0
0.5129242978172753 1.169176675713397 0
1.179590964483344 0.5025100090467366 0
7.887734454683691 5.249137483016679 0
5.716148676566338 5.044782777618589 0
7.107446742339282 4.767982476686258 0
8.094456286463066 5.219257852380458 0
8.78478013294133 7.15086999945832 0
1.149217816671851 9.517448849994809 0
0.4825511500051893 8.850782183328141 0
7.404430427236412 4.859329378331171 0
39.51170191177781 6.889591198179136 0
7.00914990527507 6.680831318285772 0
8.865774939475155 4.57805526925281 0
8.5529249890589 4.908934609169683 0
8.174726699544735 5.934580741892169 0
8.149318749471581 5.680578953967612 0
8.339965927742767 5.265588196421606 0
8.280410999310819 5.203722452137362 0
12.82379340926082 9.552493010546472 0
10.29474917258895 9.029294729002727 0
25.07556516555232 3.965160548740389 0
7.448076911393621 3.634005273264131 0
38.87116088334695 4.216079072646405 0
10.10299442361293 6.458426574231363 0
18.04505559168139 0.940222927712251 0
8.106352116738329 1.076794746841556 0
7.73756013947833 4.77278899912586 0
8.156785029473157 4.743901016396014 0
37.8079338856837 6.213305792095189 0
37.0540158645205 4.659278036789993 0
8.032228536127709 5.269851587221093 0
9.064999293149487 4.994300781004861 0
21.5621390724821 2.109721698971724 0
21.85553358264231 1.086924059173124 0
7.981869127569337 5.015275262756868 0
9.5714112093147 0.942362436479022 0
8.061332874055234 8.953905884901758 0
8.429096214103167 5.598072869692516 0
38.87846883661428 5.924952707937631 0
36.84039183247432 0.4769243746189413 0
37.16727287552674 5.750290451771032 0
18.39337138711227 1.753254600217676 0
6.872638502352541 5.362094815265491 0
8.75481009681574 4.372447942599625 0
8.252316700102261 5.087419569821794 0
36.0618119458473 4.751631784584657 0
9.61087527130209 5.296134953791891 0
8.88830737413185 5.220691430889219 0
5.494467046649855 7.099682122216314 0
31.01975892751068 6.01226117337909 0
20.50170699050949 4.038292246439867 0
24.63211741908176 7.566990082864641 0
18.64615837595964 4.173749408707381 0
18.7286053256836 3.344018583425393 0
7.679350681645687 3.881049480193528 0
15.18739828536575 4.152366738331312 0
14.55432882728926 5.921607060609823 0
38.89787141935369 7.60909403909029 0
8.956014178204226 4.963404168380509 0
8.404908228048045 4.866790889806487 0
9.150388488684424 4.967921462436598 0
8.655263824505427 5.430623149543897 0
37.2690964580463 7.908250480936355 0
8.610360593374503 5.203082747859291 0
29.05540973231506 5.935191218524373 0
4.37246508554598 7.032710735488727 0
18.39093482382362 5.725664868142625 0
24.6417671024723 6.434551372954957 0
23.83027078475115 5.906190566191778 0
8.252897195198154 4.907964196566376 0
9.086383500543983 8.070588849220629 0
8.911369230074312 4.915078167586888 0
10.1023720482362 2.130772678274245 0
8.303803923266514 4.863646166129208 0
20.22529521612863 9.004499433362142 0
4.291383751512956 6.04074165084991 0
8.073267227862127 4.865185397098166 0
9.397037820144748 1.82215907431404 0
8.752774248895257 4.80134482077429 0
14.39735454940342 5.011404683038498 0
18.8476347979974 7.570939120900878 0
8.758449033863963 4.934545901868868 0
14.56480504931226 7.665678283160378 0
36.33460190083022 8.016197827654322 0
8.813056322951965 4.898359858638327 0
9.106120858343809 4.140778426005901 0
9.175141176051637 5.429422528521264 0
19.62672180076924 7.384921193524204 0
38.92086254262937 1.745804124035439 0
38.25419587596169 1.07913745736983 0
6.218663464303493 4.274237404687583 0
25.00756945178152 0.532612974640678 0
11.88723084006701 7.211462436086342 0
10.43535702759731 4.748110334799163 0
35.86756805327953 1.119227983961346 0
9.841823457446706 5.747094004454699 0
33.12011997028362 9.539818524113233 0
5.011671604437459 2.111048843473146 0
8.240012040864519 5.422672657977246 0
10.14938641357923 4.391519427996321 0
1.742659041278002 5.553050129140671 0
8.739923023937274 4.61757896985528 0
15.5067225972935 6.309456321131158 0
11.56348520779738 5.289158344133154 0
1.757655992031551 4.533340505558431 0
16.89909799364642 9.545967408974439 0
32.06347949952888 4.544122579316419 0
9.213431489475719 3.520447104895388 0
7.408389358632846 4.56719533714155 0
8.987318472982649 6.56113571919888 0
7.985336676291175 4.720978667434433 0
29.08153783254406 2.823423733553443 0
8.506421871452352 4.643122795544987 0
29.08088923908882 3.900398783453169 0
8.556343952332551 5.081694005866749 0
15.41643080048637 7.402059600908369 0
8.449732102429826 5.450498524775583 0
3.626838926969317 7.27880978263907 0
3.21279546009526 6.81760665194751 0
7.769411099508813 2.467545327278875 0
5.892470500068293 7.569926986542736 0
8.349670884120725 5.099474853054605 0
3.118912985551136 5.614092288265192 0
8.92203604241187 5.622054089956706 0
13.37328301378993 3.834759276618062 0
4.790734836316589 7.985193059266088 0
9.034262597082771 5.153333720008683 0
8.377606591426844 3.707824832902856 0
20.89196974301011 0.467555192084287 0
8.199845360014612 5.123835041562479 0
13.459390667127 4.767171911883022 0
31.04192012018199 2.853420101082303 0
32.05073233468563 2.329203584699157 0
7.387450175480841 6.77819156514889 0
8.755835121300734 5.061714257347762 0
8.453942928512689 4.912706928978047 0
16.37804823945136 5.974604445856222 0
8.386748267491736 6.049334755184375 0
6.964864767684181 7.908831501647067 0
9.769951091274452 6.086292125783717 0
7.614703733214281 5.145407415123064 0
8.960215357079411 5.040146259053501 0
7.592671972664085 4.879990200026762 0
28.07711294973802 2.26774057077032 0
7.384631650956147 5.35322538623885 0
10.99487951044027 9.657629785376182 0
8.543458309510362 5.213658421607263 0
8.619097925579799 3.496948564643869 0
10.53661068593747 7.650337080070695 0
11.01804857545961 0.3471660336186004 0
8.34393050120563 5.368579467597338 0
30.91573700277924 9.555312402726182 0
3.072638448758712 9.573862552492232 0
2.95219063171939 0.4183980809743744 0
24.93700096213804 9.548012115947889 0
8.609893150955484 5.118736981116 0
19.89196974300859 0.8176881651971494 0
8.491233692910463 4.797977406573701 0
9.079257758349865 4.796022820323107 0
8.197814072700924 4.875477022950444 0
8.388044074627517 4.652038886836768 0
9.029368911163822 5.061662368399338 0
7.058667931233491 4.996493564948881 0
17.91019948356151 4.832185762774288 0
2.319428759771103 5.98230868989332 0
0.3772887542273457 5.012099384892152 0
8.709779903531587 5.107662013209995 0
5.559338234533698 5.859458916668262 0
7.937996073253938 4.944097568252087 0
8.229697079749362 4.528565779888381 0
7.133460223381898 6.119103157385145 0
16.05850766582476 8.02322574085723 0
31.04551658689517 3.942389665578877 0
7.874043896646996 6.336522971938789 0
7.398776787109089 4.335751469826107 0
5.945578926217109 0.911396720246699 0
5.964330391090563 3.330418180947751 0
8.547602726405218 4.53746454571002 0
7.838797375863373 4.782945757116312 0
11.44641097752636 1.667378447410823 0
8.155150662861692 5.361541938820698 0
8.214638807058774 5.19997861790434 0
8.810355470893814 5.09716181207675 0
38.96153714580291 0.3717961875284956 0
39.62820381247058 1.038462854194105 0
8.248521413930989 4.105783306511041 0
26.93904051249622 7.505668429551551 0
26.05824309863413 7.384849094107843 0
22.92018067630516 7.434146831672622 0
22.85793262450638 6.48900647559103 0
11.58757942257941 8.490152296393154 0
9.208734690327184 5.04969053635771 0
18.99999999996812 0.3501329731128623 0
28.09792639951671 5.317308483012851 0
36.95346190140101 9.567061222538355 0
8.915483469396181 5.087733771351271 0
8.953364845191293 5.174622245954191 0
8.341442457659104 4.542353625097428 0
8.603867760410699 5.899458021989077 0
2.482963671859883 8.240103875571371 0
6.304807663985586 3.809369114072007 0
7.894906414438051 4.702947372950685 0
9.011455908739253 4.86403759619975 0
37.82733646842309 7.230780456580168 0
2.353077050533163 1.737473268464914 0
8.110643395188429 3.613536046287723 0
2.131781596204412 0.920908090021111 0
9.017835296404185 4.936188839962562 0
8.480883816838332 3.176324427151492 0
7.377071719387417 6.118912074974953 0
7.986221614230502 5.146236259820763 0
2.366634129351747 4.022661909008475 0
8.498793034944496 5.274785278624616 0
32.05515567681754 5.472734387604103 0
5.274586144058541 6.273870001948269 0
8.701742256358061 4.728007517728707 0
7.86149135383048 5.350785686332032 0
8.46163413579313 4.315445221980159 0
7.869972162471483 4.87402096278753 0
8.777151341868889 6.291543341900428 0
15.97434636274285 9.016106448350568 0
9.377532257647649 6.185672934982613 0
8.164446244942718 5.253772439659621 0
2.221856265430579 9.091311402487042 0
12.48082412142909 3.615786673295132 0
2.387909079148936 6.796072889190332 0
8.664789369390032 4.514911657903952 0
8.298939869093273 5.128400667253021 0
7.630675278206684 5.050627199126517 0
8.504013154029714 4.873670842590543 0
20.3404625149545 8.071060218974864 0
3.368514461449197 7.958549435246264 0
8.05898044222114 5.373229360517679 0
7.690892075240815 5.30277616632964 0
8.062565423261345 7.049262999400793 0
7.559083222500923 4.981159168146194 0
8.452295125369531 7.872599176246902 0
2.395302496628434 3.170865480331626 0
8.060447494362796 8.127581155554575 0
9.049041157356356 4.670526410858103 0
7.307793962658704 2.387013358034446 0
8.488149788425876 6.286831919817932 0
7.909666877038341 4.971641687077967 0
3.590582146111853 6.173186914362913 0
7.559242369567321 7.709568482039472 0
8.128105966587746 6.627112929254864 0
11.81867291970115 9.210122795922654 0
7.610030636241117 5.48186599280928 0
7.399891177734094 5.090395413866124 0
10.25170781476374 3.915938345721685 0
10.73032234213388 8.309324229473226 0
12.08542687173782 4.827973281727124 0
30.03123082266403 9.066194846351902 0
9.894918361707585 3.644294870768055 0
7.931777610699297 4.886943490318739 0
8.735691317389744 5.599453852831694 0
8.011345108307315 4.936796351907071 0
10.90795872844186 4.723765197880822 0
10.19181336956813 5.124310394788719 0
6.934550642607301 6.283993845902643 0
7.639491119982845 7.155701596878039 0
10.35441818489313 0.830914037021568 0
9.823172081168279 5.091156486602683 0
25.72109552044349 9.022271497790076 0
11.83936848286464 0.900150410374564 0
37.67296474231022 8.953230730114152 0
3.148499004409433 4.232831487349121 0
8.079378832680986 4.801180322556978 0
5.310058666662134 5.438510982797915 0
7.605392432212111 4.196054588798913 0
7.384107005883373 5.502629876774411 0
9.319138185138542 6.535562112313188 0
8.425420289183393 4.792817474105207 0
8.427141773609439 6.548506045842394 0
7.436232335955907 4.982332389189525 0
12.73667999616538 5.205328595109582 0
5.494036581813151 8.1222369398568 0
0.88336528755987 5.884688522020017 0
7.941891210813767 3.840485715781419 0
8.170127287441725 4.394473480910979 0
8.144578443570161 4.636977909011248 0
0.8983622383134188 4.198312231771109 0
7.722364575661367 5.501536129855964 0
8.449756684868538 4.452471452075446 0
3.200219492510815 2.007878476799509 0
5.455797672543987 3.420179310126183 0
36.07180351842749 9.061178076832119 0
7.556462408818592 6.381163010355569 0
8.031732553856262 4.091866194266565 0
12.10525446785798 7.941516419913108 0
22.01621079378218 8.010398197326088 0
21.13327303929016 7.57737543643875 0
8.937977531668098 4.847709800753528 0
7.767731054530013 5.378489857140287 0
7.516674440618003 4.795688700184552 0
25.46844883968373 8.105075494971727 0
10.62812734621957 1.598142074057827 0
11.68874058061717 5.869682652249987 0
6.998144555345163 1.953716340933395 0
7.049020409061536 5.858100329969116 0
8.374164303852554 7.348147905254556 0
6.806116709975133 5.817710145049531 0
27.50545411150012 6.723041816507634 0
27.25400785230601 5.836079395572604 0
9.171026341549736 4.841794745517656 0
6.35425275120424 2.23253721401661 0
6.82026644320738 5.096055663975037 0
10.67465411398215 5.645664399969263 0
7.983365348354781 4.535317329767145 0
7.511702780241674 5.571286010991577 0
12.90221685022085 7.932224894201281 0
10.26330954579968 5.514906352657995 0
9.292338975115234 4.77675990379229 0
8.04233766343088 4.625980642986758 0
8.737177716704027 5.176954622623319 0
8.804596681115978 5.169913849603994 0
8.026036336186426 4.412222296814234 0
9.311185703315477 3.116391040812841 0
5.839664305592223 1.808397907095416 0
7.932870304946033 4.275066799683518 0
8.018512293766824 4.890546501816551 0
6.313287597962396 2.879255786016576 0
7.978213770043184 4.856675941095722 0
6.795153510388286 3.105306172425457 0
7.769070712469964 4.338691429803757 0
9.305038678704777 5.630926031104592 0
9.403764850381899 5.215509152160734 0
7.145768070943674 2.891884617526542 0
8.42564326712691 3.948691614641028 0
7.996531268765573 4.995028206994136 0
$EndNodes
$Elements
8 1884 1 1884
1 1 1 20
1 1 3 
2 3 4 
3 4 5 
4 5 6 
5 6 7 
6 7 8 
7 8 9 
8 9 10 
9 10 11 
10 11 12 
11 12 13 
12 13 14 
13 14 15 
14 15 16 
15 16 17 
16 17 18 
17 18 19 
18 19 20 
19 20 21 
20 21 2 
1 2 1 5
21 2 23 
22 23 24 
23 24 25 
24 25 26 
25 26 22 
1 3 1 20
26 22 28 
27 28 29 
28 29 30 
29 30 31 
30 31 32 
31 32 33 
32 33 34 
33 34 35 
34 35 36 
35 36 37 
36 37 38 
37 38 39 
38 39 40 
39 40 41 
40 41 42 
41 42 43 
42 43 44 
43 44 45 
44 45 46 
45 46 27 
1 4 1 5
46 27 47 
47 47 48 
48 48 49 
49 49 50 
50 50 1 
1 1001 1 10
51 51 53 
52 53 54 
53 54 55 
54 55 56 
55 56 57 
56 57 58 
57 58 59 
58 59 60 
59 60 61 
60 61 52 
1 1002 1 2
61 52 63 
62 63 62 
1 1003 1 10
63 62 64 
64 64 65 
65 65 66 
66 66 67 
67 67 68 
68 68 69 
69 69 70 
70 70 71 
71 71 72 
72 72 51 
2 3001 2 1812
73 15 16 339 
74 16 153 339 
75 153 15 339 
76 18 19 340 
77 19 154 340 
78 154 18 340 
79 128 102 341 
80 102 152 341 
81 152 128 341 
82 106 162 342 
83 162 238 342 
84 238 106 342 
85 121 78 343 
86 78 176 343 
87 176 121 343 
88 44 199 344 
89 199 244 344 
90 244 44 344 
91 105 81 345 
92 81 269 345 
93 269 105 345 
94 55 56 346 
95 56 161 346 
96 161 55 346 
97 85 167 347 
98 167 242 347 
99 242 85 347 
100 125 150 348 
101 150 178 348 
102 178 125 348 
103 142 80 349 
104 80 165 349 
105 165 142 349 
106 78 172 350 
107 172 193 350 
108 193 78 350 
109 67 68 351 
110 68 163 351 
111 163 67 351 
112 150 98 352 
113 98 178 352 
114 178 150 352 
115 162 175 353 
116 175 316 353 
117 316 162 353 
118 129 158 354 
119 158 257 354 
120 257 129 354 
121 92 185 355 
122 185 277 355 
123 277 92 355 
124 62 64 356 
125 64 238 356 
126 238 62 356 
127 154 19 357 
128 19 182 357 
129 182 154 357 
130 98 150 358 
131 150 307 358 
132 307 98 358 
133 106 152 359 
134 152 275 359 
135 275 106 359 
136 210 82 360 
137 82 269 360 
138 269 210 360 
139 106 92 361 
140 92 152 361 
141 152 106 361 
142 201 156 362 
143 156 273 362 
144 273 201 362 
145 117 79 363 
146 79 251 363 
147 251 117 363 
148 150 125 364 
149 125 240 364 
150 240 150 364 
151 152 92 365 
152 92 277 365 
153 277 152 365 
154 147 77 366 
155 77 318 366 
156 318 147 366 
157 85 102 367 
158 102 128 367 
159 128 85 367 
160 111 74 368 
161 74 248 368 
162 248 111 368 
163 6 206 369 
164 206 338 369 
165 338 6 369 
166 47 217 370 
167 217 276 370 
168 276 47 370 
169 77 148 371 
170 148 318 371 
171 318 77 371 
172 196 10 372 
173 10 211 372 
174 211 196 372 
175 15 153 373 
176 153 246 373 
177 246 15 373 
178 88 205 374 
179 205 268 374 
180 268 88 374 
181 240 30 375 
182 30 289 375 
183 289 240 375 
184 153 16 376 
185 16 203 376 
186 203 153 376 
187 227 120 377 
188 120 274 377 
189 274 227 377 
190 64 107 378 
191 107 238 378 
192 238 64 378 
193 151 145 379 
194 145 171 379 
195 171 151 379 
196 249 83 380 
197 83 274 380 
198 274 249 380 
199 22 28 381 
200 28 222 381 
201 222 22 381 
202 26 22 382 
203 22 222 382 
204 222 26 382 
205 170 134 383 
206 134 264 383 
207 264 170 383 
208 18 154 384 
209 154 212 384 
210 212 18 384 
211 80 142 385 
212 142 208 385 
213 208 80 385 
214 81 105 386 
215 105 140 386 
216 140 81 386 
217 158 129 387 
218 129 272 387 
219 272 158 387 
220 217 122 388 
221 122 276 388 
222 276 217 388 
223 113 96 389 
224 96 127 389 
225 127 113 389 
226 42 149 390 
227 149 177 390 
228 177 42 390 
229 135 87 391 
230 87 197 391 
231 197 135 391 
232 216 98 392 
233 98 266 392 
234 266 216 392 
235 154 216 393 
236 216 266 393 
237 266 154 393 
238 257 158 394 
239 158 325 394 
240 325 257 394 
241 220 50 395 
242 50 278 395 
243 278 220 395 
244 170 264 396 
245 264 301 396 
246 301 170 396 
247 171 96 397 
248 96 197 397 
249 197 171 397 
250 78 121 398 
251 121 210 398 
252 210 78 398 
253 43 44 399 
254 44 244 399 
255 244 43 399 
256 191 106 400 
257 106 238 400 
258 238 191 400 
259 252 202 401 
260 202 329 401 
261 329 252 401 
262 33 159 402 
263 159 231 402 
264 231 33 402 
265 96 171 403 
266 171 284 403 
267 284 96 403 
268 194 123 404 
269 123 256 404 
270 256 194 404 
271 159 33 405 
272 33 279 405 
273 279 159 405 
274 63 62 406 
275 62 316 406 
276 316 63 406 
277 111 168 407 
278 168 202 407 
279 202 111 407 
280 157 80 408 
281 80 328 408 
282 328 157 408 
283 150 164 409 
284 164 307 409 
285 307 150 409 
286 175 52 410 
287 52 316 410 
288 316 175 410 
289 58 59 411 
290 59 181 411 
291 181 58 411 
292 203 17 412 
293 17 212 412 
294 212 203 412 
295 194 256 413 
296 256 264 413 
297 264 194 413 
298 100 145 414 
299 145 151 414 
300 151 100 414 
301 87 151 415 
302 151 171 415 
303 171 87 415 
304 4 179 416 
305 179 252 416 
306 252 4 416 
307 76 177 417 
308 177 260 417 
309 260 76 417 
310 123 196 418 
311 196 211 418 
312 211 123 418 
313 47 48 419 
314 48 217 419 
315 217 47 419 
316 131 241 420 
317 241 295 420 
318 295 131 420 
319 110 160 421 
320 160 333 421 
321 333 110 421 
322 172 78 422 
323 78 320 422 
324 320 172 422 
325 82 210 423 
326 210 253 423 
327 253 82 423 
328 246 153 424 
329 153 270 424 
330 270 246 424 
331 150 240 425 
332 240 289 425 
333 289 150 425 
334 135 197 426 
335 197 283 426 
336 283 135 426 
337 9 196 427 
338 196 219 427 
339 219 9 427 
340 175 162 428 
341 162 275 428 
342 275 175 428 
343 185 92 429 
344 92 191 429 
345 191 185 429 
346 29 30 430 
347 30 240 430 
348 240 29 430 
349 75 146 431 
350 146 172 431 
351 172 75 431 
352 141 195 432 
353 195 236 432 
354 236 141 432 
355 53 54 433 
356 54 183 433 
357 183 53 433 
358 5 6 434 
359 6 338 434 
360 338 5 434 
361 156 45 435 
362 45 273 435 
363 273 156 435 
364 148 77 436 
365 77 258 436 
366 258 148 436 
367 103 141 437 
368 141 142 437 
369 142 103 437 
370 195 90 438 
371 90 236 438 
372 236 195 438 
373 147 180 439 
374 180 334 439 
375 334 147 439 
376 49 50 440 
377 50 220 440 
378 220 49 440 
379 138 220 441 
380 220 278 441 
381 278 138 441 
382 35 36 442 
383 36 169 442 
384 169 35 442 
385 147 112 443 
386 112 180 443 
387 180 147 443 
388 332 120 444 
389 120 335 444 
390 335 332 444 
391 79 160 445 
392 160 233 445 
393 233 79 445 
394 188 101 446 
395 101 218 446 
396 218 188 446 
397 133 188 447 
398 188 218 447 
399 218 133 447 
400 9 10 448 
401 10 196 448 
402 196 9 448 
403 159 116 449 
404 116 231 449 
405 231 159 449 
406 79 117 450 
407 117 160 450 
408 160 79 450 
409 81 155 451 
410 155 269 451 
411 269 81 451 
412 116 159 452 
413 159 314 452 
414 314 116 452 
415 107 88 453 
416 88 191 453 
417 191 107 453 
418 87 135 454 
419 135 208 454 
420 208 87 454 
421 136 196 455 
422 196 255 455 
423 255 136 455 
424 133 246 456 
425 246 270 456 
426 270 133 456 
427 74 202 457 
428 202 252 457 
429 252 74 457 
430 74 111 458 
431 111 202 458 
432 202 74 458 
433 24 25 459 
434 25 174 459 
435 174 24 459 
436 4 252 460 
437 252 303 460 
438 303 4 460 
439 101 187 461 
440 187 218 461 
441 218 101 461 
442 187 129 462 
443 129 218 462 
444 218 187 462 
445 225 82 463 
446 82 253 463 
447 253 225 463 
448 93 115 464 
449 115 132 464 
450 132 93 464 
451 19 20 465 
452 20 182 465 
453 182 19 465 
454 205 89 466 
455 89 259 466 
456 259 205 466 
457 177 76 467 
458 76 180 467 
459 180 177 467 
460 42 43 468 
461 43 149 468 
462 149 42 468 
463 176 78 469 
464 78 193 469 
465 193 176 469 
466 262 99 470 
467 99 270 470 
468 270 262 470 
469 84 224 471 
470 224 225 471 
471 225 84 471 
472 173 104 472 
473 104 214 472 
474 214 173 472 
475 113 127 473 
476 127 183 473 
477 183 113 473 
478 120 249 474 
479 249 274 474 
480 274 120 474 
481 92 106 475 
482 106 191 475 
483 191 92 475 
484 61 52 476 
485 52 311 476 
486 311 61 476 
487 40 148 477 
488 148 230 477 
489 230 40 477 
490 196 123 478 
491 123 255 478 
492 255 196 478 
493 167 85 479 
494 85 333 479 
495 333 167 479 
496 142 141 480 
497 141 247 480 
498 247 142 480 
499 119 189 481 
500 189 190 481 
501 190 119 481 
502 124 203 482 
503 203 212 482 
504 212 124 482 
505 13 14 483 
506 14 192 483 
507 192 13 483 
508 152 130 484 
509 130 275 484 
510 275 152 484 
511 93 114 485 
512 114 227 485 
513 227 93 485 
514 192 14 486 
515 14 246 486 
516 246 192 486 
517 146 75 487 
518 75 199 487 
519 199 146 487 
520 161 213 488 
521 213 226 488 
522 226 161 488 
523 69 70 489 
524 70 198 489 
525 198 69 489 
526 140 105 490 
527 105 268 490 
528 268 140 490 
529 44 45 491 
530 45 156 491 
531 156 44 491 
532 162 106 492 
533 106 275 492 
534 275 162 492 
535 148 40 493 
536 40 288 493 
537 288 148 493 
538 116 164 494 
539 164 308 494 
540 308 116 494 
541 205 140 495 
542 140 268 495 
543 268 205 495 
544 196 136 496 
545 136 219 496 
546 219 196 496 
547 64 65 497 
548 65 166 497 
549 166 64 497 
550 44 156 498 
551 156 199 498 
552 199 44 498 
553 195 103 499 
554 103 219 499 
555 219 195 499 
556 128 152 500 
557 152 277 500 
558 277 128 500 
559 52 175 501 
560 175 234 501 
561 234 52 501 
562 104 126 502 
563 126 181 502 
564 181 104 502 
565 107 64 503 
566 64 166 503 
567 166 107 503 
568 55 161 504 
569 161 229 504 
570 229 55 504 
571 138 252 505 
572 252 329 505 
573 329 138 505 
574 71 72 506 
575 72 200 506 
576 200 71 506 
577 77 147 507 
578 147 327 507 
579 327 77 507 
580 153 262 508 
581 262 270 508 
582 270 153 508 
583 95 242 509 
584 242 297 509 
585 297 95 509 
586 76 137 510 
587 137 267 510 
588 267 76 510 
589 185 84 511 
590 84 277 511 
591 277 185 511 
592 173 61 512 
593 61 311 512 
594 311 173 512 
595 8 9 513 
596 9 219 513 
597 219 8 513 
598 4 5 514 
599 5 179 514 
600 179 4 514 
601 165 80 515 
602 80 206 515 
603 206 165 515 
604 80 157 516 
605 157 330 516 
606 330 80 516 
607 201 73 517 
608 73 305 517 
609 305 201 517 
610 97 187 518 
611 187 301 518 
612 301 97 518 
613 60 61 519 
614 61 173 519 
615 173 60 519 
616 168 108 520 
617 108 202 520 
618 202 168 520 
619 114 189 521 
620 189 335 521 
621 335 114 521 
622 146 73 522 
623 73 193 522 
624 193 146 522 
625 162 62 523 
626 62 238 523 
627 238 162 523 
628 161 56 524 
629 56 213 524 
630 213 161 524 
631 180 76 525 
632 76 250 525 
633 250 180 525 
634 133 192 526 
635 192 246 526 
636 246 133 526 
637 189 114 527 
638 114 290 527 
639 290 189 527 
640 67 163 528 
641 163 223 528 
642 223 67 528 
643 114 93 529 
644 93 132 529 
645 132 114 529 
646 188 99 530 
647 99 299 530 
648 299 188 530 
649 16 17 531 
650 17 203 531 
651 203 16 531 
652 164 116 532 
653 116 307 532 
654 307 164 532 
655 38 170 533 
656 170 304 533 
657 304 38 533 
658 33 34 534 
659 34 279 534 
660 279 33 534 
661 163 68 535 
662 68 237 535 
663 237 163 535 
664 109 178 536 
665 178 216 536 
666 216 109 536 
667 187 144 537 
668 144 301 537 
669 301 187 537 
670 32 33 538 
671 33 231 538 
672 231 32 538 
673 243 86 539 
674 86 283 539 
675 283 243 539 
676 157 251 540 
677 251 330 540 
678 330 157 540 
679 17 18 541 
680 18 212 541 
681 212 17 541 
682 136 195 542 
683 195 219 542 
684 219 136 542 
685 242 167 543 
686 167 297 543 
687 297 242 543 
688 168 111 544 
689 111 291 544 
690 291 168 544 
691 115 235 545 
692 235 324 545 
693 324 115 545 
694 182 109 546 
695 109 216 546 
696 216 182 546 
697 100 119 547 
698 119 145 547 
699 145 100 547 
700 174 109 548 
701 109 293 548 
702 293 174 548 
703 109 182 549 
704 182 310 549 
705 310 109 549 
706 116 204 550 
707 204 207 550 
708 207 116 550 
709 204 124 551 
710 124 207 551 
711 207 204 551 
712 213 126 552 
713 126 226 552 
714 226 213 552 
715 215 79 553 
716 79 233 553 
717 233 215 553 
718 259 235 554 
719 235 274 554 
720 274 259 554 
721 102 130 555 
722 130 152 555 
723 152 102 555 
724 184 109 556 
725 109 310 556 
726 310 184 556 
727 104 181 557 
728 181 214 557 
729 214 104 557 
730 178 98 558 
731 98 216 558 
732 216 178 558 
733 31 164 559 
734 164 289 559 
735 289 31 559 
736 143 188 560 
737 188 299 560 
738 299 143 560 
739 121 215 561 
740 215 233 561 
741 233 121 561 
742 125 178 562 
743 178 319 562 
744 319 125 562 
745 110 225 563 
746 225 253 563 
747 253 110 563 
748 192 133 564 
749 133 218 564 
750 218 192 564 
751 129 192 565 
752 192 218 565 
753 218 129 565 
754 81 140 566 
755 140 186 566 
756 186 81 566 
757 132 115 567 
758 115 198 567 
759 198 132 567 
760 121 176 568 
761 176 215 568 
762 215 121 568 
763 215 111 569 
764 111 248 569 
765 248 215 569 
766 184 23 570 
767 23 293 570 
768 293 184 570 
769 109 184 571 
770 184 293 571 
771 293 109 571 
772 263 90 572 
773 90 334 572 
774 334 263 572 
775 141 103 573 
776 103 195 573 
777 195 141 573 
778 164 150 574 
779 150 289 574 
780 289 164 574 
781 197 96 575 
782 96 254 575 
783 254 197 575 
784 35 169 576 
785 169 306 576 
786 306 35 576 
787 155 210 577 
788 210 269 577 
789 269 155 577 
790 164 31 578 
791 31 308 578 
792 308 164 578 
793 6 7 579 
794 7 165 579 
795 165 6 579 
796 231 116 580 
797 116 308 580 
798 308 231 580 
799 154 182 581 
800 182 216 581 
801 216 154 581 
802 144 187 582 
803 187 309 582 
804 309 144 582 
805 187 101 583 
806 101 309 583 
807 309 187 583 
808 99 188 584 
809 188 270 584 
810 270 99 584 
811 291 73 585 
812 73 315 585 
813 315 291 585 
814 123 211 586 
815 211 256 586 
816 256 123 586 
817 113 183 587 
818 183 229 587 
819 229 113 587 
820 204 99 588 
821 99 262 588 
822 262 204 588 
823 145 119 589 
824 119 190 589 
825 190 145 589 
826 224 84 590 
827 84 294 590 
828 294 224 590 
829 134 170 591 
830 170 271 591 
831 271 134 591 
832 10 11 592 
833 11 211 592 
834 211 10 592 
835 39 40 593 
836 40 230 593 
837 230 39 593 
838 37 38 594 
839 38 304 594 
840 304 37 594 
841 171 145 595 
842 145 284 595 
843 284 171 595 
844 197 91 596 
845 91 283 596 
846 283 197 596 
847 170 38 597 
848 38 271 597 
849 271 170 597 
850 172 146 598 
851 146 193 598 
852 193 172 598 
853 187 97 599 
854 97 272 599 
855 272 187 599 
856 21 184 600 
857 184 310 600 
858 310 21 600 
859 211 158 601 
860 158 256 601 
861 256 211 601 
862 23 24 602 
863 24 293 602 
864 293 23 602 
865 151 87 603 
866 87 247 603 
867 247 151 603 
868 36 37 604 
869 37 265 604 
870 265 36 604 
871 169 36 605 
872 36 265 605 
873 265 169 605 
874 84 225 606 
875 225 287 606 
876 287 84 606 
877 306 169 607 
878 169 322 607 
879 322 306 607 
880 74 252 608 
881 252 323 608 
882 323 74 608 
883 180 94 609 
884 94 334 609 
885 334 180 609 
886 223 163 610 
887 163 324 610 
888 324 223 610 
889 251 79 611 
890 79 292 611 
891 292 251 611 
892 90 195 612 
893 195 228 612 
894 228 90 612 
895 50 1 613 
896 1 278 613 
897 278 50 613 
898 1 3 614 
899 3 278 614 
900 278 1 614 
901 88 185 615 
902 185 191 615 
903 191 88 615 
904 176 111 616 
905 111 215 616 
906 215 176 616 
907 160 110 617 
908 110 233 617 
909 233 160 617 
910 107 166 618 
911 166 282 618 
912 282 107 618 
913 137 76 619 
914 76 260 619 
915 260 137 619 
916 46 27 620 
917 27 276 620 
918 276 46 620 
919 27 47 621 
920 47 276 621 
921 276 27 621 
922 285 110 622 
923 110 333 622 
924 333 285 622 
925 25 26 623 
926 26 280 623 
927 280 25 623 
928 75 172 624 
929 172 281 624 
930 281 75 624 
931 96 113 625 
932 113 254 625 
933 254 96 625 
934 56 57 626 
935 57 213 626 
936 213 56 626 
937 186 140 627 
938 140 259 627 
939 259 186 627 
940 140 205 628 
941 205 259 628 
942 259 140 628 
943 139 223 629 
944 223 324 629 
945 324 139 629 
946 139 209 630 
947 209 223 630 
948 223 139 630 
949 40 41 631 
950 41 288 631 
951 288 40 631 
952 42 177 632 
953 177 300 632 
954 300 42 632 
955 188 133 633 
956 133 270 633 
957 270 188 633 
958 157 117 634 
959 117 251 634 
960 251 157 634 
961 24 174 635 
962 174 293 635 
963 293 24 635 
964 94 180 636 
965 180 250 636 
966 250 94 636 
967 211 11 637 
968 11 325 637 
969 325 211 637 
970 6 165 638 
971 165 206 638 
972 206 6 638 
973 102 85 639 
974 85 242 639 
975 242 102 639 
976 104 173 640 
977 173 295 640 
978 295 104 640 
979 125 174 641 
980 174 280 641 
981 280 125 641 
982 109 174 642 
983 174 319 642 
984 319 109 642 
985 88 107 643 
986 107 282 643 
987 282 88 643 
988 290 51 644 
989 51 312 644 
990 312 290 644 
991 192 129 645 
992 129 257 645 
993 257 192 645 
994 13 192 646 
995 192 257 646 
996 257 13 646 
997 62 162 647 
998 162 316 647 
999 316 62 647 
1000 165 7 648 
1001 7 261 648 
1002 261 165 648 
1003 149 43 649 
1004 43 244 649 
1005 244 149 649 
1006 89 235 650 
1007 235 259 650 
1008 259 89 650 
1009 174 25 651 
1010 25 280 651 
1011 280 174 651 
1012 20 21 652 
1013 21 310 652 
1014 310 20 652 
1015 174 125 653 
1016 125 319 653 
1017 319 174 653 
1018 158 211 654 
1019 211 325 654 
1020 325 158 654 
1021 210 121 655 
1022 121 253 655 
1023 253 210 655 
1024 91 197 656 
1025 197 254 656 
1026 254 91 656 
1027 65 66 657 
1028 66 209 657 
1029 209 65 657 
1030 178 109 658 
1031 109 319 658 
1032 319 178 658 
1033 119 332 659 
1034 332 335 659 
1035 335 119 659 
1036 114 132 660 
1037 132 200 660 
1038 200 114 660 
1039 73 146 661 
1040 146 305 661 
1041 305 73 661 
1042 116 207 662 
1043 207 307 662 
1044 307 116 662 
1045 129 187 663 
1046 187 272 663 
1047 272 129 663 
1048 143 306 664 
1049 306 322 664 
1050 322 143 664 
1051 97 256 665 
1052 256 272 665 
1053 272 97 665 
1054 256 158 666 
1055 158 272 666 
1056 272 256 666 
1057 117 157 667 
1058 157 298 667 
1059 298 117 667 
1060 123 194 668 
1061 194 255 668 
1062 255 123 668 
1063 77 194 669 
1064 194 258 669 
1065 258 77 669 
1066 26 222 670 
1067 222 280 670 
1068 280 26 670 
1069 51 53 671 
1070 53 221 671 
1071 221 51 671 
1072 58 181 672 
1073 181 232 672 
1074 232 58 672 
1075 190 290 673 
1076 290 312 673 
1077 312 190 673 
1078 115 93 674 
1079 93 235 674 
1080 235 115 674 
1081 125 222 675 
1082 222 336 675 
1083 336 125 675 
1084 198 115 676 
1085 115 237 676 
1086 237 198 676 
1087 204 116 677 
1088 116 314 677 
1089 314 204 677 
1090 73 201 678 
1091 201 315 678 
1092 315 73 678 
1093 264 97 679 
1094 97 301 679 
1095 301 264 679 
1096 188 143 680 
1097 143 322 680 
1098 322 188 680 
1099 101 188 681 
1100 188 322 681 
1101 322 101 681 
1102 59 60 682 
1103 60 214 682 
1104 214 59 682 
1105 177 149 683 
1106 149 260 683 
1107 260 177 683 
1108 53 183 684 
1109 183 221 684 
1110 221 53 684 
1111 103 142 685 
1112 142 261 685 
1113 261 103 685 
1114 181 59 686 
1115 59 214 686 
1116 214 181 686 
1117 265 37 687 
1118 37 304 687 
1119 304 265 687 
1120 168 291 688 
1121 291 315 688 
1122 315 168 688 
1123 131 173 689 
1124 173 311 689 
1125 311 131 689 
1126 142 165 690 
1127 165 261 690 
1128 261 142 690 
1129 161 113 691 
1130 113 229 691 
1131 229 161 691 
1132 194 77 692 
1133 77 255 692 
1134 255 194 692 
1135 170 301 693 
1136 301 304 693 
1137 304 170 693 
1138 54 55 694 
1139 55 229 694 
1140 229 54 694 
1141 230 148 695 
1142 148 258 695 
1143 258 230 695 
1144 240 125 696 
1145 125 336 696 
1146 336 240 696 
1147 183 54 697 
1148 54 229 697 
1149 229 183 697 
1150 87 171 698 
1151 171 197 698 
1152 197 87 698 
1153 227 114 699 
1154 114 335 699 
1155 335 227 699 
1156 301 144 700 
1157 144 304 700 
1158 304 301 700 
1159 23 184 701 
1160 184 337 701 
1161 337 23 701 
1162 184 21 702 
1163 21 337 702 
1164 337 184 702 
1165 79 215 703 
1166 215 248 703 
1167 248 79 703 
1168 14 15 704 
1169 15 246 704 
1170 246 14 704 
1171 112 147 705 
1172 147 318 705 
1173 318 112 705 
1174 100 236 706 
1175 236 263 706 
1176 263 100 706 
1177 182 20 707 
1178 20 310 707 
1179 310 182 707 
1180 94 120 708 
1181 120 332 708 
1182 332 94 708 
1183 30 31 709 
1184 31 289 709 
1185 289 30 709 
1186 252 179 710 
1187 179 323 710 
1188 323 252 710 
1189 139 89 711 
1190 89 205 711 
1191 205 139 711 
1192 100 151 712 
1193 151 236 712 
1194 236 100 712 
1195 108 217 713 
1196 217 317 713 
1197 317 108 713 
1198 113 226 714 
1199 226 254 714 
1200 254 113 714 
1201 194 134 715 
1202 134 258 715 
1203 258 194 715 
1204 90 327 716 
1205 327 334 716 
1206 334 90 716 
1207 220 108 717 
1208 108 317 717 
1209 317 220 717 
1210 38 39 718 
1211 39 271 718 
1212 271 38 718 
1213 98 207 719 
1214 207 266 719 
1215 266 98 719 
1216 87 208 720 
1217 208 247 720 
1218 247 87 720 
1219 160 167 721 
1220 167 333 721 
1221 333 160 721 
1222 249 76 722 
1223 76 267 722 
1224 267 249 722 
1225 241 95 723 
1226 95 295 723 
1227 295 241 723 
1228 203 124 724 
1229 124 262 724 
1230 262 203 724 
1231 226 126 725 
1232 126 331 725 
1233 331 226 725 
1234 124 204 726 
1235 204 262 726 
1236 262 124 726 
1237 68 69 727 
1238 69 237 727 
1239 237 68 727 
1240 134 230 728 
1241 230 258 728 
1242 258 134 728 
1243 235 89 729 
1244 89 324 729 
1245 324 235 729 
1246 201 122 730 
1247 122 315 730 
1248 315 201 730 
1249 122 313 731 
1250 313 315 731 
1251 315 122 731 
1252 206 80 732 
1253 80 330 732 
1254 330 206 732 
1255 146 199 733 
1256 199 305 733 
1257 305 146 733 
1258 66 67 734 
1259 67 223 734 
1260 223 66 734 
1261 108 168 735 
1262 168 313 735 
1263 313 108 735 
1264 93 227 736 
1265 227 274 736 
1266 274 93 736 
1267 228 136 737 
1268 136 255 737 
1269 255 228 737 
1270 156 201 738 
1271 201 305 738 
1272 305 156 738 
1273 114 239 739 
1274 239 290 739 
1275 290 114 739 
1276 135 321 740 
1277 321 328 740 
1278 328 135 740 
1279 12 13 741 
1280 13 257 741 
1281 257 12 741 
1282 166 65 742 
1283 65 209 742 
1284 209 166 742 
1285 77 228 743 
1286 228 255 743 
1287 255 77 743 
1288 124 212 744 
1289 212 266 744 
1290 266 124 744 
1291 212 154 745 
1292 154 266 745 
1293 266 212 745 
1294 75 281 746 
1295 281 286 746 
1296 286 75 746 
1297 70 71 747 
1298 71 245 747 
1299 245 70 747 
1300 57 58 748 
1301 58 232 748 
1302 232 57 748 
1303 134 194 749 
1304 194 264 749 
1305 264 134 749 
1306 83 186 750 
1307 186 259 750 
1308 259 83 750 
1309 199 75 751 
1310 75 244 751 
1311 244 199 751 
1312 120 94 752 
1313 94 250 752 
1314 250 120 752 
1315 277 84 753 
1316 84 287 753 
1317 287 277 753 
1318 72 51 754 
1319 51 239 754 
1320 239 72 754 
1321 85 128 755 
1322 128 285 755 
1323 285 85 755 
1324 153 203 756 
1325 203 262 756 
1326 262 153 756 
1327 224 82 757 
1328 82 225 757 
1329 225 224 757 
1330 41 42 758 
1331 42 300 758 
1332 300 41 758 
1333 115 163 759 
1334 163 237 759 
1335 237 115 759 
1336 208 135 760 
1337 135 328 760 
1338 328 208 760 
1339 112 177 761 
1340 177 180 761 
1341 180 112 761 
1342 7 8 762 
1343 8 302 762 
1344 302 7 762 
1345 89 139 763 
1346 139 324 763 
1347 324 89 763 
1348 31 32 764 
1349 32 308 764 
1350 308 31 764 
1351 45 46 765 
1352 46 273 765 
1353 273 45 765 
1354 3 4 766 
1355 4 303 766 
1356 303 3 766 
1357 34 35 767 
1358 35 306 767 
1359 306 34 767 
1360 69 198 768 
1361 198 237 768 
1362 237 69 768 
1363 12 257 769 
1364 257 325 769 
1365 325 12 769 
1366 126 213 770 
1367 213 232 770 
1368 232 126 770 
1369 127 284 771 
1370 284 312 771 
1371 312 127 771 
1372 60 173 772 
1373 173 214 772 
1374 214 60 772 
1375 126 104 773 
1376 104 331 773 
1377 331 126 773 
1378 239 51 774 
1379 51 290 774 
1380 290 239 774 
1381 233 110 775 
1382 110 253 775 
1383 253 233 775 
1384 256 97 776 
1385 97 264 776 
1386 264 256 776 
1387 217 108 777 
1388 108 313 777 
1389 313 217 777 
1390 48 49 778 
1391 49 317 778 
1392 317 48 778 
1393 198 70 779 
1394 70 245 779 
1395 245 198 779 
1396 176 193 780 
1397 193 291 780 
1398 291 176 780 
1399 175 130 781 
1400 130 234 781 
1401 234 175 781 
1402 243 104 782 
1403 104 296 782 
1404 296 243 782 
1405 155 281 783 
1406 281 320 783 
1407 320 155 783 
1408 230 134 784 
1409 134 271 784 
1410 271 230 784 
1411 207 124 785 
1412 124 266 785 
1413 266 207 785 
1414 81 186 786 
1415 186 286 786 
1416 286 81 786 
1417 160 117 787 
1418 117 167 787 
1419 167 160 787 
1420 179 5 788 
1421 5 338 788 
1422 338 179 788 
1423 292 248 789 
1424 248 323 789 
1425 323 292 789 
1426 91 226 790 
1427 226 331 790 
1428 331 91 790 
1429 241 102 791 
1430 102 242 791 
1431 242 241 791 
1432 219 103 792 
1433 103 302 792 
1434 302 219 792 
1435 139 205 793 
1436 205 282 793 
1437 282 139 793 
1438 139 166 794 
1439 166 209 794 
1440 209 139 794 
1441 71 200 795 
1442 200 245 795 
1443 245 71 795 
1444 21 2 796 
1445 2 337 796 
1446 337 21 796 
1447 2 23 797 
1448 23 337 797 
1449 337 2 797 
1450 283 86 798 
1451 86 321 798 
1452 321 283 798 
1453 159 279 799 
1454 279 299 799 
1455 299 159 799 
1456 279 143 800 
1457 143 299 800 
1458 299 279 800 
1459 169 309 801 
1460 309 322 801 
1461 322 169 801 
1462 309 101 802 
1463 101 322 802 
1464 322 309 802 
1465 112 288 803 
1466 288 300 803 
1467 300 112 803 
1468 190 189 804 
1469 189 290 804 
1470 290 190 804 
1471 11 12 805 
1472 12 325 805 
1473 325 11 805 
1474 99 204 806 
1475 204 314 806 
1476 314 99 806 
1477 28 29 807 
1478 29 336 807 
1479 336 28 807 
1480 200 72 808 
1481 72 239 808 
1482 239 200 808 
1483 114 200 809 
1484 200 239 809 
1485 239 114 809 
1486 104 243 810 
1487 243 331 810 
1488 331 104 810 
1489 83 259 811 
1490 259 274 811 
1491 274 83 811 
1492 122 273 812 
1493 273 276 812 
1494 276 122 812 
1495 79 248 813 
1496 248 292 813 
1497 292 79 813 
1498 95 241 814 
1499 241 242 814 
1500 242 95 814 
1501 221 127 815 
1502 127 312 815 
1503 312 221 815 
1504 222 125 816 
1505 125 280 816 
1506 280 222 816 
1507 138 278 817 
1508 278 303 817 
1509 303 138 817 
1510 321 157 818 
1511 157 328 818 
1512 328 321 818 
1513 278 3 819 
1514 3 303 819 
1515 303 278 819 
1516 51 221 820 
1517 221 312 820 
1518 312 51 820 
1519 80 208 821 
1520 208 328 821 
1521 328 80 821 
1522 155 81 822 
1523 81 281 822 
1524 281 155 822 
1525 107 191 823 
1526 191 238 823 
1527 238 107 823 
1528 108 220 824 
1529 220 329 824 
1530 329 108 824 
1531 163 115 825 
1532 115 324 825 
1533 324 163 825 
1534 207 98 826 
1535 98 307 826 
1536 307 207 826 
1537 193 73 827 
1538 73 291 827 
1539 291 193 827 
1540 113 161 828 
1541 161 226 828 
1542 226 113 828 
1543 185 88 829 
1544 88 268 829 
1545 268 185 829 
1546 91 243 830 
1547 243 283 830 
1548 283 91 830 
1549 130 102 831 
1550 102 241 831 
1551 241 130 831 
1552 83 249 832 
1553 249 267 832 
1554 267 83 832 
1555 39 230 833 
1556 230 271 833 
1557 271 39 833 
1558 249 120 834 
1559 120 250 834 
1560 250 249 834 
1561 166 139 835 
1562 139 282 835 
1563 282 166 835 
1564 273 46 836 
1565 46 276 836 
1566 276 273 836 
1567 195 136 837 
1568 136 228 837 
1569 228 195 837 
1570 122 217 838 
1571 217 313 838 
1572 313 122 838 
1573 226 91 839 
1574 91 254 839 
1575 254 226 839 
1576 209 66 840 
1577 66 223 840 
1578 223 209 840 
1579 128 277 841 
1580 277 287 841 
1581 287 128 841 
1582 213 57 842 
1583 57 232 842 
1584 232 213 842 
1585 144 265 843 
1586 265 304 843 
1587 304 144 843 
1588 122 201 844 
1589 201 273 844 
1590 273 122 844 
1591 205 88 845 
1592 88 282 845 
1593 282 205 845 
1594 84 185 846 
1595 185 294 846 
1596 294 84 846 
1597 286 137 847 
1598 137 326 847 
1599 326 286 847 
1600 285 128 848 
1601 128 287 848 
1602 287 285 848 
1603 260 149 849 
1604 149 326 849 
1605 326 260 849 
1606 220 138 850 
1607 138 329 850 
1608 329 220 850 
1609 149 244 851 
1610 244 326 851 
1611 326 149 851 
1612 127 96 852 
1613 96 284 852 
1614 284 127 852 
1615 118 206 853 
1616 206 330 853 
1617 330 118 853 
1618 186 83 854 
1619 83 267 854 
1620 267 186 854 
1621 130 175 855 
1622 175 275 855 
1623 275 130 855 
1624 313 168 856 
1625 168 315 856 
1626 315 313 856 
1627 244 75 857 
1628 75 326 857 
1629 326 244 857 
1630 186 137 858 
1631 137 286 858 
1632 286 186 858 
1633 288 41 859 
1634 41 300 859 
1635 300 288 859 
1636 105 224 860 
1637 224 294 860 
1638 294 105 860 
1639 225 110 861 
1640 110 287 861 
1641 287 225 861 
1642 151 141 862 
1643 141 236 862 
1644 236 151 862 
1645 177 112 863 
1646 112 300 863 
1647 300 177 863 
1648 90 228 864 
1649 228 327 864 
1650 327 90 864 
1651 32 231 865 
1652 231 308 865 
1653 308 32 865 
1654 141 151 866 
1655 151 247 866 
1656 247 141 866 
1657 234 130 867 
1658 130 241 867 
1659 241 234 867 
1660 235 93 868 
1661 93 274 868 
1662 274 235 868 
1663 52 234 869 
1664 234 311 869 
1665 311 52 869 
1666 236 90 870 
1667 90 263 870 
1668 263 236 870 
1669 100 263 871 
1670 263 332 871 
1671 332 100 871 
1672 281 172 872 
1673 172 320 872 
1674 320 281 872 
1675 75 286 873 
1676 286 326 873 
1677 326 75 873 
1678 261 7 874 
1679 7 302 874 
1680 302 261 874 
1681 119 100 875 
1682 100 332 875 
1683 332 119 875 
1684 279 34 876 
1685 34 306 876 
1686 306 279 876 
1687 8 219 877 
1688 219 302 877 
1689 302 8 877 
1690 222 28 878 
1691 28 336 878 
1692 336 222 878 
1693 202 108 879 
1694 108 329 879 
1695 329 202 879 
1696 173 131 880 
1697 131 295 880 
1698 295 173 880 
1699 111 176 881 
1700 176 291 881 
1701 291 111 881 
1702 167 117 882 
1703 117 298 882 
1704 298 167 882 
1705 82 224 883 
1706 224 269 883 
1707 269 82 883 
1708 76 249 884 
1709 249 250 884 
1710 250 76 884 
1711 181 126 885 
1712 126 232 885 
1713 232 181 885 
1714 137 186 886 
1715 186 267 886 
1716 267 137 886 
1717 110 285 887 
1718 285 287 887 
1719 287 110 887 
1720 228 77 888 
1721 77 327 888 
1722 327 228 888 
1723 199 156 889 
1724 156 305 889 
1725 305 199 889 
1726 217 48 890 
1727 48 317 890 
1728 317 217 890 
1729 298 157 891 
1730 157 321 891 
1731 321 298 891 
1732 86 243 892 
1733 243 296 892 
1734 296 86 892 
1735 104 295 893 
1736 295 296 893 
1737 296 104 893 
1738 49 220 894 
1739 220 317 894 
1740 317 49 894 
1741 268 105 895 
1742 105 294 895 
1743 294 268 895 
1744 243 91 896 
1745 91 331 896 
1746 331 243 896 
1747 252 138 897 
1748 138 303 897 
1749 303 252 897 
1750 248 74 898 
1751 74 323 898 
1752 323 248 898 
1753 29 240 899 
1754 240 336 899 
1755 336 29 899 
1756 281 81 900 
1757 81 286 900 
1758 286 281 900 
1759 86 298 901 
1760 298 321 901 
1761 321 86 901 
1762 288 112 902 
1763 112 318 902 
1764 318 288 902 
1765 169 265 903 
1766 265 309 903 
1767 309 169 903 
1768 265 144 904 
1769 144 309 904 
1770 309 265 904 
1771 183 127 905 
1772 127 221 905 
1773 221 183 905 
1774 185 268 906 
1775 268 294 906 
1776 294 185 906 
1777 85 285 907 
1778 285 333 907 
1779 333 85 907 
1780 143 279 908 
1781 279 306 908 
1782 306 143 908 
1783 103 261 909 
1784 261 302 909 
1785 302 103 909 
1786 327 147 910 
1787 147 334 910 
1788 334 327 910 
1789 206 118 911 
1790 118 338 911 
1791 338 206 911 
1792 210 155 912 
1793 155 320 912 
1794 320 210 912 
1795 137 260 913 
1796 260 326 913 
1797 326 137 913 
1798 78 210 914 
1799 210 320 914 
1800 320 78 914 
1801 159 299 915 
1802 299 314 915 
1803 314 159 915 
1804 299 99 916 
1805 99 314 916 
1806 314 299 916 
1807 284 190 917 
1808 190 312 917 
1809 312 284 917 
1810 118 323 918 
1811 323 338 918 
1812 338 118 918 
1813 121 233 919 
1814 233 253 919 
1815 253 121 919 
1816 94 263 920 
1817 263 334 920 
1818 334 94 920 
1819 296 95 921 
1820 95 297 921 
1821 297 296 921 
1822 224 105 922 
1823 105 269 922 
1824 269 224 922 
1825 148 288 923 
1826 288 318 923 
1827 318 148 923 
1828 263 94 924 
1829 94 332 924 
1830 332 263 924 
1831 145 190 925 
1832 190 284 925 
1833 284 145 925 
1834 295 95 926 
1835 95 296 926 
1836 296 295 926 
1837 132 198 927 
1838 198 245 927 
1839 245 132 927 
1840 200 132 928 
1841 132 245 928 
1842 245 200 928 
1843 86 296 929 
1844 296 297 929 
1845 297 86 929 
1846 208 142 930 
1847 142 247 930 
1848 247 208 930 
1849 323 179 931 
1850 179 338 931 
1851 338 323 931 
1852 86 297 932 
1853 297 298 932 
1854 298 86 932 
1855 234 131 933 
1856 131 311 933 
1857 311 234 933 
1858 118 292 934 
1859 292 323 934 
1860 323 118 934 
1861 131 234 935 
1862 234 241 935 
1863 241 131 935 
1864 118 251 936 
1865 251 292 936 
1866 292 118 936 
1867 297 167 937 
1868 167 298 937 
1869 298 297 937 
1870 120 227 938 
1871 227 335 938 
1872 335 120 938 
1873 189 119 939 
1874 119 335 939 
1875 335 189 939 
1876 251 118 940 
1877 118 330 940 
1878 330 251 940 
1879 135 283 941 
1880 283 321 941 
1881 321 135 941 
1882 52 63 942 
1883 63 316 942 
1884 316 52 942 
$EndElements
