$MeshFormat
4.1 0 8
$EndMeshFormat
$PhysicalNames
5
1 1 "Left"
1 2 "Right"
1 3 "Bottom"
1 4 "Top"
2 5 "Fluid"
$EndPhysicalNames
$Entities
0 4 1 0
1 0 0 0 40 0 0 1 3 0 
2 40 0 0 40 10 0 1 2 0 
3 0 10 0 40 10 0 1 4 0 
4 0 0 0 0 10 0 1 1 0 
1 0 0 0 40 10 0 1 5 0 
$EndEntities
$Nodes
5 1205 1 1205
1 1 0 21
1
2
3
4
5
6
7
8
9
10
11
12
13
14
15
16
17
18
19
20
21
0 0 0
40 0 0
1.999999999998205 0 0
3.999999999996757 0 0
5.999999999993141 0 0
7.999999999987307 0 0
9.999999999981473 0 0
11.99999999997564 0 0
13.9999999999698 0 0
15.99999999996411 0 0
17.9999999999666 0 0
19.99999999996964 0 0
21.99999999997269 0 0
23.99999999997573 0 0
25.99999999997878 0 0
27.99999999998182 0 0
29.99999999998487 0 0
31.99999999998791 0 0
33.99999999999093 0 0
35.99999999999396 0 0
37.99999999999698 0 0
1 2 0 5
22
23
24
25
26
40 10 0
40 1.999999999996827 0
40 3.999999999991027 0
40 5.999999999993932 0
40 7.999999999996978 0
1 3 0 20
27
28
29
30
31
32
33
34
35
36
37
38
39
40
41
42
43
44
45
46
0 10 0
37.99999999999999 10 0
35.99999999999999 10 0
33.99999999999999 10 0
31.99999999999998 10 0
29.99999999999998 10 0
27.99999999999998 10 0
25.99999999999997 10 0
23.99999999999996 10 0
21.99999999999996 10 0
19.99999999999996 10 0
17.99999999999995 10 0
15.99999999999995 10 0
13.99999999999995 10 0
11.99999999999994 10 0
9.999999999999936 10 0
7.999999999999929 10 0
5.99999999999995 10 0
3.999999999999964 10 0
1.999999999999986 10 0
1 4 0 4
47
48
49
50
0 7.999999999999996 0
0 5.999999999999991 0
0 3.999999999999988 0
0 1.999999999999982 0
2 1 0 1155
51
52
53
54
55
56
57
58
59
60
61
62
63
64
65
66
67
68
69
70
71
72
73
74
75
76
77
78
79
80
81
82
83
84
85
86
87
88
89
90
91
92
93
94
95
96
97
98
99
100
101
102
103
104
105
106
107
108
109
110
111
112
113
114
115
116
117
118
119
120
121
122
123
124
125
126
127
128
129
130
131
132
133
134
135
136
137
138
139
140
141
142
143
144
145
146
147
148
149
150
151
152
153
154
155
156
157
158
159
160
161
162
163
164
165
166
167
168
169
170
171
172
173
174
175
176
177
178
179
180
181
182
183
184
185
186
187
188
189
190
191
192
193
194
195
196
197
198
199
200
201
202
203
204
205
206
207
208
209
210
211
212
213
214
215
216
217
218
219
220
221
222
223
224
225
226
227
228
229
230
231
232
233
234
235
236
237
238
239
240
241
242
243
244
245
246
247
248
249
250
251
252
253
254
255
256
257
258
259
260
261
262
263
264
265
266
267
268
269
270
271
272
273
274
275
276
277
278
279
280
281
282
283
284
285
286
287
288
289
290
291
292
293
294
295
296
297
298
299
300
301
302
303
304
305
306
307
308
309
310
311
312
313
314
315
316
317
318
319
320
321
322
323
324
325
326
327
328
329
330
331
332
333
334
335
336
337
338
339
340
341
342
343
344
345
346
347
348
349
350
351
352
353
354
355
356
357
358
359
360
361
362
363
364
365
366
367
368
369
370
371
372
373
374
375
376
377
378
379
380
381
382
383
384
385
386
387
388
389
390
391
392
393
394
395
396
397
398
399
400
401
402
403
404
405
406
407
408
409
410
411
412
413
414
415
416
417
418
419
420
421
422
423
424
425
426
427
428
429
430
431
432
433
434
435
436
437
438
439
440
441
442
443
444
445
446
447
448
449
450
451
452
453
454
455
456
457
458
459
460
461
462
463
464
465
466
467
468
469
470
471
472
473
474
475
476
477
478
479
480
481
482
483
484
485
486
487
488
489
490
491
492
493
494
495
496
497
498
499
500
501
502
503
504
505
506
507
508
509
510
511
512
513
514
515
516
517
518
519
520
521
522
523
524
525
526
527
528
529
530
531
532
533
534
535
536
537
538
539
540
541
542
543
544
545
546
547
548
549
550
551
552
553
554
555
556
557
558
559
560
561
562
563
564
565
566
567
568
569
570
571
572
573
574
575
576
577
578
579
580
581
582
583
584
585
586
587
588
589
590
591
592
593
594
595
596
597
598
599
600
601
602
603
604
605
606
607
608
609
610
611
612
613
614
615
616
617
618
619
620
621
622
623
624
625
626
627
628
629
630
631
632
633
634
635
636
637
638
639
640
641
642
643
644
645
646
647
648
649
650
651
652
653
654
655
656
657
658
659
660
661
662
663
664
665
666
667
668
669
670
671
672
673
674
675
676
677
678
679
680
681
682
683
684
685
686
687
688
689
690
691
692
693
694
695
696
697
698
699
700
701
702
703
704
705
706
707
708
709
710
711
712
713
714
715
716
717
718
719
720
721
722
723
724
725
726
727
728
729
730
731
732
733
734
735
736
737
738
739
740
741
742
743
744
745
746
747
748
749
750
751
752
753
754
755
756
757
758
759
760
761
762
763
764
765
766
767
768
769
770
771
772
773
774
775
776
777
778
779
780
781
782
783
784
785
786
787
788
789
790
791
792
793
794
795
796
797
798
799
800
801
802
803
804
805
806
807
808
809
810
811
812
813
814
815
816
817
818
819
820
821
822
823
824
825
826
827
828
829
830
831
832
833
834
835
836
837
838
839
840
841
842
843
844
845
846
847
848
849
850
851
852
853
854
855
856
857
858
859
860
861
862
863
864
865
866
867
868
869
870
871
872
873
874
875
876
877
878
879
880
881
882
883
884
885
886
887
888
889
890
891
892
893
894
895
896
897
898
899
900
901
902
903
904
905
906
907
908
909
910
911
912
913
914
915
916
917
918
919
920
921
922
923
924
925
926
927
928
929
930
931
932
933
934
935
936
937
938
939
940
941
942
943
944
945
946
947
948
949
950
951
952
953
954
955
956
957
958
959
960
961
962
963
964
965
966
967
968
969
970
971
972
973
974
975
976
977
978
979
980
981
982
983
984
985
986
987
988
989
990
991
992
993
994
995
996
997
998
999
1000
1001
1002
1003
1004
1005
1006
1007
1008
1009
1010
1011
1012
1013
1014
1015
1016
1017
1018
1019
1020
1021
1022
1023
1024
1025
1026
1027
1028
1029
1030
1031
1032
1033
1034
1035
1036
1037
1038
1039
1040
1041
1042
1043
1044
1045
1046
1047
1048
1049
1050
1051
1052
1053
1054
1055
1056
1057
1058
1059
1060
1061
1062
1063
1064
1065
1066
1067
1068
1069
1070
1071
1072
1073
1074
1075
1076
1077
1078
1079
1080
1081
1082
1083
1084
1085
1086
1087
1088
1089
1090
1091
1092
1093
1094
1095
1096
1097
1098
1099
1100
1101
1102
1103
1104
1105
1106
1107
1108
1109
1110
1111
1112
1113
1114
1115
1116
1117
1118
1119
1120
1121
1122
1123
1124
1125
1126
1127
1128
1129
1130
1131
1132
1133
1134
1135
1136
1137
1138
1139
1140
1141
1142
1143
1144
1145
1146
1147
1148
1149
1150
1151
1152
1153
1154
1155
1156
1157
1158
1159
1160
1161
1162
1163
1164
1165
1166
1167
1168
1169
1170
1171
1172
1173
1174
1175
1176
1177
1178
1179
1180
1181
1182
1183
1184
1185
1186
1187
1188
1189
1190
1191
1192
1193
1194
1195
1196
1197
1198
1199
1200
1201
1202
1203
1204
1205
6.92375369051265 4.780818499659887 0
13.01415585069813 4.805907567776135 0
33.10875366804025 5.185050584280587 0
27.02249768754406 4.975133515522837 0
21.25276871494838 4.941245872356513 0
17.02189179689304 5.790907384534306 0
36.44862411418951 3.592022007523495 0
3.551375885803723 3.592022007521539 0
9.999999999981007 3.399999999994254 0
30.25038611125911 6.704102143168321 0
23.75500767972444 6.690705787503178 0
9.767137565175403 6.798698549621498 0
24.16666666666677 3.299999999999741 0
30.05486493013912 3.37985184306796 0
3.211604852792737 6.865059252466049 0
36.78839514720821 6.865059252466612 0
15.66804763976546 3.25396682526692 0
18.60702179216694 3.190249925098083 0
14.55286655127485 7.267253128162169 0
19.42462053502617 7.185198400696925 0
5.834686385938459 7.167113046140067 0
34.0787180263717 7.017759645574408 0
6.987281002481456 2.354595258588856 0
12.9768332146831 1.746762941052092 0
26.99999999999998 7.600000000000942 0
27.01098430925394 2.346444128355594 0
33.08130157365006 1.807202293918523 0
21.1671389266967 2.433427785345292 0
11.89055918964851 7.546464019344005 0
21.89664740826032 7.63338127777789 0
32.0158468287226 7.794182841607091 0
7.904892342548058 7.84563249484508 0
1.899699225488655 5.106084529274161 0
38.10030077450942 5.106084529272463 0
4.876310981498895 5.383145772660641 0
35.12368901848983 5.383145772656445 0
35.0815286624126 1.926910828027215 0
4.918471337573323 1.926910828023669 0
37.87797619047635 2.122023809524003 0
2.12202380952148 2.122023809521371 0
16.99378097544967 8.614940531088635 0
19.0465026468155 5.309154753412555 0
15.08612670458062 5.31629733338526 0
17.13164530156409 1.90773346933382 0
29.00070958965406 1.790252473265713 0
23.16580778093368 4.904445713709597 0
29.12010719247425 4.955276202415628 0
11.22098731213124 5.371013628108497 0
11.07310370664134 1.765196721487248 0
9.009970388574326 1.810677656553893 0
28.90999037667288 8.220015405177808 0
25.01442580715689 8.210788299751918 0
22.870850592043 1.686496543642213 0
9.03285250691293 5.002887879071924 0
24.93082856267231 4.99305287728266 0
31.07333333333319 5.000000000000019 0
30.98896179915911 1.749938239349706 0
25.13527708841147 1.758967714419537 0
5.45143857957401 3.607498473290918 0
34.10679862305348 3.569442385375384 0
17.11657148910689 4.131211574524416 0
1.84149147727382 8.158508522726178 0
38.15850852272763 8.158508522727404 0
14.97635367575421 1.683516273680942 0
4.624531741439304 8.501049899653749 0
35.35502485107941 8.482350562881296 0
10.54313904675931 8.538195413090023 0
23.33321617902831 8.506975073006597 0
28.46059627359006 6.490905453257108 0
12.05165413410049 3.464813476402777 0
19.60898755567084 1.677580714459667 0
8.390771517692475 3.469795858773763 0
25.54455194741953 6.493936096012307 0
28.44183274181309 3.489391632525546 0
13.96219520326367 3.378544069594021 0
32.0690023212292 3.448580890998697 0
25.65325086290971 3.474719647116074 0
30.50749630119938 8.435109618916163 0
22.12490693545414 3.486664182217604 0
13.45410079578044 8.477100775432957 0
1.464894264667039 6.668773594547382 0
38.53510573533342 6.668773594546503 0
20.21550085177089 3.578868171736631 0
20.49648399353164 8.487175721291692 0
33.36140359296952 8.621760403381911 0
15.16619598055542 8.570299072446664 0
7.963333333322964 6.232506018154705 0
18.81974299052632 8.558302442176666 0
1.486818124467178 3.542152688675047 0
38.51318187553141 3.542152688675724 0
32.0717385681351 6.266175975013661 0
13.20313273401896 6.46400607536817 0
20.76178503710582 6.509655793473687 0
6.586982203621478 8.632821551485724 0
9.122769719263797 8.74586598869071 0
36.521175497432 1.430773123856835 0
3.478824502559363 1.430773123852032 0
22.16640332419453 6.135886888964173 0
36.61312270486258 5.279727573574018 0
3.386877295132093 5.27972757357505 0
16.13740574131736 7.103699574933299 0
17.90732411433801 7.093700514473731 0
20.99999999997116 1.016982348340391 0
3.099506531930549 8.782165099106699 0
36.86038570420305 8.701183667615062 0
38.88461143741175 1.115388562585487 0
1.115388562584664 1.11538856258545 0
6.995760334153968 0.7848650861962853 0
12.99227773820951 0.5822543136840307 0
26.99999999999998 9.200000000000314 0
27.00366143640484 0.782148042785198 0
33.02710052454297 0.6024007646395076 0
10.95956135565172 6.572058732357999 0
12.10489307859957 6.460494574273557 0
35.33026739735659 6.421988223565822 0
4.640867406743364 6.471772690422252 0
5.878250352650002 5.777025772820198 0
34.10372023763393 5.86198533417048 0
18.24687761906718 1.195104727931162 0
5.968584113349306 1.427168695537508 0
34.0542767453512 1.244704373981913 0
33.08640342084902 6.156328734956219 0
6.907257803258024 6.060145854651553 0
35.40737934155311 7.455056486974105 0
4.556940993390167 7.511074066086621 0
12.47942529894944 5.546975757084266 0
13.9843956301357 1.143426404911011 0
34.23880948134964 9.034703655421069 0
28.00389796629661 1.378898867207102 0
7.999083797014362 1.388424305047583 0
12.01664564043336 1.170653220846447 0
27.96999679222428 8.60667180172625 0
26.00480860238561 8.60359609991762 0
1.280497159091269 9.386169507575394 0
0.6138304924246066 8.719502840908724 0
38.71950284090921 9.386169507575801 0
39.38616950757588 8.719502840908127 0
18.44921821646729 2.258521369630524 0
27.49177157953703 3.603656425467992 0
26.56224428656924 3.598765763664835 0
6.454157757522705 3.580970743846553 0
26.04875379921473 1.368470614258377 0
32.0234211242657 1.18571351108941 0
7.433935403562194 3.535069872340836 0
26.52234987832119 6.356356537178695 0
27.49436465371137 6.355346322926962 0
33.09485153744097 4.067691286884889 0
33.08570083931091 2.941741856764201 0
5.737171315020244 9.044623817046492 0
32.72210114107647 7.026039487398386 0
11.47789941213592 8.694886477478009 0
29.99655712959935 1.180063570871806 0
34.26504882347355 8.040623537279204 0
21.19772550072447 4.002259408770249 0
4.874843913813073 9.50034996655125 0
35.11834161702647 9.494116854293765 0
7.234304020603161 7.081750519713284 0
13.97179403123366 2.269607761442352 0
10.02769136506571 1.191958126013714 0
22.4099545290962 8.713452116928162 0
12.44821999514296 8.674521598258986 0
39.36676692483648 5.035361509752474 0
0.6332330751628851 5.035361509758046 0
15.95691527781766 4.233825244392198 0
16.40819666352685 5.079472097481328 0
21.16918223797391 3.166320046433176 0
4.972823779187741 0.642303609341223 0
35.02717622079916 0.6423036093424049 0
10.73361193386108 7.627785994018509 0
16.63875481014548 3.097637289708385 0
17.61841286094597 3.07639832298544 0
21.46437713393064 8.706852333023194 0
19.74430273964916 6.334669649194389 0
24.0020425601434 1.148488086020583 0
30.01484543965077 2.306680851894459 0
14.86886550626111 2.772009056180627 0
5.682066776999747 8.100328165759848 0
22.99495708900436 7.610354046095888 0
16.99792699181652 9.538313510362878 0
10.02769136506556 2.325291459345132 0
22.60601947072643 6.819991318081748 0
19.20299585186902 0.5591935714865557 0
31.50778104330732 8.743097486841085 0
20.3536854662899 5.586685473080919 0
14.28070866329148 6.3491855123052 0
24.05759811570708 2.248488086020497 0
13.00933506268743 3.883088371257644 0
8.931599875662419 7.796732344385763 0
18.79281576539323 6.52935122286107 0
29.00023652987359 0.5967508244219043 0
31.44599050270561 6.921486986596359 0
17.04388176716493 0.6359111564446066 0
13.76780509643257 5.528736992176522 0
9.003323462847701 0.6035592188512976 0
11.02436790219948 0.5883989071624159 0
28.96999679222428 9.406671801725937 0
25.00480860238561 9.403596099917307 0
10.8477130155864 9.512731804363341 0
35.22637058524428 4.181536721851775 0
4.626375148958876 4.194222084491032 0
22.18116114377873 4.444118589427904 0
30.99632059971063 0.5833127464499021 0
25.04509236278866 0.586322571473179 0
12.99689418401575 2.863373495682963 0
35.21231713321853 3.029458406975365 0
4.640428600983685 3.042143769612041 0
30.92457641372703 7.644464867897192 0
37.68736892141012 4.080086408490561 0
2.312631078586519 4.080086408490248 0
3.982890575312136 2.316568653132413 0
36.01710942467803 2.316568653135848 0
23.95054800777681 5.529401459498479 0
30.14794221235552 5.553126115194655 0
24.08776767009092 4.399166196997332 0
30.08276848531552 4.445042681827869 0
10.08461327300839 4.591300502391558 0
10.00699246140652 5.724200018933973 0
3.050741399294855 2.381606313631647 0
36.94925860069929 2.381606313634778 0
5.750501083861852 4.590487581870481 0
34.11308043652785 4.712546247437472 0
32.45908347389737 8.805314414996333 0
36.17506895685354 5.842644199565691 0
3.824931043141242 5.842644199567246 0
16.03599965909414 1.197083247671587 0
17.72832197760514 5.077091237490426 0
18.25669864269645 4.210205417678352 0
38.79705268866925 2.554725499398851 0
1.202947311329553 2.5547254993988 0
22.95695019733047 0.5621655145474044 0
37.61326072673243 3.085399501907741 0
2.386739273264127 3.085399501905986 0
23.11107205967608 9.502325024335532 0
33.15198948268795 7.81123429685447 0
5.78573030654293 2.629668186634481 0
34.08987628637205 2.434518502440374 0
16.05332565200168 9.061746534511768 0
15.25879966572428 6.562416678826909 0
15.92534887236125 2.281738856093894 0
30.83583210039978 9.478369872972054 0
17.99190618601552 6.064587550806864 0
17.93784132199198 9.057747657755101 0
7.497291515389821 8.826151348776934 0
8.545121080348808 6.958945687540428 0
28.19481254061047 4.473267116821337 0
37.46638389596844 1.184265644460279 0
2.533616104026349 1.184265644457801 0
20.83216133117719 9.495725240430565 0
39.50439395851047 3.180717562887859 0
0.4956060414890593 3.180717562891672 0
13.15136693192678 9.492366925144319 0
16.08180808093034 6.070301430950956 0
9.811015443732837 8.027586650467411 0
0.4882980882223464 6.889591198182456 0
39.51170191177781 6.889591198179137 0
6.775520310702665 7.88185569749029 0
38.87116088334694 4.216079072646405 0
1.128839116651944 4.216079072649732 0
8.342554020603927 8.863832827845263 0
16.09912756577415 8.096313059489534 0
8.115792571706018 4.417834079168524 0
25.83262606587863 5.487374162939268 0
2.192066114316144 6.213305792095864 0
37.80793388568369 6.213305792095192 0
2.945984135474824 4.65927803679025 0
37.0540158645205 4.659278036789992 0
19.28967509691778 4.026090950082423 0
20.17159073784493 4.609756265835233 0
21.95695019732895 0.9011596306608679 0
21.67932983957029 1.712302225775965 0
1.121531163385231 5.924952707940512 0
38.87846883661428 5.924952707937632 0
36.84039183247431 0.476924374618945 0
3.159608167518108 0.476924374617344 0
2.832727124471162 5.750290451771754 0
37.16727287552674 5.750290451771032 0
12.09559909897662 4.54724489076247 0
28.20106705120279 5.473771723731858 0
24.11588066206172 8.905921124252838 0
3.938188054144904 4.751631784585743 0
36.0618119458473 4.751631784584653 0
14.90545651586992 3.982936076082067 0
14.02082591951414 4.500249656918473 0
31.1318193375758 5.990092706060667 0
17.90694936010467 8.088981162579678 0
1.102128580646953 7.609094039091185 0
38.89787141935368 7.609094039090295 0
2.717534287332369 7.935244291432975 0
37.2690964580463 7.90825048093636 0
24.03421655530321 7.802823053420564 0
14.99211789189604 0.5611720912269806 0
12.03386368514164 2.325591046314039 0
11.04158594690761 2.876670065961426 0
28.12352888342097 7.436973619478619 0
29.20699092050735 7.138341000534413 0
3.64521437538753 8.049424750408832 0
36.33460190083022 8.016197827654324 0
6.862327401207119 9.544273850495243 0
29.88929092971046 7.786409055754096 0
38.92086254262937 1.745804124035439 0
38.25419587596169 1.07913745736983 0
1.745804124034783 1.07913745736894 0
1.079137457368715 1.745804124035601 0
29.80582889262408 8.885041674697989 0
35.86756805327952 1.11922798396135 0
4.132431946709814 1.119227983958567 0
33.12046786432317 9.540586801127304 0
32.08369644086755 4.544543825093101 0
25.86885903770869 4.480968679973857 0
29.16580242053542 2.886498649619739 0
29.20560162147548 3.941506559336378 0
8.921107801803766 6.011364148949376 0
29.27702985910781 6.050094599613686 0
11.09088048207091 4.078609034835176 0
19.47717006653622 2.815566270431461 0
20.33054244471281 2.563292223847197 0
8.129340969582751 2.545022924638837 0
9.133580635415935 2.89349117177397 0
25.8529925848588 7.434908131921723 0
24.77132847810029 7.131810061089134 0
31.03760968350915 2.859456991138787 0
32.04642189801279 2.335240474755642 0
24.98506487266265 2.844562453845118 0
25.93317075352504 2.526710496630402 0
23.02907292828422 5.910346130058983 0
28.15117554690703 2.542029411382285 0
23.05414139805464 2.824386908619852 0
22.05429881806461 2.535529503735036 0
23.15246046101819 3.897036631975647 0
9.141208008195472 3.957561245946647 0
24.74346272993876 6.059231586932715 0
18.93991433017541 9.519434147392223 0
9.040923239754553 9.58195532956357 0
22.19499327335886 5.327192825010094 0
15.05539866018511 9.523433024148888 0
31.06573352823384 3.942810911355558 0
24.91691536408293 3.922590841466158 0
20.22762985522121 7.394009971820768 0
21.05163881296593 7.543404264181089 0
12.84926423981597 7.495856956715045 0
13.73670002702475 7.402786659654431 0
15.28548942438254 7.64708392518071 0
38.96153714580291 0.3717961875284956 0
39.62820381247058 1.038462854194105 0
0.3717961875282214 1.038462854195144 0
1.03846285419429 0.3717961875284834 0
17.02220721751614 6.662769157980446 0
17.01283694370168 7.604113540165222 0
3.033168843976833 9.594055033035566 0
36.95346190140101 9.567061222538355 0
20.99999999997116 0.3389941161134637 0
18.71722921329683 7.612400452449108 0
7.973313176916181 5.338737465628839 0
2.172663531577866 7.230780456579869 0
37.82733646842308 7.230780456580173 0
32.08460852316951 5.483742186431424 0
2.313666003068118 8.98022454061096 0
37.67296474231023 8.953230730114155 0
9.888636255341014 9.094687133926911 0
14.3910544425369 8.104884325347264 0
14.20676559211194 9.015799949293209 0
19.77207566135264 9.015159387822786 0
21.39365235874958 5.862262851598125 0
3.908012757789939 9.094404999586816 0
36.07180351842749 9.061178076832119 0
19.58028250636137 8.076892188055096 0
20.59204216077957 1.709330282715117 0
20.20299585187055 0.8981876876000193 0
21.60827858985356 6.759641320071917 0
6.998586778044806 0.2616216953987617 0
7.32768044554091 1.046486781595047 0
6.661013778876188 1.046486781595047 0
12.99742591271832 0.1940847712280102 0
13.32303698428747 0.776339084912041 0
12.65637031762275 0.776339084912041 0
26.99999999999998 9.733333333333439 0
26.66666666666664 8.933333333333751 0
27.33333333333331 8.933333333333751 0
27.00122047878848 0.2607160142617327 0
27.33821524854686 1.042864057046931 0
26.67154858187918 1.042864057046931 0
33.00903350817394 0.2008002548798359 0
33.36946736606132 0.8032010195193435 0
32.70280069939365 0.8032010195193435 0
10.87241937015854 6.972407100441167 0
10.64922874431945 6.247256970029331 0
11.35703595247716 6.496512126603501 0
11.73881319345977 6.459324073908687 0
12.17633770824992 6.098504759250075 0
12.39952833408901 6.823654889661911 0
35.39912685697884 6.768269040535614 0
34.84422481407271 6.274297880598891 0
35.74745052101822 6.22339774956296 0
4.562386215158187 6.834648329676123 0
4.242927747011666 6.239992571849648 0
5.117288258060239 6.340677169740988 0
6.212230143033704 5.908319106206718 0
5.529749240029119 6.109094863873636 0
5.892771674887182 5.313663348380242 0
33.76373064401529 6.021598521341825 0
34.11205430805467 5.476727230369171 0
34.43537576083182 6.087630250800444 0
17.79284097353262 1.034279399088327 0
18.61862172490154 0.9575618141302763 0
18.32917015876737 1.593472970574883 0
6.318621705274634 1.260587984708788 0
5.958112151134695 1.902891594050011 0
5.62901848363859 1.118026507853726 0
33.71185943966406 1.017302222633479 0
34.37860180258492 1.057205067336376 0
34.07236899380462 1.659605831975884 0
33.42462503842032 6.119712988270405 0
33.07895333845195 6.480088118514762 0
32.7556318856748 5.869185098083489 0
6.555232626569711 6.002692466817169 0
7.264781609031213 5.691156790822049 0
6.901759174173148 6.486588306315443 0
35.42483083837768 7.112625128338375 0
35.85026644661358 7.600822100774004 0
34.94704073966808 7.651722231809937 0
4.534410744040454 7.181082121564246 0
5.00538637358931 7.726412337293479 0
4.131025862540736 7.62572773940214 0
12.2381894872596 5.241298984322966 0
12.89890462788884 5.605629800076191 0
12.30118178169988 5.793998486853645 0
13.65374294826287 0.9633964486543677 0
14.3202497686199 0.9423142261973178 0
13.97919417352434 1.524568539881348 0
34.53127811080969 9.172351406100788 0
33.86673769143972 9.218821352934327 0
34.31841264179953 8.712938207228092 0
27.67162742517746 1.241780998520899 0
28.33486918531083 1.056383780157605 0
28.00519728840154 1.838531822942803 0
7.662121599827707 1.247673187878813 0
8.336351395191999 1.066367320533825 0
7.998778396023382 1.851232406730111 0
12.33115961836403 0.9724720539661798 0
12.0221941872526 1.560870961128596 0
11.69658311568345 0.9786166474445649 0
27.65666559740808 8.735557267242397 0
27.95999572296572 8.142229068968334 0
28.29332905629905 8.94222906896802 0
26.33493620079519 8.734532033306188 0
25.67307813651415 8.938128133223179 0
26.00641146984749 8.138128133223494 0
1.093499053030418 9.795389835858465 0
1.040662878788363 9.181559343433859 0
1.707329545455025 9.181559343433859 0
0.2046101641415355 8.906500946969574 0
0.8184406565661422 8.292670454544966 0
0.8184406565661422 8.959337121211634 0
38.90650094696974 9.7953898358586 0
38.29267045454561 9.181559343434401 0
38.95933712121228 9.181559343434401 0
39.79538983585863 8.90650094696837 0
39.18155934343451 8.959337121211844 0
39.18155934343451 8.292670454544171 0
18.06262843673278 2.452168254687475 0
18.3966170245674 1.94794518447467 0
18.88840918810169 2.375450669729425 0
27.17508452544501 3.641744689782141 0
27.64819621020135 3.146497395449711 0
27.65203400296473 4.022727191172126 0
26.86524209445575 3.640114469181089 0
26.41266427900767 4.016206308767916 0
26.40882648624429 3.139976513045501 0
6.788397483505604 3.572128167365098 0
6.276450009203121 3.989762572265786 0
6.29762577985939 3.181021491908776 0
26.35324603614915 1.238304914204657 0
26.06500506562672 1.824627485677836 0
25.72801029586833 1.042479442892638 0
32.36824089930122 0.9976386016693111 0
32.03122816569162 1.580951348119213 0
31.67079430780424 0.9785505834797054 0
7.114990032185434 3.556827876863193 0
7.603995974578709 3.119820329901152 0
7.582820203922441 3.928561410258162 0
26.84828252195507 6.310496684234159 0
26.35563394191357 6.816764211063981 0
26.36313317109493 5.941808716237946 0
27.17228744708514 6.310159946150248 0
27.65915287161516 5.940461763902302 0
27.6516536424338 6.815417258728337 0
33.43680127617824 4.274061418846953 0
32.75753584223681 4.233774254054724 0
33.09021749390789 3.69523818775299 0
33.42460034533815 2.772795512019369 0
33.08716726119786 3.319921711046094 0
32.74533491139672 2.732508347227141 0
5.453901018819832 9.18189123890008 0
5.649561753360341 8.726165089395321 0
6.108051172880558 9.225815122844073 0
32.93888866539026 7.279327324859961 0
32.26989551264472 7.028799434673046 0
32.95751924519443 6.769991702662151 0
11.78948620059479 8.747116832274004 0
11.34034615296506 9.077693963522677 0
11.30386588284791 8.259848636637345 0
29.66575557307943 0.9901053480458396 0
30.32850630958111 0.9766672700738374 0
29.99540950613751 1.573418094495742 0
34.56626390030822 7.846911248578302 0
34.32715908917417 8.38157816784747 0
33.90172348093826 7.893381195411841 0
21.52513371704233 4.143389821114789 0
20.88866502248125 4.174124484287798 0
21.17937776264984 3.689263920908161 0
4.95828130460433 9.833449988850417 0
4.499791885084114 9.333799955401666 0
5.166458551750775 9.333799955401666 0
35.03944720567549 9.831372284764589 0
34.82445548936862 9.325489139058353 0
35.4911221560353 9.325489139058353 0
6.991294249696559 7.364832020232811 0
7.010774579954862 6.827123194669352 0
7.700843232158061 7.05329634423769 0
13.97499364055699 1.899962325391795 0
14.30344763675051 2.443889368239105 0
13.63694081639348 2.464971590696155 0
10.36693169056284 0.9857182825003207 0
10.03692182009379 1.589277501351618 0
9.679220584540504 1.000878594189202 0
22.10220064578549 8.78227779823535 0
22.54660603879494 8.284602822570882 0
22.58105690270816 9.073475729978254 0
12.11292639493047 8.740328539200997 0
12.59762666019064 8.232695464345317 0
12.63410693030778 9.050540791230647 0
39.78892230827883 5.011787169912478 0
39.1556892331153 5.38048201300629 0
39.1556892331153 4.713815346338655 0
0.2110776917209617 5.011787169919342 0
0.8443107668838468 4.713815346344066 0
0.8443107668838468 5.380482013010734 0
15.57036320738791 4.268029801014793 0
16.24717813556333 3.873001214727845 0
16.05320449050172 4.560444717433958 0
16.17207172166684 5.395558938466965 0
16.20363161907146 4.842327001797002 0
16.84888664984226 5.000530352180017 0
21.48707603337492 3.028804004665357 0
21.16986334173298 3.410617466795804 0
20.85060733881383 3.059538667838366 0
4.990941259725879 0.214101203113741 0
5.297098372251401 0.856404812454964 0
4.630431705585941 0.856404812454964 0
35.00905874026135 0.214101203114135 0
35.36956829440191 0.8564048124565399 0
34.70290162773424 0.8564048124565399 0
10.79710289622833 7.324316187661338 0
11.0557700567563 7.904148475484178 0
10.3479628485986 7.65489331891001 0
16.47948258382501 2.753112528103042 0
16.96232386693882 3.045527444522207 0
16.47445797967261 3.494271896499907 0
17.78569331822567 2.724793905805781 0
17.78066871407327 3.465953274202647 0
17.28887655053898 3.038447788947892 0
21.78700818073031 8.780077870267029 0
21.32028704248741 9.064676018104961 0
21.2858361785742 8.275803110697593 0
19.40514197383028 6.276340934434622 0
19.85086347452349 6.05116006536021 0
19.97690277059371 6.676507947788334 0
23.62429771738738 0.9449948765542654 0
24.3791065495102 0.96915193348004 0
24.00272341353262 1.531317448027444 0
29.69013998648132 2.492261722742711 0
30.00150560948798 1.948957188169959 0
30.352890722983 2.478823644770708 0
15.17108894059359 2.569830718376163 0
14.83303611643008 3.134839983680523 0
14.60247146175966 2.611356466485196 0
5.38042830145917 7.922830370517889 0
6.034578455519894 7.96675425446188 0
5.631193574020176 8.411399872299773 0
22.88220405899638 7.311480370458985 0
23.36106031591904 7.602678302201888 0
22.74160689209766 7.916903465626792 0
16.99930899727214 9.846104503454292 0
16.66390265575538 9.38441801381717 0
17.33056932242205 9.38441801381717 0
10.36693169056264 2.496829393608878 0
9.679220584540298 2.51198970529776 0
10.03692182009374 1.967055279128758 0
22.75255818623706 7.048026127787606 0
22.22302340106043 6.86308649494127 0
22.8424768248818 6.548861331516366 0
19.06766528393509 0.1863978571621852 0
19.60399446916983 0.745591428648741 0
18.93732780250215 0.745591428648741 0
31.84120929067663 8.845760109482725 0
31.33842578150223 9.059402368585751 0
31.3437080577431 8.32412998245478 0
20.21765227601793 5.279028699616663 0
20.78941307278137 5.679195712970373 0
20.05399105007041 5.80183200665572 0
14.63990063971565 6.31091199128421 0
14.01223598286176 6.69348157194518 0
14.18998936729702 6.04316297368621 0
23.69837179147228 2.411661543220817 0
24.02124193205385 1.897984114694082 0
24.45318062359511 2.435818600146592 0
12.69171501582868 4.051269805145519 0
13.00772813335053 3.575481972418147 0
13.32856203888308 4.022513336209267 0
8.867876594461961 7.480354462950781 0
9.273835720033873 7.780432294232657 0
8.653087312491424 8.129410275973852 0
19.0879796490783 6.341234792323516 0
18.7082534715858 6.936083379343909 0
18.58221417551558 6.310735496915785 0
29.00007884328009 0.1989169414739681 0
29.33364870650417 0.7956677658958724 0
28.66698203983649 0.7956677658958724 0
31.2374078142291 7.139923990457258 0
31.25603839403327 6.630588368259448 0
31.84452529985444 6.993948601072371 0
17.01462725569855 0.2119703854815355 0
17.39184235623188 0.8478815419261422 0
16.72517568956438 0.8478815419261422 0
13.95602921723711 5.21698063111264 0
14.01902151167738 5.769680133643317 0
13.32836456038322 5.599550211773608 0
9.001107820938827 0.2011864062837659 0
9.337764617134502 0.8047456251350634 0
8.671097950469779 0.8047456251350634 0
11.0081226340522 0.1961329690541387 0
11.36582386960549 0.7845318762165546 0
10.69915720294076 0.7845318762165546 0
28.98999893074141 9.802223933908644 0
28.62666238963238 9.208895735634583 0
29.29332905629905 9.208895735634583 0
25.00160286746184 9.801198699972437 0
24.67307813651415 9.204794799889742 0
25.33974480318082 9.204794799889742 0
10.94923767186209 9.837577268121114 0
10.46361735411521 9.350309072484455 0
11.13028402078188 9.350309072484455 0
35.59956123930787 4.385568167343905 0
34.81895274226253 4.378041626627868 0
35.26059777416243 3.781000371583552 0
4.351354005420498 4.389796621557736 0
4.543063204778869 3.797914188434496 0
4.98470823667726 4.394955443480864 0
22.19991254655359 4.763270058498005 0
21.85294559806042 4.29067621466734 0
22.49062528672218 4.278409495118368 0
30.9987735332278 0.1944375821499673 0
31.32842746628588 0.7777503285998694 0
30.6617607996182 0.7777503285998694 0
25.01503078758106 0.1954408571577263 0
25.39345648372631 0.7817634286309053 0
24.72678981705862 0.7817634286309053 0
12.67512717759978 2.691649971045944 0
13.31197420065418 2.662893502109692 0
13.0035811737933 3.235577013893254 0
35.58082330327355 2.849463747508691 0
35.25591329015384 3.396974266624748 0
34.8002148062282 2.841937206792654 0
4.370091941453577 2.853692201719083 0
5.00344617271034 2.85885102364221 0
4.54774768878714 3.413888083474833 0
31.06360311790291 7.380916617557535 0
31.14930651454968 7.957919109473482 0
30.56081960872851 7.594558876660559 0
37.41209793670302 4.25939764842884 0
37.54972497037701 3.738087034896593 0
38.10028385715032 4.242774542146249 0
2.587902063292966 4.259397648428649 0
1.899716142847451 4.242774542146485 0
2.45027502961914 3.738087034895611 0
4.15091259956306 2.611833829559207 0
3.671030321225074 2.446454594835328 0
4.126728805148274 1.891417535002705 0
35.84908740042672 2.611833829562186 0
35.87327119484087 1.891417535006633 0
36.32896967876652 2.446454594838726 0
23.62378782281165 5.708184320237085 0
24.0157281171276 5.142300016830245 0
24.21212808339119 5.737720041428106 0
29.83947850536296 5.737501486926202 0
30.11379424605432 5.169467439203434 0
30.49055388564927 5.752409419454332 0
23.80674737256379 4.201203970235557 0
24.39508763314333 4.230739691426578 0
24.06146800456564 4.765554929329863 0
29.75258020264296 4.260056909103819 0
30.40365558292928 4.274964841631949 0
30.09206967037432 4.800106294747838 0
10.43520019504021 4.45410471016477 0
10.11281769735085 4.988400669857326 0
9.70582192663411 4.331396127152579 0
10.33170577957105 5.96463739888799 0
9.602327511164951 5.841928815875799 0
10.08694409348356 5.366033842038131 0
2.90804703154002 2.698550710224852 0
2.883863237125233 1.97813441566835 0
3.360313929219314 2.468133815001739 0
37.09195296845505 2.698550710227426 0
36.6396860707736 2.468133815005036 0
37.11613676286922 1.978134415671872 0
5.850188585291132 4.918150618063669 0
5.359416881644918 4.527043942607347 0
6.041897784649504 4.326268184940428 0
34.11517437435264 5.093580868124835 0
33.77621090920719 4.489013072364481 0
34.44785602602372 4.555044801823101 0
32.15831010087332 8.866499085534473 0
32.61211129852983 8.407085886661777 0
32.60682902228896 9.142358272792748 0
36.02905104085053 6.030283074896249 0
35.97062689340199 5.501839181932051 0
36.52552893630811 5.995810341868773 0
3.970948959144291 6.030283074897979 0
3.474471063688691 5.995810341869448 0
4.029373106590743 5.501839181934312 0
16.38921498687411 1.034938905668469 0
16.04799954547082 1.59611099689545 0
15.67078444493749 0.9601998404508429 0
17.93223880710456 5.392384458479095 0
17.28892842120169 4.999736732183049 0
17.96379870450918 4.839152521809132 0
18.6367410272263 4.236536698729663 0
18.13992425953961 4.550190581871774 0
17.99343064132342 3.843888972433616 0
38.89167629304853 2.225583102973227 0
39.10341152140023 2.698959396023801 0
38.396070251559 2.739633999199526 0
1.108323706950344 2.225583102973384 0
1.603929748439404 2.739633999198406 0
0.8965884785989103 2.698959396024609 0
22.98565006575963 0.1873885048491348 0
23.27593359644973 0.7495540193965392 0
22.60926692978205 0.7495540193965392 0
37.3132870104661 2.933148439651747 0
38.00147293091339 2.916525333369156 0
37.52502223881778 3.40652473270232 0
2.686712989529777 2.933148439649632 0
2.474977761178343 3.406524732700857 0
1.998527069084262 2.916525333367468 0
23.037024019892 9.834108341445178 0
22.81476274623478 9.336433365780708 0
23.48142941290145 9.336433365780708 0
33.08218477926075 7.54105892801199 0
33.53070370067639 7.816918115270263 0
32.84307996812669 8.075725847281157 0
5.897160882199237 2.303724757749002 0
6.074816629532799 2.863920639504752 0
5.385213407896754 2.721359162649689 0
34.08423550747824 2.056210541462038 0
34.42606785727938 2.643623905280991 0
33.75932549435854 2.603721060578094 0
16.34903554248377 9.225562355200134 0
15.73984054418568 9.210681868986144 0
16.07110086933559 8.748995379349024 0
14.96593097385992 6.381989046791446 0
15.49411070387409 6.327471195715156 0
15.31635731943883 6.977789793974126 0
16.2416806045636 2.481146383564878 0
15.52325006262697 2.406407318347252 0
16.01111594989318 1.957662866369552 0
30.94527736679991 9.826123290990685 0
30.44777613386638 9.304493163962739 0
31.11444280053304 9.304493163962739 0
18.02010020990802 5.721549896251241 0
18.31524431572301 6.155814272897717 0
17.64037403241553 6.316398483271634 0
17.6438740991472 9.224229396281245 0
17.91712176265599 8.743663543673469 0
18.25252810417275 9.205350033310589 0
7.800727952645936 8.890594614540673 0
7.361424573003743 9.152990966754219 0
7.329722020519785 8.434868465035912 0
8.739050329357424 7.201092244002336 0
8.137782252073277 7.012361400180072 0
8.758530659615724 6.663383418438877 0
28.11247247354293 4.801225611586601 0
27.88638098998921 4.312597421623241 0
28.58558415829927 4.30597831725417 0
37.78145336214726 1.102096484661427 0
37.28851186129227 1.579020859280372 0
37.32918646446581 0.871679589439038 0
2.218546637848678 1.102096484659724 0
2.670813535527973 0.8716795894366109 0
2.711488138702398 1.579020859277068 0
20.94405377705904 9.831908413476855 0
20.44288177490293 9.327633653907419 0
21.1095484415696 9.327633653907419 0
39.83479798617015 3.060239187625238 0
39.33919194468063 3.574290083851537 0
39.33919194468063 2.907623417186803 0
0.1652020138296864 3.060239187630547 0
0.6608080553187458 2.9076234171889 0
0.6608080553187458 3.574290083855569 0
13.05045564397556 9.830788975048106 0
12.86848924256905 9.323155900192425 0
13.53515590923572 9.323155900192425 0
16.063275527468 5.725835382956841 0
16.41370187304691 6.32163613013952 0
15.76844684227611 6.163432779756505 0
10.04043068522252 7.788160204392978 0
9.82564140325198 8.437216017416048 0
9.566974242724013 7.857383729593207 0
0.1627660294074488 6.963197066060814 0
0.6510641176297952 6.519454930909943 0
0.6510641176297952 7.186121597576611 0
39.8372339705926 6.963197066056683 0
39.34893588237041 7.186121597574206 0
39.34893588237041 6.519454930906524 0
6.838366346396394 7.631533746158479 0
7.0891316189574 8.120103247940365 0
6.3990629667542 7.893930098372028 0
38.99048721928546 4.440721200636632 0
38.49488117779592 4.288105430198198 0
39.12811425295945 3.919410587104386 0
1.009512780713533 4.440721200641294 0
0.8718857470397073 3.919410587108256 0
1.505118822202592 4.288105430199646 0
8.082482121050639 8.903155107563448 0
8.456738694138593 8.485110437127018 0
8.488441246622552 9.203232938845325 0
16.08636817392641 8.427184221008277 0
15.80090976254898 7.923437235623166 0
16.41010476084706 7.938317721837156 0
8.024132923043865 4.733846819300112 0
7.810105926637047 4.222816145867391 0
8.51313886543714 4.29683927233807 0
25.92865077203167 5.151853518581588 0
26.13322523361407 5.652147924824804 0
25.43600219199016 5.658121045411412 0
2.434456730865846 6.061483191278691 0
2.289521743925307 6.582379546369765 0
1.852219868157279 5.996054638639134 0
37.56554326913378 6.061483191278089 0
38.14778013184218 5.996054638638053 0
37.71047825607511 6.582379546369435 0
2.799019748922401 4.45246152452865 0
3.29474577213688 4.510342539295613 0
2.744186885365191 5.015030046546488 0
37.20098025107314 4.45246152452865 0
37.25581311463083 5.015030046545491 0
36.70525422785753 4.510342539295835 0
18.98106651196674 4.175165209531021 0
19.3707325802852 3.598403015639045 0
19.51722619850139 4.304704625077203 0
20.15695403320294 4.953385630534767 0
19.81119807881044 4.499259730328141 0
20.5466201015214 4.376623436642793 0
22.27593359644821 0.862552058101027 0
21.94260026311437 1.201546174214491 0
21.65231673242427 0.6393806596670863 0
21.90577311943666 1.94407551825449 0
21.28215625541272 1.720904119820549 0
21.85006014386148 1.471927039252856 0
1.007076796291295 5.677012412404888 0
1.495374884513642 5.899936943920685 0
0.8621418093507568 6.197908767495961 0
38.9929232037079 5.677012412401343 0
39.13785819064923 6.197908767492689 0
38.50462511548571 5.899936943918866 0
36.94679727748841 0.1589747915396483 0
37.12052244330109 0.6358991661585933 0
36.45385577663343 0.6358991661585933 0
3.053202722504357 0.1589747915391147 0
3.546144223358076 0.6358991661564587 0
2.879477556691892 0.6358991661564587 0
2.648010400917518 5.907144744503988 0
2.70643454836397 5.378700851540322 0
3.143736424131998 5.965025759270951 0
37.35198959908146 5.907144744503369 0
36.85626357586585 5.965025759270554 0
37.29356545163292 5.378700851539171 0
12.110247420602 4.908055362215701 0
11.78941351506945 4.461023998424582 0
12.38713636125841 4.272655311647128 0
28.11455731040704 5.134727147223441 0
28.5939235057557 5.639984459801531 0
27.89472033744564 5.646603564170601 0
24.37676882307285 9.038903141334918 0
23.81636561369666 9.137632065753145 0
24.15450754941564 8.541228165670452 0
4.121958307149174 4.575599854922641 0
4.067125443591964 5.138168376940478 0
3.625480411693573 4.54112712189411 0
35.87804169284221 4.575599854921531 0
36.3745195882998 4.541127121894055 0
35.9328745563999 5.138168376938371 0
15.21987695340533 4.184400078244749 0
14.6512594745714 4.225925826353783 0
14.84523311963302 3.538482323647669 0
14.04036949159763 4.874151519359956 0
13.66572565782531 4.228233764762876 0
14.35638260911948 4.398363686632585 0
30.81851292738937 5.898064949743002 0
31.4256304130147 5.752089560358115 0
31.15131467232334 6.320123608080884 0
17.90682444202688 8.420741378614993 0
17.60268481663078 7.932540736047348 0
18.21133882165633 7.913661373076692 0
0.9812066859735911 7.922534187272453 0
0.8556742817713306 7.425955877879521 0
1.469504774195937 7.478792052121581 0
39.0187933140271 7.922534187271559 0
38.53049522580491 7.4787920521214 0
39.14432571822903 7.425955877877925 0
2.590210205799642 7.652937355541733 0
3.009548557351886 7.860822881001909 0
2.55284409884558 8.291972637755284 0
37.40533337599405 7.643939418710126 0
37.42933022832566 8.255980890426274 0
36.97262576981919 7.824831133672678 0
24.26788334739484 7.568105713558553 0
24.12728618049614 8.17352880872636 0
23.70748013801865 7.66683463797678 0
14.99737263060998 0.1870573637423269 0
15.32282385587145 0.7482294549693075 0
14.65615718920668 0.7482294549693075 0
12.02793353548869 1.94585023628446 0
12.35411701130841 2.512389154589636 0
11.71954050862782 2.518533748068021 0
10.70489655117665 2.680622262480976 0
11.38878126254981 2.702226754617151 0
11.03108002699637 3.247161180786152 0
28.01117308669794 7.75232967488579 0
27.86137505233701 7.175959690912222 0
28.49803851122797 7.382631492637845 0
29.45578913614645 7.354152849626847 0
28.8591925235901 7.283087286323109 0
29.30599110178551 6.777782865653282 0
3.82711698987319 7.805177967509543 0
3.789750882919128 8.444213249723093 0
3.318775253370272 7.898883033993861 0
36.15934063303929 7.787869214334077 0
36.6611275840805 7.860813582578666 0
36.18333748537089 8.399910686050227 0
6.954109133735666 9.848091283498414 0
6.483103201609516 9.392365133993657 0
7.149769868276175 9.392365133993657 0
29.68322247254748 7.570175534700074 0
30.21572444738965 7.641873605946194 0
29.76892586919424 8.147178026616022 0
38.93294624436857 1.955942644518756 0
38.56115005683916 1.661072165381643 0
39.26849132668037 1.620397562205918 0
38.04405735547834 1.067053755631278 0
38.37960243779014 0.7315086733184391 0
38.33892783461661 1.438849943159773 0
1.955942644518156 1.067053755630104 0
1.661072165380309 1.438849943158587 0
1.620397562205884 0.73150867331813 0
1.067053755630065 1.955942644518984 0
0.731508673317793 1.620397562207011 0
1.438849943158286 1.661072165380807 0
29.57193975643231 9.035019026625266 0
29.74110519016545 8.513388899597318 0
30.10444173127448 9.106717097871384 0
35.64969890522869 1.015379603996188 0
36.12958118356849 0.8500003692727284 0
35.82342407104137 1.492303978615133 0
4.350301094759964 1.015379603994079 0
4.1765759289475 1.492303978611423 0
3.870418816421978 0.8500003692701997 0
33.04015595477438 9.846862267042434 0
32.82729048576422 9.387449068169738 0
33.49395715243089 9.387449068169738 0
32.088594480747 4.909864803124569 0
31.74201069847664 4.331041572030606 0
32.42048414337901 4.392725100124128 0
25.94072842930835 4.816385024259785 0
25.4843128210969 4.316247068124198 0
26.18153586272082 4.310273947537589 0
29.4071256467762 2.68553432198447 0
29.22083336416254 3.251914041737749 0
28.86944825066753 2.722047585137 0
29.46019124802962 4.092211534939989 0
28.92251385192094 4.128724798092517 0
29.2340997644759 3.603583344976628 0
9.240365957964032 5.9376501925476 0
8.883859566767377 6.347522905575193 0
8.639097880679886 5.748919348725335 0
29.54917438761372 5.903157648399212 0
29.32933741465233 6.415034065346372 0
28.95257777505737 5.832092085095474 0
10.77062259806105 4.283207554312642 0
11.04751153871747 3.647807503744069 0
11.45450730943421 4.304812046448816 0
19.23105980479133 2.561132303329737 0
19.76721949132599 2.69067171887592 0
19.43323090349135 3.194894789088725 0
20.36888964236012 2.224766907884052 0
20.57106074106013 2.85852939364304 0
20.05167695071818 2.606580370014498 0
8.042197453546178 2.236765279927195 0
8.510027625283184 2.608498813322164 0
7.835797829918893 2.789804680667152 0
9.381183674657089 2.701389609440705 0
9.174784051029805 3.254429010180662 0
8.844774180560913 2.724654895700542 0
25.95580613067189 7.748565477224862 0
25.47065677981174 7.379877509228649 0
26.13251484409277 7.176281409311657 0
24.51358732166054 7.344434716114743 0
24.69029603508142 6.772150648201539 0
25.1101020775589 7.278844818951121 0
30.69381213760246 2.663082357852151 0
31.36519126796582 2.68599204049573 0
31.05382564495916 3.229296575068481 0
32.03889509027399 1.964127002674624 0
32.39890859763068 2.530341219890954 0
31.7014620061337 2.511253201701348 0
24.76233620924696 2.634510056088132 0
25.25786427466128 2.692749938460243 0
24.93499413407971 3.206427366986977 0
26.02647738373015 2.210707446468511 0
26.1991353085629 2.782624757367357 0
25.57389956828208 2.586799286055338 0
23.31662946298078 5.835165877090586 0
22.98349464406773 6.245646268842111 0
22.78709467780414 5.650226244244251 0
28.05428981527168 2.226242004334531 0
28.53123929279139 2.607224505724515 0
27.86799753265802 2.792621724087809 0
23.36388621892147 2.603627817420602 0
23.11523833339185 3.203683696945733 0
22.68329964185059 2.665849211493223 0
22.03076277893477 2.218484610907514 0
22.35001878185392 2.569563409864951 0
21.78211489340515 2.818540490432644 0
23.49497830287288 4.033827448561662 0
22.814391725802 4.096048842634283 0
23.1480113543797 3.561233604730997 0
9.391353505029803 4.120149708337608 0
8.854944010933623 4.143414994597445 0
9.177326508622984 3.609119034904888 0
24.4764329907785 5.914330083906184 0
25.07294774667686 5.84874018674256 0
24.68100745236091 6.4146244901494 0
18.97997144339178 9.839811382464076 0
18.58655244023389 9.359245529856297 0
19.25321910690056 9.359245529856297 0
9.013641079918139 9.860651776521189 0
8.721230986339426 9.442607106084759 0
9.387897653006094 9.442607106084759 0
22.20452325641364 5.057628137025401 0
22.50906812616236 5.455841809227955 0
21.87138843750059 5.468108528776926 0
15.01846622006167 9.841144341382963 0
14.74053154691349 9.364577365531851 0
15.40719821358016 9.364577365531851 0
30.73131059723538 4.107554251474512 0
31.06320025986739 3.590414548474071 0
31.40268972759874 4.130463934118091 0
24.67147019780734 4.071881239582853 0
24.9122776312198 3.565770162860658 0
25.16699826322165 4.130121121954964 0
20.04957812792634 7.688794697936462 0
20.13801180911773 7.029621388663794 0
20.49529962861956 7.463613828862049 0
21.14825673825263 7.887987087750223 0
20.76996928120113 7.513411926315489 0
21.23669041944403 7.228813778477555 0
12.73130807508164 7.839807250497336 0
12.64765205449448 7.168775683809073 0
13.16883258987179 7.478987935838724 0
13.91455579136001 7.715713521083186 0
13.46464451894138 7.447964503485186 0
13.83089977077285 7.044681954394924 0
15.0015173187376 7.828212041929848 0
15.32525390565825 7.339345542758726 0
15.52969704875177 7.773694190853558 0
38.98717904859996 0.1239320625094985 0
39.28204952773822 0.4957282500379942 0
38.61538286107054 0.4957282500379942 0
39.8760679374902 1.012820951396977 0
39.50427174996077 1.384617138925473 0
39.50427174996077 0.7179504722598639 0
0.1239320625094071 1.012820951398375 0
0.4957282500376285 0.717950472260198 0
0.4957282500376285 1.384617138926859 0
1.012820951397498 0.1239320625094945 0
1.38461713892572 0.4957282500379778 0
0.7179504722596514 0.4957282500379778 0
16.72716825190885 6.519125372482684 0
17.31714104291573 6.515792352329495 0
17.02231235772384 6.953389749129158 0
16.71467455348957 7.774251215395719 0
17.01918893311901 7.267171209857417 0
17.30464734449645 7.77091819524253 0
3.011056281325594 9.864685011011856 0
2.710891791969123 9.458740044047422 0
3.377558458635782 9.458740044047422 0
36.984487300467 9.855687074179452 0
36.60461586853469 9.422748296717806 0
37.27128253520135 9.422748296717806 0
20.99999999997116 0.1129980387044879 0
21.333333333305 0.4519921548179516 0
20.66666666663732 0.4519921548179516 0
18.98719757961644 7.785300431774233 0
18.48143210605372 7.754801136366502 0
18.68305795422033 7.297099789206588 0
7.976639791447254 5.040814614786883 0
8.323166339050692 5.524710454285156 0
7.620133400250599 5.450687327814477 0
2.408586620548141 7.418116077257365 0
1.826349757839575 7.35268752461781 0
2.283054216345881 6.921537767864433 0
37.59141337945297 7.418116077258063 0
37.7169457836549 6.92153776786443 0
38.17365024216138 7.352687524618027 0
32.08889850818098 5.222930923570677 0
32.42170025311496 5.644989581908558 0
31.7432268082126 5.583306053815035 0
2.051719160113974 9.046244354445713 0
2.418221337424162 8.64029938748128 0
2.471057511666217 9.254129879905888 0
37.94382442167929 9.037246417613853 0
37.51111681550442 9.218138132576406 0
37.56395298974697 8.604307640152207 0
10.14392510070009 9.210960849005644 0
9.670468658201584 9.280184374205874 0
9.851515007121373 8.792916178569214 0
14.13267392986406 7.94974607631413 0
14.70337232478906 7.980812175318699 0
14.33711707295759 8.384094724408962 0
13.88695546263078 9.16430024157539 0
14.27568745614927 8.687733265724276 0
14.45765385755577 9.195366340579959 0
20.08951988496142 9.167445036371491 0
19.53060621729297 9.19115394333315 0
19.69610088180353 8.686879183763715 0
21.13606870360126 5.771054839142775 0
21.6042747992975 5.64646520430627 0
21.44061357334998 6.169268511345328 0
4.177514833076402 9.198484966413522 0
3.669173096573484 9.292190032897837 0
3.877350343719931 8.792539999449088 0
35.80894278983563 9.181176213237805 0
36.09573802456998 8.74823743577616 0
36.31072974087684 9.254120581482395 0
19.83379567830639 7.916422103347905 0
19.63216983013978 8.374123450507819 0
19.27488201063795 7.940131010309561 0
20.45605621438237 1.940112927506692 0
20.40034323880719 1.467964448505058 0
20.91972702914914 1.7199134721336 0
19.93732780250368 0.8585894673532288 0
20.40099861727045 0.6383900119801368 0
20.27066113583752 1.197583583466692 0
21.4222370117399 6.967559463774498 0
21.51215565038464 6.468394667503259 0
21.89044310743614 6.842969828937993 0
$EndNodes
$Elements
5 2408 1 2408
1 1 1 20
1 1 3 
2 3 4 
3 4 5 
4 5 6 
5 6 7 
6 7 8 
7 8 9 
8 9 10 
9 10 11 
10 11 12 
11 12 13 
12 13 14 
13 14 15 
14 15 16 
15 16 17 
16 17 18 
17 18 19 
18 19 20 
19 20 21 
20 21 2 
1 2 1 5
21 2 23 
22 23 24 
23 24 25 
24 25 26 
25 26 22 
1 3 1 20
26 22 28 
27 28 29 
28 29 30 
29 30 31 
30 31 32 
31 32 33 
32 33 34 
33 34 35 
34 35 36 
35 36 37 
36 37 38 
37 38 39 
38 39 40 
39 40 41 
40 41 42 
41 42 43 
42 43 44 
43 44 45 
44 45 46 
45 46 27 
1 4 1 5
46 27 47 
47 47 48 
48 48 49 
49 49 50 
50 50 1 
2 1 2 2358
51 5 6 420 
52 6 158 420 
53 158 5 420 
54 6 73 421 
55 73 158 421 
56 158 6 421 
57 73 5 422 
58 5 158 422 
59 158 73 422 
60 8 9 423 
61 9 159 423 
62 159 8 423 
63 9 74 424 
64 74 159 424 
65 159 9 424 
66 74 8 425 
67 8 159 425 
68 159 74 425 
69 33 34 426 
70 34 160 426 
71 160 33 426 
72 34 75 427 
73 75 160 427 
74 160 34 427 
75 75 33 428 
76 33 160 428 
77 160 75 428 
78 15 16 429 
79 16 161 429 
80 161 15 429 
81 16 76 430 
82 76 161 430 
83 161 16 430 
84 76 15 431 
85 15 161 431 
86 161 76 431 
87 18 19 432 
88 19 162 432 
89 162 18 432 
90 19 77 433 
91 77 162 433 
92 162 19 433 
93 77 18 434 
94 18 162 434 
95 162 77 434 
96 79 62 435 
97 62 163 435 
98 163 79 435 
99 62 98 436 
100 98 163 436 
101 163 62 436 
102 98 79 437 
103 79 163 437 
104 163 98 437 
105 79 98 438 
106 98 164 438 
107 164 79 438 
108 98 142 439 
109 142 164 439 
110 164 98 439 
111 142 79 440 
112 79 164 440 
113 164 142 440 
114 66 72 441 
115 72 165 441 
116 165 66 441 
117 72 86 442 
118 86 165 442 
119 165 72 442 
120 86 66 443 
121 66 165 443 
122 165 86 443 
123 71 65 444 
124 65 166 444 
125 166 71 444 
126 65 85 445 
127 85 166 445 
128 166 65 445 
129 85 71 446 
130 71 166 446 
131 166 85 446 
132 51 71 447 
133 71 167 447 
134 167 51 447 
135 71 85 448 
136 85 167 448 
137 167 71 448 
138 85 51 449 
139 51 167 449 
140 167 85 449 
141 72 53 450 
142 53 168 450 
143 168 72 450 
144 53 86 451 
145 86 168 451 
146 168 53 451 
147 86 72 452 
148 72 168 452 
149 168 86 452 
150 94 11 453 
151 11 169 453 
152 169 94 453 
153 11 121 454 
154 121 169 454 
155 169 11 454 
156 121 94 455 
157 94 169 455 
158 169 121 455 
159 5 73 456 
160 73 170 456 
161 170 5 456 
162 73 88 457 
163 88 170 457 
164 170 73 457 
165 88 5 458 
166 5 170 458 
167 170 88 458 
168 77 19 459 
169 19 171 459 
170 171 77 459 
171 19 87 460 
172 87 171 460 
173 171 19 460 
174 87 77 461 
175 77 171 461 
176 171 87 461 
177 53 72 462 
178 72 172 462 
179 172 53 462 
180 72 141 463 
181 141 172 463 
182 172 72 463 
183 141 53 464 
184 53 172 464 
185 172 141 464 
186 71 51 465 
187 51 173 465 
188 173 71 465 
189 51 137 466 
190 137 173 466 
191 173 51 466 
192 137 71 467 
193 71 173 467 
194 173 137 467 
195 72 66 468 
196 66 174 468 
197 174 72 468 
198 66 116 469 
199 116 174 469 
200 174 66 469 
201 116 72 470 
202 72 174 470 
203 174 116 470 
204 65 71 471 
205 71 175 471 
206 175 65 471 
207 71 115 472 
208 115 175 472 
209 175 71 472 
210 115 65 473 
211 65 175 473 
212 175 115 473 
213 98 52 474 
214 52 176 474 
215 176 98 474 
216 52 142 475 
217 142 176 475 
218 176 52 475 
219 142 98 476 
220 98 176 476 
221 176 142 476 
222 74 9 477 
223 9 177 477 
224 177 74 477 
225 9 114 478 
226 114 177 478 
227 177 9 478 
228 114 74 479 
229 74 177 479 
230 177 114 479 
231 116 30 480 
232 30 178 480 
233 178 116 480 
234 30 135 481 
235 135 178 481 
236 178 30 481 
237 135 116 482 
238 116 178 482 
239 178 135 482 
240 76 16 483 
241 16 179 483 
242 179 76 483 
243 16 95 484 
244 95 179 484 
245 179 16 484 
246 95 76 485 
247 76 179 485 
248 179 95 485 
249 73 6 486 
250 6 180 486 
251 180 73 486 
252 6 100 487 
253 100 180 487 
254 180 6 487 
255 100 73 488 
256 73 180 488 
257 180 100 488 
258 8 74 489 
259 74 181 489 
260 181 8 489 
261 74 99 490 
262 99 181 490 
263 181 74 490 
264 99 8 491 
265 8 181 491 
266 181 99 491 
267 33 75 492 
268 75 182 492 
269 182 33 492 
270 75 101 493 
271 101 182 493 
272 182 75 493 
273 101 33 494 
274 33 182 494 
275 182 101 494 
276 75 34 495 
277 34 183 495 
278 183 75 495 
279 34 102 496 
280 102 183 496 
281 183 34 496 
282 102 75 497 
283 75 183 497 
284 183 102 497 
285 46 27 498 
286 27 184 498 
287 184 46 498 
288 27 112 499 
289 112 184 499 
290 184 27 499 
291 112 46 500 
292 46 184 500 
293 184 112 500 
294 27 47 501 
295 47 185 501 
296 185 27 501 
297 47 112 502 
298 112 185 502 
299 185 47 502 
300 112 27 503 
301 27 185 503 
302 185 112 503 
303 22 28 504 
304 28 186 504 
305 186 22 504 
306 28 113 505 
307 113 186 505 
308 186 28 505 
309 113 22 506 
310 22 186 506 
311 186 113 506 
312 26 22 507 
313 22 187 507 
314 187 26 507 
315 22 113 508 
316 113 187 508 
317 187 22 508 
318 113 26 509 
319 26 187 509 
320 187 113 509 
321 68 94 510 
322 94 188 510 
323 188 68 510 
324 94 121 511 
325 121 188 511 
326 188 94 511 
327 121 68 512 
328 68 188 512 
329 188 121 512 
330 54 76 513 
331 76 189 513 
332 189 54 513 
333 76 124 514 
334 124 189 514 
335 189 76 514 
336 124 54 515 
337 54 189 515 
338 189 124 515 
339 76 54 516 
340 54 190 516 
341 190 76 516 
342 54 127 517 
343 127 190 517 
344 190 54 517 
345 127 76 518 
346 76 190 518 
347 190 127 518 
348 73 51 519 
349 51 191 519 
350 191 73 519 
351 51 109 520 
352 109 191 520 
353 191 51 520 
354 109 73 521 
355 73 191 521 
356 191 109 521 
357 15 76 522 
358 76 192 522 
359 192 15 522 
360 76 108 523 
361 108 192 523 
362 192 76 523 
363 108 15 524 
364 15 192 524 
365 192 108 524 
366 18 77 525 
367 77 193 525 
368 193 18 525 
369 77 107 526 
370 107 193 526 
371 193 77 526 
372 107 18 527 
373 18 193 527 
374 193 107 527 
375 51 73 528 
376 73 194 528 
377 194 51 528 
378 73 122 529 
379 122 194 529 
380 194 73 529 
381 122 51 530 
382 51 194 530 
383 194 122 530 
384 54 75 531 
385 75 195 531 
386 195 54 531 
387 75 123 532 
388 123 195 532 
389 195 75 532 
390 123 54 533 
391 54 195 533 
392 195 123 533 
393 75 54 534 
394 54 196 534 
395 196 75 534 
396 54 119 535 
397 119 196 535 
398 196 54 535 
399 119 75 536 
400 75 196 536 
401 196 119 536 
402 110 53 537 
403 53 197 537 
404 197 110 537 
405 53 126 538 
406 126 197 538 
407 197 53 538 
408 126 110 539 
409 110 197 539 
410 197 126 539 
411 77 110 540 
412 110 198 540 
413 198 77 540 
414 110 126 541 
415 126 198 541 
416 198 110 541 
417 126 77 542 
418 77 198 542 
419 198 126 542 
420 44 115 543 
421 115 199 543 
422 199 44 543 
423 115 144 544 
424 144 199 544 
425 199 115 544 
426 144 44 545 
427 44 199 545 
428 199 144 545 
429 72 81 546 
430 81 200 546 
431 200 72 546 
432 81 141 547 
433 141 200 547 
434 200 81 547 
435 141 72 548 
436 72 200 548 
437 200 141 548 
438 79 41 549 
439 41 201 549 
440 201 79 549 
441 41 117 550 
442 117 201 550 
443 201 41 550 
444 117 79 551 
445 79 201 551 
446 201 117 551 
447 95 17 552 
448 17 202 552 
449 202 95 552 
450 17 107 553 
451 107 202 553 
452 202 17 553 
453 107 95 554 
454 95 202 554 
455 202 107 554 
456 72 116 555 
457 116 203 555 
458 203 72 555 
459 116 135 556 
460 135 203 556 
461 203 116 556 
462 135 72 557 
463 72 203 557 
464 203 135 557 
465 129 55 558 
466 55 204 558 
467 204 129 558 
468 55 133 559 
469 133 204 559 
470 204 55 559 
471 133 129 560 
472 129 204 560 
473 204 133 560 
474 44 45 561 
475 45 205 561 
476 205 44 561 
477 45 115 562 
478 115 205 562 
479 205 45 562 
480 115 44 563 
481 44 205 563 
482 205 115 563 
483 29 30 564 
484 30 206 564 
485 206 29 564 
486 30 116 565 
487 116 206 565 
488 206 30 565 
489 116 29 566 
490 29 206 566 
491 206 116 566 
492 82 71 567 
493 71 207 567 
494 207 82 567 
495 71 137 568 
496 137 207 568 
497 207 71 568 
498 137 82 569 
499 82 207 569 
500 207 137 569 
501 74 114 570 
502 114 208 570 
503 208 74 570 
504 114 125 571 
505 125 208 571 
506 208 114 571 
507 125 74 572 
508 74 208 572 
509 208 125 572 
510 7 99 573 
511 99 209 573 
512 209 7 573 
513 99 100 574 
514 100 209 574 
515 209 99 574 
516 100 7 575 
517 7 209 575 
518 209 100 575 
519 36 80 576 
520 80 210 576 
521 210 36 576 
522 80 118 577 
523 118 210 577 
524 210 80 577 
525 118 36 578 
526 36 210 578 
527 210 118 578 
528 41 79 579 
529 79 211 579 
530 211 41 579 
531 79 130 580 
532 130 211 580 
533 211 79 580 
534 130 41 581 
535 41 211 581 
536 211 130 581 
537 24 25 582 
538 25 212 582 
539 212 24 582 
540 25 84 583 
541 84 212 583 
542 212 25 583 
543 84 24 584 
544 24 212 584 
545 212 84 584 
546 48 49 585 
547 49 213 585 
548 213 48 585 
549 49 83 586 
550 83 213 586 
551 213 49 586 
552 83 48 587 
553 48 213 587 
554 213 83 587 
555 93 67 588 
556 67 214 588 
557 214 93 588 
558 67 111 589 
559 111 214 589 
560 214 67 589 
561 111 93 590 
562 93 214 590 
563 214 111 590 
564 56 93 591 
565 93 215 591 
566 215 56 591 
567 93 111 592 
568 111 215 592 
569 215 93 592 
570 111 56 593 
571 56 215 593 
572 215 111 593 
573 78 129 594 
574 129 216 594 
575 216 78 594 
576 129 133 595 
577 133 216 595 
578 216 129 595 
579 133 78 596 
580 78 216 596 
581 216 133 596 
582 4 5 597 
583 5 217 597 
584 217 4 597 
585 5 88 598 
586 88 217 598 
587 217 5 598 
588 88 4 599 
589 4 217 599 
590 217 88 599 
591 19 20 600 
592 20 218 600 
593 218 19 600 
594 20 87 601 
595 87 218 601 
596 218 20 601 
597 87 19 602 
598 19 218 602 
599 218 87 602 
600 62 79 603 
601 79 219 603 
602 219 62 603 
603 79 117 604 
604 117 219 604 
605 219 79 604 
606 117 62 605 
607 62 219 605 
608 219 117 605 
609 67 94 606 
610 94 220 606 
611 220 67 606 
612 94 111 607 
613 111 220 607 
614 220 94 607 
615 111 67 608 
616 67 220 608 
617 220 111 608 
618 94 68 609 
619 68 221 609 
620 221 94 609 
621 68 111 610 
622 111 221 610 
623 221 68 610 
624 111 94 611 
625 94 221 611 
626 221 111 611 
627 80 36 612 
628 36 222 612 
629 222 80 612 
630 36 134 613 
631 134 222 613 
632 222 36 613 
633 134 80 614 
634 80 222 614 
635 222 134 614 
636 70 92 615 
637 92 223 615 
638 223 70 615 
639 92 143 616 
640 143 223 616 
641 223 92 616 
642 143 70 617 
643 70 223 617 
644 223 143 617 
645 103 14 618 
646 14 224 618 
647 224 103 618 
648 14 108 619 
649 108 224 619 
650 224 14 619 
651 108 103 620 
652 103 224 620 
653 224 108 620 
654 64 95 621 
655 95 225 621 
656 225 64 621 
657 95 107 622 
658 107 225 622 
659 225 95 622 
660 107 64 623 
661 64 225 623 
662 225 107 623 
663 114 67 624 
664 67 226 624 
665 226 114 624 
666 67 125 625 
667 125 226 625 
668 226 67 625 
669 125 114 626 
670 114 226 626 
671 226 125 626 
672 115 71 627 
673 71 227 627 
674 227 115 627 
675 71 144 628 
676 144 227 628 
677 227 71 628 
678 144 115 629 
679 115 227 629 
680 227 144 629 
681 80 61 630 
682 61 228 630 
683 228 80 630 
684 61 118 631 
685 118 228 631 
686 228 61 631 
687 118 80 632 
688 80 228 632 
689 228 118 632 
690 38 39 633 
691 39 229 633 
692 229 38 633 
693 39 91 634 
694 91 229 634 
695 229 39 634 
696 91 38 635 
697 38 229 635 
698 229 91 635 
699 99 59 636 
700 59 230 636 
701 230 99 636 
702 59 100 637 
703 100 230 637 
704 230 59 637 
705 100 99 638 
706 99 230 638 
707 230 100 638 
708 61 80 639 
709 80 231 639 
710 231 61 639 
711 80 148 640 
712 148 231 640 
713 231 80 640 
714 148 61 641 
715 61 231 641 
716 231 148 641 
717 11 12 642 
718 12 232 642 
719 232 11 642 
720 12 121 643 
721 121 232 643 
722 232 12 643 
723 121 11 644 
724 11 232 644 
725 232 121 644 
726 81 31 645 
727 31 233 645 
728 233 81 645 
729 31 128 646 
730 128 233 646 
731 233 31 646 
732 128 81 647 
733 81 233 647 
734 233 128 647 
735 92 55 648 
736 55 234 648 
737 234 92 648 
738 55 143 649 
739 143 234 649 
740 234 55 649 
741 143 92 650 
742 92 234 650 
743 234 143 650 
744 93 69 651 
745 69 235 651 
746 235 93 651 
747 69 142 652 
748 142 235 652 
749 235 69 652 
750 142 93 653 
751 93 235 653 
752 235 142 653 
753 63 103 654 
754 103 236 654 
755 236 63 654 
756 103 108 655 
757 108 236 655 
758 236 103 655 
759 108 63 656 
760 63 236 656 
761 236 108 656 
762 52 120 657 
763 120 237 657 
764 237 52 657 
765 120 125 658 
766 125 237 658 
767 237 120 658 
768 125 52 659 
769 52 237 659 
770 237 125 659 
771 82 62 660 
772 62 238 660 
773 238 82 660 
774 62 145 661 
775 145 238 661 
776 238 62 661 
777 145 82 662 
778 82 238 662 
779 238 145 662 
780 92 70 663 
781 70 239 663 
782 239 92 663 
783 70 152 664 
784 152 239 664 
785 239 70 664 
786 152 92 665 
787 92 239 665 
788 239 152 665 
789 16 17 666 
790 17 240 666 
791 240 16 666 
792 17 95 667 
793 95 240 667 
794 240 17 667 
795 95 16 668 
796 16 240 668 
797 240 95 668 
798 81 60 669 
799 60 241 669 
800 241 81 669 
801 60 141 670 
802 141 241 670 
803 241 60 670 
804 141 81 671 
805 81 241 671 
806 241 141 671 
807 10 11 672 
808 11 242 672 
809 242 10 672 
810 11 94 673 
811 94 242 673 
812 242 11 673 
813 94 10 674 
814 10 242 674 
815 242 94 674 
816 52 93 675 
817 93 243 675 
818 243 52 675 
819 93 142 676 
820 142 243 676 
821 243 93 676 
822 142 52 677 
823 52 243 677 
824 243 142 677 
825 6 7 678 
826 7 244 678 
827 244 6 678 
828 7 100 679 
829 100 244 679 
830 244 7 679 
831 100 6 680 
832 6 244 680 
833 244 100 680 
834 7 8 681 
835 8 245 681 
836 245 7 681 
837 8 99 682 
838 99 245 682 
839 245 8 682 
840 99 7 683 
841 7 245 683 
842 245 99 683 
843 32 33 684 
844 33 246 684 
845 246 32 684 
846 33 101 685 
847 101 246 685 
848 246 33 685 
849 101 32 686 
850 32 246 686 
851 246 101 686 
852 34 35 687 
853 35 247 687 
854 247 34 687 
855 35 102 688 
856 102 247 688 
857 247 35 688 
858 102 34 689 
859 34 247 689 
860 247 102 689 
861 41 42 690 
862 42 248 690 
863 248 41 690 
864 42 117 691 
865 117 248 691 
866 248 42 691 
867 117 41 692 
868 41 248 692 
869 248 117 692 
870 57 86 693 
871 86 249 693 
872 249 57 693 
873 86 110 694 
874 110 249 694 
875 249 86 694 
876 110 57 695 
877 57 249 695 
878 249 110 695 
879 85 58 696 
880 58 250 696 
881 250 85 696 
882 58 109 697 
883 109 250 697 
884 250 58 697 
885 109 85 698 
886 85 250 698 
887 250 109 698 
888 96 55 699 
889 55 251 699 
890 251 96 699 
891 55 129 700 
892 129 251 700 
893 251 55 700 
894 129 96 701 
895 96 251 701 
896 251 129 701 
897 17 18 702 
898 18 252 702 
899 252 17 702 
900 18 107 703 
901 107 252 703 
902 252 18 703 
903 107 17 704 
904 17 252 704 
905 252 107 704 
906 14 15 705 
907 15 253 705 
908 253 14 705 
909 15 108 706 
910 108 253 706 
911 253 15 706 
912 108 14 707 
913 14 253 707 
914 253 108 707 
915 120 74 708 
916 74 254 708 
917 254 120 708 
918 74 125 709 
919 125 254 709 
920 254 74 709 
921 125 120 710 
922 120 254 710 
923 254 125 710 
924 87 57 711 
925 57 255 711 
926 255 87 711 
927 57 110 712 
928 110 255 712 
929 255 57 712 
930 110 87 713 
931 87 255 713 
932 255 110 713 
933 58 88 714 
934 88 256 714 
935 256 58 714 
936 88 109 715 
937 109 256 715 
938 256 88 715 
939 109 58 716 
940 58 256 716 
941 256 109 716 
942 60 81 717 
943 81 257 717 
944 257 60 717 
945 81 128 718 
946 128 257 718 
947 257 81 718 
948 128 60 719 
949 60 257 719 
950 257 128 719 
951 84 57 720 
952 57 258 720 
953 258 84 720 
954 57 140 721 
955 140 258 721 
956 258 57 721 
957 140 84 722 
958 84 258 722 
959 258 140 722 
960 58 83 723 
961 83 259 723 
962 259 58 723 
963 83 139 724 
964 139 259 724 
965 259 83 724 
966 139 58 725 
967 58 259 725 
968 259 139 725 
969 88 58 726 
970 58 260 726 
971 260 88 726 
972 58 147 727 
973 147 260 727 
974 260 58 727 
975 147 88 728 
976 88 260 728 
977 260 147 728 
978 57 87 729 
979 87 261 729 
980 261 57 729 
981 87 146 730 
982 146 261 730 
983 261 87 730 
984 146 57 731 
985 57 261 731 
986 261 146 731 
987 61 96 732 
988 96 262 732 
989 262 61 732 
990 96 105 733 
991 105 262 733 
992 262 96 733 
993 105 61 734 
994 61 262 734 
995 262 105 734 
996 60 97 735 
997 97 263 735 
998 263 60 735 
999 97 106 736 
1000 106 263 736 
1001 263 97 736 
1002 106 60 737 
1003 60 263 737 
1004 263 106 737 
1005 96 63 738 
1006 63 264 738 
1007 264 96 738 
1008 63 105 739 
1009 105 264 739 
1010 264 63 739 
1011 105 96 740 
1012 96 264 740 
1013 264 105 740 
1014 97 64 741 
1015 64 265 741 
1016 265 97 741 
1017 64 106 742 
1018 106 265 742 
1019 265 64 742 
1020 106 97 743 
1021 97 265 743 
1022 265 106 743 
1023 59 98 744 
1024 98 266 744 
1025 266 59 744 
1026 98 104 745 
1027 104 266 745 
1028 266 98 745 
1029 104 59 746 
1030 59 266 746 
1031 266 104 746 
1032 98 62 747 
1033 62 267 747 
1034 267 98 747 
1035 62 104 748 
1036 104 267 748 
1037 267 62 748 
1038 104 98 749 
1039 98 267 749 
1040 267 104 749 
1041 58 90 750 
1042 90 268 750 
1043 268 58 750 
1044 90 147 751 
1045 147 268 751 
1046 268 90 751 
1047 147 58 752 
1048 58 268 752 
1049 268 147 752 
1050 89 57 753 
1051 57 269 753 
1052 269 89 753 
1053 57 146 754 
1054 146 269 754 
1055 269 57 754 
1056 146 89 755 
1057 89 269 755 
1058 269 146 755 
1059 51 85 756 
1060 85 270 756 
1061 270 51 756 
1062 85 109 757 
1063 109 270 757 
1064 270 85 757 
1065 109 51 758 
1066 51 270 758 
1067 270 109 758 
1068 86 53 759 
1069 53 271 759 
1070 271 86 759 
1071 53 110 760 
1072 110 271 760 
1073 271 53 760 
1074 110 86 761 
1075 86 271 761 
1076 271 110 761 
1077 31 81 762 
1078 81 272 762 
1079 272 31 762 
1080 81 135 763 
1081 135 272 763 
1082 272 81 763 
1083 135 31 764 
1084 31 272 764 
1085 272 135 764 
1086 66 86 765 
1087 86 273 765 
1088 273 66 765 
1089 86 149 766 
1090 149 273 766 
1091 273 86 766 
1092 149 66 767 
1093 66 273 767 
1094 273 149 767 
1095 85 65 768 
1096 65 274 768 
1097 274 85 768 
1098 65 150 769 
1099 150 274 769 
1100 274 65 769 
1101 150 85 770 
1102 85 274 770 
1103 274 150 770 
1104 10 94 771 
1105 94 275 771 
1106 275 10 771 
1107 94 114 772 
1108 114 275 772 
1109 275 94 772 
1110 114 10 773 
1111 10 275 773 
1112 275 114 773 
1113 92 56 774 
1114 56 276 774 
1115 276 92 774 
1116 56 111 775 
1117 111 276 775 
1118 276 56 775 
1119 111 92 776 
1120 92 276 776 
1121 276 111 776 
1122 68 92 777 
1123 92 277 777 
1124 277 68 777 
1125 92 111 778 
1126 111 277 778 
1127 277 92 778 
1128 111 68 779 
1129 68 277 779 
1130 277 111 779 
1131 89 23 780 
1132 23 278 780 
1133 278 89 780 
1134 23 140 781 
1135 140 278 781 
1136 278 23 781 
1137 140 89 782 
1138 89 278 782 
1139 278 140 782 
1140 50 90 783 
1141 90 279 783 
1142 279 50 783 
1143 90 139 784 
1144 139 279 784 
1145 279 90 784 
1146 139 50 785 
1147 50 279 785 
1148 279 139 785 
1149 13 14 786 
1150 14 280 786 
1151 280 13 786 
1152 14 103 787 
1153 103 280 787 
1154 280 14 787 
1155 103 13 788 
1156 13 280 788 
1157 280 103 788 
1158 57 89 789 
1159 89 281 789 
1160 281 57 789 
1161 89 140 790 
1162 140 281 790 
1163 281 89 790 
1164 140 57 791 
1165 57 281 791 
1166 281 140 791 
1167 90 58 792 
1168 58 282 792 
1169 282 90 792 
1170 58 139 793 
1171 139 282 793 
1172 282 58 793 
1173 139 90 794 
1174 90 282 794 
1175 282 139 794 
1176 35 36 795 
1177 36 283 795 
1178 283 35 795 
1179 36 118 796 
1180 118 283 796 
1181 283 36 796 
1182 118 35 797 
1183 35 283 797 
1184 283 118 797 
1185 81 72 798 
1186 72 284 798 
1187 284 81 798 
1188 72 135 799 
1189 135 284 799 
1190 284 72 799 
1191 135 81 800 
1192 81 284 800 
1193 284 135 800 
1194 88 73 801 
1195 73 285 801 
1196 285 88 801 
1197 73 109 802 
1198 109 285 802 
1199 285 73 802 
1200 109 88 803 
1201 88 285 803 
1202 285 109 803 
1203 77 87 804 
1204 87 286 804 
1205 286 77 804 
1206 87 110 805 
1207 110 286 805 
1208 286 87 805 
1209 110 77 806 
1210 77 286 806 
1211 286 110 806 
1212 91 39 807 
1213 39 287 807 
1214 287 91 807 
1215 39 136 808 
1216 136 287 808 
1217 287 39 808 
1218 136 91 809 
1219 91 287 809 
1220 287 136 809 
1221 69 93 810 
1222 93 288 810 
1223 288 69 810 
1224 93 151 811 
1225 151 288 811 
1226 288 93 811 
1227 151 69 812 
1228 69 288 812 
1229 288 151 812 
1230 94 67 813 
1231 67 289 813 
1232 289 94 813 
1233 67 114 814 
1234 114 289 814 
1235 289 67 814 
1236 114 94 815 
1237 94 289 815 
1238 289 114 815 
1239 31 32 816 
1240 32 290 816 
1241 290 31 816 
1242 32 128 817 
1243 128 290 817 
1244 290 32 817 
1245 128 31 818 
1246 31 290 818 
1247 290 128 818 
1248 56 92 819 
1249 92 291 819 
1250 291 56 819 
1251 92 152 820 
1252 152 291 820 
1253 291 92 820 
1254 152 56 821 
1255 56 291 821 
1256 291 152 821 
1257 38 91 822 
1258 91 292 822 
1259 292 38 822 
1260 91 138 823 
1261 138 292 823 
1262 292 91 823 
1263 138 38 824 
1264 38 292 824 
1265 292 138 824 
1266 82 43 825 
1267 43 293 825 
1268 293 82 825 
1269 43 144 826 
1270 144 293 826 
1271 293 43 826 
1272 144 82 827 
1273 82 293 827 
1274 293 144 827 
1275 62 82 828 
1276 82 294 828 
1277 294 62 828 
1278 82 137 829 
1279 137 294 829 
1280 294 82 829 
1281 137 62 830 
1282 62 294 830 
1283 294 137 830 
1284 97 54 831 
1285 54 295 831 
1286 295 97 831 
1287 54 124 832 
1288 124 295 832 
1289 295 54 832 
1290 124 97 833 
1291 97 295 833 
1292 295 124 833 
1293 21 89 834 
1294 89 296 834 
1295 296 21 834 
1296 89 146 835 
1297 146 296 835 
1298 296 89 835 
1299 146 21 836 
1300 21 296 836 
1301 296 146 836 
1302 90 3 837 
1303 3 297 837 
1304 297 90 837 
1305 3 147 838 
1306 147 297 838 
1307 297 3 838 
1308 147 90 839 
1309 90 297 839 
1310 297 147 839 
1311 36 37 840 
1312 37 298 840 
1313 298 36 840 
1314 37 134 841 
1315 134 298 841 
1316 298 37 841 
1317 134 36 842 
1318 36 298 842 
1319 298 134 842 
1320 23 24 843 
1321 24 299 843 
1322 299 23 843 
1323 24 140 844 
1324 140 299 844 
1325 299 24 844 
1326 140 23 845 
1327 23 299 845 
1328 299 140 845 
1329 49 50 846 
1330 50 300 846 
1331 300 49 846 
1332 50 139 847 
1333 139 300 847 
1334 300 50 847 
1335 139 49 848 
1336 49 300 848 
1337 300 139 848 
1338 40 41 849 
1339 41 301 849 
1340 301 40 849 
1341 41 130 850 
1342 130 301 850 
1343 301 41 850 
1344 130 40 851 
1345 40 301 851 
1346 301 130 851 
1347 93 56 852 
1348 56 302 852 
1349 302 93 852 
1350 56 151 853 
1351 151 302 853 
1352 302 56 853 
1353 151 93 854 
1354 93 302 854 
1355 302 151 854 
1356 62 117 855 
1357 117 303 855 
1358 303 62 855 
1359 117 145 856 
1360 145 303 856 
1361 303 117 856 
1362 145 62 857 
1363 62 303 857 
1364 303 145 857 
1365 47 48 858 
1366 48 304 858 
1367 304 47 858 
1368 48 131 859 
1369 131 304 859 
1370 304 48 859 
1371 131 47 860 
1372 47 304 860 
1373 304 131 860 
1374 25 26 861 
1375 26 305 861 
1376 305 25 861 
1377 26 132 862 
1378 132 305 862 
1379 305 26 862 
1380 132 25 863 
1381 25 305 863 
1382 305 132 863 
1383 71 82 864 
1384 82 306 864 
1385 306 71 864 
1386 82 144 865 
1387 144 306 865 
1388 306 82 865 
1389 144 71 866 
1390 71 306 866 
1391 306 144 866 
1392 24 84 867 
1393 84 307 867 
1394 307 24 867 
1395 84 140 868 
1396 140 307 868 
1397 307 84 868 
1398 140 24 869 
1399 24 307 869 
1400 307 140 869 
1401 83 49 870 
1402 49 308 870 
1403 308 83 870 
1404 49 139 871 
1405 139 308 871 
1406 308 49 871 
1407 139 83 872 
1408 83 308 872 
1409 308 139 872 
1410 43 82 873 
1411 82 309 873 
1412 309 43 873 
1413 82 145 874 
1414 145 309 874 
1415 309 82 874 
1416 145 43 875 
1417 43 309 875 
1418 309 145 875 
1419 91 136 876 
1420 136 310 876 
1421 310 91 876 
1422 136 151 877 
1423 151 310 877 
1424 310 136 877 
1425 151 91 878 
1426 91 310 878 
1427 310 151 878 
1428 104 51 879 
1429 51 311 879 
1430 311 104 879 
1431 51 122 880 
1432 122 311 880 
1433 311 51 880 
1434 122 104 881 
1435 104 311 881 
1436 311 122 881 
1437 105 54 882 
1438 54 312 882 
1439 312 105 882 
1440 54 123 883 
1441 123 312 883 
1442 312 54 883 
1443 123 105 884 
1444 105 312 884 
1445 312 123 884 
1446 83 65 885 
1447 65 313 885 
1448 313 83 885 
1449 65 131 886 
1450 131 313 886 
1451 313 65 886 
1452 131 83 887 
1453 83 313 887 
1454 313 131 887 
1455 66 84 888 
1456 84 314 888 
1457 314 66 888 
1458 84 132 889 
1459 132 314 889 
1460 314 84 889 
1461 132 66 890 
1462 66 314 890 
1463 314 132 890 
1464 83 58 891 
1465 58 315 891 
1466 315 83 891 
1467 58 150 892 
1468 150 315 892 
1469 315 58 892 
1470 150 83 893 
1471 83 315 893 
1472 315 150 893 
1473 57 84 894 
1474 84 316 894 
1475 316 57 894 
1476 84 149 895 
1477 149 316 895 
1478 316 84 895 
1479 149 57 896 
1480 57 316 896 
1481 316 149 896 
1482 92 68 897 
1483 68 317 897 
1484 317 92 897 
1485 68 133 898 
1486 133 317 898 
1487 317 68 898 
1488 133 92 899 
1489 92 317 899 
1490 317 133 899 
1491 55 92 900 
1492 92 318 900 
1493 318 55 900 
1494 92 133 901 
1495 133 318 901 
1496 318 92 901 
1497 133 55 902 
1498 55 318 902 
1499 318 133 902 
1500 13 103 903 
1501 103 319 903 
1502 319 13 903 
1503 103 153 904 
1504 153 319 904 
1505 319 103 904 
1506 153 13 905 
1507 13 319 905 
1508 319 153 905 
1509 103 78 906 
1510 78 320 906 
1511 320 103 906 
1512 78 153 907 
1513 153 320 907 
1514 320 78 907 
1515 153 103 908 
1516 103 320 908 
1517 320 153 908 
1518 48 83 909 
1519 83 321 909 
1520 321 48 909 
1521 83 131 910 
1522 131 321 910 
1523 321 83 910 
1524 131 48 911 
1525 48 321 911 
1526 321 131 911 
1527 84 25 912 
1528 25 322 912 
1529 322 84 912 
1530 25 132 913 
1531 132 322 913 
1532 322 25 913 
1533 132 84 914 
1534 84 322 914 
1535 322 132 914 
1536 20 21 915 
1537 21 323 915 
1538 323 20 915 
1539 21 146 916 
1540 146 323 916 
1541 323 21 916 
1542 146 20 917 
1543 20 323 917 
1544 323 146 917 
1545 3 4 918 
1546 4 324 918 
1547 324 3 918 
1548 4 147 919 
1549 147 324 919 
1550 324 4 919 
1551 147 3 920 
1552 3 324 920 
1553 324 147 920 
1554 65 83 921 
1555 83 325 921 
1556 325 65 921 
1557 83 150 922 
1558 150 325 922 
1559 325 83 922 
1560 150 65 923 
1561 65 325 923 
1562 325 150 923 
1563 84 66 924 
1564 66 326 924 
1565 326 84 924 
1566 66 149 925 
1567 149 326 925 
1568 326 66 925 
1569 149 84 926 
1570 84 326 926 
1571 326 149 926 
1572 52 98 927 
1573 98 327 927 
1574 327 52 927 
1575 98 120 928 
1576 120 327 928 
1577 327 98 928 
1578 120 52 929 
1579 52 327 929 
1580 327 120 929 
1581 54 97 930 
1582 97 328 930 
1583 328 54 930 
1584 97 119 931 
1585 119 328 931 
1586 328 97 931 
1587 119 54 932 
1588 54 328 932 
1589 328 119 932 
1590 102 35 933 
1591 35 329 933 
1592 329 102 933 
1593 35 118 934 
1594 118 329 934 
1595 329 35 934 
1596 118 102 935 
1597 102 329 935 
1598 329 118 935 
1599 58 85 936 
1600 85 330 936 
1601 330 58 936 
1602 85 150 937 
1603 150 330 937 
1604 330 85 937 
1605 150 58 938 
1606 58 330 938 
1607 330 150 938 
1608 86 57 939 
1609 57 331 939 
1610 331 86 939 
1611 57 149 940 
1612 149 331 940 
1613 331 57 940 
1614 149 86 941 
1615 86 331 941 
1616 331 149 941 
1617 67 93 942 
1618 93 332 942 
1619 332 67 942 
1620 93 125 943 
1621 125 332 943 
1622 332 93 943 
1623 125 67 944 
1624 67 332 944 
1625 332 125 944 
1626 93 52 945 
1627 52 333 945 
1628 333 93 945 
1629 52 125 946 
1630 125 333 946 
1631 333 52 946 
1632 125 93 947 
1633 93 333 947 
1634 333 125 947 
1635 60 106 948 
1636 106 334 948 
1637 334 60 948 
1638 106 141 949 
1639 141 334 949 
1640 334 106 949 
1641 141 60 950 
1642 60 334 950 
1643 334 141 950 
1644 138 91 951 
1645 91 335 951 
1646 335 138 951 
1647 91 152 952 
1648 152 335 952 
1649 335 91 952 
1650 152 138 953 
1651 138 335 953 
1652 335 152 953 
1653 112 47 954 
1654 47 336 954 
1655 336 112 954 
1656 47 131 955 
1657 131 336 955 
1658 336 47 955 
1659 131 112 956 
1660 112 336 956 
1661 336 131 956 
1662 26 113 957 
1663 113 337 957 
1664 337 26 957 
1665 113 132 958 
1666 132 337 958 
1667 337 113 958 
1668 132 26 959 
1669 26 337 959 
1670 337 132 959 
1671 112 65 960 
1672 65 338 960 
1673 338 112 960 
1674 65 154 961 
1675 154 338 961 
1676 338 65 961 
1677 154 112 962 
1678 112 338 962 
1679 338 154 962 
1680 66 113 963 
1681 113 339 963 
1682 339 66 963 
1683 113 155 964 
1684 155 339 964 
1685 339 113 964 
1686 155 66 965 
1687 66 339 965 
1688 339 155 965 
1689 61 102 966 
1690 102 340 966 
1691 340 61 966 
1692 102 118 967 
1693 118 340 967 
1694 340 102 967 
1695 118 61 968 
1696 61 340 968 
1697 340 118 968 
1698 9 10 969 
1699 10 341 969 
1700 341 9 969 
1701 10 114 970 
1702 114 341 970 
1703 341 10 970 
1704 114 9 971 
1705 9 341 971 
1706 341 114 971 
1707 99 74 972 
1708 74 342 972 
1709 342 99 972 
1710 74 120 973 
1711 120 342 973 
1712 342 74 973 
1713 120 99 974 
1714 99 342 974 
1715 342 120 974 
1716 59 99 975 
1717 99 343 975 
1718 343 59 975 
1719 99 120 976 
1720 120 343 976 
1721 343 99 976 
1722 120 59 977 
1723 59 343 977 
1724 343 120 977 
1725 101 75 978 
1726 75 344 978 
1727 344 101 978 
1728 75 119 979 
1729 119 344 979 
1730 344 75 979 
1731 119 101 980 
1732 101 344 980 
1733 344 119 980 
1734 60 101 981 
1735 101 345 981 
1736 345 60 981 
1737 101 119 982 
1738 119 345 982 
1739 345 101 982 
1740 119 60 983 
1741 60 345 983 
1742 345 119 983 
1743 65 115 984 
1744 115 346 984 
1745 346 65 984 
1746 115 154 985 
1747 154 346 985 
1748 346 115 985 
1749 154 65 986 
1750 65 346 986 
1751 346 154 986 
1752 116 66 987 
1753 66 347 987 
1754 347 116 987 
1755 66 155 988 
1756 155 347 988 
1757 347 66 988 
1758 155 116 989 
1759 116 347 989 
1760 347 155 989 
1761 43 44 990 
1762 44 348 990 
1763 348 43 990 
1764 44 144 991 
1765 144 348 991 
1766 348 44 991 
1767 144 43 992 
1768 43 348 992 
1769 348 144 992 
1770 101 60 993 
1771 60 349 993 
1772 349 101 993 
1773 60 128 994 
1774 128 349 994 
1775 349 60 994 
1776 128 101 995 
1777 101 349 995 
1778 349 128 995 
1779 23 89 996 
1780 89 350 996 
1781 350 23 996 
1782 89 156 997 
1783 156 350 997 
1784 350 89 997 
1785 156 23 998 
1786 23 350 998 
1787 350 156 998 
1788 89 21 999 
1789 21 351 999 
1790 351 89 999 
1791 21 156 1000 
1792 156 351 1000 
1793 351 21 1000 
1794 156 89 1001 
1795 89 351 1001 
1796 351 156 1001 
1797 3 90 1002 
1798 90 352 1002 
1799 352 3 1002 
1800 90 157 1003 
1801 157 352 1003 
1802 352 90 1003 
1803 157 3 1004 
1804 3 352 1004 
1805 352 157 1004 
1806 90 50 1005 
1807 50 353 1005 
1808 353 90 1005 
1809 50 157 1006 
1810 157 353 1006 
1811 353 50 1006 
1812 157 90 1007 
1813 90 353 1007 
1814 353 157 1007 
1815 32 101 1008 
1816 101 354 1008 
1817 354 32 1008 
1818 101 128 1009 
1819 128 354 1009 
1820 354 101 1009 
1821 128 32 1010 
1822 32 354 1010 
1823 354 128 1010 
1824 87 20 1011 
1825 20 355 1011 
1826 355 87 1011 
1827 20 146 1012 
1828 146 355 1012 
1829 355 20 1012 
1830 146 87 1013 
1831 87 355 1013 
1832 355 146 1013 
1833 4 88 1014 
1834 88 356 1014 
1835 356 4 1014 
1836 88 147 1015 
1837 147 356 1015 
1838 356 88 1015 
1839 147 4 1016 
1840 4 356 1016 
1841 356 147 1016 
1842 30 31 1017 
1843 31 357 1017 
1844 357 30 1017 
1845 31 135 1018 
1846 135 357 1018 
1847 357 31 1018 
1848 135 30 1019 
1849 30 357 1019 
1850 357 135 1019 
1851 53 106 1020 
1852 106 358 1020 
1853 358 53 1020 
1854 106 126 1021 
1855 126 358 1021 
1856 358 106 1021 
1857 126 53 1022 
1858 53 358 1022 
1859 358 126 1022 
1860 54 105 1023 
1861 105 359 1023 
1862 359 54 1023 
1863 105 127 1024 
1864 127 359 1024 
1865 359 105 1024 
1866 127 54 1025 
1867 54 359 1025 
1868 359 127 1025 
1869 95 64 1026 
1870 64 360 1026 
1871 360 95 1026 
1872 64 124 1027 
1873 124 360 1027 
1874 360 64 1027 
1875 124 95 1028 
1876 95 360 1028 
1877 360 124 1028 
1878 64 97 1029 
1879 97 361 1029 
1880 361 64 1029 
1881 97 124 1030 
1882 124 361 1030 
1883 361 97 1030 
1884 124 64 1031 
1885 64 361 1031 
1886 361 124 1031 
1887 104 62 1032 
1888 62 362 1032 
1889 362 104 1032 
1890 62 137 1033 
1891 137 362 1033 
1892 362 62 1033 
1893 137 104 1034 
1894 104 362 1034 
1895 362 137 1034 
1896 97 60 1035 
1897 60 363 1035 
1898 363 97 1035 
1899 60 119 1036 
1900 119 363 1036 
1901 363 60 1036 
1902 119 97 1037 
1903 97 363 1037 
1904 363 119 1037 
1905 98 59 1038 
1906 59 364 1038 
1907 364 98 1038 
1908 59 120 1039 
1909 120 364 1039 
1910 364 59 1039 
1911 120 98 1040 
1912 98 364 1040 
1913 364 120 1040 
1914 68 121 1041 
1915 121 365 1041 
1916 365 68 1041 
1917 121 133 1042 
1918 133 365 1042 
1919 365 121 1042 
1920 133 68 1043 
1921 68 365 1043 
1922 365 133 1043 
1923 121 78 1044 
1924 78 366 1044 
1925 366 121 1044 
1926 78 133 1045 
1927 133 366 1045 
1928 366 78 1045 
1929 133 121 1046 
1930 121 366 1046 
1931 366 133 1046 
1932 73 100 1047 
1933 100 367 1047 
1934 367 73 1047 
1935 100 122 1048 
1936 122 367 1048 
1937 367 100 1048 
1938 122 73 1049 
1939 73 367 1049 
1940 367 122 1049 
1941 100 59 1050 
1942 59 368 1050 
1943 368 100 1050 
1944 59 122 1051 
1945 122 368 1051 
1946 368 59 1051 
1947 122 100 1052 
1948 100 368 1052 
1949 368 122 1052 
1950 75 102 1053 
1951 102 369 1053 
1952 369 75 1053 
1953 102 123 1054 
1954 123 369 1054 
1955 369 102 1054 
1956 123 75 1055 
1957 75 369 1055 
1958 369 123 1055 
1959 102 61 1056 
1960 61 370 1056 
1961 370 102 1056 
1962 61 123 1057 
1963 123 370 1057 
1964 370 61 1057 
1965 123 102 1058 
1966 102 370 1058 
1967 370 123 1058 
1968 64 107 1059 
1969 107 371 1059 
1970 371 64 1059 
1971 107 126 1060 
1972 126 371 1060 
1973 371 107 1060 
1974 126 64 1061 
1975 64 371 1061 
1976 371 126 1061 
1977 107 77 1062 
1978 77 372 1062 
1979 372 107 1062 
1980 77 126 1063 
1981 126 372 1063 
1982 372 77 1063 
1983 126 107 1064 
1984 107 372 1064 
1985 372 126 1064 
1986 63 108 1065 
1987 108 373 1065 
1988 373 63 1065 
1989 108 127 1066 
1990 127 373 1066 
1991 373 108 1066 
1992 127 63 1067 
1993 63 373 1067 
1994 373 127 1067 
1995 108 76 1068 
1996 76 374 1068 
1997 374 108 1068 
1998 76 127 1069 
1999 127 374 1069 
2000 374 76 1069 
2001 127 108 1070 
2002 108 374 1070 
2003 374 127 1070 
2004 96 61 1071 
2005 61 375 1071 
2006 375 96 1071 
2007 61 148 1072 
2008 148 375 1072 
2009 375 61 1072 
2010 148 96 1073 
2011 96 375 1073 
2012 375 148 1073 
2013 76 95 1074 
2014 95 376 1074 
2015 376 76 1074 
2016 95 124 1075 
2017 124 376 1075 
2018 376 95 1075 
2019 124 76 1076 
2020 76 376 1076 
2021 376 124 1076 
2022 103 63 1077 
2023 63 377 1077 
2024 377 103 1077 
2025 63 129 1078 
2026 129 377 1078 
2027 377 63 1078 
2028 129 103 1079 
2029 103 377 1079 
2030 377 129 1079 
2031 78 103 1080 
2032 103 378 1080 
2033 378 78 1080 
2034 103 129 1081 
2035 129 378 1081 
2036 378 103 1081 
2037 129 78 1082 
2038 78 378 1082 
2039 378 129 1082 
2040 63 96 1083 
2041 96 379 1083 
2042 379 63 1083 
2043 96 129 1084 
2044 129 379 1084 
2045 379 96 1084 
2046 129 63 1085 
2047 63 379 1085 
2048 379 129 1085 
2049 59 104 1086 
2050 104 380 1086 
2051 380 59 1086 
2052 104 122 1087 
2053 122 380 1087 
2054 380 104 1087 
2055 122 59 1088 
2056 59 380 1088 
2057 380 122 1088 
2058 61 105 1089 
2059 105 381 1089 
2060 381 61 1089 
2061 105 123 1090 
2062 123 381 1090 
2063 381 105 1090 
2064 123 61 1091 
2065 61 381 1091 
2066 381 123 1091 
2067 37 38 1092 
2068 38 382 1092 
2069 382 37 1092 
2070 38 138 1093 
2071 138 382 1093 
2072 382 38 1093 
2073 138 37 1094 
2074 37 382 1094 
2075 382 138 1094 
2076 42 43 1095 
2077 43 383 1095 
2078 383 42 1095 
2079 43 145 1096 
2080 145 383 1096 
2081 383 43 1096 
2082 145 42 1097 
2083 42 383 1097 
2084 383 145 1097 
2085 55 96 1098 
2086 96 384 1098 
2087 384 55 1098 
2088 96 148 1099 
2089 148 384 1099 
2090 384 96 1099 
2091 148 55 1100 
2092 55 384 1100 
2093 384 148 1100 
2094 39 40 1101 
2095 40 385 1101 
2096 385 39 1101 
2097 40 136 1102 
2098 136 385 1102 
2099 385 40 1102 
2100 136 39 1103 
2101 39 385 1103 
2102 385 136 1103 
2103 106 64 1104 
2104 64 386 1104 
2105 386 106 1104 
2106 64 126 1105 
2107 126 386 1105 
2108 386 64 1105 
2109 126 106 1106 
2110 106 386 1106 
2111 386 126 1106 
2112 105 63 1107 
2113 63 387 1107 
2114 387 105 1107 
2115 63 127 1108 
2116 127 387 1108 
2117 387 63 1108 
2118 127 105 1109 
2119 105 387 1109 
2120 387 127 1109 
2121 134 70 1110 
2122 70 388 1110 
2123 388 134 1110 
2124 70 143 1111 
2125 143 388 1111 
2126 388 70 1111 
2127 143 134 1112 
2128 134 388 1112 
2129 388 143 1112 
2130 80 134 1113 
2131 134 389 1113 
2132 389 80 1113 
2133 134 143 1114 
2134 143 389 1114 
2135 389 134 1114 
2136 143 80 1115 
2137 80 389 1115 
2138 389 143 1115 
2139 130 79 1116 
2140 79 390 1116 
2141 390 130 1116 
2142 79 142 1117 
2143 142 390 1117 
2144 390 79 1117 
2145 142 130 1118 
2146 130 390 1118 
2147 390 142 1118 
2148 69 130 1119 
2149 130 391 1119 
2150 391 69 1119 
2151 130 142 1120 
2152 142 391 1120 
2153 391 130 1120 
2154 142 69 1121 
2155 69 391 1121 
2156 391 142 1121 
2157 136 69 1122 
2158 69 392 1122 
2159 392 136 1122 
2160 69 151 1123 
2161 151 392 1123 
2162 392 69 1123 
2163 151 136 1124 
2164 136 392 1124 
2165 392 151 1124 
2166 21 2 1125 
2167 2 393 1125 
2168 393 21 1125 
2169 2 156 1126 
2170 156 393 1126 
2171 393 2 1126 
2172 156 21 1127 
2173 21 393 1127 
2174 393 156 1127 
2175 2 23 1128 
2176 23 394 1128 
2177 394 2 1128 
2178 23 156 1129 
2179 156 394 1129 
2180 394 23 1129 
2181 156 2 1130 
2182 2 394 1130 
2183 394 156 1130 
2184 50 1 1131 
2185 1 395 1131 
2186 395 50 1131 
2187 1 157 1132 
2188 157 395 1132 
2189 395 1 1132 
2190 157 50 1133 
2191 50 395 1133 
2192 395 157 1133 
2193 1 3 1134 
2194 3 396 1134 
2195 396 1 1134 
2196 3 157 1135 
2197 157 396 1135 
2198 396 3 1135 
2199 157 1 1136 
2200 1 396 1136 
2201 396 157 1136 
2202 151 56 1137 
2203 56 397 1137 
2204 397 151 1137 
2205 56 152 1138 
2206 152 397 1138 
2207 397 56 1138 
2208 152 151 1139 
2209 151 397 1139 
2210 397 152 1139 
2211 91 151 1140 
2212 151 398 1140 
2213 398 91 1140 
2214 151 152 1141 
2215 152 398 1141 
2216 398 151 1141 
2217 152 91 1142 
2218 91 398 1142 
2219 398 152 1142 
2220 45 46 1143 
2221 46 399 1143 
2222 399 45 1143 
2223 46 154 1144 
2224 154 399 1144 
2225 399 46 1144 
2226 154 45 1145 
2227 45 399 1145 
2228 399 154 1145 
2229 28 29 1146 
2230 29 400 1146 
2231 400 28 1146 
2232 29 155 1147 
2233 155 400 1147 
2234 400 29 1147 
2235 155 28 1148 
2236 28 400 1148 
2237 400 155 1148 
2238 12 13 1149 
2239 13 401 1149 
2240 401 12 1149 
2241 13 153 1150 
2242 153 401 1150 
2243 401 13 1150 
2244 153 12 1151 
2245 12 401 1151 
2246 401 153 1151 
2247 70 138 1152 
2248 138 402 1152 
2249 402 70 1152 
2250 138 152 1153 
2251 152 402 1153 
2252 402 138 1153 
2253 152 70 1154 
2254 70 402 1154 
2255 402 152 1154 
2256 51 104 1155 
2257 104 403 1155 
2258 403 51 1155 
2259 104 137 1156 
2260 137 403 1156 
2261 403 104 1156 
2262 137 51 1157 
2263 51 403 1157 
2264 403 137 1157 
2265 65 112 1158 
2266 112 404 1158 
2267 404 65 1158 
2268 112 131 1159 
2269 131 404 1159 
2270 404 112 1159 
2271 131 65 1160 
2272 65 404 1160 
2273 404 131 1160 
2274 113 66 1161 
2275 66 405 1161 
2276 405 113 1161 
2277 66 132 1162 
2278 132 405 1162 
2279 405 66 1162 
2280 132 113 1163 
2281 113 405 1163 
2282 405 132 1163 
2283 106 53 1164 
2284 53 406 1164 
2285 406 106 1164 
2286 53 141 1165 
2287 141 406 1165 
2288 406 53 1165 
2289 141 106 1166 
2290 106 406 1166 
2291 406 141 1166 
2292 46 112 1167 
2293 112 407 1167 
2294 407 46 1167 
2295 112 154 1168 
2296 154 407 1168 
2297 407 112 1168 
2298 154 46 1169 
2299 46 407 1169 
2300 407 154 1169 
2301 113 28 1170 
2302 28 408 1170 
2303 408 113 1170 
2304 28 155 1171 
2305 155 408 1171 
2306 408 28 1171 
2307 155 113 1172 
2308 113 408 1172 
2309 408 155 1172 
2310 117 42 1173 
2311 42 409 1173 
2312 409 117 1173 
2313 42 145 1174 
2314 145 409 1174 
2315 409 42 1174 
2316 145 117 1175 
2317 117 409 1175 
2318 409 145 1175 
2319 130 69 1176 
2320 69 410 1176 
2321 410 130 1176 
2322 69 136 1177 
2323 136 410 1177 
2324 410 69 1177 
2325 136 130 1178 
2326 130 410 1178 
2327 410 136 1178 
2328 40 130 1179 
2329 130 411 1179 
2330 411 40 1179 
2331 130 136 1180 
2332 136 411 1180 
2333 411 130 1180 
2334 136 40 1181 
2335 40 411 1181 
2336 411 136 1181 
2337 134 37 1182 
2338 37 412 1182 
2339 412 134 1182 
2340 37 138 1183 
2341 138 412 1183 
2342 412 37 1183 
2343 138 134 1184 
2344 134 412 1184 
2345 412 138 1184 
2346 143 55 1185 
2347 55 413 1185 
2348 413 143 1185 
2349 55 148 1186 
2350 148 413 1186 
2351 413 55 1186 
2352 148 143 1187 
2353 143 413 1187 
2354 413 148 1187 
2355 115 45 1188 
2356 45 414 1188 
2357 414 115 1188 
2358 45 154 1189 
2359 154 414 1189 
2360 414 45 1189 
2361 154 115 1190 
2362 115 414 1190 
2363 414 154 1190 
2364 29 116 1191 
2365 116 415 1191 
2366 415 29 1191 
2367 116 155 1192 
2368 155 415 1192 
2369 415 116 1192 
2370 155 29 1193 
2371 29 415 1193 
2372 415 155 1193 
2373 70 134 1194 
2374 134 416 1194 
2375 416 70 1194 
2376 134 138 1195 
2377 138 416 1195 
2378 416 134 1195 
2379 138 70 1196 
2380 70 416 1196 
2381 416 138 1196 
2382 78 121 1197 
2383 121 417 1197 
2384 417 78 1197 
2385 121 153 1198 
2386 153 417 1198 
2387 417 121 1198 
2388 153 78 1199 
2389 78 417 1199 
2390 417 153 1199 
2391 121 12 1200 
2392 12 418 1200 
2393 418 121 1200 
2394 12 153 1201 
2395 153 418 1201 
2396 418 12 1201 
2397 153 121 1202 
2398 121 418 1202 
2399 418 153 1202 
2400 80 143 1203 
2401 143 419 1203 
2402 419 80 1203 
2403 143 148 1204 
2404 148 419 1204 
2405 419 143 1204 
2406 148 80 1205 
2407 80 419 1205 
2408 419 148 1205 
$EndElements
