$MeshFormat
4.1 0 8
$EndMeshFormat
$PhysicalNames
5
1 1 "Left"
1 2 "Right"
1 3 "Bottom"
1 4 "Top"
2 5 "Fluid"
$EndPhysicalNames
$Entities
0 4 1 0
1 0 0 0 40 0 0 1 3 0 
2 40 0 0 40 10 0 1 2 0 
3 0 10 0 40 10 0 1 4 0 
4 0 0 0 0 10 0 1 1 0 
1 0 0 0 40 10 0 1 5 0 
$EndEntities
$Nodes
5 151 1 151
1 1 0 13
1
2
3
4
5
6
7
8
9
10
11
12
13
0 0 0
40 0 0
3.333333333330548 0 0
6.666666666657846 0 0
9.999999999981444 0 0
13.33333333330504 0 0
16.66666666663118 0 0
19.99999999996957 0 0
23.33333333330795 0 0
26.66666666664634 0 0
29.99999999998474 0 0
33.33333333332316 0 0
36.66666666666158 0 0
1 2 0 3
14
15
16
40 10 0
40 3.33333333332626 0
40 6.666666666661585 0
1 3 0 12
17
18
19
20
21
22
23
24
25
26
27
28
0 10 0
36.66666666666667 10 0
33.33333333333334 10 0
30 10 0
26.66666666666667 10 0
23.33333333333334 10 0
20.00000000000003 10 0
16.66666666666671 10 0
13.33333333333339 10 0
10.00000000000005 10 0
6.6666666666667 10 0
3.33333333333335 10 0
1 4 0 2
29
30
0 6.666666666666667 0
0 3.333333333333348 0
2 1 0 121
31
32
33
34
35
36
37
38
39
40
41
42
43
44
45
46
47
48
49
50
51
52
53
54
55
56
57
58
59
60
61
62
63
64
65
66
67
68
69
70
71
72
73
74
75
76
77
78
79
80
81
82
83
84
85
86
87
88
89
90
91
92
93
94
95
96
97
98
99
100
101
102
103
104
105
106
107
108
109
110
111
112
113
114
115
116
117
118
119
120
121
122
123
124
125
126
127
128
129
130
131
132
133
134
135
136
137
138
139
140
141
142
143
144
145
146
147
148
149
150
151
8.86832611831559 5.034722222220974 0
14.99999999998228 4.999999999993506 0
34.99999999999999 5.000000000002532 0
28.33333333333333 5.000000000002542 0
21.66666666666669 5.000000000004233 0
3.456449246359653 5.000000000000053 0
18.33333333331516 6.666666666649876 0
11.80571016283594 3.071467223251315 0
31.66666666666668 6.66666666666752 0
25.00000000000001 6.666666666668087 0
11.78017156150742 6.914861337235374 0
24.99999999997715 3.125000000000123 0
31.66666666665393 3.124999999999821 0
18.33333333330038 3.124999999990449 0
5.700048850701704 3.156551256866438 0
5.785754163838185 6.932780409628965 0
37.08333333333172 2.916666666666766 0
37.08333333333459 7.08333333333395 0
15.00000000000005 7.777777777775153 0
14.99999999996811 2.222222222220796 0
21.66666666663876 2.222222222223734 0
28.33333333331554 2.222222222222789 0
28.33333333333333 7.777777777779193 0
21.66666666666669 7.777777777780127 0
2.600996932394002 2.548938058998346 0
2.605458891637114 7.455712694151462 0
8.716447747741752 7.684443164524999 0
8.712062418886827 2.326132977707675 0
34.67261904761349 2.261904761905271 0
34.47916666666911 7.604166666668794 0
37.83333333333326 4.99999999999822 0
1.152149748786551 5.000000000000022 0
2.019148726251218 3.627423797443916 0
2.020636045998922 6.374126453606061 0
19.44444444442741 4.930555555548186 0
10.81806928088631 5.007016927569221 0
26.1111111111035 4.930555555556917 0
17.22222222219927 4.93055555554461 0
32.77777777777354 4.930555555556624 0
30.55555555555131 4.930555555556627 0
12.86196057477522 4.995442853493398 0
23.88888888888128 4.930555555557481 0
18.3333333333273 8.888888888883292 0
39.02777777777724 2.083333333331009 0
37.91666666666443 0.9722222222222553 0
11.71301449870747 1.023822407750438 0
31.66666666666667 8.888888888889174 0
39.0277777777782 7.916666666665178 0
37.91666666666709 9.027777777777983 0
25.00000000000001 8.888888888889362 0
3.878126372142085 1.901829771954928 0
3.908182129602883 8.129497701260142 0
5.2333496168967 1.052183752288813 0
5.261918054612745 8.977593469876322 0
6.784709710951827 5.041351296238792 0
4.98075075363318 5.029777222165152 0
11.70450163161362 8.971620445745124 0
24.99999999997715 1.041666666666708 0
31.66666666665394 1.041666666666607 0
18.33333333330038 1.041666666663483 0
20.55555555553528 3.449074074072806 0
27.22222222220867 3.449074074075151 0
16.11111111108359 3.44907407406825 0
29.44444444443427 3.449074074075051 0
13.92672385382992 6.564213038334678 0
22.77777777776086 3.44907407407603 0
19.99999999999396 8.148148148143333 0
20.55555555554951 6.481481481478078 0
16.11111111109916 6.481481481472845 0
13.3796811653697 1.764563148490704 0
16.66666666666064 8.148148148141676 0
30 8.148148148148904 0
13.93523672092878 3.431229815155206 0
26.66666666666667 8.148148148149092 0
23.33333333333335 8.148148148149405 0
27.22222222222222 6.481481481483274 0
29.44444444444445 6.481481481483084 0
22.7777777777778 6.481481481484149 0
1.97811008857485 0.8496460196661153 0
0.8669989774646673 1.960757130777231 0
0.8684862972123714 8.04079312027271 0
1.979597408323488 9.151904231383821 0
9.788315142521588 6.544675574660449 0
33.77976190475581 3.462301587302541 0
13.37116829828029 8.230879705003508 0
16.66666666663322 1.782407407403748 0
23.33333333330795 1.782407407407953 0
26.66666666664634 1.782407407407637 0
29.99999999998474 1.782407407407537 0
19.99999999996957 1.782407407404728 0
10.17259086056807 1.79920006698633 0
9.795366233346119 3.477440807726655 0
33.15972222222305 8.090277777778772 0
33.7152777777786 6.423611111112948 0
3.919165009818453 3.568496438621612 0
3.949220767278317 6.462831034593493 0
10.16553976974974 8.199768167253458 0
33.22420634919686 1.79563492063503 0
34.89087301586608 0.7539682539684236 0
34.82638888888971 9.201388888889598 0
8.459576361842039 0.7753776592358917 0
8.461038138136168 9.228147721508334 0
14.99999999996811 0.7407407407402653 0
15.00000000000005 9.259259259258384 0
21.66666666663876 0.7407407407412446 0
28.33333333331554 0.7407407407409297 0
28.33333333333333 9.25925925925973 0
21.66666666666669 9.259259259260043 0
36.14087301586893 1.726190476190679 0
36.07638888889013 8.229166666667581 0
7.026259312082125 1.827561411524704 0
7.056289526082213 8.205741191384655 0
36.63888888888928 5.694444444444901 0
36.63888888888832 4.30555555555584 0
39.27777777777775 4.999999999995355 0
7.790176009965175 6.550648598791646 0
7.76014579596804 3.505802152265029 0
35.58531746031507 3.39285714285819 0
35.52083333333456 6.562500000001759 0
38.305555555555 3.749999999997082 0
38.30555555555595 6.249999999997918 0
$EndNodes
$Elements
5 300 1 300
1 1 1 12
1 1 3 
2 3 4 
3 4 5 
4 5 6 
5 6 7 
6 7 8 
7 8 9 
8 9 10 
9 10 11 
10 11 12 
11 12 13 
12 13 2 
1 2 1 3
13 2 15 
14 15 16 
15 16 14 
1 3 1 12
16 14 18 
17 18 19 
18 19 20 
19 20 21 
20 21 22 
21 22 23 
22 23 24 
23 24 25 
24 25 26 
25 26 27 
26 27 28 
27 28 17 
1 4 1 3
28 17 29 
29 29 30 
30 30 1 
2 1 2 270
31 29 30 62 
32 30 36 62 
33 36 29 62 
34 36 30 63 
35 30 55 63 
36 55 36 63 
37 29 36 64 
38 36 56 64 
39 56 29 64 
40 35 37 65 
41 37 44 65 
42 44 35 65 
43 31 38 66 
44 38 41 66 
45 41 31 66 
46 34 40 67 
47 40 42 67 
48 42 34 67 
49 37 32 68 
50 32 44 68 
51 44 37 68 
52 33 39 69 
53 39 43 69 
54 43 33 69 
55 39 34 70 
56 34 43 70 
57 43 39 70 
58 38 32 71 
59 32 41 71 
60 41 38 71 
61 40 35 72 
62 35 42 72 
63 42 40 72 
64 23 24 73 
65 24 37 73 
66 37 23 73 
67 2 15 74 
68 15 47 74 
69 47 2 74 
70 13 2 75 
71 2 47 75 
72 47 13 75 
73 5 6 76 
74 6 38 76 
75 38 5 76 
76 19 20 77 
77 20 39 77 
78 39 19 77 
79 16 14 78 
80 14 48 78 
81 48 16 78 
82 14 18 79 
83 18 48 79 
84 48 14 79 
85 21 22 80 
86 22 40 80 
87 40 21 80 
88 3 45 81 
89 45 55 81 
90 55 3 81 
91 46 28 82 
92 28 56 82 
93 56 46 82 
94 3 4 83 
95 4 45 83 
96 45 3 83 
97 27 28 84 
98 28 46 84 
99 46 27 84 
100 45 31 85 
101 31 46 85 
102 46 45 85 
103 36 45 86 
104 45 46 86 
105 46 36 86 
106 25 26 87 
107 26 41 87 
108 41 25 87 
109 9 10 88 
110 10 42 88 
111 42 9 88 
112 11 12 89 
113 12 43 89 
114 43 11 89 
115 7 8 90 
116 8 44 90 
117 44 7 90 
118 35 44 91 
119 44 51 91 
120 51 35 91 
121 34 42 92 
122 42 52 92 
123 52 34 92 
124 44 32 93 
125 32 50 93 
126 50 44 93 
127 43 34 94 
128 34 52 94 
129 52 43 94 
130 41 32 95 
131 32 49 95 
132 49 41 95 
133 42 35 96 
134 35 51 96 
135 51 42 96 
136 23 37 97 
137 37 54 97 
138 54 23 97 
139 37 35 98 
140 35 54 98 
141 54 37 98 
142 32 37 99 
143 37 49 99 
144 49 32 99 
145 38 6 100 
146 6 50 100 
147 50 38 100 
148 37 24 101 
149 24 49 101 
150 49 37 101 
151 39 20 102 
152 20 53 102 
153 53 39 102 
154 32 38 103 
155 38 50 103 
156 50 32 103 
157 21 40 104 
158 40 53 104 
159 53 21 104 
160 40 22 105 
161 22 54 105 
162 54 40 105 
163 40 34 106 
164 34 53 106 
165 53 40 106 
166 34 39 107 
167 39 53 107 
168 53 34 107 
169 35 40 108 
170 40 54 108 
171 54 35 108 
172 1 3 109 
173 3 55 109 
174 55 1 109 
175 30 1 110 
176 1 55 110 
177 55 30 110 
178 17 29 111 
179 29 56 111 
180 56 17 111 
181 28 17 112 
182 17 56 112 
183 56 28 112 
184 31 41 113 
185 41 57 113 
186 57 31 113 
187 33 43 114 
188 43 59 114 
189 59 33 114 
190 25 41 115 
191 41 49 115 
192 49 25 115 
193 7 44 116 
194 44 50 116 
195 50 7 116 
196 9 42 117 
197 42 51 117 
198 51 9 117 
199 42 10 118 
200 10 52 118 
201 52 42 118 
202 11 43 119 
203 43 52 119 
204 52 11 119 
205 44 8 120 
206 8 51 120 
207 51 44 120 
208 5 38 121 
209 38 58 121 
210 58 5 121 
211 38 31 122 
212 31 58 122 
213 58 38 122 
214 19 39 123 
215 39 60 123 
216 60 19 123 
217 39 33 124 
218 33 60 124 
219 60 39 124 
220 45 36 125 
221 36 55 125 
222 55 45 125 
223 36 46 126 
224 46 56 126 
225 56 36 126 
226 41 26 127 
227 26 57 127 
228 57 41 127 
229 43 12 128 
230 12 59 128 
231 59 43 128 
232 12 13 129 
233 13 59 129 
234 59 12 129 
235 18 19 130 
236 19 60 130 
237 60 18 130 
238 4 5 131 
239 5 58 131 
240 58 4 131 
241 26 27 132 
242 27 57 132 
243 57 26 132 
244 6 7 133 
245 7 50 133 
246 50 6 133 
247 24 25 134 
248 25 49 134 
249 49 24 134 
250 8 9 135 
251 9 51 135 
252 51 8 135 
253 10 11 136 
254 11 52 136 
255 52 10 136 
256 20 21 137 
257 21 53 137 
258 53 20 137 
259 22 23 138 
260 23 54 138 
261 54 22 138 
262 13 47 139 
263 47 59 139 
264 59 13 139 
265 48 18 140 
266 18 60 140 
267 60 48 140 
268 45 4 141 
269 4 58 141 
270 58 45 141 
271 27 46 142 
272 46 57 142 
273 57 27 142 
274 48 33 143 
275 33 61 143 
276 61 48 143 
277 33 47 144 
278 47 61 144 
279 61 33 144 
280 15 16 145 
281 16 61 145 
282 61 15 145 
283 46 31 146 
284 31 57 146 
285 57 46 146 
286 31 45 147 
287 45 58 147 
288 58 31 147 
289 47 33 148 
290 33 59 148 
291 59 47 148 
292 33 48 149 
293 48 60 149 
294 60 33 149 
295 47 15 150 
296 15 61 150 
297 61 47 150 
298 16 48 151 
299 48 61 151 
300 61 16 151 
$EndElements
