$MeshFormat
4.1 0 8
$EndMeshFormat
$PhysicalNames
5
1 1 "Left"
1 2 "Right"
1 3 "Bottom"
1 4 "Top"
2 5 "Fluid"
$EndPhysicalNames
$Entities
0 4 1 0
1 0 0 0 40 0 0 1 3 0 
2 40 0 0 40 10 0 1 2 0 
3 0 10 0 40 10 0 1 4 0 
4 0 0 0 0 10 0 1 1 0 
1 0 0 0 40 10 0 1 5 0 
$EndEntities
$Nodes
5 229 1 229
1 1 0 15
1
2
3
4
5
6
7
8
9
10
11
12
13
14
15
0 0 0
40 0 0
2.857142857140411 0 0
5.714285714279686 0 0
8.571428571414206 0 0
11.42857142854873 0 0
14.28571428568325 0 0
17.14285714282243 0 0
19.99999999996964 0 0
22.85714285711686 0 0
25.71428571426405 0 0
28.57142857141124 0 0
31.42857142855843 0 0
34.28571428570562 0 0
37.14285714285281 0 0
1 2 0 4
16
17
18
19
40 10 0
40 2.499999999995367 0
40 4.999999999992411 0
40 7.499999999996209 0
1 3 0 14
20
21
22
23
24
25
26
27
28
29
30
31
32
33
0 10 0
37.14285714285714 10 0
34.28571428571428 10 0
31.42857142857142 10 0
28.57142857142856 10 0
25.71428571428569 10 0
22.85714285714282 10 0
19.99999999999995 10 0
17.14285714285708 10 0
14.28571428571423 10 0
11.42857142857138 10 0
8.571428571428537 10 0
5.714285714285694 10 0
2.857142857142854 10 0
1 4 0 3
34
35
36
0 7.499999999999997 0
0 4.999999999999988 0
0 2.499999999999989 0
2 1 0 193
37
38
39
40
41
42
43
44
45
46
47
48
49
50
51
52
53
54
55
56
57
58
59
60
61
62
63
64
65
66
67
68
69
70
71
72
73
74
75
76
77
78
79
80
81
82
83
84
85
86
87
88
89
90
91
92
93
94
95
96
97
98
99
100
101
102
103
104
105
106
107
108
109
110
111
112
113
114
115
116
117
118
119
120
121
122
123
124
125
126
127
128
129
130
131
132
133
134
135
136
137
138
139
140
141
142
143
144
145
146
147
148
149
150
151
152
153
154
155
156
157
158
159
160
161
162
163
164
165
166
167
168
169
170
171
172
173
174
175
176
177
178
179
180
181
182
183
184
185
186
187
188
189
190
191
192
193
194
195
196
197
198
199
200
201
202
203
204
205
206
207
208
209
210
211
212
213
214
215
216
217
218
219
220
221
222
223
224
225
226
227
228
229
4.85738269650202 4.985752815751084 0
35.1426173034941 5.014247184249311 0
12.8146670253615 4.882412067678461 0
18.26864267967882 5.028312490506687 0
26.97996204702176 5.163484291407783 0
22.82724106573794 5.228833584943289 0
30.95892686849653 5.95107038130491 0
9.041073131489799 4.04892961868755 0
16.00029661199332 2.621227768298573 0
15.81706763101122 7.23761278152288 0
9.544758712857684 7.044548789225868 0
30.46782321791475 2.959046048141122 0
20.69502247582968 3.207304564400058 0
24.95670555147932 3.223396445463269 0
2.917801654560156 2.951977401129917 0
2.70571397331342 7.365625577043062 0
37.29428602668388 2.634374422956524 0
37.08219834543916 7.048022598869919 0
7.000443253953589 7.282904602468 0
32.99955674603562 2.717095397535252 0
24.84880815806191 7.324687020528643 0
20.42487651784164 7.080475124981037 0
7.054183284072414 2.560904043950992 0
32.94581671591916 7.439095956047155 0
11.35459925247549 2.725216540099836 0
28.7666921745519 7.170748012894233 0
12.79294092690073 7.039587954640874 0
18.45172685496608 2.244697910405836 0
27.65662422748139 2.705564123490654 0
18.24498485121895 7.823332285244025 0
2.177660541280428 5.00000000000006 0
37.82233945871975 5.000000000000306 0
13.53055619744096 2.372291978255548 0
35.08647368361024 2.041999353496482 0
4.913526316383794 7.958000646507228 0
22.52224279357249 7.83163265305548 0
7.164192010237655 5.163383626709906 0
32.83580798975981 4.83661637329523 0
4.668469502595711 2.008995111800721 0
35.33153049739889 7.991004888197551 0
9.441826435727037 1.905746258543202 0
30.6083242912138 8.053903514372401 0
10.88134460330137 5.125514693482019 0
29.04701558015153 4.817832681300315 0
20.55394568477202 5.136231441207768 0
24.90317920557523 5.235100335585747 0
38.60928579238417 1.283593605737973 0
1.390714207614069 8.716406394260765 0
1.428571428570205 1.249999999999995 0
38.57142857142858 8.749999999998105 0
14.88173874698195 4.902552981058345 0
26.93060962611791 8.369327759616295 0
22.85714285713019 2.03374478884834 0
24.47341224316348 9.108229006842882 0
15.74854635319418 9.079204260507627 0
15.80962268016633 0.8737425894328577 0
23.40939793625907 8.385439891194707 0
16.38355934621803 4.184031079954535 0
16.322483019224 5.722826084362637 0
39.27411315290659 4.166666666662695 0
0.725886847093476 4.166666666666679 0
0.725886847093476 5.833333333333349 0
39.27411315290659 5.833333333329642 0
38.37220849513454 3.378124807650732 0
1.698487398613528 3.483992467043322 0
1.627791504864616 6.621875192347706 0
38.30151260138631 6.516007532955478 0
22.12646879956594 3.489960979397229 0
23.54702982478248 3.495324939751633 0
8.372210179413269 8.109151130564623 0
31.63198379750294 1.892047148558791 0
9.848252904285866 9.014849596408622 0
30.15594107262814 0.9863486827137073 0
14.29857428120872 8.092400245387919 0
21.1840551109765 1.747016451082799 0
24.50937804095785 1.752380411437203 0
31.42085269205703 4.58224426758042 0
8.583341284861712 5.418954011541108 0
17.57355538221274 3.298079389737032 0
17.19829353659394 1.621975226234803 0
7.113299189922103 0.8536346813169974 0
32.88670081006828 9.146365318682385 0
21.90476190473889 0.6779149296161133 0
23.8095238095037 0.6779149296161133 0
32.10106265123672 3.504252606323868 0
7.903131325682977 6.496945672801258 0
7.095385846555939 9.094301534156001 0
32.90461415343322 0.905698465845084 0
17.44356505396966 6.696419185757864 0
11.25542368944327 8.028045581288914 0
14.60552236503918 1.664506582184707 0
17.06830320836241 8.353648355588968 0
14.4972491016313 6.393251239074033 0
28.89862533893579 1.888203390543925 0
4.147884617885962 3.315575109560574 0
35.85211538211072 6.684424890438927 0
8.355812763737886 1.488883434164731 0
31.6609041452348 8.497666490139851 0
13.49644889974806 5.608184334459227 0
26.25312661040053 6.952499690517574 0
11.07301474768659 6.403217145782921 0
27.55908794923053 6.90118668797277 0
20.98237310380469 8.304035926012171 0
26.10920516440825 1.976320189651308 0
19.71558311025514 1.817334158268632 0
21.79312855023842 9.277210884351826 0
12.16298418518787 5.682504905267119 0
19.13846400349152 3.49343832177086 0
26.53109727532749 3.697481620120568 0
5.526678494390048 3.185217323834266 0
34.47332150560405 6.814782676164673 0
9.822392149216284 5.406331033798479 0
30.15792188885426 4.575983036915448 0
29.05715434184922 3.49414761764403 0
27.89453395155156 4.228960365399584 0
3.317614964114201 4.312576738960353 0
3.246919070365289 5.783792797598069 0
36.75308092963258 4.216207202402047 0
36.68238503588434 5.687423261039846 0
4.158874328733078 6.769793013100458 0
35.84112567126274 3.230206986900772 0
5.590450755613134 6.742219354908772 0
34.40954924437999 3.257780645093682 0
19.55662045635351 8.301269136741686 0
18.46261399802532 9.274444095081341 0
13.08161397055765 0.7907639927518493 0
21.35873640877988 4.524123196850371 0
24.22904194093083 4.562443455330768 0
3.492127715613356 8.441208741183431 0
36.50787228438231 1.558791258817669 0
19.83920361342684 4.457282832038171 0
25.61328226802544 4.5406603574856 0
27.31411283771889 0.901854707830218 0
18.53152799925272 0.7482326368019453 0
38.63452393968935 2.139322676229955 0
1.44879102771012 2.2339924670433 0
1.365476060309163 7.860677323767941 0
38.55120897228925 7.766007532954745 0
13.7423206565948 4.052419008997451 0
12.10457562615506 1.699169506118461 0
12.83574221372878 9.013195984880291 0
35.50501503738955 0.680666451165494 0
4.494984962604114 9.319333548835743 0
18.9795013495798 6.644039966910583 0
8.51236095042975 2.838526640393915 0
31.50435595854316 7.148023283908155 0
14.80419718547208 3.298690909204156 0
12.56660749175932 3.326640195344615 0
23.39943067245745 6.795051086175803 0
38.584047645079 0.4278645352459911 0
1.415952354918974 9.572135464753588 0
1.428571428570206 0.416666666666665 0
38.57142857142858 9.583333333332702 0
3.481138004765426 1.653657504310213 0
36.51886199523173 8.346342495689157 0
2.401171980090258 1.400659133709971 0
2.317857012690114 8.694010657101275 0
37.5988280199083 8.59934086628934 0
37.68214298730695 1.305989342898165 0
30.20277476373792 9.351301171457466 0
9.813942145229992 0.635248752847734 0
5.876085094874359 8.413635082991744 0
34.12391490511716 1.586364917010578 0
6.340672653564422 5.810680348309663 0
33.65932734642985 4.189319651693264 0
29.31548167906476 8.408217175755544 0
10.74166570558375 1.543654266214346 0
4.413299358005269 0.6696650372669071 0
35.5867006419901 9.330334962732517 0
6.358585996937363 4.236680162137327 0
33.64141400305769 5.763319837863899 0
7.753149475266622 3.92440576311615 0
32.24685052472517 6.075594236882432 0
21.92478679238402 6.713647120993269 0
25.57731647021963 5.907757215840725 0
19.74915496076416 5.748339685565163 0
27.07210797061072 9.456442586538765 0
24.19307614312503 5.929540313685894 0
21.2686877561172 5.815180050377364 0
10.42567232908889 3.966553617423136 0
29.59087820773332 5.979883691833152 0
25.8312344994885 8.564671593381647 0
11.68353696037945 4.244381100420106 0
28.26455660057507 5.717354995200776 0
5.81231283364927 1.523299718583904 0
34.18768716634411 8.476700281414901 0
0.4761904761900683 1.249999999999995 0
39.52380952380953 8.749999999998105 0
0.463571402538023 8.738802131420254 0
39.53642859746139 1.26119786857778 0
28.08957679069946 8.513358590836843 0
9.945832939897443 2.89329747244353 0
30.11131444475408 7.058573969523848 0
$EndNodes
$Elements
5 456 1 456
1 1 1 14
1 1 3 
2 3 4 
3 4 5 
4 5 6 
5 6 7 
6 7 8 
7 8 9 
8 9 10 
9 10 11 
10 11 12 
11 12 13 
12 13 14 
13 14 15 
14 15 2 
1 2 1 4
15 2 17 
16 17 18 
17 18 19 
18 19 16 
1 3 1 14
19 16 21 
20 21 22 
21 22 23 
22 23 24 
23 24 25 
24 25 26 
25 26 27 
26 27 28 
27 28 29 
28 29 30 
29 30 31 
30 31 32 
31 32 33 
32 33 20 
1 4 1 4
33 20 34 
34 34 35 
35 35 36 
36 36 1 
2 1 2 420
37 25 26 90 
38 26 57 90 
39 57 25 90 
40 28 29 91 
41 29 46 91 
42 46 28 91 
43 7 8 92 
44 8 45 92 
45 45 7 92 
46 57 26 93 
47 26 72 93 
48 72 57 93 
49 45 40 94 
50 40 87 94 
51 87 45 94 
52 40 46 95 
53 46 87 95 
54 87 40 95 
55 17 18 96 
56 18 68 96 
57 68 17 96 
58 35 36 97 
59 36 67 97 
60 67 35 97 
61 34 35 98 
62 35 67 98 
63 67 34 98 
64 18 19 99 
65 19 68 99 
66 68 18 99 
67 53 17 100 
68 17 68 100 
69 68 53 100 
70 36 51 101 
71 51 67 101 
72 67 36 101 
73 52 34 102 
74 34 67 102 
75 67 52 102 
76 19 54 103 
77 54 68 103 
78 68 19 103 
79 42 49 104 
80 49 89 104 
81 89 42 104 
82 50 42 105 
83 42 89 105 
84 89 50 105 
85 47 31 106 
86 31 55 106 
87 55 47 106 
88 48 13 107 
89 13 56 107 
90 56 48 107 
91 30 31 108 
92 31 47 108 
93 47 30 108 
94 12 13 109 
95 13 48 109 
96 48 12 109 
97 46 29 110 
98 29 63 110 
99 63 46 110 
100 49 9 111 
101 9 89 111 
102 89 49 111 
103 11 50 112 
104 50 89 112 
105 89 11 112 
106 43 48 113 
107 48 74 113 
108 74 43 113 
109 44 47 114 
110 47 73 114 
111 73 44 114 
112 40 45 115 
113 45 64 115 
114 64 40 115 
115 45 8 116 
116 8 64 116 
117 64 45 116 
118 4 5 117 
119 5 59 117 
120 59 4 117 
121 22 23 118 
122 23 60 118 
123 60 22 118 
124 9 10 119 
125 10 89 119 
126 89 9 119 
127 10 11 120 
128 11 89 120 
129 89 10 120 
130 48 56 121 
131 56 74 121 
132 74 48 121 
133 47 55 122 
134 55 73 122 
135 73 47 122 
136 31 32 123 
137 32 55 123 
138 55 31 123 
139 13 14 124 
140 14 56 124 
141 56 13 124 
142 46 40 125 
143 40 66 125 
144 66 46 125 
145 30 47 126 
146 47 63 126 
147 63 30 126 
148 7 45 127 
149 45 69 127 
150 69 7 127 
151 28 46 128 
152 46 66 128 
153 66 28 128 
154 46 63 129 
155 63 87 129 
156 87 46 129 
157 12 48 130 
158 48 65 130 
159 65 12 130 
160 37 51 131 
161 51 75 131 
162 75 37 131 
163 38 54 132 
164 54 76 132 
165 76 38 132 
166 59 5 133 
167 5 77 133 
168 77 59 133 
169 60 23 134 
170 23 78 134 
171 78 60 134 
172 63 39 135 
173 39 87 135 
174 87 63 135 
175 57 41 136 
176 41 88 136 
177 88 57 136 
178 63 47 137 
179 47 79 137 
180 79 63 137 
181 41 62 138 
182 62 88 138 
183 88 41 138 
184 27 58 139 
185 58 72 139 
186 72 27 139 
187 50 11 140 
188 11 65 140 
189 65 50 140 
190 9 49 141 
191 49 64 141 
192 64 9 141 
193 26 27 142 
194 27 72 142 
195 72 26 142 
196 39 63 143 
197 63 79 143 
198 79 39 143 
199 49 40 144 
200 40 64 144 
201 64 49 144 
202 41 50 145 
203 50 65 145 
204 65 41 145 
205 59 37 146 
206 37 75 146 
207 75 59 146 
208 60 38 147 
209 38 76 147 
210 76 60 147 
211 47 44 148 
212 44 79 148 
213 79 47 148 
214 48 43 149 
215 43 80 149 
216 80 48 149 
217 65 48 150 
218 48 80 150 
219 80 65 150 
220 41 65 151 
221 65 80 151 
222 80 41 151 
223 51 37 152 
224 37 67 152 
225 67 51 152 
226 37 52 153 
227 52 67 153 
228 67 37 153 
229 38 53 154 
230 53 68 154 
231 68 38 154 
232 54 38 155 
233 38 68 155 
234 68 54 155 
235 52 37 156 
236 37 71 156 
237 71 52 156 
238 53 38 157 
239 38 70 157 
240 70 53 157 
241 37 55 158 
242 55 71 158 
243 71 37 158 
244 38 56 159 
245 56 70 159 
246 70 38 159 
247 58 27 160 
248 27 66 160 
249 66 58 160 
250 27 28 161 
251 28 66 161 
252 66 27 161 
253 6 7 162 
254 7 69 162 
255 69 6 162 
256 49 42 163 
257 42 81 163 
258 81 49 163 
259 42 50 164 
260 50 82 164 
261 82 42 164 
262 33 52 165 
263 52 71 165 
264 71 33 165 
265 15 53 166 
266 53 70 166 
267 70 15 166 
268 40 49 167 
269 49 81 167 
270 81 40 167 
271 50 41 168 
272 41 82 168 
273 82 50 168 
274 11 12 169 
275 12 65 169 
276 65 11 169 
277 8 9 170 
278 9 64 170 
279 64 8 170 
280 17 53 171 
281 53 83 171 
282 83 17 171 
283 51 36 172 
284 36 85 172 
285 85 51 172 
286 34 52 173 
287 52 84 173 
288 84 34 173 
289 54 19 174 
290 19 86 174 
291 86 54 174 
292 39 69 175 
293 69 87 175 
294 87 39 175 
295 61 6 176 
296 6 69 176 
297 69 61 176 
298 29 30 177 
299 30 63 177 
300 63 29 177 
301 14 15 178 
302 15 70 178 
303 70 14 178 
304 32 33 179 
305 33 71 179 
306 71 32 179 
307 40 58 180 
308 58 66 180 
309 66 40 180 
310 44 59 181 
311 59 77 181 
312 77 44 181 
313 43 60 182 
314 60 78 182 
315 78 43 182 
316 69 45 183 
317 45 87 183 
318 87 69 183 
319 39 61 184 
320 61 69 184 
321 69 39 184 
322 42 57 185 
323 57 72 185 
324 72 42 185 
325 15 2 186 
326 2 83 186 
327 83 15 186 
328 33 20 187 
329 20 84 187 
330 84 33 187 
331 1 3 188 
332 3 85 188 
333 85 1 188 
334 16 21 189 
335 21 86 189 
336 86 16 189 
337 51 3 190 
338 3 75 190 
339 75 51 190 
340 54 21 191 
341 21 76 191 
342 76 54 191 
343 3 51 192 
344 51 85 192 
345 85 3 192 
346 52 33 193 
347 33 84 193 
348 84 52 193 
349 21 54 194 
350 54 86 194 
351 86 21 194 
352 53 15 195 
353 15 83 195 
354 83 53 195 
355 23 24 196 
356 24 78 196 
357 78 23 196 
358 5 6 197 
359 6 77 197 
360 77 5 197 
361 55 32 198 
362 32 71 198 
363 71 55 198 
364 56 14 199 
365 14 70 199 
366 70 56 199 
367 55 37 200 
368 37 73 200 
369 73 55 200 
370 56 38 201 
371 38 74 201 
372 74 56 201 
373 24 62 202 
374 62 78 202 
375 78 24 202 
376 6 61 203 
377 61 77 203 
378 77 6 203 
379 3 4 204 
380 4 75 204 
381 75 3 204 
382 21 22 205 
383 22 76 205 
384 76 21 205 
385 37 59 206 
386 59 73 206 
387 73 37 206 
388 38 60 207 
389 60 74 207 
390 74 38 207 
391 59 44 208 
392 44 73 208 
393 73 59 208 
394 60 43 209 
395 43 74 209 
396 74 60 209 
397 58 42 210 
398 42 72 210 
399 72 58 210 
400 41 57 211 
401 57 82 211 
402 82 41 211 
403 58 40 212 
404 40 81 212 
405 81 58 212 
406 24 25 213 
407 25 88 213 
408 88 24 213 
409 57 42 214 
410 42 82 214 
411 82 57 214 
412 42 58 215 
413 58 81 215 
414 81 42 215 
415 44 61 216 
416 61 79 216 
417 79 44 216 
418 43 62 217 
419 62 80 217 
420 80 43 217 
421 25 57 218 
422 57 88 218 
423 88 25 218 
424 61 39 219 
425 39 79 219 
426 79 61 219 
427 62 41 220 
428 41 80 220 
429 80 62 220 
430 4 59 221 
431 59 75 221 
432 75 4 221 
433 22 60 222 
434 60 76 222 
435 76 22 222 
436 36 1 223 
437 1 85 223 
438 85 36 223 
439 19 16 224 
440 16 86 224 
441 86 19 224 
442 20 34 225 
443 34 84 225 
444 84 20 225 
445 2 17 226 
446 17 83 226 
447 83 2 226 
448 62 24 227 
449 24 88 227 
450 88 62 227 
451 61 44 228 
452 44 77 228 
453 77 61 228 
454 62 43 229 
455 43 78 229 
456 78 62 229 
$EndElements
