$MeshFormat
4.1 0 8
$EndMeshFormat
$PhysicalNames
5
1 1 "Left"
1 2 "Right"
1 3 "Bottom"
1 4 "Top"
2 5 "Fluid"
$EndPhysicalNames
$Entities
0 4 1 0
1 0 0 0 40 0 0 1 3 0 
2 40 0 0 40 10 0 1 2 0 
3 0 10 0 40 10 0 1 4 0 
4 0 0 0 0 10 0 1 1 0 
1 0 0 0 40 10 0 1 5 0 
$EndEntities
$Nodes
5 103 1 103
1 1 0 10
1
2
3
4
5
6
7
8
9
10
0 0 0
40 0 0
4.444444444440899 0 0
8.888888888873614 0 0
13.33333333330508 0 0
17.77777777774403 0 0
22.22222222219523 0 0
26.66666666664642 0 0
31.11111111109761 0 0
35.55555555554881 0 0
1 2 0 3
11
12
13
40 10 0
40 3.33333333332627 0
40 6.666666666661605 0
1 3 0 9
14
15
16
17
18
19
20
21
22
0 10 0
35.55555555555554 10 0
31.11111111111108 10 0
26.66666666666662 10 0
22.22222222222216 10 0
17.77777777777773 10 0
13.33333333333329 10 0
8.888888888888864 10 0
4.444444444444436 10 0
1 4 0 2
23
24
0 6.666666666666655 0
0 3.333333333333323 0
2 1 0 79
25
26
27
28
29
30
31
32
33
34
35
36
37
38
39
40
41
42
43
44
45
46
47
48
49
50
51
52
53
54
55
56
57
58
59
60
61
62
63
64
65
66
67
68
69
70
71
72
73
74
75
76
77
78
79
80
81
82
83
84
85
86
87
88
89
90
91
92
93
94
95
96
97
98
99
100
101
102
103
4.722222222222237 4.999999999999989 0
35.27777777778537 4.999999999993937 0
11.21098785545567 5.07465075568867 0
28.78901214452382 4.925349244308205 0
19.99999999998351 4.999999999994181 0
24.42446909556339 6.504870418658388 0
15.57553090440876 3.495129581335128 0
32.35962200307186 6.59699754788797 0
7.640377996922926 3.403002452106094 0
15.57267728315286 6.910253519857649 0
24.427322716822 3.089746480134268 0
7.492948368438235 6.761554244324813 0
32.50705163156177 3.238445755669737 0
37.76027077497648 2.38095238094863 0
2.239729225022333 2.380952380952375 0
2.239729225023344 7.619047619047614 0
37.7602707749784 7.619047619044443 0
1.840336134453582 4.999999999999991 0
38.09490462852071 4.999999999994681 0
11.14440335921145 1.691550251896223 0
11.14440335922594 8.35821691856289 0
19.99999999999446 8.333333333331394 0
28.85559664075595 1.641783081436069 0
28.85559664076717 8.308449748102735 0
19.99999999997426 1.666666666664727 0
22.21556377258969 7.168290139550856 0
26.62671596891794 7.143406554322198 0
13.3732840310565 2.856593445674599 0
17.78443622737877 2.831709860443103 0
13.37233282398061 7.328301425182107 0
26.62766717599742 2.671698574814158 0
22.21651497966691 2.696582160042816 0
17.7834850203047 7.303417839950609 0
9.246751580417405 2.825884402598255 0
30.75324841956892 7.174115597398725 0
9.19760837092759 7.278735000004494 0
30.80239162906107 2.721264999992647 0
5.602348221195354 2.801000817368694 0
34.39765177880425 7.198999182627301 0
37.7719421101751 0.7936507936495434 0
2.228057889821077 0.7936507936507917 0
2.228057889822594 9.206349206349204 0
37.77194211017798 9.206349206348149 0
3.802131963895157 2.460317460317455 0
36.19786803610643 7.53968253967946 0
3.802131963896672 7.539682539682534 0
36.19786803610355 2.460317460314189 0
24.43778599481739 8.834956806219463 0
15.56221400515262 1.165043193778376 0
25.8802679856364 4.839988714366954 0
14.1197320143391 5.160011285627149 0
22.95059727078963 4.864872299595612 0
17.04940272918171 5.135127700395652 0
5.553205011701635 7.253851414774934 0
34.44679498829865 2.746148585221225 0
6.991237110079147 1.134334150702031 0
33.00876288991283 8.86566584929599 0
6.942093900590511 8.920518081441605 0
33.05790609940274 1.079481918556579 0
2.934095860566051 4.126984126984119 0
2.934095860566388 5.873015873015864 0
37.04431772709483 5.87301587301102 0
37.04431772709419 4.126984126979083 0
15.56126279808796 8.970084506619216 0
24.43873720188789 1.029915493378089 0
0.7465764083407777 1.904761904761899 0
39.25342359165947 8.09523809523535 0
39.25342359165882 1.9047619047583 0
0.7465764083411147 8.09523809523809 0
39.36496820950691 4.999999999994185 0
0.613445378151194 4.99999999999999 0
31.21856192638582 4.92026418262197 0
8.78143807360561 5.079735817373193 0
1.360021786491972 3.571428571428563 0
38.61839180116637 6.428571428566911 0
1.360021786492309 6.428571428571421 0
38.61839180116573 3.571428571423194 0
6.618516195861133 5.054852232143632 0
33.38148380413967 4.945147767850548 0
$EndNodes
$Elements
5 204 1 204
1 1 1 9
1 1 3 
2 3 4 
3 4 5 
4 5 6 
5 6 7 
6 7 8 
7 8 9 
8 9 10 
9 10 2 
1 2 1 3
10 2 12 
11 12 13 
12 13 11 
1 3 1 9
13 11 15 
14 15 16 
15 16 17 
16 17 18 
17 18 19 
18 19 20 
19 20 21 
20 21 22 
21 22 14 
1 4 1 3
22 14 23 
23 23 24 
24 24 1 
2 1 2 180
25 4 5 44 
26 5 27 44 
27 27 4 44 
28 20 21 45 
29 21 27 45 
30 27 20 45 
31 18 19 46 
32 19 29 46 
33 29 18 46 
34 8 9 47 
35 9 28 47 
36 28 8 47 
37 16 17 48 
38 17 28 48 
39 28 16 48 
40 6 7 49 
41 7 29 49 
42 29 6 49 
43 18 29 50 
44 29 30 50 
45 30 18 50 
46 28 17 51 
47 17 30 51 
48 30 28 51 
49 27 5 52 
50 5 31 52 
51 31 27 52 
52 6 29 53 
53 29 31 53 
54 31 6 53 
55 20 27 54 
56 27 34 54 
57 34 20 54 
58 8 28 55 
59 28 35 55 
60 35 8 55 
61 29 7 56 
62 7 35 56 
63 35 29 56 
64 29 19 57 
65 19 34 57 
66 34 29 57 
67 4 27 58 
68 27 33 58 
69 33 4 58 
70 16 28 59 
71 28 32 59 
72 32 16 59 
73 27 21 60 
74 21 36 60 
75 36 27 60 
76 28 9 61 
77 9 37 61 
78 37 28 61 
79 25 3 62 
80 3 33 62 
81 33 25 62 
82 26 15 63 
83 15 32 63 
84 32 26 63 
85 10 2 64 
86 2 38 64 
87 38 10 64 
88 1 3 65 
89 3 39 65 
90 39 1 65 
91 22 14 66 
92 14 40 66 
93 40 22 66 
94 11 15 67 
95 15 41 67 
96 41 11 67 
97 3 25 68 
98 25 39 68 
99 39 3 68 
100 15 26 69 
101 26 41 69 
102 41 15 69 
103 25 22 70 
104 22 40 70 
105 40 25 70 
106 26 10 71 
107 10 38 71 
108 38 26 71 
109 17 18 72 
110 18 30 72 
111 30 17 72 
112 5 6 73 
113 6 31 73 
114 31 5 73 
115 28 30 74 
116 30 35 74 
117 35 28 74 
118 27 31 75 
119 31 34 75 
120 34 27 75 
121 30 29 76 
122 29 35 76 
123 35 30 76 
124 31 29 77 
125 29 34 77 
126 34 31 77 
127 22 25 78 
128 25 36 78 
129 36 22 78 
130 10 26 79 
131 26 37 79 
132 37 10 79 
133 3 4 80 
134 4 33 80 
135 33 3 80 
136 15 16 81 
137 16 32 81 
138 32 15 81 
139 21 22 82 
140 22 36 82 
141 36 21 82 
142 9 10 83 
143 10 37 83 
144 37 9 83 
145 39 25 84 
146 25 42 84 
147 42 39 84 
148 25 40 85 
149 40 42 85 
150 42 25 85 
151 41 26 86 
152 26 43 86 
153 43 41 86 
154 26 38 87 
155 38 43 87 
156 43 26 87 
157 19 20 88 
158 20 34 88 
159 34 19 88 
160 7 8 89 
161 8 35 89 
162 35 7 89 
163 24 1 90 
164 1 39 90 
165 39 24 90 
166 13 11 91 
167 11 41 91 
168 41 13 91 
169 2 12 92 
170 12 38 92 
171 38 2 92 
172 14 23 93 
173 23 40 93 
174 40 14 93 
175 12 13 94 
176 13 43 94 
177 43 12 94 
178 23 24 95 
179 24 42 95 
180 42 23 95 
181 32 28 96 
182 28 37 96 
183 37 32 96 
184 33 27 97 
185 27 36 97 
186 36 33 97 
187 24 39 98 
188 39 42 98 
189 42 24 98 
190 13 41 99 
191 41 43 99 
192 43 13 99 
193 40 23 100 
194 23 42 100 
195 42 40 100 
196 38 12 101 
197 12 43 101 
198 43 38 101 
199 25 33 102 
200 33 36 102 
201 36 25 102 
202 26 32 103 
203 32 37 103 
204 37 26 103 
$EndElements
