$MeshFormat
4.1 0 8
$EndMeshFormat
$PhysicalNames
5
1 1 "Left"
1 2 "Right"
1 3 "Bottom"
1 4 "Top"
2 5 "Fluid"
$EndPhysicalNames
$Entities
0 4 1 0
1 0 0 0 40 0 0 1 3 0 
2 40 0 0 40 10 0 1 2 0 
3 0 10 0 40 10 0 1 4 0 
4 0 0 0 0 10 0 1 1 0 
1 0 0 0 40 10 0 1 5 0 
$EndEntities
$Nodes
5 68 1 68
1 1 0 9
1
2
3
4
5
6
7
8
9
0 0 0
40 0 0
4.999999999995876 0 0
9.999999999981448 0 0
14.99999999996684 0 0
19.99999999996959 0 0
24.99999999997719 0 0
29.99999999998479 0 0
34.9999999999924 0 0
1 2 0 2
10
11
40 10 0
40 4.999999999992398 0
1 3 0 8
12
13
14
15
16
17
18
19
0 10 0
35 10 0
30 10 0
25 10 0
20 10 0
15 10 0
10 10 0
5 10 0
1 4 0 1
20
0 5 0
2 1 0 48
21
22
23
24
25
26
27
28
29
30
31
32
33
34
35
36
37
38
39
40
41
42
43
44
45
46
47
48
49
50
51
52
53
54
55
56
57
58
59
60
61
62
63
64
65
66
67
68
7.149234693868989 5.031887755099907 0
17.56944444442519 4.895833333332292 0
32.87202380951987 4.978741496598303 0
22.54629629628207 5.104166666665469 0
12.45311318970708 4.9879535147387 0
27.56972001762732 5.013818027210629 0
36.44833006088807 6.330239561463141 0
3.552776691679722 3.670313814818271 0
3.140402277109742 6.740440313983635 0
36.86407077408006 3.261796211610768 0
27.5232400058631 1.671272675736876 0
12.48437106323569 8.329317838246233 0
25.03867210462886 3.372661564625366 0
15.00751921137742 6.627928949356996 0
9.867449294525358 6.673280423279536 0
30.14724794237732 3.330853174602977 0
20.03858024690242 6.666666666665921 0
20.03858024689228 3.333333333332587 0
22.51543209874295 1.70138888888849 0
22.51543209876069 8.368055555555157 0
7.383078231282103 1.677295918366636 0
17.52314814814173 8.298611111110764 0
7.383078231289663 8.343962585033303 0
17.52314814812054 1.631944444444097 0
32.62400793649902 1.659580498866101 0
32.62400793650662 8.326247165532768 0
9.867449294519174 3.339947089946202 0
15.00751921136637 3.294595616023664 0
30.14724794238239 6.664186507936311 0
25.03867210463646 6.705994897958699 0
12.48437106321846 1.662651171579567 0
27.52324000587577 8.337939342403542 0
5.09654565699291 7.257442689694514 0
34.91203152786411 2.746845902736357 0
5.234003795181529 2.900733856639393 0
38.81611002029602 7.110079853818513 0
2.850925563891866 1.223437938272757 0
37.14944335362936 8.776746520487714 0
1.184258897226574 2.890104604939424 0
34.77345129013598 7.102993686020482 0
35.39480821482933 4.856925756557405 0
4.614137887552818 5.147547294633937 0
37.28802359135749 1.087265403870256 0
2.713467425703248 8.913480104661211 0
1.046800759036581 7.246813437994544 0
38.95469025802669 2.753932070534388 0
37.77080027832271 4.864011924355435 0
2.231059656263155 5.136918042933969 0
$EndNodes
$Elements
5 134 1 134
1 1 1 8
1 1 3 
2 3 4 
3 4 5 
4 5 6 
5 6 7 
6 7 8 
7 8 9 
8 9 2 
1 2 1 2
9 2 11 
10 11 10 
1 3 1 8
11 10 13 
12 13 14 
13 14 15 
14 15 16 
15 16 17 
16 17 18 
17 18 19 
18 19 12 
1 4 1 2
19 12 20 
20 20 1 
2 1 2 114
21 7 8 31 
22 8 26 31 
23 26 7 31 
24 17 18 32 
25 18 25 32 
26 25 17 32 
27 24 7 33 
28 7 26 33 
29 26 24 33 
30 22 17 34 
31 17 25 34 
32 25 22 34 
33 18 21 35 
34 21 25 35 
35 25 18 35 
36 8 23 36 
37 23 26 36 
38 26 8 36 
39 16 22 37 
40 22 24 37 
41 24 16 37 
42 22 6 38 
43 6 24 38 
44 24 22 38 
45 6 7 39 
46 7 24 39 
47 24 6 39 
48 15 16 40 
49 16 24 40 
50 24 15 40 
51 3 4 41 
52 4 21 41 
53 21 3 41 
54 16 17 42 
55 17 22 42 
56 22 16 42 
57 18 19 43 
58 19 21 43 
59 21 18 43 
60 5 6 44 
61 6 22 44 
62 22 5 44 
63 8 9 45 
64 9 23 45 
65 23 8 45 
66 13 14 46 
67 14 23 46 
68 23 13 46 
69 21 4 47 
70 4 25 47 
71 25 21 47 
72 5 22 48 
73 22 25 48 
74 25 5 48 
75 23 14 49 
76 14 26 49 
77 26 23 49 
78 15 24 50 
79 24 26 50 
80 26 15 50 
81 4 5 51 
82 5 25 51 
83 25 4 51 
84 14 15 52 
85 15 26 52 
86 26 14 52 
87 21 19 53 
88 19 29 53 
89 29 21 53 
90 23 9 54 
91 9 30 54 
92 30 23 54 
93 3 21 55 
94 21 28 55 
95 28 3 55 
96 11 10 56 
97 10 27 56 
98 27 11 56 
99 1 3 57 
100 3 28 57 
101 28 1 57 
102 10 13 58 
103 13 27 58 
104 27 10 58 
105 20 1 59 
106 1 28 59 
107 28 20 59 
108 13 23 60 
109 23 27 60 
110 27 13 60 
111 27 23 61 
112 23 30 61 
113 30 27 61 
114 28 21 62 
115 21 29 62 
116 29 28 62 
117 9 2 63 
118 2 30 63 
119 30 9 63 
120 19 12 64 
121 12 29 64 
122 29 19 64 
123 12 20 65 
124 20 29 65 
125 29 12 65 
126 2 11 66 
127 11 30 66 
128 30 2 66 
129 11 27 67 
130 27 30 67 
131 30 11 67 
132 20 28 68 
133 28 29 68 
134 29 20 68 
$EndElements
