$MeshFormat
4.1 0 8
$EndMeshFormat
$PhysicalNames
5
1 1 "Left"
1 2 "Right"
1 3 "Bottom"
1 4 "Top"
2 5 "Fluid"
$EndPhysicalNames
$Entities
0 4 1 0
1 0 0 0 40 0 0 1 3 0 
2 40 0 0 40 10 0 1 2 0 
3 0 10 0 40 10 0 1 4 0 
4 0 0 0 0 10 0 1 1 0 
1 0 0 0 40 10 0 1 5 0 
$EndEntities
$Nodes
5 776 1 776
1 1 0 28
1
2
3
4
5
6
7
8
9
10
11
12
13
14
15
16
17
18
19
20
21
22
23
24
25
26
27
28
0 0 0
40 0 0
1.481481481480289 0 0
2.962962962960443 0 0
4.444444444440888 0 0
5.92592592591928 0 0
7.407407407396438 0 0
8.888888888873597 0 0
10.37037037035076 0 0
11.85185185182792 0 0
13.33333333330508 0 0
14.81481481478223 0 0
16.29629629626029 0 0
17.77777777774403 0 0
19.25925925922777 0 0
20.74074074071152 0 0
22.22222222219525 0 0
23.70370370367899 0 0
25.18518518516272 0 0
26.66666666664645 0 0
28.14814814813018 0 0
29.6296296296139 0 0
31.11111111109764 0 0
32.59259259258136 0 0
34.07407407406509 0 0
35.55555555554881 0 0
37.03703703703254 0 0
38.51851851851627 0 0
1 2 0 7
29
30
31
32
33
34
35
40 10 0
40 1.428571428569922 0
40 2.857142857137182 0
40 4.285714285705607 0
40 5.714285714279215 0
40 7.142857142852811 0
40 8.571428571426406 0
1 3 0 27
36
37
38
39
40
41
42
43
44
45
46
47
48
49
50
51
52
53
54
55
56
57
58
59
60
61
62
0 10 0
38.51851851851852 10 0
37.03703703703703 10 0
35.55555555555555 10 0
34.07407407407406 10 0
32.59259259259258 10 0
31.1111111111111 10 0
29.62962962962962 10 0
28.14814814814813 10 0
26.66666666666665 10 0
25.18518518518516 10 0
23.70370370370367 10 0
22.22222222222218 10 0
20.7407407407407 10 0
19.25925925925921 10 0
17.77777777777772 10 0
16.29629629629623 10 0
14.81481481481475 10 0
13.33333333333328 10 0
11.85185185185181 10 0
10.37037037037033 10 0
8.888888888888854 10 0
7.407407407407376 10 0
5.92592592592591 10 0
4.444444444444429 10 0
2.962962962962955 10 0
1.481481481481481 10 0
1 4 0 6
63
64
65
66
67
68
0 8.571428571428569 0
0 7.14285714285714 0
0 5.714285714285706 0
0 4.28571428571427 0
0 2.857142857142846 0
0 1.428571428571423 0
2 1 0 708
69
70
71
72
73
74
75
76
77
78
79
80
81
82
83
84
85
86
87
88
89
90
91
92
93
94
95
96
97
98
99
100
101
102
103
104
105
106
107
108
109
110
111
112
113
114
115
116
117
118
119
120
121
122
123
124
125
126
127
128
129
130
131
132
133
134
135
136
137
138
139
140
141
142
143
144
145
146
147
148
149
150
151
152
153
154
155
156
157
158
159
160
161
162
163
164
165
166
167
168
169
170
171
172
173
174
175
176
177
178
179
180
181
182
183
184
185
186
187
188
189
190
191
192
193
194
195
196
197
198
199
200
201
202
203
204
205
206
207
208
209
210
211
212
213
214
215
216
217
218
219
220
221
222
223
224
225
226
227
228
229
230
231
232
233
234
235
236
237
238
239
240
241
242
243
244
245
246
247
248
249
250
251
252
253
254
255
256
257
258
259
260
261
262
263
264
265
266
267
268
269
270
271
272
273
274
275
276
277
278
279
280
281
282
283
284
285
286
287
288
289
290
291
292
293
294
295
296
297
298
299
300
301
302
303
304
305
306
307
308
309
310
311
312
313
314
315
316
317
318
319
320
321
322
323
324
325
326
327
328
329
330
331
332
333
334
335
336
337
338
339
340
341
342
343
344
345
346
347
348
349
350
351
352
353
354
355
356
357
358
359
360
361
362
363
364
365
366
367
368
369
370
371
372
373
374
375
376
377
378
379
380
381
382
383
384
385
386
387
388
389
390
391
392
393
394
395
396
397
398
399
400
401
402
403
404
405
406
407
408
409
410
411
412
413
414
415
416
417
418
419
420
421
422
423
424
425
426
427
428
429
430
431
432
433
434
435
436
437
438
439
440
441
442
443
444
445
446
447
448
449
450
451
452
453
454
455
456
457
458
459
460
461
462
463
464
465
466
467
468
469
470
471
472
473
474
475
476
477
478
479
480
481
482
483
484
485
486
487
488
489
490
491
492
493
494
495
496
497
498
499
500
501
502
503
504
505
506
507
508
509
510
511
512
513
514
515
516
517
518
519
520
521
522
523
524
525
526
527
528
529
530
531
532
533
534
535
536
537
538
539
540
541
542
543
544
545
546
547
548
549
550
551
552
553
554
555
556
557
558
559
560
561
562
563
564
565
566
567
568
569
570
571
572
573
574
575
576
577
578
579
580
581
582
583
584
585
586
587
588
589
590
591
592
593
594
595
596
597
598
599
600
601
602
603
604
605
606
607
608
609
610
611
612
613
614
615
616
617
618
619
620
621
622
623
624
625
626
627
628
629
630
631
632
633
634
635
636
637
638
639
640
641
642
643
644
645
646
647
648
649
650
651
652
653
654
655
656
657
658
659
660
661
662
663
664
665
666
667
668
669
670
671
672
673
674
675
676
677
678
679
680
681
682
683
684
685
686
687
688
689
690
691
692
693
694
695
696
697
698
699
700
701
702
703
704
705
706
707
708
709
710
711
712
713
714
715
716
717
718
719
720
721
722
723
724
725
726
727
728
729
730
731
732
733
734
735
736
737
738
739
740
741
742
743
744
745
746
747
748
749
750
751
752
753
754
755
756
757
758
759
760
761
762
763
764
765
766
767
768
769
770
771
772
773
774
775
776
4.809026460535545 5.135595263788908 0
35.19097353946938 4.864404736203727 0
11.09447293582966 4.989723636273875 0
17.03703703701026 4.99999999999272 0
28.90552706414971 5.010276363724385 0
22.9500342260746 5.013657707212695 0
31.95578231293224 6.599969205784448 0
8.044217687063576 3.400030794203809 0
19.99999999998127 6.67695473249706 0
14.07407407404366 3.323045267484424 0
25.9259259259259 6.676954732510881 0
14.07407407407403 6.702611488390354 0
25.92592592590461 3.297388511607141 0
19.99999999996964 3.297388511600148 0
8.335593902815766 6.498450724616102 0
31.6644060971736 3.501549275379994 0
2.732246112319136 2.816021799610987 0
2.704910482300623 7.341190160805129 0
37.26775388768014 7.18397820038709 0
37.29508951769854 2.658809839191301 0
5.79187306052 7.690006373614031 0
34.20812693947616 2.309993626386085 0
11.26258421133002 2.570477265260046 0
11.10046951077179 7.435879413016751 0
17.02746152983095 7.425371591791086 0
17.04661254421037 2.574628408200025 0
28.73741578864648 7.429522734739193 0
22.95485663957938 7.420314408878571 0
22.95296905468113 2.569571225286489 0
28.89953048921246 2.564120586981312 0
5.542224907350739 2.323909648486502 0
34.45777509264379 7.67609035150915 0
2.112329077853888 4.999999999999988 0
37.8876709221495 4.999999999992411 0
33.12152665936087 4.747119145271278 0
6.878473340640502 5.252880854721392 0
9.158409828129752 5.14774472197991 0
30.84159017185504 4.852255278012407 0
12.98925089494969 5.008795226451771 0
21.08482317909744 4.991204773539291 0
27.01074910502751 4.991204773547144 0
18.91950983481171 4.991204773545687 0
24.84543576076172 4.99120477356003 0
15.15456423920761 5.00879522643333 0
30.74175240442503 8.103303624763937 0
9.258247595563393 1.896696375227824 0
21.53400153566817 8.108748213846493 0
12.56396700118415 1.889717065174056 0
15.3497532399675 2.095071257349664 0
27.43603299878967 8.110282934825293 0
24.65045664340368 7.904206287944904 0
18.72432083406677 7.904928742641803 0
12.53467519432507 8.117399257178604 0
15.34290355365853 7.91378560145804 0
24.38663499483214 1.883509182542026 0
27.19764356370987 2.084713281218928 0
18.46397063814118 1.884352046357061 0
21.26876970797433 2.085491943831194 0
9.714134581233825 8.13400190031015 0
30.28586541875062 1.865998099687913 0
7.178965209475489 1.964249831964444 0
32.82103479051661 8.035750168030173 0
7.256160182472907 8.251832271456415 0
32.74383981751809 1.748167728541647 0
1.738697337609465 1.635165579551503 0
1.744468693673513 8.370552448076447 0
38.26130266239014 8.364834420448183 0
38.25553130632825 1.629447551921391 0
35.71552439415125 1.835079071501892 0
4.284475605845339 8.164920928495883 0
4.003512081047884 1.531991028618799 0
35.99648791894852 8.468008971379097 0
9.500768674730313 3.313936248737395 0
30.49923132525534 6.686063751255428 0
21.42963330234157 6.534433301072165 0
12.74349379654711 3.457516801641116 0
27.25650620342683 6.542483198356894 0
24.38990021882073 6.388546588103166 0
15.61142677874611 3.610863652951538 0
18.46264729528433 6.389136347032891 0
15.58201150859369 6.399420288981598 0
24.49598009762109 3.453998180952595 0
18.58280041130656 3.454524970828445 0
12.63630601040865 6.546569593879338 0
27.45732107066708 3.599354309110152 0
21.51561024908621 3.599989952054932 0
9.791690968938846 6.557989280138736 0
30.20830903104922 3.442010719853245 0
38.57511244867559 3.655479406565868 0
1.326964483978051 3.780484870486785 0
1.424887551325206 6.3445205934274 0
38.67303551602187 6.21951512950795 0
4.448681007541133 6.634041735410019 0
35.55131899245924 3.365958264584043 0
3.564033418820932 4.238222841665227 0
36.43596658117886 5.761777158329285 0
6.713453848841563 3.714784552148851 0
33.28654615115608 6.285215447841017 0
5.927655096444888 6.054273834567322 0
34.07234490356397 3.945726165431334 0
36.82268866693852 4.217738234144438 0
3.177311333062888 5.782261765849445 0
35.77107208511133 7.052711873451043 0
4.228927914886504 2.947288126544505 0
19.93793649128864 1.110365439512152 0
25.86381761158956 1.110133792880667 0
14.01153774448872 8.889781538890166 0
14.0197317385426 1.116082162096617 0
25.98029824477109 8.883814630087365 0
20.0577558301844 8.883698592044913 0
5.254476929183695 1.114915161638217 0
34.74552307080896 8.885084838359248 0
5.402212360003498 8.873827475829822 0
34.59778763999043 1.126172524169952 0
11.22457848890692 1.125005790071261 0
11.11338910439642 8.873866764513521 0
17.03469058081488 8.808127061975659 0
17.03703703700216 1.1103631942148 0
28.77542151107131 8.874994209927753 0
22.96296296296292 8.889636805784527 0
22.96296296293713 1.110363194216049 0
28.88888888887203 1.110363194215884 0
37.06426190551471 1.227928143209586 0
2.935738094482616 8.772071856792651 0
8.366508539235435 1.147643689694096 0
31.63349146075239 8.852356310301953 0
7.205391964708177 6.746728302246465 0
32.79460803528827 3.25327169774933 0
11.14130146326761 6.089318001891279 0
28.87430305022966 3.935002648603676 0
22.95329980780554 3.878865832483438 0
17.084704202031 3.82956883665297 0
16.99708567522837 6.158011542573272 0
11.11141314791146 3.830207474663986 0
28.8885868520663 6.169792525333934 0
22.92830462953703 6.175051180991725 0
8.476255473031484 8.899393859418211 0
31.52374452695462 1.100606140581495 0
37.17126824154537 8.777855258941509 0
2.828731758451254 1.22214474105623 0
5.188698030789497 3.832705148040773 0
34.81130196921041 6.167294851951238 0
0.9544983528072419 5.012755659583071 0
39.0455016471943 4.987244340409656 0
31.95342883397844 5.415688635146724 0
8.046571166015511 4.584311364834723 0
8.253858472898559 2.286517601394093 0
31.7461415270917 7.713482398596618 0
19.99999999998207 5.536364794253197 0
25.9259259259258 5.536364794273874 0
14.07407407404519 4.463635205718808 0
37.5292193769701 6.056891042720181 0
2.470780623025778 3.943108957273989 0
14.03840470325547 5.583123347055042 0
25.96159529672682 4.416876652940156 0
20.03566937080895 4.416876652926474 0
30.34295688507235 9.12060023479771 0
9.657043114910572 0.8793997651981236 0
6.261800075865128 1.080614928417833 0
33.7381999241272 8.919385071579715 0
38.96200083042476 7.438593806331529 0
1.037999169573839 2.561406193665422 0
1.064046522369136 7.534188923417148 0
38.93595347763245 2.465811076578577 0
6.356715787265938 8.963133224180053 0
33.64328421272622 1.036866775819537 0
29.72471063652216 4.555959991523266 0
10.27841026616415 5.448904138570633 0
20.14596844155606 7.766288178795143 0
13.9281056324715 2.233711821193299 0
26.07189436750066 7.766288178803003 0
22.11474372535236 4.607106172238677 0
11.97309084275999 5.416518772518676 0
28.00923371794077 4.585535748517583 0
17.91082006408299 4.565422235386669 0
23.82014493069345 4.577907818027191 0
16.18294473976144 5.402882892409197 0
7.924888040461942 5.646023193679718 0
32.07511195953125 4.353976806311947 0
0.954109353134601 0.9355568678797853 0
0.9050736318949607 8.978111936438868 0
39.09492636810593 1.021888063558847 0
39.04589064686613 9.064443132120639 0
21.48148148148144 9.202962504511488 0
12.59259259256649 0.7970374954797586 0
15.55555555552126 0.7970374954795436 0
24.44444444444442 9.202962504519187 0
27.4074074074074 9.202962504519169 0
18.51851851851847 9.202962504519464 0
13.90688916714137 7.777603926756059 0
25.75874101896662 2.222396073243693 0
19.83281509302638 2.222396073240549 0
8.328749826322884 7.808725583520016 0
31.67125017365625 2.191274416478642 0
12.59259259259254 9.209840993419224 0
15.55555555555549 9.209840993419236 0
24.44444444442082 0.7901590065800199 0
27.40740740738829 0.7901590065800032 0
18.51851851848591 0.7901590065781365 0
21.48148148145339 0.7901590065781253 0
6.001101576451298 4.651814056490078 0
33.99889842355535 5.348185943494757 0
9.629629629629592 9.219945787669921 0
30.37037037035578 0.7800542123284268 0
10.22226101743931 4.521429475052076 0
29.77818482578612 5.479265400670665 0
22.1015078124806 5.464290627010911 0
17.88388536813265 5.458200012908328 0
28.01412058852222 5.459858521895987 0
11.98234432359958 4.540552382309885 0
23.80653846975659 5.464284751392743 0
16.1941039248987 4.535497916652841 0
29.6989462345075 8.222253245142131 0
10.30105376547691 1.777746754858335 0
31.46948082405534 6.233907197395534 0
8.530519175936467 3.766092802591976 0
6.478214655222597 2.667648010866599 0
33.52178534477216 7.332351989126781 0
7.312212248460209 3.026355059439035 0
32.68778775153498 6.973644940551878 0
31.09808344369627 5.651335888138187 0
8.901916556291859 4.348664111850677 0
9.095231566628122 6.068061575578249 0
30.90476843335929 3.931938424415215 0
8.472963923802487 5.76407288009191 0
31.52703607618663 4.23592711990145 0
22.48394037940349 8.139566476169863 0
11.6837099004737 1.861733373501788 0
23.52275874864866 8.071385834202667 0
28.31629009950248 8.138266626497412 0
17.59549098157087 8.046142465469515 0
16.47780094039334 1.926687619921497 0
12.19001500302043 2.639237044025073 0
21.97283049252971 7.354498641265743 0
27.80998499695433 7.360762955973793 0
18.07147655306068 7.23981222715526 0
19.06232270977746 6.990339940723918 0
15.01175136425242 3.009660059261876 0
23.99840450060126 7.237689094975547 0
24.98876092938344 6.989902536186317 0
16.00259752097466 2.760187772833743 0
11.58284460316443 8.142381811569626 0
16.46835188810145 8.049094751741594 0
23.43418900415013 1.854481200681521 0
28.32868764726479 1.919732354138708 0
17.51587340645124 1.856447882923962 0
22.39490057519753 1.921808787777911 0
31.4003850550931 6.999838451878831 0
8.599614944897482 3.000161548111766 0
14.99966304544208 7.005272459609998 0
15.98412553069439 7.246192494076908 0
23.94519471571145 2.635692862927037 0
12.09048357183517 7.366616088024898 0
18.0311278645527 2.637835141795177 0
26.86029685342719 2.993818700645407 0
27.8514983745298 2.749396059103464 0
20.92812665234339 2.994290135828758 0
21.91244967058056 2.751684373724205 0
30.99570841892402 7.500949924871994 0
9.004291581064088 2.499050075119771 0
36.11178061840493 1.021002404903826 0
3.888219381590794 8.978997595096176 0
37.56429687777089 3.510675826633869 0
2.435703122229572 6.489324173360658 0
10.64266439880068 8.147916025946808 0
29.35809493227837 1.84682729362837 0
10.20209835364815 7.375956864488546 0
29.79790164633744 2.62404313550749 0
37.76182401258787 4.291072546900906 0
2.238175987413994 5.708927453092277 0
37.94610391011975 0.952458565043659 0
2.053896089879203 9.047541434956365 0
3.812689031895698 7.380050941570343 0
36.18731096810301 2.619949058425746 0
36.55228483269869 0.409309381069862 0
3.447715167296666 9.590690618930884 0
3.803639829483072 0.5106636762062663 0
36.1963601705137 9.489336323793033 0
4.841676557968824 7.496323012506644 0
35.15832344202889 2.503676987490673 0
36.73493106584363 9.081954743440201 0
3.265068934153194 0.9180452565583431 0
13.07852214340092 2.526981896002824 0
26.92147785657239 7.473018103995063 0
21.03653442652194 7.469823231237934 0
1.836314206500813 2.337531190942638 0
1.837808566114424 7.748643844099575 0
38.16219143388641 2.25135615589709 0
38.16368579349835 7.662468809055601 0
13.58189116768742 3.004757963439614 0
20.52520058129297 6.99255873745479 0
26.41810883228446 6.995242036556927 0
1.699069921957009 3.052637621254398 0
1.731281518664988 7.073299892549893 0
38.26871848133553 2.926700107445248 0
38.30093007804226 6.947362378742189 0
37.53993915368784 0.409309381069862 0
2.460060846309017 9.590690618930884 0
19.17932653897574 4.287535465766869 0
25.10100371836988 4.287359869150927 0
14.92499348368559 5.663779620823323 0
19.53948992736171 3.722930045118356 0
25.46116710675084 3.722754448499964 0
14.56483009530773 6.228385041475665 0
24.88045203713995 2.519967812246105 0
13.02595679062503 7.480524259271333 0
18.95986204749137 2.520424363475352 0
21.99281532670418 8.733782508047502 0
24.01928801693701 8.665601866082872 0
27.8729539724228 8.729413216424071 0
12.12704602755252 1.270586783575025 0
15.98078194416364 1.334157315681336 0
18.09250997780004 8.638672769712308 0
20.47654443410164 6.249250942607475 0
20.83815216047369 5.687334289621551 0
19.48754909841589 6.200818624594383 0
19.12738571002604 5.638901971610591 0
25.41391735689081 6.200622038295973 0
25.05375396850275 5.638705385312356 0
26.36945268509284 6.251934241713883 0
26.73106041146005 5.690017588725971 0
14.58652497561165 3.799181375384924 0
14.94668836399964 4.361098028367892 0
13.63054731487865 3.74806575828145 0
13.268939588514 4.309982411270565 0
25.39354901416411 2.991260921934476 0
13.53908975054135 7.008928336341917 0
19.47187183476753 2.991436518556381 0
9.278191792165186 7.500238921322968 0
30.7218082078187 2.499761078673266 0
3.850123737473121 5.052026623767859 0
36.14987626252892 4.947973376225817 0
8.818678232692498 6.955055196091618 0
31.18132176729302 3.04494480390396 0
4.145006267046522 5.850632921682791 0
35.85499373295571 4.149367078310736 0
12.08021896377134 8.733702338370451 0
15.97771656334297 8.643917885617645 0
27.83131328665673 1.328411827338272 0
23.93134746739669 1.261343794446032 0
18.00650873120975 1.261624749049999 0
21.90440471745495 1.328671381541789 0
7.825680456479208 2.550266075854115 0
32.17431954351352 7.449733924137079 0
19.6234297585347 7.449390551311335 0
14.45064431549422 2.550609448675796 0
25.54942564561008 7.449149733086262 0
2.016303525847003 0.9524367735359111 0
37.98369647415134 9.047563226463231 0
10.15238443841995 8.742604817497863 0
29.84837489265948 1.252138502077408 0
14.44128893162464 7.464667005534817 0
26.29410350286037 2.534832622023254 0
20.36719493365678 2.535092176223964 0
13.2213205362046 5.712829389128717 0
13.58292826257938 6.277434809774911 0
26.80988849080714 4.335811911865818 0
26.44828076443284 3.77120649121915 0
20.87870093299753 4.336023792840233 0
20.5170932066216 3.771418372193851 0
6.327663397563786 1.789591469622926 0
33.6723366024292 8.210408530373012 0
35.47941402995288 5.597825582161416 0
4.520585970048658 4.402174417831636 0
6.468249676752948 8.301657289750166 0
33.53175032324015 1.698342710249089 0
2.433225069459952 1.891110706739573 0
37.56677493053855 8.108889293258928 0
7.336251115270207 5.881877450215858 0
32.6637488847268 4.118122549777518 0
35.67278021183353 6.327261294577188 0
4.327219788165644 3.672738705416835 0
3.308374727542859 8.092727648697888 0
36.69162527245484 1.907272351300926 0
2.461705756818918 8.161271488558077 0
37.5382942431805 1.838728511440759 0
6.670506800597856 6.017960997178393 0
33.32949319940437 3.982039002817314 0
7.65096038536912 1.037297840552847 0
32.34903961462053 8.962702159444042 0
39.52503748289186 3.599445516469552 0
0.4423214946593503 3.641114004447967 0
0.474962517108402 6.400554483523416 0
39.55767850534063 6.358885995546658 0
32.39858576602225 6.100291096257396 0
32.7871672148318 5.482674409419673 0
7.60141423397355 3.899708903729127 0
7.212832785165858 4.517325590568322 0
37.57560793236697 9.592618419647168 0
2.424392067630662 0.4073815803520767 0
6.949390897579018 1.014954920127425 0
33.05060910241213 8.985045079869963 0
3.188163317272758 1.856719189762005 0
36.81183668272467 8.143280810235899 0
9.686690011923538 2.329459792941185 0
10.35480221717908 2.554053422951925 0
30.31330998806262 7.670540207053833 0
29.64519778280311 7.445946577045585 0
4.710377470097755 9.012916134775233 0
35.28962252989683 0.9870838652239481 0
3.654895369417841 2.431766984924764 0
36.34510463058 7.568233015072409 0
1.391429390741451 0.8569074824770961 0
1.377007935683318 9.116221461505104 0
38.60857060925827 9.143092517522939 0
38.62299206431682 0.8837785384934126 0
4.591554967761709 2.267729601216602 0
35.40844503223455 7.732270398779764 0
5.850267069263146 8.508989024541302 0
34.14973293073094 1.491010975458525 0
5.061787521507188 5.941303611255417 0
5.38940305483534 6.792773981197125 0
34.93821247849753 4.058696388739701 0
34.61059694516646 3.207226018800487 0
7.713274354303922 9.050408710291542 0
32.28672564568469 0.949591289707714 0
6.751141735900362 7.562855649105637 0
33.24885826409417 2.437144350892354 0
5.159520342122946 8.242918259313244 0
34.84047965787261 1.757081740685977 0
7.006761125715407 9.071655165212157 0
32.99323887427522 0.9283448347870613 0
4.567477818224155 0.8823020634190053 0
35.43252218177101 9.117697936579448 0
34.31383269585999 8.493520087149371 0
5.686167304133188 1.506479912847517 0
39.34362661524613 1.638756856235782 0
39.33596382576363 8.358155169959524 0
0.6640361742361467 1.641844830038877 0
0.656373384754699 8.361243143761529 0
4.933404639194106 1.656938612914506 0
35.06659536080042 8.343061387082498 0
39.20687136528996 4.309479344227044 0
0.7604876122617643 4.359651605261376 0
0.7931286347108161 5.690520655765392 0
39.23951238773872 5.640348394732274 0
1.464597304879727 4.597746843356615 0
1.497238327328779 5.452425417670153 0
38.53540269512189 5.402253156636672 0
38.50276167267313 4.547574582322645 0
32.40323267548754 2.397571280923206 0
7.596767324501323 7.602428719074299 0
28.4103848700364 3.366159181565047 0
11.62602566148268 6.690589002929123 0
16.58091450832916 3.338353632601511 0
17.49573150011455 6.657506493799083 0
11.70583038526286 3.286067180521716 0
28.2941696147132 6.713932819476674 0
2.95122460991257 5.006828202504887 0
37.04877539008896 4.993171797488711 0
23.46741632003592 3.300811746240841 0
23.42435382931238 6.661304059324487 0
36.55636572569876 3.414168779306594 0
3.443634274301548 6.585831220688198 0
5.257527576791278 9.624609158609941 0
34.74247242320144 0.375390841389984 0
32.04342143537271 2.982031796535989 0
7.956578564615609 7.017968203460861 0
10.62492201132393 3.238206996220475 0
29.37507798865604 6.761793003776185 0
9.627146506766458 4.327703481923127 0
30.37300210763216 5.672528143312834 0
22.43759819048599 6.709932963647486 0
3.508402482008858 3.333844255940239 0
36.49159751799011 6.666155744055806 0
16.53551957121767 6.660934474448652 0
17.57137238584931 3.28624073856048 0
22.47395970385763 3.34947566994162 0
15.63984016252091 5.603699469274709 0
24.38718692969209 4.341036924179939 0
18.47104343673375 4.337050659920267 0
12.53288258270611 5.657294530949929 0
27.49243463121179 4.392031610391626 0
21.57172571784534 4.399433632610966 0
10.67782064765942 6.694395565015589 0
29.32738085683044 3.313711318479411 0
38.75639804656034 8.289290452966783 0
1.237862949312537 8.294284435977488 0
1.243601953439302 1.710709547032237 0
38.76213705068888 1.705715564019605 0
21.53865476463987 5.663309567207456 0
12.57169633836546 4.335621470134257 0
27.42712529899218 5.664515497933341 0
24.34729148311301 5.61467870435198 0
15.65336498095081 4.385052265345903 0
18.42201416607623 5.612847044495635 0
2.176663739774322 3.513205209123921 0
37.82333626022404 6.48679479087174 0
9.742837021077584 5.718212713563093 0
30.25820327980881 4.283408663129639 0
0.3459997231912797 2.282373493126564 0
0.3546821741230453 7.749491545900952 0
39.64531782587748 2.250508454095227 0
39.65400027680825 7.717626506870249 0
7.821957969328629 6.297067406847429 0
32.17804203066438 3.702932593147091 0
39.17035530876935 2.992811113427209 0
0.7883212178506301 3.066344640431685 0
0.8296446912314472 7.007188886567229 0
39.21167878214888 6.933655359564097 0
5.208282433181288 0.371638387212739 0
34.79171756681286 9.628361612786415 0
19.97931216374264 0.3701218131707174 0
25.90522315446625 0.370044597626889 0
14.05322863087892 9.629927179630055 0
14.05595996220997 0.372027387365539 0
25.94405003220763 9.627938210029122 0
20.01925194339477 9.627899530681638 0
1.970024728285906 4.24119794258692 0
38.02997527171382 5.758802057406847 0
31.74248274354454 0.366868713527165 0
8.25751725644257 9.633131286472738 0
5.814792262327266 3.290466449558709 0
34.18520773767009 6.709533550433801 0
8.220934945168489 0.3825478965646987 0
31.77906505481869 9.617452103433985 0
11.14893357036187 0.3750019300237536 0
17.03703703700216 0.3701210647382667 0
11.11187044220619 9.62462225483784 0
17.03625488496294 9.602709020658553 0
28.85106642961635 9.624998069975918 0
22.96296296296292 9.629878935261509 0
22.96296296293712 0.370121064738683 0
28.88888888887204 0.370121064738628 0
6.531711136393615 0.3602049761392777 0
33.46828886359795 9.639795023859905 0
2.715714373233533 4.393777266313068 0
37.28428562676616 5.606222733680625 0
2.922353384721949 3.665784532850067 0
37.07764661527636 6.334215467145519 0
18.97347521597191 1.26162549748245 0
19.23857142300077 0.6335081486967629 0
20.89606256023879 1.328672129973824 0
13.04626851046878 8.739007263162664 0
20.72005290448451 0.6335081486967592 0
26.82295619422924 1.328335360226533 0
24.89829901694751 1.261267327334238 0
13.31248789013818 9.366540844103129 0
26.6459638952081 0.6334309331535567 0
25.16448241372437 0.6334309331535622 0
14.96999895123425 8.671136044589147 0
14.79396937161965 9.366540844103135 0
20.75999268413551 9.362220365518802 0
21.02441294911134 8.731803103467632 0
26.68479077294838 9.362259044868845 0
25.20330929146689 9.36225904486885 0
14.7967007029487 0.6377065525253869 0
13.31521922147139 0.6377065525254585 0
14.97501351134379 1.336063638308608 0
26.94124621698939 8.732353356477276 0
25.0250664442064 8.663661140850484 0
13.05876377743108 1.26761224091681 0
19.27851120265403 9.362220365521459 0
19.10019839425655 8.663863279735393 0
39.20448162887406 0.3406293545196157 0
0.7955183711254805 9.659370645479623 0
0.8118636115382967 0.3118522892932618 0
39.18813638846155 9.688147710706879 0
10.41733065805608 0.6681351850897949 0
29.58266934192443 9.331864814908487 0
6.531009588644454 4.539826487786773 0
33.46899041135743 5.46017351220235 0
16.29629629626124 0.6358002298981146 0
11.88967431110044 0.6406810951836731 0
17.77699562570369 9.337029855498374 0
22.22222222222218 9.364199770098672 0
28.11032568887562 9.359318904815639 0
23.70370370370367 9.364199770101237 0
11.85261118294692 9.361235919310916 0
16.2955141442222 9.339322685131632 0
17.77777777774403 0.6335074002643122 0
22.22222222219526 0.6335074002647247 0
23.70370370367898 0.6335074002653563 0
28.14814814813016 0.6335074002652957 0
10.37112970146545 9.364604184061148 0
29.6296296296139 0.6301391355147703 0
0.318036451044867 0.7880427654837362 0
39.69830878936865 0.8168198307095897 0
0.3016912106316536 9.183180169289146 0
39.68196354895537 9.211957234515681 0
6.308306707224355 6.830336170142606 0
33.69169329277614 3.169663829855583 0
33.43665029312422 0.3456222586065123 0
6.563349706866408 9.654377741393352 0
39.6818338823981 4.995748113464827 0
0.318166117602414 5.004251886527682 0
6.269076671178897 5.31965624859293 0
5.579261044477243 5.280561051615436 0
33.73092332882673 4.680343751399123 0
34.42073895552957 4.719438948376606 0
4.986616951008913 3.034634307690594 0
35.01338304898851 6.96536569230381 0
10.39422512309813 1.26071743670924 0
29.60577487688372 8.739282563289198 0
20.34650709742978 1.806084485527965 0
26.27340073142202 1.805747715781096 0
14.42044348842954 8.193723689034755 0
31.02918648564528 9.324318848366554 0
30.90606691674992 8.692086723287867 0
8.970813514339868 0.6756811516307399 0
9.093933083236466 1.307913276706681 0
14.43253020366053 1.814955080213194 0
25.56754975189181 8.18476969894509 0
19.64268170193574 8.184971837827286 0
30.36123254193769 9.706866744932571 0
9.638767458044976 0.2931332550660412 0
28.1136192796125 4.03996423541047 0
11.91689943881208 6.017468789429763 0
21.48148148148144 9.734320834837163 0
15.55555555552126 0.2656791651598479 0
12.5925925925665 0.2656791651599195 0
24.44444444444442 9.734320834839728 0
27.40740740740739 9.734320834839723 0
18.51851851851847 9.734320834839821 0
12.59259259259254 9.736613664473074 0
15.55555555555549 9.736613664473078 0
24.44444444442084 0.2633863355266733 0
27.40740740738831 0.2633863355266677 0
18.5185185184859 0.2633863355260455 0
21.48148148145339 0.2633863355260418 0
9.629629629629591 9.739981929223307 0
30.37037037035577 0.2600180707761423 0
23.75647494537336 3.970257277154408 0
31.62337698845491 4.873973573157026 0
8.376623011535735 5.126026426831451 0
28.59635461077338 4.510271586948548 0
11.40295508061909 5.49852013689461 0
16.2967449685586 3.991976802085782 0
17.78120611288179 6.001782634171497 0
11.94575042268605 3.942758886204996 0
28.05307121467179 6.057378081862272 0
9.273339894631633 8.751113849132761 0
8.998257997183309 9.373113215696044 0
30.72666010535367 1.248886150865945 0
31.00174200280268 0.6268867843033074 0
23.24115965485786 4.490143785907774 0
23.70824777270478 6.009294173495878 0
20.57924193580288 8.252911661562182 0
13.50393479073275 1.746503682821324 0
26.49607520368714 8.253461914571886 0
13.48436736865172 8.261594907608275 0
25.33639787512944 1.738679682888796 0
19.41157407415207 1.739037853036588 0
5.814067643656035 0.7318433633520166 0
34.18593235633674 9.268156636646321 0
32.06688925945357 8.200529625642915 0
7.933110740536494 1.799470374350878 0
31.37379513075637 8.223047444554169 0
8.626204869232462 1.776952555438671 0
5.894951357731782 9.278986900003291 0
34.10504864226058 0.7210130999964962 0
16.25401397452783 5.986771574654689 0
16.73902248400002 5.52029814499173 0
17.85944155914018 3.949838680956029 0
17.34418710104142 4.464997024010786 0
22.67269258641083 4.499876570644936 0
22.19455126074803 4.028653985592348 0
10.83806155508714 5.509315258911929 0
10.40380089945687 6.032070473533548 0
29.16818025030051 4.500413001283776 0
29.60244090593368 3.977657786660062 0
16.77194838797999 4.455022251099511 0
17.30600269345709 5.538737185158106 0
11.3960768024469 4.453494497749249 0
28.60274483491274 5.546642470318102 0
23.22829244178941 5.550997879865721 0
10.92940548857128 1.82440993672988 0
29.07059451140843 8.175590063269691 0
31.97961150604299 1.680016095200595 0
8.020388493942425 8.319983904798214 0
29.72200100103592 6.111707225753342 0
10.27814761336036 3.888524399484486 0
29.19076624733404 5.553111429909662 0
10.80938236706014 4.44712019532998 0
22.15314858145307 6.057925036358267 0
22.65994888936408 5.550999838405111 0
34.03224884797395 5.933565414429005 0
5.967751152027453 4.066434585559901 0
19.65172640186758 4.98148207357512 0
25.57765232780478 4.981482073591354 0
14.42234767216942 5.018517926402393 0
8.839713293529398 8.280707114416126 0
31.16028670645383 1.719292885582683 0
5.332942022592113 4.540038156106586 0
34.66705797741171 5.45996184388324 0
9.886360370577735 5.039359445200873 0
30.11482854472111 4.962493556735446 0
13.70057655741678 5.018517926408541 0
26.29942344256004 4.981482073587059 0
20.37349751662948 4.981482073572987 0
7.616644182372652 5.161071804411944 0
32.38335581762352 4.83892819557665 0
15.84387096795592 4.982392011831789 0
18.23807175567579 5.004942340613561 0
21.76702490564347 5.020867190929626 0
24.15737305373726 5.011132447659988 0
12.31489535376975 4.988622127093444 0
27.67803447049684 5.012199681320239 0
9.738781491983625 1.517947631761428 0
30.26121850800163 8.482052368234593 0
10.53171473981104 4.986685749965528 0
29.469474175486 5.015167251972772 0
22.38876192130252 5.028351502154094 0
17.6105808230753 5.007874082762572 0
11.68330270072975 4.982264930367479 0
28.30962712353757 5.018556878045985 0
23.52557254217488 5.018616758877543 0
16.4713619005568 4.979460269684918 0
$EndNodes
$Elements
5 1550 1 1550
1 1 1 27
1 1 3 
2 3 4 
3 4 5 
4 5 6 
5 6 7 
6 7 8 
7 8 9 
8 9 10 
9 10 11 
10 11 12 
11 12 13 
12 13 14 
13 14 15 
14 15 16 
15 16 17 
16 17 18 
17 18 19 
18 19 20 
19 20 21 
20 21 22 
21 22 23 
22 23 24 
23 24 25 
24 25 26 
25 26 27 
26 27 28 
27 28 2 
1 2 1 7
28 2 30 
29 30 31 
30 31 32 
31 32 33 
32 33 34 
33 34 35 
34 35 29 
1 3 1 27
35 29 37 
36 37 38 
37 38 39 
38 39 40 
39 40 41 
40 41 42 
41 42 43 
42 43 44 
43 44 45 
44 45 46 
45 46 47 
46 47 48 
47 48 49 
48 49 50 
49 50 51 
50 51 52 
51 52 53 
52 53 54 
53 54 55 
54 55 56 
55 56 57 
56 57 58 
57 58 59 
58 59 60 
59 60 61 
60 61 62 
61 62 36 
1 4 1 7
62 36 63 
63 63 64 
64 64 65 
65 65 66 
66 66 67 
67 67 68 
68 68 1 
2 1 2 1482
69 75 142 283 
70 142 213 283 
71 213 75 283 
72 76 141 284 
73 141 214 284 
74 214 76 284 
75 99 129 285 
76 129 165 285 
77 165 99 285 
78 100 130 286 
79 130 166 286 
80 166 100 286 
81 129 76 287 
82 76 165 287 
83 165 129 287 
84 130 75 288 
85 75 166 288 
86 166 130 288 
87 142 106 289 
88 106 213 289 
89 213 142 289 
90 141 105 290 
91 105 214 290 
92 214 141 290 
93 83 105 291 
94 105 155 291 
95 155 83 291 
96 84 106 292 
97 106 156 292 
98 156 84 292 
99 105 83 293 
100 83 246 293 
101 246 105 293 
102 106 84 294 
103 84 247 294 
104 247 106 294 
105 115 96 295 
106 96 188 295 
107 188 115 295 
108 116 91 296 
109 91 183 296 
110 183 116 296 
111 96 119 297 
112 119 188 297 
113 188 96 297 
114 118 95 298 
115 95 187 298 
116 187 118 298 
117 93 120 299 
118 120 185 299 
119 185 93 299 
120 94 117 300 
121 117 186 300 
122 186 94 300 
123 91 116 301 
124 116 144 301 
125 144 91 301 
126 96 115 302 
127 115 143 302 
128 143 96 302 
129 95 118 303 
130 118 145 303 
131 145 95 303 
132 120 93 304 
133 93 148 304 
134 148 120 304 
135 77 120 305 
136 120 148 305 
137 148 77 305 
138 78 117 306 
139 117 147 306 
140 147 78 306 
141 119 96 307 
142 96 146 307 
143 146 119 307 
144 79 119 308 
145 119 146 308 
146 146 79 308 
147 117 94 309 
148 94 147 309 
149 147 117 309 
150 92 121 310 
151 121 184 310 
152 184 92 310 
153 122 93 311 
154 93 185 311 
155 185 122 311 
156 123 97 312 
157 97 189 312 
158 189 123 312 
159 98 124 313 
160 124 190 313 
161 190 98 313 
162 125 94 314 
163 94 186 314 
164 186 125 314 
165 97 126 315 
166 126 189 315 
167 189 97 315 
168 142 75 316 
169 75 216 316 
170 216 142 316 
171 141 76 317 
172 76 215 317 
173 215 141 317 
174 122 80 318 
175 80 149 318 
176 149 122 318 
177 93 122 319 
178 122 149 319 
179 149 93 319 
180 97 123 320 
181 123 150 320 
182 150 97 320 
183 121 92 321 
184 92 152 321 
185 152 121 321 
186 94 125 322 
187 125 151 322 
188 151 94 322 
189 81 124 323 
190 124 153 323 
191 153 81 323 
192 124 98 324 
193 98 153 324 
194 153 124 324 
195 82 126 325 
196 126 154 325 
197 154 82 325 
198 126 97 326 
199 97 154 326 
200 154 126 326 
201 113 142 327 
202 142 216 327 
203 216 113 327 
204 114 141 328 
205 141 215 328 
206 215 114 328 
207 137 26 329 
208 26 191 329 
209 191 137 329 
210 138 60 330 
211 60 192 330 
212 192 138 330 
213 88 157 331 
214 157 169 331 
215 169 88 331 
216 86 159 332 
217 159 170 332 
218 170 86 332 
219 127 92 333 
220 92 184 333 
221 184 127 333 
222 128 98 334 
223 98 190 334 
224 190 128 334 
225 92 127 335 
226 127 155 335 
227 155 92 335 
228 98 128 336 
229 128 156 336 
230 156 98 336 
231 157 102 337 
232 102 169 337 
233 169 157 337 
234 159 101 338 
235 101 170 338 
236 170 159 338 
237 28 136 339 
238 136 191 339 
239 191 28 339 
240 62 134 340 
241 134 192 340 
242 192 62 340 
243 138 86 341 
244 86 161 341 
245 161 138 341 
246 137 88 342 
247 88 162 342 
248 162 137 342 
249 26 27 343 
250 27 191 343 
251 191 26 343 
252 60 61 344 
253 61 192 344 
254 192 60 344 
255 4 5 345 
256 5 139 345 
257 139 4 345 
258 38 39 346 
259 39 140 346 
260 140 38 346 
261 89 138 347 
262 138 161 347 
263 161 89 347 
264 90 137 348 
265 137 162 348 
266 162 90 348 
267 38 140 349 
268 140 207 349 
269 207 38 349 
270 4 139 350 
271 139 208 350 
272 208 4 350 
273 144 116 351 
274 116 238 351 
275 238 144 351 
276 145 118 352 
277 118 239 352 
278 239 145 352 
279 143 115 353 
280 115 237 353 
281 237 143 353 
282 133 85 354 
283 85 230 354 
284 230 133 354 
285 86 134 355 
286 134 231 355 
287 231 86 355 
288 88 136 356 
289 136 232 356 
290 232 88 356 
291 135 87 357 
292 87 229 357 
293 229 135 357 
294 78 144 358 
295 144 238 358 
296 238 78 358 
297 77 143 359 
298 143 237 359 
299 237 77 359 
300 79 145 360 
301 145 239 360 
302 239 79 360 
303 85 158 361 
304 158 230 361 
305 230 85 361 
306 159 86 362 
307 86 231 362 
308 231 159 362 
309 157 88 363 
310 88 232 363 
311 232 157 363 
312 87 160 364 
313 160 229 364 
314 229 87 364 
315 27 28 365 
316 28 191 365 
317 191 27 365 
318 61 62 366 
319 62 192 366 
320 192 61 366 
321 110 151 367 
322 151 224 367 
323 224 110 367 
324 111 150 368 
325 150 223 368 
326 223 111 368 
327 112 149 369 
328 149 222 369 
329 222 112 369 
330 151 82 370 
331 82 224 370 
332 224 151 370 
333 150 81 371 
334 81 223 371 
335 223 150 371 
336 149 80 372 
337 80 222 372 
338 222 149 372 
339 150 123 373 
340 123 259 373 
341 259 150 373 
342 121 152 374 
343 152 258 374 
344 258 121 374 
345 151 125 375 
346 125 260 375 
347 260 151 375 
348 115 188 376 
349 188 252 376 
350 252 115 376 
351 188 119 377 
352 119 255 377 
353 255 188 377 
354 118 187 378 
355 187 256 378 
356 256 118 378 
357 116 183 379 
358 183 253 379 
359 253 116 379 
360 186 117 380 
361 117 254 380 
362 254 186 380 
363 185 120 381 
364 120 257 381 
365 257 185 381 
366 143 77 382 
367 77 217 382 
368 217 143 382 
369 108 143 383 
370 143 217 383 
371 217 108 383 
372 77 148 384 
373 148 217 384 
374 217 77 384 
375 148 110 385 
376 110 217 385 
377 217 148 385 
378 79 146 386 
379 146 218 386 
380 218 79 386 
381 146 111 387 
382 111 218 387 
383 218 146 387 
384 145 79 388 
385 79 218 388 
386 218 145 388 
387 109 145 389 
388 145 218 389 
389 218 109 389 
390 78 147 390 
391 147 219 390 
392 219 78 390 
393 147 112 391 
394 112 219 391 
395 219 147 391 
396 144 78 392 
397 78 219 392 
398 219 144 392 
399 107 144 393 
400 144 219 393 
401 219 107 393 
402 81 150 394 
403 150 259 394 
404 259 81 394 
405 152 80 395 
406 80 258 395 
407 258 152 395 
408 82 151 396 
409 151 260 396 
410 260 82 396 
411 155 127 397 
412 127 261 397 
413 261 155 397 
414 156 128 398 
415 128 262 398 
416 262 156 398 
417 163 69 399 
418 69 170 399 
419 170 163 399 
420 164 70 400 
421 70 169 400 
422 169 164 400 
423 83 155 401 
424 155 261 401 
425 261 83 401 
426 84 156 402 
427 156 262 402 
428 262 84 402 
429 69 161 403 
430 161 170 403 
431 170 69 403 
432 70 162 404 
433 162 169 404 
434 169 70 404 
435 184 121 405 
436 121 263 405 
437 263 184 405 
438 122 185 406 
439 185 264 406 
440 264 122 406 
441 190 124 407 
442 124 266 407 
443 266 190 407 
444 123 189 408 
445 189 265 408 
446 265 123 408 
447 125 186 409 
448 186 267 409 
449 267 125 409 
450 189 126 410 
451 126 268 410 
452 268 189 410 
453 76 129 411 
454 129 215 411 
455 215 76 411 
456 75 130 412 
457 130 216 412 
458 216 75 412 
459 120 77 413 
460 77 237 413 
461 237 120 413 
462 117 78 414 
463 78 238 414 
464 238 117 414 
465 119 79 415 
466 79 239 415 
467 239 119 415 
468 133 3 416 
469 3 208 416 
470 208 133 416 
471 135 37 417 
472 37 207 417 
473 207 135 417 
474 127 184 418 
475 184 271 418 
476 271 127 418 
477 128 190 419 
478 190 272 419 
479 272 128 419 
480 80 122 420 
481 122 258 420 
482 258 80 420 
483 124 81 421 
484 81 259 421 
485 259 124 421 
486 126 82 422 
487 82 260 422 
488 260 126 422 
489 152 107 423 
490 107 222 423 
491 222 152 423 
492 80 152 424 
493 152 222 424 
494 222 80 424 
495 153 109 425 
496 109 223 425 
497 223 153 425 
498 81 153 426 
499 153 223 426 
500 223 81 426 
501 154 108 427 
502 108 224 427 
503 224 154 427 
504 82 154 428 
505 154 224 428 
506 224 82 428 
507 129 99 429 
508 99 227 429 
509 227 129 429 
510 130 100 430 
511 100 228 430 
512 228 130 430 
513 70 164 431 
514 164 210 431 
515 210 70 431 
516 69 163 432 
517 163 209 432 
518 209 69 432 
519 89 131 433 
520 131 233 433 
521 233 89 433 
522 90 132 434 
523 132 234 434 
524 234 90 434 
525 85 133 435 
526 133 208 435 
527 208 85 435 
528 87 135 436 
529 135 207 436 
530 207 87 436 
531 195 104 437 
532 104 246 437 
533 246 195 437 
534 196 103 438 
535 103 247 438 
536 247 196 438 
537 164 171 439 
538 171 210 439 
539 210 164 439 
540 163 172 440 
541 172 209 440 
542 209 163 440 
543 86 138 441 
544 138 192 441 
545 192 86 441 
546 88 137 442 
547 137 191 442 
548 191 88 442 
549 134 86 443 
550 86 192 443 
551 192 134 443 
552 136 88 444 
553 88 191 444 
554 191 136 444 
555 167 104 445 
556 104 195 445 
557 195 167 445 
558 168 103 446 
559 103 196 446 
560 196 168 446 
561 129 7 447 
562 7 193 447 
563 193 129 447 
564 130 41 448 
565 41 194 448 
566 194 130 448 
567 31 32 449 
568 32 157 449 
569 157 31 449 
570 66 67 450 
571 67 158 450 
572 158 66 450 
573 64 65 451 
574 65 159 451 
575 159 64 451 
576 33 34 452 
577 34 160 452 
578 160 33 452 
579 166 75 453 
580 75 213 453 
581 213 166 453 
582 103 166 454 
583 166 213 454 
584 213 103 454 
585 165 76 455 
586 76 214 455 
587 214 165 455 
588 104 165 456 
589 165 214 456 
590 214 104 456 
591 37 38 457 
592 38 207 457 
593 207 37 457 
594 3 4 458 
595 4 208 458 
596 208 3 458 
597 7 129 459 
598 129 227 459 
599 227 7 459 
600 41 130 460 
601 130 228 460 
602 228 41 460 
603 139 85 461 
604 85 208 461 
605 208 139 461 
606 140 87 462 
607 87 207 462 
608 207 140 462 
609 141 114 463 
610 114 282 463 
611 282 141 463 
612 91 141 464 
613 141 282 464 
614 282 91 464 
615 142 113 465 
616 113 281 465 
617 281 142 465 
618 95 142 466 
619 142 281 466 
620 281 95 466 
621 60 138 467 
622 138 181 467 
623 181 60 467 
624 26 137 468 
625 137 182 468 
626 182 26 468 
627 85 139 469 
628 139 172 469 
629 172 85 469 
630 87 140 470 
631 140 171 470 
632 171 87 470 
633 3 133 471 
634 133 248 471 
635 248 3 471 
636 134 62 472 
637 62 249 472 
638 249 134 472 
639 37 135 473 
640 135 251 473 
641 251 37 473 
642 136 28 474 
643 28 250 474 
644 250 136 474 
645 139 99 475 
646 99 172 475 
647 172 139 475 
648 140 100 476 
649 100 171 476 
650 171 140 476 
651 181 89 477 
652 89 233 477 
653 233 181 477 
654 182 90 478 
655 90 234 478 
656 234 182 478 
657 161 69 479 
658 69 167 479 
659 167 161 479 
660 89 161 480 
661 161 167 480 
662 167 89 480 
663 162 70 481 
664 70 168 481 
665 168 162 481 
666 90 162 482 
667 162 168 482 
668 168 90 482 
669 58 131 483 
670 131 205 483 
671 205 58 483 
672 24 132 484 
673 132 206 484 
674 206 24 484 
675 131 89 485 
676 89 195 485 
677 195 131 485 
678 132 90 486 
679 90 196 486 
680 196 132 486 
681 138 89 487 
682 89 181 487 
683 181 138 487 
684 137 90 488 
685 90 182 488 
686 182 137 488 
687 131 58 489 
688 58 233 489 
689 233 131 489 
690 132 24 490 
691 24 234 490 
692 234 132 490 
693 139 5 491 
694 5 179 491 
695 179 139 491 
696 140 39 492 
697 39 180 492 
698 180 140 492 
699 100 180 493 
700 180 228 493 
701 228 100 493 
702 99 179 494 
703 179 227 494 
704 227 99 494 
705 30 232 495 
706 232 250 495 
707 250 30 495 
708 229 35 496 
709 35 251 496 
710 251 229 496 
711 230 68 497 
712 68 248 497 
713 248 230 497 
714 63 231 498 
715 231 249 498 
716 249 63 498 
717 99 139 499 
718 139 179 499 
719 179 99 499 
720 100 140 500 
721 140 180 500 
722 180 100 500 
723 157 32 501 
724 32 212 501 
725 212 157 501 
726 66 158 502 
727 158 211 502 
728 211 66 502 
729 159 65 503 
730 65 211 503 
731 211 159 503 
732 33 160 504 
733 160 212 504 
734 212 33 504 
735 158 101 505 
736 101 211 505 
737 211 158 505 
738 101 159 506 
739 159 211 506 
740 211 101 506 
741 160 102 507 
742 102 212 507 
743 212 160 507 
744 102 157 508 
745 157 212 508 
746 212 102 508 
747 132 196 509 
748 196 262 509 
749 262 132 509 
750 131 195 510 
751 195 261 510 
752 261 131 510 
753 153 98 511 
754 98 198 511 
755 198 153 511 
756 152 92 512 
757 92 197 512 
758 197 152 512 
759 147 94 513 
760 94 200 513 
761 200 147 513 
762 148 93 514 
763 93 201 514 
764 201 148 514 
765 91 144 515 
766 144 202 515 
767 202 91 515 
768 95 145 516 
769 145 203 516 
770 203 95 516 
771 101 163 517 
772 163 170 517 
773 170 101 517 
774 102 164 518 
775 164 169 518 
776 169 102 518 
777 97 150 519 
778 150 199 519 
779 199 97 519 
780 146 96 520 
781 96 204 520 
782 204 146 520 
783 162 88 521 
784 88 169 521 
785 169 162 521 
786 161 86 522 
787 86 170 522 
788 170 161 522 
789 59 60 523 
790 60 181 523 
791 181 59 523 
792 25 26 524 
793 26 182 524 
794 182 25 524 
795 196 84 525 
796 84 262 525 
797 262 196 525 
798 195 83 526 
799 83 261 526 
800 261 195 526 
801 141 91 527 
802 91 202 527 
803 202 141 527 
804 142 95 528 
805 95 203 528 
806 203 142 528 
807 105 141 529 
808 141 273 529 
809 273 105 529 
810 106 142 530 
811 142 274 530 
812 274 106 530 
813 96 143 531 
814 143 204 531 
815 204 96 531 
816 163 85 532 
817 85 172 532 
818 172 163 532 
819 164 87 533 
820 87 171 533 
821 171 164 533 
822 93 149 534 
823 149 201 534 
824 201 93 534 
825 94 151 535 
826 151 200 535 
827 200 94 535 
828 154 97 536 
829 97 199 536 
830 199 154 536 
831 149 112 537 
832 112 245 537 
833 245 149 537 
834 150 111 538 
835 111 244 538 
836 244 150 538 
837 151 110 539 
838 110 243 539 
839 243 151 539 
840 107 152 540 
841 152 241 540 
842 241 107 540 
843 109 153 541 
844 153 242 541 
845 242 109 541 
846 108 154 542 
847 154 240 542 
848 240 108 542 
849 92 155 543 
850 155 197 543 
851 197 92 543 
852 98 156 544 
853 156 198 544 
854 198 98 544 
855 135 229 545 
856 229 251 545 
857 251 135 545 
858 231 134 546 
859 134 249 546 
860 249 231 546 
861 133 230 547 
862 230 248 547 
863 248 133 547 
864 232 136 548 
865 136 250 548 
866 250 232 548 
867 143 108 549 
868 108 275 549 
869 275 143 549 
870 144 107 550 
871 107 278 550 
872 278 144 550 
873 145 109 551 
874 109 277 551 
875 277 145 551 
876 111 146 552 
877 146 279 552 
878 279 111 552 
879 112 147 553 
880 147 280 553 
881 280 112 553 
882 110 148 554 
883 148 276 554 
884 276 110 554 
885 158 85 555 
886 85 221 555 
887 221 158 555 
888 160 87 556 
889 87 220 556 
890 220 160 556 
891 155 105 557 
892 105 236 557 
893 236 155 557 
894 156 106 558 
895 106 235 558 
896 235 156 558 
897 67 68 559 
898 68 230 559 
899 230 67 559 
900 63 64 560 
901 64 231 560 
902 231 63 560 
903 30 31 561 
904 31 232 561 
905 232 30 561 
906 34 35 562 
907 35 229 562 
908 229 34 562 
909 83 195 563 
910 195 246 563 
911 246 83 563 
912 84 196 564 
913 196 247 564 
914 247 84 564 
915 31 157 565 
916 157 232 565 
917 232 31 565 
918 158 67 566 
919 67 230 566 
920 230 158 566 
921 64 159 567 
922 159 231 567 
923 231 64 567 
924 160 34 568 
925 34 229 568 
926 229 160 568 
927 5 6 569 
928 6 179 569 
929 179 5 569 
930 39 40 570 
931 40 180 570 
932 180 39 570 
933 15 16 571 
934 16 173 571 
935 173 15 571 
936 19 20 572 
937 20 174 572 
938 174 19 572 
939 53 54 573 
940 54 175 573 
941 175 53 573 
942 11 12 574 
943 12 176 574 
944 176 11 574 
945 45 46 575 
946 46 177 575 
947 177 45 575 
948 49 50 576 
949 50 178 576 
950 178 49 576 
951 101 158 577 
952 158 221 577 
953 221 101 577 
954 102 160 578 
955 160 220 578 
956 220 102 578 
957 23 24 579 
958 24 206 579 
959 206 23 579 
960 57 58 580 
961 58 205 580 
962 205 57 580 
963 99 165 581 
964 165 209 581 
965 209 99 581 
966 100 166 582 
967 166 210 582 
968 210 100 582 
969 7 8 583 
970 8 193 583 
971 193 7 583 
972 41 42 584 
973 42 194 584 
974 194 41 584 
975 9 10 585 
976 10 183 585 
977 183 9 585 
978 13 14 586 
979 14 186 586 
980 186 13 586 
981 55 56 587 
982 56 184 587 
983 184 55 587 
984 51 52 588 
985 52 185 588 
986 185 51 588 
987 43 44 589 
988 44 187 589 
989 187 43 589 
990 47 48 590 
991 48 188 590 
992 188 47 590 
993 17 18 591 
994 18 189 591 
995 189 17 591 
996 21 22 592 
997 22 190 592 
998 190 21 592 
999 6 7 593 
1000 7 227 593 
1001 227 6 593 
1002 40 41 594 
1003 41 228 594 
1004 228 40 594 
1005 163 101 595 
1006 101 221 595 
1007 221 163 595 
1008 164 102 596 
1009 102 220 596 
1010 220 164 596 
1011 85 163 597 
1012 163 221 597 
1013 221 85 597 
1014 87 164 598 
1015 164 220 598 
1016 220 87 598 
1017 173 125 599 
1018 125 267 599 
1019 267 173 599 
1020 15 173 600 
1021 173 267 600 
1022 267 15 600 
1023 126 173 601 
1024 173 268 601 
1025 268 126 601 
1026 121 175 602 
1027 175 263 602 
1028 263 121 602 
1029 173 16 603 
1030 16 268 603 
1031 268 173 603 
1032 124 174 604 
1033 174 266 604 
1034 266 124 604 
1035 174 123 605 
1036 123 265 605 
1037 265 174 605 
1038 175 54 606 
1039 54 263 606 
1040 263 175 606 
1041 174 20 607 
1042 20 266 607 
1043 266 174 607 
1044 19 174 608 
1045 174 265 608 
1046 265 19 608 
1047 175 122 609 
1048 122 264 609 
1049 264 175 609 
1050 53 175 610 
1051 175 264 610 
1052 264 53 610 
1053 49 178 611 
1054 178 252 611 
1055 252 49 611 
1056 178 115 612 
1057 115 252 612 
1058 252 178 612 
1059 45 177 613 
1060 177 256 613 
1061 256 45 613 
1062 177 46 614 
1063 46 255 614 
1064 255 177 614 
1065 176 12 615 
1066 12 254 615 
1067 254 176 615 
1068 11 176 616 
1069 176 253 616 
1070 253 11 616 
1071 117 176 617 
1072 176 254 617 
1073 254 117 617 
1074 177 118 618 
1075 118 256 618 
1076 256 177 618 
1077 119 177 619 
1078 177 255 619 
1079 255 119 619 
1080 176 116 620 
1081 116 253 620 
1082 253 176 620 
1083 178 50 621 
1084 50 257 621 
1085 257 178 621 
1086 120 178 622 
1087 178 257 622 
1088 257 120 622 
1089 28 2 623 
1090 2 250 623 
1091 250 28 623 
1092 62 36 624 
1093 36 249 624 
1094 249 62 624 
1095 1 3 625 
1096 3 248 625 
1097 248 1 625 
1098 29 37 626 
1099 37 251 626 
1100 251 29 626 
1101 9 183 627 
1102 183 226 627 
1103 226 9 627 
1104 43 187 628 
1105 187 225 628 
1106 225 43 628 
1107 165 104 629 
1108 104 269 629 
1109 269 165 629 
1110 166 103 630 
1111 103 270 630 
1112 270 166 630 
1113 13 186 631 
1114 186 254 631 
1115 254 13 631 
1116 183 10 632 
1117 10 253 632 
1118 253 183 632 
1119 51 185 633 
1120 185 257 633 
1121 257 51 633 
1122 188 48 634 
1123 48 252 634 
1124 252 188 634 
1125 187 44 635 
1126 44 256 635 
1127 256 187 635 
1128 47 188 636 
1129 188 255 636 
1130 255 47 636 
1131 55 184 637 
1132 184 263 637 
1133 263 55 637 
1134 185 52 638 
1135 52 264 638 
1136 264 185 638 
1137 186 14 639 
1138 14 267 639 
1139 267 186 639 
1140 17 189 640 
1141 189 268 640 
1142 268 17 640 
1143 189 18 641 
1144 18 265 641 
1145 265 189 641 
1146 21 190 642 
1147 190 266 642 
1148 266 21 642 
1149 184 56 643 
1150 56 271 643 
1151 271 184 643 
1152 190 22 644 
1153 22 272 644 
1154 272 190 644 
1155 68 1 645 
1156 1 248 645 
1157 248 68 645 
1158 2 30 646 
1159 30 250 646 
1160 250 2 646 
1161 36 63 647 
1162 63 249 647 
1163 249 36 647 
1164 35 29 648 
1165 29 251 648 
1166 251 35 648 
1167 89 167 649 
1168 167 195 649 
1169 195 89 649 
1170 90 168 650 
1171 168 196 650 
1172 196 90 650 
1173 24 25 651 
1174 25 234 651 
1175 234 24 651 
1176 58 59 652 
1177 59 233 652 
1178 233 58 652 
1179 32 33 653 
1180 33 212 653 
1181 212 32 653 
1182 65 66 654 
1183 66 211 654 
1184 211 65 654 
1185 104 167 655 
1186 167 269 655 
1187 269 104 655 
1188 167 69 656 
1189 69 269 656 
1190 269 167 656 
1191 103 168 657 
1192 168 270 657 
1193 270 103 657 
1194 168 70 658 
1195 70 270 658 
1196 270 168 658 
1197 172 99 659 
1198 99 209 659 
1199 209 172 659 
1200 171 100 660 
1201 100 210 660 
1202 210 171 660 
1203 226 183 661 
1204 183 282 661 
1205 282 226 661 
1206 225 187 662 
1207 187 281 662 
1208 281 225 662 
1209 173 126 663 
1210 126 260 663 
1211 260 173 663 
1212 174 124 664 
1213 124 259 664 
1214 259 174 664 
1215 122 175 665 
1216 175 258 665 
1217 258 122 665 
1218 194 42 666 
1219 42 225 666 
1220 225 194 666 
1221 113 194 667 
1222 194 225 667 
1223 225 113 667 
1224 193 8 668 
1225 8 226 668 
1226 226 193 668 
1227 114 193 669 
1228 193 226 669 
1229 226 114 669 
1230 176 117 670 
1231 117 238 670 
1232 238 176 670 
1233 177 119 671 
1234 119 239 671 
1235 239 177 671 
1236 178 120 672 
1237 120 237 672 
1238 237 178 672 
1239 42 43 673 
1240 43 225 673 
1241 225 42 673 
1242 8 9 674 
1243 9 226 674 
1244 226 8 674 
1245 153 198 675 
1246 198 242 675 
1247 242 153 675 
1248 152 197 676 
1249 197 241 676 
1250 241 152 676 
1251 48 49 677 
1252 49 252 677 
1253 252 48 677 
1254 12 13 678 
1255 13 254 678 
1256 254 12 678 
1257 10 11 679 
1258 11 253 679 
1259 253 10 679 
1260 46 47 680 
1261 47 255 680 
1262 255 46 680 
1263 44 45 681 
1264 45 256 681 
1265 256 44 681 
1266 50 51 682 
1267 51 257 682 
1268 257 50 682 
1269 54 55 683 
1270 55 263 683 
1271 263 54 683 
1272 52 53 684 
1273 53 264 684 
1274 264 52 684 
1275 18 19 685 
1276 19 265 685 
1277 265 18 685 
1278 20 21 686 
1279 21 266 686 
1280 266 20 686 
1281 14 15 687 
1282 15 267 687 
1283 267 14 687 
1284 16 17 688 
1285 17 268 688 
1286 268 16 688 
1287 56 57 689 
1288 57 271 689 
1289 271 56 689 
1290 22 23 690 
1291 23 272 690 
1292 272 22 690 
1293 199 150 691 
1294 150 244 691 
1295 244 199 691 
1296 213 106 692 
1297 106 247 692 
1298 247 213 692 
1299 214 105 693 
1300 105 246 693 
1301 246 214 693 
1302 198 73 694 
1303 73 242 694 
1304 242 198 694 
1305 197 71 695 
1306 71 241 695 
1307 241 197 695 
1308 147 200 696 
1309 200 280 696 
1310 280 147 696 
1311 148 201 697 
1312 201 276 697 
1313 276 148 697 
1314 202 144 698 
1315 144 278 698 
1316 278 202 698 
1317 203 145 699 
1318 145 277 699 
1319 277 203 699 
1320 205 127 700 
1321 127 271 700 
1322 271 205 700 
1323 57 205 701 
1324 205 271 701 
1325 271 57 701 
1326 206 128 702 
1327 128 272 702 
1328 272 206 702 
1329 23 206 703 
1330 206 272 703 
1331 272 23 703 
1332 74 199 704 
1333 199 244 704 
1334 244 74 704 
1335 146 204 705 
1336 204 279 705 
1337 279 146 705 
1338 115 178 706 
1339 178 237 706 
1340 237 115 706 
1341 116 176 707 
1342 176 238 707 
1343 238 116 707 
1344 118 177 708 
1345 177 239 708 
1346 239 118 708 
1347 175 121 709 
1348 121 258 709 
1349 258 175 709 
1350 123 174 710 
1351 174 259 710 
1352 259 123 710 
1353 125 173 711 
1354 173 260 711 
1355 260 125 711 
1356 179 6 712 
1357 6 227 712 
1358 227 179 712 
1359 180 40 713 
1360 40 228 713 
1361 228 180 713 
1362 130 194 714 
1363 194 216 714 
1364 216 130 714 
1365 129 193 715 
1366 193 215 715 
1367 215 129 715 
1368 194 113 716 
1369 113 216 716 
1370 216 194 716 
1371 193 114 717 
1372 114 215 717 
1373 215 193 717 
1374 59 181 718 
1375 181 233 718 
1376 233 59 718 
1377 25 182 719 
1378 182 234 719 
1379 234 25 719 
1380 201 149 720 
1381 149 245 720 
1382 245 201 720 
1383 72 201 721 
1384 201 245 721 
1385 245 72 721 
1386 200 151 722 
1387 151 243 722 
1388 243 200 722 
1389 72 200 723 
1390 200 243 723 
1391 243 72 723 
1392 199 74 724 
1393 74 240 724 
1394 240 199 724 
1395 154 199 725 
1396 199 240 725 
1397 240 154 725 
1398 71 197 726 
1399 197 236 726 
1400 236 71 726 
1401 197 155 727 
1402 155 236 727 
1403 236 197 727 
1404 73 198 728 
1405 198 235 728 
1406 235 73 728 
1407 198 156 729 
1408 156 235 729 
1409 235 198 729 
1410 200 72 730 
1411 72 280 730 
1412 280 200 730 
1413 201 72 731 
1414 72 276 731 
1415 276 201 731 
1416 71 202 732 
1417 202 278 732 
1418 278 71 732 
1419 73 203 733 
1420 203 277 733 
1421 277 73 733 
1422 204 74 734 
1423 74 279 734 
1424 279 204 734 
1425 183 91 735 
1426 91 282 735 
1427 282 183 735 
1428 187 95 736 
1429 95 281 736 
1430 281 187 736 
1431 206 132 737 
1432 132 262 737 
1433 262 206 737 
1434 205 131 738 
1435 131 261 738 
1436 261 205 738 
1437 142 203 739 
1438 203 274 739 
1439 274 142 739 
1440 141 202 740 
1441 202 273 740 
1442 273 141 740 
1443 203 73 741 
1444 73 274 741 
1445 274 203 741 
1446 202 71 742 
1447 71 273 742 
1448 273 202 742 
1449 204 143 743 
1450 143 275 743 
1451 275 204 743 
1452 74 204 744 
1453 204 275 744 
1454 275 74 744 
1455 210 166 745 
1456 166 270 745 
1457 270 210 745 
1458 209 165 746 
1459 165 269 746 
1460 269 209 746 
1461 217 110 747 
1462 110 224 747 
1463 224 217 747 
1464 218 111 748 
1465 111 223 748 
1466 223 218 748 
1467 219 112 749 
1468 112 222 749 
1469 222 219 749 
1470 127 205 750 
1471 205 261 750 
1472 261 127 750 
1473 128 206 751 
1474 206 262 751 
1475 262 128 751 
1476 69 209 752 
1477 209 269 752 
1478 269 69 752 
1479 70 210 753 
1480 210 270 753 
1481 270 70 753 
1482 236 105 754 
1483 105 273 754 
1484 273 236 754 
1485 235 106 755 
1486 106 274 755 
1487 274 235 755 
1488 107 219 756 
1489 219 222 756 
1490 222 107 756 
1491 109 218 757 
1492 218 223 757 
1493 223 109 757 
1494 108 217 758 
1495 217 224 758 
1496 224 108 758 
1497 104 214 759 
1498 214 246 759 
1499 246 104 759 
1500 103 213 760 
1501 213 247 760 
1502 247 103 760 
1503 245 112 761 
1504 112 280 761 
1505 280 245 761 
1506 243 110 762 
1507 110 276 762 
1508 276 243 762 
1509 108 240 763 
1510 240 275 763 
1511 275 108 763 
1512 244 111 764 
1513 111 279 764 
1514 279 244 764 
1515 107 241 765 
1516 241 278 765 
1517 278 107 765 
1518 109 242 766 
1519 242 277 766 
1520 277 109 766 
1521 114 226 767 
1522 226 282 767 
1523 282 114 767 
1524 113 225 768 
1525 225 281 768 
1526 281 113 768 
1527 71 236 769 
1528 236 273 769 
1529 273 71 769 
1530 73 235 770 
1531 235 274 770 
1532 274 73 770 
1533 240 74 771 
1534 74 275 771 
1535 275 240 771 
1536 72 243 772 
1537 243 276 772 
1538 276 72 772 
1539 241 71 773 
1540 71 278 773 
1541 278 241 773 
1542 242 73 774 
1543 73 277 774 
1544 277 242 774 
1545 74 244 775 
1546 244 279 775 
1547 279 74 775 
1548 72 245 776 
1549 245 280 776 
1550 280 72 776 
$EndElements
