$MeshFormat
4.1 0 8
$EndMeshFormat
$PhysicalNames
5
1 1 "Left"
1 2 "Right"
1 3 "Bottom"
1 4 "Top"
2 5 "Fluid"
$EndPhysicalNames
$Entities
0 4 1 0
1 0 0 0 40 0 0 1 3 0 
2 40 0 0 40 10 0 1 2 0 
3 0 10 0 40 10 0 1 4 0 
4 0 0 0 0 10 0 1 1 0 
1 0 0 0 40 10 0 1 5 0 
$EndEntities
$Nodes
5 128 1 128
1 1 0 11
1
2
3
4
5
6
7
8
9
10
11
0 0 0
40 0 0
3.999999999996757 0 0
7.999999999987307 0 0
11.99999999997564 0 0
15.99999999996411 0 0
19.99999999996964 0 0
23.99999999997573 0 0
27.99999999998182 0 0
31.99999999998791 0 0
35.99999999999396 0 0
1 2 0 3
12
13
14
40 10 0
40 3.33333333332627 0
40 6.666666666661615 0
1 3 0 10
15
16
17
18
19
20
21
22
23
24
0 10 0
35.99999999999999 10 0
31.99999999999998 10 0
27.99999999999998 10 0
23.99999999999996 10 0
19.99999999999996 10 0
15.99999999999995 10 0
11.99999999999994 10 0
7.999999999999929 10 0
3.999999999999964 10 0
1 4 0 2
25
26
0 6.66666666666666 0
0 3.33333333333332 0
2 1 0 102
27
28
29
30
31
32
33
34
35
36
37
38
39
40
41
42
43
44
45
46
47
48
49
50
51
52
53
54
55
56
57
58
59
60
61
62
63
64
65
66
67
68
69
70
71
72
73
74
75
76
77
78
79
80
81
82
83
84
85
86
87
88
89
90
91
92
93
94
95
96
97
98
99
100
101
102
103
104
105
106
107
108
109
110
111
112
113
114
115
116
117
118
119
120
121
122
123
124
125
126
127
128
4.777777777777797 4.999999999999988 0
35.22222222223137 4.999999999993942 0
13.99999999996987 4.99999999999514 0
25.41867558533616 5.218564242184527 0
19.35166700991461 4.957266588496781 0
30.89208488204264 6.103422672479775 0
9.107915117946389 3.896577327516435 0
22.3470353706165 6.575165229051918 0
22.83416949440661 3.149323409912554 0
6.900968187023709 6.642592777977933 0
33.09903181297299 3.357407222018413 0
11.37220715146324 6.769731665459881 0
29.05485552784751 3.412816510118955 0
16.30112937707608 3.295870481234222 0
16.04846964564211 7.017410257664458 0
2.888888888888627 2.733333333334097 0
2.921941991284458 7.218209907440761 0
37.1111111111123 7.266666666667191 0
37.07805800871553 2.781790092555428 0
33.61262330173496 7.077054696242939 0
6.387376698260214 2.922945303752272 0
28.08655741398405 7.065377034407873 0
11.91344258600337 2.934622965584494 0
37.95793991089272 5.006922394170333 0
2.042060089108777 4.993077605824972 0
25.87432324597527 2.252697681732461 0
13.1402255990351 7.929047307708113 0
14.682823215214 9.005803419221486 0
25.83507766644006 7.427980425530801 0
23.92190365198421 7.264576490412149 0
13.80689226569174 6.262380641039826 0
20.56623412684369 7.177477272516232 0
18.46671221851889 7.324892282053746 0
18.55093212898678 2.751045689910335 0
14.73819065434785 2.076831148939572 0
20.72861216809696 2.702196666136445 0
26.69551913799467 9.021792344802625 0
13.30448086198104 0.9782076551948314 0
9.673785901312355 2.277066764366976 0
30.32621409867555 7.722933235629216 0
10.63781419532211 0.9782076551948314 0
29.36218580466134 9.021792344802625 0
4.607636726102711 7.953600895139563 0
35.39236327389416 2.046399104857947 0
31.3846291136028 2.256741244045789 0
8.757725112828959 7.804108147812603 0
17.34948988188068 9.005803419221486 0
17.43370979233661 1.098623493744741 0
32.16823606125919 7.726825789574238 0
7.831763938731304 2.273174210422903 0
29.68495184260575 1.137605503372985 0
10.45740238382104 8.923243888486626 0
14.07152398768311 3.743497815604619 0
6.300322729007867 8.880864259325977 0
33.69967727098495 1.119135740672804 0
22.11567845687214 8.858388409683974 0
0.9629629629628756 2.022222222222472 0
0.973980663761486 7.961625524702474 0
39.02601933623851 2.038374475293899 0
39.03703703703744 7.977777777776269 0
2.296296296295128 0.9111111111113656 0
2.307313997094807 9.072736635813586 0
37.69268600290317 0.9272633641851428 0
37.7037037037041 9.088888888889064 0
23.53329348345309 4.981017627049667 0
4.866895985361988 6.286934228472894 0
35.13310401463996 3.713065771522595 0
24.70905610857268 3.540195111276514 0
4.425421862381866 1.885426212362123 0
35.57457813761575 8.11457378763671 0
22.27805649811733 1.049774469970851 0
6.129125566081426 0.9743151012507574 0
33.87087443391164 9.025684898747647 0
21.51095729164591 4.893918409153751 0
7.46542000107677 4.487371803082213 0
6.02204088768724 4.855179360576731 0
32.53457999891686 5.51262819691371 0
33.97795911231311 5.144820639418431 0
31.01532407428772 4.291215468205714 0
9.127030152144446 5.769633923651416 0
24.23616424678587 1.800673697215005 0
4.684681121642213 3.552092879028785 0
35.31531887835954 6.447907120968023 0
10.79785495180433 4.533643986186937 0
12.42854991247883 4.901451543679838 0
29.34449927462473 5.527205405668867 0
27.52002950905591 5.232252595570452 0
25.95810774864428 0.7508992272441537 0
15.44986634089602 5.104426912964606 0
17.23375534421093 5.090182442465154 0
39.31931330363091 5.002307464719406 0
0.6806866963695923 4.997692535274984 0
27.6430595912682 1.888504730617139 0
1.643649659332468 3.686581424164129 0
1.654667360131078 6.292651393310797 0
38.35635034066834 6.313418575833047 0
38.34533263986942 3.707348606684011 0
26.78261811971964 3.628026144678647 0
3.236242251925067 4.242136979719685 0
3.247259952723677 5.73709583775524 0
36.7637577480788 5.757863020277155 0
36.75274004727987 4.262904162239901 0
$EndNodes
$Elements
5 254 1 254
1 1 1 10
1 1 3 
2 3 4 
3 4 5 
4 5 6 
5 6 7 
6 7 8 
7 8 9 
8 9 10 
9 10 11 
10 11 2 
1 2 1 3
11 2 13 
12 13 14 
13 14 12 
1 3 1 10
14 12 16 
15 16 17 
16 17 18 
17 18 19 
18 19 20 
19 20 21 
20 21 22 
21 22 23 
22 23 24 
23 24 15 
1 4 1 3
24 15 25 
25 25 26 
26 26 1 
2 1 2 228
27 22 38 53 
28 38 41 53 
29 41 22 53 
30 21 22 54 
31 22 41 54 
32 41 21 54 
33 19 30 55 
34 30 48 55 
35 48 19 55 
36 30 19 56 
37 19 34 56 
38 34 30 56 
39 38 29 57 
40 29 41 57 
41 41 38 57 
42 20 31 58 
43 31 34 58 
44 34 20 58 
45 31 20 59 
46 20 41 59 
47 41 31 59 
48 7 31 60 
49 31 40 60 
50 40 7 60 
51 6 40 61 
52 40 49 61 
53 49 6 61 
54 31 7 62 
55 7 35 62 
56 35 31 62 
57 18 19 63 
58 19 48 63 
59 48 18 63 
60 5 6 64 
61 6 49 64 
62 49 5 64 
63 33 4 65 
64 4 49 65 
65 49 33 65 
66 32 17 66 
67 17 48 66 
68 48 32 66 
69 4 5 67 
70 5 49 67 
71 49 4 67 
72 17 18 68 
73 18 48 68 
74 48 17 68 
75 36 24 69 
76 24 43 69 
77 43 36 69 
78 37 11 70 
79 11 45 70 
80 45 37 70 
81 10 37 71 
82 37 39 71 
83 39 10 71 
84 23 36 72 
85 36 38 72 
86 38 23 72 
87 20 21 73 
88 21 41 73 
89 41 20 73 
90 6 7 74 
91 7 40 74 
92 40 6 74 
93 17 32 75 
94 32 46 75 
95 46 17 75 
96 4 33 76 
97 33 47 76 
98 47 4 76 
99 9 10 77 
100 10 39 77 
101 39 9 77 
102 22 23 78 
103 23 38 78 
104 38 22 78 
105 40 29 79 
106 29 49 79 
107 49 40 79 
108 23 24 80 
109 24 36 80 
110 36 23 80 
111 10 11 81 
112 11 37 81 
113 37 10 81 
114 19 20 82 
115 20 34 82 
116 34 19 82 
117 26 1 83 
118 1 42 83 
119 42 26 83 
120 15 25 84 
121 25 43 84 
122 43 15 84 
123 2 13 85 
124 13 45 85 
125 45 2 85 
126 14 12 86 
127 12 44 86 
128 44 14 86 
129 1 3 87 
130 3 42 87 
131 42 1 87 
132 24 15 88 
133 15 43 88 
134 43 24 88 
135 11 2 89 
136 2 45 89 
137 45 11 89 
138 12 16 90 
139 16 44 90 
140 44 12 90 
141 30 34 91 
142 34 35 91 
143 35 30 91 
144 27 36 92 
145 36 43 92 
146 43 27 92 
147 28 37 93 
148 37 45 93 
149 45 28 93 
150 30 35 94 
151 35 52 94 
152 52 30 94 
153 42 3 95 
154 3 47 95 
155 47 42 95 
156 44 16 96 
157 16 46 96 
158 46 44 96 
159 7 8 97 
160 8 35 97 
161 35 7 97 
162 3 4 98 
163 4 47 98 
164 47 3 98 
165 16 17 99 
166 17 46 99 
167 46 16 99 
168 34 31 100 
169 31 35 100 
170 35 34 100 
171 33 36 101 
172 36 47 101 
173 47 33 101 
174 36 27 102 
175 27 47 102 
176 47 36 102 
177 32 37 103 
178 37 46 103 
179 46 32 103 
180 37 28 104 
181 28 46 104 
182 46 37 104 
183 37 32 105 
184 32 39 105 
185 39 37 105 
186 36 33 106 
187 33 38 106 
188 38 36 106 
189 35 8 107 
190 8 52 107 
191 52 35 107 
192 27 42 108 
193 42 47 108 
194 47 27 108 
195 28 44 109 
196 44 46 109 
197 46 28 109 
198 38 33 110 
199 33 49 110 
200 49 38 110 
201 29 38 111 
202 38 49 111 
203 49 29 111 
204 39 32 112 
205 32 48 112 
206 48 39 112 
207 30 39 113 
208 39 48 113 
209 48 30 113 
210 8 9 114 
211 9 52 114 
212 52 8 114 
213 29 40 115 
214 40 41 115 
215 41 29 115 
216 40 31 116 
217 31 41 116 
218 41 40 116 
219 13 14 117 
220 14 50 117 
221 50 13 117 
222 25 26 118 
223 26 51 118 
224 51 25 118 
225 9 39 119 
226 39 52 119 
227 52 9 119 
228 26 42 120 
229 42 51 120 
230 51 26 120 
231 43 25 121 
232 25 51 121 
233 51 43 121 
234 14 44 122 
235 44 50 122 
236 50 14 122 
237 45 13 123 
238 13 50 123 
239 50 45 123 
240 39 30 124 
241 30 52 124 
242 52 39 124 
243 42 27 125 
244 27 51 125 
245 51 42 125 
246 27 43 126 
247 43 51 126 
248 51 27 126 
249 44 28 127 
250 28 50 127 
251 50 44 127 
252 28 45 128 
253 45 50 128 
254 50 28 128 
$EndElements
