$MeshFormat
4.1 0 8
$EndMeshFormat
$PhysicalNames
5
1 1 "Left"
1 2 "Right"
1 3 "Bottom"
1 4 "Top"
2 5 "Fluid"
$EndPhysicalNames
$Entities
0 4 1 0
1 0 0 0 40 0 0 1 3 0 
2 40 0 0 40 10 0 1 2 0 
3 0 10 0 40 10 0 1 4 0 
4 0 0 0 0 10 0 1 1 0 
1 0 0 0 40 10 0 1 5 0 
$EndEntities
$Nodes
5 270 1 270
1 1 0 17
1
2
3
4
5
6
7
8
9
10
11
12
13
14
15
16
17
0 0 0
40 0 0
2.499999999997799 0 0
4.999999999995876 0 0
7.499999999988748 0 0
9.999999999981448 0 0
12.49999999997415 0 0
14.99999999996684 0 0
17.49999999996579 0 0
19.99999999996959 0 0
22.49999999997339 0 0
24.99999999997719 0 0
27.49999999998099 0 0
29.99999999998479 0 0
32.4999999999886 0 0
34.9999999999924 0 0
37.4999999999962 0 0
1 2 0 4
18
19
20
21
40 10 0
40 2.499999999995362 0
40 4.999999999992398 0
40 7.499999999996199 0
1 3 0 16
22
23
24
25
26
27
28
29
30
31
32
33
34
35
36
37
0 10 0
37.5 10 0
35 10 0
32.5 10 0
30 10 0
27.5 10 0
25 10 0
22.5 10 0
20 10 0
17.5 10 0
15 10 0
12.5 10 0
10 10 0
7.5 10 0
5 10 0
2.5 10 0
1 4 0 3
38
39
40
0 7.5 0
0 5 0
0 2.5 0
2 1 0 230
41
42
43
44
45
46
47
48
49
50
51
52
53
54
55
56
57
58
59
60
61
62
63
64
65
66
67
68
69
70
71
72
73
74
75
76
77
78
79
80
81
82
83
84
85
86
87
88
89
90
91
92
93
94
95
96
97
98
99
100
101
102
103
104
105
106
107
108
109
110
111
112
113
114
115
116
117
118
119
120
121
122
123
124
125
126
127
128
129
130
131
132
133
134
135
136
137
138
139
140
141
142
143
144
145
146
147
148
149
150
151
152
153
154
155
156
157
158
159
160
161
162
163
164
165
166
167
168
169
170
171
172
173
174
175
176
177
178
179
180
181
182
183
184
185
186
187
188
189
190
191
192
193
194
195
196
197
198
199
200
201
202
203
204
205
206
207
208
209
210
211
212
213
214
215
216
217
218
219
220
221
222
223
224
225
226
227
228
229
230
231
232
233
234
235
236
237
238
239
240
241
242
243
244
245
246
247
248
249
250
251
252
253
254
255
256
257
258
259
260
261
262
263
264
265
266
267
268
269
270
6.27775912389479 4.875476879803907 0
13.54974898198294 4.982448489264547 0
33.72207094109032 5.124739098619615 0
26.45370806373472 4.95466320935943 0
18.51289834116169 5.010108042958495 0
9.999999999981005 3.906249999991408 0
30.00000000000021 6.093750000000364 0
22.5624999999867 6.140624999990563 0
36.34461481161318 3.138344260690657 0
3.46408661861009 3.118704420492887 0
3.654986386282844 6.864301251584303 0
36.53496529673412 6.883695708833992 0
23.6294873172859 3.059134512030487 0
8.854166666662024 6.953124999999277 0
31.1458333333328 3.046874999997287 0
16.36356021510939 7.153683905690866 0
16.46975260825433 2.683523533597056 0
28.20790912399242 2.833911185332206 0
11.79019333403416 7.164664281145918 0
20.72114054920857 2.799388907142774 0
7.608848314588499 2.68346207864873 0
12.31117061337633 2.787701044040418 0
32.39115168539303 7.3165379213487 0
27.50097769462899 6.92365952585666 0
20.20653350553406 7.227196110411949 0
24.94416999322285 7.335836714795491 0
5.951252148072837 7.156355658154739 0
34.04836606763183 2.844677768577716 0
25.85250654873727 2.524642810262121 0
14.12080908173384 7.588897554859365 0
18.59822840238434 2.108207205429167 0
5.404797428742879 2.443242531286268 0
34.59490217059075 7.557274863474557 0
14.36589400443836 2.238952526095364 0
18.2943570414369 7.952913938587007 0
38.09978094161879 5.002754502894657 0
1.900050697534703 4.997875215715719 0
20.93975780336184 4.855821519189824 0
11.68668537068016 5.098775157573992 0
28.31331462929077 4.901224842432166 0
15.79959032009424 5.000000000004043 0
8.142350908635109 5.029918243265104 0
31.85762036794249 4.970146802817291 0
24.68847438459348 4.802980449287618 0
9.334280904823515 1.684171057390625 0
30.66571909515734 8.315828942606828 0
23.20249099466447 8.339665375137761 0
38.07316878243478 7.99365232448174 0
1.967582949651054 7.986605170132582 0
38.03190826698956 2.014679162090482 0
1.92648101248904 2.006857732652445 0
4.288139185330505 5.000487580352287 0
35.71186081466206 5.000487580354008 0
36.23089495151417 1.486689877566327 0
3.767199390305083 8.516845917114498 0
36.3228076775293 8.530290696488279 0
3.669266082488425 1.48827688626339 0
26.40376752751862 8.603280465491334 0
10.2347519586369 8.172823871678316 0
29.76524804135054 1.827176128323854 0
22.29080891721861 1.815317840506891 0
11.09660725349438 1.432589950355695 0
28.72391061208122 8.566818787233915 0
21.47668617348829 8.538046479560274 0
16.32325086939565 0.894507844532352 0
16.28785340503646 9.051227968563621 0
29.81971598754126 4.680616614143273 0
10.18028401244106 5.319383385854892 0
8.862972875099642 8.375316290559198 0
31.13702712489065 1.62468370944038 0
23.64009874482723 1.624817450845793 0
22.37724837354481 4.685193677070291 0
7.43513960491162 8.036493552718005 0
32.56473313365108 1.963850922858335 0
23.62682056728869 4.667579987102889 0
29.22235236220533 3.594003675920553 0
10.77701512379212 6.405521479573063 0
8.99883919175938 5.296431081085263 0
31.0011512337585 4.703590600938313 0
35.36828056463569 3.661169869874127 0
4.631459239895396 6.34038149669711 0
38.71056306953611 3.172477888326834 0
1.275510570007914 3.168244316122721 0
17.72360519923599 6.705568629078789 0
1.289211215728586 6.8281601286161 0
38.72431657468452 6.832135609124198 0
15.27854887088651 1.640825353230807 0
24.82733128866679 1.861259107430869 0
16.89201629212177 5.721263982884468 0
16.92741375650342 4.231210525519865 0
17.86029311726679 3.267279593994906 0
7.649256574456657 6.379799633806374 0
32.35060658963571 3.620566523797431 0
6.790454060200912 5.687250260407917 0
33.20935245888821 4.313187890004873 0
14.57174443550518 4.073800338454651 0
15.54507897759564 3.307492019898821 0
9.244917319545634 9.390941290559439 0
30.75508268044131 0.6090587094412846 0
14.49004946127034 5.857115348042652 0
15.42798653897916 6.580860486851424 0
34.49409927446141 4.323301482517113 0
5.505716819099377 5.677440039436978 0
17.38597241884876 8.368865948092624 0
15.16145643228108 8.247527153516744 0
21.7634618899521 3.571448312787695 0
23.26360297238973 0.6051059468356303 0
39.36659364720627 4.167584834294139 0
0.6333502325115676 4.165958405238573 0
0.6333502325115676 5.83262507190524 0
39.36659364720627 5.834251500961084 0
25.66489633235516 4.09409548963639 0
17.52266033686815 1.597243579675408 0
24.72348941687222 3.462252590526742 0
6.837881914440042 1.708901536645 0
33.16201795199459 8.29127092827442 0
19.2774224309182 3.305901385176812 0
13.15358379925031 6.578670108423277 0
5.968265809575834 0.8144141770954226 0
34.03163405686359 9.185758287824852 0
37.49210134007384 3.385259308558599 0
2.430206109544611 3.374479122953684 0
26.83804124548814 3.437739068317919 0
2.507540011156201 6.616260545810867 0
37.56930500692923 6.626700845403462 0
27.18680522423689 1.786184665198109 0
19.00459629604422 6.730072697319151 0
12.80366747192267 8.251187278668427 0
35.54129194358639 2.4899039689449 0
4.457812641553588 7.512500942284514 0
13.40893786659921 3.336367353133443 0
26.29961858386218 6.404719816670528 0
34.67627797544771 5.894167180816059 0
5.323565245989392 4.106402330480821 0
28.49105238844132 1.553695771218687 0
11.50831509755702 8.445829384274745 0
21.00398315546559 1.538235582549888 0
33.56937493235804 6.666183961147624 0
6.430468289075389 3.334060496579635 0
19.77312298385417 1.635865370857314 0
29.70633016622525 2.569320771217782 0
10.2930373197777 7.430204384274504 0
6.150417382690946 9.052118552718246 0
33.84945535587094 0.9482259228592387 0
22.21381226123769 2.557947086560051 0
13.05902153926295 1.675551190045261 0
21.41523989300302 7.30195586332093 0
26.11750218289848 0.841547603420707 0
28.74162943557014 7.194742771030313 0
11.13592595561724 2.708846998129174 0
8.147709739800254 1.455877712013119 0
31.85229026018346 8.544122287985177 0
21.59693630572053 0.6051059468356303 0
35.61390942732898 6.480486050887518 0
4.385674410894492 3.52081151071048 0
29.0884160137721 0.6090587094412846 0
10.9115839862123 9.390941290559439 0
13.87360302724461 9.196299184953121 0
27.65831060567264 4.229933079041268 0
12.34220922889909 5.748629309328153 0
19.50029684899032 8.393370016332986 0
22.41389238937982 7.672778951562866 0
13.95529800145978 0.7463175086984547 0
29.79654323574626 7.658799243280369 0
10.14362938609963 2.34100366924591 0
24.38222032929577 8.558500696644417 0
20.05793223124403 4.221772823097031 0
31.05523969838578 9.438609647535609 0
8.944760301597904 0.5613903524635416 0
18.69940946743991 0.7027357351430558 0
19.8863965500192 5.69770855752009 0
21.23626376962753 6.074547543197446 0
18.5981190138123 9.317637979529001 0
4.90615051279264 8.557733858423079 0
35.09308700637947 1.443789215381348 0
11.33261866134583 3.930908733868606 0
12.51586832201314 4.289641563626319 0
28.60476410797332 5.972878122763063 0
27.42266679588483 5.593182525882753 0
23.56749699822149 9.44655512504592 0
38.52438959414493 9.331217441493914 0
39.35772292747826 8.497884108159313 0
1.489194316550351 9.328868390044194 0
0.655860983217018 8.49553505671086 0
39.34396942232986 1.504893054028615 0
38.51063608899525 0.6715597206968273 0
1.475493670828946 0.6689525775508151 0
0.6421603374963466 1.502285910884148 0
25.36211748051701 5.697826791147513 0
8.583733074401538 3.873210107301748 0
7.342986115706132 4.196285733905914 0
31.41625735111191 6.126811574722118 0
32.65694766480861 5.803807940928535 0
24.06504812593434 6.093147388024557 0
11.96925928894829 1.406763664798705 0
8.981043073131007 2.757961045343588 0
31.01895692685019 7.242038954651964 0
20.56107322634078 8.588414196657409 0
23.56972032929134 7.272042363307939 0
26.28297173845682 7.620925568714495 0
25.44931250691382 8.646372393428942 0
36.24363165050092 0.495563292522109 0
3.755733130101695 9.505615305704833 0
3.7230886941607 0.49609229542113 0
36.2742692258431 9.510096898829426 0
26.30125584250621 9.534426821830445 0
11.19886908448333 0.4775299834518983 0
28.74130353736041 9.522272929077971 0
21.32556205782943 9.512682159853425 0
27.54255937986662 9.056699750908416 0
27.54288527807627 8.03125292619397 0
36.71875218929801 4.380528781313108 0
36.78220235100499 5.628979264027552 0
3.217425500491766 4.37235573885363 0
3.281058756382684 5.620888015884103 0
4.691354503742393 1.310506472516553 0
35.30590328270669 8.695855186654279 0
4.179383376613798 2.350074612680848 0
35.81755838161806 7.657087089598943 0
37.25426773949998 1.167123013218936 0
36.8691393433723 2.213237766782489 0
2.744927446652046 8.834483695749027 0
3.129922908746327 7.789250779610462 0
3.019944571195852 2.20461301313624 0
36.97698058556607 7.802546243268004 0
22.39305905605092 8.959237284899345 0
37.29865881998803 8.84131434032334 0
2.698582364991755 1.165044872971945 0
10.14362938609978 1.03892033591544 0
29.79654323574619 8.96088257661358 0
$EndNodes
$Elements
5 538 1 538
1 1 1 16
1 1 3 
2 3 4 
3 4 5 
4 5 6 
5 6 7 
6 7 8 
7 8 9 
8 9 10 
9 10 11 
10 11 12 
11 12 13 
12 13 14 
13 14 15 
14 15 16 
15 16 17 
16 17 2 
1 2 1 4
17 2 19 
18 19 20 
19 20 21 
20 21 18 
1 3 1 16
21 18 23 
22 23 24 
23 24 25 
24 25 26 
25 26 27 
26 27 28 
27 28 29 
28 29 30 
29 30 31 
30 31 32 
31 32 33 
32 33 34 
33 34 35 
34 35 36 
35 36 37 
36 37 22 
1 4 1 4
37 22 38 
38 38 39 
39 39 40 
40 40 1 
2 1 2 498
41 8 9 105 
42 9 57 105 
43 57 8 105 
44 31 32 106 
45 32 56 106 
46 56 31 106 
47 55 47 107 
48 47 80 107 
49 80 55 107 
50 54 46 108 
51 46 79 108 
52 79 54 108 
53 35 54 109 
54 54 99 109 
55 99 35 109 
56 15 55 110 
57 55 100 110 
58 100 15 110 
59 12 53 111 
60 53 101 111 
61 101 12 111 
62 53 48 112 
63 48 78 112 
64 78 53 112 
65 54 35 113 
66 35 67 113 
67 67 54 113 
68 55 15 114 
69 15 68 114 
70 68 55 114 
71 48 53 115 
72 53 84 115 
73 84 48 115 
74 58 55 116 
75 55 80 116 
76 80 58 116 
77 59 54 117 
78 54 79 117 
79 79 59 117 
80 46 54 118 
81 54 82 118 
82 82 46 118 
83 47 55 119 
84 55 83 119 
85 83 47 119 
86 68 49 120 
87 49 93 120 
88 93 68 120 
89 67 51 121 
90 51 92 121 
91 92 67 121 
92 19 76 122 
93 76 90 122 
94 90 19 122 
95 77 40 123 
96 40 91 123 
97 91 77 123 
98 56 45 124 
99 45 75 124 
100 75 56 124 
101 38 77 125 
102 77 89 125 
103 89 38 125 
104 76 21 126 
105 21 88 126 
106 88 76 126 
107 8 57 127 
108 57 74 127 
109 74 8 127 
110 53 12 128 
111 12 69 128 
112 69 53 128 
113 45 56 129 
114 56 81 129 
115 81 45 129 
116 57 45 130 
117 45 81 130 
118 81 57 130 
119 45 57 131 
120 57 71 131 
121 71 45 131 
122 54 67 132 
123 67 82 132 
124 82 54 132 
125 55 68 133 
126 68 83 133 
127 83 55 133 
128 67 41 134 
129 41 82 134 
130 82 67 134 
131 68 43 135 
132 43 83 135 
133 83 68 135 
134 42 74 136 
135 74 81 136 
136 81 42 136 
137 74 57 137 
138 57 81 137 
139 81 74 137 
140 34 35 138 
141 35 99 138 
142 99 34 138 
143 14 15 139 
144 15 100 139 
145 100 14 139 
146 70 42 140 
147 42 81 140 
148 81 70 140 
149 56 70 141 
150 70 81 141 
151 81 56 141 
152 43 68 142 
153 68 93 142 
154 93 43 142 
155 41 67 143 
156 67 92 143 
157 92 41 143 
158 31 56 144 
159 56 75 144 
160 75 31 144 
161 56 32 145 
162 32 70 145 
163 70 56 145 
164 60 53 146 
165 53 78 146 
166 78 60 146 
167 11 12 147 
168 12 101 147 
169 101 11 147 
170 19 20 148 
171 20 76 148 
172 76 19 148 
173 39 40 149 
174 40 77 149 
175 77 39 149 
176 38 39 150 
177 39 77 150 
178 77 38 150 
179 20 21 151 
180 21 76 151 
181 76 20 151 
182 69 44 152 
183 44 84 152 
184 84 69 152 
185 57 9 153 
186 9 71 153 
187 71 57 153 
188 53 69 154 
189 69 84 154 
190 84 53 154 
191 5 61 155 
192 61 72 155 
193 72 5 155 
194 25 63 156 
195 63 73 156 
196 73 25 156 
197 60 45 157 
198 45 71 157 
199 71 60 157 
200 59 42 158 
201 42 70 158 
202 70 59 158 
203 4 5 159 
204 5 72 159 
205 72 4 159 
206 24 25 160 
207 25 73 160 
208 73 24 160 
209 76 49 161 
210 49 90 161 
211 90 76 161 
212 50 77 162 
213 77 91 162 
214 91 50 162 
215 58 44 163 
216 44 69 163 
217 69 58 163 
218 77 51 164 
219 51 89 164 
220 89 77 164 
221 52 76 165 
222 76 88 165 
223 88 52 165 
224 13 58 166 
225 58 69 166 
226 69 13 166 
227 45 65 167 
228 65 75 167 
229 75 45 167 
230 33 59 168 
231 59 70 168 
232 70 33 168 
233 49 68 169 
234 68 94 169 
235 94 49 169 
236 51 67 170 
237 67 95 170 
238 95 51 170 
239 42 62 171 
240 62 74 171 
241 74 42 171 
242 44 64 172 
243 64 66 172 
244 66 44 172 
245 73 43 173 
246 43 93 173 
247 93 73 173 
248 72 41 174 
249 41 92 174 
250 92 72 174 
251 58 13 175 
252 13 100 175 
253 100 58 175 
254 59 33 176 
255 33 99 176 
256 99 59 176 
257 60 10 177 
258 10 101 177 
259 101 60 177 
260 63 43 178 
261 43 73 178 
262 73 63 178 
263 61 41 179 
264 41 72 179 
265 72 61 179 
266 10 60 180 
267 60 71 180 
268 71 10 180 
269 55 58 181 
270 58 100 181 
271 100 55 181 
272 54 59 182 
273 59 99 182 
274 99 54 182 
275 35 36 183 
276 36 67 183 
277 67 35 183 
278 15 16 184 
279 16 68 184 
280 68 15 184 
281 53 60 185 
282 60 101 185 
283 101 53 185 
284 62 7 186 
285 7 74 186 
286 74 62 186 
287 65 48 187 
288 48 104 187 
289 104 65 187 
290 12 13 188 
291 13 69 188 
292 69 12 188 
293 64 47 189 
294 47 103 189 
295 103 64 189 
296 62 46 190 
297 46 102 190 
298 102 62 190 
299 61 5 191 
300 5 85 191 
301 85 61 191 
302 63 25 192 
303 25 86 192 
304 86 63 192 
305 10 11 193 
306 11 101 193 
307 101 10 193 
308 52 73 194 
309 73 93 194 
310 93 52 194 
311 50 72 195 
312 72 92 195 
313 92 50 195 
314 13 14 196 
315 14 100 196 
316 100 13 196 
317 33 34 197 
318 34 99 197 
319 99 33 197 
320 32 33 198 
321 33 70 198 
322 70 32 198 
323 44 58 199 
324 58 80 199 
325 80 44 199 
326 42 59 200 
327 59 79 200 
328 79 42 200 
329 65 30 201 
330 30 75 201 
331 75 65 201 
332 48 87 202 
333 87 104 202 
334 104 48 202 
335 7 8 203 
336 8 74 203 
337 74 7 203 
338 47 86 204 
339 86 103 204 
340 103 47 204 
341 46 85 205 
342 85 102 205 
343 102 46 205 
344 66 28 206 
345 28 87 206 
346 87 66 206 
347 45 60 207 
348 60 78 207 
349 78 45 207 
350 25 26 208 
351 26 86 208 
352 86 25 208 
353 5 6 209 
354 6 85 209 
355 85 5 209 
356 9 10 210 
357 10 71 210 
358 71 9 210 
359 65 45 211 
360 45 78 211 
361 78 65 211 
362 48 65 212 
363 65 78 212 
364 78 48 212 
365 30 31 213 
366 31 75 213 
367 75 30 213 
368 67 36 214 
369 36 95 214 
370 95 67 214 
371 68 16 215 
372 16 94 215 
373 94 68 215 
374 46 62 216 
375 62 79 216 
376 79 46 216 
377 62 42 217 
378 42 79 217 
379 79 62 217 
380 47 64 218 
381 64 80 218 
382 80 47 218 
383 64 44 219 
384 44 80 219 
385 80 64 219 
386 28 29 220 
387 29 87 220 
388 87 28 220 
389 18 23 221 
390 23 88 221 
391 88 18 221 
392 21 18 222 
393 18 88 222 
394 88 21 222 
395 37 22 223 
396 22 89 223 
397 89 37 223 
398 22 38 224 
399 38 89 224 
400 89 22 224 
401 2 19 225 
402 19 90 225 
403 90 2 225 
404 17 2 226 
405 2 90 226 
406 90 17 226 
407 1 3 227 
408 3 91 227 
409 91 1 227 
410 40 1 228 
411 1 91 228 
412 91 40 228 
413 44 66 229 
414 66 84 229 
415 84 44 229 
416 61 46 230 
417 46 82 230 
418 82 61 230 
419 41 61 231 
420 61 82 231 
421 82 41 231 
422 63 47 232 
423 47 83 232 
424 83 63 232 
425 43 63 233 
426 63 83 233 
427 83 43 233 
428 66 48 234 
429 48 84 234 
430 84 66 234 
431 7 62 235 
432 62 102 235 
433 102 7 235 
434 46 61 236 
435 61 85 236 
436 85 46 236 
437 47 63 237 
438 63 86 237 
439 86 47 237 
440 30 65 238 
441 65 104 238 
442 104 30 238 
443 48 66 239 
444 66 87 239 
445 87 48 239 
446 66 64 240 
447 64 98 240 
448 98 66 240 
449 28 66 241 
450 66 98 241 
451 98 28 241 
452 16 17 242 
453 17 94 242 
454 94 16 242 
455 36 37 243 
456 37 95 243 
457 95 36 243 
458 3 4 244 
459 4 97 244 
460 97 3 244 
461 23 24 245 
462 24 96 245 
463 96 23 245 
464 27 28 246 
465 28 98 246 
466 98 27 246 
467 6 7 247 
468 7 102 247 
469 102 6 247 
470 26 27 248 
471 27 103 248 
472 103 26 248 
473 29 30 249 
474 30 104 249 
475 104 29 249 
476 27 98 250 
477 98 103 250 
478 103 27 250 
479 98 64 251 
480 64 103 251 
481 103 98 251 
482 49 76 252 
483 76 93 252 
484 93 49 252 
485 76 52 253 
486 52 93 253 
487 93 76 253 
488 77 50 254 
489 50 92 254 
490 92 77 254 
491 51 77 255 
492 77 92 255 
493 92 51 255 
494 4 72 256 
495 72 97 256 
496 97 4 256 
497 24 73 257 
498 73 96 257 
499 96 24 257 
500 72 50 258 
501 50 97 258 
502 97 72 258 
503 73 52 259 
504 52 96 259 
505 96 73 259 
506 17 90 260 
507 90 94 260 
508 94 17 260 
509 90 49 261 
510 49 94 261 
511 94 90 261 
512 37 89 262 
513 89 95 262 
514 95 37 262 
515 89 51 263 
516 51 95 263 
517 95 89 263 
518 50 91 264 
519 91 97 264 
520 97 50 264 
521 52 88 265 
522 88 96 265 
523 96 52 265 
524 87 29 266 
525 29 104 266 
526 104 87 266 
527 88 23 267 
528 23 96 267 
529 96 88 267 
530 91 3 268 
531 3 97 268 
532 97 91 268 
533 85 6 269 
534 6 102 269 
535 102 85 269 
536 86 26 270 
537 26 103 270 
538 103 86 270 
$EndElements
