$MeshFormat
2.2 0 8
$EndMeshFormat
$PhysicalNames
5
1 1 "Left"
1 2 "Right"
1 3 "Bottom"
1 4 "Top"
2 5 "Fluid"
$EndPhysicalNames
$Nodes
282
1 0 0 0
2 40 0 0
3 40 10 0
4 0 10 0
5 1.481481481480289 0 0
6 2.962962962960443 0 0
7 4.444444444440888 0 0
8 5.92592592591928 0 0
9 7.407407407396438 0 0
10 8.888888888873597 0 0
11 10.37037037035076 0 0
12 11.85185185182792 0 0
13 13.33333333330508 0 0
14 14.81481481478223 0 0
15 16.29629629626029 0 0
16 17.77777777774403 0 0
17 19.25925925922777 0 0
18 20.74074074071152 0 0
19 22.22222222219525 0 0
20 23.70370370367899 0 0
21 25.18518518516272 0 0
22 26.66666666664645 0 0
23 28.14814814813018 0 0
24 29.6296296296139 0 0
25 31.11111111109764 0 0
26 32.59259259258136 0 0
27 34.07407407406509 0 0
28 35.55555555554881 0 0
29 37.03703703703254 0 0
30 38.51851851851627 0 0
31 40 1.428571428569922 0
32 40 2.857142857137182 0
33 40 4.285714285705607 0
34 40 5.714285714279215 0
35 40 7.142857142852811 0
36 40 8.571428571426406 0
37 38.51851851851852 10 0
38 37.03703703703703 10 0
39 35.55555555555555 10 0
40 34.07407407407406 10 0
41 32.59259259259258 10 0
42 31.1111111111111 10 0
43 29.62962962962962 10 0
44 28.14814814814813 10 0
45 26.66666666666665 10 0
46 25.18518518518516 10 0
47 23.70370370370367 10 0
48 22.22222222222218 10 0
49 20.7407407407407 10 0
50 19.25925925925921 10 0
51 17.77777777777772 10 0
52 16.29629629629623 10 0
53 14.81481481481475 10 0
54 13.33333333333328 10 0
55 11.85185185185181 10 0
56 10.37037037037033 10 0
57 8.888888888888854 10 0
58 7.407407407407376 10 0
59 5.92592592592591 10 0
60 4.444444444444429 10 0
61 2.962962962962955 10 0
62 1.481481481481481 10 0
63 0 8.571428571428569 0
64 0 7.14285714285714 0
65 0 5.714285714285706 0
66 0 4.28571428571427 0
67 0 2.857142857142846 0
68 0 1.428571428571423 0
69 4.809026460535545 5.135595263788908 0
70 35.19097353946938 4.864404736203727 0
71 11.09447293582966 4.989723636273875 0
72 17.03703703701026 4.99999999999272 0
73 28.90552706414971 5.010276363724385 0
74 22.9500342260746 5.013657707212695 0
75 31.95578231293224 6.599969205784448 0
76 8.044217687063576 3.400030794203809 0
77 19.99999999998127 6.67695473249706 0
78 14.07407407404366 3.323045267484424 0
79 25.9259259259259 6.676954732510881 0
80 14.07407407407403 6.702611488390354 0
81 25.92592592590461 3.297388511607141 0
82 19.99999999996964 3.297388511600148 0
83 8.335593902815766 6.498450724616102 0
84 31.6644060971736 3.501549275379994 0
85 2.732246112319136 2.816021799610987 0
86 2.704910482300623 7.341190160805129 0
87 37.26775388768014 7.18397820038709 0
88 37.29508951769854 2.658809839191301 0
89 5.79187306052 7.690006373614031 0
90 34.20812693947616 2.309993626386085 0
91 11.26258421133002 2.570477265260046 0
92 11.10046951077179 7.435879413016751 0
93 17.02746152983095 7.425371591791086 0
94 17.04661254421037 2.574628408200025 0
95 28.73741578864648 7.429522734739193 0
96 22.95485663957938 7.420314408878571 0
97 22.95296905468113 2.569571225286489 0
98 28.89953048921246 2.564120586981312 0
99 5.542224907350739 2.323909648486502 0
100 34.45777509264379 7.67609035150915 0
101 2.112329077853888 4.999999999999988 0
102 37.8876709221495 4.999999999992411 0
103 33.12152665936087 4.747119145271278 0
104 6.878473340640502 5.252880854721392 0
105 9.158409828129752 5.14774472197991 0
106 30.84159017185504 4.852255278012407 0
107 12.98925089494969 5.008795226451771 0
108 21.08482317909744 4.991204773539291 0
109 27.01074910502751 4.991204773547144 0
110 18.91950983481171 4.991204773545687 0
111 24.84543576076172 4.99120477356003 0
112 15.15456423920761 5.00879522643333 0
113 30.74175240442503 8.103303624763937 0
114 9.258247595563393 1.896696375227824 0
115 21.53400153566817 8.108748213846493 0
116 12.56396700118415 1.889717065174056 0
117 15.3497532399675 2.095071257349664 0
118 27.43603299878967 8.110282934825293 0
119 24.65045664340368 7.904206287944904 0
120 18.72432083406677 7.904928742641803 0
121 12.53467519432507 8.117399257178604 0
122 15.34290355365853 7.91378560145804 0
123 24.38663499483214 1.883509182542026 0
124 27.19764356370987 2.084713281218928 0
125 18.46397063814118 1.884352046357061 0
126 21.26876970797433 2.085491943831194 0
127 9.714134581233825 8.13400190031015 0
128 30.28586541875062 1.865998099687913 0
129 7.178965209475489 1.964249831964444 0
130 32.82103479051661 8.035750168030173 0
131 7.256160182472907 8.251832271456415 0
132 32.74383981751809 1.748167728541647 0
133 1.738697337609465 1.635165579551503 0
134 1.744468693673513 8.370552448076447 0
135 38.26130266239014 8.364834420448183 0
136 38.25553130632825 1.629447551921391 0
137 35.71552439415125 1.835079071501892 0
138 4.284475605845339 8.164920928495883 0
139 4.003512081047884 1.531991028618799 0
140 35.99648791894852 8.468008971379097 0
141 9.500768674730313 3.313936248737395 0
142 30.49923132525534 6.686063751255428 0
143 21.42963330234157 6.534433301072165 0
144 12.74349379654711 3.457516801641116 0
145 27.25650620342683 6.542483198356894 0
146 24.38990021882073 6.388546588103166 0
147 15.61142677874611 3.610863652951538 0
148 18.46264729528433 6.389136347032891 0
149 15.58201150859369 6.399420288981598 0
150 24.49598009762109 3.453998180952595 0
151 18.58280041130656 3.454524970828445 0
152 12.63630601040865 6.546569593879338 0
153 27.45732107066708 3.599354309110152 0
154 21.51561024908621 3.599989952054932 0
155 9.791690968938846 6.557989280138736 0
156 30.20830903104922 3.442010719853245 0
157 38.57511244867559 3.655479406565868 0
158 1.326964483978051 3.780484870486785 0
159 1.424887551325206 6.3445205934274 0
160 38.67303551602187 6.21951512950795 0
161 4.448681007541133 6.634041735410019 0
162 35.55131899245924 3.365958264584043 0
163 3.564033418820932 4.238222841665227 0
164 36.43596658117886 5.761777158329285 0
165 6.713453848841563 3.714784552148851 0
166 33.28654615115608 6.285215447841017 0
167 5.927655096444888 6.054273834567322 0
168 34.07234490356397 3.945726165431334 0
169 36.82268866693852 4.217738234144438 0
170 3.177311333062888 5.782261765849445 0
171 35.77107208511133 7.052711873451043 0
172 4.228927914886504 2.947288126544505 0
173 19.93793649128864 1.110365439512152 0
174 25.86381761158956 1.110133792880667 0
175 14.01153774448872 8.889781538890166 0
176 14.0197317385426 1.116082162096617 0
177 25.98029824477109 8.883814630087365 0
178 20.0577558301844 8.883698592044913 0
179 5.254476929183695 1.114915161638217 0
180 34.74552307080896 8.885084838359248 0
181 5.402212360003498 8.873827475829822 0
182 34.59778763999043 1.126172524169952 0
183 11.22457848890692 1.125005790071261 0
184 11.11338910439642 8.873866764513521 0
185 17.03469058081488 8.808127061975659 0
186 17.03703703700216 1.1103631942148 0
187 28.77542151107131 8.874994209927753 0
188 22.96296296296292 8.889636805784527 0
189 22.96296296293713 1.110363194216049 0
190 28.88888888887203 1.110363194215884 0
191 37.06426190551471 1.227928143209586 0
192 2.935738094482616 8.772071856792651 0
193 8.366508539235435 1.147643689694096 0
194 31.63349146075239 8.852356310301953 0
195 7.205391964708177 6.746728302246465 0
196 32.79460803528827 3.25327169774933 0
197 11.14130146326761 6.089318001891279 0
198 28.87430305022966 3.935002648603676 0
199 22.95329980780554 3.878865832483438 0
200 17.084704202031 3.82956883665297 0
201 16.99708567522837 6.158011542573272 0
202 11.11141314791146 3.830207474663986 0
203 28.8885868520663 6.169792525333934 0
204 22.92830462953703 6.175051180991725 0
205 8.476255473031484 8.899393859418211 0
206 31.52374452695462 1.100606140581495 0
207 37.17126824154537 8.777855258941509 0
208 2.828731758451254 1.22214474105623 0
209 5.188698030789497 3.832705148040773 0
210 34.81130196921041 6.167294851951238 0
211 0.9544983528072419 5.012755659583071 0
212 39.0455016471943 4.987244340409656 0
213 31.95342883397844 5.415688635146724 0
214 8.046571166015511 4.584311364834723 0
215 8.253858472898559 2.286517601394093 0
216 31.7461415270917 7.713482398596618 0
217 19.99999999998207 5.536364794253197 0
218 25.9259259259258 5.536364794273874 0
219 14.07407407404519 4.463635205718808 0
220 37.5292193769701 6.056891042720181 0
221 2.470780623025778 3.943108957273989 0
222 14.03840470325547 5.583123347055042 0
223 25.96159529672682 4.416876652940156 0
224 20.03566937080895 4.416876652926474 0
225 30.34295688507235 9.12060023479771 0
226 9.657043114910572 0.8793997651981236 0
227 6.261800075865128 1.080614928417833 0
228 33.7381999241272 8.919385071579715 0
229 38.96200083042476 7.438593806331529 0
230 1.037999169573839 2.561406193665422 0
231 1.064046522369136 7.534188923417148 0
232 38.93595347763245 2.465811076578577 0
233 6.356715787265938 8.963133224180053 0
234 33.64328421272622 1.036866775819537 0
235 29.72471063652216 4.555959991523266 0
236 10.27841026616415 5.448904138570633 0
237 20.14596844155606 7.766288178795143 0
238 13.9281056324715 2.233711821193299 0
239 26.07189436750066 7.766288178803003 0
240 22.11474372535236 4.607106172238677 0
241 11.97309084275999 5.416518772518676 0
242 28.00923371794077 4.585535748517583 0
243 17.91082006408299 4.565422235386669 0
244 23.82014493069345 4.577907818027191 0
245 16.18294473976144 5.402882892409197 0
246 7.924888040461942 5.646023193679718 0
247 32.07511195953125 4.353976806311947 0
248 0.954109353134601 0.9355568678797853 0
249 0.9050736318949607 8.978111936438868 0
250 39.09492636810593 1.021888063558847 0
251 39.04589064686613 9.064443132120639 0
252 21.48148148148144 9.202962504511488 0
253 12.59259259256649 0.7970374954797586 0
254 15.55555555552126 0.7970374954795436 0
255 24.44444444444442 9.202962504519187 0
256 27.4074074074074 9.202962504519169 0
257 18.51851851851847 9.202962504519464 0
258 13.90688916714137 7.777603926756059 0
259 25.75874101896662 2.222396073243693 0
260 19.83281509302638 2.222396073240549 0
261 8.328749826322884 7.808725583520016 0
262 31.67125017365625 2.191274416478642 0
263 12.59259259259254 9.209840993419224 0
264 15.55555555555549 9.209840993419236 0
265 24.44444444442082 0.7901590065800199 0
266 27.40740740738829 0.7901590065800032 0
267 18.51851851848591 0.7901590065781365 0
268 21.48148148145339 0.7901590065781253 0
269 6.001101576451298 4.651814056490078 0
270 33.99889842355535 5.348185943494757 0
271 9.629629629629592 9.219945787669921 0
272 30.37037037035578 0.7800542123284268 0
273 10.22226101743931 4.521429475052076 0
274 29.77818482578612 5.479265400670665 0
275 22.1015078124806 5.464290627010911 0
276 17.88388536813265 5.458200012908328 0
277 28.01412058852222 5.459858521895987 0
278 11.98234432359958 4.540552382309885 0
279 23.80653846975659 5.464284751392743 0
280 16.1941039248987 4.535497916652841 0
281 29.6989462345075 8.222253245142131 0
282 10.30105376547691 1.777746754858335 0
$EndNodes
$Elements
562
1 1 2 3 1 1 5
2 1 2 3 1 5 6
3 1 2 3 1 6 7
4 1 2 3 1 7 8
5 1 2 3 1 8 9
6 1 2 3 1 9 10
7 1 2 3 1 10 11
8 1 2 3 1 11 12
9 1 2 3 1 12 13
10 1 2 3 1 13 14
11 1 2 3 1 14 15
12 1 2 3 1 15 16
13 1 2 3 1 16 17
14 1 2 3 1 17 18
15 1 2 3 1 18 19
16 1 2 3 1 19 20
17 1 2 3 1 20 21
18 1 2 3 1 21 22
19 1 2 3 1 22 23
20 1 2 3 1 23 24
21 1 2 3 1 24 25
22 1 2 3 1 25 26
23 1 2 3 1 26 27
24 1 2 3 1 27 28
25 1 2 3 1 28 29
26 1 2 3 1 29 30
27 1 2 3 1 30 2
28 1 2 2 2 2 31
29 1 2 2 2 31 32
30 1 2 2 2 32 33
31 1 2 2 2 33 34
32 1 2 2 2 34 35
33 1 2 2 2 35 36
34 1 2 2 2 36 3
35 1 2 4 3 3 37
36 1 2 4 3 37 38
37 1 2 4 3 38 39
38 1 2 4 3 39 40
39 1 2 4 3 40 41
40 1 2 4 3 41 42
41 1 2 4 3 42 43
42 1 2 4 3 43 44
43 1 2 4 3 44 45
44 1 2 4 3 45 46
45 1 2 4 3 46 47
46 1 2 4 3 47 48
47 1 2 4 3 48 49
48 1 2 4 3 49 50
49 1 2 4 3 50 51
50 1 2 4 3 51 52
51 1 2 4 3 52 53
52 1 2 4 3 53 54
53 1 2 4 3 54 55
54 1 2 4 3 55 56
55 1 2 4 3 56 57
56 1 2 4 3 57 58
57 1 2 4 3 58 59
58 1 2 4 3 59 60
59 1 2 4 3 60 61
60 1 2 4 3 61 62
61 1 2 4 3 62 4
62 1 2 1 4 4 63
63 1 2 1 4 63 64
64 1 2 1 4 64 65
65 1 2 1 4 65 66
66 1 2 1 4 66 67
67 1 2 1 4 67 68
68 1 2 1 4 68 1
69 2 2 5 1 75 142 213
70 2 2 5 1 76 141 214
71 2 2 5 1 99 129 165
72 2 2 5 1 100 130 166
73 2 2 5 1 129 76 165
74 2 2 5 1 130 75 166
75 2 2 5 1 142 106 213
76 2 2 5 1 141 105 214
77 2 2 5 1 83 105 155
78 2 2 5 1 84 106 156
79 2 2 5 1 105 83 246
80 2 2 5 1 106 84 247
81 2 2 5 1 115 96 188
82 2 2 5 1 116 91 183
83 2 2 5 1 96 119 188
84 2 2 5 1 118 95 187
85 2 2 5 1 93 120 185
86 2 2 5 1 94 117 186
87 2 2 5 1 91 116 144
88 2 2 5 1 96 115 143
89 2 2 5 1 95 118 145
90 2 2 5 1 120 93 148
91 2 2 5 1 77 120 148
92 2 2 5 1 78 117 147
93 2 2 5 1 119 96 146
94 2 2 5 1 79 119 146
95 2 2 5 1 117 94 147
96 2 2 5 1 92 121 184
97 2 2 5 1 122 93 185
98 2 2 5 1 123 97 189
99 2 2 5 1 98 124 190
100 2 2 5 1 125 94 186
101 2 2 5 1 97 126 189
102 2 2 5 1 142 75 216
103 2 2 5 1 141 76 215
104 2 2 5 1 122 80 149
105 2 2 5 1 93 122 149
106 2 2 5 1 97 123 150
107 2 2 5 1 121 92 152
108 2 2 5 1 94 125 151
109 2 2 5 1 81 124 153
110 2 2 5 1 124 98 153
111 2 2 5 1 82 126 154
112 2 2 5 1 126 97 154
113 2 2 5 1 113 142 216
114 2 2 5 1 114 141 215
115 2 2 5 1 137 28 191
116 2 2 5 1 138 60 192
117 2 2 5 1 88 157 169
118 2 2 5 1 86 159 170
119 2 2 5 1 127 92 184
120 2 2 5 1 128 98 190
121 2 2 5 1 92 127 155
122 2 2 5 1 98 128 156
123 2 2 5 1 157 102 169
124 2 2 5 1 159 101 170
125 2 2 5 1 30 136 191
126 2 2 5 1 62 134 192
127 2 2 5 1 138 86 161
128 2 2 5 1 137 88 162
129 2 2 5 1 28 29 191
130 2 2 5 1 60 61 192
131 2 2 5 1 6 7 139
132 2 2 5 1 38 39 140
133 2 2 5 1 89 138 161
134 2 2 5 1 90 137 162
135 2 2 5 1 38 140 207
136 2 2 5 1 6 139 208
137 2 2 5 1 144 116 238
138 2 2 5 1 145 118 239
139 2 2 5 1 143 115 237
140 2 2 5 1 133 85 230
141 2 2 5 1 86 134 231
142 2 2 5 1 88 136 232
143 2 2 5 1 135 87 229
144 2 2 5 1 78 144 238
145 2 2 5 1 77 143 237
146 2 2 5 1 79 145 239
147 2 2 5 1 85 158 230
148 2 2 5 1 159 86 231
149 2 2 5 1 157 88 232
150 2 2 5 1 87 160 229
151 2 2 5 1 29 30 191
152 2 2 5 1 61 62 192
153 2 2 5 1 110 151 224
154 2 2 5 1 111 150 223
155 2 2 5 1 112 149 222
156 2 2 5 1 151 82 224
157 2 2 5 1 150 81 223
158 2 2 5 1 149 80 222
159 2 2 5 1 150 123 259
160 2 2 5 1 121 152 258
161 2 2 5 1 151 125 260
162 2 2 5 1 115 188 252
163 2 2 5 1 188 119 255
164 2 2 5 1 118 187 256
165 2 2 5 1 116 183 253
166 2 2 5 1 186 117 254
167 2 2 5 1 185 120 257
168 2 2 5 1 143 77 217
169 2 2 5 1 108 143 217
170 2 2 5 1 77 148 217
171 2 2 5 1 148 110 217
172 2 2 5 1 79 146 218
173 2 2 5 1 146 111 218
174 2 2 5 1 145 79 218
175 2 2 5 1 109 145 218
176 2 2 5 1 78 147 219
177 2 2 5 1 147 112 219
178 2 2 5 1 144 78 219
179 2 2 5 1 107 144 219
180 2 2 5 1 81 150 259
181 2 2 5 1 152 80 258
182 2 2 5 1 82 151 260
183 2 2 5 1 155 127 261
184 2 2 5 1 156 128 262
185 2 2 5 1 163 69 170
186 2 2 5 1 164 70 169
187 2 2 5 1 83 155 261
188 2 2 5 1 84 156 262
189 2 2 5 1 69 161 170
190 2 2 5 1 70 162 169
191 2 2 5 1 184 121 263
192 2 2 5 1 122 185 264
193 2 2 5 1 190 124 266
194 2 2 5 1 123 189 265
195 2 2 5 1 125 186 267
196 2 2 5 1 189 126 268
197 2 2 5 1 76 129 215
198 2 2 5 1 75 130 216
199 2 2 5 1 120 77 237
200 2 2 5 1 117 78 238
201 2 2 5 1 119 79 239
202 2 2 5 1 133 5 208
203 2 2 5 1 135 37 207
204 2 2 5 1 127 184 271
205 2 2 5 1 128 190 272
206 2 2 5 1 80 122 258
207 2 2 5 1 124 81 259
208 2 2 5 1 126 82 260
209 2 2 5 1 152 107 222
210 2 2 5 1 80 152 222
211 2 2 5 1 153 109 223
212 2 2 5 1 81 153 223
213 2 2 5 1 154 108 224
214 2 2 5 1 82 154 224
215 2 2 5 1 129 99 227
216 2 2 5 1 130 100 228
217 2 2 5 1 70 164 210
218 2 2 5 1 69 163 209
219 2 2 5 1 89 131 233
220 2 2 5 1 90 132 234
221 2 2 5 1 85 133 208
222 2 2 5 1 87 135 207
223 2 2 5 1 195 104 246
224 2 2 5 1 196 103 247
225 2 2 5 1 164 171 210
226 2 2 5 1 163 172 209
227 2 2 5 1 86 138 192
228 2 2 5 1 88 137 191
229 2 2 5 1 134 86 192
230 2 2 5 1 136 88 191
231 2 2 5 1 167 104 195
232 2 2 5 1 168 103 196
233 2 2 5 1 129 9 193
234 2 2 5 1 130 41 194
235 2 2 5 1 32 33 157
236 2 2 5 1 66 67 158
237 2 2 5 1 64 65 159
238 2 2 5 1 34 35 160
239 2 2 5 1 166 75 213
240 2 2 5 1 103 166 213
241 2 2 5 1 165 76 214
242 2 2 5 1 104 165 214
243 2 2 5 1 37 38 207
244 2 2 5 1 5 6 208
245 2 2 5 1 9 129 227
246 2 2 5 1 41 130 228
247 2 2 5 1 139 85 208
248 2 2 5 1 140 87 207
249 2 2 5 1 141 114 282
250 2 2 5 1 91 141 282
251 2 2 5 1 142 113 281
252 2 2 5 1 95 142 281
253 2 2 5 1 60 138 181
254 2 2 5 1 28 137 182
255 2 2 5 1 85 139 172
256 2 2 5 1 87 140 171
257 2 2 5 1 5 133 248
258 2 2 5 1 134 62 249
259 2 2 5 1 37 135 251
260 2 2 5 1 136 30 250
261 2 2 5 1 139 99 172
262 2 2 5 1 140 100 171
263 2 2 5 1 181 89 233
264 2 2 5 1 182 90 234
265 2 2 5 1 161 69 167
266 2 2 5 1 89 161 167
267 2 2 5 1 162 70 168
268 2 2 5 1 90 162 168
269 2 2 5 1 58 131 205
270 2 2 5 1 26 132 206
271 2 2 5 1 131 89 195
272 2 2 5 1 132 90 196
273 2 2 5 1 138 89 181
274 2 2 5 1 137 90 182
275 2 2 5 1 131 58 233
276 2 2 5 1 132 26 234
277 2 2 5 1 139 7 179
278 2 2 5 1 140 39 180
279 2 2 5 1 100 180 228
280 2 2 5 1 99 179 227
281 2 2 5 1 31 232 250
282 2 2 5 1 229 36 251
283 2 2 5 1 230 68 248
284 2 2 5 1 63 231 249
285 2 2 5 1 99 139 179
286 2 2 5 1 100 140 180
287 2 2 5 1 157 33 212
288 2 2 5 1 66 158 211
289 2 2 5 1 159 65 211
290 2 2 5 1 34 160 212
291 2 2 5 1 158 101 211
292 2 2 5 1 101 159 211
293 2 2 5 1 160 102 212
294 2 2 5 1 102 157 212
295 2 2 5 1 132 196 262
296 2 2 5 1 131 195 261
297 2 2 5 1 153 98 198
298 2 2 5 1 152 92 197
299 2 2 5 1 147 94 200
300 2 2 5 1 148 93 201
301 2 2 5 1 91 144 202
302 2 2 5 1 95 145 203
303 2 2 5 1 101 163 170
304 2 2 5 1 102 164 169
305 2 2 5 1 97 150 199
306 2 2 5 1 146 96 204
307 2 2 5 1 162 88 169
308 2 2 5 1 161 86 170
309 2 2 5 1 59 60 181
310 2 2 5 1 27 28 182
311 2 2 5 1 196 84 262
312 2 2 5 1 195 83 261
313 2 2 5 1 141 91 202
314 2 2 5 1 142 95 203
315 2 2 5 1 105 141 273
316 2 2 5 1 106 142 274
317 2 2 5 1 96 143 204
318 2 2 5 1 163 85 172
319 2 2 5 1 164 87 171
320 2 2 5 1 93 149 201
321 2 2 5 1 94 151 200
322 2 2 5 1 154 97 199
323 2 2 5 1 149 112 245
324 2 2 5 1 150 111 244
325 2 2 5 1 151 110 243
326 2 2 5 1 107 152 241
327 2 2 5 1 109 153 242
328 2 2 5 1 108 154 240
329 2 2 5 1 92 155 197
330 2 2 5 1 98 156 198
331 2 2 5 1 135 229 251
332 2 2 5 1 231 134 249
333 2 2 5 1 133 230 248
334 2 2 5 1 232 136 250
335 2 2 5 1 143 108 275
336 2 2 5 1 144 107 278
337 2 2 5 1 145 109 277
338 2 2 5 1 111 146 279
339 2 2 5 1 112 147 280
340 2 2 5 1 110 148 276
341 2 2 5 1 158 85 221
342 2 2 5 1 160 87 220
343 2 2 5 1 155 105 236
344 2 2 5 1 156 106 235
345 2 2 5 1 67 68 230
346 2 2 5 1 63 64 231
347 2 2 5 1 31 32 232
348 2 2 5 1 35 36 229
349 2 2 5 1 83 195 246
350 2 2 5 1 84 196 247
351 2 2 5 1 32 157 232
352 2 2 5 1 158 67 230
353 2 2 5 1 64 159 231
354 2 2 5 1 160 35 229
355 2 2 5 1 7 8 179
356 2 2 5 1 39 40 180
357 2 2 5 1 17 18 173
358 2 2 5 1 21 22 174
359 2 2 5 1 53 54 175
360 2 2 5 1 13 14 176
361 2 2 5 1 45 46 177
362 2 2 5 1 49 50 178
363 2 2 5 1 101 158 221
364 2 2 5 1 102 160 220
365 2 2 5 1 25 26 206
366 2 2 5 1 57 58 205
367 2 2 5 1 99 165 209
368 2 2 5 1 100 166 210
369 2 2 5 1 9 10 193
370 2 2 5 1 41 42 194
371 2 2 5 1 11 12 183
372 2 2 5 1 15 16 186
373 2 2 5 1 55 56 184
374 2 2 5 1 51 52 185
375 2 2 5 1 43 44 187
376 2 2 5 1 47 48 188
377 2 2 5 1 19 20 189
378 2 2 5 1 23 24 190
379 2 2 5 1 8 9 227
380 2 2 5 1 40 41 228
381 2 2 5 1 163 101 221
382 2 2 5 1 164 102 220
383 2 2 5 1 85 163 221
384 2 2 5 1 87 164 220
385 2 2 5 1 173 125 267
386 2 2 5 1 17 173 267
387 2 2 5 1 126 173 268
388 2 2 5 1 121 175 263
389 2 2 5 1 173 18 268
390 2 2 5 1 124 174 266
391 2 2 5 1 174 123 265
392 2 2 5 1 175 54 263
393 2 2 5 1 174 22 266
394 2 2 5 1 21 174 265
395 2 2 5 1 175 122 264
396 2 2 5 1 53 175 264
397 2 2 5 1 49 178 252
398 2 2 5 1 178 115 252
399 2 2 5 1 45 177 256
400 2 2 5 1 177 46 255
401 2 2 5 1 176 14 254
402 2 2 5 1 13 176 253
403 2 2 5 1 117 176 254
404 2 2 5 1 177 118 256
405 2 2 5 1 119 177 255
406 2 2 5 1 176 116 253
407 2 2 5 1 178 50 257
408 2 2 5 1 120 178 257
409 2 2 5 1 30 2 250
410 2 2 5 1 62 4 249
411 2 2 5 1 1 5 248
412 2 2 5 1 3 37 251
413 2 2 5 1 11 183 226
414 2 2 5 1 43 187 225
415 2 2 5 1 165 104 269
416 2 2 5 1 166 103 270
417 2 2 5 1 15 186 254
418 2 2 5 1 183 12 253
419 2 2 5 1 51 185 257
420 2 2 5 1 188 48 252
421 2 2 5 1 187 44 256
422 2 2 5 1 47 188 255
423 2 2 5 1 55 184 263
424 2 2 5 1 185 52 264
425 2 2 5 1 186 16 267
426 2 2 5 1 19 189 268
427 2 2 5 1 189 20 265
428 2 2 5 1 23 190 266
429 2 2 5 1 184 56 271
430 2 2 5 1 190 24 272
431 2 2 5 1 68 1 248
432 2 2 5 1 2 31 250
433 2 2 5 1 4 63 249
434 2 2 5 1 36 3 251
435 2 2 5 1 89 167 195
436 2 2 5 1 90 168 196
437 2 2 5 1 26 27 234
438 2 2 5 1 58 59 233
439 2 2 5 1 33 34 212
440 2 2 5 1 65 66 211
441 2 2 5 1 104 167 269
442 2 2 5 1 167 69 269
443 2 2 5 1 103 168 270
444 2 2 5 1 168 70 270
445 2 2 5 1 172 99 209
446 2 2 5 1 171 100 210
447 2 2 5 1 226 183 282
448 2 2 5 1 225 187 281
449 2 2 5 1 173 126 260
450 2 2 5 1 174 124 259
451 2 2 5 1 122 175 258
452 2 2 5 1 194 42 225
453 2 2 5 1 113 194 225
454 2 2 5 1 193 10 226
455 2 2 5 1 114 193 226
456 2 2 5 1 176 117 238
457 2 2 5 1 177 119 239
458 2 2 5 1 178 120 237
459 2 2 5 1 42 43 225
460 2 2 5 1 10 11 226
461 2 2 5 1 153 198 242
462 2 2 5 1 152 197 241
463 2 2 5 1 48 49 252
464 2 2 5 1 14 15 254
465 2 2 5 1 12 13 253
466 2 2 5 1 46 47 255
467 2 2 5 1 44 45 256
468 2 2 5 1 50 51 257
469 2 2 5 1 54 55 263
470 2 2 5 1 52 53 264
471 2 2 5 1 20 21 265
472 2 2 5 1 22 23 266
473 2 2 5 1 16 17 267
474 2 2 5 1 18 19 268
475 2 2 5 1 56 57 271
476 2 2 5 1 24 25 272
477 2 2 5 1 199 150 244
478 2 2 5 1 213 106 247
479 2 2 5 1 214 105 246
480 2 2 5 1 198 73 242
481 2 2 5 1 197 71 241
482 2 2 5 1 147 200 280
483 2 2 5 1 148 201 276
484 2 2 5 1 202 144 278
485 2 2 5 1 203 145 277
486 2 2 5 1 205 127 271
487 2 2 5 1 57 205 271
488 2 2 5 1 206 128 272
489 2 2 5 1 25 206 272
490 2 2 5 1 74 199 244
491 2 2 5 1 146 204 279
492 2 2 5 1 115 178 237
493 2 2 5 1 116 176 238
494 2 2 5 1 118 177 239
495 2 2 5 1 175 121 258
496 2 2 5 1 123 174 259
497 2 2 5 1 125 173 260
498 2 2 5 1 179 8 227
499 2 2 5 1 180 40 228
500 2 2 5 1 130 194 216
501 2 2 5 1 129 193 215
502 2 2 5 1 194 113 216
503 2 2 5 1 193 114 215
504 2 2 5 1 59 181 233
505 2 2 5 1 27 182 234
506 2 2 5 1 201 149 245
507 2 2 5 1 72 201 245
508 2 2 5 1 200 151 243
509 2 2 5 1 72 200 243
510 2 2 5 1 199 74 240
511 2 2 5 1 154 199 240
512 2 2 5 1 71 197 236
513 2 2 5 1 197 155 236
514 2 2 5 1 73 198 235
515 2 2 5 1 198 156 235
516 2 2 5 1 200 72 280
517 2 2 5 1 201 72 276
518 2 2 5 1 71 202 278
519 2 2 5 1 73 203 277
520 2 2 5 1 204 74 279
521 2 2 5 1 183 91 282
522 2 2 5 1 187 95 281
523 2 2 5 1 206 132 262
524 2 2 5 1 205 131 261
525 2 2 5 1 142 203 274
526 2 2 5 1 141 202 273
527 2 2 5 1 203 73 274
528 2 2 5 1 202 71 273
529 2 2 5 1 204 143 275
530 2 2 5 1 74 204 275
531 2 2 5 1 210 166 270
532 2 2 5 1 209 165 269
533 2 2 5 1 217 110 224
534 2 2 5 1 218 111 223
535 2 2 5 1 219 112 222
536 2 2 5 1 127 205 261
537 2 2 5 1 128 206 262
538 2 2 5 1 69 209 269
539 2 2 5 1 70 210 270
540 2 2 5 1 236 105 273
541 2 2 5 1 235 106 274
542 2 2 5 1 107 219 222
543 2 2 5 1 109 218 223
544 2 2 5 1 108 217 224
545 2 2 5 1 104 214 246
546 2 2 5 1 103 213 247
547 2 2 5 1 245 112 280
548 2 2 5 1 243 110 276
549 2 2 5 1 108 240 275
550 2 2 5 1 244 111 279
551 2 2 5 1 107 241 278
552 2 2 5 1 109 242 277
553 2 2 5 1 114 226 282
554 2 2 5 1 113 225 281
555 2 2 5 1 71 236 273
556 2 2 5 1 73 235 274
557 2 2 5 1 240 74 275
558 2 2 5 1 72 243 276
559 2 2 5 1 241 71 278
560 2 2 5 1 242 73 277
561 2 2 5 1 74 244 279
562 2 2 5 1 72 245 280
$EndElements
