$MeshFormat
2.2 0 8
$EndMeshFormat
$PhysicalNames
5
1 1 "Left"
1 2 "Right"
1 3 "Bottom"
1 4 "Top"
2 5 "Fluid"
$EndPhysicalNames
$Nodes
104
1 0 0 0
2 40 0 0
3 40 10 0
4 0 10 0
5 2.499999999997799 0 0
6 4.999999999995876 0 0
7 7.499999999988748 0 0
8 9.999999999981448 0 0
9 12.49999999997415 0 0
10 14.99999999996684 0 0
11 17.49999999996579 0 0
12 19.99999999996959 0 0
13 22.49999999997339 0 0
14 24.99999999997719 0 0
15 27.49999999998099 0 0
16 29.99999999998479 0 0
17 32.4999999999886 0 0
18 34.9999999999924 0 0
19 37.4999999999962 0 0
20 40 2.499999999995362 0
21 40 4.999999999992398 0
22 40 7.499999999996199 0
23 37.5 10 0
24 35 10 0
25 32.5 10 0
26 30 10 0
27 27.5 10 0
28 25 10 0
29 22.5 10 0
30 20 10 0
31 17.5 10 0
32 15 10 0
33 12.5 10 0
34 10 10 0
35 7.5 10 0
36 5 10 0
37 2.5 10 0
38 0 7.5 0
39 0 5 0
40 0 2.5 0
41 6.27775912389479 4.875476879803907 0
42 13.54974898198294 4.982448489264547 0
43 33.72207094109032 5.124739098619615 0
44 26.45370806373472 4.95466320935943 0
45 18.51289834116169 5.010108042958495 0
46 9.999999999981005 3.906249999991408 0
47 30.00000000000021 6.093750000000364 0
48 22.5624999999867 6.140624999990563 0
49 36.34461481161318 3.138344260690657 0
50 3.46408661861009 3.118704420492887 0
51 3.654986386282844 6.864301251584303 0
52 36.53496529673412 6.883695708833992 0
53 23.6294873172859 3.059134512030487 0
54 8.854166666662024 6.953124999999277 0
55 31.1458333333328 3.046874999997287 0
56 16.36356021510939 7.153683905690866 0
57 16.46975260825433 2.683523533597056 0
58 28.20790912399242 2.833911185332206 0
59 11.79019333403416 7.164664281145918 0
60 20.72114054920857 2.799388907142774 0
61 7.608848314588499 2.68346207864873 0
62 12.31117061337633 2.787701044040418 0
63 32.39115168539303 7.3165379213487 0
64 27.50097769462899 6.92365952585666 0
65 20.20653350553406 7.227196110411949 0
66 24.94416999322285 7.335836714795491 0
67 5.951252148072837 7.156355658154739 0
68 34.04836606763183 2.844677768577716 0
69 25.85250654873727 2.524642810262121 0
70 14.12080908173384 7.588897554859365 0
71 18.59822840238434 2.108207205429167 0
72 5.404797428742879 2.443242531286268 0
73 34.59490217059075 7.557274863474557 0
74 14.36589400443836 2.238952526095364 0
75 18.2943570414369 7.952913938587007 0
76 38.09978094161879 5.002754502894657 0
77 1.900050697534703 4.997875215715719 0
78 20.93975780336184 4.855821519189824 0
79 11.68668537068016 5.098775157573992 0
80 28.31331462929077 4.901224842432166 0
81 15.79959032009424 5.000000000004043 0
82 8.142350908635109 5.029918243265104 0
83 31.85762036794249 4.970146802817291 0
84 24.68847438459348 4.802980449287618 0
85 9.334280904823515 1.684171057390625 0
86 30.66571909515734 8.315828942606828 0
87 23.20249099466447 8.339665375137761 0
88 38.07316878243478 7.99365232448174 0
89 1.967582949651054 7.986605170132582 0
90 38.03190826698956 2.014679162090482 0
91 1.92648101248904 2.006857732652445 0
92 4.288139185330505 5.000487580352287 0
93 35.71186081466206 5.000487580354008 0
94 36.23089495151417 1.486689877566327 0
95 3.767199390305083 8.516845917114498 0
96 36.3228076775293 8.530290696488279 0
97 3.669266082488425 1.48827688626339 0
98 26.40376752751862 8.603280465491334 0
99 10.2347519586369 8.172823871678316 0
100 29.76524804135054 1.827176128323854 0
101 22.29080891721861 1.815317840506891 0
102 11.09660725349438 1.432589950355695 0
103 28.72391061208122 8.566818787233915 0
104 21.47668617348829 8.538046479560274 0
$EndNodes
$Elements
206
1 1 2 3 1 1 5
2 1 2 3 1 5 6
3 1 2 3 1 6 7
4 1 2 3 1 7 8
5 1 2 3 1 8 9
6 1 2 3 1 9 10
7 1 2 3 1 10 11
8 1 2 3 1 11 12
9 1 2 3 1 12 13
10 1 2 3 1 13 14
11 1 2 3 1 14 15
12 1 2 3 1 15 16
13 1 2 3 1 16 17
14 1 2 3 1 17 18
15 1 2 3 1 18 19
16 1 2 3 1 19 2
17 1 2 2 2 2 20
18 1 2 2 2 20 21
19 1 2 2 2 21 22
20 1 2 2 2 22 3
21 1 2 4 3 3 23
22 1 2 4 3 23 24
23 1 2 4 3 24 25
24 1 2 4 3 25 26
25 1 2 4 3 26 27
26 1 2 4 3 27 28
27 1 2 4 3 28 29
28 1 2 4 3 29 30
29 1 2 4 3 30 31
30 1 2 4 3 31 32
31 1 2 4 3 32 33
32 1 2 4 3 33 34
33 1 2 4 3 34 35
34 1 2 4 3 35 36
35 1 2 4 3 36 37
36 1 2 4 3 37 4
37 1 2 1 4 4 38
38 1 2 1 4 38 39
39 1 2 1 4 39 40
40 1 2 1 4 40 1
41 2 2 5 1 10 11 57
42 2 2 5 1 31 32 56
43 2 2 5 1 55 47 80
44 2 2 5 1 54 46 79
45 2 2 5 1 35 54 99
46 2 2 5 1 17 55 100
47 2 2 5 1 14 53 101
48 2 2 5 1 53 48 78
49 2 2 5 1 54 35 67
50 2 2 5 1 55 17 68
51 2 2 5 1 48 53 84
52 2 2 5 1 58 55 80
53 2 2 5 1 59 54 79
54 2 2 5 1 46 54 82
55 2 2 5 1 47 55 83
56 2 2 5 1 68 49 93
57 2 2 5 1 67 51 92
58 2 2 5 1 20 76 90
59 2 2 5 1 77 40 91
60 2 2 5 1 56 45 75
61 2 2 5 1 38 77 89
62 2 2 5 1 76 22 88
63 2 2 5 1 10 57 74
64 2 2 5 1 53 14 69
65 2 2 5 1 45 56 81
66 2 2 5 1 57 45 81
67 2 2 5 1 45 57 71
68 2 2 5 1 54 67 82
69 2 2 5 1 55 68 83
70 2 2 5 1 67 41 82
71 2 2 5 1 68 43 83
72 2 2 5 1 42 74 81
73 2 2 5 1 74 57 81
74 2 2 5 1 34 35 99
75 2 2 5 1 16 17 100
76 2 2 5 1 70 42 81
77 2 2 5 1 56 70 81
78 2 2 5 1 43 68 93
79 2 2 5 1 41 67 92
80 2 2 5 1 31 56 75
81 2 2 5 1 56 32 70
82 2 2 5 1 60 53 78
83 2 2 5 1 13 14 101
84 2 2 5 1 20 21 76
85 2 2 5 1 39 40 77
86 2 2 5 1 38 39 77
87 2 2 5 1 21 22 76
88 2 2 5 1 69 44 84
89 2 2 5 1 57 11 71
90 2 2 5 1 53 69 84
91 2 2 5 1 7 61 72
92 2 2 5 1 25 63 73
93 2 2 5 1 60 45 71
94 2 2 5 1 59 42 70
95 2 2 5 1 6 7 72
96 2 2 5 1 24 25 73
97 2 2 5 1 76 49 90
98 2 2 5 1 50 77 91
99 2 2 5 1 58 44 69
100 2 2 5 1 77 51 89
101 2 2 5 1 52 76 88
102 2 2 5 1 15 58 69
103 2 2 5 1 45 65 75
104 2 2 5 1 33 59 70
105 2 2 5 1 49 68 94
106 2 2 5 1 51 67 95
107 2 2 5 1 42 62 74
108 2 2 5 1 44 64 66
109 2 2 5 1 73 43 93
110 2 2 5 1 72 41 92
111 2 2 5 1 58 15 100
112 2 2 5 1 59 33 99
113 2 2 5 1 60 12 101
114 2 2 5 1 63 43 73
115 2 2 5 1 61 41 72
116 2 2 5 1 12 60 71
117 2 2 5 1 55 58 100
118 2 2 5 1 54 59 99
119 2 2 5 1 35 36 67
120 2 2 5 1 17 18 68
121 2 2 5 1 53 60 101
122 2 2 5 1 62 9 74
123 2 2 5 1 65 48 104
124 2 2 5 1 14 15 69
125 2 2 5 1 64 47 103
126 2 2 5 1 62 46 102
127 2 2 5 1 61 7 85
128 2 2 5 1 63 25 86
129 2 2 5 1 12 13 101
130 2 2 5 1 52 73 93
131 2 2 5 1 50 72 92
132 2 2 5 1 15 16 100
133 2 2 5 1 33 34 99
134 2 2 5 1 32 33 70
135 2 2 5 1 44 58 80
136 2 2 5 1 42 59 79
137 2 2 5 1 65 30 75
138 2 2 5 1 48 87 104
139 2 2 5 1 9 10 74
140 2 2 5 1 47 86 103
141 2 2 5 1 46 85 102
142 2 2 5 1 66 28 87
143 2 2 5 1 45 60 78
144 2 2 5 1 25 26 86
145 2 2 5 1 7 8 85
146 2 2 5 1 11 12 71
147 2 2 5 1 65 45 78
148 2 2 5 1 48 65 78
149 2 2 5 1 30 31 75
150 2 2 5 1 67 36 95
151 2 2 5 1 68 18 94
152 2 2 5 1 46 62 79
153 2 2 5 1 62 42 79
154 2 2 5 1 47 64 80
155 2 2 5 1 64 44 80
156 2 2 5 1 28 29 87
157 2 2 5 1 3 23 88
158 2 2 5 1 22 3 88
159 2 2 5 1 37 4 89
160 2 2 5 1 4 38 89
161 2 2 5 1 2 20 90
162 2 2 5 1 19 2 90
163 2 2 5 1 1 5 91
164 2 2 5 1 40 1 91
165 2 2 5 1 44 66 84
166 2 2 5 1 61 46 82
167 2 2 5 1 41 61 82
168 2 2 5 1 63 47 83
169 2 2 5 1 43 63 83
170 2 2 5 1 66 48 84
171 2 2 5 1 9 62 102
172 2 2 5 1 46 61 85
173 2 2 5 1 47 63 86
174 2 2 5 1 30 65 104
175 2 2 5 1 48 66 87
176 2 2 5 1 66 64 98
177 2 2 5 1 28 66 98
178 2 2 5 1 18 19 94
179 2 2 5 1 36 37 95
180 2 2 5 1 5 6 97
181 2 2 5 1 23 24 96
182 2 2 5 1 27 28 98
183 2 2 5 1 8 9 102
184 2 2 5 1 26 27 103
185 2 2 5 1 29 30 104
186 2 2 5 1 27 98 103
187 2 2 5 1 98 64 103
188 2 2 5 1 49 76 93
189 2 2 5 1 76 52 93
190 2 2 5 1 77 50 92
191 2 2 5 1 51 77 92
192 2 2 5 1 6 72 97
193 2 2 5 1 24 73 96
194 2 2 5 1 72 50 97
195 2 2 5 1 73 52 96
196 2 2 5 1 19 90 94
197 2 2 5 1 90 49 94
198 2 2 5 1 37 89 95
199 2 2 5 1 89 51 95
200 2 2 5 1 50 91 97
201 2 2 5 1 52 88 96
202 2 2 5 1 87 29 104
203 2 2 5 1 88 23 96
204 2 2 5 1 91 5 97
205 2 2 5 1 85 8 102
206 2 2 5 1 86 26 103
$EndElements
