$MeshFormat
2.2 0 8
$EndMeshFormat
$PhysicalNames
5
1 1 "Left"
1 2 "Right"
1 3 "Bottom"
1 4 "Top"
2 5 "Fluid"
$EndPhysicalNames
$Nodes
52
1 0 0 0
2 40 0 0
3 40 10 0
4 0 10 0
5 3.999999999996757 0 0
6 7.999999999987307 0 0
7 11.99999999997564 0 0
8 15.99999999996411 0 0
9 19.99999999996964 0 0
10 23.99999999997573 0 0
11 27.99999999998182 0 0
12 31.99999999998791 0 0
13 35.99999999999396 0 0
14 40 3.33333333332627 0
15 40 6.666666666661615 0
16 35.99999999999999 10 0
17 31.99999999999998 10 0
18 27.99999999999998 10 0
19 23.99999999999996 10 0
20 19.99999999999996 10 0
21 15.99999999999995 10 0
22 11.99999999999994 10 0
23 7.999999999999929 10 0
24 3.999999999999964 10 0
25 0 6.66666666666666 0
26 0 3.33333333333332 0
27 4.777777777777797 4.999999999999988 0
28 35.22222222223137 4.999999999993942 0
29 13.99999999996987 4.99999999999514 0
30 25.41867558533616 5.218564242184527 0
31 19.35166700991461 4.957266588496781 0
32 30.89208488204264 6.103422672479775 0
33 9.107915117946389 3.896577327516435 0
34 22.3470353706165 6.575165229051918 0
35 22.83416949440661 3.149323409912554 0
36 6.900968187023709 6.642592777977933 0
37 33.09903181297299 3.357407222018413 0
38 11.37220715146324 6.769731665459881 0
39 29.05485552784751 3.412816510118955 0
40 16.30112937707608 3.295870481234222 0
41 16.04846964564211 7.017410257664458 0
42 2.888888888888627 2.733333333334097 0
43 2.921941991284458 7.218209907440761 0
44 37.1111111111123 7.266666666667191 0
45 37.07805800871553 2.781790092555428 0
46 33.61262330173496 7.077054696242939 0
47 6.387376698260214 2.922945303752272 0
48 28.08655741398405 7.065377034407873 0
49 11.91344258600337 2.934622965584494 0
50 37.95793991089272 5.006922394170333 0
51 2.042060089108777 4.993077605824972 0
52 25.87432324597527 2.252697681732461 0
$EndNodes
$Elements
102
1 1 2 3 1 1 5
2 1 2 3 1 5 6
3 1 2 3 1 6 7
4 1 2 3 1 7 8
5 1 2 3 1 8 9
6 1 2 3 1 9 10
7 1 2 3 1 10 11
8 1 2 3 1 11 12
9 1 2 3 1 12 13
10 1 2 3 1 13 2
11 1 2 2 2 2 14
12 1 2 2 2 14 15
13 1 2 2 2 15 3
14 1 2 4 3 3 16
15 1 2 4 3 16 17
16 1 2 4 3 17 18
17 1 2 4 3 18 19
18 1 2 4 3 19 20
19 1 2 4 3 20 21
20 1 2 4 3 21 22
21 1 2 4 3 22 23
22 1 2 4 3 23 24
23 1 2 4 3 24 4
24 1 2 1 4 4 25
25 1 2 1 4 25 26
26 1 2 1 4 26 1
27 2 2 5 1 22 38 41
28 2 2 5 1 21 22 41
29 2 2 5 1 19 30 48
30 2 2 5 1 30 19 34
31 2 2 5 1 38 29 41
32 2 2 5 1 20 31 34
33 2 2 5 1 31 20 41
34 2 2 5 1 9 31 40
35 2 2 5 1 8 40 49
36 2 2 5 1 31 9 35
37 2 2 5 1 18 19 48
38 2 2 5 1 7 8 49
39 2 2 5 1 33 6 49
40 2 2 5 1 32 17 48
41 2 2 5 1 6 7 49
42 2 2 5 1 17 18 48
43 2 2 5 1 36 24 43
44 2 2 5 1 37 13 45
45 2 2 5 1 12 37 39
46 2 2 5 1 23 36 38
47 2 2 5 1 20 21 41
48 2 2 5 1 8 9 40
49 2 2 5 1 17 32 46
50 2 2 5 1 6 33 47
51 2 2 5 1 11 12 39
52 2 2 5 1 22 23 38
53 2 2 5 1 40 29 49
54 2 2 5 1 23 24 36
55 2 2 5 1 12 13 37
56 2 2 5 1 19 20 34
57 2 2 5 1 26 1 42
58 2 2 5 1 4 25 43
59 2 2 5 1 2 14 45
60 2 2 5 1 15 3 44
61 2 2 5 1 1 5 42
62 2 2 5 1 24 4 43
63 2 2 5 1 13 2 45
64 2 2 5 1 3 16 44
65 2 2 5 1 30 34 35
66 2 2 5 1 27 36 43
67 2 2 5 1 28 37 45
68 2 2 5 1 30 35 52
69 2 2 5 1 42 5 47
70 2 2 5 1 44 16 46
71 2 2 5 1 9 10 35
72 2 2 5 1 5 6 47
73 2 2 5 1 16 17 46
74 2 2 5 1 34 31 35
75 2 2 5 1 33 36 47
76 2 2 5 1 36 27 47
77 2 2 5 1 32 37 46
78 2 2 5 1 37 28 46
79 2 2 5 1 37 32 39
80 2 2 5 1 36 33 38
81 2 2 5 1 35 10 52
82 2 2 5 1 27 42 47
83 2 2 5 1 28 44 46
84 2 2 5 1 38 33 49
85 2 2 5 1 29 38 49
86 2 2 5 1 39 32 48
87 2 2 5 1 30 39 48
88 2 2 5 1 10 11 52
89 2 2 5 1 29 40 41
90 2 2 5 1 40 31 41
91 2 2 5 1 14 15 50
92 2 2 5 1 25 26 51
93 2 2 5 1 11 39 52
94 2 2 5 1 26 42 51
95 2 2 5 1 43 25 51
96 2 2 5 1 15 44 50
97 2 2 5 1 45 14 50
98 2 2 5 1 39 30 52
99 2 2 5 1 42 27 51
100 2 2 5 1 27 43 51
101 2 2 5 1 44 28 50
102 2 2 5 1 28 45 50
$EndElements
