$MeshFormat
2.2 0 8
$EndMeshFormat
$PhysicalNames
5
1 1 "Left"
1 2 "Right"
1 3 "Bottom"
1 4 "Top"
2 5 "Fluid"
$EndPhysicalNames
$Nodes
61
1 0 0 0
2 40 0 0
3 40 10 0
4 0 10 0
5 3.333333333330548 0 0
6 6.666666666657846 0 0
7 9.999999999981444 0 0
8 13.33333333330504 0 0
9 16.66666666663118 0 0
10 19.99999999996957 0 0
11 23.33333333330795 0 0
12 26.66666666664634 0 0
13 29.99999999998474 0 0
14 33.33333333332316 0 0
15 36.66666666666158 0 0
16 40 3.33333333332626 0
17 40 6.666666666661585 0
18 36.66666666666667 10 0
19 33.33333333333334 10 0
20 30 10 0
21 26.66666666666667 10 0
22 23.33333333333334 10 0
23 20.00000000000003 10 0
24 16.66666666666671 10 0
25 13.33333333333339 10 0
26 10.00000000000005 10 0
27 6.6666666666667 10 0
28 3.33333333333335 10 0
29 0 6.666666666666667 0
30 0 3.333333333333348 0
31 8.86832611831559 5.034722222220974 0
32 14.99999999998228 4.999999999993506 0
33 34.99999999999999 5.000000000002532 0
34 28.33333333333333 5.000000000002542 0
35 21.66666666666669 5.000000000004233 0
36 3.456449246359653 5.000000000000053 0
37 18.33333333331516 6.666666666649876 0
38 11.80571016283594 3.071467223251315 0
39 31.66666666666668 6.66666666666752 0
40 25.00000000000001 6.666666666668087 0
41 11.78017156150742 6.914861337235374 0
42 24.99999999997715 3.125000000000123 0
43 31.66666666665393 3.124999999999821 0
44 18.33333333330038 3.124999999990449 0
45 5.700048850701704 3.156551256866438 0
46 5.785754163838185 6.932780409628965 0
47 37.08333333333172 2.916666666666766 0
48 37.08333333333459 7.08333333333395 0
49 15.00000000000005 7.777777777775153 0
50 14.99999999996811 2.222222222220796 0
51 21.66666666663876 2.222222222223734 0
52 28.33333333331554 2.222222222222789 0
53 28.33333333333333 7.777777777779193 0
54 21.66666666666669 7.777777777780127 0
55 2.600996932394002 2.548938058998346 0
56 2.605458891637114 7.455712694151462 0
57 8.716447747741752 7.684443164524999 0
58 8.712062418886827 2.326132977707675 0
59 34.67261904761349 2.261904761905271 0
60 34.47916666666911 7.604166666668794 0
61 37.83333333333326 4.99999999999822 0
$EndNodes
$Elements
120
1 1 2 3 1 1 5
2 1 2 3 1 5 6
3 1 2 3 1 6 7
4 1 2 3 1 7 8
5 1 2 3 1 8 9
6 1 2 3 1 9 10
7 1 2 3 1 10 11
8 1 2 3 1 11 12
9 1 2 3 1 12 13
10 1 2 3 1 13 14
11 1 2 3 1 14 15
12 1 2 3 1 15 2
13 1 2 2 2 2 16
14 1 2 2 2 16 17
15 1 2 2 2 17 3
16 1 2 4 3 3 18
17 1 2 4 3 18 19
18 1 2 4 3 19 20
19 1 2 4 3 20 21
20 1 2 4 3 21 22
21 1 2 4 3 22 23
22 1 2 4 3 23 24
23 1 2 4 3 24 25
24 1 2 4 3 25 26
25 1 2 4 3 26 27
26 1 2 4 3 27 28
27 1 2 4 3 28 4
28 1 2 1 4 4 29
29 1 2 1 4 29 30
30 1 2 1 4 30 1
31 2 2 5 1 29 30 36
32 2 2 5 1 36 30 55
33 2 2 5 1 29 36 56
34 2 2 5 1 35 37 44
35 2 2 5 1 31 38 41
36 2 2 5 1 34 40 42
37 2 2 5 1 37 32 44
38 2 2 5 1 33 39 43
39 2 2 5 1 39 34 43
40 2 2 5 1 38 32 41
41 2 2 5 1 40 35 42
42 2 2 5 1 23 24 37
43 2 2 5 1 2 16 47
44 2 2 5 1 15 2 47
45 2 2 5 1 7 8 38
46 2 2 5 1 19 20 39
47 2 2 5 1 17 3 48
48 2 2 5 1 3 18 48
49 2 2 5 1 21 22 40
50 2 2 5 1 5 45 55
51 2 2 5 1 46 28 56
52 2 2 5 1 5 6 45
53 2 2 5 1 27 28 46
54 2 2 5 1 45 31 46
55 2 2 5 1 36 45 46
56 2 2 5 1 25 26 41
57 2 2 5 1 11 12 42
58 2 2 5 1 13 14 43
59 2 2 5 1 9 10 44
60 2 2 5 1 35 44 51
61 2 2 5 1 34 42 52
62 2 2 5 1 44 32 50
63 2 2 5 1 43 34 52
64 2 2 5 1 41 32 49
65 2 2 5 1 42 35 51
66 2 2 5 1 23 37 54
67 2 2 5 1 37 35 54
68 2 2 5 1 32 37 49
69 2 2 5 1 38 8 50
70 2 2 5 1 37 24 49
71 2 2 5 1 39 20 53
72 2 2 5 1 32 38 50
73 2 2 5 1 21 40 53
74 2 2 5 1 40 22 54
75 2 2 5 1 40 34 53
76 2 2 5 1 34 39 53
77 2 2 5 1 35 40 54
78 2 2 5 1 1 5 55
79 2 2 5 1 30 1 55
80 2 2 5 1 4 29 56
81 2 2 5 1 28 4 56
82 2 2 5 1 31 41 57
83 2 2 5 1 33 43 59
84 2 2 5 1 25 41 49
85 2 2 5 1 9 44 50
86 2 2 5 1 11 42 51
87 2 2 5 1 42 12 52
88 2 2 5 1 13 43 52
89 2 2 5 1 44 10 51
90 2 2 5 1 7 38 58
91 2 2 5 1 38 31 58
92 2 2 5 1 19 39 60
93 2 2 5 1 39 33 60
94 2 2 5 1 45 36 55
95 2 2 5 1 36 46 56
96 2 2 5 1 41 26 57
97 2 2 5 1 43 14 59
98 2 2 5 1 14 15 59
99 2 2 5 1 18 19 60
100 2 2 5 1 6 7 58
101 2 2 5 1 26 27 57
102 2 2 5 1 8 9 50
103 2 2 5 1 24 25 49
104 2 2 5 1 10 11 51
105 2 2 5 1 12 13 52
106 2 2 5 1 20 21 53
107 2 2 5 1 22 23 54
108 2 2 5 1 15 47 59
109 2 2 5 1 48 18 60
110 2 2 5 1 45 6 58
111 2 2 5 1 27 46 57
112 2 2 5 1 48 33 61
113 2 2 5 1 33 47 61
114 2 2 5 1 16 17 61
115 2 2 5 1 46 31 57
116 2 2 5 1 31 45 58
117 2 2 5 1 47 33 59
118 2 2 5 1 33 48 60
119 2 2 5 1 47 16 61
120 2 2 5 1 17 48 61
$EndElements
