$MeshFormat
2.2 0 8
$EndMeshFormat
$PhysicalNames
5
1 1 "Left"
1 2 "Right"
1 3 "Bottom"
1 4 "Top"
2 5 "Fluid"
$EndPhysicalNames
$Nodes
43
1 0 0 0
2 40 0 0
3 40 10 0
4 0 10 0
5 4.444444444440899 0 0
6 8.888888888873614 0 0
7 13.33333333330508 0 0
8 17.77777777774403 0 0
9 22.22222222219523 0 0
10 26.66666666664642 0 0
11 31.11111111109761 0 0
12 35.55555555554881 0 0
13 40 3.33333333332627 0
14 40 6.666666666661605 0
15 35.55555555555554 10 0
16 31.11111111111108 10 0
17 26.66666666666662 10 0
18 22.22222222222216 10 0
19 17.77777777777773 10 0
20 13.33333333333329 10 0
21 8.888888888888864 10 0
22 4.444444444444436 10 0
23 0 6.666666666666655 0
24 0 3.333333333333323 0
25 4.722222222222237 4.999999999999989 0
26 35.27777777778537 4.999999999993937 0
27 11.21098785545567 5.07465075568867 0
28 28.78901214452382 4.925349244308205 0
29 19.99999999998351 4.999999999994181 0
30 24.42446909556339 6.504870418658388 0
31 15.57553090440876 3.495129581335128 0
32 32.35962200307186 6.59699754788797 0
33 7.640377996922926 3.403002452106094 0
34 15.57267728315286 6.910253519857649 0
35 24.427322716822 3.089746480134268 0
36 7.492948368438235 6.761554244324813 0
37 32.50705163156177 3.238445755669737 0
38 37.76027077497648 2.38095238094863 0
39 2.239729225022333 2.380952380952375 0
40 2.239729225023344 7.619047619047614 0
41 37.7602707749784 7.619047619044443 0
42 1.840336134453582 4.999999999999991 0
43 38.09490462852071 4.999999999994681 0
$EndNodes
$Elements
84
1 1 2 3 1 1 5
2 1 2 3 1 5 6
3 1 2 3 1 6 7
4 1 2 3 1 7 8
5 1 2 3 1 8 9
6 1 2 3 1 9 10
7 1 2 3 1 10 11
8 1 2 3 1 11 12
9 1 2 3 1 12 2
10 1 2 2 2 2 13
11 1 2 2 2 13 14
12 1 2 2 2 14 3
13 1 2 4 3 3 15
14 1 2 4 3 15 16
15 1 2 4 3 16 17
16 1 2 4 3 17 18
17 1 2 4 3 18 19
18 1 2 4 3 19 20
19 1 2 4 3 20 21
20 1 2 4 3 21 22
21 1 2 4 3 22 4
22 1 2 1 4 4 23
23 1 2 1 4 23 24
24 1 2 1 4 24 1
25 2 2 5 1 6 7 27
26 2 2 5 1 20 21 27
27 2 2 5 1 18 19 29
28 2 2 5 1 10 11 28
29 2 2 5 1 16 17 28
30 2 2 5 1 8 9 29
31 2 2 5 1 18 29 30
32 2 2 5 1 28 17 30
33 2 2 5 1 27 7 31
34 2 2 5 1 8 29 31
35 2 2 5 1 20 27 34
36 2 2 5 1 10 28 35
37 2 2 5 1 29 9 35
38 2 2 5 1 29 19 34
39 2 2 5 1 6 27 33
40 2 2 5 1 16 28 32
41 2 2 5 1 27 21 36
42 2 2 5 1 28 11 37
43 2 2 5 1 25 5 33
44 2 2 5 1 26 15 32
45 2 2 5 1 12 2 38
46 2 2 5 1 1 5 39
47 2 2 5 1 22 4 40
48 2 2 5 1 3 15 41
49 2 2 5 1 5 25 39
50 2 2 5 1 15 26 41
51 2 2 5 1 25 22 40
52 2 2 5 1 26 12 38
53 2 2 5 1 17 18 30
54 2 2 5 1 7 8 31
55 2 2 5 1 28 30 35
56 2 2 5 1 27 31 34
57 2 2 5 1 30 29 35
58 2 2 5 1 31 29 34
59 2 2 5 1 22 25 36
60 2 2 5 1 12 26 37
61 2 2 5 1 5 6 33
62 2 2 5 1 15 16 32
63 2 2 5 1 21 22 36
64 2 2 5 1 11 12 37
65 2 2 5 1 39 25 42
66 2 2 5 1 25 40 42
67 2 2 5 1 41 26 43
68 2 2 5 1 26 38 43
69 2 2 5 1 19 20 34
70 2 2 5 1 9 10 35
71 2 2 5 1 24 1 39
72 2 2 5 1 14 3 41
73 2 2 5 1 2 13 38
74 2 2 5 1 4 23 40
75 2 2 5 1 13 14 43
76 2 2 5 1 23 24 42
77 2 2 5 1 32 28 37
78 2 2 5 1 33 27 36
79 2 2 5 1 24 39 42
80 2 2 5 1 14 41 43
81 2 2 5 1 40 23 42
82 2 2 5 1 38 13 43
83 2 2 5 1 25 33 36
84 2 2 5 1 26 32 37
$EndElements
