$MeshFormat
2.2 0 8
$EndMeshFormat
$PhysicalNames
5
1 1 "Left"
1 2 "Right"
1 3 "Bottom"
1 4 "Top"
2 5 "Fluid"
$EndPhysicalNames
$Nodes
89
1 0 0 0
2 40 0 0
3 40 10 0
4 0 10 0
5 2.857142857140411 0 0
6 5.714285714279686 0 0
7 8.571428571414206 0 0
8 11.42857142854873 0 0
9 14.28571428568325 0 0
10 17.14285714282243 0 0
11 19.99999999996964 0 0
12 22.85714285711686 0 0
13 25.71428571426405 0 0
14 28.57142857141124 0 0
15 31.42857142855843 0 0
16 34.28571428570562 0 0
17 37.14285714285281 0 0
18 40 2.499999999995367 0
19 40 4.999999999992411 0
20 40 7.499999999996209 0
21 37.14285714285714 10 0
22 34.28571428571428 10 0
23 31.42857142857142 10 0
24 28.57142857142856 10 0
25 25.71428571428569 10 0
26 22.85714285714282 10 0
27 19.99999999999995 10 0
28 17.14285714285708 10 0
29 14.28571428571423 10 0
30 11.42857142857138 10 0
31 8.571428571428537 10 0
32 5.714285714285694 10 0
33 2.857142857142854 10 0
34 0 7.499999999999997 0
35 0 4.999999999999988 0
36 0 2.499999999999989 0
37 4.85738269650202 4.985752815751084 0
38 35.1426173034941 5.014247184249311 0
39 12.8146670253615 4.882412067678461 0
40 18.26864267967882 5.028312490506687 0
41 26.97996204702176 5.163484291407783 0
42 22.82724106573794 5.228833584943289 0
43 30.95892686849653 5.95107038130491 0
44 9.041073131489799 4.04892961868755 0
45 16.00029661199332 2.621227768298573 0
46 15.81706763101122 7.23761278152288 0
47 9.544758712857684 7.044548789225868 0
48 30.46782321791475 2.959046048141122 0
49 20.69502247582968 3.207304564400058 0
50 24.95670555147932 3.223396445463269 0
51 2.917801654560156 2.951977401129917 0
52 2.70571397331342 7.365625577043062 0
53 37.29428602668388 2.634374422956524 0
54 37.08219834543916 7.048022598869919 0
55 7.000443253953589 7.282904602468 0
56 32.99955674603562 2.717095397535252 0
57 24.84880815806191 7.324687020528643 0
58 20.42487651784164 7.080475124981037 0
59 7.054183284072414 2.560904043950992 0
60 32.94581671591916 7.439095956047155 0
61 11.35459925247549 2.725216540099836 0
62 28.7666921745519 7.170748012894233 0
63 12.79294092690073 7.039587954640874 0
64 18.45172685496608 2.244697910405836 0
65 27.65662422748139 2.705564123490654 0
66 18.24498485121895 7.823332285244025 0
67 2.177660541280428 5.00000000000006 0
68 37.82233945871975 5.000000000000306 0
69 13.53055619744096 2.372291978255548 0
70 35.08647368361024 2.041999353496482 0
71 4.913526316383794 7.958000646507228 0
72 22.52224279357249 7.83163265305548 0
73 7.164192010237655 5.163383626709906 0
74 32.83580798975981 4.83661637329523 0
75 4.668469502595711 2.008995111800721 0
76 35.33153049739889 7.991004888197551 0
77 9.441826435727037 1.905746258543202 0
78 30.6083242912138 8.053903514372401 0
79 10.88134460330137 5.125514693482019 0
80 29.04701558015153 4.817832681300315 0
81 20.55394568477202 5.136231441207768 0
82 24.90317920557523 5.235100335585747 0
83 38.60928579238417 1.283593605737973 0
84 1.390714207614069 8.716406394260765 0
85 1.428571428570205 1.249999999999995 0
86 38.57142857142858 8.749999999998105 0
87 14.88173874698195 4.902552981058345 0
88 26.93060962611791 8.369327759616295 0
89 22.85714285713019 2.03374478884834 0
$EndNodes
$Elements
176
1 1 2 3 1 1 5
2 1 2 3 1 5 6
3 1 2 3 1 6 7
4 1 2 3 1 7 8
5 1 2 3 1 8 9
6 1 2 3 1 9 10
7 1 2 3 1 10 11
8 1 2 3 1 11 12
9 1 2 3 1 12 13
10 1 2 3 1 13 14
11 1 2 3 1 14 15
12 1 2 3 1 15 16
13 1 2 3 1 16 17
14 1 2 3 1 17 2
15 1 2 2 2 2 18
16 1 2 2 2 18 19
17 1 2 2 2 19 20
18 1 2 2 2 20 3
19 1 2 4 3 3 21
20 1 2 4 3 21 22
21 1 2 4 3 22 23
22 1 2 4 3 23 24
23 1 2 4 3 24 25
24 1 2 4 3 25 26
25 1 2 4 3 26 27
26 1 2 4 3 27 28
27 1 2 4 3 28 29
28 1 2 4 3 29 30
29 1 2 4 3 30 31
30 1 2 4 3 31 32
31 1 2 4 3 32 33
32 1 2 4 3 33 4
33 1 2 1 4 4 34
34 1 2 1 4 34 35
35 1 2 1 4 35 36
36 1 2 1 4 36 1
37 2 2 5 1 25 26 57
38 2 2 5 1 28 29 46
39 2 2 5 1 9 10 45
40 2 2 5 1 57 26 72
41 2 2 5 1 45 40 87
42 2 2 5 1 40 46 87
43 2 2 5 1 18 19 68
44 2 2 5 1 35 36 67
45 2 2 5 1 34 35 67
46 2 2 5 1 19 20 68
47 2 2 5 1 53 18 68
48 2 2 5 1 36 51 67
49 2 2 5 1 52 34 67
50 2 2 5 1 20 54 68
51 2 2 5 1 42 49 89
52 2 2 5 1 50 42 89
53 2 2 5 1 47 31 55
54 2 2 5 1 48 15 56
55 2 2 5 1 30 31 47
56 2 2 5 1 14 15 48
57 2 2 5 1 46 29 63
58 2 2 5 1 49 11 89
59 2 2 5 1 13 50 89
60 2 2 5 1 43 48 74
61 2 2 5 1 44 47 73
62 2 2 5 1 40 45 64
63 2 2 5 1 45 10 64
64 2 2 5 1 6 7 59
65 2 2 5 1 22 23 60
66 2 2 5 1 11 12 89
67 2 2 5 1 12 13 89
68 2 2 5 1 48 56 74
69 2 2 5 1 47 55 73
70 2 2 5 1 31 32 55
71 2 2 5 1 15 16 56
72 2 2 5 1 46 40 66
73 2 2 5 1 30 47 63
74 2 2 5 1 9 45 69
75 2 2 5 1 28 46 66
76 2 2 5 1 46 63 87
77 2 2 5 1 14 48 65
78 2 2 5 1 37 51 75
79 2 2 5 1 38 54 76
80 2 2 5 1 59 7 77
81 2 2 5 1 60 23 78
82 2 2 5 1 63 39 87
83 2 2 5 1 57 41 88
84 2 2 5 1 63 47 79
85 2 2 5 1 41 62 88
86 2 2 5 1 27 58 72
87 2 2 5 1 50 13 65
88 2 2 5 1 11 49 64
89 2 2 5 1 26 27 72
90 2 2 5 1 39 63 79
91 2 2 5 1 49 40 64
92 2 2 5 1 41 50 65
93 2 2 5 1 59 37 75
94 2 2 5 1 60 38 76
95 2 2 5 1 47 44 79
96 2 2 5 1 48 43 80
97 2 2 5 1 65 48 80
98 2 2 5 1 41 65 80
99 2 2 5 1 51 37 67
100 2 2 5 1 37 52 67
101 2 2 5 1 38 53 68
102 2 2 5 1 54 38 68
103 2 2 5 1 52 37 71
104 2 2 5 1 53 38 70
105 2 2 5 1 37 55 71
106 2 2 5 1 38 56 70
107 2 2 5 1 58 27 66
108 2 2 5 1 27 28 66
109 2 2 5 1 8 9 69
110 2 2 5 1 49 42 81
111 2 2 5 1 42 50 82
112 2 2 5 1 33 52 71
113 2 2 5 1 17 53 70
114 2 2 5 1 40 49 81
115 2 2 5 1 50 41 82
116 2 2 5 1 13 14 65
117 2 2 5 1 10 11 64
118 2 2 5 1 18 53 83
119 2 2 5 1 51 36 85
120 2 2 5 1 34 52 84
121 2 2 5 1 54 20 86
122 2 2 5 1 39 69 87
123 2 2 5 1 61 8 69
124 2 2 5 1 29 30 63
125 2 2 5 1 16 17 70
126 2 2 5 1 32 33 71
127 2 2 5 1 40 58 66
128 2 2 5 1 44 59 77
129 2 2 5 1 43 60 78
130 2 2 5 1 69 45 87
131 2 2 5 1 39 61 69
132 2 2 5 1 42 57 72
133 2 2 5 1 17 2 83
134 2 2 5 1 33 4 84
135 2 2 5 1 1 5 85
136 2 2 5 1 3 21 86
137 2 2 5 1 51 5 75
138 2 2 5 1 54 21 76
139 2 2 5 1 5 51 85
140 2 2 5 1 52 33 84
141 2 2 5 1 21 54 86
142 2 2 5 1 53 17 83
143 2 2 5 1 23 24 78
144 2 2 5 1 7 8 77
145 2 2 5 1 55 32 71
146 2 2 5 1 56 16 70
147 2 2 5 1 55 37 73
148 2 2 5 1 56 38 74
149 2 2 5 1 24 62 78
150 2 2 5 1 8 61 77
151 2 2 5 1 5 6 75
152 2 2 5 1 21 22 76
153 2 2 5 1 37 59 73
154 2 2 5 1 38 60 74
155 2 2 5 1 59 44 73
156 2 2 5 1 60 43 74
157 2 2 5 1 58 42 72
158 2 2 5 1 41 57 82
159 2 2 5 1 58 40 81
160 2 2 5 1 24 25 88
161 2 2 5 1 57 42 82
162 2 2 5 1 42 58 81
163 2 2 5 1 44 61 79
164 2 2 5 1 43 62 80
165 2 2 5 1 25 57 88
166 2 2 5 1 61 39 79
167 2 2 5 1 62 41 80
168 2 2 5 1 6 59 75
169 2 2 5 1 22 60 76
170 2 2 5 1 36 1 85
171 2 2 5 1 20 3 86
172 2 2 5 1 4 34 84
173 2 2 5 1 2 18 83
174 2 2 5 1 62 24 88
175 2 2 5 1 61 44 77
176 2 2 5 1 62 43 78
$EndElements
