$MeshFormat
2.2 0 8
$EndMeshFormat
$PhysicalNames
5
1 1 "Left"
1 2 "Right"
1 3 "Bottom"
1 4 "Top"
2 5 "Fluid"
$EndPhysicalNames
$Nodes
30
1 0 0 0
2 40 0 0
3 40 10 0
4 0 10 0
5 4.999999999995876 0 0
6 9.999999999981448 0 0
7 14.99999999996684 0 0
8 19.99999999996959 0 0
9 24.99999999997719 0 0
10 29.99999999998479 0 0
11 34.9999999999924 0 0
12 40 4.999999999992398 0
13 35 10 0
14 30 10 0
15 25 10 0
16 20 10 0
17 15 10 0
18 10 10 0
19 5 10 0
20 0 5 0
21 7.149234693868989 5.031887755099907 0
22 17.56944444442519 4.895833333332292 0
23 32.87202380951987 4.978741496598303 0
24 22.54629629628207 5.104166666665469 0
25 12.45311318970708 4.9879535147387 0
26 27.56972001762732 5.013818027210629 0
27 36.44833006088807 6.330239561463141 0
28 3.552776691679722 3.670313814818271 0
29 3.140402277109742 6.740440313983635 0
30 36.86407077408006 3.261796211610768 0
$EndNodes
$Elements
58
1 1 2 3 1 1 5
2 1 2 3 1 5 6
3 1 2 3 1 6 7
4 1 2 3 1 7 8
5 1 2 3 1 8 9
6 1 2 3 1 9 10
7 1 2 3 1 10 11
8 1 2 3 1 11 2
9 1 2 2 2 2 12
10 1 2 2 2 12 3
11 1 2 4 3 3 13
12 1 2 4 3 13 14
13 1 2 4 3 14 15
14 1 2 4 3 15 16
15 1 2 4 3 16 17
16 1 2 4 3 17 18
17 1 2 4 3 18 19
18 1 2 4 3 19 4
19 1 2 1 4 4 20
20 1 2 1 4 20 1
21 2 2 5 1 9 10 26
22 2 2 5 1 17 18 25
23 2 2 5 1 24 9 26
24 2 2 5 1 22 17 25
25 2 2 5 1 18 21 25
26 2 2 5 1 10 23 26
27 2 2 5 1 16 22 24
28 2 2 5 1 22 8 24
29 2 2 5 1 8 9 24
30 2 2 5 1 15 16 24
31 2 2 5 1 5 6 21
32 2 2 5 1 16 17 22
33 2 2 5 1 18 19 21
34 2 2 5 1 7 8 22
35 2 2 5 1 10 11 23
36 2 2 5 1 13 14 23
37 2 2 5 1 21 6 25
38 2 2 5 1 7 22 25
39 2 2 5 1 23 14 26
40 2 2 5 1 15 24 26
41 2 2 5 1 6 7 25
42 2 2 5 1 14 15 26
43 2 2 5 1 21 19 29
44 2 2 5 1 23 11 30
45 2 2 5 1 5 21 28
46 2 2 5 1 12 3 27
47 2 2 5 1 1 5 28
48 2 2 5 1 3 13 27
49 2 2 5 1 20 1 28
50 2 2 5 1 13 23 27
51 2 2 5 1 27 23 30
52 2 2 5 1 28 21 29
53 2 2 5 1 11 2 30
54 2 2 5 1 19 4 29
55 2 2 5 1 4 20 29
56 2 2 5 1 2 12 30
57 2 2 5 1 12 27 30
58 2 2 5 1 20 28 29
$EndElements
