$MeshFormat
2.2 0 8
$EndMeshFormat
$PhysicalNames
5
1 1 "Left"
1 2 "Right"
1 3 "Bottom"
1 4 "Top"
2 5 "Fluid"
$EndPhysicalNames
$Nodes
157
1 0 0 0
2 40 0 0
3 40 10 0
4 0 10 0
5 1.999999999998205 0 0
6 3.999999999996757 0 0
7 5.999999999993141 0 0
8 7.999999999987307 0 0
9 9.999999999981473 0 0
10 11.99999999997564 0 0
11 13.9999999999698 0 0
12 15.99999999996411 0 0
13 17.9999999999666 0 0
14 19.99999999996964 0 0
15 21.99999999997269 0 0
16 23.99999999997573 0 0
17 25.99999999997878 0 0
18 27.99999999998182 0 0
19 29.99999999998487 0 0
20 31.99999999998791 0 0
21 33.99999999999093 0 0
22 35.99999999999396 0 0
23 37.99999999999698 0 0
24 40 1.999999999996827 0
25 40 3.999999999991027 0
26 40 5.999999999993932 0
27 40 7.999999999996978 0
28 37.99999999999999 10 0
29 35.99999999999999 10 0
30 33.99999999999999 10 0
31 31.99999999999998 10 0
32 29.99999999999998 10 0
33 27.99999999999998 10 0
34 25.99999999999997 10 0
35 23.99999999999996 10 0
36 21.99999999999996 10 0
37 19.99999999999996 10 0
38 17.99999999999995 10 0
39 15.99999999999995 10 0
40 13.99999999999995 10 0
41 11.99999999999994 10 0
42 9.999999999999936 10 0
43 7.999999999999929 10 0
44 5.99999999999995 10 0
45 3.999999999999964 10 0
46 1.999999999999986 10 0
47 0 7.999999999999996 0
48 0 5.999999999999991 0
49 0 3.999999999999988 0
50 0 1.999999999999982 0
51 6.92375369051265 4.780818499659887 0
52 13.01415585069813 4.805907567776135 0
53 33.10875366804025 5.185050584280587 0
54 27.02249768754406 4.975133515522837 0
55 21.25276871494838 4.941245872356513 0
56 17.02189179689304 5.790907384534306 0
57 36.44862411418951 3.592022007523495 0
58 3.551375885803723 3.592022007521539 0
59 9.999999999981007 3.399999999994254 0
60 30.25038611125911 6.704102143168321 0
61 23.75500767972444 6.690705787503178 0
62 9.767137565175403 6.798698549621498 0
63 24.16666666666677 3.299999999999741 0
64 30.05486493013912 3.37985184306796 0
65 3.211604852792737 6.865059252466049 0
66 36.78839514720821 6.865059252466612 0
67 15.66804763976546 3.25396682526692 0
68 18.60702179216694 3.190249925098083 0
69 14.55286655127485 7.267253128162169 0
70 19.42462053502617 7.185198400696925 0
71 5.834686385938459 7.167113046140067 0
72 34.0787180263717 7.017759645574408 0
73 6.987281002481456 2.354595258588856 0
74 12.9768332146831 1.746762941052092 0
75 26.99999999999998 7.600000000000942 0
76 27.01098430925394 2.346444128355594 0
77 33.08130157365006 1.807202293918523 0
78 21.1671389266967 2.433427785345292 0
79 11.89055918964851 7.546464019344005 0
80 21.89664740826032 7.63338127777789 0
81 32.0158468287226 7.794182841607091 0
82 7.904892342548058 7.84563249484508 0
83 1.899699225488655 5.106084529274161 0
84 38.10030077450942 5.106084529272463 0
85 4.876310981498895 5.383145772660641 0
86 35.12368901848983 5.383145772656445 0
87 35.0815286624126 1.926910828027215 0
88 4.918471337573323 1.926910828023669 0
89 37.87797619047635 2.122023809524003 0
90 2.12202380952148 2.122023809521371 0
91 16.99378097544967 8.614940531088635 0
92 19.0465026468155 5.309154753412555 0
93 15.08612670458062 5.31629733338526 0
94 17.13164530156409 1.90773346933382 0
95 29.00070958965406 1.790252473265713 0
96 23.16580778093368 4.904445713709597 0
97 29.12010719247425 4.955276202415628 0
98 11.22098731213124 5.371013628108497 0
99 11.07310370664134 1.765196721487248 0
100 9.009970388574326 1.810677656553893 0
101 28.90999037667288 8.220015405177808 0
102 25.01442580715689 8.210788299751918 0
103 22.870850592043 1.686496543642213 0
104 9.03285250691293 5.002887879071924 0
105 24.93082856267231 4.99305287728266 0
106 31.07333333333319 5.000000000000019 0
107 30.98896179915911 1.749938239349706 0
108 25.13527708841147 1.758967714419537 0
109 5.45143857957401 3.607498473290918 0
110 34.10679862305348 3.569442385375384 0
111 17.11657148910689 4.131211574524416 0
112 1.84149147727382 8.158508522726178 0
113 38.15850852272763 8.158508522727404 0
114 14.97635367575421 1.683516273680942 0
115 4.624531741439304 8.501049899653749 0
116 35.35502485107941 8.482350562881296 0
117 10.54313904675931 8.538195413090023 0
118 23.33321617902831 8.506975073006597 0
119 28.46059627359006 6.490905453257108 0
120 12.05165413410049 3.464813476402777 0
121 19.60898755567084 1.677580714459667 0
122 8.390771517692475 3.469795858773763 0
123 25.54455194741953 6.493936096012307 0
124 28.44183274181309 3.489391632525546 0
125 13.96219520326367 3.378544069594021 0
126 32.0690023212292 3.448580890998697 0
127 25.65325086290971 3.474719647116074 0
128 30.50749630119938 8.435109618916163 0
129 22.12490693545414 3.486664182217604 0
130 13.45410079578044 8.477100775432957 0
131 1.464894264667039 6.668773594547382 0
132 38.53510573533342 6.668773594546503 0
133 20.21550085177089 3.578868171736631 0
134 20.49648399353164 8.487175721291692 0
135 33.36140359296952 8.621760403381911 0
136 15.16619598055542 8.570299072446664 0
137 7.963333333322964 6.232506018154705 0
138 18.81974299052632 8.558302442176666 0
139 1.486818124467178 3.542152688675047 0
140 38.51318187553141 3.542152688675724 0
141 32.0717385681351 6.266175975013661 0
142 13.20313273401896 6.46400607536817 0
143 20.76178503710582 6.509655793473687 0
144 6.586982203621478 8.632821551485724 0
145 9.122769719263797 8.74586598869071 0
146 36.521175497432 1.430773123856835 0
147 3.478824502559363 1.430773123852032 0
148 22.16640332419453 6.135886888964173 0
149 36.61312270486258 5.279727573574018 0
150 3.386877295132093 5.27972757357505 0
151 16.13740574131736 7.103699574933299 0
152 17.90732411433801 7.093700514473731 0
153 20.99999999997116 1.016982348340391 0
154 3.099506531930549 8.782165099106699 0
155 36.86038570420305 8.701183667615062 0
156 38.88461143741175 1.115388562585487 0
157 1.115388562584664 1.11538856258545 0
$EndNodes
$Elements
312
1 1 2 3 1 1 5
2 1 2 3 1 5 6
3 1 2 3 1 6 7
4 1 2 3 1 7 8
5 1 2 3 1 8 9
6 1 2 3 1 9 10
7 1 2 3 1 10 11
8 1 2 3 1 11 12
9 1 2 3 1 12 13
10 1 2 3 1 13 14
11 1 2 3 1 14 15
12 1 2 3 1 15 16
13 1 2 3 1 16 17
14 1 2 3 1 17 18
15 1 2 3 1 18 19
16 1 2 3 1 19 20
17 1 2 3 1 20 21
18 1 2 3 1 21 22
19 1 2 3 1 22 23
20 1 2 3 1 23 2
21 1 2 2 2 2 24
22 1 2 2 2 24 25
23 1 2 2 2 25 26
24 1 2 2 2 26 27
25 1 2 2 2 27 3
26 1 2 4 3 3 28
27 1 2 4 3 28 29
28 1 2 4 3 29 30
29 1 2 4 3 30 31
30 1 2 4 3 31 32
31 1 2 4 3 32 33
32 1 2 4 3 33 34
33 1 2 4 3 34 35
34 1 2 4 3 35 36
35 1 2 4 3 36 37
36 1 2 4 3 37 38
37 1 2 4 3 38 39
38 1 2 4 3 39 40
39 1 2 4 3 40 41
40 1 2 4 3 41 42
41 1 2 4 3 42 43
42 1 2 4 3 43 44
43 1 2 4 3 44 45
44 1 2 4 3 45 46
45 1 2 4 3 46 4
46 1 2 1 4 4 47
47 1 2 1 4 47 48
48 1 2 1 4 48 49
49 1 2 1 4 49 50
50 1 2 1 4 50 1
51 2 2 5 1 7 8 73
52 2 2 5 1 10 11 74
53 2 2 5 1 33 34 75
54 2 2 5 1 17 18 76
55 2 2 5 1 20 21 77
56 2 2 5 1 79 62 98
57 2 2 5 1 79 98 142
58 2 2 5 1 66 72 86
59 2 2 5 1 71 65 85
60 2 2 5 1 51 71 85
61 2 2 5 1 72 53 86
62 2 2 5 1 94 13 121
63 2 2 5 1 7 73 88
64 2 2 5 1 77 21 87
65 2 2 5 1 53 72 141
66 2 2 5 1 71 51 137
67 2 2 5 1 72 66 116
68 2 2 5 1 65 71 115
69 2 2 5 1 98 52 142
70 2 2 5 1 74 11 114
71 2 2 5 1 116 30 135
72 2 2 5 1 76 18 95
73 2 2 5 1 73 8 100
74 2 2 5 1 10 74 99
75 2 2 5 1 33 75 101
76 2 2 5 1 75 34 102
77 2 2 5 1 46 4 112
78 2 2 5 1 4 47 112
79 2 2 5 1 3 28 113
80 2 2 5 1 27 3 113
81 2 2 5 1 68 94 121
82 2 2 5 1 54 76 124
83 2 2 5 1 76 54 127
84 2 2 5 1 73 51 109
85 2 2 5 1 17 76 108
86 2 2 5 1 20 77 107
87 2 2 5 1 51 73 122
88 2 2 5 1 54 75 123
89 2 2 5 1 75 54 119
90 2 2 5 1 110 53 126
91 2 2 5 1 77 110 126
92 2 2 5 1 44 115 144
93 2 2 5 1 72 81 141
94 2 2 5 1 79 41 117
95 2 2 5 1 95 19 107
96 2 2 5 1 72 116 135
97 2 2 5 1 129 55 133
98 2 2 5 1 44 45 115
99 2 2 5 1 29 30 116
100 2 2 5 1 82 71 137
101 2 2 5 1 74 114 125
102 2 2 5 1 9 99 100
103 2 2 5 1 36 80 118
104 2 2 5 1 41 79 130
105 2 2 5 1 25 26 84
106 2 2 5 1 48 49 83
107 2 2 5 1 93 67 111
108 2 2 5 1 56 93 111
109 2 2 5 1 78 129 133
110 2 2 5 1 6 7 88
111 2 2 5 1 21 22 87
112 2 2 5 1 62 79 117
113 2 2 5 1 67 94 111
114 2 2 5 1 94 68 111
115 2 2 5 1 80 36 134
116 2 2 5 1 70 92 143
117 2 2 5 1 103 16 108
118 2 2 5 1 64 95 107
119 2 2 5 1 114 67 125
120 2 2 5 1 115 71 144
121 2 2 5 1 80 61 118
122 2 2 5 1 38 39 91
123 2 2 5 1 99 59 100
124 2 2 5 1 61 80 148
125 2 2 5 1 13 14 121
126 2 2 5 1 81 31 128
127 2 2 5 1 92 55 143
128 2 2 5 1 93 69 142
129 2 2 5 1 63 103 108
130 2 2 5 1 52 120 125
131 2 2 5 1 82 62 145
132 2 2 5 1 92 70 152
133 2 2 5 1 18 19 95
134 2 2 5 1 81 60 141
135 2 2 5 1 12 13 94
136 2 2 5 1 52 93 142
137 2 2 5 1 8 9 100
138 2 2 5 1 9 10 99
139 2 2 5 1 32 33 101
140 2 2 5 1 34 35 102
141 2 2 5 1 41 42 117
142 2 2 5 1 57 86 110
143 2 2 5 1 85 58 109
144 2 2 5 1 96 55 129
145 2 2 5 1 19 20 107
146 2 2 5 1 16 17 108
147 2 2 5 1 120 74 125
148 2 2 5 1 87 57 110
149 2 2 5 1 58 88 109
150 2 2 5 1 60 81 128
151 2 2 5 1 84 57 140
152 2 2 5 1 58 83 139
153 2 2 5 1 88 58 147
154 2 2 5 1 57 87 146
155 2 2 5 1 61 96 105
156 2 2 5 1 60 97 106
157 2 2 5 1 96 63 105
158 2 2 5 1 97 64 106
159 2 2 5 1 59 98 104
160 2 2 5 1 98 62 104
161 2 2 5 1 58 90 147
162 2 2 5 1 89 57 146
163 2 2 5 1 51 85 109
164 2 2 5 1 86 53 110
165 2 2 5 1 31 81 135
166 2 2 5 1 66 86 149
167 2 2 5 1 85 65 150
168 2 2 5 1 12 94 114
169 2 2 5 1 92 56 111
170 2 2 5 1 68 92 111
171 2 2 5 1 89 24 140
172 2 2 5 1 50 90 139
173 2 2 5 1 15 16 103
174 2 2 5 1 57 89 140
175 2 2 5 1 90 58 139
176 2 2 5 1 35 36 118
177 2 2 5 1 81 72 135
178 2 2 5 1 88 73 109
179 2 2 5 1 77 87 110
180 2 2 5 1 91 39 136
181 2 2 5 1 69 93 151
182 2 2 5 1 94 67 114
183 2 2 5 1 31 32 128
184 2 2 5 1 56 92 152
185 2 2 5 1 38 91 138
186 2 2 5 1 82 43 144
187 2 2 5 1 62 82 137
188 2 2 5 1 97 54 124
189 2 2 5 1 23 89 146
190 2 2 5 1 90 5 147
191 2 2 5 1 36 37 134
192 2 2 5 1 24 25 140
193 2 2 5 1 49 50 139
194 2 2 5 1 40 41 130
195 2 2 5 1 93 56 151
196 2 2 5 1 62 117 145
197 2 2 5 1 47 48 131
198 2 2 5 1 26 27 132
199 2 2 5 1 71 82 144
200 2 2 5 1 25 84 140
201 2 2 5 1 83 49 139
202 2 2 5 1 43 82 145
203 2 2 5 1 91 136 151
204 2 2 5 1 104 51 122
205 2 2 5 1 105 54 123
206 2 2 5 1 83 65 131
207 2 2 5 1 66 84 132
208 2 2 5 1 83 58 150
209 2 2 5 1 57 84 149
210 2 2 5 1 92 68 133
211 2 2 5 1 55 92 133
212 2 2 5 1 15 103 153
213 2 2 5 1 103 78 153
214 2 2 5 1 48 83 131
215 2 2 5 1 84 26 132
216 2 2 5 1 22 23 146
217 2 2 5 1 5 6 147
218 2 2 5 1 65 83 150
219 2 2 5 1 84 66 149
220 2 2 5 1 52 98 120
221 2 2 5 1 54 97 119
222 2 2 5 1 102 35 118
223 2 2 5 1 58 85 150
224 2 2 5 1 86 57 149
225 2 2 5 1 67 93 125
226 2 2 5 1 93 52 125
227 2 2 5 1 60 106 141
228 2 2 5 1 138 91 152
229 2 2 5 1 112 47 131
230 2 2 5 1 27 113 132
231 2 2 5 1 112 65 154
232 2 2 5 1 66 113 155
233 2 2 5 1 61 102 118
234 2 2 5 1 11 12 114
235 2 2 5 1 99 74 120
236 2 2 5 1 59 99 120
237 2 2 5 1 101 75 119
238 2 2 5 1 60 101 119
239 2 2 5 1 65 115 154
240 2 2 5 1 116 66 155
241 2 2 5 1 43 44 144
242 2 2 5 1 101 60 128
243 2 2 5 1 24 89 156
244 2 2 5 1 89 23 156
245 2 2 5 1 5 90 157
246 2 2 5 1 90 50 157
247 2 2 5 1 32 101 128
248 2 2 5 1 87 22 146
249 2 2 5 1 6 88 147
250 2 2 5 1 30 31 135
251 2 2 5 1 53 106 126
252 2 2 5 1 54 105 127
253 2 2 5 1 95 64 124
254 2 2 5 1 64 97 124
255 2 2 5 1 104 62 137
256 2 2 5 1 97 60 119
257 2 2 5 1 98 59 120
258 2 2 5 1 68 121 133
259 2 2 5 1 121 78 133
260 2 2 5 1 73 100 122
261 2 2 5 1 100 59 122
262 2 2 5 1 75 102 123
263 2 2 5 1 102 61 123
264 2 2 5 1 64 107 126
265 2 2 5 1 107 77 126
266 2 2 5 1 63 108 127
267 2 2 5 1 108 76 127
268 2 2 5 1 96 61 148
269 2 2 5 1 76 95 124
270 2 2 5 1 103 63 129
271 2 2 5 1 78 103 129
272 2 2 5 1 63 96 129
273 2 2 5 1 59 104 122
274 2 2 5 1 61 105 123
275 2 2 5 1 37 38 138
276 2 2 5 1 42 43 145
277 2 2 5 1 55 96 148
278 2 2 5 1 39 40 136
279 2 2 5 1 106 64 126
280 2 2 5 1 105 63 127
281 2 2 5 1 134 70 143
282 2 2 5 1 80 134 143
283 2 2 5 1 130 79 142
284 2 2 5 1 69 130 142
285 2 2 5 1 136 69 151
286 2 2 5 1 23 2 156
287 2 2 5 1 2 24 156
288 2 2 5 1 50 1 157
289 2 2 5 1 1 5 157
290 2 2 5 1 151 56 152
291 2 2 5 1 91 151 152
292 2 2 5 1 45 46 154
293 2 2 5 1 28 29 155
294 2 2 5 1 14 15 153
295 2 2 5 1 70 138 152
296 2 2 5 1 51 104 137
297 2 2 5 1 65 112 131
298 2 2 5 1 113 66 132
299 2 2 5 1 106 53 141
300 2 2 5 1 46 112 154
301 2 2 5 1 113 28 155
302 2 2 5 1 117 42 145
303 2 2 5 1 130 69 136
304 2 2 5 1 40 130 136
305 2 2 5 1 134 37 138
306 2 2 5 1 143 55 148
307 2 2 5 1 115 45 154
308 2 2 5 1 29 116 155
309 2 2 5 1 70 134 138
310 2 2 5 1 78 121 153
311 2 2 5 1 121 14 153
312 2 2 5 1 80 143 148
$EndElements
