$MeshFormat
2.2 0 8
$EndMeshFormat
$PhysicalNames
4
1 1 "Left"
1 2 "Right"
1 3 "Bottom"
1 4 "Top"
$EndPhysicalNames
$Nodes
683
1 0 0 0
2 0.5 0 0
3 0.5 0.1 0
4 0.6 0.1 0
5 0.6 0 0
6 4 0 0
7 4 1 0
8 0 1 0
9 0.01470588235291326 0 0
10 0.0294117647058227 0 0
11 0.04411764705873977 0 0
12 0.05882352941165839 0 0
13 0.07352941176456186 0 0
14 0.08823529411746014 0 0
15 0.1029411764703584 0 0
16 0.1176470588232567 0 0
17 0.132352941176155 0 0
18 0.1470588235290533 0 0
19 0.1617647058819516 0 0
20 0.1764705882348499 0 0
21 0.1911764705877481 0 0
22 0.2058823529406464 0 0
23 0.2205882352935448 0 0
24 0.235294117646443 0 0
25 0.2499999999993468 0 0
26 0.2647058823523212 0 0
27 0.2794117647053012 0 0
28 0.2941176470582811 0 0
29 0.3088235294112611 0 0
30 0.323529411764241 0 0
31 0.338235294117221 0 0
32 0.352941176470201 0 0
33 0.3676470588231809 0 0
34 0.3823529411761608 0 0
35 0.3970588235291408 0 0
36 0.4117647058821207 0 0
37 0.4264705882351006 0 0
38 0.4411764705880806 0 0
39 0.4558823529410606 0 0
40 0.4705882352940405 0 0
41 0.4852941176470203 0 0
42 0.5 0.01428571428568807 0
43 0.5 0.02857142857135999 0
44 0.5 0.04285714285703056 0
45 0.5 0.0571428571427437 0
46 0.5 0.07142857142849593 0
47 0.5 0.08571428571424661 0
48 0.5142857142855594 0.1 0
49 0.5285714285711405 0.1 0
50 0.5428571428567432 0.1 0
51 0.557142857142476 0.1 0
52 0.5714285714282399 0.1 0
53 0.5857142857141091 0.1 0
54 0.6 0.0857142857143252 0
55 0.6 0.07142857142865039 0
56 0.6 0.05714285714297558 0
57 0.6 0.04285714285726092 0
58 0.6 0.02857142857150714 0
59 0.6 0.01428571428575492 0
60 0.6149779735682519 0 0
61 0.6299559471365039 0 0
62 0.6449339207047559 0 0
63 0.6599118942730133 0 0
64 0.6748898678412776 0 0
65 0.6898678414095334 0 0
66 0.7048458149777853 0 0
67 0.7198237885460372 0 0
68 0.7348017621142893 0 0
69 0.7497797356825412 0 0
70 0.7647577092507888 0 0
71 0.7797356828190285 0 0
72 0.7947136563872682 0 0
73 0.8096916299555079 0 0
74 0.8246696035237575 0 0
75 0.83964757709201 0 0
76 0.8546255506602742 0 0
77 0.8696035242285384 0 0
78 0.8845814977968025 0 0
79 0.8995594713650668 0 0
80 0.9145374449333309 0 0
81 0.9295154185015864 0 0
82 0.9444933920698382 0 0
83 0.9594713656380902 0 0
84 0.9744493392063442 0 0
85 0.9894273127746085 0 0
86 1.004405286342873 0 0
87 1.019383259911137 0 0
88 1.034361233479386 0 0
89 1.049339207047626 0 0
90 1.064317180615865 0 0
91 1.079295154184105 0 0
92 1.094273127752345 0 0
93 1.109251101320577 0 0
94 1.124229074888792 0 0
95 1.13920704845702 0 0
96 1.15418502202526 0 0
97 1.1691629955935 0 0
98 1.184140969161739 0 0
99 1.199118942729979 0 0
100 1.214096916298219 0 0
101 1.229074889866459 0 0
102 1.244052863434688 0 0
103 1.259030837002903 0 0
104 1.274008810571134 0 0
105 1.288986784139374 0 0
106 1.303964757707614 0 0
107 1.318942731275854 0 0
108 1.333920704844093 0 0
109 1.348898678412333 0 0
110 1.363876651980573 0 0
111 1.378854625548799 0 0
112 1.393832599117014 0 0
113 1.408810572685249 0 0
114 1.423788546253488 0 0
115 1.438766519821728 0 0
116 1.453744493389968 0 0
117 1.468722466958208 0 0
118 1.483700440526447 0 0
119 1.498678414094687 0 0
120 1.513656387662909 0 0
121 1.528634361231125 0 0
122 1.543612334799363 0 0
123 1.558590308367602 0 0
124 1.573568281935842 0 0
125 1.588546255504091 0 0
126 1.603524229072355 0 0
127 1.61850220264062 0 0
128 1.633480176208884 0 0
129 1.648458149777107 0 0
130 1.663436123345326 0 0
131 1.67841409691359 0 0
132 1.693392070481854 0 0
133 1.708370044050118 0 0
134 1.723348017618382 0 0
135 1.738325991186647 0 0
136 1.753303964754911 0 0
137 1.768281938323175 0 0
138 1.783259911891392 0 0
139 1.798237885459617 0 0
140 1.813215859027881 0 0
141 1.828193832596145 0 0
142 1.843171806164409 0 0
143 1.858149779732674 0 0
144 1.873127753300938 0 0
145 1.888105726869202 0 0
146 1.903083700437461 0 0
147 1.918061674005677 0 0
148 1.933039647573908 0 0
149 1.948017621142172 0 0
150 1.962995594710436 0 0
151 1.977973568278701 0 0
152 1.992951541846927 0 0
153 2.007929515415142 0 0
154 2.022907488983357 0 0
155 2.037885462551573 0 0
156 2.052863436119788 0 0
157 2.067841409688026 0 0
158 2.08281938325629 0 0
159 2.097797356824554 0 0
160 2.112775330392819 0 0
161 2.127753303961038 0 0
162 2.142731277529253 0 0
163 2.157709251097468 0 0
164 2.172687224665684 0 0
165 2.187665198233899 0 0
166 2.202643171802143 0 0
167 2.217621145370408 0 0
168 2.232599118938672 0 0
169 2.247577092506934 0 0
170 2.262555066075149 0 0
171 2.277533039643378 0 0
172 2.292511013211642 0 0
173 2.30748898677993 0 0
174 2.322466960348244 0 0
175 2.337444933916557 0 0
176 2.35242290748487 0 0
177 2.367400881053183 0 0
178 2.382378854621495 0 0
179 2.397356828189809 0 0
180 2.412334801758122 0 0
181 2.427312775326435 0 0
182 2.442290748894748 0 0
183 2.457268722463061 0 0
184 2.472246696031374 0 0
185 2.487224669599687 0 0
186 2.502202643168 0 0
187 2.517180616736313 0 0
188 2.532158590304626 0 0
189 2.547136563872939 0 0
190 2.562114537441252 0 0
191 2.577092511009565 0 0
192 2.592070484577878 0 0
193 2.607048458146191 0 0
194 2.622026431714504 0 0
195 2.637004405282818 0 0
196 2.651982378851131 0 0
197 2.666960352419443 0 0
198 2.681938325987789 0 0
199 2.696916299556152 0 0
200 2.711894273124514 0 0
201 2.726872246692869 0 0
202 2.741850220261183 0 0
203 2.756828193829496 0 0
204 2.771806167397809 0 0
205 2.786784140966122 0 0
206 2.801762114534435 0 0
207 2.816740088102788 0 0
208 2.831718061671149 0 0
209 2.846696035239511 0 0
210 2.861674008807861 0 0
211 2.876651982376174 0 0
212 2.891629955944487 0 0
213 2.9066079295128 0 0
214 2.921585903081113 0 0
215 2.936563876649426 0 0
216 2.951541850217785 0 0
217 2.966519823786147 0 0
218 2.981497797354509 0 0
219 2.996475770922852 0 0
220 3.011453744491165 0 0
221 3.026431718059478 0 0
222 3.041409691627791 0 0
223 3.056387665196105 0 0
224 3.071365638764421 0 0
225 3.086343612332783 0 0
226 3.101321585901145 0 0
227 3.116299559469507 0 0
228 3.131277533037844 0 0
229 3.146255506606156 0 0
230 3.16123348017447 0 0
231 3.176211453742783 0 0
232 3.191189427311096 0 0
233 3.206167400879409 0 0
234 3.221145374447722 0 0
235 3.236123348016035 0 0
236 3.251101321584348 0 0
237 3.266079295152661 0 0
238 3.281057268720974 0 0
239 3.296035242289287 0 0
240 3.3110132158576 0 0
241 3.325991189425913 0 0
242 3.340969162994226 0 0
243 3.355947136562539 0 0
244 3.370925110130852 0 0
245 3.385903083699165 0 0
246 3.400881057267478 0 0
247 3.415859030835791 0 0
248 3.430837004404104 0 0
249 3.445814977972417 0 0
250 3.46079295154073 0 0
251 3.475770925109043 0 0
252 3.490748898677356 0 0
253 3.505726872245669 0 0
254 3.520704845813983 0 0
255 3.535682819382296 0 0
256 3.550660792950608 0 0
257 3.565638766518922 0 0
258 3.580616740087235 0 0
259 3.595594713655548 0 0
260 3.610572687223861 0 0
261 3.625550660792174 0 0
262 3.640528634360487 0 0
263 3.6555066079288 0 0
264 3.670484581497113 0 0
265 3.685462555065426 0 0
266 3.700440528633739 0 0
267 3.715418502202052 0 0
268 3.730396475770366 0 0
269 3.745374449338678 0 0
270 3.760352422906991 0 0
271 3.775330396475304 0 0
272 3.790308370043618 0 0
273 3.805286343611931 0 0
274 3.820264317180243 0 0
275 3.835242290748556 0 0
276 3.850220264316869 0 0
277 3.865198237885183 0 0
278 3.880176211453495 0 0
279 3.895154185021809 0 0
280 3.910132158590121 0 0
281 3.925110132158435 0 0
282 3.940088105726748 0 0
283 3.955066079295061 0 0
284 3.970044052863374 0 0
285 3.985022026431686 0 0
286 4 0.01492537313430021 0
287 4 0.02985074626860003 0
288 4 0.04477611940289626 0
289 4 0.05970149253719232 0
290 4 0.07462686567149505 0
291 4 0.0895522388058006 0
292 4 0.1044776119401061 0
293 4 0.1194029850744109 0
294 4 0.1343283582087043 0
295 4 0.1492537313429891 0
296 4 0.1641791044772739 0
297 4 0.1791044776115588 0
298 4 0.1940298507458436 0
299 4 0.2089552238801284 0
300 4 0.2238805970144133 0
301 4 0.2388059701486981 0
302 4 0.2537313432829829 0
303 4 0.2686567164172677 0
304 4 0.2835820895515526 0
305 4 0.2985074626858374 0
306 4 0.3134328358201222 0
307 4 0.328358208954407 0
308 4 0.3432835820886919 0
309 4 0.3582089552229767 0
310 4 0.3731343283572615 0
311 4 0.3880597014915464 0
312 4 0.4029850746258312 0
313 4 0.417910447760116 0
314 4 0.4328358208944009 0
315 4 0.4477611940286857 0
316 4 0.4626865671629705 0
317 4 0.4776119402972553 0
318 4 0.4925373134315407 0
319 4 0.5074626865658669 0
320 4 0.5223880597002343 0
321 4 0.5373134328346019 0
322 4 0.5522388059689696 0
323 4 0.5671641791033373 0
324 4 0.582089552237705 0
325 4 0.5970149253720728 0
326 4 0.6119402985064404 0
327 4 0.6268656716408081 0
328 4 0.6417910447751758 0
329 4 0.6567164179095435 0
330 4 0.6716417910439111 0
331 4 0.6865671641782789 0
332 4 0.7014925373126466 0
333 4 0.7164179104470143 0
334 4 0.731343283581382 0
335 4 0.7462686567157496 0
336 4 0.7611940298501174 0
337 4 0.7761194029844851 0
338 4 0.7910447761188528 0
339 4 0.8059701492532205 0
340 4 0.8208955223875881 0
341 4 0.8358208955219558 0
342 4 0.8507462686563236 0
343 4 0.8656716417906913 0
344 4 0.8805970149250589 0
345 4 0.8955223880594266 0
346 4 0.9104477611937943 0
347 4 0.9253731343281622 0
348 4 0.9402985074625299 0
349 4 0.9552238805968974 0
350 4 0.970149253731265 0
351 4 0.9850746268656324 0
352 3.985018726591698 1 0
353 3.970037453183396 1 0
354 3.955056179775094 1 0
355 3.940074906366791 1 0
356 3.92509363295849 1 0
357 3.910112359550188 1 0
358 3.895131086141885 1 0
359 3.880149812733583 1 0
360 3.865168539325281 1 0
361 3.850187265916979 1 0
362 3.835205992508677 1 0
363 3.820224719100375 1 0
364 3.805243445692073 1 0
365 3.790262172283771 1 0
366 3.775280898875469 1 0
367 3.760299625467167 1 0
368 3.745318352058864 1 0
369 3.730337078650563 1 0
370 3.71535580524226 1 0
371 3.700374531833958 1 0
372 3.685393258425656 1 0
373 3.670411985017354 1 0
374 3.655430711609052 1 0
375 3.64044943820075 1 0
376 3.625468164792448 1 0
377 3.610486891384146 1 0
378 3.595505617975844 1 0
379 3.580524344567542 1 0
380 3.565543071159239 1 0
381 3.550561797750937 1 0
382 3.535580524342635 1 0
383 3.520599250934363 1 0
384 3.505617977526102 1 0
385 3.490636704117894 1 0
386 3.475655430709716 1 0
387 3.460674157301562 1 0
388 3.445692883893426 1 0
389 3.43071161048529 1 0
390 3.415730337077154 1 0
391 3.400749063669019 1 0
392 3.385767790260883 1 0
393 3.370786516852747 1 0
394 3.355805243444611 1 0
395 3.340823970036475 1 0
396 3.32584269662834 1 0
397 3.310861423220204 1 0
398 3.295880149812068 1 0
399 3.280898876403933 1 0
400 3.265917602995797 1 0
401 3.250936329587661 1 0
402 3.235955056179526 1 0
403 3.22097378277139 1 0
404 3.205992509363254 1 0
405 3.191011235955118 1 0
406 3.176029962546982 1 0
407 3.161048689138847 1 0
408 3.146067415730711 1 0
409 3.131086142322575 1 0
410 3.116104868914439 1 0
411 3.101123595506304 1 0
412 3.086142322098168 1 0
413 3.071161048690032 1 0
414 3.056179775281897 1 0
415 3.041198501873761 1 0
416 3.026217228465625 1 0
417 3.01123595505749 1 0
418 2.996254681649354 1 0
419 2.981273408241218 1 0
420 2.966292134833082 1 0
421 2.951310861424947 1 0
422 2.936329588016811 1 0
423 2.921348314608675 1 0
424 2.906367041200539 1 0
425 2.891385767792404 1 0
426 2.876404494384268 1 0
427 2.861423220976132 1 0
428 2.846441947567997 1 0
429 2.831460674159861 1 0
430 2.816479400751725 1 0
431 2.801498127343589 1 0
432 2.786516853935454 1 0
433 2.771535580527318 1 0
434 2.756554307119182 1 0
435 2.741573033711046 1 0
436 2.72659176030291 1 0
437 2.711610486894775 1 0
438 2.696629213486639 1 0
439 2.681647940078503 1 0
440 2.666666666670368 1 0
441 2.651685393262232 1 0
442 2.636704119854096 1 0
443 2.621722846445961 1 0
444 2.606741573037825 1 0
445 2.591760299629689 1 0
446 2.576779026221553 1 0
447 2.561797752813418 1 0
448 2.546816479405282 1 0
449 2.531835205997147 1 0
450 2.516853932589011 1 0
451 2.501872659180875 1 0
452 2.486891385772739 1 0
453 2.471910112364603 1 0
454 2.456928838956467 1 0
455 2.441947565548332 1 0
456 2.426966292140196 1 0
457 2.41198501873206 1 0
458 2.397003745323925 1 0
459 2.382022471915789 1 0
460 2.367041198507653 1 0
461 2.352059925099518 1 0
462 2.337078651691382 1 0
463 2.322097378283246 1 0
464 2.30711610487511 1 0
465 2.292134831466974 1 0
466 2.277153558058839 1 0
467 2.262172284650703 1 0
468 2.247191011242567 1 0
469 2.232209737834431 1 0
470 2.217228464426296 1 0
471 2.20224719101816 1 0
472 2.187265917610024 1 0
473 2.172284644201889 1 0
474 2.157303370793753 1 0
475 2.142322097385617 1 0
476 2.127340823977481 1 0
477 2.112359550569345 1 0
478 2.09737827716121 1 0
479 2.082397003753074 1 0
480 2.067415730344938 1 0
481 2.052434456936802 1 0
482 2.037453183528667 1 0
483 2.022471910120507 1 0
484 2.007490636712329 1 0
485 1.99250936330411 1 0
486 1.97752808989585 1 0
487 1.962546816487572 1 0
488 1.94756554307927 1 0
489 1.932584269670968 1 0
490 1.917602996262666 1 0
491 1.902621722854364 1 0
492 1.887640449446061 1 0
493 1.87265917603776 1 0
494 1.857677902629458 1 0
495 1.842696629221155 1 0
496 1.827715355812853 1 0
497 1.812734082404551 1 0
498 1.797752808996249 1 0
499 1.782771535587947 1 0
500 1.767790262179645 1 0
501 1.752808988771343 1 0
502 1.737827715363041 1 0
503 1.722846441954739 1 0
504 1.707865168546436 1 0
505 1.692883895138134 1 0
506 1.677902621729832 1 0
507 1.66292134832153 1 0
508 1.647940074913228 1 0
509 1.632958801504926 1 0
510 1.617977528096624 1 0
511 1.602996254688322 1 0
512 1.58801498128002 1 0
513 1.573033707871718 1 0
514 1.558052434463416 1 0
515 1.543071161055114 1 0
516 1.528089887646812 1 0
517 1.513108614238509 1 0
518 1.498127340830207 1 0
519 1.483146067421905 1 0
520 1.468164794013603 1 0
521 1.453183520605301 1 0
522 1.438202247196999 1 0
523 1.423220973788696 1 0
524 1.408239700380395 1 0
525 1.393258426972093 1 0
526 1.37827715356379 1 0
527 1.363295880155488 1 0
528 1.348314606747187 1 0
529 1.333333333338884 1 0
530 1.318352059930582 1 0
531 1.30337078652228 1 0
532 1.288389513113978 1 0
533 1.273408239705676 1 0
534 1.258426966297374 1 0
535 1.243445692889071 1 0
536 1.228464419480769 1 0
537 1.213483146072467 1 0
538 1.198501872664165 1 0
539 1.183520599255863 1 0
540 1.168539325847561 1 0
541 1.153558052439259 1 0
542 1.138576779030957 1 0
543 1.123595505622655 1 0
544 1.108614232214353 1 0
545 1.09363295880605 1 0
546 1.078651685397749 1 0
547 1.063670411989447 1 0
548 1.048689138581144 1 0
549 1.033707865172842 1 0
550 1.018726591764541 1 0
551 1.003745318356238 1 0
552 0.9887640449479358 1 0
553 0.9737827715396339 1 0
554 0.9588014981313315 1 0
555 0.9438202247230296 1 0
556 0.9288389513147277 1 0
557 0.9138576779064254 1 0
558 0.8988764044981234 1 0
559 0.8838951310898211 1 0
560 0.8689138576815192 1 0
561 0.8539325842732173 1 0
562 0.8389513108649149 1 0
563 0.823970037456613 1 0
564 0.8089887640483111 1 0
565 0.7940074906400088 1 0
566 0.7790262172317068 1 0
567 0.7640449438234045 1 0
568 0.7490636704151021 1 0
569 0.7340823970068002 1 0
570 0.7191011235984979 1 0
571 0.704119850190196 1 0
572 0.6891385767818941 1 0
573 0.6741573033735917 1 0
574 0.6591760299652898 1 0
575 0.6441947565569879 1 0
576 0.6292134831486855 1 0
577 0.6142322097403836 1 0
578 0.5992509363320817 1 0
579 0.5842696629237794 1 0
580 0.5692883895154774 1 0
581 0.5543071161071751 1 0
582 0.5393258426988732 1 0
583 0.5243445692905713 1 0
584 0.5093632958822685 1 0
585 0.4943820224739666 1 0
586 0.4794007490656647 1 0
587 0.4644194756573623 1 0
588 0.4494382022490604 1 0
589 0.4344569288407585 1 0
590 0.4194756554324561 1 0
591 0.4044943820241542 1 0
592 0.3895131086158523 1 0
593 0.37453183520755 1 0
594 0.359550561799248 1 0
595 0.3445692883909457 1 0
596 0.3295880149826438 1 0
597 0.3146067415743419 1 0
598 0.2996254681660395 1 0
599 0.2846441947577372 1 0
600 0.2696629213494353 1 0
601 0.2546816479411329 1 0
602 0.239700374532831 1 0
603 0.2247191011245291 1 0
604 0.2097378277162267 1 0
605 0.1947565543079248 1 0
606 0.1797752808996229 1 0
607 0.164794007491321 1 0
608 0.1498127340830187 1 0
609 0.1348314606747172 1 0
610 0.1198501872664148 1 0
611 0.1048689138581134 1 0
612 0.08988764044981101 1 0
613 0.07490636704150955 1 0
614 0.05992509363320764 1 0
615 0.04494382022490617 1 0
616 0.02996254681660382 1 0
617 0.01498127340830235 1 0
618 0 0.9850746268656095 0
619 0 0.970149253731219 0
620 0 0.9552238805968285 0
621 0 0.9402985074624379 0
622 0 0.9253731343280475 0
623 0 0.9104477611936569 0
624 0 0.8955223880592664 0
625 0 0.8805970149248821 0
626 0 0.865671641790589 0
627 0 0.8507462686563642 0
628 0 0.8358208955221393 0
629 0 0.8208955223879146 0
630 0 0.8059701492536898 0
631 0 0.791044776119465 0
632 0 0.7761194029852403 0
633 0 0.7611940298510155 0
634 0 0.7462686567167907 0
635 0 0.731343283582566 0
636 0 0.7164179104483412 0
637 0 0.7014925373141164 0
638 0 0.6865671641798916 0
639 0 0.6716417910456669 0
640 0 0.6567164179114421 0
641 0 0.6417910447772173 0
642 0 0.6268656716429926 0
643 0 0.6119402985087677 0
644 0 0.5970149253745429 0
645 0 0.5820895522403182 0
646 0 0.5671641791060934 0
647 0 0.5522388059718686 0
648 0 0.5373134328376439 0
649 0 0.5223880597034191 0
650 0 0.5074626865691934 0
651 0 0.4925373134348856 0
652 0 0.477611940300496 0
653 0 0.4626865671661056 0
654 0 0.447761194031715 0
655 0 0.4328358208973245 0
656 0 0.417910447762934 0
657 0 0.4029850746285435 0
658 0 0.3880597014941529 0
659 0 0.3731343283597625 0
660 0 0.358208955225372 0
661 0 0.3432835820909813 0
662 0 0.3283582089565908 0
663 0 0.3134328358222004 0
664 0 0.2985074626878098 0
665 0 0.2835820895534192 0
666 0 0.2686567164190288 0
667 0 0.2537313432846382 0
668 0 0.2388059701502477 0
669 0 0.2238805970158573 0
670 0 0.2089552238814666 0
671 0 0.1940298507470761 0
672 0 0.1791044776126857 0
673 0 0.1641791044782951 0
674 0 0.1492537313439045 0
675 0 0.1343283582095141 0
676 0 0.1194029850751236 0
677 0 0.104477611940733 0
678 0 0.08955223880634255 0
679 0 0.07462686567195198 0
680 0 0.05970149253756141 0
681 0 0.04477611940317094 0
682 0 0.02985074626878059 0
683 0 0.01492537313439035 0
$EndNodes
$Elements
683
1 1 2 3 1 1 9
2 1 2 3 1 9 10
3 1 2 3 1 10 11
4 1 2 3 1 11 12
5 1 2 3 1 12 13
6 1 2 3 1 13 14
7 1 2 3 1 14 15
8 1 2 3 1 15 16
9 1 2 3 1 16 17
10 1 2 3 1 17 18
11 1 2 3 1 18 19
12 1 2 3 1 19 20
13 1 2 3 1 20 21
14 1 2 3 1 21 22
15 1 2 3 1 22 23
16 1 2 3 1 23 24
17 1 2 3 1 24 25
18 1 2 3 1 25 26
19 1 2 3 1 26 27
20 1 2 3 1 27 28
21 1 2 3 1 28 29
22 1 2 3 1 29 30
23 1 2 3 1 30 31
24 1 2 3 1 31 32
25 1 2 3 1 32 33
26 1 2 3 1 33 34
27 1 2 3 1 34 35
28 1 2 3 1 35 36
29 1 2 3 1 36 37
30 1 2 3 1 37 38
31 1 2 3 1 38 39
32 1 2 3 1 39 40
33 1 2 3 1 40 41
34 1 2 3 1 41 2
35 1 2 3 2 2 42
36 1 2 3 2 42 43
37 1 2 3 2 43 44
38 1 2 3 2 44 45
39 1 2 3 2 45 46
40 1 2 3 2 46 47
41 1 2 3 2 47 3
42 1 2 3 3 3 48
43 1 2 3 3 48 49
44 1 2 3 3 49 50
45 1 2 3 3 50 51
46 1 2 3 3 51 52
47 1 2 3 3 52 53
48 1 2 3 3 53 4
49 1 2 3 4 4 54
50 1 2 3 4 54 55
51 1 2 3 4 55 56
52 1 2 3 4 56 57
53 1 2 3 4 57 58
54 1 2 3 4 58 59
55 1 2 3 4 59 5
56 1 2 3 5 5 60
57 1 2 3 5 60 61
58 1 2 3 5 61 62
59 1 2 3 5 62 63
60 1 2 3 5 63 64
61 1 2 3 5 64 65
62 1 2 3 5 65 66
63 1 2 3 5 66 67
64 1 2 3 5 67 68
65 1 2 3 5 68 69
66 1 2 3 5 69 70
67 1 2 3 5 70 71
68 1 2 3 5 71 72
69 1 2 3 5 72 73
70 1 2 3 5 73 74
71 1 2 3 5 74 75
72 1 2 3 5 75 76
73 1 2 3 5 76 77
74 1 2 3 5 77 78
75 1 2 3 5 78 79
76 1 2 3 5 79 80
77 1 2 3 5 80 81
78 1 2 3 5 81 82
79 1 2 3 5 82 83
80 1 2 3 5 83 84
81 1 2 3 5 84 85
82 1 2 3 5 85 86
83 1 2 3 5 86 87
84 1 2 3 5 87 88
85 1 2 3 5 88 89
86 1 2 3 5 89 90
87 1 2 3 5 90 91
88 1 2 3 5 91 92
89 1 2 3 5 92 93
90 1 2 3 5 93 94
91 1 2 3 5 94 95
92 1 2 3 5 95 96
93 1 2 3 5 96 97
94 1 2 3 5 97 98
95 1 2 3 5 98 99
96 1 2 3 5 99 100
97 1 2 3 5 100 101
98 1 2 3 5 101 102
99 1 2 3 5 102 103
100 1 2 3 5 103 104
101 1 2 3 5 104 105
102 1 2 3 5 105 106
103 1 2 3 5 106 107
104 1 2 3 5 107 108
105 1 2 3 5 108 109
106 1 2 3 5 109 110
107 1 2 3 5 110 111
108 1 2 3 5 111 112
109 1 2 3 5 112 113
110 1 2 3 5 113 114
111 1 2 3 5 114 115
112 1 2 3 5 115 116
113 1 2 3 5 116 117
114 1 2 3 5 117 118
115 1 2 3 5 118 119
116 1 2 3 5 119 120
117 1 2 3 5 120 121
118 1 2 3 5 121 122
119 1 2 3 5 122 123
120 1 2 3 5 123 124
121 1 2 3 5 124 125
122 1 2 3 5 125 126
123 1 2 3 5 126 127
124 1 2 3 5 127 128
125 1 2 3 5 128 129
126 1 2 3 5 129 130
127 1 2 3 5 130 131
128 1 2 3 5 131 132
129 1 2 3 5 132 133
130 1 2 3 5 133 134
131 1 2 3 5 134 135
132 1 2 3 5 135 136
133 1 2 3 5 136 137
134 1 2 3 5 137 138
135 1 2 3 5 138 139
136 1 2 3 5 139 140
137 1 2 3 5 140 141
138 1 2 3 5 141 142
139 1 2 3 5 142 143
140 1 2 3 5 143 144
141 1 2 3 5 144 145
142 1 2 3 5 145 146
143 1 2 3 5 146 147
144 1 2 3 5 147 148
145 1 2 3 5 148 149
146 1 2 3 5 149 150
147 1 2 3 5 150 151
148 1 2 3 5 151 152
149 1 2 3 5 152 153
150 1 2 3 5 153 154
151 1 2 3 5 154 155
152 1 2 3 5 155 156
153 1 2 3 5 156 157
154 1 2 3 5 157 158
155 1 2 3 5 158 159
156 1 2 3 5 159 160
157 1 2 3 5 160 161
158 1 2 3 5 161 162
159 1 2 3 5 162 163
160 1 2 3 5 163 164
161 1 2 3 5 164 165
162 1 2 3 5 165 166
163 1 2 3 5 166 167
164 1 2 3 5 167 168
165 1 2 3 5 168 169
166 1 2 3 5 169 170
167 1 2 3 5 170 171
168 1 2 3 5 171 172
169 1 2 3 5 172 173
170 1 2 3 5 173 174
171 1 2 3 5 174 175
172 1 2 3 5 175 176
173 1 2 3 5 176 177
174 1 2 3 5 177 178
175 1 2 3 5 178 179
176 1 2 3 5 179 180
177 1 2 3 5 180 181
178 1 2 3 5 181 182
179 1 2 3 5 182 183
180 1 2 3 5 183 184
181 1 2 3 5 184 185
182 1 2 3 5 185 186
183 1 2 3 5 186 187
184 1 2 3 5 187 188
185 1 2 3 5 188 189
186 1 2 3 5 189 190
187 1 2 3 5 190 191
188 1 2 3 5 191 192
189 1 2 3 5 192 193
190 1 2 3 5 193 194
191 1 2 3 5 194 195
192 1 2 3 5 195 196
193 1 2 3 5 196 197
194 1 2 3 5 197 198
195 1 2 3 5 198 199
196 1 2 3 5 199 200
197 1 2 3 5 200 201
198 1 2 3 5 201 202
199 1 2 3 5 202 203
200 1 2 3 5 203 204
201 1 2 3 5 204 205
202 1 2 3 5 205 206
203 1 2 3 5 206 207
204 1 2 3 5 207 208
205 1 2 3 5 208 209
206 1 2 3 5 209 210
207 1 2 3 5 210 211
208 1 2 3 5 211 212
209 1 2 3 5 212 213
210 1 2 3 5 213 214
211 1 2 3 5 214 215
212 1 2 3 5 215 216
213 1 2 3 5 216 217
214 1 2 3 5 217 218
215 1 2 3 5 218 219
216 1 2 3 5 219 220
217 1 2 3 5 220 221
218 1 2 3 5 221 222
219 1 2 3 5 222 223
220 1 2 3 5 223 224
221 1 2 3 5 224 225
222 1 2 3 5 225 226
223 1 2 3 5 226 227
224 1 2 3 5 227 228
225 1 2 3 5 228 229
226 1 2 3 5 229 230
227 1 2 3 5 230 231
228 1 2 3 5 231 232
229 1 2 3 5 232 233
230 1 2 3 5 233 234
231 1 2 3 5 234 235
232 1 2 3 5 235 236
233 1 2 3 5 236 237
234 1 2 3 5 237 238
235 1 2 3 5 238 239
236 1 2 3 5 239 240
237 1 2 3 5 240 241
238 1 2 3 5 241 242
239 1 2 3 5 242 243
240 1 2 3 5 243 244
241 1 2 3 5 244 245
242 1 2 3 5 245 246
243 1 2 3 5 246 247
244 1 2 3 5 247 248
245 1 2 3 5 248 249
246 1 2 3 5 249 250
247 1 2 3 5 250 251
248 1 2 3 5 251 252
249 1 2 3 5 252 253
250 1 2 3 5 253 254
251 1 2 3 5 254 255
252 1 2 3 5 255 256
253 1 2 3 5 256 257
254 1 2 3 5 257 258
255 1 2 3 5 258 259
256 1 2 3 5 259 260
257 1 2 3 5 260 261
258 1 2 3 5 261 262
259 1 2 3 5 262 263
260 1 2 3 5 263 264
261 1 2 3 5 264 265
262 1 2 3 5 265 266
263 1 2 3 5 266 267
264 1 2 3 5 267 268
265 1 2 3 5 268 269
266 1 2 3 5 269 270
267 1 2 3 5 270 271
268 1 2 3 5 271 272
269 1 2 3 5 272 273
270 1 2 3 5 273 274
271 1 2 3 5 274 275
272 1 2 3 5 275 276
273 1 2 3 5 276 277
274 1 2 3 5 277 278
275 1 2 3 5 278 279
276 1 2 3 5 279 280
277 1 2 3 5 280 281
278 1 2 3 5 281 282
279 1 2 3 5 282 283
280 1 2 3 5 283 284
281 1 2 3 5 284 285
282 1 2 3 5 285 6
283 1 2 2 6 6 286
284 1 2 2 6 286 287
285 1 2 2 6 287 288
286 1 2 2 6 288 289
287 1 2 2 6 289 290
288 1 2 2 6 290 291
289 1 2 2 6 291 292
290 1 2 2 6 292 293
291 1 2 2 6 293 294
292 1 2 2 6 294 295
293 1 2 2 6 295 296
294 1 2 2 6 296 297
295 1 2 2 6 297 298
296 1 2 2 6 298 299
297 1 2 2 6 299 300
298 1 2 2 6 300 301
299 1 2 2 6 301 302
300 1 2 2 6 302 303
301 1 2 2 6 303 304
302 1 2 2 6 304 305
303 1 2 2 6 305 306
304 1 2 2 6 306 307
305 1 2 2 6 307 308
306 1 2 2 6 308 309
307 1 2 2 6 309 310
308 1 2 2 6 310 311
309 1 2 2 6 311 312
310 1 2 2 6 312 313
311 1 2 2 6 313 314
312 1 2 2 6 314 315
313 1 2 2 6 315 316
314 1 2 2 6 316 317
315 1 2 2 6 317 318
316 1 2 2 6 318 319
317 1 2 2 6 319 320
318 1 2 2 6 320 321
319 1 2 2 6 321 322
320 1 2 2 6 322 323
321 1 2 2 6 323 324
322 1 2 2 6 324 325
323 1 2 2 6 325 326
324 1 2 2 6 326 327
325 1 2 2 6 327 328
326 1 2 2 6 328 329
327 1 2 2 6 329 330
328 1 2 2 6 330 331
329 1 2 2 6 331 332
330 1 2 2 6 332 333
331 1 2 2 6 333 334
332 1 2 2 6 334 335
333 1 2 2 6 335 336
334 1 2 2 6 336 337
335 1 2 2 6 337 338
336 1 2 2 6 338 339
337 1 2 2 6 339 340
338 1 2 2 6 340 341
339 1 2 2 6 341 342
340 1 2 2 6 342 343
341 1 2 2 6 343 344
342 1 2 2 6 344 345
343 1 2 2 6 345 346
344 1 2 2 6 346 347
345 1 2 2 6 347 348
346 1 2 2 6 348 349
347 1 2 2 6 349 350
348 1 2 2 6 350 351
349 1 2 2 6 351 7
350 1 2 4 7 7 352
351 1 2 4 7 352 353
352 1 2 4 7 353 354
353 1 2 4 7 354 355
354 1 2 4 7 355 356
355 1 2 4 7 356 357
356 1 2 4 7 357 358
357 1 2 4 7 358 359
358 1 2 4 7 359 360
359 1 2 4 7 360 361
360 1 2 4 7 361 362
361 1 2 4 7 362 363
362 1 2 4 7 363 364
363 1 2 4 7 364 365
364 1 2 4 7 365 366
365 1 2 4 7 366 367
366 1 2 4 7 367 368
367 1 2 4 7 368 369
368 1 2 4 7 369 370
369 1 2 4 7 370 371
370 1 2 4 7 371 372
371 1 2 4 7 372 373
372 1 2 4 7 373 374
373 1 2 4 7 374 375
374 1 2 4 7 375 376
375 1 2 4 7 376 377
376 1 2 4 7 377 378
377 1 2 4 7 378 379
378 1 2 4 7 379 380
379 1 2 4 7 380 381
380 1 2 4 7 381 382
381 1 2 4 7 382 383
382 1 2 4 7 383 384
383 1 2 4 7 384 385
384 1 2 4 7 385 386
385 1 2 4 7 386 387
386 1 2 4 7 387 388
387 1 2 4 7 388 389
388 1 2 4 7 389 390
389 1 2 4 7 390 391
390 1 2 4 7 391 392
391 1 2 4 7 392 393
392 1 2 4 7 393 394
393 1 2 4 7 394 395
394 1 2 4 7 395 396
395 1 2 4 7 396 397
396 1 2 4 7 397 398
397 1 2 4 7 398 399
398 1 2 4 7 399 400
399 1 2 4 7 400 401
400 1 2 4 7 401 402
401 1 2 4 7 402 403
402 1 2 4 7 403 404
403 1 2 4 7 404 405
404 1 2 4 7 405 406
405 1 2 4 7 406 407
406 1 2 4 7 407 408
407 1 2 4 7 408 409
408 1 2 4 7 409 410
409 1 2 4 7 410 411
410 1 2 4 7 411 412
411 1 2 4 7 412 413
412 1 2 4 7 413 414
413 1 2 4 7 414 415
414 1 2 4 7 415 416
415 1 2 4 7 416 417
416 1 2 4 7 417 418
417 1 2 4 7 418 419
418 1 2 4 7 419 420
419 1 2 4 7 420 421
420 1 2 4 7 421 422
421 1 2 4 7 422 423
422 1 2 4 7 423 424
423 1 2 4 7 424 425
424 1 2 4 7 425 426
425 1 2 4 7 426 427
426 1 2 4 7 427 428
427 1 2 4 7 428 429
428 1 2 4 7 429 430
429 1 2 4 7 430 431
430 1 2 4 7 431 432
431 1 2 4 7 432 433
432 1 2 4 7 433 434
433 1 2 4 7 434 435
434 1 2 4 7 435 436
435 1 2 4 7 436 437
436 1 2 4 7 437 438
437 1 2 4 7 438 439
438 1 2 4 7 439 440
439 1 2 4 7 440 441
440 1 2 4 7 441 442
441 1 2 4 7 442 443
442 1 2 4 7 443 444
443 1 2 4 7 444 445
444 1 2 4 7 445 446
445 1 2 4 7 446 447
446 1 2 4 7 447 448
447 1 2 4 7 448 449
448 1 2 4 7 449 450
449 1 2 4 7 450 451
450 1 2 4 7 451 452
451 1 2 4 7 452 453
452 1 2 4 7 453 454
453 1 2 4 7 454 455
454 1 2 4 7 455 456
455 1 2 4 7 456 457
456 1 2 4 7 457 458
457 1 2 4 7 458 459
458 1 2 4 7 459 460
459 1 2 4 7 460 461
460 1 2 4 7 461 462
461 1 2 4 7 462 463
462 1 2 4 7 463 464
463 1 2 4 7 464 465
464 1 2 4 7 465 466
465 1 2 4 7 466 467
466 1 2 4 7 467 468
467 1 2 4 7 468 469
468 1 2 4 7 469 470
469 1 2 4 7 470 471
470 1 2 4 7 471 472
471 1 2 4 7 472 473
472 1 2 4 7 473 474
473 1 2 4 7 474 475
474 1 2 4 7 475 476
475 1 2 4 7 476 477
476 1 2 4 7 477 478
477 1 2 4 7 478 479
478 1 2 4 7 479 480
479 1 2 4 7 480 481
480 1 2 4 7 481 482
481 1 2 4 7 482 483
482 1 2 4 7 483 484
483 1 2 4 7 484 485
484 1 2 4 7 485 486
485 1 2 4 7 486 487
486 1 2 4 7 487 488
487 1 2 4 7 488 489
488 1 2 4 7 489 490
489 1 2 4 7 490 491
490 1 2 4 7 491 492
491 1 2 4 7 492 493
492 1 2 4 7 493 494
493 1 2 4 7 494 495
494 1 2 4 7 495 496
495 1 2 4 7 496 497
496 1 2 4 7 497 498
497 1 2 4 7 498 499
498 1 2 4 7 499 500
499 1 2 4 7 500 501
500 1 2 4 7 501 502
501 1 2 4 7 502 503
502 1 2 4 7 503 504
503 1 2 4 7 504 505
504 1 2 4 7 505 506
505 1 2 4 7 506 507
506 1 2 4 7 507 508
507 1 2 4 7 508 509
508 1 2 4 7 509 510
509 1 2 4 7 510 511
510 1 2 4 7 511 512
511 1 2 4 7 512 513
512 1 2 4 7 513 514
513 1 2 4 7 514 515
514 1 2 4 7 515 516
515 1 2 4 7 516 517
516 1 2 4 7 517 518
517 1 2 4 7 518 519
518 1 2 4 7 519 520
519 1 2 4 7 520 521
520 1 2 4 7 521 522
521 1 2 4 7 522 523
522 1 2 4 7 523 524
523 1 2 4 7 524 525
524 1 2 4 7 525 526
525 1 2 4 7 526 527
526 1 2 4 7 527 528
527 1 2 4 7 528 529
528 1 2 4 7 529 530
529 1 2 4 7 530 531
530 1 2 4 7 531 532
531 1 2 4 7 532 533
532 1 2 4 7 533 534
533 1 2 4 7 534 535
534 1 2 4 7 535 536
535 1 2 4 7 536 537
536 1 2 4 7 537 538
537 1 2 4 7 538 539
538 1 2 4 7 539 540
539 1 2 4 7 540 541
540 1 2 4 7 541 542
541 1 2 4 7 542 543
542 1 2 4 7 543 544
543 1 2 4 7 544 545
544 1 2 4 7 545 546
545 1 2 4 7 546 547
546 1 2 4 7 547 548
547 1 2 4 7 548 549
548 1 2 4 7 549 550
549 1 2 4 7 550 551
550 1 2 4 7 551 552
551 1 2 4 7 552 553
552 1 2 4 7 553 554
553 1 2 4 7 554 555
554 1 2 4 7 555 556
555 1 2 4 7 556 557
556 1 2 4 7 557 558
557 1 2 4 7 558 559
558 1 2 4 7 559 560
559 1 2 4 7 560 561
560 1 2 4 7 561 562
561 1 2 4 7 562 563
562 1 2 4 7 563 564
563 1 2 4 7 564 565
564 1 2 4 7 565 566
565 1 2 4 7 566 567
566 1 2 4 7 567 568
567 1 2 4 7 568 569
568 1 2 4 7 569 570
569 1 2 4 7 570 571
570 1 2 4 7 571 572
571 1 2 4 7 572 573
572 1 2 4 7 573 574
573 1 2 4 7 574 575
574 1 2 4 7 575 576
575 1 2 4 7 576 577
576 1 2 4 7 577 578
577 1 2 4 7 578 579
578 1 2 4 7 579 580
579 1 2 4 7 580 581
580 1 2 4 7 581 582
581 1 2 4 7 582 583
582 1 2 4 7 583 584
583 1 2 4 7 584 585
584 1 2 4 7 585 586
585 1 2 4 7 586 587
586 1 2 4 7 587 588
587 1 2 4 7 588 589
588 1 2 4 7 589 590
589 1 2 4 7 590 591
590 1 2 4 7 591 592
591 1 2 4 7 592 593
592 1 2 4 7 593 594
593 1 2 4 7 594 595
594 1 2 4 7 595 596
595 1 2 4 7 596 597
596 1 2 4 7 597 598
597 1 2 4 7 598 599
598 1 2 4 7 599 600
599 1 2 4 7 600 601
600 1 2 4 7 601 602
601 1 2 4 7 602 603
602 1 2 4 7 603 604
603 1 2 4 7 604 605
604 1 2 4 7 605 606
605 1 2 4 7 606 607
606 1 2 4 7 607 608
607 1 2 4 7 608 609
608 1 2 4 7 609 610
609 1 2 4 7 610 611
610 1 2 4 7 611 612
611 1 2 4 7 612 613
612 1 2 4 7 613 614
613 1 2 4 7 614 615
614 1 2 4 7 615 616
615 1 2 4 7 616 617
616 1 2 4 7 617 8
617 1 2 1 8 8 618
618 1 2 1 8 618 619
619 1 2 1 8 619 620
620 1 2 1 8 620 621
621 1 2 1 8 621 622
622 1 2 1 8 622 623
623 1 2 1 8 623 624
624 1 2 1 8 624 625
625 1 2 1 8 625 626
626 1 2 1 8 626 627
627 1 2 1 8 627 628
628 1 2 1 8 628 629
629 1 2 1 8 629 630
630 1 2 1 8 630 631
631 1 2 1 8 631 632
632 1 2 1 8 632 633
633 1 2 1 8 633 634
634 1 2 1 8 634 635
635 1 2 1 8 635 636
636 1 2 1 8 636 637
637 1 2 1 8 637 638
638 1 2 1 8 638 639
639 1 2 1 8 639 640
640 1 2 1 8 640 641
641 1 2 1 8 641 642
642 1 2 1 8 642 643
643 1 2 1 8 643 644
644 1 2 1 8 644 645
645 1 2 1 8 645 646
646 1 2 1 8 646 647
647 1 2 1 8 647 648
648 1 2 1 8 648 649
649 1 2 1 8 649 650
650 1 2 1 8 650 651
651 1 2 1 8 651 652
652 1 2 1 8 652 653
653 1 2 1 8 653 654
654 1 2 1 8 654 655
655 1 2 1 8 655 656
656 1 2 1 8 656 657
657 1 2 1 8 657 658
658 1 2 1 8 658 659
659 1 2 1 8 659 660
660 1 2 1 8 660 661
661 1 2 1 8 661 662
662 1 2 1 8 662 663
663 1 2 1 8 663 664
664 1 2 1 8 664 665
665 1 2 1 8 665 666
666 1 2 1 8 666 667
667 1 2 1 8 667 668
668 1 2 1 8 668 669
669 1 2 1 8 669 670
670 1 2 1 8 670 671
671 1 2 1 8 671 672
672 1 2 1 8 672 673
673 1 2 1 8 673 674
674 1 2 1 8 674 675
675 1 2 1 8 675 676
676 1 2 1 8 676 677
677 1 2 1 8 677 678
678 1 2 1 8 678 679
679 1 2 1 8 679 680
680 1 2 1 8 680 681
681 1 2 1 8 681 682
682 1 2 1 8 682 683
683 1 2 1 8 683 1
$EndElements
